<svg xmlns="http://www.w3.org/2000/svg" xmlns:xlink="http://www.w3.org/1999/xlink" width="700" height="400" viewBox="0 0 2800 1600">
<defs>
  <clipPath id="clip820">
    <rect x="0" y="0" width="2800" height="1600"></rect>
  </clipPath>
</defs>
<path clip-path="url(#clip820)" d="M0 1600 L2800 1600 L2800 0 L0 0  Z" fill="#ffffff" fill-rule="evenodd" fill-opacity="1"></path>
<defs>
  <clipPath id="clip821">
    <rect x="560" y="0" width="1961" height="1600"></rect>
  </clipPath>
</defs>
<defs>
  <clipPath id="clip822">
    <rect x="411" y="47" width="1863" height="1282"></rect>
  </clipPath>
</defs>
<path clip-path="url(#clip820)" d="M411.445 1328.42 L2273.77 1328.42 L2273.77 47.2441 L411.445 47.2441  Z" fill="#ffffff" fill-rule="evenodd" fill-opacity="1"></path>
<polyline clip-path="url(#clip820)" style="stroke:#000000; stroke-linecap:round; stroke-linejoin:round; stroke-width:4; stroke-opacity:1; fill:none" points="411.445,1328.42 2273.77,1328.42 "></polyline>
<polyline clip-path="url(#clip820)" style="stroke:#000000; stroke-linecap:round; stroke-linejoin:round; stroke-width:4; stroke-opacity:1; fill:none" points="411.445,47.2441 2273.77,47.2441 "></polyline>
<polyline clip-path="url(#clip820)" style="stroke:#000000; stroke-linecap:round; stroke-linejoin:round; stroke-width:4; stroke-opacity:1; fill:none" points="464.152,1328.42 464.152,1309.52 "></polyline>
<polyline clip-path="url(#clip820)" style="stroke:#000000; stroke-linecap:round; stroke-linejoin:round; stroke-width:4; stroke-opacity:1; fill:none" points="815.534,1328.42 815.534,1309.52 "></polyline>
<polyline clip-path="url(#clip820)" style="stroke:#000000; stroke-linecap:round; stroke-linejoin:round; stroke-width:4; stroke-opacity:1; fill:none" points="1166.92,1328.42 1166.92,1309.52 "></polyline>
<polyline clip-path="url(#clip820)" style="stroke:#000000; stroke-linecap:round; stroke-linejoin:round; stroke-width:4; stroke-opacity:1; fill:none" points="1518.3,1328.42 1518.3,1309.52 "></polyline>
<polyline clip-path="url(#clip820)" style="stroke:#000000; stroke-linecap:round; stroke-linejoin:round; stroke-width:4; stroke-opacity:1; fill:none" points="1869.68,1328.42 1869.68,1309.52 "></polyline>
<polyline clip-path="url(#clip820)" style="stroke:#000000; stroke-linecap:round; stroke-linejoin:round; stroke-width:4; stroke-opacity:1; fill:none" points="2221.06,1328.42 2221.06,1309.52 "></polyline>
<path clip-path="url(#clip820)" d="M444.189 1401.48 Q444.189 1387.53 447.709 1379.94 Q452.619 1368.64 464.199 1368.64 Q466.654 1368.64 469.201 1369.33 Q471.795 1369.98 475.037 1372.53 Q478.326 1375.08 480.318 1379.24 Q484.116 1387.3 484.116 1401.48 Q484.116 1415.33 480.596 1422.88 Q475.454 1433.9 464.106 1433.9 Q459.845 1433.9 455.491 1431.72 Q451.183 1429.55 448.45 1424.31 Q444.189 1416.48 444.189 1401.48 M452.063 1400.32 Q452.063 1414.63 453.082 1420.33 Q454.24 1426.49 457.39 1429.18 Q460.586 1431.82 464.106 1431.82 Q467.904 1431.82 471.054 1428.99 Q474.25 1426.12 475.223 1419.96 Q476.288 1413.89 476.242 1400.32 Q476.242 1387.12 475.315 1381.84 Q474.065 1375.68 470.73 1373.22 Q467.441 1370.72 464.106 1370.72 Q462.855 1370.72 461.512 1371.09 Q460.215 1371.46 458.316 1372.53 Q456.417 1373.59 454.935 1376.23 Q453.499 1378.87 452.804 1382.86 Q452.063 1388 452.063 1400.32 Z" fill="#000000" fill-rule="nonzero" fill-opacity="1"></path><path clip-path="url(#clip820)" d="M799.879 1377.67 L799.879 1374.7 Q811.273 1374.7 817.155 1368.64 Q818.777 1368.64 819.055 1369.01 Q819.332 1369.38 819.332 1371.09 L819.332 1424.31 Q819.332 1427.14 820.722 1428.02 Q822.112 1428.9 828.179 1428.9 L831.19 1428.9 L831.19 1431.82 Q827.855 1431.54 815.812 1431.54 Q803.769 1431.54 800.481 1431.82 L800.481 1428.9 L803.491 1428.9 Q809.467 1428.9 810.902 1428.06 Q812.338 1427.18 812.338 1424.31 L812.338 1375.17 Q807.382 1377.67 799.879 1377.67 Z" fill="#000000" fill-rule="nonzero" fill-opacity="1"></path><path clip-path="url(#clip820)" d="M1147.97 1431.82 Q1147.97 1430.1 1148.11 1429.59 Q1148.3 1429.08 1149.04 1428.3 L1167.24 1408.01 Q1177.2 1396.8 1177.2 1387.03 Q1177.2 1380.68 1173.86 1376.14 Q1170.58 1371.6 1164.51 1371.6 Q1160.34 1371.6 1156.82 1374.15 Q1153.3 1376.7 1151.68 1381.24 Q1151.96 1381.14 1152.93 1381.14 Q1155.29 1381.14 1156.59 1382.63 Q1157.93 1384.11 1157.93 1386.1 Q1157.93 1388.65 1156.26 1389.9 Q1154.64 1391.1 1153.02 1391.1 Q1152.37 1391.1 1151.49 1390.96 Q1150.66 1390.82 1149.32 1389.53 Q1147.97 1388.18 1147.97 1385.82 Q1147.97 1379.2 1152.97 1373.92 Q1158.02 1368.64 1165.71 1368.64 Q1174.42 1368.64 1180.12 1373.82 Q1185.86 1378.97 1185.86 1387.03 Q1185.86 1389.85 1184.98 1392.44 Q1184.15 1394.99 1182.99 1396.98 Q1181.88 1398.98 1178.82 1402.17 Q1175.76 1405.37 1173.31 1407.64 Q1170.85 1409.91 1165.34 1414.72 L1155.29 1424.5 L1172.38 1424.5 Q1180.72 1424.5 1181.37 1423.76 Q1182.29 1422.41 1183.45 1415.33 L1185.86 1415.33 L1183.17 1431.82 L1147.97 1431.82 Z" fill="#000000" fill-rule="nonzero" fill-opacity="1"></path><path clip-path="url(#clip820)" d="M1498.61 1419.03 Q1498.61 1416.21 1500.23 1414.86 Q1501.85 1413.52 1503.94 1413.52 Q1506.12 1413.52 1507.64 1414.96 Q1509.22 1416.35 1509.22 1418.8 Q1509.22 1421.44 1507.37 1422.92 Q1505.56 1424.4 1502.97 1424.03 Q1505.24 1427.83 1509.4 1429.55 Q1513.62 1431.26 1517.51 1431.26 Q1521.59 1431.26 1524.88 1427.74 Q1528.21 1424.22 1528.21 1415.6 Q1528.21 1408.29 1525.34 1404.07 Q1522.51 1399.86 1516.91 1399.86 L1512.74 1399.86 Q1511.3 1399.86 1510.89 1399.72 Q1510.47 1399.58 1510.47 1398.79 Q1510.47 1397.86 1511.91 1397.68 Q1513.34 1397.68 1515.61 1397.4 Q1521.12 1397.22 1524.04 1392.44 Q1526.68 1388 1526.68 1381.65 Q1526.68 1375.86 1523.9 1373.45 Q1521.17 1371 1517.6 1371 Q1514.27 1371 1510.61 1372.39 Q1506.95 1373.78 1504.96 1376.88 Q1510.84 1376.88 1510.84 1381.65 Q1510.84 1383.74 1509.5 1385.13 Q1508.2 1386.47 1506.02 1386.47 Q1503.94 1386.47 1502.55 1385.17 Q1501.16 1383.83 1501.16 1381.56 Q1501.16 1376.14 1505.98 1372.39 Q1510.84 1368.64 1517.97 1368.64 Q1525.01 1368.64 1530.2 1372.34 Q1535.44 1376.05 1535.44 1381.75 Q1535.44 1387.35 1531.73 1391.94 Q1528.03 1396.52 1522.14 1398.42 Q1529.37 1399.86 1533.68 1404.77 Q1537.98 1409.63 1537.98 1415.6 Q1537.98 1423.02 1532.15 1428.48 Q1526.31 1433.9 1517.79 1433.9 Q1509.91 1433.9 1504.26 1429.64 Q1498.61 1425.38 1498.61 1419.03 Z" fill="#000000" fill-rule="nonzero" fill-opacity="1"></path><path clip-path="url(#clip820)" d="M1848.65 1416.16 L1848.65 1413.24 L1877.79 1368.73 Q1878.53 1367.57 1879.68 1367.62 Q1880.75 1367.62 1880.98 1368.03 Q1881.21 1368.45 1881.21 1370.07 L1881.21 1413.24 L1890.71 1413.24 L1890.71 1416.16 L1881.21 1416.16 L1881.21 1424.4 Q1881.21 1427.14 1882.33 1428.02 Q1883.48 1428.9 1888.39 1428.9 L1890.38 1428.9 L1890.38 1431.82 Q1886.49 1431.54 1877.51 1431.54 Q1868.57 1431.54 1864.68 1431.82 L1864.68 1428.9 L1866.67 1428.9 Q1871.58 1428.9 1872.74 1428.06 Q1873.9 1427.18 1873.9 1424.4 L1873.9 1416.16 L1848.65 1416.16 M1851.34 1413.24 L1874.45 1413.24 L1874.45 1377.85 L1851.34 1413.24 Z" fill="#000000" fill-rule="nonzero" fill-opacity="1"></path><path clip-path="url(#clip820)" d="M2202.12 1416.53 Q2202.12 1413.71 2203.65 1412.64 Q2205.17 1411.53 2206.8 1411.53 Q2208.97 1411.53 2210.22 1412.92 Q2211.52 1414.26 2211.52 1416.16 Q2211.52 1418.06 2210.22 1419.45 Q2208.97 1420.79 2206.8 1420.79 Q2205.73 1420.79 2205.17 1420.61 Q2206.43 1424.96 2210.22 1428.11 Q2214.07 1431.26 2219.12 1431.26 Q2225.46 1431.26 2229.26 1425.1 Q2231.53 1421.12 2231.53 1412.08 Q2231.53 1404.12 2229.82 1400.13 Q2227.18 1394.07 2221.76 1394.07 Q2214.07 1394.07 2209.53 1400.69 Q2208.97 1401.52 2208.32 1401.57 Q2207.4 1401.57 2207.17 1401.06 Q2206.98 1400.5 2206.98 1399.07 L2206.98 1371 Q2206.98 1368.73 2207.91 1368.73 Q2208.28 1368.73 2209.07 1369.01 Q2215.04 1371.65 2221.66 1371.69 Q2228.47 1371.69 2234.59 1368.91 Q2235.05 1368.64 2235.33 1368.64 Q2236.25 1368.64 2236.3 1369.7 Q2236.3 1370.07 2235.51 1371.18 Q2234.77 1372.25 2233.15 1373.69 Q2231.53 1375.08 2229.45 1376.42 Q2227.36 1377.76 2224.3 1378.69 Q2221.29 1379.57 2217.96 1379.57 Q2213.98 1379.57 2209.9 1378.32 L2209.9 1396.8 Q2214.81 1391.98 2221.94 1391.98 Q2229.54 1391.98 2234.77 1398.1 Q2240.01 1404.21 2240.01 1412.73 Q2240.01 1421.67 2233.8 1427.79 Q2227.64 1433.9 2219.3 1433.9 Q2211.71 1433.9 2206.89 1428.48 Q2202.12 1423.06 2202.12 1416.53 Z" fill="#000000" fill-rule="nonzero" fill-opacity="1"></path><path clip-path="url(#clip820)" d="M1367.1 1478.6 Q1367.1 1478.68 1367.02 1478.77 Q1366.49 1483.11 1365.46 1485.53 Q1364.44 1487.91 1362.14 1489.01 Q1360.46 1489.83 1358.37 1489.83 Q1355.22 1489.83 1350.67 1487.74 Q1350.5 1487.66 1349.6 1487.25 Q1348.7 1486.84 1348.37 1486.72 Q1348.04 1486.6 1347.35 1486.35 Q1346.65 1486.06 1346.12 1485.98 Q1345.58 1485.9 1345.05 1485.9 Q1343.9 1485.9 1342.92 1486.39 Q1340.91 1487.37 1339.68 1488.85 Q1338.41 1490.28 1338.08 1492.87 Q1338 1493.19 1337.71 1493.44 Q1337.43 1493.69 1337.06 1493.69 Q1336.69 1493.69 1336.36 1493.4 Q1336.03 1493.11 1336.03 1492.7 Q1336.03 1492.62 1336.11 1492.54 Q1336.65 1488.19 1337.67 1485.82 Q1338.7 1483.4 1340.99 1482.29 Q1342.8 1481.43 1344.76 1481.43 Q1347.84 1481.43 1352.51 1483.56 Q1352.67 1483.64 1353.58 1484.05 Q1354.48 1484.46 1354.81 1484.59 Q1355.13 1484.71 1355.83 1485 Q1356.53 1485.24 1357.06 1485.32 Q1357.59 1485.41 1358.13 1485.41 Q1359.15 1485.41 1360.22 1484.87 Q1362.22 1483.89 1363.5 1482.46 Q1364.77 1481.02 1365.09 1478.44 Q1365.18 1478.11 1365.46 1477.86 Q1365.75 1477.58 1366.12 1477.58 Q1366.49 1477.58 1366.82 1477.91 Q1367.1 1478.19 1367.1 1478.6 Z" fill="#000000" fill-rule="nonzero" fill-opacity="1"></path><path clip-path="url(#clip820)" d="M1368.49 1507.59 Q1368.49 1508 1367.5 1509.76 Q1366.56 1511.46 1363.11 1515.73 Q1359.65 1520 1354.5 1524.98 Q1352.57 1526.91 1349.64 1529.61 Q1346.71 1532.3 1344.72 1534.06 L1342.73 1535.81 Q1335.12 1542.26 1328.44 1549.46 Q1328.91 1549.28 1329.73 1549.22 Q1330.55 1549.11 1331.13 1549.11 L1331.72 1549.11 Q1334.76 1549.11 1340.09 1551.16 Q1344.78 1552.68 1347.18 1552.68 Q1349.52 1552.68 1352.1 1551.86 Q1354.67 1551.04 1357.48 1548.64 Q1360.29 1546.24 1361.58 1542.61 Q1361.82 1542.02 1361.93 1541.85 Q1362.05 1541.61 1362.4 1541.38 Q1362.75 1541.08 1363.22 1541.08 Q1363.87 1541.08 1364.28 1541.44 Q1364.69 1541.79 1364.69 1542.26 Q1364.69 1543.31 1363.87 1545.42 Q1363.11 1547.53 1361.41 1550.16 Q1359.77 1552.8 1357.6 1555.2 Q1355.49 1557.54 1352.33 1559.18 Q1349.17 1560.76 1345.83 1560.76 Q1343.43 1560.76 1341.67 1559.59 Q1339.92 1558.48 1338.16 1556.31 Q1335.76 1553.56 1334.47 1552.68 Q1333.18 1551.74 1331.19 1551.74 Q1325.86 1551.74 1321 1559.18 Q1320.48 1560.23 1320.12 1560.47 Q1319.83 1560.76 1319.13 1560.76 Q1317.67 1560.7 1317.67 1559.53 Q1317.67 1559.06 1318.95 1557.01 Q1320.3 1554.9 1323.29 1551.22 Q1326.33 1547.53 1330.02 1543.84 L1340.8 1533.77 Q1352.74 1523.69 1357.48 1518.01 Q1355.49 1518.01 1354.61 1517.96 Q1353.79 1517.9 1352.16 1517.55 Q1350.52 1517.14 1348.23 1516.26 Q1342.9 1514.44 1340.68 1514.44 Q1340.09 1514.44 1339.45 1514.5 Q1338.8 1514.56 1337.34 1514.85 Q1335.94 1515.14 1334.76 1515.73 Q1333.59 1516.26 1332.36 1517.43 Q1331.13 1518.54 1330.49 1520.06 Q1330.31 1520.53 1330.2 1520.77 Q1330.08 1521 1329.73 1521.23 Q1329.44 1521.41 1328.97 1521.41 Q1328.26 1521.41 1327.85 1521 Q1327.5 1520.59 1327.5 1520.06 Q1327.5 1519.01 1328.56 1516.84 Q1329.61 1514.68 1331.37 1512.33 Q1333.12 1509.93 1335.99 1508.18 Q1338.86 1506.42 1342.02 1506.42 Q1343.9 1506.42 1345.48 1507.24 Q1347.12 1508.06 1347.94 1508.94 Q1348.82 1509.76 1350.28 1511.57 Q1351.51 1512.98 1352.1 1513.56 Q1352.68 1514.15 1353.85 1514.79 Q1355.08 1515.38 1356.43 1515.38 Q1358.65 1515.38 1360.7 1513.68 Q1362.75 1511.92 1365.39 1507.71 Q1366.09 1506.42 1367.2 1506.42 Q1368.49 1506.42 1368.49 1507.59 Z" fill="#000000" fill-rule="nonzero" fill-opacity="1"></path><polyline clip-path="url(#clip820)" style="stroke:#000000; stroke-linecap:round; stroke-linejoin:round; stroke-width:4; stroke-opacity:1; fill:none" points="411.445,1328.42 411.445,47.2441 "></polyline>
<polyline clip-path="url(#clip820)" style="stroke:#000000; stroke-linecap:round; stroke-linejoin:round; stroke-width:4; stroke-opacity:1; fill:none" points="2273.77,1328.42 2273.77,47.2441 "></polyline>
<polyline clip-path="url(#clip820)" style="stroke:#000000; stroke-linecap:round; stroke-linejoin:round; stroke-width:4; stroke-opacity:1; fill:none" points="411.445,1292.16 426.477,1292.16 "></polyline>
<polyline clip-path="url(#clip820)" style="stroke:#000000; stroke-linecap:round; stroke-linejoin:round; stroke-width:4; stroke-opacity:1; fill:none" points="411.445,998.228 426.477,998.228 "></polyline>
<polyline clip-path="url(#clip820)" style="stroke:#000000; stroke-linecap:round; stroke-linejoin:round; stroke-width:4; stroke-opacity:1; fill:none" points="411.445,704.3 426.477,704.3 "></polyline>
<polyline clip-path="url(#clip820)" style="stroke:#000000; stroke-linecap:round; stroke-linejoin:round; stroke-width:4; stroke-opacity:1; fill:none" points="411.445,410.371 426.477,410.371 "></polyline>
<polyline clip-path="url(#clip820)" style="stroke:#000000; stroke-linecap:round; stroke-linejoin:round; stroke-width:4; stroke-opacity:1; fill:none" points="411.445,116.443 426.477,116.443 "></polyline>
<path clip-path="url(#clip820)" d="M208.302 1294.22 Q208.302 1280.28 211.822 1272.68 Q216.732 1261.38 228.312 1261.38 Q230.767 1261.38 233.314 1262.07 Q235.908 1262.72 239.15 1265.27 Q242.439 1267.82 244.431 1271.98 Q248.229 1280.04 248.229 1294.22 Q248.229 1308.07 244.709 1315.62 Q239.567 1326.64 228.219 1326.64 Q223.958 1326.64 219.604 1324.46 Q215.296 1322.29 212.563 1317.05 Q208.302 1309.22 208.302 1294.22 M216.176 1293.06 Q216.176 1307.37 217.195 1313.07 Q218.353 1319.23 221.503 1321.92 Q224.699 1324.56 228.219 1324.56 Q232.017 1324.56 235.167 1321.73 Q238.363 1318.86 239.336 1312.7 Q240.401 1306.63 240.355 1293.06 Q240.355 1279.86 239.428 1274.58 Q238.178 1268.42 234.843 1265.96 Q231.554 1263.46 228.219 1263.46 Q226.968 1263.46 225.625 1263.83 Q224.328 1264.2 222.429 1265.27 Q220.53 1266.33 219.048 1268.97 Q217.612 1271.61 216.917 1275.6 Q216.176 1280.74 216.176 1293.06 Z" fill="#000000" fill-rule="nonzero" fill-opacity="1"></path><path clip-path="url(#clip820)" d="M261.522 1323.03 Q260.086 1321.5 260.086 1319.51 Q260.086 1317.52 261.522 1316.08 Q262.958 1314.6 265.135 1314.6 Q267.219 1314.6 268.609 1315.99 Q270.045 1317.33 270.045 1319.55 Q270.045 1321.73 268.516 1323.17 Q267.034 1324.56 265.135 1324.56 Q262.958 1324.56 261.522 1323.03 Z" fill="#000000" fill-rule="nonzero" fill-opacity="1"></path><path clip-path="url(#clip820)" d="M282.088 1294.22 Q282.088 1280.28 285.608 1272.68 Q290.518 1261.38 302.098 1261.38 Q304.552 1261.38 307.1 1262.07 Q309.694 1262.72 312.936 1265.27 Q316.225 1267.82 318.216 1271.98 Q322.015 1280.04 322.015 1294.22 Q322.015 1308.07 318.494 1315.62 Q313.353 1326.64 302.005 1326.64 Q297.744 1326.64 293.39 1324.46 Q289.082 1322.29 286.349 1317.05 Q282.088 1309.22 282.088 1294.22 M289.962 1293.06 Q289.962 1307.37 290.981 1313.07 Q292.139 1319.23 295.289 1321.92 Q298.485 1324.56 302.005 1324.56 Q305.803 1324.56 308.953 1321.73 Q312.149 1318.86 313.121 1312.7 Q314.187 1306.63 314.14 1293.06 Q314.14 1279.86 313.214 1274.58 Q311.963 1268.42 308.628 1265.96 Q305.34 1263.46 302.005 1263.46 Q300.754 1263.46 299.411 1263.83 Q298.114 1264.2 296.215 1265.27 Q294.316 1266.33 292.834 1268.97 Q291.398 1271.61 290.703 1275.6 Q289.962 1280.74 289.962 1293.06 Z" fill="#000000" fill-rule="nonzero" fill-opacity="1"></path><path clip-path="url(#clip820)" d="M329.518 1294.22 Q329.518 1280.28 333.038 1272.68 Q337.948 1261.38 349.528 1261.38 Q351.983 1261.38 354.53 1262.07 Q357.124 1262.72 360.367 1265.27 Q363.655 1267.82 365.647 1271.98 Q369.445 1280.04 369.445 1294.22 Q369.445 1308.07 365.925 1315.62 Q360.783 1326.64 349.435 1326.64 Q345.174 1326.64 340.82 1324.46 Q336.512 1322.29 333.78 1317.05 Q329.518 1309.22 329.518 1294.22 M337.392 1293.06 Q337.392 1307.37 338.411 1313.07 Q339.569 1319.23 342.719 1321.92 Q345.915 1324.56 349.435 1324.56 Q353.233 1324.56 356.383 1321.73 Q359.579 1318.86 360.552 1312.7 Q361.617 1306.63 361.571 1293.06 Q361.571 1279.86 360.644 1274.58 Q359.394 1268.42 356.059 1265.96 Q352.77 1263.46 349.435 1263.46 Q348.185 1263.46 346.841 1263.83 Q345.545 1264.2 343.645 1265.27 Q341.746 1266.33 340.264 1268.97 Q338.828 1271.61 338.134 1275.6 Q337.392 1280.74 337.392 1293.06 Z" fill="#000000" fill-rule="nonzero" fill-opacity="1"></path><path clip-path="url(#clip820)" d="M209.321 1000.29 Q209.321 986.347 212.841 978.751 Q217.751 967.449 229.331 967.449 Q231.786 967.449 234.333 968.144 Q236.927 968.792 240.169 971.34 Q243.458 973.887 245.45 978.056 Q249.248 986.116 249.248 1000.29 Q249.248 1014.14 245.728 1021.69 Q240.586 1032.71 229.238 1032.71 Q224.977 1032.71 220.623 1030.54 Q216.315 1028.36 213.582 1023.12 Q209.321 1015.3 209.321 1000.29 M217.195 999.131 Q217.195 1013.44 218.214 1019.14 Q219.372 1025.3 222.522 1027.99 Q225.718 1030.63 229.238 1030.63 Q233.036 1030.63 236.186 1027.8 Q239.382 1024.93 240.355 1018.77 Q241.42 1012.7 241.374 999.131 Q241.374 985.93 240.447 980.65 Q239.197 974.489 235.862 972.035 Q232.573 969.533 229.238 969.533 Q227.987 969.533 226.644 969.904 Q225.347 970.274 223.448 971.34 Q221.549 972.405 220.067 975.045 Q218.631 977.685 217.936 981.669 Q217.195 986.81 217.195 999.131 Z" fill="#000000" fill-rule="nonzero" fill-opacity="1"></path><path clip-path="url(#clip820)" d="M262.541 1029.1 Q261.105 1027.57 261.105 1025.58 Q261.105 1023.59 262.541 1022.15 Q263.977 1020.67 266.154 1020.67 Q268.238 1020.67 269.628 1022.06 Q271.064 1023.4 271.064 1025.63 Q271.064 1027.8 269.535 1029.24 Q268.053 1030.63 266.154 1030.63 Q263.977 1030.63 262.541 1029.1 Z" fill="#000000" fill-rule="nonzero" fill-opacity="1"></path><path clip-path="url(#clip820)" d="M284.126 1030.63 Q284.126 1028.91 284.265 1028.4 Q284.45 1027.9 285.191 1027.11 L303.394 1006.82 Q313.353 995.611 313.353 985.838 Q313.353 979.492 310.018 974.953 Q306.729 970.413 300.662 970.413 Q296.493 970.413 292.973 972.961 Q289.452 975.509 287.831 980.048 Q288.109 979.955 289.082 979.955 Q291.444 979.955 292.741 981.437 Q294.084 982.92 294.084 984.911 Q294.084 987.459 292.417 988.709 Q290.796 989.914 289.175 989.914 Q288.526 989.914 287.646 989.775 Q286.812 989.636 285.469 988.339 Q284.126 986.996 284.126 984.633 Q284.126 978.01 289.128 972.729 Q294.177 967.449 301.866 967.449 Q310.574 967.449 316.271 972.637 Q322.015 977.778 322.015 985.838 Q322.015 988.663 321.135 991.257 Q320.301 993.804 319.143 995.796 Q318.031 997.788 314.974 1000.98 Q311.917 1004.18 309.462 1006.45 Q307.007 1008.72 301.495 1013.54 L291.444 1023.31 L308.536 1023.31 Q316.873 1023.31 317.522 1022.57 Q318.448 1021.23 319.606 1014.14 L322.015 1014.14 L319.328 1030.63 L284.126 1030.63 Z" fill="#000000" fill-rule="nonzero" fill-opacity="1"></path><path clip-path="url(#clip820)" d="M331.556 1015.34 Q331.556 1012.52 333.085 1011.45 Q334.613 1010.34 336.234 1010.34 Q338.411 1010.34 339.662 1011.73 Q340.959 1013.07 340.959 1014.97 Q340.959 1016.87 339.662 1018.26 Q338.411 1019.6 336.234 1019.6 Q335.169 1019.6 334.613 1019.42 Q335.864 1023.77 339.662 1026.92 Q343.507 1030.07 348.555 1030.07 Q354.901 1030.07 358.699 1023.91 Q360.969 1019.93 360.969 1010.9 Q360.969 1002.93 359.255 998.946 Q356.615 992.878 351.195 992.878 Q343.507 992.878 338.967 999.502 Q338.411 1000.34 337.763 1000.38 Q336.837 1000.38 336.605 999.872 Q336.42 999.316 336.42 997.88 L336.42 969.811 Q336.42 967.542 337.346 967.542 Q337.717 967.542 338.504 967.82 Q344.479 970.46 351.103 970.506 Q357.912 970.506 364.026 967.727 Q364.489 967.449 364.767 967.449 Q365.693 967.449 365.74 968.514 Q365.74 968.885 364.952 969.997 Q364.211 971.062 362.59 972.498 Q360.969 973.887 358.884 975.231 Q356.8 976.574 353.743 977.5 Q350.732 978.38 347.397 978.38 Q343.414 978.38 339.338 977.13 L339.338 995.611 Q344.248 990.794 351.381 990.794 Q358.977 990.794 364.211 996.908 Q369.445 1003.02 369.445 1011.54 Q369.445 1020.48 363.238 1026.6 Q357.078 1032.71 348.741 1032.71 Q341.144 1032.71 336.327 1027.29 Q331.556 1021.87 331.556 1015.34 Z" fill="#000000" fill-rule="nonzero" fill-opacity="1"></path><path clip-path="url(#clip820)" d="M208.302 706.361 Q208.302 692.419 211.822 684.823 Q216.732 673.521 228.312 673.521 Q230.767 673.521 233.314 674.216 Q235.908 674.864 239.15 677.412 Q242.439 679.959 244.431 684.128 Q248.229 692.187 248.229 706.361 Q248.229 720.21 244.709 727.76 Q239.567 738.784 228.219 738.784 Q223.958 738.784 219.604 736.607 Q215.296 734.43 212.563 729.196 Q208.302 721.368 208.302 706.361 M216.176 705.203 Q216.176 719.515 217.195 725.213 Q218.353 731.373 221.503 734.059 Q224.699 736.7 228.219 736.7 Q232.017 736.7 235.167 733.874 Q238.363 731.002 239.336 724.842 Q240.401 718.774 240.355 705.203 Q240.355 692.002 239.428 686.722 Q238.178 680.561 234.843 678.106 Q231.554 675.605 228.219 675.605 Q226.968 675.605 225.625 675.976 Q224.328 676.346 222.429 677.412 Q220.53 678.477 219.048 681.117 Q217.612 683.757 216.917 687.741 Q216.176 692.882 216.176 705.203 Z" fill="#000000" fill-rule="nonzero" fill-opacity="1"></path><path clip-path="url(#clip820)" d="M261.522 735.171 Q260.086 733.643 260.086 731.651 Q260.086 729.659 261.522 728.223 Q262.958 726.741 265.135 726.741 Q267.219 726.741 268.609 728.131 Q270.045 729.474 270.045 731.697 Q270.045 733.874 268.516 735.31 Q267.034 736.7 265.135 736.7 Q262.958 736.7 261.522 735.171 Z" fill="#000000" fill-rule="nonzero" fill-opacity="1"></path><path clip-path="url(#clip820)" d="M283.107 721.414 Q283.107 718.589 284.635 717.524 Q286.164 716.412 287.785 716.412 Q289.962 716.412 291.213 717.802 Q292.51 719.145 292.51 721.044 Q292.51 722.943 291.213 724.332 Q289.962 725.676 287.785 725.676 Q286.72 725.676 286.164 725.49 Q287.414 729.844 291.213 732.994 Q295.057 736.144 300.106 736.144 Q306.451 736.144 310.25 729.983 Q312.519 726 312.519 716.968 Q312.519 709.001 310.805 705.018 Q308.165 698.95 302.746 698.95 Q295.057 698.95 290.518 705.573 Q289.962 706.407 289.314 706.453 Q288.387 706.453 288.156 705.944 Q287.97 705.388 287.97 703.952 L287.97 675.883 Q287.97 673.613 288.897 673.613 Q289.267 673.613 290.055 673.891 Q296.03 676.531 302.653 676.578 Q309.462 676.578 315.576 673.799 Q316.039 673.521 316.317 673.521 Q317.244 673.521 317.29 674.586 Q317.29 674.957 316.503 676.068 Q315.762 677.134 314.14 678.569 Q312.519 679.959 310.435 681.302 Q308.351 682.646 305.294 683.572 Q302.283 684.452 298.948 684.452 Q294.964 684.452 290.888 683.201 L290.888 701.683 Q295.798 696.865 302.931 696.865 Q310.528 696.865 315.762 702.979 Q320.996 709.094 320.996 717.616 Q320.996 726.556 314.789 732.67 Q308.628 738.784 300.291 738.784 Q292.695 738.784 287.878 733.365 Q283.107 727.945 283.107 721.414 Z" fill="#000000" fill-rule="nonzero" fill-opacity="1"></path><path clip-path="url(#clip820)" d="M329.518 706.361 Q329.518 692.419 333.038 684.823 Q337.948 673.521 349.528 673.521 Q351.983 673.521 354.53 674.216 Q357.124 674.864 360.367 677.412 Q363.655 679.959 365.647 684.128 Q369.445 692.187 369.445 706.361 Q369.445 720.21 365.925 727.76 Q360.783 738.784 349.435 738.784 Q345.174 738.784 340.82 736.607 Q336.512 734.43 333.78 729.196 Q329.518 721.368 329.518 706.361 M337.392 705.203 Q337.392 719.515 338.411 725.213 Q339.569 731.373 342.719 734.059 Q345.915 736.7 349.435 736.7 Q353.233 736.7 356.383 733.874 Q359.579 731.002 360.552 724.842 Q361.617 718.774 361.571 705.203 Q361.571 692.002 360.644 686.722 Q359.394 680.561 356.059 678.106 Q352.77 675.605 349.435 675.605 Q348.185 675.605 346.841 675.976 Q345.545 676.346 343.645 677.412 Q341.746 678.477 340.264 681.117 Q338.828 683.757 338.134 687.741 Q337.392 692.882 337.392 705.203 Z" fill="#000000" fill-rule="nonzero" fill-opacity="1"></path><path clip-path="url(#clip820)" d="M209.321 412.432 Q209.321 398.49 212.841 390.894 Q217.751 379.592 229.331 379.592 Q231.786 379.592 234.333 380.287 Q236.927 380.936 240.169 383.483 Q243.458 386.031 245.45 390.199 Q249.248 398.259 249.248 412.432 Q249.248 426.282 245.728 433.832 Q240.586 444.856 229.238 444.856 Q224.977 444.856 220.623 442.679 Q216.315 440.502 213.582 435.268 Q209.321 427.44 209.321 412.432 M217.195 411.274 Q217.195 425.587 218.214 431.284 Q219.372 437.445 222.522 440.131 Q225.718 442.771 229.238 442.771 Q233.036 442.771 236.186 439.946 Q239.382 437.074 240.355 430.914 Q241.42 424.846 241.374 411.274 Q241.374 398.074 240.447 392.793 Q239.197 386.633 235.862 384.178 Q232.573 381.677 229.238 381.677 Q227.987 381.677 226.644 382.047 Q225.347 382.418 223.448 383.483 Q221.549 384.549 220.067 387.189 Q218.631 389.829 217.936 393.812 Q217.195 398.954 217.195 411.274 Z" fill="#000000" fill-rule="nonzero" fill-opacity="1"></path><path clip-path="url(#clip820)" d="M262.541 441.243 Q261.105 439.714 261.105 437.723 Q261.105 435.731 262.541 434.295 Q263.977 432.813 266.154 432.813 Q268.238 432.813 269.628 434.202 Q271.064 435.546 271.064 437.769 Q271.064 439.946 269.535 441.382 Q268.053 442.771 266.154 442.771 Q263.977 442.771 262.541 441.243 Z" fill="#000000" fill-rule="nonzero" fill-opacity="1"></path><path clip-path="url(#clip820)" d="M284.728 398.166 L287.831 378.666 L290.194 378.666 Q290.472 379.824 290.935 380.334 Q291.444 380.843 294.131 381.26 Q296.864 381.677 302.375 381.677 L325.396 381.677 Q325.396 383.854 324.562 385.012 L311.732 403.03 Q307.656 408.727 305.849 419.241 Q304.784 426.282 304.83 434.804 L304.83 439.622 Q304.83 444.856 300.43 444.856 Q296.076 444.856 296.076 439.622 Q296.076 421.511 307.748 403.956 Q308.999 402.15 313.585 395.711 Q318.216 389.273 318.402 388.995 L298.763 388.995 Q290.147 388.995 289.452 389.551 Q288.526 390.385 287.09 398.166 L284.728 398.166 Z" fill="#000000" fill-rule="nonzero" fill-opacity="1"></path><path clip-path="url(#clip820)" d="M331.556 427.486 Q331.556 424.661 333.085 423.595 Q334.613 422.484 336.234 422.484 Q338.411 422.484 339.662 423.873 Q340.959 425.216 340.959 427.116 Q340.959 429.015 339.662 430.404 Q338.411 431.747 336.234 431.747 Q335.169 431.747 334.613 431.562 Q335.864 435.916 339.662 439.066 Q343.507 442.215 348.555 442.215 Q354.901 442.215 358.699 436.055 Q360.969 432.072 360.969 423.039 Q360.969 415.073 359.255 411.089 Q356.615 405.021 351.195 405.021 Q343.507 405.021 338.967 411.645 Q338.411 412.479 337.763 412.525 Q336.837 412.525 336.605 412.016 Q336.42 411.46 336.42 410.024 L336.42 381.955 Q336.42 379.685 337.346 379.685 Q337.717 379.685 338.504 379.963 Q344.479 382.603 351.103 382.649 Q357.912 382.649 364.026 379.87 Q364.489 379.592 364.767 379.592 Q365.693 379.592 365.74 380.658 Q365.74 381.028 364.952 382.14 Q364.211 383.205 362.59 384.641 Q360.969 386.031 358.884 387.374 Q356.8 388.717 353.743 389.644 Q350.732 390.524 347.397 390.524 Q343.414 390.524 339.338 389.273 L339.338 407.754 Q344.248 402.937 351.381 402.937 Q358.977 402.937 364.211 409.051 Q369.445 415.165 369.445 423.688 Q369.445 432.627 363.238 438.742 Q357.078 444.856 348.741 444.856 Q341.144 444.856 336.327 439.436 Q331.556 434.017 331.556 427.486 Z" fill="#000000" fill-rule="nonzero" fill-opacity="1"></path><path clip-path="url(#clip820)" d="M213.026 94.6963 L213.026 91.7319 Q224.421 91.7319 230.303 85.6641 Q231.925 85.6641 232.202 86.0347 Q232.48 86.4052 232.48 88.119 L232.48 141.339 Q232.48 144.165 233.87 145.045 Q235.26 145.925 241.327 145.925 L244.338 145.925 L244.338 148.843 Q241.003 148.565 228.96 148.565 Q216.917 148.565 213.629 148.843 L213.629 145.925 L216.639 145.925 Q222.614 145.925 224.05 145.091 Q225.486 144.211 225.486 141.339 L225.486 92.1951 Q220.53 94.6963 213.026 94.6963 Z" fill="#000000" fill-rule="nonzero" fill-opacity="1"></path><path clip-path="url(#clip820)" d="M261.522 147.314 Q260.086 145.786 260.086 143.794 Q260.086 141.803 261.522 140.367 Q262.958 138.884 265.135 138.884 Q267.219 138.884 268.609 140.274 Q270.045 141.617 270.045 143.841 Q270.045 146.018 268.516 147.453 Q267.034 148.843 265.135 148.843 Q262.958 148.843 261.522 147.314 Z" fill="#000000" fill-rule="nonzero" fill-opacity="1"></path><path clip-path="url(#clip820)" d="M282.088 118.504 Q282.088 104.562 285.608 96.9659 Q290.518 85.6641 302.098 85.6641 Q304.552 85.6641 307.1 86.3589 Q309.694 87.0074 312.936 89.5549 Q316.225 92.1024 318.216 96.2711 Q322.015 104.331 322.015 118.504 Q322.015 132.353 318.494 139.903 Q313.353 150.927 302.005 150.927 Q297.744 150.927 293.39 148.75 Q289.082 146.573 286.349 141.339 Q282.088 133.511 282.088 118.504 M289.962 117.346 Q289.962 131.659 290.981 137.356 Q292.139 143.516 295.289 146.203 Q298.485 148.843 302.005 148.843 Q305.803 148.843 308.953 146.018 Q312.149 143.146 313.121 136.985 Q314.187 130.918 314.14 117.346 Q314.14 104.145 313.214 98.865 Q311.963 92.7046 308.628 90.2497 Q305.34 87.7485 302.005 87.7485 Q300.754 87.7485 299.411 88.119 Q298.114 88.4896 296.215 89.5549 Q294.316 90.6202 292.834 93.2604 Q291.398 95.9006 290.703 99.884 Q289.962 105.025 289.962 117.346 Z" fill="#000000" fill-rule="nonzero" fill-opacity="1"></path><path clip-path="url(#clip820)" d="M329.518 118.504 Q329.518 104.562 333.038 96.9659 Q337.948 85.6641 349.528 85.6641 Q351.983 85.6641 354.53 86.3589 Q357.124 87.0074 360.367 89.5549 Q363.655 92.1024 365.647 96.2711 Q369.445 104.331 369.445 118.504 Q369.445 132.353 365.925 139.903 Q360.783 150.927 349.435 150.927 Q345.174 150.927 340.82 148.75 Q336.512 146.573 333.78 141.339 Q329.518 133.511 329.518 118.504 M337.392 117.346 Q337.392 131.659 338.411 137.356 Q339.569 143.516 342.719 146.203 Q345.915 148.843 349.435 148.843 Q353.233 148.843 356.383 146.018 Q359.579 143.146 360.552 136.985 Q361.617 130.918 361.571 117.346 Q361.571 104.145 360.644 98.865 Q359.394 92.7046 356.059 90.2497 Q352.77 87.7485 349.435 87.7485 Q348.185 87.7485 346.841 88.119 Q345.545 88.4896 343.645 89.5549 Q341.746 90.6202 340.264 93.2604 Q338.828 95.9006 338.134 99.884 Q337.392 105.025 337.392 117.346 Z" fill="#000000" fill-rule="nonzero" fill-opacity="1"></path><path clip-path="url(#clip820)" d="M180.293 1103.76 L83.1364 1103.76 Q79.2644 1103.76 79.2644 1101.67 Q79.2644 1099.58 82.3722 1099.58 L179.529 1099.58 Q183.401 1099.58 183.401 1101.67 Q183.401 1103.76 180.293 1103.76 Z" fill="#000000" fill-rule="nonzero" fill-opacity="1"></path><path clip-path="url(#clip820)" d="M118.605 1001.69 Q119.132 1001.22 119.659 1001.22 Q120.186 1001.22 121.708 1002.39 Q123.23 1003.5 125.28 1005.9 Q127.329 1008.31 129.262 1011.41 Q131.194 1014.51 132.482 1019.08 Q133.829 1023.65 133.829 1028.45 Q133.829 1037.41 127.915 1042.68 Q122.001 1047.89 113.51 1047.89 Q105.254 1047.89 97.3486 1043.26 Q89.385 1038.64 84.4663 1031.14 Q79.489 1023.65 79.489 1015.74 Q79.489 1009.48 82.4168 1005.55 Q85.3446 1001.63 89.7949 1001.63 Q93.2497 1001.63 95.3577 1003.62 Q97.4657 1005.61 97.4657 1008.31 Q97.4657 1010.18 96.4117 1011.47 Q95.2992 1012.76 93.2497 1012.76 Q90.6147 1012.76 88.5652 1010.59 Q87.7454 1009.77 87.3941 1008.83 Q86.9842 1007.84 86.9842 1007.25 Q86.9256 1006.67 86.9256 1005.32 Q84.642 1006.55 83.4123 1009.48 Q82.124 1012.35 82.124 1015.62 Q82.124 1020.49 85.5203 1025.11 Q88.858 1029.74 94.128 1032.55 Q99.281 1035.36 106.6 1037.17 Q113.861 1038.99 118.077 1038.99 Q123.875 1038.99 127.505 1036.3 Q131.136 1033.6 131.136 1028.21 Q131.136 1027.16 131.077 1026.05 Q131.018 1024.88 130.374 1021.95 Q129.73 1018.96 128.618 1016.33 Q127.505 1013.69 125.104 1010.35 Q122.645 1006.96 119.307 1004.27 Q118.077 1003.33 118.077 1002.68 Q118.077 1002.16 118.605 1001.69 Z" fill="#000000" fill-rule="nonzero" fill-opacity="1"></path><path clip-path="url(#clip820)" d="M143.349 945.02 Q149.334 945.02 155.113 948.053 Q160.893 951.045 164.459 955.759 Q167.984 960.473 167.984 965.269 Q167.984 968.138 166.426 970.064 Q164.828 971.95 162.573 972.975 Q165.361 973.753 172.042 975.434 Q178.723 977.114 179.379 977.114 Q179.748 977.114 179.912 977.033 Q180.076 976.951 180.281 976.582 Q180.527 976.213 180.609 975.311 Q180.732 974.409 180.732 972.893 Q180.732 972.114 180.732 971.827 Q180.773 971.499 180.978 971.212 Q181.182 970.884 181.633 970.884 Q183.314 970.884 183.314 972.401 Q183.314 973.753 183.191 976.541 Q183.068 979.328 183.068 980.722 Q183.068 981.91 183.191 984.288 Q183.314 986.665 183.314 987.772 Q183.314 988.878 182.33 988.878 Q181.756 988.878 181.387 988.714 Q181.059 988.591 180.896 988.264 Q180.773 987.936 180.732 987.649 Q180.732 987.403 180.732 986.911 Q180.732 985.025 180.404 984.206 Q180.117 983.386 179.502 983.099 Q178.928 982.771 177.288 982.402 L139.906 972.975 Q137.406 972.401 135.643 972.401 Q133.43 972.401 132.61 973.098 Q131.79 973.794 131.79 975.024 Q131.79 977.155 134.332 978.549 Q136.873 979.943 141.792 981.131 Q143.144 981.5 143.431 981.746 Q143.718 981.951 143.718 982.566 Q143.677 983.591 142.857 983.591 Q142.653 983.591 141.341 983.263 Q139.988 982.935 138.021 982.32 Q136.012 981.664 134.742 980.967 Q133.881 980.558 133.307 980.189 Q132.733 979.82 131.831 979.082 Q130.93 978.303 130.438 977.196 Q129.946 976.09 129.946 974.737 Q129.946 972.114 131.503 969.941 Q133.061 967.769 136.217 967.195 Q133.471 964.859 131.708 961.989 Q129.946 959.12 129.946 956.21 Q129.946 951.373 133.717 948.217 Q137.447 945.02 143.349 945.02 M139.66 951.086 Q135.93 951.086 133.881 952.521 Q131.79 953.915 131.79 956.456 Q131.79 959.612 134.988 963.26 Q138.021 966.867 140.849 967.605 L157.286 971.745 L158.638 971.991 Q158.884 971.991 159.622 971.868 Q160.319 971.704 161.467 971.253 Q162.614 970.761 163.639 970.105 Q164.623 969.409 165.361 968.179 Q166.098 966.908 166.098 965.351 Q166.098 962.85 163.885 960.145 Q161.672 957.399 157.491 955.349 Q154.785 954.079 148.965 952.603 Q143.103 951.086 139.66 951.086 Z" fill="#000000" fill-rule="nonzero" fill-opacity="1"></path><path clip-path="url(#clip820)" d="M140.193 940.677 Q127.855 940.677 121.133 937.562 Q111.132 933.217 111.132 922.97 Q111.132 920.798 111.747 918.543 Q112.32 916.248 114.575 913.379 Q116.829 910.468 120.518 908.706 Q127.65 905.345 140.193 905.345 Q152.449 905.345 159.13 908.46 Q168.886 913.01 168.886 923.052 Q168.886 926.823 166.959 930.676 Q165.033 934.488 160.401 936.906 Q153.474 940.677 140.193 940.677 M139.168 933.709 Q151.834 933.709 156.876 932.807 Q162.327 931.783 164.705 928.995 Q167.041 926.167 167.041 923.052 Q167.041 919.691 164.541 916.904 Q161.999 914.075 156.548 913.215 Q151.178 912.272 139.168 912.313 Q127.486 912.313 122.814 913.133 Q117.362 914.239 115.19 917.191 Q112.976 920.101 112.976 923.052 Q112.976 924.159 113.304 925.347 Q113.632 926.495 114.575 928.176 Q115.518 929.856 117.854 931.168 Q120.19 932.439 123.715 933.053 Q128.265 933.709 139.168 933.709 Z" fill="#000000" fill-rule="nonzero" fill-opacity="1"></path><path clip-path="url(#clip820)" d="M180.293 873.504 L83.1364 873.504 Q79.2644 873.504 79.2644 871.415 Q79.2644 869.326 82.3722 869.326 L179.529 869.326 Q183.401 869.326 183.401 871.415 Q183.401 873.504 180.293 873.504 Z" fill="#000000" fill-rule="nonzero" fill-opacity="1"></path><path clip-path="url(#clip820)" d="M74.5631 735.378 Q54.0116 735.378 37.4398 727.716 Q30.4903 724.449 24.6694 719.875 Q18.8485 715.302 16.2944 712.273 Q13.7403 709.243 13.7403 708.412 Q13.7403 707.224 14.9283 707.164 Q15.5222 707.164 17.0072 708.768 Q36.9646 728.369 74.5631 728.31 Q112.28 728.31 131.466 709.243 Q133.545 707.164 134.198 707.164 Q135.386 707.164 135.386 708.412 Q135.386 709.243 132.951 712.154 Q130.515 715.064 124.932 719.578 Q119.349 724.093 112.518 727.359 Q95.9461 735.378 74.5631 735.378 Z" fill="#000000" fill-rule="nonzero" fill-opacity="1"></path><path clip-path="url(#clip820)" d="M130.667 618.778 Q131.37 619.363 131.37 620.417 Q131.37 621.413 130.667 622.115 L105.839 646.943 L130.667 671.771 Q131.37 672.474 131.37 673.528 Q131.37 674.523 130.667 675.167 Q130.023 675.87 129.027 675.87 Q128.032 675.87 127.329 675.167 L102.502 650.339 L77.6738 675.167 Q76.9711 675.87 75.9757 675.87 Q74.9216 675.87 74.3361 675.167 Q73.6334 674.523 73.6334 673.528 Q73.6334 672.474 74.3361 671.771 L99.1639 646.943 L74.3361 622.115 Q73.6334 621.413 73.6334 620.417 Q73.6334 619.363 74.3361 618.778 Q74.9216 618.075 75.9757 618.075 Q76.9711 618.075 77.6738 618.778 L102.502 643.605 L127.329 618.778 Q128.032 618.075 129.086 618.075 Q130.081 618.075 130.667 618.778 Z" fill="#000000" fill-rule="nonzero" fill-opacity="1"></path><path clip-path="url(#clip820)" d="M64.0302 572.634 L60.2826 572.634 Q60.2826 558.229 52.6118 550.793 Q52.6118 548.743 53.0802 548.392 Q53.5487 548.041 55.7152 548.041 L122.996 548.041 Q126.568 548.041 127.681 546.284 Q128.793 544.527 128.793 536.856 L128.793 533.05 L132.482 533.05 Q132.131 537.266 132.131 552.491 Q132.131 567.716 132.482 571.873 L128.793 571.873 L128.793 568.067 Q128.793 560.513 127.739 558.698 Q126.627 556.883 122.996 556.883 L60.8682 556.883 Q64.0302 563.148 64.0302 572.634 Z" fill="#000000" fill-rule="nonzero" fill-opacity="1"></path><path clip-path="url(#clip820)" d="M94.128 513.244 Q76.5027 513.244 66.8995 508.793 Q52.6118 502.586 52.6118 487.947 Q52.6118 484.844 53.4901 481.623 Q54.3099 478.344 57.5305 474.245 Q60.7511 470.088 66.0211 467.57 Q76.2099 462.768 94.128 462.768 Q111.636 462.768 121.181 467.218 Q135.117 473.718 135.117 488.064 Q135.117 493.452 132.365 498.956 Q129.613 504.402 122.996 507.856 Q113.1 513.244 94.128 513.244 M92.6641 503.289 Q110.758 503.289 117.96 502.001 Q125.748 500.537 129.145 496.555 Q132.482 492.515 132.482 488.064 Q132.482 483.263 128.91 479.281 Q125.28 475.241 117.492 474.011 Q109.821 472.664 92.6641 472.723 Q75.9757 472.723 69.3003 473.894 Q61.5123 475.475 58.4088 479.691 Q55.2468 483.848 55.2468 488.064 Q55.2468 489.645 55.7152 491.344 Q56.1837 492.983 57.5305 495.384 Q58.8773 497.785 62.215 499.659 Q65.5527 501.474 70.5885 502.352 Q77.0882 503.289 92.6641 503.289 Z" fill="#000000" fill-rule="nonzero" fill-opacity="1"></path><path clip-path="url(#clip820)" d="M47.8066 395.042 Q48.2984 394.55 48.9953 394.55 Q49.6921 394.55 50.184 395.042 Q50.6758 395.534 50.6758 396.23 L50.6758 448.779 Q50.6758 449.475 50.184 449.967 Q49.6921 450.459 48.9953 450.459 Q48.2984 450.459 47.8066 449.967 Q47.3147 449.475 47.3147 448.779 L47.3147 396.23 Q47.3147 395.534 47.8066 395.042 Z" fill="#000000" fill-rule="nonzero" fill-opacity="1"></path><path clip-path="url(#clip820)" d="M22.0653 385.785 L19.442 385.785 Q19.442 375.702 14.0724 370.496 Q14.0724 369.061 14.4003 368.815 Q14.7282 368.569 16.2448 368.569 L63.3415 368.569 Q65.8419 368.569 66.6207 367.34 Q67.3995 366.11 67.3995 360.74 L67.3995 358.076 L69.9818 358.076 Q69.7358 361.027 69.7358 371.685 Q69.7358 382.342 69.9818 385.252 L67.3995 385.252 L67.3995 382.588 Q67.3995 377.3 66.6616 376.029 Q65.8829 374.759 63.3415 374.759 L19.8519 374.759 Q22.0653 379.145 22.0653 385.785 Z" fill="#000000" fill-rule="nonzero" fill-opacity="1"></path><path clip-path="url(#clip820)" d="M134.198 318.611 Q133.604 318.611 132.119 317.067 Q112.162 297.466 74.5631 297.466 Q36.8458 297.466 17.7793 316.295 Q15.5816 318.611 14.9283 318.611 Q13.7403 318.611 13.7403 317.424 Q13.7403 316.592 16.1756 313.682 Q18.6109 310.712 24.1942 306.257 Q29.7776 301.743 36.6083 298.416 Q53.1801 290.398 74.5631 290.398 Q95.1145 290.398 111.686 298.06 Q118.636 301.327 124.457 305.9 Q130.278 310.474 132.832 313.503 Q135.386 316.533 135.386 317.424 Q135.386 318.611 134.198 318.611 Z" fill="#000000" fill-rule="nonzero" fill-opacity="1"></path><polyline clip-path="url(#clip822)" style="stroke:#e31a1c; stroke-linecap:round; stroke-linejoin:round; stroke-width:16; stroke-opacity:1; fill:none" points="464.152,1292.16 492.04,1207.2 519.927,1126.79 547.815,1054.56 575.702,992.745 603.59,942.135 631.477,902.424 659.365,872.605 687.252,851.343 715.139,837.231 743.027,828.937 770.914,825.282 798.802,825.26 826.689,828.038 854.577,832.937 882.464,839.413 910.352,847.034 938.239,855.457 966.127,864.417 994.014,873.706 1021.9,883.164 1049.79,892.668 1077.68,902.127 1105.56,911.47 1133.45,920.646 1161.34,929.618 1189.23,938.361 1217.11,946.857 1245,955.097 1272.89,963.074 1300.78,970.787 1328.66,978.238 1356.55,985.431 1384.44,992.37 1412.33,999.063 1440.21,1005.52 1468.1,1011.74 1495.99,1017.74 1523.88,1023.52 1551.76,1029.1 1579.65,1034.48 1607.54,1039.68 1635.43,1044.69 1663.31,1049.52 1691.2,1054.19 1719.09,1058.7 1746.98,1063.05 1774.86,1067.27 1802.75,1071.34 1830.64,1075.27 1858.53,1079.08 1886.41,1082.77 1914.3,1086.34 1942.19,1089.8 1970.07,1093.15 1997.96,1096.4 2025.85,1099.55 2053.74,1102.61 2081.62,1105.57 2109.51,1108.45 2137.4,1111.25 2165.29,1113.96 2193.17,1116.6 2221.06,1119.17 "></polyline>
<polyline clip-path="url(#clip822)" style="stroke:#377db8; stroke-linecap:round; stroke-linejoin:round; stroke-width:16; stroke-opacity:1; fill:none" points="464.152,1292.16 492.04,1283.08 519.927,1257.58 547.815,1220.09 575.702,1176.17 603.59,1130.91 631.477,1088.1 659.365,1050.06 687.252,1017.87 715.139,991.738 743.027,971.333 770.914,956.055 798.802,945.2 826.689,938.061 854.577,933.984 882.464,932.39 910.352,932.782 938.239,934.743 966.127,937.926 994.014,942.05 1021.9,946.883 1049.79,952.239 1077.68,957.968 1105.56,963.951 1133.45,970.093 1161.34,976.317 1189.23,982.566 1217.11,988.792 1245,994.959 1272.89,1001.04 1300.78,1007.02 1328.66,1012.87 1356.55,1018.59 1384.44,1024.17 1412.33,1029.6 1440.21,1034.89 1468.1,1040.02 1495.99,1045.01 1523.88,1049.85 1551.76,1054.55 1579.65,1059.1 1607.54,1063.51 1635.43,1067.79 1663.31,1071.94 1691.2,1075.96 1719.09,1079.86 1746.98,1083.64 1774.86,1087.3 1802.75,1090.85 1830.64,1094.3 1858.53,1097.64 1886.41,1100.88 1914.3,1104.03 1942.19,1107.08 1970.07,1110.05 1997.96,1112.93 2025.85,1115.73 2053.74,1118.44 2081.62,1121.09 2109.51,1123.65 2137.4,1126.15 2165.29,1128.58 2193.17,1130.94 2221.06,1133.25 "></polyline>
<polyline clip-path="url(#clip822)" style="stroke:#4dae49; stroke-linecap:round; stroke-linejoin:round; stroke-width:16; stroke-opacity:1; fill:none" points="464.152,1292.16 492.04,1291.17 519.927,1284.84 547.815,1270.09 575.702,1246.9 603.59,1217.48 631.477,1184.9 659.365,1152.04 687.252,1121.08 715.139,1093.35 743.027,1069.52 770.914,1049.74 798.802,1033.83 826.689,1021.46 854.577,1012.21 882.464,1005.64 910.352,1001.33 938.239,998.917 966.127,998.053 994.014,998.452 1021.9,999.87 1049.79,1002.1 1077.68,1004.97 1105.56,1008.34 1133.45,1012.09 1161.34,1016.13 1189.23,1020.37 1217.11,1024.75 1245,1029.23 1272.89,1033.75 1300.78,1038.29 1328.66,1042.81 1356.55,1047.3 1384.44,1051.73 1412.33,1056.1 1440.21,1060.4 1468.1,1064.62 1495.99,1068.74 1523.88,1072.78 1551.76,1076.72 1579.65,1080.56 1607.54,1084.31 1635.43,1087.96 1663.31,1091.52 1691.2,1094.98 1719.09,1098.35 1746.98,1101.63 1774.86,1104.82 1802.75,1107.92 1830.64,1110.94 1858.53,1113.88 1886.41,1116.73 1914.3,1119.51 1942.19,1122.21 1970.07,1124.84 1997.96,1127.4 2025.85,1129.89 2053.74,1132.31 2081.62,1134.67 2109.51,1136.97 2137.4,1139.21 2165.29,1141.38 2193.17,1143.51 2221.06,1145.58 "></polyline>
<path clip-path="url(#clip822)" d="M464.152 1264.16 L436.152 1292.16 L464.152 1320.16 L492.152 1292.16 L464.152 1264.16 Z" fill="#e31a1c" fill-rule="evenodd" fill-opacity="1" stroke="#000000" stroke-opacity="1" stroke-width="0"></path>
<path clip-path="url(#clip822)" d="M547.815 1015.02 L519.815 1043.02 L547.815 1071.02 L575.815 1043.02 L547.815 1015.02 Z" fill="#e31a1c" fill-rule="evenodd" fill-opacity="1" stroke="#000000" stroke-opacity="1" stroke-width="0"></path>
<path clip-path="url(#clip822)" d="M631.477 804.975 L603.477 832.975 L631.477 860.975 L659.477 832.975 L631.477 804.975 Z" fill="#e31a1c" fill-rule="evenodd" fill-opacity="1" stroke="#000000" stroke-opacity="1" stroke-width="0"></path>
<path clip-path="url(#clip822)" d="M715.139 644.034 L687.139 672.034 L715.139 700.034 L743.139 672.034 L715.139 644.034 Z" fill="#e31a1c" fill-rule="evenodd" fill-opacity="1" stroke="#000000" stroke-opacity="1" stroke-width="0"></path>
<path clip-path="url(#clip822)" d="M798.802 523.908 L770.802 551.908 L798.802 579.908 L826.802 551.908 L798.802 523.908 Z" fill="#e31a1c" fill-rule="evenodd" fill-opacity="1" stroke="#000000" stroke-opacity="1" stroke-width="0"></path>
<path clip-path="url(#clip822)" d="M882.464 433.656 L854.464 461.656 L882.464 489.656 L910.464 461.656 L882.464 433.656 Z" fill="#e31a1c" fill-rule="evenodd" fill-opacity="1" stroke="#000000" stroke-opacity="1" stroke-width="0"></path>
<path clip-path="url(#clip822)" d="M966.127 364.601 L938.127 392.601 L966.127 420.601 L994.127 392.601 L966.127 364.601 Z" fill="#e31a1c" fill-rule="evenodd" fill-opacity="1" stroke="#000000" stroke-opacity="1" stroke-width="0"></path>
<path clip-path="url(#clip822)" d="M1049.79 310.633 L1021.79 338.633 L1049.79 366.633 L1077.79 338.633 L1049.79 310.633 Z" fill="#e31a1c" fill-rule="evenodd" fill-opacity="1" stroke="#000000" stroke-opacity="1" stroke-width="0"></path>
<path clip-path="url(#clip822)" d="M1133.45 267.573 L1105.45 295.573 L1133.45 323.573 L1161.45 295.573 L1133.45 267.573 Z" fill="#e31a1c" fill-rule="evenodd" fill-opacity="1" stroke="#000000" stroke-opacity="1" stroke-width="0"></path>
<path clip-path="url(#clip822)" d="M1217.11 232.556 L1189.11 260.556 L1217.11 288.556 L1245.11 260.556 L1217.11 232.556 Z" fill="#e31a1c" fill-rule="evenodd" fill-opacity="1" stroke="#000000" stroke-opacity="1" stroke-width="0"></path>
<path clip-path="url(#clip822)" d="M1300.78 203.592 L1272.78 231.592 L1300.78 259.592 L1328.78 231.592 L1300.78 203.592 Z" fill="#e31a1c" fill-rule="evenodd" fill-opacity="1" stroke="#000000" stroke-opacity="1" stroke-width="0"></path>
<path clip-path="url(#clip822)" d="M1384.44 179.272 L1356.44 207.272 L1384.44 235.272 L1412.44 207.272 L1384.44 179.272 Z" fill="#e31a1c" fill-rule="evenodd" fill-opacity="1" stroke="#000000" stroke-opacity="1" stroke-width="0"></path>
<path clip-path="url(#clip822)" d="M1468.1 158.579 L1440.1 186.579 L1468.1 214.579 L1496.1 186.579 L1468.1 158.579 Z" fill="#e31a1c" fill-rule="evenodd" fill-opacity="1" stroke="#000000" stroke-opacity="1" stroke-width="0"></path>
<path clip-path="url(#clip822)" d="M1551.76 140.764 L1523.76 168.764 L1551.76 196.764 L1579.76 168.764 L1551.76 140.764 Z" fill="#e31a1c" fill-rule="evenodd" fill-opacity="1" stroke="#000000" stroke-opacity="1" stroke-width="0"></path>
<path clip-path="url(#clip822)" d="M1635.43 125.268 L1607.43 153.268 L1635.43 181.268 L1663.43 153.268 L1635.43 125.268 Z" fill="#e31a1c" fill-rule="evenodd" fill-opacity="1" stroke="#000000" stroke-opacity="1" stroke-width="0"></path>
<path clip-path="url(#clip822)" d="M1719.09 111.664 L1691.09 139.664 L1719.09 167.664 L1747.09 139.664 L1719.09 111.664 Z" fill="#e31a1c" fill-rule="evenodd" fill-opacity="1" stroke="#000000" stroke-opacity="1" stroke-width="0"></path>
<path clip-path="url(#clip822)" d="M1802.75 99.6236 L1774.75 127.624 L1802.75 155.624 L1830.75 127.624 L1802.75 99.6236 Z" fill="#e31a1c" fill-rule="evenodd" fill-opacity="1" stroke="#000000" stroke-opacity="1" stroke-width="0"></path>
<path clip-path="url(#clip822)" d="M1886.41 88.8877 L1858.41 116.888 L1886.41 144.888 L1914.41 116.888 L1886.41 88.8877 Z" fill="#e31a1c" fill-rule="evenodd" fill-opacity="1" stroke="#000000" stroke-opacity="1" stroke-width="0"></path>
<path clip-path="url(#clip822)" d="M1970.07 79.2533 L1942.07 107.253 L1970.07 135.253 L1998.07 107.253 L1970.07 79.2533 Z" fill="#e31a1c" fill-rule="evenodd" fill-opacity="1" stroke="#000000" stroke-opacity="1" stroke-width="0"></path>
<path clip-path="url(#clip822)" d="M2053.74 70.5588 L2025.74 98.5588 L2053.74 126.559 L2081.74 98.5588 L2053.74 70.5588 Z" fill="#e31a1c" fill-rule="evenodd" fill-opacity="1" stroke="#000000" stroke-opacity="1" stroke-width="0"></path>
<path clip-path="url(#clip822)" d="M2137.4 62.676 L2109.4 90.676 L2137.4 118.676 L2165.4 90.676 L2137.4 62.676 Z" fill="#e31a1c" fill-rule="evenodd" fill-opacity="1" stroke="#000000" stroke-opacity="1" stroke-width="0"></path>
<path clip-path="url(#clip822)" d="M2221.06 55.5037 L2193.06 83.5037 L2221.06 111.504 L2249.06 83.5037 L2221.06 55.5037 Z" fill="#e31a1c" fill-rule="evenodd" fill-opacity="1" stroke="#000000" stroke-opacity="1" stroke-width="0"></path>
<path clip-path="url(#clip822)" d="M464.152 1264.16 L436.152 1292.16 L464.152 1320.16 L492.152 1292.16 L464.152 1264.16 Z" fill="#377db8" fill-rule="evenodd" fill-opacity="1" stroke="#000000" stroke-opacity="1" stroke-width="0"></path>
<path clip-path="url(#clip822)" d="M547.815 1225.54 L519.815 1253.54 L547.815 1281.54 L575.815 1253.54 L547.815 1225.54 Z" fill="#377db8" fill-rule="evenodd" fill-opacity="1" stroke="#000000" stroke-opacity="1" stroke-width="0"></path>
<path clip-path="url(#clip822)" d="M631.477 1140.18 L603.477 1168.18 L631.477 1196.18 L659.477 1168.18 L631.477 1140.18 Z" fill="#377db8" fill-rule="evenodd" fill-opacity="1" stroke="#000000" stroke-opacity="1" stroke-width="0"></path>
<path clip-path="url(#clip822)" d="M715.139 1051.7 L687.139 1079.7 L715.139 1107.7 L743.139 1079.7 L715.139 1051.7 Z" fill="#377db8" fill-rule="evenodd" fill-opacity="1" stroke="#000000" stroke-opacity="1" stroke-width="0"></path>
<path clip-path="url(#clip822)" d="M798.802 977.002 L770.802 1005 L798.802 1033 L826.802 1005 L798.802 977.002 Z" fill="#377db8" fill-rule="evenodd" fill-opacity="1" stroke="#000000" stroke-opacity="1" stroke-width="0"></path>
<path clip-path="url(#clip822)" d="M882.464 917.512 L854.464 945.512 L882.464 973.512 L910.464 945.512 L882.464 917.512 Z" fill="#377db8" fill-rule="evenodd" fill-opacity="1" stroke="#000000" stroke-opacity="1" stroke-width="0"></path>
<path clip-path="url(#clip822)" d="M966.127 870.571 L938.127 898.571 L966.127 926.571 L994.127 898.571 L966.127 870.571 Z" fill="#377db8" fill-rule="evenodd" fill-opacity="1" stroke="#000000" stroke-opacity="1" stroke-width="0"></path>
<path clip-path="url(#clip822)" d="M1049.79 833.255 L1021.79 861.255 L1049.79 889.255 L1077.79 861.255 L1049.79 833.255 Z" fill="#377db8" fill-rule="evenodd" fill-opacity="1" stroke="#000000" stroke-opacity="1" stroke-width="0"></path>
<path clip-path="url(#clip822)" d="M1133.45 803.205 L1105.45 831.205 L1133.45 859.205 L1161.45 831.205 L1133.45 803.205 Z" fill="#377db8" fill-rule="evenodd" fill-opacity="1" stroke="#000000" stroke-opacity="1" stroke-width="0"></path>
<path clip-path="url(#clip822)" d="M1217.11 778.663 L1189.11 806.663 L1217.11 834.663 L1245.11 806.663 L1217.11 778.663 Z" fill="#377db8" fill-rule="evenodd" fill-opacity="1" stroke="#000000" stroke-opacity="1" stroke-width="0"></path>
<path clip-path="url(#clip822)" d="M1300.78 758.345 L1272.78 786.345 L1300.78 814.345 L1328.78 786.345 L1300.78 758.345 Z" fill="#377db8" fill-rule="evenodd" fill-opacity="1" stroke="#000000" stroke-opacity="1" stroke-width="0"></path>
<path clip-path="url(#clip822)" d="M1384.44 741.314 L1356.44 769.314 L1384.44 797.314 L1412.44 769.314 L1384.44 741.314 Z" fill="#377db8" fill-rule="evenodd" fill-opacity="1" stroke="#000000" stroke-opacity="1" stroke-width="0"></path>
<path clip-path="url(#clip822)" d="M1468.1 726.876 L1440.1 754.876 L1468.1 782.876 L1496.1 754.876 L1468.1 726.876 Z" fill="#377db8" fill-rule="evenodd" fill-opacity="1" stroke="#000000" stroke-opacity="1" stroke-width="0"></path>
<path clip-path="url(#clip822)" d="M1551.76 714.512 L1523.76 742.512 L1551.76 770.512 L1579.76 742.512 L1551.76 714.512 Z" fill="#377db8" fill-rule="evenodd" fill-opacity="1" stroke="#000000" stroke-opacity="1" stroke-width="0"></path>
<path clip-path="url(#clip822)" d="M1635.43 703.83 L1607.43 731.83 L1635.43 759.83 L1663.43 731.83 L1635.43 703.83 Z" fill="#377db8" fill-rule="evenodd" fill-opacity="1" stroke="#000000" stroke-opacity="1" stroke-width="0"></path>
<path clip-path="url(#clip822)" d="M1719.09 694.527 L1691.09 722.527 L1719.09 750.527 L1747.09 722.527 L1719.09 694.527 Z" fill="#377db8" fill-rule="evenodd" fill-opacity="1" stroke="#000000" stroke-opacity="1" stroke-width="0"></path>
<path clip-path="url(#clip822)" d="M1802.75 686.366 L1774.75 714.366 L1802.75 742.366 L1830.75 714.366 L1802.75 686.366 Z" fill="#377db8" fill-rule="evenodd" fill-opacity="1" stroke="#000000" stroke-opacity="1" stroke-width="0"></path>
<path clip-path="url(#clip822)" d="M1886.41 679.158 L1858.41 707.158 L1886.41 735.158 L1914.41 707.158 L1886.41 679.158 Z" fill="#377db8" fill-rule="evenodd" fill-opacity="1" stroke="#000000" stroke-opacity="1" stroke-width="0"></path>
<path clip-path="url(#clip822)" d="M1970.07 672.75 L1942.07 700.75 L1970.07 728.75 L1998.07 700.75 L1970.07 672.75 Z" fill="#377db8" fill-rule="evenodd" fill-opacity="1" stroke="#000000" stroke-opacity="1" stroke-width="0"></path>
<path clip-path="url(#clip822)" d="M2053.74 667.016 L2025.74 695.016 L2053.74 723.016 L2081.74 695.016 L2053.74 667.016 Z" fill="#377db8" fill-rule="evenodd" fill-opacity="1" stroke="#000000" stroke-opacity="1" stroke-width="0"></path>
<path clip-path="url(#clip822)" d="M2137.4 661.847 L2109.4 689.847 L2137.4 717.847 L2165.4 689.847 L2137.4 661.847 Z" fill="#377db8" fill-rule="evenodd" fill-opacity="1" stroke="#000000" stroke-opacity="1" stroke-width="0"></path>
<path clip-path="url(#clip822)" d="M2221.06 657.152 L2193.06 685.152 L2221.06 713.152 L2249.06 685.152 L2221.06 657.152 Z" fill="#377db8" fill-rule="evenodd" fill-opacity="1" stroke="#000000" stroke-opacity="1" stroke-width="0"></path>
<path clip-path="url(#clip822)" d="M464.152 1264.16 L436.152 1292.16 L464.152 1320.16 L492.152 1292.16 L464.152 1264.16 Z" fill="#4dae49" fill-rule="evenodd" fill-opacity="1" stroke="#000000" stroke-opacity="1" stroke-width="0"></path>
<path clip-path="url(#clip822)" d="M547.815 1256.35 L519.815 1284.35 L547.815 1312.35 L575.815 1284.35 L547.815 1256.35 Z" fill="#4dae49" fill-rule="evenodd" fill-opacity="1" stroke="#000000" stroke-opacity="1" stroke-width="0"></path>
<path clip-path="url(#clip822)" d="M631.477 1220.87 L603.477 1248.87 L631.477 1276.87 L659.477 1248.87 L631.477 1220.87 Z" fill="#4dae49" fill-rule="evenodd" fill-opacity="1" stroke="#000000" stroke-opacity="1" stroke-width="0"></path>
<path clip-path="url(#clip822)" d="M715.139 1171.68 L687.139 1199.68 L715.139 1227.68 L743.139 1199.68 L715.139 1171.68 Z" fill="#4dae49" fill-rule="evenodd" fill-opacity="1" stroke="#000000" stroke-opacity="1" stroke-width="0"></path>
<path clip-path="url(#clip822)" d="M798.802 1124.93 L770.802 1152.93 L798.802 1180.93 L826.802 1152.93 L798.802 1124.93 Z" fill="#4dae49" fill-rule="evenodd" fill-opacity="1" stroke="#000000" stroke-opacity="1" stroke-width="0"></path>
<path clip-path="url(#clip822)" d="M882.464 1085.63 L854.464 1113.63 L882.464 1141.63 L910.464 1113.63 L882.464 1085.63 Z" fill="#4dae49" fill-rule="evenodd" fill-opacity="1" stroke="#000000" stroke-opacity="1" stroke-width="0"></path>
<path clip-path="url(#clip822)" d="M966.127 1053.77 L938.127 1081.77 L966.127 1109.77 L994.127 1081.77 L966.127 1053.77 Z" fill="#4dae49" fill-rule="evenodd" fill-opacity="1" stroke="#000000" stroke-opacity="1" stroke-width="0"></path>
<path clip-path="url(#clip822)" d="M1049.79 1028.08 L1021.79 1056.08 L1049.79 1084.08 L1077.79 1056.08 L1049.79 1028.08 Z" fill="#4dae49" fill-rule="evenodd" fill-opacity="1" stroke="#000000" stroke-opacity="1" stroke-width="0"></path>
<path clip-path="url(#clip822)" d="M1133.45 1007.23 L1105.45 1035.23 L1133.45 1063.23 L1161.45 1035.23 L1133.45 1007.23 Z" fill="#4dae49" fill-rule="evenodd" fill-opacity="1" stroke="#000000" stroke-opacity="1" stroke-width="0"></path>
<path clip-path="url(#clip822)" d="M1217.11 990.129 L1189.11 1018.13 L1217.11 1046.13 L1245.11 1018.13 L1217.11 990.129 Z" fill="#4dae49" fill-rule="evenodd" fill-opacity="1" stroke="#000000" stroke-opacity="1" stroke-width="0"></path>
<path clip-path="url(#clip822)" d="M1300.78 975.936 L1272.78 1003.94 L1300.78 1031.94 L1328.78 1003.94 L1300.78 975.936 Z" fill="#4dae49" fill-rule="evenodd" fill-opacity="1" stroke="#000000" stroke-opacity="1" stroke-width="0"></path>
<path clip-path="url(#clip822)" d="M1384.44 964.026 L1356.44 992.026 L1384.44 1020.03 L1412.44 992.026 L1384.44 964.026 Z" fill="#4dae49" fill-rule="evenodd" fill-opacity="1" stroke="#000000" stroke-opacity="1" stroke-width="0"></path>
<path clip-path="url(#clip822)" d="M1468.1 953.924 L1440.1 981.924 L1468.1 1009.92 L1496.1 981.924 L1468.1 953.924 Z" fill="#4dae49" fill-rule="evenodd" fill-opacity="1" stroke="#000000" stroke-opacity="1" stroke-width="0"></path>
<path clip-path="url(#clip822)" d="M1551.76 945.275 L1523.76 973.275 L1551.76 1001.27 L1579.76 973.275 L1551.76 945.275 Z" fill="#4dae49" fill-rule="evenodd" fill-opacity="1" stroke="#000000" stroke-opacity="1" stroke-width="0"></path>
<path clip-path="url(#clip822)" d="M1635.43 937.805 L1607.43 965.805 L1635.43 993.805 L1663.43 965.805 L1635.43 937.805 Z" fill="#4dae49" fill-rule="evenodd" fill-opacity="1" stroke="#000000" stroke-opacity="1" stroke-width="0"></path>
<path clip-path="url(#clip822)" d="M1719.09 931.304 L1691.09 959.304 L1719.09 987.304 L1747.09 959.304 L1719.09 931.304 Z" fill="#4dae49" fill-rule="evenodd" fill-opacity="1" stroke="#000000" stroke-opacity="1" stroke-width="0"></path>
<path clip-path="url(#clip822)" d="M1802.75 925.61 L1774.75 953.61 L1802.75 981.61 L1830.75 953.61 L1802.75 925.61 Z" fill="#4dae49" fill-rule="evenodd" fill-opacity="1" stroke="#000000" stroke-opacity="1" stroke-width="0"></path>
<path clip-path="url(#clip822)" d="M1886.41 920.592 L1858.41 948.592 L1886.41 976.592 L1914.41 948.592 L1886.41 920.592 Z" fill="#4dae49" fill-rule="evenodd" fill-opacity="1" stroke="#000000" stroke-opacity="1" stroke-width="0"></path>
<path clip-path="url(#clip822)" d="M1970.07 916.146 L1942.07 944.146 L1970.07 972.146 L1998.07 944.146 L1970.07 916.146 Z" fill="#4dae49" fill-rule="evenodd" fill-opacity="1" stroke="#000000" stroke-opacity="1" stroke-width="0"></path>
<path clip-path="url(#clip822)" d="M2053.74 912.185 L2025.74 940.185 L2053.74 968.185 L2081.74 940.185 L2053.74 912.185 Z" fill="#4dae49" fill-rule="evenodd" fill-opacity="1" stroke="#000000" stroke-opacity="1" stroke-width="0"></path>
<path clip-path="url(#clip822)" d="M2137.4 908.635 L2109.4 936.635 L2137.4 964.635 L2165.4 936.635 L2137.4 908.635 Z" fill="#4dae49" fill-rule="evenodd" fill-opacity="1" stroke="#000000" stroke-opacity="1" stroke-width="0"></path>
<path clip-path="url(#clip822)" d="M2221.06 905.43 L2193.06 933.43 L2221.06 961.43 L2249.06 933.43 L2221.06 905.43 Z" fill="#4dae49" fill-rule="evenodd" fill-opacity="1" stroke="#000000" stroke-opacity="1" stroke-width="0"></path>
<path clip-path="url(#clip820)" d="M2351.81 847.176 L2752.76 847.176 L2752.76 536.136 L2351.81 536.136  Z" fill="#ffffff" fill-rule="evenodd" fill-opacity="1"></path>
<polyline clip-path="url(#clip820)" style="stroke:#000000; stroke-linecap:round; stroke-linejoin:round; stroke-width:4; stroke-opacity:1; fill:none" points="2351.81,847.176 2752.76,847.176 2752.76,536.136 2351.81,536.136 2351.81,847.176 "></polyline>
<polyline clip-path="url(#clip820)" style="stroke:#e31a1c; stroke-linecap:round; stroke-linejoin:round; stroke-width:24; stroke-opacity:1; fill:none" points="2377.83,613.896 2533.91,613.896 "></polyline>
<path clip-path="url(#clip820)" d="M2597.52 610.405 Q2597.52 615.534 2594.92 620.488 Q2592.36 625.442 2588.32 628.499 Q2584.28 631.52 2580.17 631.52 Q2577.71 631.52 2576.06 630.185 Q2574.44 628.815 2573.56 626.882 Q2572.89 629.272 2571.45 634.998 Q2570.01 640.725 2570.01 641.287 Q2570.01 641.603 2570.08 641.744 Q2570.15 641.885 2570.47 642.06 Q2570.79 642.271 2571.56 642.341 Q2572.33 642.447 2573.63 642.447 Q2574.3 642.447 2574.55 642.447 Q2574.83 642.482 2575.07 642.657 Q2575.35 642.833 2575.35 643.22 Q2575.35 644.66 2574.05 644.66 Q2572.89 644.66 2570.5 644.555 Q2568.12 644.449 2566.92 644.449 Q2565.9 644.449 2563.86 644.555 Q2561.83 644.66 2560.88 644.66 Q2559.93 644.66 2559.93 643.817 Q2559.93 643.325 2560.07 643.009 Q2560.18 642.728 2560.46 642.587 Q2560.74 642.482 2560.98 642.447 Q2561.19 642.447 2561.62 642.447 Q2563.23 642.447 2563.93 642.166 Q2564.64 641.92 2564.88 641.393 Q2565.16 640.901 2565.48 639.495 L2573.56 607.454 Q2574.05 605.31 2574.05 603.8 Q2574.05 601.902 2573.46 601.2 Q2572.86 600.497 2571.8 600.497 Q2569.98 600.497 2568.78 602.675 Q2567.59 604.854 2566.57 609.07 Q2566.25 610.229 2566.04 610.475 Q2565.87 610.721 2565.34 610.721 Q2564.46 610.686 2564.46 609.983 Q2564.46 609.808 2564.74 608.683 Q2565.02 607.524 2565.55 605.837 Q2566.11 604.116 2566.71 603.027 Q2567.06 602.289 2567.38 601.797 Q2567.69 601.305 2568.33 600.532 Q2568.99 599.759 2569.94 599.338 Q2570.89 598.916 2572.05 598.916 Q2574.3 598.916 2576.16 600.251 Q2578.02 601.586 2578.52 604.292 Q2580.52 601.938 2582.98 600.427 Q2585.44 598.916 2587.93 598.916 Q2592.08 598.916 2594.78 602.148 Q2597.52 605.346 2597.52 610.405 M2592.32 607.243 Q2592.32 604.046 2591.09 602.289 Q2589.9 600.497 2587.72 600.497 Q2585.01 600.497 2581.89 603.238 Q2578.8 605.837 2578.16 608.262 L2574.62 622.35 L2574.4 623.51 Q2574.4 623.72 2574.51 624.353 Q2574.65 624.95 2575.04 625.934 Q2575.46 626.918 2576.02 627.796 Q2576.62 628.639 2577.67 629.272 Q2578.76 629.904 2580.1 629.904 Q2582.24 629.904 2584.56 628.007 Q2586.91 626.11 2588.67 622.526 Q2589.76 620.207 2591.02 615.218 Q2592.32 610.194 2592.32 607.243 Z" fill="#000000" fill-rule="nonzero" fill-opacity="1"></path><path clip-path="url(#clip820)" d="M2615.73 619.785 Q2615.8 618.907 2617.17 618.907 L2661.26 618.907 Q2663.33 618.907 2663.37 619.715 Q2663.37 620.594 2661.4 620.558 L2617.66 620.558 Q2615.73 620.594 2615.73 619.785 M2615.73 605.732 Q2615.73 604.854 2617.24 604.889 L2661.19 604.889 Q2663.33 604.889 2663.37 605.732 Q2663.37 606.54 2661.54 606.54 L2617.17 606.54 Q2615.73 606.54 2615.73 605.732 Z" fill="#000000" fill-rule="nonzero" fill-opacity="1"></path><path clip-path="url(#clip820)" d="M2691.11 607.699 Q2691.11 597.124 2693.78 591.362 Q2697.51 582.79 2706.29 582.79 Q2708.15 582.79 2710.08 583.317 Q2712.05 583.809 2714.51 585.741 Q2717.01 587.673 2718.52 590.835 Q2721.4 596.949 2721.4 607.699 Q2721.4 618.204 2718.73 623.931 Q2714.83 632.293 2706.22 632.293 Q2702.99 632.293 2699.69 630.642 Q2696.42 628.99 2694.34 625.02 Q2691.11 619.083 2691.11 607.699 M2697.09 606.821 Q2697.09 617.677 2697.86 621.999 Q2698.74 626.672 2701.13 628.709 Q2703.55 630.712 2706.22 630.712 Q2709.1 630.712 2711.49 628.569 Q2713.91 626.391 2714.65 621.718 Q2715.46 617.115 2715.42 606.821 Q2715.42 596.808 2714.72 592.803 Q2713.77 588.13 2711.24 586.268 Q2708.75 584.371 2706.22 584.371 Q2705.27 584.371 2704.25 584.652 Q2703.27 584.933 2701.83 585.741 Q2700.39 586.549 2699.26 588.552 Q2698.17 590.554 2697.65 593.576 Q2697.09 597.476 2697.09 606.821 Z" fill="#000000" fill-rule="nonzero" fill-opacity="1"></path><polyline clip-path="url(#clip820)" style="stroke:#377db8; stroke-linecap:round; stroke-linejoin:round; stroke-width:24; stroke-opacity:1; fill:none" points="2377.83,691.656 2533.91,691.656 "></polyline>
<path clip-path="url(#clip820)" d="M2597.52 688.165 Q2597.52 693.294 2594.92 698.248 Q2592.36 703.202 2588.32 706.259 Q2584.28 709.28 2580.17 709.28 Q2577.71 709.28 2576.06 707.945 Q2574.44 706.575 2573.56 704.642 Q2572.89 707.032 2571.45 712.758 Q2570.01 718.485 2570.01 719.047 Q2570.01 719.363 2570.08 719.504 Q2570.15 719.645 2570.47 719.82 Q2570.79 720.031 2571.56 720.101 Q2572.33 720.207 2573.63 720.207 Q2574.3 720.207 2574.55 720.207 Q2574.83 720.242 2575.07 720.417 Q2575.35 720.593 2575.35 720.98 Q2575.35 722.42 2574.05 722.42 Q2572.89 722.42 2570.5 722.315 Q2568.12 722.209 2566.92 722.209 Q2565.9 722.209 2563.86 722.315 Q2561.83 722.42 2560.88 722.42 Q2559.93 722.42 2559.93 721.577 Q2559.93 721.085 2560.07 720.769 Q2560.18 720.488 2560.46 720.347 Q2560.74 720.242 2560.98 720.207 Q2561.19 720.207 2561.62 720.207 Q2563.23 720.207 2563.93 719.926 Q2564.64 719.68 2564.88 719.153 Q2565.16 718.661 2565.48 717.255 L2573.56 685.214 Q2574.05 683.07 2574.05 681.56 Q2574.05 679.662 2573.46 678.96 Q2572.86 678.257 2571.8 678.257 Q2569.98 678.257 2568.78 680.435 Q2567.59 682.614 2566.57 686.83 Q2566.25 687.989 2566.04 688.235 Q2565.87 688.481 2565.34 688.481 Q2564.46 688.446 2564.46 687.743 Q2564.46 687.568 2564.74 686.443 Q2565.02 685.284 2565.55 683.597 Q2566.11 681.876 2566.71 680.787 Q2567.06 680.049 2567.38 679.557 Q2567.69 679.065 2568.33 678.292 Q2568.99 677.519 2569.94 677.098 Q2570.89 676.676 2572.05 676.676 Q2574.3 676.676 2576.16 678.011 Q2578.02 679.346 2578.52 682.052 Q2580.52 679.698 2582.98 678.187 Q2585.44 676.676 2587.93 676.676 Q2592.08 676.676 2594.78 679.908 Q2597.52 683.106 2597.52 688.165 M2592.32 685.003 Q2592.32 681.806 2591.09 680.049 Q2589.9 678.257 2587.72 678.257 Q2585.01 678.257 2581.89 680.998 Q2578.8 683.597 2578.16 686.022 L2574.62 700.11 L2574.4 701.27 Q2574.4 701.48 2574.51 702.113 Q2574.65 702.71 2575.04 703.694 Q2575.46 704.678 2576.02 705.556 Q2576.62 706.399 2577.67 707.032 Q2578.76 707.664 2580.1 707.664 Q2582.24 707.664 2584.56 705.767 Q2586.91 703.87 2588.67 700.286 Q2589.76 697.967 2591.02 692.978 Q2592.32 687.954 2592.32 685.003 Z" fill="#000000" fill-rule="nonzero" fill-opacity="1"></path><path clip-path="url(#clip820)" d="M2615.73 697.545 Q2615.8 696.667 2617.17 696.667 L2661.26 696.667 Q2663.33 696.667 2663.37 697.475 Q2663.37 698.354 2661.4 698.318 L2617.66 698.318 Q2615.73 698.354 2615.73 697.545 M2615.73 683.492 Q2615.73 682.614 2617.24 682.649 L2661.19 682.649 Q2663.33 682.649 2663.37 683.492 Q2663.37 684.3 2661.54 684.3 L2617.17 684.3 Q2615.73 684.3 2615.73 683.492 Z" fill="#000000" fill-rule="nonzero" fill-opacity="1"></path><path clip-path="url(#clip820)" d="M2691.11 667.401 L2691.11 665.152 Q2699.76 665.152 2704.22 660.55 Q2705.45 660.55 2705.66 660.831 Q2705.87 661.112 2705.87 662.412 L2705.87 702.78 Q2705.87 704.924 2706.92 705.591 Q2707.98 706.259 2712.58 706.259 L2714.86 706.259 L2714.86 708.472 Q2712.33 708.261 2703.2 708.261 Q2694.06 708.261 2691.57 708.472 L2691.57 706.259 L2693.85 706.259 Q2698.39 706.259 2699.47 705.626 Q2700.56 704.959 2700.56 702.78 L2700.56 665.504 Q2696.8 667.401 2691.11 667.401 Z" fill="#000000" fill-rule="nonzero" fill-opacity="1"></path><polyline clip-path="url(#clip820)" style="stroke:#4dae49; stroke-linecap:round; stroke-linejoin:round; stroke-width:24; stroke-opacity:1; fill:none" points="2377.83,769.416 2533.91,769.416 "></polyline>
<path clip-path="url(#clip820)" d="M2597.52 765.925 Q2597.52 771.054 2594.92 776.008 Q2592.36 780.962 2588.32 784.019 Q2584.28 787.04 2580.17 787.04 Q2577.71 787.04 2576.06 785.705 Q2574.44 784.335 2573.56 782.402 Q2572.89 784.792 2571.45 790.518 Q2570.01 796.245 2570.01 796.807 Q2570.01 797.123 2570.08 797.264 Q2570.15 797.405 2570.47 797.58 Q2570.79 797.791 2571.56 797.861 Q2572.33 797.967 2573.63 797.967 Q2574.3 797.967 2574.55 797.967 Q2574.83 798.002 2575.07 798.177 Q2575.35 798.353 2575.35 798.74 Q2575.35 800.18 2574.05 800.18 Q2572.89 800.18 2570.5 800.075 Q2568.12 799.969 2566.92 799.969 Q2565.9 799.969 2563.86 800.075 Q2561.83 800.18 2560.88 800.18 Q2559.93 800.18 2559.93 799.337 Q2559.93 798.845 2560.07 798.529 Q2560.18 798.248 2560.46 798.107 Q2560.74 798.002 2560.98 797.967 Q2561.19 797.967 2561.62 797.967 Q2563.23 797.967 2563.93 797.686 Q2564.64 797.44 2564.88 796.913 Q2565.16 796.421 2565.48 795.015 L2573.56 762.974 Q2574.05 760.83 2574.05 759.32 Q2574.05 757.422 2573.46 756.72 Q2572.86 756.017 2571.8 756.017 Q2569.98 756.017 2568.78 758.195 Q2567.59 760.374 2566.57 764.59 Q2566.25 765.749 2566.04 765.995 Q2565.87 766.241 2565.34 766.241 Q2564.46 766.206 2564.46 765.503 Q2564.46 765.328 2564.74 764.203 Q2565.02 763.044 2565.55 761.357 Q2566.11 759.636 2566.71 758.547 Q2567.06 757.809 2567.38 757.317 Q2567.69 756.825 2568.33 756.052 Q2568.99 755.279 2569.94 754.858 Q2570.89 754.436 2572.05 754.436 Q2574.3 754.436 2576.16 755.771 Q2578.02 757.106 2578.52 759.812 Q2580.52 757.458 2582.98 755.947 Q2585.44 754.436 2587.93 754.436 Q2592.08 754.436 2594.78 757.668 Q2597.52 760.866 2597.52 765.925 M2592.32 762.763 Q2592.32 759.566 2591.09 757.809 Q2589.9 756.017 2587.72 756.017 Q2585.01 756.017 2581.89 758.758 Q2578.8 761.357 2578.16 763.782 L2574.62 777.87 L2574.4 779.03 Q2574.4 779.24 2574.51 779.873 Q2574.65 780.47 2575.04 781.454 Q2575.46 782.438 2576.02 783.316 Q2576.62 784.159 2577.67 784.792 Q2578.76 785.424 2580.1 785.424 Q2582.24 785.424 2584.56 783.527 Q2586.91 781.63 2588.67 778.046 Q2589.76 775.727 2591.02 770.738 Q2592.32 765.714 2592.32 762.763 Z" fill="#000000" fill-rule="nonzero" fill-opacity="1"></path><path clip-path="url(#clip820)" d="M2615.73 775.305 Q2615.8 774.427 2617.17 774.427 L2661.26 774.427 Q2663.33 774.427 2663.37 775.235 Q2663.37 776.114 2661.4 776.078 L2617.66 776.078 Q2615.73 776.114 2615.73 775.305 M2615.73 761.252 Q2615.73 760.374 2617.24 760.409 L2661.19 760.409 Q2663.33 760.409 2663.37 761.252 Q2663.37 762.06 2661.54 762.06 L2617.17 762.06 Q2615.73 762.06 2615.73 761.252 Z" fill="#000000" fill-rule="nonzero" fill-opacity="1"></path><path clip-path="url(#clip820)" d="M2691.11 786.232 Q2691.11 784.932 2691.22 784.546 Q2691.36 784.159 2691.92 783.562 L2705.73 768.173 Q2713.28 759.671 2713.28 752.258 Q2713.28 747.444 2710.75 744.001 Q2708.26 740.558 2703.66 740.558 Q2700.49 740.558 2697.82 742.491 Q2695.15 744.423 2693.92 747.866 Q2694.13 747.796 2694.87 747.796 Q2696.66 747.796 2697.65 748.92 Q2698.67 750.044 2698.67 751.555 Q2698.67 753.487 2697.4 754.436 Q2696.17 755.35 2694.94 755.35 Q2694.45 755.35 2693.78 755.244 Q2693.15 755.139 2692.13 754.155 Q2691.11 753.136 2691.11 751.344 Q2691.11 746.32 2694.91 742.315 Q2698.74 738.31 2704.57 738.31 Q2711.17 738.31 2715.5 742.245 Q2719.85 746.145 2719.85 752.258 Q2719.85 754.401 2719.18 756.368 Q2718.55 758.301 2717.67 759.812 Q2716.83 761.322 2714.51 763.747 Q2712.19 766.171 2710.33 767.892 Q2708.47 769.614 2704.29 773.268 L2696.66 780.681 L2709.63 780.681 Q2715.95 780.681 2716.44 780.119 Q2717.15 779.1 2718.02 773.724 L2719.85 773.724 L2717.81 786.232 L2691.11 786.232 Z" fill="#000000" fill-rule="nonzero" fill-opacity="1"></path><path clip-path="url(#clip820)" d="M691.161 205.424 Q691.161 205.477 690.845 207.374 L678.829 255.279 Q678.197 257.808 676.405 260.338 Q674.666 262.92 671.873 265.134 Q669.132 267.4 664.916 268.77 Q660.753 270.193 655.957 270.193 Q648.316 270.193 644.943 268.559 Q641.623 266.978 641.623 263.605 Q641.623 260.654 643.467 258.968 Q645.312 257.334 647.42 257.334 Q649.422 257.334 650.476 258.494 Q651.53 259.653 651.53 261.129 Q651.53 262.762 650.424 264.396 Q649.317 266.082 647.104 266.715 Q650.634 267.822 655.746 267.822 Q666.55 267.822 671.188 256.386 Q671.293 256.227 671.293 256.175 L674.877 241.893 L674.719 241.787 Q673.823 242.841 672.4 244.054 Q671.03 245.213 668.078 246.636 Q665.127 248.059 662.229 248.059 Q656.168 248.059 652.005 243.421 Q647.894 238.731 647.894 230.984 Q647.894 225.345 650.16 219.706 Q652.479 214.014 656.063 209.851 Q659.699 205.635 664.337 203 Q669.027 200.365 673.559 200.365 Q676.721 200.365 679.409 202.262 Q682.097 204.107 683.572 207.163 Q683.836 204.634 685.259 203.58 Q686.734 202.526 687.999 202.526 Q689.422 202.526 690.265 203.316 Q691.161 204.054 691.161 205.424 M682.307 212.012 Q682.307 211.695 682.097 210.852 Q681.886 209.956 681.253 208.533 Q680.674 207.111 679.778 205.846 Q678.882 204.581 677.248 203.685 Q675.667 202.736 673.665 202.736 Q670.397 202.736 667.13 205.477 Q663.862 208.165 661.596 212.328 Q659.488 216.333 657.486 224.08 Q655.536 231.827 655.536 235.78 Q655.536 239.679 657.222 242.683 Q658.908 245.687 662.545 245.687 Q666.761 245.687 671.293 241.787 Q675.983 237.73 676.774 234.251 L681.991 213.645 Q682.307 212.381 682.307 212.012 Z" fill="#000000" fill-rule="nonzero" fill-opacity="1"></path><path clip-path="url(#clip820)" d="M718.355 249.532 L707.473 293.21 Q707.03 294.944 707.03 296.826 Q707.03 300.293 709.317 300.293 Q710.387 300.293 711.272 299.592 Q712.158 298.855 712.822 297.416 Q713.523 295.94 713.965 294.538 Q714.445 293.137 715.035 290.96 Q715.22 290.112 715.404 289.853 Q715.589 289.595 716.105 289.595 Q717.027 289.595 717.027 290.333 Q716.105 294.87 714.74 297.748 Q712.748 301.99 709.059 301.99 Q706.292 301.99 704.226 300.072 Q702.197 298.117 702.197 295.018 Q702.197 293.838 702.566 292.436 L712.084 254.66 L712.342 253.184 Q712.342 252.779 712.195 252.557 Q712.047 252.336 711.162 252.115 Q710.313 251.893 708.616 251.893 Q707.915 251.893 707.583 251.856 Q707.288 251.819 706.993 251.635 Q706.735 251.45 706.735 251.045 Q706.735 250.381 706.993 250.012 Q707.288 249.643 707.51 249.569 Q707.731 249.495 708.174 249.458 Q708.801 249.422 710.903 249.237 Q713.006 249.016 714.814 248.868 Q716.621 248.721 717.396 248.721 Q717.839 248.721 718.06 248.942 Q718.318 249.126 718.355 249.348 L718.355 249.532 Z" fill="#000000" fill-rule="nonzero" fill-opacity="1"></path><path clip-path="url(#clip820)" d="M759.661 231.669 Q759.766 230.351 761.821 230.351 L827.96 230.351 Q831.07 230.351 831.122 231.564 Q831.122 232.881 828.171 232.828 L762.559 232.828 Q759.661 232.881 759.661 231.669 M759.661 210.589 Q759.661 209.271 761.927 209.324 L827.855 209.324 Q831.07 209.324 831.122 210.589 Q831.122 211.801 828.382 211.801 L761.821 211.801 Q759.661 211.801 759.661 210.589 Z" fill="#000000" fill-rule="nonzero" fill-opacity="1"></path><path clip-path="url(#clip820)" d="M872.749 186.452 L872.749 183.079 Q885.714 183.079 892.407 176.175 Q894.251 176.175 894.567 176.597 Q894.883 177.019 894.883 178.968 L894.883 239.521 Q894.883 242.736 896.464 243.737 Q898.045 244.739 904.949 244.739 L908.375 244.739 L908.375 248.059 Q904.58 247.743 890.878 247.743 Q877.176 247.743 873.434 248.059 L873.434 244.739 L876.86 244.739 Q883.658 244.739 885.292 243.79 Q886.926 242.789 886.926 239.521 L886.926 183.606 Q881.287 186.452 872.749 186.452 Z" fill="#000000" fill-rule="nonzero" fill-opacity="1"></path></svg>