<svg xmlns="http://www.w3.org/2000/svg" xmlns:xlink="http://www.w3.org/1999/xlink" width="700" height="400" viewBox="0 0 2800 1600">
<defs>
  <clipPath id="clip380">
    <rect x="0" y="0" width="2800" height="1600"></rect>
  </clipPath>
</defs>
<path clip-path="url(#clip380)" d="M0 1600 L2800 1600 L2800 0 L0 0  Z" fill="#ffffff" fill-rule="evenodd" fill-opacity="1"></path>
<defs>
  <clipPath id="clip381">
    <rect x="560" y="0" width="1961" height="1600"></rect>
  </clipPath>
</defs>
<defs>
  <clipPath id="clip382">
    <rect x="365" y="47" width="1903" height="1282"></rect>
  </clipPath>
</defs>
<path clip-path="url(#clip380)" d="M290.601 1328.42 L2257.66 1328.42 L2257.66 47.2441 L290.601 47.2441  Z" fill="#ffffff" fill-rule="evenodd" fill-opacity="1"></path>
<defs>
  <clipPath id="clip383">
    <rect x="290" y="47" width="1968" height="1282"></rect>
  </clipPath>
</defs>
<polyline clip-path="url(#clip380)" style="stroke:#000000; stroke-linecap:round; stroke-linejoin:round; stroke-width:4; stroke-opacity:1; fill:none" points="290.601,1328.42 2257.66,1328.42 "></polyline>
<polyline clip-path="url(#clip380)" style="stroke:#000000; stroke-linecap:round; stroke-linejoin:round; stroke-width:4; stroke-opacity:1; fill:none" points="290.601,47.2441 2257.66,47.2441 "></polyline>
<polyline clip-path="url(#clip380)" style="stroke:#000000; stroke-linecap:round; stroke-linejoin:round; stroke-width:4; stroke-opacity:1; fill:none" points="346.273,1328.42 346.273,1309.52 "></polyline>
<polyline clip-path="url(#clip380)" style="stroke:#000000; stroke-linecap:round; stroke-linejoin:round; stroke-width:4; stroke-opacity:1; fill:none" points="810.201,1328.42 810.201,1309.52 "></polyline>
<polyline clip-path="url(#clip380)" style="stroke:#000000; stroke-linecap:round; stroke-linejoin:round; stroke-width:4; stroke-opacity:1; fill:none" points="1274.13,1328.42 1274.13,1309.52 "></polyline>
<polyline clip-path="url(#clip380)" style="stroke:#000000; stroke-linecap:round; stroke-linejoin:round; stroke-width:4; stroke-opacity:1; fill:none" points="1738.06,1328.42 1738.06,1309.52 "></polyline>
<polyline clip-path="url(#clip380)" style="stroke:#000000; stroke-linecap:round; stroke-linejoin:round; stroke-width:4; stroke-opacity:1; fill:none" points="2201.99,1328.42 2201.99,1309.52 "></polyline>
<path clip-path="url(#clip380)" d="M265.701 1401.48 Q265.701 1387.53 269.221 1379.94 Q274.131 1368.64 285.711 1368.64 Q288.166 1368.64 290.713 1369.33 Q293.307 1369.98 296.55 1372.53 Q299.838 1375.08 301.83 1379.24 Q305.628 1387.3 305.628 1401.48 Q305.628 1415.33 302.108 1422.88 Q296.966 1433.9 285.618 1433.9 Q281.357 1433.9 277.003 1431.72 Q272.695 1429.55 269.963 1424.31 Q265.701 1416.48 265.701 1401.48 M273.575 1400.32 Q273.575 1414.63 274.594 1420.33 Q275.752 1426.49 278.902 1429.18 Q282.098 1431.82 285.618 1431.82 Q289.416 1431.82 292.566 1428.99 Q295.762 1426.12 296.735 1419.96 Q297.8 1413.89 297.754 1400.32 Q297.754 1387.12 296.827 1381.84 Q295.577 1375.68 292.242 1373.22 Q288.953 1370.72 285.618 1370.72 Q284.368 1370.72 283.024 1371.09 Q281.728 1371.46 279.828 1372.53 Q277.929 1373.59 276.447 1376.23 Q275.011 1378.87 274.316 1382.86 Q273.575 1388 273.575 1400.32 Z" fill="#000000" fill-rule="nonzero" fill-opacity="1"></path><path clip-path="url(#clip380)" d="M318.921 1430.29 Q317.486 1428.76 317.486 1426.77 Q317.486 1424.78 318.921 1423.34 Q320.357 1421.86 322.534 1421.86 Q324.619 1421.86 326.008 1423.25 Q327.444 1424.59 327.444 1426.81 Q327.444 1428.99 325.916 1430.43 Q324.433 1431.82 322.534 1431.82 Q320.357 1431.82 318.921 1430.29 Z" fill="#000000" fill-rule="nonzero" fill-opacity="1"></path><path clip-path="url(#clip380)" d="M339.487 1401.48 Q339.487 1387.53 343.007 1379.94 Q347.917 1368.64 359.497 1368.64 Q361.952 1368.64 364.499 1369.33 Q367.093 1369.98 370.335 1372.53 Q373.624 1375.08 375.616 1379.24 Q379.414 1387.3 379.414 1401.48 Q379.414 1415.33 375.894 1422.88 Q370.752 1433.9 359.404 1433.9 Q355.143 1433.9 350.789 1431.72 Q346.481 1429.55 343.748 1424.31 Q339.487 1416.48 339.487 1401.48 M347.361 1400.32 Q347.361 1414.63 348.38 1420.33 Q349.538 1426.49 352.688 1429.18 Q355.884 1431.82 359.404 1431.82 Q363.202 1431.82 366.352 1428.99 Q369.548 1426.12 370.521 1419.96 Q371.586 1413.89 371.54 1400.32 Q371.54 1387.12 370.613 1381.84 Q369.363 1375.68 366.028 1373.22 Q362.739 1370.72 359.404 1370.72 Q358.154 1370.72 356.81 1371.09 Q355.513 1371.46 353.614 1372.53 Q351.715 1373.59 350.233 1376.23 Q348.797 1378.87 348.102 1382.86 Q347.361 1388 347.361 1400.32 Z" fill="#000000" fill-rule="nonzero" fill-opacity="1"></path><path clip-path="url(#clip380)" d="M386.917 1401.48 Q386.917 1387.53 390.438 1379.94 Q395.348 1368.64 406.927 1368.64 Q409.382 1368.64 411.93 1369.33 Q414.524 1369.98 417.766 1372.53 Q421.054 1375.08 423.046 1379.24 Q426.844 1387.3 426.844 1401.48 Q426.844 1415.33 423.324 1422.88 Q418.183 1433.9 406.835 1433.9 Q402.573 1433.9 398.219 1431.72 Q393.912 1429.55 391.179 1424.31 Q386.917 1416.48 386.917 1401.48 M394.792 1400.32 Q394.792 1414.63 395.811 1420.33 Q396.969 1426.49 400.118 1429.18 Q403.314 1431.82 406.835 1431.82 Q410.633 1431.82 413.782 1428.99 Q416.978 1426.12 417.951 1419.96 Q419.016 1413.89 418.97 1400.32 Q418.97 1387.12 418.044 1381.84 Q416.793 1375.68 413.458 1373.22 Q410.17 1370.72 406.835 1370.72 Q405.584 1370.72 404.241 1371.09 Q402.944 1371.46 401.045 1372.53 Q399.146 1373.59 397.663 1376.23 Q396.228 1378.87 395.533 1382.86 Q394.792 1388 394.792 1400.32 Z" fill="#000000" fill-rule="nonzero" fill-opacity="1"></path><path clip-path="url(#clip380)" d="M730.139 1401.48 Q730.139 1387.53 733.659 1379.94 Q738.569 1368.64 750.149 1368.64 Q752.603 1368.64 755.151 1369.33 Q757.745 1369.98 760.987 1372.53 Q764.276 1375.08 766.268 1379.24 Q770.066 1387.3 770.066 1401.48 Q770.066 1415.33 766.545 1422.88 Q761.404 1433.9 750.056 1433.9 Q745.795 1433.9 741.441 1431.72 Q737.133 1429.55 734.4 1424.31 Q730.139 1416.48 730.139 1401.48 M738.013 1400.32 Q738.013 1414.63 739.032 1420.33 Q740.19 1426.49 743.34 1429.18 Q746.536 1431.82 750.056 1431.82 Q753.854 1431.82 757.004 1428.99 Q760.2 1426.12 761.172 1419.96 Q762.238 1413.89 762.191 1400.32 Q762.191 1387.12 761.265 1381.84 Q760.015 1375.68 756.68 1373.22 Q753.391 1370.72 750.056 1370.72 Q748.805 1370.72 747.462 1371.09 Q746.165 1371.46 744.266 1372.53 Q742.367 1373.59 740.885 1376.23 Q739.449 1378.87 738.754 1382.86 Q738.013 1388 738.013 1400.32 Z" fill="#000000" fill-rule="nonzero" fill-opacity="1"></path><path clip-path="url(#clip380)" d="M783.359 1430.29 Q781.923 1428.76 781.923 1426.77 Q781.923 1424.78 783.359 1423.34 Q784.795 1421.86 786.972 1421.86 Q789.056 1421.86 790.446 1423.25 Q791.882 1424.59 791.882 1426.81 Q791.882 1428.99 790.353 1430.43 Q788.871 1431.82 786.972 1431.82 Q784.795 1431.82 783.359 1430.29 Z" fill="#000000" fill-rule="nonzero" fill-opacity="1"></path><path clip-path="url(#clip380)" d="M804.944 1431.82 Q804.944 1430.1 805.083 1429.59 Q805.268 1429.08 806.009 1428.3 L824.212 1408.01 Q834.171 1396.8 834.171 1387.03 Q834.171 1380.68 830.836 1376.14 Q827.547 1371.6 821.48 1371.6 Q817.311 1371.6 813.791 1374.15 Q810.27 1376.7 808.649 1381.24 Q808.927 1381.14 809.9 1381.14 Q812.262 1381.14 813.559 1382.63 Q814.902 1384.11 814.902 1386.1 Q814.902 1388.65 813.235 1389.9 Q811.614 1391.1 809.992 1391.1 Q809.344 1391.1 808.464 1390.96 Q807.63 1390.82 806.287 1389.53 Q804.944 1388.18 804.944 1385.82 Q804.944 1379.2 809.946 1373.92 Q814.995 1368.64 822.684 1368.64 Q831.392 1368.64 837.089 1373.82 Q842.833 1378.97 842.833 1387.03 Q842.833 1389.85 841.952 1392.44 Q841.119 1394.99 839.961 1396.98 Q838.849 1398.98 835.792 1402.17 Q832.735 1405.37 830.28 1407.64 Q827.825 1409.91 822.313 1414.72 L812.262 1424.5 L829.354 1424.5 Q837.691 1424.5 838.34 1423.76 Q839.266 1422.41 840.424 1415.33 L842.833 1415.33 L840.146 1431.82 L804.944 1431.82 Z" fill="#000000" fill-rule="nonzero" fill-opacity="1"></path><path clip-path="url(#clip380)" d="M852.374 1416.53 Q852.374 1413.71 853.903 1412.64 Q855.431 1411.53 857.052 1411.53 Q859.229 1411.53 860.48 1412.92 Q861.777 1414.26 861.777 1416.16 Q861.777 1418.06 860.48 1419.45 Q859.229 1420.79 857.052 1420.79 Q855.987 1420.79 855.431 1420.61 Q856.682 1424.96 860.48 1428.11 Q864.324 1431.26 869.373 1431.26 Q875.719 1431.26 879.517 1425.1 Q881.787 1421.12 881.787 1412.08 Q881.787 1404.12 880.073 1400.13 Q877.433 1394.07 872.013 1394.07 Q864.324 1394.07 859.785 1400.69 Q859.229 1401.52 858.581 1401.57 Q857.655 1401.57 857.423 1401.06 Q857.238 1400.5 857.238 1399.07 L857.238 1371 Q857.238 1368.73 858.164 1368.73 Q858.535 1368.73 859.322 1369.01 Q865.297 1371.65 871.921 1371.69 Q878.73 1371.69 884.844 1368.91 Q885.307 1368.64 885.585 1368.64 Q886.511 1368.64 886.557 1369.7 Q886.557 1370.07 885.77 1371.18 Q885.029 1372.25 883.408 1373.69 Q881.787 1375.08 879.702 1376.42 Q877.618 1377.76 874.561 1378.69 Q871.55 1379.57 868.215 1379.57 Q864.232 1379.57 860.156 1378.32 L860.156 1396.8 Q865.066 1391.98 872.199 1391.98 Q879.795 1391.98 885.029 1398.1 Q890.263 1404.21 890.263 1412.73 Q890.263 1421.67 884.056 1427.79 Q877.896 1433.9 869.558 1433.9 Q861.962 1433.9 857.145 1428.48 Q852.374 1423.06 852.374 1416.53 Z" fill="#000000" fill-rule="nonzero" fill-opacity="1"></path><path clip-path="url(#clip380)" d="M1193.56 1401.48 Q1193.56 1387.53 1197.08 1379.94 Q1201.99 1368.64 1213.57 1368.64 Q1216.02 1368.64 1218.57 1369.33 Q1221.16 1369.98 1224.41 1372.53 Q1227.69 1375.08 1229.69 1379.24 Q1233.48 1387.3 1233.48 1401.48 Q1233.48 1415.33 1229.96 1422.88 Q1224.82 1433.9 1213.47 1433.9 Q1209.21 1433.9 1204.86 1431.72 Q1200.55 1429.55 1197.82 1424.31 Q1193.56 1416.48 1193.56 1401.48 M1201.43 1400.32 Q1201.43 1414.63 1202.45 1420.33 Q1203.61 1426.49 1206.76 1429.18 Q1209.95 1431.82 1213.47 1431.82 Q1217.27 1431.82 1220.42 1428.99 Q1223.62 1426.12 1224.59 1419.96 Q1225.66 1413.89 1225.61 1400.32 Q1225.61 1387.12 1224.68 1381.84 Q1223.43 1375.68 1220.1 1373.22 Q1216.81 1370.72 1213.47 1370.72 Q1212.22 1370.72 1210.88 1371.09 Q1209.58 1371.46 1207.68 1372.53 Q1205.79 1373.59 1204.3 1376.23 Q1202.87 1378.87 1202.17 1382.86 Q1201.43 1388 1201.43 1400.32 Z" fill="#000000" fill-rule="nonzero" fill-opacity="1"></path><path clip-path="url(#clip380)" d="M1246.78 1430.29 Q1245.34 1428.76 1245.34 1426.77 Q1245.34 1424.78 1246.78 1423.34 Q1248.21 1421.86 1250.39 1421.86 Q1252.48 1421.86 1253.86 1423.25 Q1255.3 1424.59 1255.3 1426.81 Q1255.3 1428.99 1253.77 1430.43 Q1252.29 1431.82 1250.39 1431.82 Q1248.21 1431.82 1246.78 1430.29 Z" fill="#000000" fill-rule="nonzero" fill-opacity="1"></path><path clip-path="url(#clip380)" d="M1268.36 1416.53 Q1268.36 1413.71 1269.89 1412.64 Q1271.42 1411.53 1273.04 1411.53 Q1275.22 1411.53 1276.47 1412.92 Q1277.77 1414.26 1277.77 1416.16 Q1277.77 1418.06 1276.47 1419.45 Q1275.22 1420.79 1273.04 1420.79 Q1271.98 1420.79 1271.42 1420.61 Q1272.67 1424.96 1276.47 1428.11 Q1280.31 1431.26 1285.36 1431.26 Q1291.71 1431.26 1295.51 1425.1 Q1297.77 1421.12 1297.77 1412.08 Q1297.77 1404.12 1296.06 1400.13 Q1293.42 1394.07 1288 1394.07 Q1280.31 1394.07 1275.77 1400.69 Q1275.22 1401.52 1274.57 1401.57 Q1273.64 1401.57 1273.41 1401.06 Q1273.23 1400.5 1273.23 1399.07 L1273.23 1371 Q1273.23 1368.73 1274.15 1368.73 Q1274.52 1368.73 1275.31 1369.01 Q1281.29 1371.65 1287.91 1371.69 Q1294.72 1371.69 1300.83 1368.91 Q1301.3 1368.64 1301.57 1368.64 Q1302.5 1368.64 1302.55 1369.7 Q1302.55 1370.07 1301.76 1371.18 Q1301.02 1372.25 1299.4 1373.69 Q1297.77 1375.08 1295.69 1376.42 Q1293.61 1377.76 1290.55 1378.69 Q1287.54 1379.57 1284.2 1379.57 Q1280.22 1379.57 1276.14 1378.32 L1276.14 1396.8 Q1281.05 1391.98 1288.19 1391.98 Q1295.78 1391.98 1301.02 1398.1 Q1306.25 1404.21 1306.25 1412.73 Q1306.25 1421.67 1300.04 1427.79 Q1293.88 1433.9 1285.55 1433.9 Q1277.95 1433.9 1273.13 1428.48 Q1268.36 1423.06 1268.36 1416.53 Z" fill="#000000" fill-rule="nonzero" fill-opacity="1"></path><path clip-path="url(#clip380)" d="M1314.77 1401.48 Q1314.77 1387.53 1318.29 1379.94 Q1323.2 1368.64 1334.78 1368.64 Q1337.24 1368.64 1339.79 1369.33 Q1342.38 1369.98 1345.62 1372.53 Q1348.91 1375.08 1350.9 1379.24 Q1354.7 1387.3 1354.7 1401.48 Q1354.7 1415.33 1351.18 1422.88 Q1346.04 1433.9 1334.69 1433.9 Q1330.43 1433.9 1326.08 1431.72 Q1321.77 1429.55 1319.04 1424.31 Q1314.77 1416.48 1314.77 1401.48 M1322.65 1400.32 Q1322.65 1414.63 1323.67 1420.33 Q1324.83 1426.49 1327.97 1429.18 Q1331.17 1431.82 1334.69 1431.82 Q1338.49 1431.82 1341.64 1428.99 Q1344.83 1426.12 1345.81 1419.96 Q1346.87 1413.89 1346.83 1400.32 Q1346.83 1387.12 1345.9 1381.84 Q1344.65 1375.68 1341.31 1373.22 Q1338.03 1370.72 1334.69 1370.72 Q1333.44 1370.72 1332.1 1371.09 Q1330.8 1371.46 1328.9 1372.53 Q1327 1373.59 1325.52 1376.23 Q1324.08 1378.87 1323.39 1382.86 Q1322.65 1388 1322.65 1400.32 Z" fill="#000000" fill-rule="nonzero" fill-opacity="1"></path><path clip-path="url(#clip380)" d="M1658 1401.48 Q1658 1387.53 1661.52 1379.94 Q1666.43 1368.64 1678 1368.64 Q1680.46 1368.64 1683.01 1369.33 Q1685.6 1369.98 1688.84 1372.53 Q1692.13 1375.08 1694.12 1379.24 Q1697.92 1387.3 1697.92 1401.48 Q1697.92 1415.33 1694.4 1422.88 Q1689.26 1433.9 1677.91 1433.9 Q1673.65 1433.9 1669.3 1431.72 Q1664.99 1429.55 1662.26 1424.31 Q1658 1416.48 1658 1401.48 M1665.87 1400.32 Q1665.87 1414.63 1666.89 1420.33 Q1668.05 1426.49 1671.2 1429.18 Q1674.39 1431.82 1677.91 1431.82 Q1681.71 1431.82 1684.86 1428.99 Q1688.06 1426.12 1689.03 1419.96 Q1690.09 1413.89 1690.05 1400.32 Q1690.05 1387.12 1689.12 1381.84 Q1687.87 1375.68 1684.54 1373.22 Q1681.25 1370.72 1677.91 1370.72 Q1676.66 1370.72 1675.32 1371.09 Q1674.02 1371.46 1672.12 1372.53 Q1670.22 1373.59 1668.74 1376.23 Q1667.31 1378.87 1666.61 1382.86 Q1665.87 1388 1665.87 1400.32 Z" fill="#000000" fill-rule="nonzero" fill-opacity="1"></path><path clip-path="url(#clip380)" d="M1711.22 1430.29 Q1709.78 1428.76 1709.78 1426.77 Q1709.78 1424.78 1711.22 1423.34 Q1712.65 1421.86 1714.83 1421.86 Q1716.91 1421.86 1718.3 1423.25 Q1719.74 1424.59 1719.74 1426.81 Q1719.74 1428.99 1718.21 1430.43 Q1716.73 1431.82 1714.83 1431.82 Q1712.65 1431.82 1711.22 1430.29 Z" fill="#000000" fill-rule="nonzero" fill-opacity="1"></path><path clip-path="url(#clip380)" d="M1733.4 1387.21 L1736.51 1367.71 L1738.87 1367.71 Q1739.15 1368.87 1739.61 1369.38 Q1740.12 1369.89 1742.8 1370.3 Q1745.54 1370.72 1751.05 1370.72 L1774.07 1370.72 Q1774.07 1372.9 1773.24 1374.06 L1760.41 1392.07 Q1756.33 1397.77 1754.52 1408.29 Q1753.46 1415.33 1753.5 1423.85 L1753.5 1428.67 Q1753.5 1433.9 1749.1 1433.9 Q1744.75 1433.9 1744.75 1428.67 Q1744.75 1410.56 1756.42 1393 Q1757.67 1391.19 1762.26 1384.76 Q1766.89 1378.32 1767.08 1378.04 L1747.44 1378.04 Q1738.82 1378.04 1738.13 1378.6 Q1737.2 1379.43 1735.76 1387.21 L1733.4 1387.21 Z" fill="#000000" fill-rule="nonzero" fill-opacity="1"></path><path clip-path="url(#clip380)" d="M1780.23 1416.53 Q1780.23 1413.71 1781.76 1412.64 Q1783.29 1411.53 1784.91 1411.53 Q1787.09 1411.53 1788.34 1412.92 Q1789.63 1414.26 1789.63 1416.16 Q1789.63 1418.06 1788.34 1419.45 Q1787.09 1420.79 1784.91 1420.79 Q1783.84 1420.79 1783.29 1420.61 Q1784.54 1424.96 1788.34 1428.11 Q1792.18 1431.26 1797.23 1431.26 Q1803.58 1431.26 1807.37 1425.1 Q1809.64 1421.12 1809.64 1412.08 Q1809.64 1404.12 1807.93 1400.13 Q1805.29 1394.07 1799.87 1394.07 Q1792.18 1394.07 1787.64 1400.69 Q1787.09 1401.52 1786.44 1401.57 Q1785.51 1401.57 1785.28 1401.06 Q1785.09 1400.5 1785.09 1399.07 L1785.09 1371 Q1785.09 1368.73 1786.02 1368.73 Q1786.39 1368.73 1787.18 1369.01 Q1793.15 1371.65 1799.78 1371.69 Q1806.59 1371.69 1812.7 1368.91 Q1813.16 1368.64 1813.44 1368.64 Q1814.37 1368.64 1814.41 1369.7 Q1814.41 1370.07 1813.63 1371.18 Q1812.89 1372.25 1811.26 1373.69 Q1809.64 1375.08 1807.56 1376.42 Q1805.47 1377.76 1802.42 1378.69 Q1799.41 1379.57 1796.07 1379.57 Q1792.09 1379.57 1788.01 1378.32 L1788.01 1396.8 Q1792.92 1391.98 1800.05 1391.98 Q1807.65 1391.98 1812.89 1398.1 Q1818.12 1404.21 1818.12 1412.73 Q1818.12 1421.67 1811.91 1427.79 Q1805.75 1433.9 1797.41 1433.9 Q1789.82 1433.9 1785 1428.48 Q1780.23 1423.06 1780.23 1416.53 Z" fill="#000000" fill-rule="nonzero" fill-opacity="1"></path><path clip-path="url(#clip380)" d="M2123.78 1377.67 L2123.78 1374.7 Q2135.17 1374.7 2141.05 1368.64 Q2142.67 1368.64 2142.95 1369.01 Q2143.23 1369.38 2143.23 1371.09 L2143.23 1424.31 Q2143.23 1427.14 2144.62 1428.02 Q2146.01 1428.9 2152.08 1428.9 L2155.09 1428.9 L2155.09 1431.82 Q2151.75 1431.54 2139.71 1431.54 Q2127.67 1431.54 2124.38 1431.82 L2124.38 1428.9 L2127.39 1428.9 Q2133.36 1428.9 2134.8 1428.06 Q2136.24 1427.18 2136.24 1424.31 L2136.24 1375.17 Q2131.28 1377.67 2123.78 1377.67 Z" fill="#000000" fill-rule="nonzero" fill-opacity="1"></path><path clip-path="url(#clip380)" d="M2172.27 1430.29 Q2170.84 1428.76 2170.84 1426.77 Q2170.84 1424.78 2172.27 1423.34 Q2173.71 1421.86 2175.88 1421.86 Q2177.97 1421.86 2179.36 1423.25 Q2180.79 1424.59 2180.79 1426.81 Q2180.79 1428.99 2179.27 1430.43 Q2177.78 1431.82 2175.88 1431.82 Q2173.71 1431.82 2172.27 1430.29 Z" fill="#000000" fill-rule="nonzero" fill-opacity="1"></path><path clip-path="url(#clip380)" d="M2192.84 1401.48 Q2192.84 1387.53 2196.36 1379.94 Q2201.27 1368.64 2212.85 1368.64 Q2215.3 1368.64 2217.85 1369.33 Q2220.44 1369.98 2223.69 1372.53 Q2226.97 1375.08 2228.97 1379.24 Q2232.76 1387.3 2232.76 1401.48 Q2232.76 1415.33 2229.24 1422.88 Q2224.1 1433.9 2212.75 1433.9 Q2208.49 1433.9 2204.14 1431.72 Q2199.83 1429.55 2197.1 1424.31 Q2192.84 1416.48 2192.84 1401.48 M2200.71 1400.32 Q2200.71 1414.63 2201.73 1420.33 Q2202.89 1426.49 2206.04 1429.18 Q2209.23 1431.82 2212.75 1431.82 Q2216.55 1431.82 2219.7 1428.99 Q2222.9 1426.12 2223.87 1419.96 Q2224.94 1413.89 2224.89 1400.32 Q2224.89 1387.12 2223.96 1381.84 Q2222.71 1375.68 2219.38 1373.22 Q2216.09 1370.72 2212.75 1370.72 Q2211.5 1370.72 2210.16 1371.09 Q2208.86 1371.46 2206.96 1372.53 Q2205.07 1373.59 2203.58 1376.23 Q2202.15 1378.87 2201.45 1382.86 Q2200.71 1388 2200.71 1400.32 Z" fill="#000000" fill-rule="nonzero" fill-opacity="1"></path><path clip-path="url(#clip380)" d="M2240.27 1401.48 Q2240.27 1387.53 2243.79 1379.94 Q2248.7 1368.64 2260.28 1368.64 Q2262.73 1368.64 2265.28 1369.33 Q2267.87 1369.98 2271.12 1372.53 Q2274.4 1375.08 2276.4 1379.24 Q2280.19 1387.3 2280.19 1401.48 Q2280.19 1415.33 2276.67 1422.88 Q2271.53 1433.9 2260.19 1433.9 Q2255.92 1433.9 2251.57 1431.72 Q2247.26 1429.55 2244.53 1424.31 Q2240.27 1416.48 2240.27 1401.48 M2248.14 1400.32 Q2248.14 1414.63 2249.16 1420.33 Q2250.32 1426.49 2253.47 1429.18 Q2256.66 1431.82 2260.19 1431.82 Q2263.98 1431.82 2267.13 1428.99 Q2270.33 1426.12 2271.3 1419.96 Q2272.37 1413.89 2272.32 1400.32 Q2272.32 1387.12 2271.39 1381.84 Q2270.14 1375.68 2266.81 1373.22 Q2263.52 1370.72 2260.19 1370.72 Q2258.93 1370.72 2257.59 1371.09 Q2256.29 1371.46 2254.4 1372.53 Q2252.5 1373.59 2251.01 1376.23 Q2249.58 1378.87 2248.88 1382.86 Q2248.14 1388 2248.14 1400.32 Z" fill="#000000" fill-rule="nonzero" fill-opacity="1"></path><path clip-path="url(#clip380)" d="M1019.36 1496.28 Q1019.36 1496.36 1019.28 1496.45 Q1018.74 1500.79 1017.72 1503.21 Q1016.69 1505.59 1014.4 1506.69 Q1012.72 1507.51 1010.63 1507.51 Q1007.47 1507.51 1002.92 1505.42 Q1002.76 1505.34 1001.86 1504.93 Q1000.95 1504.52 1000.63 1504.4 Q1000.3 1504.27 999.601 1504.03 Q998.904 1503.74 998.371 1503.66 Q997.838 1503.58 997.305 1503.58 Q996.157 1503.58 995.174 1504.07 Q993.165 1505.05 991.936 1506.53 Q990.665 1507.96 990.337 1510.55 Q990.255 1510.87 989.968 1511.12 Q989.681 1511.37 989.312 1511.37 Q988.943 1511.37 988.615 1511.08 Q988.288 1510.79 988.288 1510.38 Q988.288 1510.3 988.37 1510.22 Q988.902 1505.87 989.927 1503.5 Q990.952 1501.08 993.247 1499.97 Q995.051 1499.11 997.018 1499.11 Q1000.09 1499.11 1004.77 1501.24 Q1004.93 1501.32 1005.83 1501.73 Q1006.73 1502.14 1007.06 1502.27 Q1007.39 1502.39 1008.09 1502.68 Q1008.78 1502.92 1009.32 1503 Q1009.85 1503.09 1010.38 1503.09 Q1011.41 1503.09 1012.47 1502.55 Q1014.48 1501.57 1015.75 1500.13 Q1017.02 1498.7 1017.35 1496.12 Q1017.43 1495.79 1017.72 1495.54 Q1018 1495.26 1018.37 1495.26 Q1018.74 1495.26 1019.07 1495.59 Q1019.36 1495.87 1019.36 1496.28 Z" fill="#000000" fill-rule="nonzero" fill-opacity="1"></path><path clip-path="url(#clip380)" d="M1020.75 1525.27 Q1020.75 1525.68 1019.75 1527.44 Q1018.82 1529.14 1015.36 1533.41 Q1011.91 1537.68 1006.75 1542.66 Q1004.82 1544.59 1001.89 1547.29 Q998.965 1549.98 996.974 1551.74 L994.983 1553.49 Q987.37 1559.94 980.695 1567.14 Q981.164 1566.96 981.983 1566.9 Q982.803 1566.79 983.389 1566.79 L983.974 1566.79 Q987.019 1566.79 992.348 1568.84 Q997.032 1570.36 999.433 1570.36 Q1001.78 1570.36 1004.35 1569.54 Q1006.93 1568.72 1009.74 1566.32 Q1012.55 1563.92 1013.84 1560.29 Q1014.07 1559.7 1014.19 1559.53 Q1014.31 1559.29 1014.66 1559.06 Q1015.01 1558.76 1015.48 1558.76 Q1016.12 1558.76 1016.53 1559.12 Q1016.94 1559.47 1016.94 1559.94 Q1016.94 1560.99 1016.12 1563.1 Q1015.36 1565.21 1013.66 1567.84 Q1012.02 1570.48 1009.86 1572.88 Q1007.75 1575.22 1004.59 1576.86 Q1001.42 1578.44 998.086 1578.44 Q995.685 1578.44 993.929 1577.27 Q992.172 1576.16 990.415 1573.99 Q988.015 1571.24 986.726 1570.36 Q985.438 1569.42 983.447 1569.42 Q978.119 1569.42 973.258 1576.86 Q972.731 1577.91 972.38 1578.15 Q972.087 1578.44 971.385 1578.44 Q969.921 1578.38 969.921 1577.21 Q969.921 1576.74 971.209 1574.69 Q972.556 1572.58 975.542 1568.89 Q978.587 1565.21 982.276 1561.52 L993.05 1551.45 Q1005 1541.37 1009.74 1535.69 Q1007.75 1535.69 1006.87 1535.64 Q1006.05 1535.58 1004.41 1535.23 Q1002.77 1534.82 1000.49 1533.94 Q995.158 1532.12 992.933 1532.12 Q992.348 1532.12 991.704 1532.18 Q991.06 1532.24 989.596 1532.53 Q988.19 1532.82 987.019 1533.41 Q985.848 1533.94 984.618 1535.11 Q983.389 1536.22 982.745 1537.74 Q982.569 1538.21 982.452 1538.45 Q982.335 1538.68 981.983 1538.91 Q981.691 1539.09 981.222 1539.09 Q980.519 1539.09 980.11 1538.68 Q979.758 1538.27 979.758 1537.74 Q979.758 1536.69 980.812 1534.52 Q981.866 1532.36 983.623 1530.01 Q985.38 1527.61 988.249 1525.86 Q991.118 1524.1 994.28 1524.1 Q996.154 1524.1 997.735 1524.92 Q999.374 1525.74 1000.19 1526.62 Q1001.07 1527.44 1002.54 1529.25 Q1003.77 1530.66 1004.35 1531.24 Q1004.94 1531.83 1006.11 1532.47 Q1007.34 1533.06 1008.68 1533.06 Q1010.91 1533.06 1012.96 1531.36 Q1015.01 1529.6 1017.64 1525.39 Q1018.35 1524.1 1019.46 1524.1 Q1020.75 1524.1 1020.75 1525.27 Z" fill="#000000" fill-rule="nonzero" fill-opacity="1"></path><path clip-path="url(#clip380)" d="M1120.7 1519.17 Q1120.7 1498.62 1128.36 1482.05 Q1131.63 1475.1 1136.2 1469.28 Q1140.77 1463.46 1143.8 1460.9 Q1146.83 1458.35 1147.66 1458.35 Q1148.85 1458.35 1148.91 1459.54 Q1148.91 1460.13 1147.31 1461.62 Q1127.7 1481.58 1127.76 1519.17 Q1127.76 1556.89 1146.83 1576.08 Q1148.91 1578.15 1148.91 1578.81 Q1148.91 1580 1147.66 1580 Q1146.83 1580 1143.92 1577.56 Q1141.01 1575.13 1136.5 1569.54 Q1131.98 1563.96 1128.71 1557.13 Q1120.7 1540.56 1120.7 1519.17 Z" fill="#000000" fill-rule="nonzero" fill-opacity="1"></path><path clip-path="url(#clip380)" d="M1237.3 1575.28 Q1236.71 1575.98 1235.66 1575.98 Q1234.66 1575.98 1233.96 1575.28 L1209.13 1550.45 L1184.3 1575.28 Q1183.6 1575.98 1182.55 1575.98 Q1181.55 1575.98 1180.91 1575.28 Q1180.2 1574.63 1180.2 1573.64 Q1180.2 1572.64 1180.91 1571.94 L1205.73 1547.11 L1180.91 1522.28 Q1180.2 1521.58 1180.2 1520.59 Q1180.2 1519.53 1180.91 1518.95 Q1181.55 1518.24 1182.55 1518.24 Q1183.6 1518.24 1184.3 1518.95 L1209.13 1543.77 L1233.96 1518.95 Q1234.66 1518.24 1235.66 1518.24 Q1236.71 1518.24 1237.3 1518.95 Q1238 1519.53 1238 1520.59 Q1238 1521.58 1237.3 1522.28 L1212.47 1547.11 L1237.3 1571.94 Q1238 1572.64 1238 1573.7 Q1238 1574.69 1237.3 1575.28 Z" fill="#000000" fill-rule="nonzero" fill-opacity="1"></path><path clip-path="url(#clip380)" d="M1283.44 1508.64 L1283.44 1504.89 Q1297.84 1504.89 1305.28 1497.22 Q1307.33 1497.22 1307.68 1497.69 Q1308.03 1498.16 1308.03 1500.33 L1308.03 1567.61 Q1308.03 1571.18 1309.79 1572.29 Q1311.55 1573.4 1319.22 1573.4 L1323.02 1573.4 L1323.02 1577.09 Q1318.81 1576.74 1303.58 1576.74 Q1288.36 1576.74 1284.2 1577.09 L1284.2 1573.4 L1288.01 1573.4 Q1295.56 1573.4 1297.38 1572.35 Q1299.19 1571.24 1299.19 1567.61 L1299.19 1505.48 Q1292.93 1508.64 1283.44 1508.64 Z" fill="#000000" fill-rule="nonzero" fill-opacity="1"></path><path clip-path="url(#clip380)" d="M1342.83 1538.74 Q1342.83 1521.11 1347.28 1511.51 Q1353.49 1497.22 1368.13 1497.22 Q1371.23 1497.22 1374.45 1498.1 Q1377.73 1498.92 1381.83 1502.14 Q1385.99 1505.36 1388.5 1510.63 Q1393.31 1520.82 1393.31 1538.74 Q1393.31 1556.25 1388.86 1565.79 Q1382.36 1579.73 1368.01 1579.73 Q1362.62 1579.73 1357.12 1576.98 Q1351.67 1574.22 1348.22 1567.61 Q1342.83 1557.71 1342.83 1538.74 M1352.78 1537.27 Q1352.78 1555.37 1354.07 1562.57 Q1355.54 1570.36 1359.52 1573.76 Q1363.56 1577.09 1368.01 1577.09 Q1372.81 1577.09 1376.79 1573.52 Q1380.83 1569.89 1382.06 1562.1 Q1383.41 1554.43 1383.35 1537.27 Q1383.35 1520.59 1382.18 1513.91 Q1380.6 1506.12 1376.38 1503.02 Q1372.23 1499.86 1368.01 1499.86 Q1366.43 1499.86 1364.73 1500.33 Q1363.09 1500.79 1360.69 1502.14 Q1358.29 1503.49 1356.42 1506.83 Q1354.6 1510.16 1353.72 1515.2 Q1352.78 1521.7 1352.78 1537.27 Z" fill="#000000" fill-rule="nonzero" fill-opacity="1"></path><path clip-path="url(#clip380)" d="M1461.03 1492.42 Q1461.52 1492.91 1461.52 1493.61 Q1461.52 1494.3 1461.03 1494.79 Q1460.54 1495.29 1459.84 1495.29 L1407.3 1495.29 Q1406.6 1495.29 1406.11 1494.79 Q1405.61 1494.3 1405.61 1493.61 Q1405.61 1492.91 1406.11 1492.42 Q1406.6 1491.93 1407.3 1491.93 L1459.84 1491.93 Q1460.54 1491.93 1461.03 1492.42 Z" fill="#000000" fill-rule="nonzero" fill-opacity="1"></path><path clip-path="url(#clip380)" d="M1470.29 1514.59 Q1470.29 1513.08 1470.41 1512.62 Q1470.58 1512.17 1471.23 1511.48 L1487.34 1493.52 Q1496.15 1483.6 1496.15 1474.96 Q1496.15 1469.34 1493.2 1465.32 Q1490.29 1461.31 1484.92 1461.31 Q1481.23 1461.31 1478.12 1463.56 Q1475 1465.81 1473.57 1469.83 Q1473.81 1469.75 1474.67 1469.75 Q1476.77 1469.75 1477.91 1471.06 Q1479.1 1472.37 1479.1 1474.14 Q1479.1 1476.39 1477.63 1477.5 Q1476.19 1478.56 1474.76 1478.56 Q1474.18 1478.56 1473.4 1478.44 Q1472.67 1478.32 1471.48 1477.17 Q1470.29 1475.98 1470.29 1473.89 Q1470.29 1468.03 1474.72 1463.36 Q1479.18 1458.68 1485.99 1458.68 Q1493.69 1458.68 1498.74 1463.27 Q1503.82 1467.82 1503.82 1474.96 Q1503.82 1477.46 1503.04 1479.75 Q1502.3 1482.01 1501.28 1483.77 Q1500.29 1485.53 1497.59 1488.36 Q1494.88 1491.19 1492.71 1493.2 Q1490.54 1495.2 1485.66 1499.47 L1476.77 1508.12 L1491.89 1508.12 Q1499.27 1508.12 1499.84 1507.46 Q1500.66 1506.27 1501.69 1500 L1503.82 1500 L1501.44 1514.59 L1470.29 1514.59 Z" fill="#000000" fill-rule="nonzero" fill-opacity="1"></path><path clip-path="url(#clip380)" d="M1537.46 1578.81 Q1537.46 1578.21 1539.01 1576.73 Q1558.61 1556.77 1558.61 1519.17 Q1558.61 1481.46 1539.78 1462.39 Q1537.46 1460.19 1537.46 1459.54 Q1537.46 1458.35 1538.65 1458.35 Q1539.48 1458.35 1542.39 1460.79 Q1545.36 1463.22 1549.82 1468.8 Q1554.33 1474.39 1557.66 1481.22 Q1565.68 1497.79 1565.68 1519.17 Q1565.68 1539.72 1558.01 1556.3 Q1554.75 1563.25 1550.17 1569.07 Q1545.6 1574.89 1542.57 1577.44 Q1539.54 1580 1538.65 1580 Q1537.46 1580 1537.46 1578.81 Z" fill="#000000" fill-rule="nonzero" fill-opacity="1"></path><polyline clip-path="url(#clip380)" style="stroke:#000000; stroke-linecap:round; stroke-linejoin:round; stroke-width:4; stroke-opacity:1; fill:none" points="290.601,1328.42 290.601,47.2441 "></polyline>
<polyline clip-path="url(#clip380)" style="stroke:#000000; stroke-linecap:round; stroke-linejoin:round; stroke-width:4; stroke-opacity:1; fill:none" points="2257.66,1328.42 2257.66,47.2441 "></polyline>
<polyline clip-path="url(#clip380)" style="stroke:#000000; stroke-linecap:round; stroke-linejoin:round; stroke-width:4; stroke-opacity:1; fill:none" points="290.601,1292.16 305.699,1292.16 "></polyline>
<polyline clip-path="url(#clip380)" style="stroke:#000000; stroke-linecap:round; stroke-linejoin:round; stroke-width:4; stroke-opacity:1; fill:none" points="290.601,950.422 305.699,950.422 "></polyline>
<polyline clip-path="url(#clip380)" style="stroke:#000000; stroke-linecap:round; stroke-linejoin:round; stroke-width:4; stroke-opacity:1; fill:none" points="290.601,608.687 305.699,608.687 "></polyline>
<polyline clip-path="url(#clip380)" style="stroke:#000000; stroke-linecap:round; stroke-linejoin:round; stroke-width:4; stroke-opacity:1; fill:none" points="290.601,266.952 305.699,266.952 "></polyline>
<path clip-path="url(#clip380)" d="M208.675 1294.22 Q208.675 1280.28 212.195 1272.68 Q217.105 1261.38 228.684 1261.38 Q231.139 1261.38 233.687 1262.07 Q236.281 1262.72 239.523 1265.27 Q242.812 1267.82 244.803 1271.98 Q248.601 1280.04 248.601 1294.22 Q248.601 1308.07 245.081 1315.62 Q239.94 1326.64 228.592 1326.64 Q224.33 1326.64 219.976 1324.46 Q215.669 1322.29 212.936 1317.05 Q208.675 1309.22 208.675 1294.22 M216.549 1293.06 Q216.549 1307.37 217.568 1313.07 Q218.726 1319.23 221.875 1321.92 Q225.071 1324.56 228.592 1324.56 Q232.39 1324.56 235.539 1321.73 Q238.735 1318.86 239.708 1312.7 Q240.773 1306.63 240.727 1293.06 Q240.727 1279.86 239.801 1274.58 Q238.55 1268.42 235.215 1265.96 Q231.927 1263.46 228.592 1263.46 Q227.341 1263.46 225.998 1263.83 Q224.701 1264.2 222.802 1265.27 Q220.903 1266.33 219.421 1268.97 Q217.985 1271.61 217.29 1275.6 Q216.549 1280.74 216.549 1293.06 Z" fill="#000000" fill-rule="nonzero" fill-opacity="1"></path><path clip-path="url(#clip380)" d="M217.29 928.675 L217.29 925.71 Q228.684 925.71 234.567 919.643 Q236.188 919.643 236.466 920.013 Q236.744 920.384 236.744 922.098 L236.744 975.318 Q236.744 978.143 238.133 979.023 Q239.523 979.903 245.591 979.903 L248.601 979.903 L248.601 982.822 Q245.266 982.544 233.224 982.544 Q221.181 982.544 217.892 982.822 L217.892 979.903 L220.903 979.903 Q226.878 979.903 228.314 979.07 Q229.75 978.19 229.75 975.318 L229.75 926.174 Q224.794 928.675 217.29 928.675 Z" fill="#000000" fill-rule="nonzero" fill-opacity="1"></path><path clip-path="url(#clip380)" d="M210.713 641.087 Q210.713 639.373 210.852 638.864 Q211.037 638.354 211.778 637.567 L229.981 617.279 Q239.94 606.07 239.94 596.297 Q239.94 589.951 236.605 585.412 Q233.316 580.872 227.248 580.872 Q223.08 580.872 219.559 583.42 Q216.039 585.967 214.418 590.507 Q214.696 590.414 215.669 590.414 Q218.031 590.414 219.328 591.896 Q220.671 593.378 220.671 595.37 Q220.671 597.918 219.004 599.168 Q217.382 600.373 215.761 600.373 Q215.113 600.373 214.233 600.234 Q213.399 600.095 212.056 598.798 Q210.713 597.455 210.713 595.092 Q210.713 588.469 215.715 583.188 Q220.764 577.908 228.453 577.908 Q237.161 577.908 242.858 583.096 Q248.601 588.237 248.601 596.297 Q248.601 599.122 247.721 601.716 Q246.888 604.263 245.73 606.255 Q244.618 608.247 241.561 611.443 Q238.504 614.639 236.049 616.908 Q233.594 619.178 228.082 623.995 L218.031 633.768 L235.123 633.768 Q243.46 633.768 244.108 633.027 Q245.035 631.684 246.193 624.597 L248.601 624.597 L245.915 641.087 L210.713 641.087 Z" fill="#000000" fill-rule="nonzero" fill-opacity="1"></path><path clip-path="url(#clip380)" d="M209.23 286.568 Q209.23 283.743 210.852 282.4 Q212.473 281.056 214.557 281.056 Q216.734 281.056 218.263 282.492 Q219.837 283.882 219.837 286.337 Q219.837 288.977 217.985 290.459 Q216.178 291.941 213.584 291.571 Q215.854 295.369 220.023 297.083 Q224.238 298.796 228.128 298.796 Q232.205 298.796 235.493 295.276 Q238.828 291.756 238.828 283.141 Q238.828 275.822 235.956 271.607 Q233.131 267.392 227.526 267.392 L223.358 267.392 Q221.922 267.392 221.505 267.253 Q221.088 267.114 221.088 266.327 Q221.088 265.401 222.524 265.215 Q223.96 265.215 226.229 264.937 Q231.741 264.752 234.659 259.981 Q237.3 255.535 237.3 249.189 Q237.3 243.399 234.52 240.991 Q231.788 238.536 228.221 238.536 Q224.886 238.536 221.227 239.925 Q217.568 241.315 215.576 244.418 Q221.459 244.418 221.459 249.189 Q221.459 251.273 220.115 252.663 Q218.818 254.006 216.641 254.006 Q214.557 254.006 213.167 252.709 Q211.778 251.366 211.778 249.096 Q211.778 243.677 216.595 239.925 Q221.459 236.173 228.592 236.173 Q235.632 236.173 240.82 239.879 Q246.054 243.584 246.054 249.282 Q246.054 254.886 242.348 259.472 Q238.643 264.057 232.76 265.956 Q239.986 267.392 244.294 272.302 Q248.601 277.165 248.601 283.141 Q248.601 290.552 242.765 296.017 Q236.929 301.437 228.406 301.437 Q220.532 301.437 214.881 297.175 Q209.23 292.914 209.23 286.568 Z" fill="#000000" fill-rule="nonzero" fill-opacity="1"></path><path clip-path="url(#clip380)" d="M180.731 1105.86 L83.5742 1105.86 Q79.7022 1105.86 79.7022 1103.77 Q79.7022 1101.68 82.81 1101.68 L179.967 1101.68 Q183.839 1101.68 183.839 1103.77 Q183.839 1105.86 180.731 1105.86 Z" fill="#000000" fill-rule="nonzero" fill-opacity="1"></path><path clip-path="url(#clip380)" d="M119.042 1003.79 Q119.569 1003.32 120.096 1003.32 Q120.623 1003.32 122.146 1004.49 Q123.668 1005.61 125.718 1008.01 Q127.767 1010.41 129.7 1013.51 Q131.632 1016.61 132.92 1021.18 Q134.267 1025.75 134.267 1030.55 Q134.267 1039.51 128.353 1044.78 Q122.439 1049.99 113.948 1049.99 Q105.692 1049.99 97.7864 1045.37 Q89.8228 1040.74 84.9041 1033.24 Q79.9268 1025.75 79.9268 1017.84 Q79.9268 1011.58 82.8546 1007.66 Q85.7824 1003.73 90.2327 1003.73 Q93.6875 1003.73 95.7955 1005.72 Q97.9036 1007.71 97.9036 1010.41 Q97.9036 1012.28 96.8495 1013.57 Q95.737 1014.86 93.6875 1014.86 Q91.0525 1014.86 89.003 1012.69 Q88.1832 1011.87 87.8319 1010.93 Q87.422 1009.94 87.422 1009.35 Q87.3635 1008.77 87.3635 1007.42 Q85.0798 1008.65 83.8501 1011.58 Q82.5619 1014.45 82.5619 1017.73 Q82.5619 1022.59 85.9581 1027.21 Q89.2958 1031.84 94.5659 1034.65 Q99.7188 1037.46 107.038 1039.28 Q114.299 1041.09 118.515 1041.09 Q124.312 1041.09 127.943 1038.4 Q131.573 1035.7 131.573 1030.32 Q131.573 1029.26 131.515 1028.15 Q131.456 1026.98 130.812 1024.05 Q130.168 1021.07 129.055 1018.43 Q127.943 1015.8 125.542 1012.46 Q123.083 1009.06 119.745 1006.37 Q118.515 1005.43 118.515 1004.79 Q118.515 1004.26 119.042 1003.79 Z" fill="#000000" fill-rule="nonzero" fill-opacity="1"></path><path clip-path="url(#clip380)" d="M143.787 947.122 Q149.772 947.122 155.551 950.156 Q161.331 953.148 164.897 957.862 Q168.422 962.575 168.422 967.371 Q168.422 970.24 166.864 972.167 Q165.266 974.052 163.011 975.077 Q165.798 975.856 172.48 977.536 Q179.161 979.217 179.817 979.217 Q180.186 979.217 180.35 979.135 Q180.514 979.053 180.718 978.684 Q180.964 978.315 181.046 977.413 Q181.169 976.512 181.169 974.995 Q181.169 974.216 181.169 973.929 Q181.21 973.601 181.415 973.314 Q181.62 972.987 182.071 972.987 Q183.752 972.987 183.752 974.503 Q183.752 975.856 183.629 978.643 Q183.506 981.43 183.506 982.824 Q183.506 984.013 183.629 986.39 Q183.752 988.767 183.752 989.874 Q183.752 990.981 182.768 990.981 Q182.194 990.981 181.825 990.817 Q181.497 990.694 181.333 990.366 Q181.21 990.038 181.169 989.751 Q181.169 989.505 181.169 989.013 Q181.169 987.128 180.841 986.308 Q180.555 985.488 179.94 985.201 Q179.366 984.873 177.726 984.505 L140.344 975.077 Q137.844 974.503 136.081 974.503 Q133.868 974.503 133.048 975.2 Q132.228 975.897 132.228 977.126 Q132.228 979.258 134.77 980.652 Q137.311 982.045 142.23 983.234 Q143.582 983.603 143.869 983.849 Q144.156 984.054 144.156 984.668 Q144.115 985.693 143.295 985.693 Q143.09 985.693 141.779 985.365 Q140.426 985.037 138.459 984.423 Q136.45 983.767 135.179 983.07 Q134.319 982.66 133.745 982.291 Q133.171 981.922 132.269 981.184 Q131.367 980.406 130.876 979.299 Q130.384 978.192 130.384 976.84 Q130.384 974.216 131.941 972.044 Q133.499 969.871 136.655 969.298 Q133.909 966.961 132.146 964.092 Q130.384 961.223 130.384 958.312 Q130.384 953.476 134.155 950.319 Q137.885 947.122 143.787 947.122 M140.098 953.189 Q136.368 953.189 134.319 954.623 Q132.228 956.017 132.228 958.558 Q132.228 961.715 135.425 965.363 Q138.459 968.97 141.287 969.707 L157.724 973.847 L159.076 974.093 Q159.322 974.093 160.06 973.97 Q160.757 973.806 161.904 973.355 Q163.052 972.864 164.077 972.208 Q165.061 971.511 165.798 970.281 Q166.536 969.011 166.536 967.453 Q166.536 964.953 164.323 962.247 Q162.109 959.501 157.928 957.452 Q155.223 956.181 149.403 954.705 Q143.541 953.189 140.098 953.189 Z" fill="#000000" fill-rule="nonzero" fill-opacity="1"></path><path clip-path="url(#clip380)" d="M119.562 939.084 L116.939 939.084 Q116.939 929 111.57 923.795 Q111.57 922.36 111.898 922.114 Q112.225 921.868 113.742 921.868 L160.839 921.868 Q163.339 921.868 164.118 920.639 Q164.897 919.409 164.897 914.039 L164.897 911.375 L167.479 911.375 Q167.233 914.326 167.233 924.983 Q167.233 935.641 167.479 938.551 L164.897 938.551 L164.897 935.887 Q164.897 930.599 164.159 929.328 Q163.38 928.058 160.839 928.058 L117.349 928.058 Q119.562 932.444 119.562 939.084 Z" fill="#000000" fill-rule="nonzero" fill-opacity="1"></path><path clip-path="url(#clip380)" d="M180.731 871.91 L83.5742 871.91 Q79.7022 871.91 79.7022 869.822 Q79.7022 867.733 82.81 867.733 L179.967 867.733 Q183.839 867.733 183.839 869.822 Q183.839 871.91 180.731 871.91 Z" fill="#000000" fill-rule="nonzero" fill-opacity="1"></path><path clip-path="url(#clip380)" d="M74.6723 733.785 Q54.0096 733.785 37.3481 726.081 Q30.361 722.796 24.5086 718.198 Q18.6561 713.6 16.0882 710.554 Q13.5203 707.508 13.5203 706.672 Q13.5203 705.478 14.7147 705.418 Q15.3119 705.418 16.8048 707.031 Q36.8703 726.738 74.6723 726.678 Q112.594 726.678 131.883 707.508 Q133.973 705.418 134.63 705.418 Q135.824 705.418 135.824 706.672 Q135.824 707.508 133.376 710.435 Q130.927 713.361 125.314 717.899 Q119.7 722.438 112.833 725.723 Q96.171 733.785 74.6723 733.785 Z" fill="#000000" fill-rule="nonzero" fill-opacity="1"></path><path clip-path="url(#clip380)" d="M131.105 616.93 Q131.808 617.515 131.808 618.569 Q131.808 619.565 131.105 620.267 L106.277 645.095 L131.105 669.923 Q131.808 670.626 131.808 671.68 Q131.808 672.675 131.105 673.319 Q130.461 674.022 129.465 674.022 Q128.47 674.022 127.767 673.319 L102.939 648.491 L78.1116 673.319 Q77.4089 674.022 76.4135 674.022 Q75.3595 674.022 74.7739 673.319 Q74.0712 672.675 74.0712 671.68 Q74.0712 670.626 74.7739 669.923 L99.6017 645.095 L74.7739 620.267 Q74.0712 619.565 74.0712 618.569 Q74.0712 617.515 74.7739 616.93 Q75.3595 616.227 76.4135 616.227 Q77.4089 616.227 78.1116 616.93 L102.939 641.757 L127.767 616.93 Q128.47 616.227 129.524 616.227 Q130.519 616.227 131.105 616.93 Z" fill="#000000" fill-rule="nonzero" fill-opacity="1"></path><path clip-path="url(#clip380)" d="M64.468 570.786 L60.7204 570.786 Q60.7204 556.381 53.0496 548.945 Q53.0496 546.895 53.518 546.544 Q53.9865 546.193 56.153 546.193 L123.434 546.193 Q127.006 546.193 128.119 544.436 Q129.231 542.679 129.231 535.008 L129.231 531.202 L132.92 531.202 Q132.569 535.418 132.569 550.643 Q132.569 565.868 132.92 570.025 L129.231 570.025 L129.231 566.219 Q129.231 558.665 128.177 556.85 Q127.064 555.035 123.434 555.035 L61.306 555.035 Q64.468 561.3 64.468 570.786 Z" fill="#000000" fill-rule="nonzero" fill-opacity="1"></path><path clip-path="url(#clip380)" d="M94.5659 511.396 Q76.9405 511.396 67.3373 506.945 Q53.0496 500.738 53.0496 486.099 Q53.0496 482.996 53.9279 479.775 Q54.7477 476.496 57.9683 472.397 Q61.1889 468.24 66.4589 465.722 Q76.6477 460.92 94.5659 460.92 Q112.074 460.92 121.619 465.37 Q135.555 471.87 135.555 486.216 Q135.555 491.604 132.803 497.108 Q130.051 502.554 123.434 506.008 Q113.538 511.396 94.5659 511.396 M93.102 501.441 Q111.196 501.441 118.398 500.153 Q126.186 498.689 129.582 494.707 Q132.92 490.667 132.92 486.216 Q132.92 481.415 129.348 477.433 Q125.718 473.393 117.93 472.163 Q110.259 470.816 93.102 470.875 Q76.4135 470.875 69.7381 472.046 Q61.9501 473.627 58.8466 477.843 Q55.6846 482 55.6846 486.216 Q55.6846 487.797 56.153 489.496 Q56.6215 491.135 57.9683 493.536 Q59.3151 495.937 62.6528 497.811 Q65.9905 499.626 71.0263 500.504 Q77.526 501.441 93.102 501.441 Z" fill="#000000" fill-rule="nonzero" fill-opacity="1"></path><path clip-path="url(#clip380)" d="M48.5238 393.194 Q49.0157 392.702 49.7125 392.702 Q50.4093 392.702 50.9012 393.194 Q51.3931 393.686 51.3931 394.382 L51.3931 446.931 Q51.3931 447.627 50.9012 448.119 Q50.4093 448.611 49.7125 448.611 Q49.0157 448.611 48.5238 448.119 Q48.032 447.627 48.032 446.931 L48.032 394.382 Q48.032 393.686 48.5238 393.194 Z" fill="#000000" fill-rule="nonzero" fill-opacity="1"></path><path clip-path="url(#clip380)" d="M56.8447 383.937 L54.2623 383.937 L14.8716 358.155 Q13.8469 357.499 13.8879 356.474 Q13.8879 355.531 14.2568 355.326 Q14.6257 355.121 16.0603 355.121 L54.2623 355.121 L54.2623 346.719 L56.8447 346.719 L56.8447 355.121 L64.1408 355.121 Q66.5591 355.121 67.3379 354.138 Q68.1167 353.113 68.1167 348.768 L68.1167 347.006 L70.699 347.006 Q70.4531 350.449 70.4531 358.401 Q70.4531 366.312 70.699 369.755 L68.1167 369.755 L68.1167 367.992 Q68.1167 363.647 67.3789 362.622 Q66.6001 361.598 64.1408 361.598 L56.8447 361.598 L56.8447 383.937 M54.2623 381.56 L54.2623 361.106 L22.9465 361.106 L54.2623 381.56 Z" fill="#000000" fill-rule="nonzero" fill-opacity="1"></path><path clip-path="url(#clip380)" d="M134.63 316.763 Q134.033 316.763 132.54 315.211 Q112.474 295.504 74.6723 295.504 Q36.7509 295.504 17.5812 314.434 Q15.3716 316.763 14.7147 316.763 Q13.5203 316.763 13.5203 315.569 Q13.5203 314.733 15.9688 311.807 Q18.4172 308.821 24.0308 304.342 Q29.6444 299.803 36.512 296.459 Q53.1735 288.397 74.6723 288.397 Q95.3349 288.397 111.996 296.101 Q118.984 299.385 124.836 303.984 Q130.688 308.582 133.256 311.628 Q135.824 314.673 135.824 315.569 Q135.824 316.763 134.63 316.763 Z" fill="#000000" fill-rule="nonzero" fill-opacity="1"></path><polyline clip-path="url(#clip383)" style="stroke:#e31a1c; stroke-linecap:round; stroke-linejoin:round; stroke-width:16; stroke-opacity:1; fill:none" points="346.273,1292.16 375.729,1272.97 405.184,1253.79 434.64,1234.6 464.096,1215.42 493.552,1196.23 523.007,1177.05 552.463,1157.86 581.919,1138.68 611.375,1119.49 640.83,1100.31 670.286,1081.12 699.742,1061.94 729.198,1042.75 758.653,1023.57 788.109,1004.38 817.565,985.2 847.021,966.015 876.476,946.83 905.932,927.646 935.388,908.461 964.844,889.276 994.299,870.091 1023.76,850.906 1053.21,831.721 1082.67,812.537 1112.12,793.352 1141.58,774.167 1171.03,754.982 1200.49,735.797 1229.95,716.612 1259.4,697.427 1288.86,678.242 1318.31,659.058 1347.77,639.873 1377.22,620.688 1406.68,601.503 1436.14,582.318 1465.59,563.133 1495.05,543.948 1524.5,524.763 1553.96,505.578 1583.41,486.393 1612.87,467.208 1642.33,448.023 1671.78,428.838 1701.24,409.653 1730.69,390.467 1760.15,371.282 1789.6,352.097 1819.06,332.912 1848.52,313.727 1877.97,294.542 1907.43,275.357 1936.88,256.171 1966.34,236.986 1995.8,217.801 2025.25,198.616 2054.71,179.43 2084.16,160.245 2113.62,141.06 2143.07,121.874 2172.53,102.689 2201.99,83.5037 "></polyline>
<polyline clip-path="url(#clip383)" style="stroke:#377db8; stroke-linecap:round; stroke-linejoin:round; stroke-width:16; stroke-opacity:1; fill:none" points="346.273,1292.16 375.729,1278.59 405.184,1265.02 434.64,1251.46 464.096,1237.89 493.552,1224.33 523.007,1210.76 552.463,1197.2 581.919,1183.63 611.375,1170.07 640.83,1156.5 670.286,1142.94 699.742,1129.37 729.198,1115.8 758.653,1102.24 788.109,1088.67 817.565,1075.11 847.021,1061.55 876.476,1047.98 905.932,1034.42 935.388,1020.85 964.844,1007.29 994.299,993.723 1023.76,980.159 1053.21,966.595 1082.67,953.031 1112.12,939.468 1141.58,925.905 1171.03,912.341 1200.49,898.778 1229.95,885.215 1259.4,871.653 1288.86,858.09 1318.31,844.528 1347.77,830.966 1377.22,817.404 1406.68,803.843 1436.14,790.281 1465.59,776.72 1495.05,763.159 1524.5,749.599 1553.96,736.038 1583.41,722.478 1612.87,708.919 1642.33,695.359 1671.78,681.8 1701.24,668.241 1730.69,654.682 1760.15,641.124 1789.6,627.566 1819.06,614.008 1848.52,600.451 1877.97,586.894 1907.43,573.337 1936.88,559.781 1966.34,546.225 1995.8,532.669 2025.25,519.114 2054.71,505.559 2084.16,492.004 2113.62,478.45 2143.07,464.896 2172.53,451.343 2201.99,437.79 "></polyline>
<polyline clip-path="url(#clip383)" style="stroke:#4dae49; stroke-linecap:round; stroke-linejoin:round; stroke-width:16; stroke-opacity:1; fill:none" points="346.273,1292.16 375.729,1292.15 405.184,1292.14 434.64,1292.12 464.096,1292.1 493.552,1292.07 523.007,1292.03 552.463,1291.98 581.919,1291.93 611.375,1291.87 640.83,1291.8 670.286,1291.73 699.742,1291.65 729.198,1291.56 758.653,1291.47 788.109,1291.37 817.565,1291.26 847.021,1291.14 876.476,1291.02 905.932,1290.89 935.388,1290.75 964.844,1290.61 994.299,1290.45 1023.76,1290.3 1053.21,1290.13 1082.67,1289.96 1112.12,1289.78 1141.58,1289.59 1171.03,1289.4 1200.49,1289.2 1229.95,1288.99 1259.4,1288.78 1288.86,1288.56 1318.31,1288.33 1347.77,1288.09 1377.22,1287.85 1406.68,1287.6 1436.14,1287.34 1465.59,1287.08 1495.05,1286.81 1524.5,1286.53 1553.96,1286.25 1583.41,1285.95 1612.87,1285.66 1642.33,1285.35 1671.78,1285.04 1701.24,1284.72 1730.69,1284.39 1760.15,1284.06 1789.6,1283.72 1819.06,1283.37 1848.52,1283.01 1877.97,1282.65 1907.43,1282.28 1936.88,1281.91 1966.34,1281.52 1995.8,1281.13 2025.25,1280.74 2054.71,1280.33 2084.16,1279.92 2113.62,1279.5 2143.07,1279.08 2172.53,1278.65 2201.99,1278.21 "></polyline>
<polyline clip-path="url(#clip383)" style="stroke:#974ea2; stroke-linecap:round; stroke-linejoin:round; stroke-width:16; stroke-opacity:1; fill:none" points="346.273,1292.16 375.729,1292.16 405.184,1292.16 434.64,1292.16 464.096,1292.16 493.552,1292.16 523.007,1292.16 552.463,1292.16 581.919,1292.16 611.375,1292.16 640.83,1292.16 670.286,1292.16 699.742,1292.15 729.198,1292.15 758.653,1292.15 788.109,1292.15 817.565,1292.15 847.021,1292.15 876.476,1292.15 905.932,1292.15 935.388,1292.15 964.844,1292.15 994.299,1292.15 1023.76,1292.15 1053.21,1292.14 1082.67,1292.14 1112.12,1292.14 1141.58,1292.14 1171.03,1292.14 1200.49,1292.14 1229.95,1292.13 1259.4,1292.13 1288.86,1292.13 1318.31,1292.13 1347.77,1292.12 1377.22,1292.12 1406.68,1292.12 1436.14,1292.11 1465.59,1292.11 1495.05,1292.11 1524.5,1292.1 1553.96,1292.1 1583.41,1292.09 1612.87,1292.09 1642.33,1292.08 1671.78,1292.08 1701.24,1292.07 1730.69,1292.07 1760.15,1292.06 1789.6,1292.06 1819.06,1292.05 1848.52,1292.04 1877.97,1292.04 1907.43,1292.03 1936.88,1292.02 1966.34,1292.01 1995.8,1292.01 2025.25,1292 2054.71,1291.99 2084.16,1291.98 2113.62,1291.97 2143.07,1291.96 2172.53,1291.95 2201.99,1291.94 "></polyline>
<path clip-path="url(#clip383)" d="M346.273 1264.16 L318.273 1292.16 L346.273 1320.16 L374.273 1292.16 L346.273 1264.16 Z" fill="#e31a1c" fill-rule="evenodd" fill-opacity="1" stroke="#000000" stroke-opacity="1" stroke-width="0"></path>
<path clip-path="url(#clip383)" d="M434.64 1206.78 L406.64 1234.78 L434.64 1262.78 L462.64 1234.78 L434.64 1206.78 Z" fill="#e31a1c" fill-rule="evenodd" fill-opacity="1" stroke="#000000" stroke-opacity="1" stroke-width="0"></path>
<path clip-path="url(#clip383)" d="M523.007 1150.48 L495.007 1178.48 L523.007 1206.48 L551.007 1178.48 L523.007 1150.48 Z" fill="#e31a1c" fill-rule="evenodd" fill-opacity="1" stroke="#000000" stroke-opacity="1" stroke-width="0"></path>
<path clip-path="url(#clip383)" d="M611.375 1096.29 L583.375 1124.29 L611.375 1152.29 L639.375 1124.29 L611.375 1096.29 Z" fill="#e31a1c" fill-rule="evenodd" fill-opacity="1" stroke="#000000" stroke-opacity="1" stroke-width="0"></path>
<path clip-path="url(#clip383)" d="M699.742 1045.25 L671.742 1073.25 L699.742 1101.25 L727.742 1073.25 L699.742 1045.25 Z" fill="#e31a1c" fill-rule="evenodd" fill-opacity="1" stroke="#000000" stroke-opacity="1" stroke-width="0"></path>
<path clip-path="url(#clip383)" d="M788.109 998.306 L760.109 1026.31 L788.109 1054.31 L816.109 1026.31 L788.109 998.306 Z" fill="#e31a1c" fill-rule="evenodd" fill-opacity="1" stroke="#000000" stroke-opacity="1" stroke-width="0"></path>
<path clip-path="url(#clip383)" d="M876.476 956.36 L848.476 984.36 L876.476 1012.36 L904.476 984.36 L876.476 956.36 Z" fill="#e31a1c" fill-rule="evenodd" fill-opacity="1" stroke="#000000" stroke-opacity="1" stroke-width="0"></path>
<path clip-path="url(#clip383)" d="M964.844 920.217 L936.844 948.217 L964.844 976.217 L992.844 948.217 L964.844 920.217 Z" fill="#e31a1c" fill-rule="evenodd" fill-opacity="1" stroke="#000000" stroke-opacity="1" stroke-width="0"></path>
<path clip-path="url(#clip383)" d="M1053.21 890.58 L1025.21 918.58 L1053.21 946.58 L1081.21 918.58 L1053.21 890.58 Z" fill="#e31a1c" fill-rule="evenodd" fill-opacity="1" stroke="#000000" stroke-opacity="1" stroke-width="0"></path>
<path clip-path="url(#clip383)" d="M1141.58 868.037 L1113.58 896.037 L1141.58 924.037 L1169.58 896.037 L1141.58 868.037 Z" fill="#e31a1c" fill-rule="evenodd" fill-opacity="1" stroke="#000000" stroke-opacity="1" stroke-width="0"></path>
<path clip-path="url(#clip383)" d="M1229.95 853.04 L1201.95 881.04 L1229.95 909.04 L1257.95 881.04 L1229.95 853.04 Z" fill="#e31a1c" fill-rule="evenodd" fill-opacity="1" stroke="#000000" stroke-opacity="1" stroke-width="0"></path>
<path clip-path="url(#clip383)" d="M1318.31 845.895 L1290.31 873.895 L1318.31 901.895 L1346.31 873.895 L1318.31 845.895 Z" fill="#e31a1c" fill-rule="evenodd" fill-opacity="1" stroke="#000000" stroke-opacity="1" stroke-width="0"></path>
<path clip-path="url(#clip383)" d="M1406.68 846.746 L1378.68 874.746 L1406.68 902.746 L1434.68 874.746 L1406.68 846.746 Z" fill="#e31a1c" fill-rule="evenodd" fill-opacity="1" stroke="#000000" stroke-opacity="1" stroke-width="0"></path>
<path clip-path="url(#clip383)" d="M1495.05 855.558 L1467.05 883.558 L1495.05 911.558 L1523.05 883.558 L1495.05 855.558 Z" fill="#e31a1c" fill-rule="evenodd" fill-opacity="1" stroke="#000000" stroke-opacity="1" stroke-width="0"></path>
<path clip-path="url(#clip383)" d="M1583.41 872.102 L1555.41 900.102 L1583.41 928.102 L1611.41 900.102 L1583.41 872.102 Z" fill="#e31a1c" fill-rule="evenodd" fill-opacity="1" stroke="#000000" stroke-opacity="1" stroke-width="0"></path>
<path clip-path="url(#clip383)" d="M1671.78 895.93 L1643.78 923.93 L1671.78 951.93 L1699.78 923.93 L1671.78 895.93 Z" fill="#e31a1c" fill-rule="evenodd" fill-opacity="1" stroke="#000000" stroke-opacity="1" stroke-width="0"></path>
<path clip-path="url(#clip383)" d="M1760.15 926.333 L1732.15 954.333 L1760.15 982.333 L1788.15 954.333 L1760.15 926.333 Z" fill="#e31a1c" fill-rule="evenodd" fill-opacity="1" stroke="#000000" stroke-opacity="1" stroke-width="0"></path>
<path clip-path="url(#clip383)" d="M1848.52 962.277 L1820.52 990.277 L1848.52 1018.28 L1876.52 990.277 L1848.52 962.277 Z" fill="#e31a1c" fill-rule="evenodd" fill-opacity="1" stroke="#000000" stroke-opacity="1" stroke-width="0"></path>
<path clip-path="url(#clip383)" d="M1936.88 1002.27 L1908.88 1030.27 L1936.88 1058.27 L1964.88 1030.27 L1936.88 1002.27 Z" fill="#e31a1c" fill-rule="evenodd" fill-opacity="1" stroke="#000000" stroke-opacity="1" stroke-width="0"></path>
<path clip-path="url(#clip383)" d="M2025.25 1044.04 L1997.25 1072.04 L2025.25 1100.04 L2053.25 1072.04 L2025.25 1044.04 Z" fill="#e31a1c" fill-rule="evenodd" fill-opacity="1" stroke="#000000" stroke-opacity="1" stroke-width="0"></path>
<path clip-path="url(#clip383)" d="M2113.62 1083.93 L2085.62 1111.93 L2113.62 1139.93 L2141.62 1111.93 L2113.62 1083.93 Z" fill="#e31a1c" fill-rule="evenodd" fill-opacity="1" stroke="#000000" stroke-opacity="1" stroke-width="0"></path>
<path clip-path="url(#clip383)" d="M2201.99 1115.66 L2173.99 1143.66 L2201.99 1171.66 L2229.99 1143.66 L2201.99 1115.66 Z" fill="#e31a1c" fill-rule="evenodd" fill-opacity="1" stroke="#000000" stroke-opacity="1" stroke-width="0"></path>
<path clip-path="url(#clip383)" d="M346.273 1264.16 L318.273 1292.16 L346.273 1320.16 L374.273 1292.16 L346.273 1264.16 Z" fill="#377db8" fill-rule="evenodd" fill-opacity="1" stroke="#000000" stroke-opacity="1" stroke-width="0"></path>
<path clip-path="url(#clip383)" d="M434.64 1223.59 L406.64 1251.59 L434.64 1279.59 L462.64 1251.59 L434.64 1223.59 Z" fill="#377db8" fill-rule="evenodd" fill-opacity="1" stroke="#000000" stroke-opacity="1" stroke-width="0"></path>
<path clip-path="url(#clip383)" d="M523.007 1183.77 L495.007 1211.77 L523.007 1239.77 L551.007 1211.77 L523.007 1183.77 Z" fill="#377db8" fill-rule="evenodd" fill-opacity="1" stroke="#000000" stroke-opacity="1" stroke-width="0"></path>
<path clip-path="url(#clip383)" d="M611.375 1145.46 L583.375 1173.46 L611.375 1201.46 L639.375 1173.46 L611.375 1145.46 Z" fill="#377db8" fill-rule="evenodd" fill-opacity="1" stroke="#000000" stroke-opacity="1" stroke-width="0"></path>
<path clip-path="url(#clip383)" d="M699.742 1109.37 L671.742 1137.37 L699.742 1165.37 L727.742 1137.37 L699.742 1109.37 Z" fill="#377db8" fill-rule="evenodd" fill-opacity="1" stroke="#000000" stroke-opacity="1" stroke-width="0"></path>
<path clip-path="url(#clip383)" d="M788.109 1076.18 L760.109 1104.18 L788.109 1132.18 L816.109 1104.18 L788.109 1076.18 Z" fill="#377db8" fill-rule="evenodd" fill-opacity="1" stroke="#000000" stroke-opacity="1" stroke-width="0"></path>
<path clip-path="url(#clip383)" d="M876.476 1046.52 L848.476 1074.52 L876.476 1102.52 L904.476 1074.52 L876.476 1046.52 Z" fill="#377db8" fill-rule="evenodd" fill-opacity="1" stroke="#000000" stroke-opacity="1" stroke-width="0"></path>
<path clip-path="url(#clip383)" d="M964.844 1020.97 L936.844 1048.97 L964.844 1076.97 L992.844 1048.97 L964.844 1020.97 Z" fill="#377db8" fill-rule="evenodd" fill-opacity="1" stroke="#000000" stroke-opacity="1" stroke-width="0"></path>
<path clip-path="url(#clip383)" d="M1053.21 1000.02 L1025.21 1028.02 L1053.21 1056.02 L1081.21 1028.02 L1053.21 1000.02 Z" fill="#377db8" fill-rule="evenodd" fill-opacity="1" stroke="#000000" stroke-opacity="1" stroke-width="0"></path>
<path clip-path="url(#clip383)" d="M1141.58 984.096 L1113.58 1012.1 L1141.58 1040.1 L1169.58 1012.1 L1141.58 984.096 Z" fill="#377db8" fill-rule="evenodd" fill-opacity="1" stroke="#000000" stroke-opacity="1" stroke-width="0"></path>
<path clip-path="url(#clip383)" d="M1229.95 973.511 L1201.95 1001.51 L1229.95 1029.51 L1257.95 1001.51 L1229.95 973.511 Z" fill="#377db8" fill-rule="evenodd" fill-opacity="1" stroke="#000000" stroke-opacity="1" stroke-width="0"></path>
<path clip-path="url(#clip383)" d="M1318.31 968.485 L1290.31 996.485 L1318.31 1024.48 L1346.31 996.485 L1318.31 968.485 Z" fill="#377db8" fill-rule="evenodd" fill-opacity="1" stroke="#000000" stroke-opacity="1" stroke-width="0"></path>
<path clip-path="url(#clip383)" d="M1406.68 969.12 L1378.68 997.12 L1406.68 1025.12 L1434.68 997.12 L1406.68 969.12 Z" fill="#377db8" fill-rule="evenodd" fill-opacity="1" stroke="#000000" stroke-opacity="1" stroke-width="0"></path>
<path clip-path="url(#clip383)" d="M1495.05 975.393 L1467.05 1003.39 L1495.05 1031.39 L1523.05 1003.39 L1495.05 975.393 Z" fill="#377db8" fill-rule="evenodd" fill-opacity="1" stroke="#000000" stroke-opacity="1" stroke-width="0"></path>
<path clip-path="url(#clip383)" d="M1583.41 987.142 L1555.41 1015.14 L1583.41 1043.14 L1611.41 1015.14 L1583.41 987.142 Z" fill="#377db8" fill-rule="evenodd" fill-opacity="1" stroke="#000000" stroke-opacity="1" stroke-width="0"></path>
<path clip-path="url(#clip383)" d="M1671.78 1004.05 L1643.78 1032.05 L1671.78 1060.05 L1699.78 1032.05 L1671.78 1004.05 Z" fill="#377db8" fill-rule="evenodd" fill-opacity="1" stroke="#000000" stroke-opacity="1" stroke-width="0"></path>
<path clip-path="url(#clip383)" d="M1760.15 1025.63 L1732.15 1053.63 L1760.15 1081.63 L1788.15 1053.63 L1760.15 1025.63 Z" fill="#377db8" fill-rule="evenodd" fill-opacity="1" stroke="#000000" stroke-opacity="1" stroke-width="0"></path>
<path clip-path="url(#clip383)" d="M1848.52 1051.14 L1820.52 1079.14 L1848.52 1107.14 L1876.52 1079.14 L1848.52 1051.14 Z" fill="#377db8" fill-rule="evenodd" fill-opacity="1" stroke="#000000" stroke-opacity="1" stroke-width="0"></path>
<path clip-path="url(#clip383)" d="M1936.88 1079.56 L1908.88 1107.56 L1936.88 1135.56 L1964.88 1107.56 L1936.88 1079.56 Z" fill="#377db8" fill-rule="evenodd" fill-opacity="1" stroke="#000000" stroke-opacity="1" stroke-width="0"></path>
<path clip-path="url(#clip383)" d="M2025.25 1109.3 L1997.25 1137.3 L2025.25 1165.3 L2053.25 1137.3 L2025.25 1109.3 Z" fill="#377db8" fill-rule="evenodd" fill-opacity="1" stroke="#000000" stroke-opacity="1" stroke-width="0"></path>
<path clip-path="url(#clip383)" d="M2113.62 1137.82 L2085.62 1165.82 L2113.62 1193.82 L2141.62 1165.82 L2113.62 1137.82 Z" fill="#377db8" fill-rule="evenodd" fill-opacity="1" stroke="#000000" stroke-opacity="1" stroke-width="0"></path>
<path clip-path="url(#clip383)" d="M2201.99 1160.75 L2173.99 1188.75 L2201.99 1216.75 L2229.99 1188.75 L2201.99 1160.75 Z" fill="#377db8" fill-rule="evenodd" fill-opacity="1" stroke="#000000" stroke-opacity="1" stroke-width="0"></path>
<path clip-path="url(#clip383)" d="M346.273 1264.16 L318.273 1292.16 L346.273 1320.16 L374.273 1292.16 L346.273 1264.16 Z" fill="#4dae49" fill-rule="evenodd" fill-opacity="1" stroke="#000000" stroke-opacity="1" stroke-width="0"></path>
<path clip-path="url(#clip383)" d="M434.64 1262.52 L406.64 1290.52 L434.64 1318.52 L462.64 1290.52 L434.64 1262.52 Z" fill="#4dae49" fill-rule="evenodd" fill-opacity="1" stroke="#000000" stroke-opacity="1" stroke-width="0"></path>
<path clip-path="url(#clip383)" d="M523.007 1257.67 L495.007 1285.67 L523.007 1313.67 L551.007 1285.67 L523.007 1257.67 Z" fill="#4dae49" fill-rule="evenodd" fill-opacity="1" stroke="#000000" stroke-opacity="1" stroke-width="0"></path>
<path clip-path="url(#clip383)" d="M611.375 1249.69 L583.375 1277.69 L611.375 1305.69 L639.375 1277.69 L611.375 1249.69 Z" fill="#4dae49" fill-rule="evenodd" fill-opacity="1" stroke="#000000" stroke-opacity="1" stroke-width="0"></path>
<path clip-path="url(#clip383)" d="M699.742 1238.77 L671.742 1266.77 L699.742 1294.77 L727.742 1266.77 L699.742 1238.77 Z" fill="#4dae49" fill-rule="evenodd" fill-opacity="1" stroke="#000000" stroke-opacity="1" stroke-width="0"></path>
<path clip-path="url(#clip383)" d="M788.109 1225.17 L760.109 1253.17 L788.109 1281.17 L816.109 1253.17 L788.109 1225.17 Z" fill="#4dae49" fill-rule="evenodd" fill-opacity="1" stroke="#000000" stroke-opacity="1" stroke-width="0"></path>
<path clip-path="url(#clip383)" d="M876.476 1209.19 L848.476 1237.19 L876.476 1265.19 L904.476 1237.19 L876.476 1209.19 Z" fill="#4dae49" fill-rule="evenodd" fill-opacity="1" stroke="#000000" stroke-opacity="1" stroke-width="0"></path>
<path clip-path="url(#clip383)" d="M964.844 1191.21 L936.844 1219.21 L964.844 1247.21 L992.844 1219.21 L964.844 1191.21 Z" fill="#4dae49" fill-rule="evenodd" fill-opacity="1" stroke="#000000" stroke-opacity="1" stroke-width="0"></path>
<path clip-path="url(#clip383)" d="M1053.21 1171.65 L1025.21 1199.65 L1053.21 1227.65 L1081.21 1199.65 L1053.21 1171.65 Z" fill="#4dae49" fill-rule="evenodd" fill-opacity="1" stroke="#000000" stroke-opacity="1" stroke-width="0"></path>
<path clip-path="url(#clip383)" d="M1141.58 1151 L1113.58 1179 L1141.58 1207 L1169.58 1179 L1141.58 1151 Z" fill="#4dae49" fill-rule="evenodd" fill-opacity="1" stroke="#000000" stroke-opacity="1" stroke-width="0"></path>
<path clip-path="url(#clip383)" d="M1229.95 1129.76 L1201.95 1157.76 L1229.95 1185.76 L1257.95 1157.76 L1229.95 1129.76 Z" fill="#4dae49" fill-rule="evenodd" fill-opacity="1" stroke="#000000" stroke-opacity="1" stroke-width="0"></path>
<path clip-path="url(#clip383)" d="M1318.31 1108.49 L1290.31 1136.49 L1318.31 1164.49 L1346.31 1136.49 L1318.31 1108.49 Z" fill="#4dae49" fill-rule="evenodd" fill-opacity="1" stroke="#000000" stroke-opacity="1" stroke-width="0"></path>
<path clip-path="url(#clip383)" d="M1406.68 1087.76 L1378.68 1115.76 L1406.68 1143.76 L1434.68 1115.76 L1406.68 1087.76 Z" fill="#4dae49" fill-rule="evenodd" fill-opacity="1" stroke="#000000" stroke-opacity="1" stroke-width="0"></path>
<path clip-path="url(#clip383)" d="M1495.05 1068.15 L1467.05 1096.15 L1495.05 1124.15 L1523.05 1096.15 L1495.05 1068.15 Z" fill="#4dae49" fill-rule="evenodd" fill-opacity="1" stroke="#000000" stroke-opacity="1" stroke-width="0"></path>
<path clip-path="url(#clip383)" d="M1583.41 1050.25 L1555.41 1078.25 L1583.41 1106.25 L1611.41 1078.25 L1583.41 1050.25 Z" fill="#4dae49" fill-rule="evenodd" fill-opacity="1" stroke="#000000" stroke-opacity="1" stroke-width="0"></path>
<path clip-path="url(#clip383)" d="M1671.78 1034.63 L1643.78 1062.63 L1671.78 1090.63 L1699.78 1062.63 L1671.78 1034.63 Z" fill="#4dae49" fill-rule="evenodd" fill-opacity="1" stroke="#000000" stroke-opacity="1" stroke-width="0"></path>
<path clip-path="url(#clip383)" d="M1760.15 1021.86 L1732.15 1049.86 L1760.15 1077.86 L1788.15 1049.86 L1760.15 1021.86 Z" fill="#4dae49" fill-rule="evenodd" fill-opacity="1" stroke="#000000" stroke-opacity="1" stroke-width="0"></path>
<path clip-path="url(#clip383)" d="M1848.52 1012.43 L1820.52 1040.43 L1848.52 1068.43 L1876.52 1040.43 L1848.52 1012.43 Z" fill="#4dae49" fill-rule="evenodd" fill-opacity="1" stroke="#000000" stroke-opacity="1" stroke-width="0"></path>
<path clip-path="url(#clip383)" d="M1936.88 1006.83 L1908.88 1034.83 L1936.88 1062.83 L1964.88 1034.83 L1936.88 1006.83 Z" fill="#4dae49" fill-rule="evenodd" fill-opacity="1" stroke="#000000" stroke-opacity="1" stroke-width="0"></path>
<path clip-path="url(#clip383)" d="M2025.25 1005.46 L1997.25 1033.46 L2025.25 1061.46 L2053.25 1033.46 L2025.25 1005.46 Z" fill="#4dae49" fill-rule="evenodd" fill-opacity="1" stroke="#000000" stroke-opacity="1" stroke-width="0"></path>
<path clip-path="url(#clip383)" d="M2113.62 1008.64 L2085.62 1036.64 L2113.62 1064.64 L2141.62 1036.64 L2113.62 1008.64 Z" fill="#4dae49" fill-rule="evenodd" fill-opacity="1" stroke="#000000" stroke-opacity="1" stroke-width="0"></path>
<path clip-path="url(#clip383)" d="M2201.99 1016.6 L2173.99 1044.6 L2201.99 1072.6 L2229.99 1044.6 L2201.99 1016.6 Z" fill="#4dae49" fill-rule="evenodd" fill-opacity="1" stroke="#000000" stroke-opacity="1" stroke-width="0"></path>
<path clip-path="url(#clip383)" d="M346.273 1264.16 L318.273 1292.16 L346.273 1320.16 L374.273 1292.16 L346.273 1264.16 Z" fill="#974ea2" fill-rule="evenodd" fill-opacity="1" stroke="#000000" stroke-opacity="1" stroke-width="0"></path>
<path clip-path="url(#clip383)" d="M434.64 1263.92 L406.64 1291.92 L434.64 1319.92 L462.64 1291.92 L434.64 1263.92 Z" fill="#974ea2" fill-rule="evenodd" fill-opacity="1" stroke="#000000" stroke-opacity="1" stroke-width="0"></path>
<path clip-path="url(#clip383)" d="M523.007 1263.22 L495.007 1291.22 L523.007 1319.22 L551.007 1291.22 L523.007 1263.22 Z" fill="#974ea2" fill-rule="evenodd" fill-opacity="1" stroke="#000000" stroke-opacity="1" stroke-width="0"></path>
<path clip-path="url(#clip383)" d="M611.375 1262.04 L583.375 1290.04 L611.375 1318.04 L639.375 1290.04 L611.375 1262.04 Z" fill="#974ea2" fill-rule="evenodd" fill-opacity="1" stroke="#000000" stroke-opacity="1" stroke-width="0"></path>
<path clip-path="url(#clip383)" d="M699.742 1260.35 L671.742 1288.35 L699.742 1316.35 L727.742 1288.35 L699.742 1260.35 Z" fill="#974ea2" fill-rule="evenodd" fill-opacity="1" stroke="#000000" stroke-opacity="1" stroke-width="0"></path>
<path clip-path="url(#clip383)" d="M788.109 1258.14 L760.109 1286.14 L788.109 1314.14 L816.109 1286.14 L788.109 1258.14 Z" fill="#974ea2" fill-rule="evenodd" fill-opacity="1" stroke="#000000" stroke-opacity="1" stroke-width="0"></path>
<path clip-path="url(#clip383)" d="M876.476 1255.36 L848.476 1283.36 L876.476 1311.36 L904.476 1283.36 L876.476 1255.36 Z" fill="#974ea2" fill-rule="evenodd" fill-opacity="1" stroke="#000000" stroke-opacity="1" stroke-width="0"></path>
<path clip-path="url(#clip383)" d="M964.844 1252.01 L936.844 1280.01 L964.844 1308.01 L992.844 1280.01 L964.844 1252.01 Z" fill="#974ea2" fill-rule="evenodd" fill-opacity="1" stroke="#000000" stroke-opacity="1" stroke-width="0"></path>
<path clip-path="url(#clip383)" d="M1053.21 1248.06 L1025.21 1276.06 L1053.21 1304.06 L1081.21 1276.06 L1053.21 1248.06 Z" fill="#974ea2" fill-rule="evenodd" fill-opacity="1" stroke="#000000" stroke-opacity="1" stroke-width="0"></path>
<path clip-path="url(#clip383)" d="M1141.58 1243.5 L1113.58 1271.5 L1141.58 1299.5 L1169.58 1271.5 L1141.58 1243.5 Z" fill="#974ea2" fill-rule="evenodd" fill-opacity="1" stroke="#000000" stroke-opacity="1" stroke-width="0"></path>
<path clip-path="url(#clip383)" d="M1229.95 1238.34 L1201.95 1266.34 L1229.95 1294.34 L1257.95 1266.34 L1229.95 1238.34 Z" fill="#974ea2" fill-rule="evenodd" fill-opacity="1" stroke="#000000" stroke-opacity="1" stroke-width="0"></path>
<path clip-path="url(#clip383)" d="M1318.31 1232.61 L1290.31 1260.61 L1318.31 1288.61 L1346.31 1260.61 L1318.31 1232.61 Z" fill="#974ea2" fill-rule="evenodd" fill-opacity="1" stroke="#000000" stroke-opacity="1" stroke-width="0"></path>
<path clip-path="url(#clip383)" d="M1406.68 1226.32 L1378.68 1254.32 L1406.68 1282.32 L1434.68 1254.32 L1406.68 1226.32 Z" fill="#974ea2" fill-rule="evenodd" fill-opacity="1" stroke="#000000" stroke-opacity="1" stroke-width="0"></path>
<path clip-path="url(#clip383)" d="M1495.05 1219.56 L1467.05 1247.56 L1495.05 1275.56 L1523.05 1247.56 L1495.05 1219.56 Z" fill="#974ea2" fill-rule="evenodd" fill-opacity="1" stroke="#000000" stroke-opacity="1" stroke-width="0"></path>
<path clip-path="url(#clip383)" d="M1583.41 1212.38 L1555.41 1240.38 L1583.41 1268.38 L1611.41 1240.38 L1583.41 1212.38 Z" fill="#974ea2" fill-rule="evenodd" fill-opacity="1" stroke="#000000" stroke-opacity="1" stroke-width="0"></path>
<path clip-path="url(#clip383)" d="M1671.78 1204.89 L1643.78 1232.89 L1671.78 1260.89 L1699.78 1232.89 L1671.78 1204.89 Z" fill="#974ea2" fill-rule="evenodd" fill-opacity="1" stroke="#000000" stroke-opacity="1" stroke-width="0"></path>
<path clip-path="url(#clip383)" d="M1760.15 1197.2 L1732.15 1225.2 L1760.15 1253.2 L1788.15 1225.2 L1760.15 1197.2 Z" fill="#974ea2" fill-rule="evenodd" fill-opacity="1" stroke="#000000" stroke-opacity="1" stroke-width="0"></path>
<path clip-path="url(#clip383)" d="M1848.52 1189.45 L1820.52 1217.45 L1848.52 1245.45 L1876.52 1217.45 L1848.52 1189.45 Z" fill="#974ea2" fill-rule="evenodd" fill-opacity="1" stroke="#000000" stroke-opacity="1" stroke-width="0"></path>
<path clip-path="url(#clip383)" d="M1936.88 1181.81 L1908.88 1209.81 L1936.88 1237.81 L1964.88 1209.81 L1936.88 1181.81 Z" fill="#974ea2" fill-rule="evenodd" fill-opacity="1" stroke="#000000" stroke-opacity="1" stroke-width="0"></path>
<path clip-path="url(#clip383)" d="M2025.25 1174.44 L1997.25 1202.44 L2025.25 1230.44 L2053.25 1202.44 L2025.25 1174.44 Z" fill="#974ea2" fill-rule="evenodd" fill-opacity="1" stroke="#000000" stroke-opacity="1" stroke-width="0"></path>
<path clip-path="url(#clip383)" d="M2113.62 1167.53 L2085.62 1195.53 L2113.62 1223.53 L2141.62 1195.53 L2113.62 1167.53 Z" fill="#974ea2" fill-rule="evenodd" fill-opacity="1" stroke="#000000" stroke-opacity="1" stroke-width="0"></path>
<path clip-path="url(#clip383)" d="M2201.99 1161.3 L2173.99 1189.3 L2201.99 1217.3 L2229.99 1189.3 L2201.99 1161.3 Z" fill="#974ea2" fill-rule="evenodd" fill-opacity="1" stroke="#000000" stroke-opacity="1" stroke-width="0"></path>
<path clip-path="url(#clip380)" d="M2339.73 886.056 L2752.76 886.056 L2752.76 497.256 L2339.73 497.256  Z" fill="#ffffff" fill-rule="evenodd" fill-opacity="1"></path>
<polyline clip-path="url(#clip380)" style="stroke:#000000; stroke-linecap:round; stroke-linejoin:round; stroke-width:4; stroke-opacity:1; fill:none" points="2339.73,886.056 2752.76,886.056 2752.76,497.256 2339.73,497.256 2339.73,886.056 "></polyline>
<polyline clip-path="url(#clip380)" style="stroke:#e31a1c; stroke-linecap:round; stroke-linejoin:round; stroke-width:24; stroke-opacity:1; fill:none" points="2367.09,575.016 2531.23,575.016 "></polyline>
<path clip-path="url(#clip380)" d="M2596.18 571.525 Q2596.18 576.654 2593.58 581.608 Q2591.02 586.562 2586.97 589.619 Q2582.93 592.64 2578.82 592.64 Q2576.36 592.64 2574.71 591.305 Q2573.1 589.935 2572.22 588.002 Q2571.55 590.392 2570.11 596.118 Q2568.67 601.845 2568.67 602.407 Q2568.67 602.723 2568.74 602.864 Q2568.81 603.005 2569.13 603.18 Q2569.44 603.391 2570.22 603.461 Q2570.99 603.567 2572.29 603.567 Q2572.96 603.567 2573.2 603.567 Q2573.48 603.602 2573.73 603.777 Q2574.01 603.953 2574.01 604.34 Q2574.01 605.78 2572.71 605.78 Q2571.55 605.78 2569.16 605.675 Q2566.77 605.569 2565.58 605.569 Q2564.56 605.569 2562.52 605.675 Q2560.48 605.78 2559.54 605.78 Q2558.59 605.78 2558.59 604.937 Q2558.59 604.445 2558.73 604.129 Q2558.83 603.848 2559.11 603.707 Q2559.39 603.602 2559.64 603.567 Q2559.85 603.567 2560.27 603.567 Q2561.89 603.567 2562.59 603.286 Q2563.29 603.04 2563.54 602.513 Q2563.82 602.021 2564.14 600.615 L2572.22 568.574 Q2572.71 566.43 2572.71 564.92 Q2572.71 563.022 2572.11 562.32 Q2571.52 561.617 2570.46 561.617 Q2568.64 561.617 2567.44 563.795 Q2566.25 565.974 2565.23 570.19 Q2564.91 571.349 2564.7 571.595 Q2564.52 571.841 2564 571.841 Q2563.12 571.806 2563.12 571.103 Q2563.12 570.928 2563.4 569.803 Q2563.68 568.644 2564.21 566.957 Q2564.77 565.236 2565.37 564.147 Q2565.72 563.409 2566.04 562.917 Q2566.35 562.425 2566.98 561.652 Q2567.65 560.879 2568.6 560.458 Q2569.55 560.036 2570.71 560.036 Q2572.96 560.036 2574.82 561.371 Q2576.68 562.706 2577.17 565.412 Q2579.18 563.058 2581.63 561.547 Q2584.09 560.036 2586.59 560.036 Q2590.73 560.036 2593.44 563.268 Q2596.18 566.466 2596.18 571.525 M2590.98 568.363 Q2590.98 565.166 2589.75 563.409 Q2588.56 561.617 2586.38 561.617 Q2583.67 561.617 2580.55 564.358 Q2577.45 566.957 2576.82 569.382 L2573.27 583.47 L2573.06 584.63 Q2573.06 584.84 2573.17 585.473 Q2573.31 586.07 2573.69 587.054 Q2574.12 588.038 2574.68 588.916 Q2575.28 589.759 2576.33 590.392 Q2577.42 591.024 2578.75 591.024 Q2580.9 591.024 2583.22 589.127 Q2585.57 587.23 2587.33 583.646 Q2588.42 581.327 2589.68 576.338 Q2590.98 571.314 2590.98 568.363 Z" fill="#000000" fill-rule="nonzero" fill-opacity="1"></path><path clip-path="url(#clip380)" d="M2614.38 580.905 Q2614.45 580.027 2615.82 580.027 L2659.92 580.027 Q2661.99 580.027 2662.03 580.835 Q2662.03 581.714 2660.06 581.678 L2616.32 581.678 Q2614.38 581.714 2614.38 580.905 M2614.38 566.852 Q2614.38 565.974 2615.89 566.009 L2659.85 566.009 Q2661.99 566.009 2662.03 566.852 Q2662.03 567.66 2660.2 567.66 L2615.82 567.66 Q2614.38 567.66 2614.38 566.852 Z" fill="#000000" fill-rule="nonzero" fill-opacity="1"></path><path clip-path="url(#clip380)" d="M2689.77 568.819 Q2689.77 558.244 2692.44 552.482 Q2696.16 543.91 2704.95 543.91 Q2706.81 543.91 2708.74 544.437 Q2710.71 544.929 2713.17 546.861 Q2715.66 548.793 2717.17 551.955 Q2720.05 558.069 2720.05 568.819 Q2720.05 579.324 2717.38 585.051 Q2713.48 593.413 2704.88 593.413 Q2701.64 593.413 2698.34 591.762 Q2695.07 590.11 2693 586.14 Q2689.77 580.203 2689.77 568.819 M2695.74 567.941 Q2695.74 578.797 2696.52 583.119 Q2697.39 587.792 2699.78 589.829 Q2702.21 591.832 2704.88 591.832 Q2707.76 591.832 2710.15 589.689 Q2712.57 587.511 2713.31 582.838 Q2714.12 578.235 2714.08 567.941 Q2714.08 557.928 2713.38 553.923 Q2712.43 549.25 2709.9 547.388 Q2707.41 545.491 2704.88 545.491 Q2703.93 545.491 2702.91 545.772 Q2701.93 546.053 2700.49 546.861 Q2699.05 547.669 2697.92 549.672 Q2696.83 551.674 2696.3 554.696 Q2695.74 558.596 2695.74 567.941 Z" fill="#000000" fill-rule="nonzero" fill-opacity="1"></path><polyline clip-path="url(#clip380)" style="stroke:#377db8; stroke-linecap:round; stroke-linejoin:round; stroke-width:24; stroke-opacity:1; fill:none" points="2367.09,652.776 2531.23,652.776 "></polyline>
<path clip-path="url(#clip380)" d="M2596.18 649.285 Q2596.18 654.414 2593.58 659.368 Q2591.02 664.322 2586.97 667.379 Q2582.93 670.4 2578.82 670.4 Q2576.36 670.4 2574.71 669.065 Q2573.1 667.695 2572.22 665.762 Q2571.55 668.152 2570.11 673.878 Q2568.67 679.605 2568.67 680.167 Q2568.67 680.483 2568.74 680.624 Q2568.81 680.765 2569.13 680.94 Q2569.44 681.151 2570.22 681.221 Q2570.99 681.327 2572.29 681.327 Q2572.96 681.327 2573.2 681.327 Q2573.48 681.362 2573.73 681.537 Q2574.01 681.713 2574.01 682.1 Q2574.01 683.54 2572.71 683.54 Q2571.55 683.54 2569.16 683.435 Q2566.77 683.329 2565.58 683.329 Q2564.56 683.329 2562.52 683.435 Q2560.48 683.54 2559.54 683.54 Q2558.59 683.54 2558.59 682.697 Q2558.59 682.205 2558.73 681.889 Q2558.83 681.608 2559.11 681.467 Q2559.39 681.362 2559.64 681.327 Q2559.85 681.327 2560.27 681.327 Q2561.89 681.327 2562.59 681.046 Q2563.29 680.8 2563.54 680.273 Q2563.82 679.781 2564.14 678.375 L2572.22 646.334 Q2572.71 644.19 2572.71 642.68 Q2572.71 640.782 2572.11 640.08 Q2571.52 639.377 2570.46 639.377 Q2568.64 639.377 2567.44 641.555 Q2566.25 643.734 2565.23 647.95 Q2564.91 649.109 2564.7 649.355 Q2564.52 649.601 2564 649.601 Q2563.12 649.566 2563.12 648.863 Q2563.12 648.688 2563.4 647.563 Q2563.68 646.404 2564.21 644.717 Q2564.77 642.996 2565.37 641.907 Q2565.72 641.169 2566.04 640.677 Q2566.35 640.185 2566.98 639.412 Q2567.65 638.639 2568.6 638.218 Q2569.55 637.796 2570.71 637.796 Q2572.96 637.796 2574.82 639.131 Q2576.68 640.466 2577.17 643.172 Q2579.18 640.818 2581.63 639.307 Q2584.09 637.796 2586.59 637.796 Q2590.73 637.796 2593.44 641.028 Q2596.18 644.226 2596.18 649.285 M2590.98 646.123 Q2590.98 642.926 2589.75 641.169 Q2588.56 639.377 2586.38 639.377 Q2583.67 639.377 2580.55 642.118 Q2577.45 644.717 2576.82 647.142 L2573.27 661.23 L2573.06 662.39 Q2573.06 662.6 2573.17 663.233 Q2573.31 663.83 2573.69 664.814 Q2574.12 665.798 2574.68 666.676 Q2575.28 667.519 2576.33 668.152 Q2577.42 668.784 2578.75 668.784 Q2580.9 668.784 2583.22 666.887 Q2585.57 664.99 2587.33 661.406 Q2588.42 659.087 2589.68 654.098 Q2590.98 649.074 2590.98 646.123 Z" fill="#000000" fill-rule="nonzero" fill-opacity="1"></path><path clip-path="url(#clip380)" d="M2614.38 658.665 Q2614.45 657.787 2615.82 657.787 L2659.92 657.787 Q2661.99 657.787 2662.03 658.595 Q2662.03 659.474 2660.06 659.438 L2616.32 659.438 Q2614.38 659.474 2614.38 658.665 M2614.38 644.612 Q2614.38 643.734 2615.89 643.769 L2659.85 643.769 Q2661.99 643.769 2662.03 644.612 Q2662.03 645.42 2660.2 645.42 L2615.82 645.42 Q2614.38 645.42 2614.38 644.612 Z" fill="#000000" fill-rule="nonzero" fill-opacity="1"></path><path clip-path="url(#clip380)" d="M2689.77 628.521 L2689.77 626.272 Q2698.41 626.272 2702.87 621.67 Q2704.1 621.67 2704.32 621.951 Q2704.53 622.232 2704.53 623.532 L2704.53 663.9 Q2704.53 666.044 2705.58 666.711 Q2706.63 667.379 2711.24 667.379 L2713.52 667.379 L2713.52 669.592 Q2710.99 669.381 2701.86 669.381 Q2692.72 669.381 2690.23 669.592 L2690.23 667.379 L2692.51 667.379 Q2697.04 667.379 2698.13 666.746 Q2699.22 666.079 2699.22 663.9 L2699.22 626.624 Q2695.46 628.521 2689.77 628.521 Z" fill="#000000" fill-rule="nonzero" fill-opacity="1"></path><polyline clip-path="url(#clip380)" style="stroke:#4dae49; stroke-linecap:round; stroke-linejoin:round; stroke-width:24; stroke-opacity:1; fill:none" points="2367.09,730.536 2531.23,730.536 "></polyline>
<path clip-path="url(#clip380)" d="M2596.18 727.045 Q2596.18 732.174 2593.58 737.128 Q2591.02 742.082 2586.97 745.139 Q2582.93 748.16 2578.82 748.16 Q2576.36 748.16 2574.71 746.825 Q2573.1 745.455 2572.22 743.522 Q2571.55 745.912 2570.11 751.638 Q2568.67 757.365 2568.67 757.927 Q2568.67 758.243 2568.74 758.384 Q2568.81 758.525 2569.13 758.7 Q2569.44 758.911 2570.22 758.981 Q2570.99 759.087 2572.29 759.087 Q2572.96 759.087 2573.2 759.087 Q2573.48 759.122 2573.73 759.297 Q2574.01 759.473 2574.01 759.86 Q2574.01 761.3 2572.71 761.3 Q2571.55 761.3 2569.16 761.195 Q2566.77 761.089 2565.58 761.089 Q2564.56 761.089 2562.52 761.195 Q2560.48 761.3 2559.54 761.3 Q2558.59 761.3 2558.59 760.457 Q2558.59 759.965 2558.73 759.649 Q2558.83 759.368 2559.11 759.227 Q2559.39 759.122 2559.64 759.087 Q2559.85 759.087 2560.27 759.087 Q2561.89 759.087 2562.59 758.806 Q2563.29 758.56 2563.54 758.033 Q2563.82 757.541 2564.14 756.135 L2572.22 724.094 Q2572.71 721.95 2572.71 720.44 Q2572.71 718.542 2572.11 717.84 Q2571.52 717.137 2570.46 717.137 Q2568.64 717.137 2567.44 719.315 Q2566.25 721.494 2565.23 725.71 Q2564.91 726.869 2564.7 727.115 Q2564.52 727.361 2564 727.361 Q2563.12 727.326 2563.12 726.623 Q2563.12 726.448 2563.4 725.323 Q2563.68 724.164 2564.21 722.477 Q2564.77 720.756 2565.37 719.667 Q2565.72 718.929 2566.04 718.437 Q2566.35 717.945 2566.98 717.172 Q2567.65 716.399 2568.6 715.978 Q2569.55 715.556 2570.71 715.556 Q2572.96 715.556 2574.82 716.891 Q2576.68 718.226 2577.17 720.932 Q2579.18 718.578 2581.63 717.067 Q2584.09 715.556 2586.59 715.556 Q2590.73 715.556 2593.44 718.788 Q2596.18 721.986 2596.18 727.045 M2590.98 723.883 Q2590.98 720.686 2589.75 718.929 Q2588.56 717.137 2586.38 717.137 Q2583.67 717.137 2580.55 719.878 Q2577.45 722.477 2576.82 724.902 L2573.27 738.99 L2573.06 740.15 Q2573.06 740.36 2573.17 740.993 Q2573.31 741.59 2573.69 742.574 Q2574.12 743.558 2574.68 744.436 Q2575.28 745.279 2576.33 745.912 Q2577.42 746.544 2578.75 746.544 Q2580.9 746.544 2583.22 744.647 Q2585.57 742.75 2587.33 739.166 Q2588.42 736.847 2589.68 731.858 Q2590.98 726.834 2590.98 723.883 Z" fill="#000000" fill-rule="nonzero" fill-opacity="1"></path><path clip-path="url(#clip380)" d="M2614.38 736.425 Q2614.45 735.547 2615.82 735.547 L2659.92 735.547 Q2661.99 735.547 2662.03 736.355 Q2662.03 737.234 2660.06 737.198 L2616.32 737.198 Q2614.38 737.234 2614.38 736.425 M2614.38 722.372 Q2614.38 721.494 2615.89 721.529 L2659.85 721.529 Q2661.99 721.529 2662.03 722.372 Q2662.03 723.18 2660.2 723.18 L2615.82 723.18 Q2614.38 723.18 2614.38 722.372 Z" fill="#000000" fill-rule="nonzero" fill-opacity="1"></path><path clip-path="url(#clip380)" d="M2689.77 747.352 Q2689.77 746.052 2689.88 745.666 Q2690.02 745.279 2690.58 744.682 L2704.39 729.293 Q2711.94 720.791 2711.94 713.378 Q2711.94 708.564 2709.41 705.121 Q2706.91 701.678 2702.31 701.678 Q2699.15 701.678 2696.48 703.611 Q2693.81 705.543 2692.58 708.986 Q2692.79 708.916 2693.53 708.916 Q2695.32 708.916 2696.3 710.04 Q2697.32 711.164 2697.32 712.675 Q2697.32 714.607 2696.06 715.556 Q2694.83 716.47 2693.6 716.47 Q2693.11 716.47 2692.44 716.364 Q2691.81 716.259 2690.79 715.275 Q2689.77 714.256 2689.77 712.464 Q2689.77 707.44 2693.56 703.435 Q2697.39 699.43 2703.23 699.43 Q2709.83 699.43 2714.15 703.365 Q2718.51 707.265 2718.51 713.378 Q2718.51 715.521 2717.84 717.488 Q2717.21 719.421 2716.33 720.932 Q2715.49 722.442 2713.17 724.867 Q2710.85 727.291 2708.99 729.012 Q2707.13 730.734 2702.94 734.388 L2695.32 741.801 L2708.29 741.801 Q2714.61 741.801 2715.1 741.239 Q2715.8 740.22 2716.68 734.844 L2718.51 734.844 L2716.47 747.352 L2689.77 747.352 Z" fill="#000000" fill-rule="nonzero" fill-opacity="1"></path><polyline clip-path="url(#clip380)" style="stroke:#974ea2; stroke-linecap:round; stroke-linejoin:round; stroke-width:24; stroke-opacity:1; fill:none" points="2367.09,808.296 2531.23,808.296 "></polyline>
<path clip-path="url(#clip380)" d="M2596.18 804.805 Q2596.18 809.934 2593.58 814.888 Q2591.02 819.842 2586.97 822.899 Q2582.93 825.92 2578.82 825.92 Q2576.36 825.92 2574.71 824.585 Q2573.1 823.215 2572.22 821.282 Q2571.55 823.672 2570.11 829.398 Q2568.67 835.125 2568.67 835.687 Q2568.67 836.003 2568.74 836.144 Q2568.81 836.285 2569.13 836.46 Q2569.44 836.671 2570.22 836.741 Q2570.99 836.847 2572.29 836.847 Q2572.96 836.847 2573.2 836.847 Q2573.48 836.882 2573.73 837.057 Q2574.01 837.233 2574.01 837.62 Q2574.01 839.06 2572.71 839.06 Q2571.55 839.06 2569.16 838.955 Q2566.77 838.849 2565.58 838.849 Q2564.56 838.849 2562.52 838.955 Q2560.48 839.06 2559.54 839.06 Q2558.59 839.06 2558.59 838.217 Q2558.59 837.725 2558.73 837.409 Q2558.83 837.128 2559.11 836.987 Q2559.39 836.882 2559.64 836.847 Q2559.85 836.847 2560.27 836.847 Q2561.89 836.847 2562.59 836.566 Q2563.29 836.32 2563.54 835.793 Q2563.82 835.301 2564.14 833.895 L2572.22 801.854 Q2572.71 799.71 2572.71 798.2 Q2572.71 796.302 2572.11 795.6 Q2571.52 794.897 2570.46 794.897 Q2568.64 794.897 2567.44 797.075 Q2566.25 799.254 2565.23 803.47 Q2564.91 804.629 2564.7 804.875 Q2564.52 805.121 2564 805.121 Q2563.12 805.086 2563.12 804.383 Q2563.12 804.208 2563.4 803.083 Q2563.68 801.924 2564.21 800.237 Q2564.77 798.516 2565.37 797.427 Q2565.72 796.689 2566.04 796.197 Q2566.35 795.705 2566.98 794.932 Q2567.65 794.159 2568.6 793.738 Q2569.55 793.316 2570.71 793.316 Q2572.96 793.316 2574.82 794.651 Q2576.68 795.986 2577.17 798.692 Q2579.18 796.338 2581.63 794.827 Q2584.09 793.316 2586.59 793.316 Q2590.73 793.316 2593.44 796.548 Q2596.18 799.746 2596.18 804.805 M2590.98 801.643 Q2590.98 798.446 2589.75 796.689 Q2588.56 794.897 2586.38 794.897 Q2583.67 794.897 2580.55 797.638 Q2577.45 800.237 2576.82 802.662 L2573.27 816.75 L2573.06 817.91 Q2573.06 818.12 2573.17 818.753 Q2573.31 819.35 2573.69 820.334 Q2574.12 821.318 2574.68 822.196 Q2575.28 823.039 2576.33 823.672 Q2577.42 824.304 2578.75 824.304 Q2580.9 824.304 2583.22 822.407 Q2585.57 820.51 2587.33 816.926 Q2588.42 814.607 2589.68 809.618 Q2590.98 804.594 2590.98 801.643 Z" fill="#000000" fill-rule="nonzero" fill-opacity="1"></path><path clip-path="url(#clip380)" d="M2614.38 814.185 Q2614.45 813.307 2615.82 813.307 L2659.92 813.307 Q2661.99 813.307 2662.03 814.115 Q2662.03 814.994 2660.06 814.958 L2616.32 814.958 Q2614.38 814.994 2614.38 814.185 M2614.38 800.132 Q2614.38 799.254 2615.89 799.289 L2659.85 799.289 Q2661.99 799.289 2662.03 800.132 Q2662.03 800.94 2660.2 800.94 L2615.82 800.94 Q2614.38 800.94 2614.38 800.132 Z" fill="#000000" fill-rule="nonzero" fill-opacity="1"></path><path clip-path="url(#clip380)" d="M2689.77 815.415 Q2689.77 813.272 2691 812.253 Q2692.23 811.234 2693.81 811.234 Q2695.46 811.234 2696.62 812.323 Q2697.82 813.377 2697.82 815.239 Q2697.82 817.242 2696.41 818.366 Q2695.04 819.491 2693.07 819.21 Q2694.79 822.091 2697.96 823.39 Q2701.15 824.69 2704.1 824.69 Q2707.2 824.69 2709.69 822.02 Q2712.22 819.35 2712.22 812.815 Q2712.22 807.264 2710.04 804.067 Q2707.9 800.87 2703.65 800.87 L2700.49 800.87 Q2699.4 800.87 2699.08 800.764 Q2698.76 800.659 2698.76 800.062 Q2698.76 799.359 2699.85 799.219 Q2700.94 799.219 2702.66 799.008 Q2706.84 798.867 2709.06 795.248 Q2711.06 791.876 2711.06 787.062 Q2711.06 782.671 2708.95 780.844 Q2706.88 778.982 2704.17 778.982 Q2701.64 778.982 2698.87 780.036 Q2696.09 781.09 2694.58 783.444 Q2699.05 783.444 2699.05 787.062 Q2699.05 788.643 2698.03 789.697 Q2697.04 790.716 2695.39 790.716 Q2693.81 790.716 2692.76 789.732 Q2691.7 788.714 2691.7 786.992 Q2691.7 782.881 2695.36 780.036 Q2699.05 777.19 2704.46 777.19 Q2709.8 777.19 2713.73 780 Q2717.7 782.811 2717.7 787.133 Q2717.7 791.384 2714.89 794.862 Q2712.08 798.34 2707.62 799.781 Q2713.1 800.87 2716.37 804.594 Q2719.63 808.283 2719.63 812.815 Q2719.63 818.437 2715.21 822.582 Q2710.78 826.693 2704.32 826.693 Q2698.34 826.693 2694.06 823.461 Q2689.77 820.228 2689.77 815.415 Z" fill="#000000" fill-rule="nonzero" fill-opacity="1"></path><path clip-path="url(#clip380)" d="M508.008 205.424 Q508.008 205.477 507.692 207.374 L495.676 255.279 Q495.044 257.808 493.252 260.338 Q491.513 262.92 488.719 265.134 Q485.979 267.4 481.763 268.77 Q477.6 270.193 472.804 270.193 Q465.162 270.193 461.79 268.559 Q458.469 266.978 458.469 263.605 Q458.469 260.654 460.314 258.968 Q462.158 257.334 464.266 257.334 Q466.269 257.334 467.323 258.494 Q468.377 259.653 468.377 261.129 Q468.377 262.762 467.27 264.396 Q466.164 266.082 463.95 266.715 Q467.481 267.822 472.593 267.822 Q483.397 267.822 488.034 256.386 Q488.14 256.227 488.14 256.175 L491.723 241.893 L491.565 241.787 Q490.669 242.841 489.246 244.054 Q487.876 245.213 484.925 246.636 Q481.974 248.059 479.075 248.059 Q473.015 248.059 468.851 243.421 Q464.741 238.731 464.741 230.984 Q464.741 225.345 467.007 219.706 Q469.326 214.014 472.909 209.851 Q476.546 205.635 481.183 203 Q485.874 200.365 490.406 200.365 Q493.568 200.365 496.256 202.262 Q498.943 204.107 500.419 207.163 Q500.682 204.634 502.105 203.58 Q503.581 202.526 504.846 202.526 Q506.269 202.526 507.112 203.316 Q508.008 204.054 508.008 205.424 M499.154 212.012 Q499.154 211.695 498.943 210.852 Q498.733 209.956 498.1 208.533 Q497.52 207.111 496.625 205.846 Q495.729 204.581 494.095 203.685 Q492.514 202.736 490.511 202.736 Q487.244 202.736 483.976 205.477 Q480.709 208.165 478.443 212.328 Q476.335 216.333 474.332 224.08 Q472.382 231.827 472.382 235.78 Q472.382 239.679 474.069 242.683 Q475.755 245.687 479.391 245.687 Q483.608 245.687 488.14 241.787 Q492.83 237.73 493.621 234.251 L498.838 213.645 Q499.154 212.381 499.154 212.012 Z" fill="#000000" fill-rule="nonzero" fill-opacity="1"></path><path clip-path="url(#clip380)" d="M535.202 249.532 L524.319 293.21 Q523.877 294.944 523.877 296.826 Q523.877 300.293 526.164 300.293 Q527.234 300.293 528.119 299.592 Q529.004 298.855 529.669 297.416 Q530.369 295.94 530.812 294.538 Q531.292 293.137 531.882 290.96 Q532.066 290.112 532.251 289.853 Q532.435 289.595 532.952 289.595 Q533.874 289.595 533.874 290.333 Q532.952 294.87 531.587 297.748 Q529.595 301.99 525.906 301.99 Q523.139 301.99 521.073 300.072 Q519.044 298.117 519.044 295.018 Q519.044 293.838 519.413 292.436 L528.931 254.66 L529.189 253.184 Q529.189 252.779 529.041 252.557 Q528.894 252.336 528.008 252.115 Q527.16 251.893 525.463 251.893 Q524.762 251.893 524.43 251.856 Q524.135 251.819 523.84 251.635 Q523.582 251.45 523.582 251.045 Q523.582 250.381 523.84 250.012 Q524.135 249.643 524.356 249.569 Q524.578 249.495 525.02 249.458 Q525.647 249.422 527.75 249.237 Q529.853 249.016 531.661 248.868 Q533.468 248.721 534.243 248.721 Q534.686 248.721 534.907 248.942 Q535.165 249.126 535.202 249.348 L535.202 249.532 Z" fill="#000000" fill-rule="nonzero" fill-opacity="1"></path><path clip-path="url(#clip380)" d="M576.507 231.669 Q576.613 230.351 578.668 230.351 L644.807 230.351 Q647.916 230.351 647.969 231.564 Q647.969 232.881 645.018 232.828 L579.406 232.828 Q576.507 232.881 576.507 231.669 M576.507 210.589 Q576.507 209.271 578.773 209.324 L644.702 209.324 Q647.916 209.324 647.969 210.589 Q647.969 211.801 645.229 211.801 L578.668 211.801 Q576.507 211.801 576.507 210.589 Z" fill="#000000" fill-rule="nonzero" fill-opacity="1"></path><path clip-path="url(#clip380)" d="M689.596 231.774 Q689.596 219.706 705.143 211.906 Q698.45 207.374 697.238 206.057 Q692.494 200.786 692.494 194.199 Q692.494 186.663 698.186 181.445 Q703.93 176.175 712.046 176.175 Q719.793 176.175 725.643 180.655 Q731.493 185.134 731.493 192.249 Q731.493 202.262 718.423 209.008 Q727.066 214.383 729.121 216.649 Q734.391 222.499 734.391 229.93 Q734.391 238.573 727.751 244.528 Q721.111 250.43 711.941 250.43 Q702.982 250.43 696.289 245.213 Q689.596 239.996 689.596 231.774 M694.971 231.774 Q694.971 238.467 699.978 242.947 Q705.037 247.426 712.046 247.426 Q718.845 247.426 723.904 243.527 Q729.016 239.627 729.016 233.83 Q729.016 231.564 728.225 229.614 Q727.488 227.664 725.959 226.135 Q724.484 224.554 723.535 223.869 Q722.639 223.131 720.9 221.919 L707.62 213.54 Q694.971 220.549 694.971 231.774 M697.238 189.983 Q697.238 195.148 702.666 198.731 L716.052 207.374 Q726.75 201.103 726.75 192.249 Q726.75 186.505 722.376 182.71 Q718.002 178.863 711.941 178.863 Q705.986 178.863 701.612 182.025 Q697.238 185.134 697.238 189.983 Z" fill="#000000" fill-rule="nonzero" fill-opacity="1"></path><path clip-path="url(#clip380)" d="M743.044 213.54 Q743.044 197.677 747.049 189.034 Q752.635 176.175 765.81 176.175 Q768.604 176.175 771.502 176.966 Q774.453 177.704 778.142 180.602 Q781.884 183.501 784.15 188.244 Q788.472 197.414 788.472 213.54 Q788.472 229.297 784.466 237.888 Q778.617 250.43 765.705 250.43 Q760.857 250.43 755.903 247.953 Q751.002 245.477 747.892 239.521 Q743.044 230.615 743.044 213.54 M752.003 212.222 Q752.003 228.507 753.162 234.989 Q754.48 241.998 758.063 245.055 Q761.7 248.059 765.705 248.059 Q770.027 248.059 773.61 244.844 Q777.246 241.577 778.353 234.567 Q779.565 227.664 779.513 212.222 Q779.513 197.203 778.459 191.195 Q777.036 184.186 773.241 181.393 Q769.5 178.547 765.705 178.547 Q764.282 178.547 762.754 178.968 Q761.278 179.39 759.118 180.602 Q756.957 181.814 755.27 184.818 Q753.637 187.822 752.846 192.354 Q752.003 198.204 752.003 212.222 Z" fill="#000000" fill-rule="nonzero" fill-opacity="1"></path><path clip-path="url(#clip380)" d="M796.924 213.54 Q796.924 197.677 800.929 189.034 Q806.515 176.175 819.69 176.175 Q822.484 176.175 825.382 176.966 Q828.333 177.704 832.022 180.602 Q835.764 183.501 838.03 188.244 Q842.352 197.414 842.352 213.54 Q842.352 229.297 838.346 237.888 Q832.497 250.43 819.585 250.43 Q814.737 250.43 809.783 247.953 Q804.882 245.477 801.772 239.521 Q796.924 230.615 796.924 213.54 M805.883 212.222 Q805.883 228.507 807.042 234.989 Q808.36 241.998 811.943 245.055 Q815.58 248.059 819.585 248.059 Q823.906 248.059 827.49 244.844 Q831.126 241.577 832.233 234.567 Q833.445 227.664 833.393 212.222 Q833.393 197.203 832.339 191.195 Q830.916 184.186 827.121 181.393 Q823.379 178.547 819.585 178.547 Q818.162 178.547 816.634 178.968 Q815.158 179.39 812.997 180.602 Q810.837 181.814 809.15 184.818 Q807.517 187.822 806.726 192.354 Q805.883 198.204 805.883 212.222 Z" fill="#000000" fill-rule="nonzero" fill-opacity="1"></path><path clip-path="url(#clip380)" d="M906.93 204.107 Q906.93 207.796 901.66 207.796 L889.328 207.796 Q887.431 216.544 887.431 224.976 Q887.431 235.042 890.541 242.789 Q891.173 244.317 891.173 245.16 Q891.173 246.741 889.75 248.006 Q888.38 249.271 886.746 249.271 Q885.376 249.271 884.48 248.217 Q883.637 247.163 882.899 243.843 Q882.003 239.943 882.003 235.622 Q882.003 230.457 882.846 225.503 Q883.69 220.496 886.535 207.796 L874.362 207.796 L868.301 231.669 Q866.14 239.732 865.402 242.209 Q864.928 243.685 864.77 244.159 Q864.612 244.633 864.138 245.793 Q863.716 246.899 863.4 247.321 Q863.084 247.69 862.557 248.27 Q862.03 248.902 861.397 249.06 Q860.765 249.271 859.974 249.271 Q858.762 249.271 857.814 248.48 Q856.865 247.743 856.865 246.32 Q856.865 245.371 857.708 243.737 Q867.721 222.13 871.516 207.796 L865.402 207.796 Q856.97 207.796 851.7 216.122 Q850.857 217.229 850.383 217.334 Q850.172 217.387 849.961 217.387 Q849.381 217.387 849.013 217.124 Q848.696 216.86 848.696 216.597 L848.644 216.333 Q848.644 216.017 849.434 214.594 Q850.277 213.118 851.858 210.852 Q853.492 208.586 855.231 206.636 Q856.918 204.844 858.551 203.738 Q860.238 202.578 861.819 202.157 Q863.4 201.735 864.296 201.63 Q865.192 201.524 866.456 201.524 L902.609 201.524 Q903.979 201.524 904.717 201.63 Q905.455 201.682 906.193 202.315 Q906.93 202.894 906.93 204.107 Z" fill="#000000" fill-rule="nonzero" fill-opacity="1"></path></svg>