<svg xmlns="http://www.w3.org/2000/svg" xmlns:xlink="http://www.w3.org/1999/xlink" width="700" height="400" viewBox="0 0 2800 1600">
<defs>
  <clipPath id="clip260">
    <rect x="0" y="0" width="2800" height="1600"></rect>
  </clipPath>
</defs>
<path clip-path="url(#clip260)" d="M0 1600 L2800 1600 L2800 0 L0 0  Z" fill="#ffffff" fill-rule="evenodd" fill-opacity="1"></path>
<defs>
  <clipPath id="clip261">
    <rect x="560" y="0" width="1961" height="1600"></rect>
  </clipPath>
</defs>
<defs>
  <clipPath id="clip262">
    <rect x="290" y="47" width="1968" height="1282"></rect>
  </clipPath>
</defs>
<path clip-path="url(#clip260)" d="M290.601 1328.42 L2257.66 1328.42 L2257.66 47.2441 L290.601 47.2441  Z" fill="#ffffff" fill-rule="evenodd" fill-opacity="1"></path>
<polyline clip-path="url(#clip260)" style="stroke:#000000; stroke-linecap:round; stroke-linejoin:round; stroke-width:4; stroke-opacity:1; fill:none" points="290.601,1328.42 2257.66,1328.42 "></polyline>
<polyline clip-path="url(#clip260)" style="stroke:#000000; stroke-linecap:round; stroke-linejoin:round; stroke-width:4; stroke-opacity:1; fill:none" points="290.601,47.2441 2257.66,47.2441 "></polyline>
<polyline clip-path="url(#clip260)" style="stroke:#000000; stroke-linecap:round; stroke-linejoin:round; stroke-width:4; stroke-opacity:1; fill:none" points="346.273,1328.42 346.273,1309.52 "></polyline>
<polyline clip-path="url(#clip260)" style="stroke:#000000; stroke-linecap:round; stroke-linejoin:round; stroke-width:4; stroke-opacity:1; fill:none" points="810.201,1328.42 810.201,1309.52 "></polyline>
<polyline clip-path="url(#clip260)" style="stroke:#000000; stroke-linecap:round; stroke-linejoin:round; stroke-width:4; stroke-opacity:1; fill:none" points="1274.13,1328.42 1274.13,1309.52 "></polyline>
<polyline clip-path="url(#clip260)" style="stroke:#000000; stroke-linecap:round; stroke-linejoin:round; stroke-width:4; stroke-opacity:1; fill:none" points="1738.06,1328.42 1738.06,1309.52 "></polyline>
<polyline clip-path="url(#clip260)" style="stroke:#000000; stroke-linecap:round; stroke-linejoin:round; stroke-width:4; stroke-opacity:1; fill:none" points="2201.99,1328.42 2201.99,1309.52 "></polyline>
<path clip-path="url(#clip260)" d="M265.701 1401.48 Q265.701 1387.53 269.221 1379.94 Q274.131 1368.64 285.711 1368.64 Q288.166 1368.64 290.713 1369.33 Q293.307 1369.98 296.55 1372.53 Q299.838 1375.08 301.83 1379.24 Q305.628 1387.3 305.628 1401.48 Q305.628 1415.33 302.108 1422.88 Q296.966 1433.9 285.618 1433.9 Q281.357 1433.9 277.003 1431.72 Q272.695 1429.55 269.963 1424.31 Q265.701 1416.48 265.701 1401.48 M273.575 1400.32 Q273.575 1414.63 274.594 1420.33 Q275.752 1426.49 278.902 1429.18 Q282.098 1431.82 285.618 1431.82 Q289.416 1431.82 292.566 1428.99 Q295.762 1426.12 296.735 1419.96 Q297.8 1413.89 297.754 1400.32 Q297.754 1387.12 296.827 1381.84 Q295.577 1375.68 292.242 1373.22 Q288.953 1370.72 285.618 1370.72 Q284.368 1370.72 283.024 1371.09 Q281.728 1371.46 279.828 1372.53 Q277.929 1373.59 276.447 1376.23 Q275.011 1378.87 274.316 1382.86 Q273.575 1388 273.575 1400.32 Z" fill="#000000" fill-rule="nonzero" fill-opacity="1"></path><path clip-path="url(#clip260)" d="M318.921 1430.29 Q317.486 1428.76 317.486 1426.77 Q317.486 1424.78 318.921 1423.34 Q320.357 1421.86 322.534 1421.86 Q324.619 1421.86 326.008 1423.25 Q327.444 1424.59 327.444 1426.81 Q327.444 1428.99 325.916 1430.43 Q324.433 1431.82 322.534 1431.82 Q320.357 1431.82 318.921 1430.29 Z" fill="#000000" fill-rule="nonzero" fill-opacity="1"></path><path clip-path="url(#clip260)" d="M339.487 1401.48 Q339.487 1387.53 343.007 1379.94 Q347.917 1368.64 359.497 1368.64 Q361.952 1368.64 364.499 1369.33 Q367.093 1369.98 370.335 1372.53 Q373.624 1375.08 375.616 1379.24 Q379.414 1387.3 379.414 1401.48 Q379.414 1415.33 375.894 1422.88 Q370.752 1433.9 359.404 1433.9 Q355.143 1433.9 350.789 1431.72 Q346.481 1429.55 343.748 1424.31 Q339.487 1416.48 339.487 1401.48 M347.361 1400.32 Q347.361 1414.63 348.38 1420.33 Q349.538 1426.49 352.688 1429.18 Q355.884 1431.82 359.404 1431.82 Q363.202 1431.82 366.352 1428.99 Q369.548 1426.12 370.521 1419.96 Q371.586 1413.89 371.54 1400.32 Q371.54 1387.12 370.613 1381.84 Q369.363 1375.68 366.028 1373.22 Q362.739 1370.72 359.404 1370.72 Q358.154 1370.72 356.81 1371.09 Q355.513 1371.46 353.614 1372.53 Q351.715 1373.59 350.233 1376.23 Q348.797 1378.87 348.102 1382.86 Q347.361 1388 347.361 1400.32 Z" fill="#000000" fill-rule="nonzero" fill-opacity="1"></path><path clip-path="url(#clip260)" d="M386.917 1401.48 Q386.917 1387.53 390.438 1379.94 Q395.348 1368.64 406.927 1368.64 Q409.382 1368.64 411.93 1369.33 Q414.524 1369.98 417.766 1372.53 Q421.054 1375.08 423.046 1379.24 Q426.844 1387.3 426.844 1401.48 Q426.844 1415.33 423.324 1422.88 Q418.183 1433.9 406.835 1433.9 Q402.573 1433.9 398.219 1431.72 Q393.912 1429.55 391.179 1424.31 Q386.917 1416.48 386.917 1401.48 M394.792 1400.32 Q394.792 1414.63 395.811 1420.33 Q396.969 1426.49 400.118 1429.18 Q403.314 1431.82 406.835 1431.82 Q410.633 1431.82 413.782 1428.99 Q416.978 1426.12 417.951 1419.96 Q419.016 1413.89 418.97 1400.32 Q418.97 1387.12 418.044 1381.84 Q416.793 1375.68 413.458 1373.22 Q410.17 1370.72 406.835 1370.72 Q405.584 1370.72 404.241 1371.09 Q402.944 1371.46 401.045 1372.53 Q399.146 1373.59 397.663 1376.23 Q396.228 1378.87 395.533 1382.86 Q394.792 1388 394.792 1400.32 Z" fill="#000000" fill-rule="nonzero" fill-opacity="1"></path><path clip-path="url(#clip260)" d="M730.139 1401.48 Q730.139 1387.53 733.659 1379.94 Q738.569 1368.64 750.149 1368.64 Q752.603 1368.64 755.151 1369.33 Q757.745 1369.98 760.987 1372.53 Q764.276 1375.08 766.268 1379.24 Q770.066 1387.3 770.066 1401.48 Q770.066 1415.33 766.545 1422.88 Q761.404 1433.9 750.056 1433.9 Q745.795 1433.9 741.441 1431.72 Q737.133 1429.55 734.4 1424.31 Q730.139 1416.48 730.139 1401.48 M738.013 1400.32 Q738.013 1414.63 739.032 1420.33 Q740.19 1426.49 743.34 1429.18 Q746.536 1431.82 750.056 1431.82 Q753.854 1431.82 757.004 1428.99 Q760.2 1426.12 761.172 1419.96 Q762.238 1413.89 762.191 1400.32 Q762.191 1387.12 761.265 1381.84 Q760.015 1375.68 756.68 1373.22 Q753.391 1370.72 750.056 1370.72 Q748.805 1370.72 747.462 1371.09 Q746.165 1371.46 744.266 1372.53 Q742.367 1373.59 740.885 1376.23 Q739.449 1378.87 738.754 1382.86 Q738.013 1388 738.013 1400.32 Z" fill="#000000" fill-rule="nonzero" fill-opacity="1"></path><path clip-path="url(#clip260)" d="M783.359 1430.29 Q781.923 1428.76 781.923 1426.77 Q781.923 1424.78 783.359 1423.34 Q784.795 1421.86 786.972 1421.86 Q789.056 1421.86 790.446 1423.25 Q791.882 1424.59 791.882 1426.81 Q791.882 1428.99 790.353 1430.43 Q788.871 1431.82 786.972 1431.82 Q784.795 1431.82 783.359 1430.29 Z" fill="#000000" fill-rule="nonzero" fill-opacity="1"></path><path clip-path="url(#clip260)" d="M804.944 1431.82 Q804.944 1430.1 805.083 1429.59 Q805.268 1429.08 806.009 1428.3 L824.212 1408.01 Q834.171 1396.8 834.171 1387.03 Q834.171 1380.68 830.836 1376.14 Q827.547 1371.6 821.48 1371.6 Q817.311 1371.6 813.791 1374.15 Q810.27 1376.7 808.649 1381.24 Q808.927 1381.14 809.9 1381.14 Q812.262 1381.14 813.559 1382.63 Q814.902 1384.11 814.902 1386.1 Q814.902 1388.65 813.235 1389.9 Q811.614 1391.1 809.992 1391.1 Q809.344 1391.1 808.464 1390.96 Q807.63 1390.82 806.287 1389.53 Q804.944 1388.18 804.944 1385.82 Q804.944 1379.2 809.946 1373.92 Q814.995 1368.64 822.684 1368.64 Q831.392 1368.64 837.089 1373.82 Q842.833 1378.97 842.833 1387.03 Q842.833 1389.85 841.952 1392.44 Q841.119 1394.99 839.961 1396.98 Q838.849 1398.98 835.792 1402.17 Q832.735 1405.37 830.28 1407.64 Q827.825 1409.91 822.313 1414.72 L812.262 1424.5 L829.354 1424.5 Q837.691 1424.5 838.34 1423.76 Q839.266 1422.41 840.424 1415.33 L842.833 1415.33 L840.146 1431.82 L804.944 1431.82 Z" fill="#000000" fill-rule="nonzero" fill-opacity="1"></path><path clip-path="url(#clip260)" d="M852.374 1416.53 Q852.374 1413.71 853.903 1412.64 Q855.431 1411.53 857.052 1411.53 Q859.229 1411.53 860.48 1412.92 Q861.777 1414.26 861.777 1416.16 Q861.777 1418.06 860.48 1419.45 Q859.229 1420.79 857.052 1420.79 Q855.987 1420.79 855.431 1420.61 Q856.682 1424.96 860.48 1428.11 Q864.324 1431.26 869.373 1431.26 Q875.719 1431.26 879.517 1425.1 Q881.787 1421.12 881.787 1412.08 Q881.787 1404.12 880.073 1400.13 Q877.433 1394.07 872.013 1394.07 Q864.324 1394.07 859.785 1400.69 Q859.229 1401.52 858.581 1401.57 Q857.655 1401.57 857.423 1401.06 Q857.238 1400.5 857.238 1399.07 L857.238 1371 Q857.238 1368.73 858.164 1368.73 Q858.535 1368.73 859.322 1369.01 Q865.297 1371.65 871.921 1371.69 Q878.73 1371.69 884.844 1368.91 Q885.307 1368.64 885.585 1368.64 Q886.511 1368.64 886.557 1369.7 Q886.557 1370.07 885.77 1371.18 Q885.029 1372.25 883.408 1373.69 Q881.787 1375.08 879.702 1376.42 Q877.618 1377.76 874.561 1378.69 Q871.55 1379.57 868.215 1379.57 Q864.232 1379.57 860.156 1378.32 L860.156 1396.8 Q865.066 1391.98 872.199 1391.98 Q879.795 1391.98 885.029 1398.1 Q890.263 1404.21 890.263 1412.73 Q890.263 1421.67 884.056 1427.79 Q877.896 1433.9 869.558 1433.9 Q861.962 1433.9 857.145 1428.48 Q852.374 1423.06 852.374 1416.53 Z" fill="#000000" fill-rule="nonzero" fill-opacity="1"></path><path clip-path="url(#clip260)" d="M1193.56 1401.48 Q1193.56 1387.53 1197.08 1379.94 Q1201.99 1368.64 1213.57 1368.64 Q1216.02 1368.64 1218.57 1369.33 Q1221.16 1369.98 1224.41 1372.53 Q1227.69 1375.08 1229.69 1379.24 Q1233.48 1387.3 1233.48 1401.48 Q1233.48 1415.33 1229.96 1422.88 Q1224.82 1433.9 1213.47 1433.9 Q1209.21 1433.9 1204.86 1431.72 Q1200.55 1429.55 1197.82 1424.31 Q1193.56 1416.48 1193.56 1401.48 M1201.43 1400.32 Q1201.43 1414.63 1202.45 1420.33 Q1203.61 1426.49 1206.76 1429.18 Q1209.95 1431.82 1213.47 1431.82 Q1217.27 1431.82 1220.42 1428.99 Q1223.62 1426.12 1224.59 1419.96 Q1225.66 1413.89 1225.61 1400.32 Q1225.61 1387.12 1224.68 1381.84 Q1223.43 1375.68 1220.1 1373.22 Q1216.81 1370.72 1213.47 1370.72 Q1212.22 1370.72 1210.88 1371.09 Q1209.58 1371.46 1207.68 1372.53 Q1205.79 1373.59 1204.3 1376.23 Q1202.87 1378.87 1202.17 1382.86 Q1201.43 1388 1201.43 1400.32 Z" fill="#000000" fill-rule="nonzero" fill-opacity="1"></path><path clip-path="url(#clip260)" d="M1246.78 1430.29 Q1245.34 1428.76 1245.34 1426.77 Q1245.34 1424.78 1246.78 1423.34 Q1248.21 1421.86 1250.39 1421.86 Q1252.48 1421.86 1253.86 1423.25 Q1255.3 1424.59 1255.3 1426.81 Q1255.3 1428.99 1253.77 1430.43 Q1252.29 1431.82 1250.39 1431.82 Q1248.21 1431.82 1246.78 1430.29 Z" fill="#000000" fill-rule="nonzero" fill-opacity="1"></path><path clip-path="url(#clip260)" d="M1268.36 1416.53 Q1268.36 1413.71 1269.89 1412.64 Q1271.42 1411.53 1273.04 1411.53 Q1275.22 1411.53 1276.47 1412.92 Q1277.77 1414.26 1277.77 1416.16 Q1277.77 1418.06 1276.47 1419.45 Q1275.22 1420.79 1273.04 1420.79 Q1271.98 1420.79 1271.42 1420.61 Q1272.67 1424.96 1276.47 1428.11 Q1280.31 1431.26 1285.36 1431.26 Q1291.71 1431.26 1295.51 1425.1 Q1297.77 1421.12 1297.77 1412.08 Q1297.77 1404.12 1296.06 1400.13 Q1293.42 1394.07 1288 1394.07 Q1280.31 1394.07 1275.77 1400.69 Q1275.22 1401.52 1274.57 1401.57 Q1273.64 1401.57 1273.41 1401.06 Q1273.23 1400.5 1273.23 1399.07 L1273.23 1371 Q1273.23 1368.73 1274.15 1368.73 Q1274.52 1368.73 1275.31 1369.01 Q1281.29 1371.65 1287.91 1371.69 Q1294.72 1371.69 1300.83 1368.91 Q1301.3 1368.64 1301.57 1368.64 Q1302.5 1368.64 1302.55 1369.7 Q1302.55 1370.07 1301.76 1371.18 Q1301.02 1372.25 1299.4 1373.69 Q1297.77 1375.08 1295.69 1376.42 Q1293.61 1377.76 1290.55 1378.69 Q1287.54 1379.57 1284.2 1379.57 Q1280.22 1379.57 1276.14 1378.32 L1276.14 1396.8 Q1281.05 1391.98 1288.19 1391.98 Q1295.78 1391.98 1301.02 1398.1 Q1306.25 1404.21 1306.25 1412.73 Q1306.25 1421.67 1300.04 1427.79 Q1293.88 1433.9 1285.55 1433.9 Q1277.95 1433.9 1273.13 1428.48 Q1268.36 1423.06 1268.36 1416.53 Z" fill="#000000" fill-rule="nonzero" fill-opacity="1"></path><path clip-path="url(#clip260)" d="M1314.77 1401.48 Q1314.77 1387.53 1318.29 1379.94 Q1323.2 1368.64 1334.78 1368.64 Q1337.24 1368.64 1339.79 1369.33 Q1342.38 1369.98 1345.62 1372.53 Q1348.91 1375.08 1350.9 1379.24 Q1354.7 1387.3 1354.7 1401.48 Q1354.7 1415.33 1351.18 1422.88 Q1346.04 1433.9 1334.69 1433.9 Q1330.43 1433.9 1326.08 1431.72 Q1321.77 1429.55 1319.04 1424.31 Q1314.77 1416.48 1314.77 1401.48 M1322.65 1400.32 Q1322.65 1414.63 1323.67 1420.33 Q1324.83 1426.49 1327.97 1429.18 Q1331.17 1431.82 1334.69 1431.82 Q1338.49 1431.82 1341.64 1428.99 Q1344.83 1426.12 1345.81 1419.96 Q1346.87 1413.89 1346.83 1400.32 Q1346.83 1387.12 1345.9 1381.84 Q1344.65 1375.68 1341.31 1373.22 Q1338.03 1370.72 1334.69 1370.72 Q1333.44 1370.72 1332.1 1371.09 Q1330.8 1371.46 1328.9 1372.53 Q1327 1373.59 1325.52 1376.23 Q1324.08 1378.87 1323.39 1382.86 Q1322.65 1388 1322.65 1400.32 Z" fill="#000000" fill-rule="nonzero" fill-opacity="1"></path><path clip-path="url(#clip260)" d="M1658 1401.48 Q1658 1387.53 1661.52 1379.94 Q1666.43 1368.64 1678 1368.64 Q1680.46 1368.64 1683.01 1369.33 Q1685.6 1369.98 1688.84 1372.53 Q1692.13 1375.08 1694.12 1379.24 Q1697.92 1387.3 1697.92 1401.48 Q1697.92 1415.33 1694.4 1422.88 Q1689.26 1433.9 1677.91 1433.9 Q1673.65 1433.9 1669.3 1431.72 Q1664.99 1429.55 1662.26 1424.31 Q1658 1416.48 1658 1401.48 M1665.87 1400.32 Q1665.87 1414.63 1666.89 1420.33 Q1668.05 1426.49 1671.2 1429.18 Q1674.39 1431.82 1677.91 1431.82 Q1681.71 1431.82 1684.86 1428.99 Q1688.06 1426.12 1689.03 1419.96 Q1690.09 1413.89 1690.05 1400.32 Q1690.05 1387.12 1689.12 1381.84 Q1687.87 1375.68 1684.54 1373.22 Q1681.25 1370.72 1677.91 1370.72 Q1676.66 1370.72 1675.32 1371.09 Q1674.02 1371.46 1672.12 1372.53 Q1670.22 1373.59 1668.74 1376.23 Q1667.31 1378.87 1666.61 1382.86 Q1665.87 1388 1665.87 1400.32 Z" fill="#000000" fill-rule="nonzero" fill-opacity="1"></path><path clip-path="url(#clip260)" d="M1711.22 1430.29 Q1709.78 1428.76 1709.78 1426.77 Q1709.78 1424.78 1711.22 1423.34 Q1712.65 1421.86 1714.83 1421.86 Q1716.91 1421.86 1718.3 1423.25 Q1719.74 1424.59 1719.74 1426.81 Q1719.74 1428.99 1718.21 1430.43 Q1716.73 1431.82 1714.83 1431.82 Q1712.65 1431.82 1711.22 1430.29 Z" fill="#000000" fill-rule="nonzero" fill-opacity="1"></path><path clip-path="url(#clip260)" d="M1733.4 1387.21 L1736.51 1367.71 L1738.87 1367.71 Q1739.15 1368.87 1739.61 1369.38 Q1740.12 1369.89 1742.8 1370.3 Q1745.54 1370.72 1751.05 1370.72 L1774.07 1370.72 Q1774.07 1372.9 1773.24 1374.06 L1760.41 1392.07 Q1756.33 1397.77 1754.52 1408.29 Q1753.46 1415.33 1753.5 1423.85 L1753.5 1428.67 Q1753.5 1433.9 1749.1 1433.9 Q1744.75 1433.9 1744.75 1428.67 Q1744.75 1410.56 1756.42 1393 Q1757.67 1391.19 1762.26 1384.76 Q1766.89 1378.32 1767.08 1378.04 L1747.44 1378.04 Q1738.82 1378.04 1738.13 1378.6 Q1737.2 1379.43 1735.76 1387.21 L1733.4 1387.21 Z" fill="#000000" fill-rule="nonzero" fill-opacity="1"></path><path clip-path="url(#clip260)" d="M1780.23 1416.53 Q1780.23 1413.71 1781.76 1412.64 Q1783.29 1411.53 1784.91 1411.53 Q1787.09 1411.53 1788.34 1412.92 Q1789.63 1414.26 1789.63 1416.16 Q1789.63 1418.06 1788.34 1419.45 Q1787.09 1420.79 1784.91 1420.79 Q1783.84 1420.79 1783.29 1420.61 Q1784.54 1424.96 1788.34 1428.11 Q1792.18 1431.26 1797.23 1431.26 Q1803.58 1431.26 1807.37 1425.1 Q1809.64 1421.12 1809.64 1412.08 Q1809.64 1404.12 1807.93 1400.13 Q1805.29 1394.07 1799.87 1394.07 Q1792.18 1394.07 1787.64 1400.69 Q1787.09 1401.52 1786.44 1401.57 Q1785.51 1401.57 1785.28 1401.06 Q1785.09 1400.5 1785.09 1399.07 L1785.09 1371 Q1785.09 1368.73 1786.02 1368.73 Q1786.39 1368.73 1787.18 1369.01 Q1793.15 1371.65 1799.78 1371.69 Q1806.59 1371.69 1812.7 1368.91 Q1813.16 1368.64 1813.44 1368.64 Q1814.37 1368.64 1814.41 1369.7 Q1814.41 1370.07 1813.63 1371.18 Q1812.89 1372.25 1811.26 1373.69 Q1809.64 1375.08 1807.56 1376.42 Q1805.47 1377.76 1802.42 1378.69 Q1799.41 1379.57 1796.07 1379.57 Q1792.09 1379.57 1788.01 1378.32 L1788.01 1396.8 Q1792.92 1391.98 1800.05 1391.98 Q1807.65 1391.98 1812.89 1398.1 Q1818.12 1404.21 1818.12 1412.73 Q1818.12 1421.67 1811.91 1427.79 Q1805.75 1433.9 1797.41 1433.9 Q1789.82 1433.9 1785 1428.48 Q1780.23 1423.06 1780.23 1416.53 Z" fill="#000000" fill-rule="nonzero" fill-opacity="1"></path><path clip-path="url(#clip260)" d="M2123.78 1377.67 L2123.78 1374.7 Q2135.17 1374.7 2141.05 1368.64 Q2142.67 1368.64 2142.95 1369.01 Q2143.23 1369.38 2143.23 1371.09 L2143.23 1424.31 Q2143.23 1427.14 2144.62 1428.02 Q2146.01 1428.9 2152.08 1428.9 L2155.09 1428.9 L2155.09 1431.82 Q2151.75 1431.54 2139.71 1431.54 Q2127.67 1431.54 2124.38 1431.82 L2124.38 1428.9 L2127.39 1428.9 Q2133.36 1428.9 2134.8 1428.06 Q2136.24 1427.18 2136.24 1424.31 L2136.24 1375.17 Q2131.28 1377.67 2123.78 1377.67 Z" fill="#000000" fill-rule="nonzero" fill-opacity="1"></path><path clip-path="url(#clip260)" d="M2172.27 1430.29 Q2170.84 1428.76 2170.84 1426.77 Q2170.84 1424.78 2172.27 1423.34 Q2173.71 1421.86 2175.88 1421.86 Q2177.97 1421.86 2179.36 1423.25 Q2180.79 1424.59 2180.79 1426.81 Q2180.79 1428.99 2179.27 1430.43 Q2177.78 1431.82 2175.88 1431.82 Q2173.71 1431.82 2172.27 1430.29 Z" fill="#000000" fill-rule="nonzero" fill-opacity="1"></path><path clip-path="url(#clip260)" d="M2192.84 1401.48 Q2192.84 1387.53 2196.36 1379.94 Q2201.27 1368.64 2212.85 1368.64 Q2215.3 1368.64 2217.85 1369.33 Q2220.44 1369.98 2223.69 1372.53 Q2226.97 1375.08 2228.97 1379.24 Q2232.76 1387.3 2232.76 1401.48 Q2232.76 1415.33 2229.24 1422.88 Q2224.1 1433.9 2212.75 1433.9 Q2208.49 1433.9 2204.14 1431.72 Q2199.83 1429.55 2197.1 1424.31 Q2192.84 1416.48 2192.84 1401.48 M2200.71 1400.32 Q2200.71 1414.63 2201.73 1420.33 Q2202.89 1426.49 2206.04 1429.18 Q2209.23 1431.82 2212.75 1431.82 Q2216.55 1431.82 2219.7 1428.99 Q2222.9 1426.12 2223.87 1419.96 Q2224.94 1413.89 2224.89 1400.32 Q2224.89 1387.12 2223.96 1381.84 Q2222.71 1375.68 2219.38 1373.22 Q2216.09 1370.72 2212.75 1370.72 Q2211.5 1370.72 2210.16 1371.09 Q2208.86 1371.46 2206.96 1372.53 Q2205.07 1373.59 2203.58 1376.23 Q2202.15 1378.87 2201.45 1382.86 Q2200.71 1388 2200.71 1400.32 Z" fill="#000000" fill-rule="nonzero" fill-opacity="1"></path><path clip-path="url(#clip260)" d="M2240.27 1401.48 Q2240.27 1387.53 2243.79 1379.94 Q2248.7 1368.64 2260.28 1368.64 Q2262.73 1368.64 2265.28 1369.33 Q2267.87 1369.98 2271.12 1372.53 Q2274.4 1375.08 2276.4 1379.24 Q2280.19 1387.3 2280.19 1401.48 Q2280.19 1415.33 2276.67 1422.88 Q2271.53 1433.9 2260.19 1433.9 Q2255.92 1433.9 2251.57 1431.72 Q2247.26 1429.55 2244.53 1424.31 Q2240.27 1416.48 2240.27 1401.48 M2248.14 1400.32 Q2248.14 1414.63 2249.16 1420.33 Q2250.32 1426.49 2253.47 1429.18 Q2256.66 1431.82 2260.19 1431.82 Q2263.98 1431.82 2267.13 1428.99 Q2270.33 1426.12 2271.3 1419.96 Q2272.37 1413.89 2272.32 1400.32 Q2272.32 1387.12 2271.39 1381.84 Q2270.14 1375.68 2266.81 1373.22 Q2263.52 1370.72 2260.19 1370.72 Q2258.93 1370.72 2257.59 1371.09 Q2256.29 1371.46 2254.4 1372.53 Q2252.5 1373.59 2251.01 1376.23 Q2249.58 1378.87 2248.88 1382.86 Q2248.14 1388 2248.14 1400.32 Z" fill="#000000" fill-rule="nonzero" fill-opacity="1"></path><path clip-path="url(#clip260)" d="M1019.36 1496.28 Q1019.36 1496.36 1019.28 1496.45 Q1018.74 1500.79 1017.72 1503.21 Q1016.69 1505.59 1014.4 1506.69 Q1012.72 1507.51 1010.63 1507.51 Q1007.47 1507.51 1002.92 1505.42 Q1002.76 1505.34 1001.86 1504.93 Q1000.95 1504.52 1000.63 1504.4 Q1000.3 1504.27 999.601 1504.03 Q998.904 1503.74 998.371 1503.66 Q997.838 1503.58 997.305 1503.58 Q996.157 1503.58 995.174 1504.07 Q993.165 1505.05 991.936 1506.53 Q990.665 1507.96 990.337 1510.55 Q990.255 1510.87 989.968 1511.12 Q989.681 1511.37 989.312 1511.37 Q988.943 1511.37 988.615 1511.08 Q988.288 1510.79 988.288 1510.38 Q988.288 1510.3 988.37 1510.22 Q988.902 1505.87 989.927 1503.5 Q990.952 1501.08 993.247 1499.97 Q995.051 1499.11 997.018 1499.11 Q1000.09 1499.11 1004.77 1501.24 Q1004.93 1501.32 1005.83 1501.73 Q1006.73 1502.14 1007.06 1502.27 Q1007.39 1502.39 1008.09 1502.68 Q1008.78 1502.92 1009.32 1503 Q1009.85 1503.09 1010.38 1503.09 Q1011.41 1503.09 1012.47 1502.55 Q1014.48 1501.57 1015.75 1500.13 Q1017.02 1498.7 1017.35 1496.12 Q1017.43 1495.79 1017.72 1495.54 Q1018 1495.26 1018.37 1495.26 Q1018.74 1495.26 1019.07 1495.59 Q1019.36 1495.87 1019.36 1496.28 Z" fill="#000000" fill-rule="nonzero" fill-opacity="1"></path><path clip-path="url(#clip260)" d="M1020.75 1525.27 Q1020.75 1525.68 1019.75 1527.44 Q1018.82 1529.14 1015.36 1533.41 Q1011.91 1537.68 1006.75 1542.66 Q1004.82 1544.59 1001.89 1547.29 Q998.965 1549.98 996.974 1551.74 L994.983 1553.49 Q987.37 1559.94 980.695 1567.14 Q981.164 1566.96 981.983 1566.9 Q982.803 1566.79 983.389 1566.79 L983.974 1566.79 Q987.019 1566.79 992.348 1568.84 Q997.032 1570.36 999.433 1570.36 Q1001.78 1570.36 1004.35 1569.54 Q1006.93 1568.72 1009.74 1566.32 Q1012.55 1563.92 1013.84 1560.29 Q1014.07 1559.7 1014.19 1559.53 Q1014.31 1559.29 1014.66 1559.06 Q1015.01 1558.76 1015.48 1558.76 Q1016.12 1558.76 1016.53 1559.12 Q1016.94 1559.47 1016.94 1559.94 Q1016.94 1560.99 1016.12 1563.1 Q1015.36 1565.21 1013.66 1567.84 Q1012.02 1570.48 1009.86 1572.88 Q1007.75 1575.22 1004.59 1576.86 Q1001.42 1578.44 998.086 1578.44 Q995.685 1578.44 993.929 1577.27 Q992.172 1576.16 990.415 1573.99 Q988.015 1571.24 986.726 1570.36 Q985.438 1569.42 983.447 1569.42 Q978.119 1569.42 973.258 1576.86 Q972.731 1577.91 972.38 1578.15 Q972.087 1578.44 971.385 1578.44 Q969.921 1578.38 969.921 1577.21 Q969.921 1576.74 971.209 1574.69 Q972.556 1572.58 975.542 1568.89 Q978.587 1565.21 982.276 1561.52 L993.05 1551.45 Q1005 1541.37 1009.74 1535.69 Q1007.75 1535.69 1006.87 1535.64 Q1006.05 1535.58 1004.41 1535.23 Q1002.77 1534.82 1000.49 1533.94 Q995.158 1532.12 992.933 1532.12 Q992.348 1532.12 991.704 1532.18 Q991.06 1532.24 989.596 1532.53 Q988.19 1532.82 987.019 1533.41 Q985.848 1533.94 984.618 1535.11 Q983.389 1536.22 982.745 1537.74 Q982.569 1538.21 982.452 1538.45 Q982.335 1538.68 981.983 1538.91 Q981.691 1539.09 981.222 1539.09 Q980.519 1539.09 980.11 1538.68 Q979.758 1538.27 979.758 1537.74 Q979.758 1536.69 980.812 1534.52 Q981.866 1532.36 983.623 1530.01 Q985.38 1527.61 988.249 1525.86 Q991.118 1524.1 994.28 1524.1 Q996.154 1524.1 997.735 1524.92 Q999.374 1525.74 1000.19 1526.62 Q1001.07 1527.44 1002.54 1529.25 Q1003.77 1530.66 1004.35 1531.24 Q1004.94 1531.83 1006.11 1532.47 Q1007.34 1533.06 1008.68 1533.06 Q1010.91 1533.06 1012.96 1531.36 Q1015.01 1529.6 1017.64 1525.39 Q1018.35 1524.1 1019.46 1524.1 Q1020.75 1524.1 1020.75 1525.27 Z" fill="#000000" fill-rule="nonzero" fill-opacity="1"></path><path clip-path="url(#clip260)" d="M1120.7 1519.17 Q1120.7 1498.62 1128.36 1482.05 Q1131.63 1475.1 1136.2 1469.28 Q1140.77 1463.46 1143.8 1460.9 Q1146.83 1458.35 1147.66 1458.35 Q1148.85 1458.35 1148.91 1459.54 Q1148.91 1460.13 1147.31 1461.62 Q1127.7 1481.58 1127.76 1519.17 Q1127.76 1556.89 1146.83 1576.08 Q1148.91 1578.15 1148.91 1578.81 Q1148.91 1580 1147.66 1580 Q1146.83 1580 1143.92 1577.56 Q1141.01 1575.13 1136.5 1569.54 Q1131.98 1563.96 1128.71 1557.13 Q1120.7 1540.56 1120.7 1519.17 Z" fill="#000000" fill-rule="nonzero" fill-opacity="1"></path><path clip-path="url(#clip260)" d="M1237.3 1575.28 Q1236.71 1575.98 1235.66 1575.98 Q1234.66 1575.98 1233.96 1575.28 L1209.13 1550.45 L1184.3 1575.28 Q1183.6 1575.98 1182.55 1575.98 Q1181.55 1575.98 1180.91 1575.28 Q1180.2 1574.63 1180.2 1573.64 Q1180.2 1572.64 1180.91 1571.94 L1205.73 1547.11 L1180.91 1522.28 Q1180.2 1521.58 1180.2 1520.59 Q1180.2 1519.53 1180.91 1518.95 Q1181.55 1518.24 1182.55 1518.24 Q1183.6 1518.24 1184.3 1518.95 L1209.13 1543.77 L1233.96 1518.95 Q1234.66 1518.24 1235.66 1518.24 Q1236.71 1518.24 1237.3 1518.95 Q1238 1519.53 1238 1520.59 Q1238 1521.58 1237.3 1522.28 L1212.47 1547.11 L1237.3 1571.94 Q1238 1572.64 1238 1573.7 Q1238 1574.69 1237.3 1575.28 Z" fill="#000000" fill-rule="nonzero" fill-opacity="1"></path><path clip-path="url(#clip260)" d="M1283.44 1508.64 L1283.44 1504.89 Q1297.84 1504.89 1305.28 1497.22 Q1307.33 1497.22 1307.68 1497.69 Q1308.03 1498.16 1308.03 1500.33 L1308.03 1567.61 Q1308.03 1571.18 1309.79 1572.29 Q1311.55 1573.4 1319.22 1573.4 L1323.02 1573.4 L1323.02 1577.09 Q1318.81 1576.74 1303.58 1576.74 Q1288.36 1576.74 1284.2 1577.09 L1284.2 1573.4 L1288.01 1573.4 Q1295.56 1573.4 1297.38 1572.35 Q1299.19 1571.24 1299.19 1567.61 L1299.19 1505.48 Q1292.93 1508.64 1283.44 1508.64 Z" fill="#000000" fill-rule="nonzero" fill-opacity="1"></path><path clip-path="url(#clip260)" d="M1342.83 1538.74 Q1342.83 1521.11 1347.28 1511.51 Q1353.49 1497.22 1368.13 1497.22 Q1371.23 1497.22 1374.45 1498.1 Q1377.73 1498.92 1381.83 1502.14 Q1385.99 1505.36 1388.5 1510.63 Q1393.31 1520.82 1393.31 1538.74 Q1393.31 1556.25 1388.86 1565.79 Q1382.36 1579.73 1368.01 1579.73 Q1362.62 1579.73 1357.12 1576.98 Q1351.67 1574.22 1348.22 1567.61 Q1342.83 1557.71 1342.83 1538.74 M1352.78 1537.27 Q1352.78 1555.37 1354.07 1562.57 Q1355.54 1570.36 1359.52 1573.76 Q1363.56 1577.09 1368.01 1577.09 Q1372.81 1577.09 1376.79 1573.52 Q1380.83 1569.89 1382.06 1562.1 Q1383.41 1554.43 1383.35 1537.27 Q1383.35 1520.59 1382.18 1513.91 Q1380.6 1506.12 1376.38 1503.02 Q1372.23 1499.86 1368.01 1499.86 Q1366.43 1499.86 1364.73 1500.33 Q1363.09 1500.79 1360.69 1502.14 Q1358.29 1503.49 1356.42 1506.83 Q1354.6 1510.16 1353.72 1515.2 Q1352.78 1521.7 1352.78 1537.27 Z" fill="#000000" fill-rule="nonzero" fill-opacity="1"></path><path clip-path="url(#clip260)" d="M1461.03 1492.42 Q1461.52 1492.91 1461.52 1493.61 Q1461.52 1494.3 1461.03 1494.79 Q1460.54 1495.29 1459.84 1495.29 L1407.3 1495.29 Q1406.6 1495.29 1406.11 1494.79 Q1405.61 1494.3 1405.61 1493.61 Q1405.61 1492.91 1406.11 1492.42 Q1406.6 1491.93 1407.3 1491.93 L1459.84 1491.93 Q1460.54 1491.93 1461.03 1492.42 Z" fill="#000000" fill-rule="nonzero" fill-opacity="1"></path><path clip-path="url(#clip260)" d="M1470.29 1514.59 Q1470.29 1513.08 1470.41 1512.62 Q1470.58 1512.17 1471.23 1511.48 L1487.34 1493.52 Q1496.15 1483.6 1496.15 1474.96 Q1496.15 1469.34 1493.2 1465.32 Q1490.29 1461.31 1484.92 1461.31 Q1481.23 1461.31 1478.12 1463.56 Q1475 1465.81 1473.57 1469.83 Q1473.81 1469.75 1474.67 1469.75 Q1476.77 1469.75 1477.91 1471.06 Q1479.1 1472.37 1479.1 1474.14 Q1479.1 1476.39 1477.63 1477.5 Q1476.19 1478.56 1474.76 1478.56 Q1474.18 1478.56 1473.4 1478.44 Q1472.67 1478.32 1471.48 1477.17 Q1470.29 1475.98 1470.29 1473.89 Q1470.29 1468.03 1474.72 1463.36 Q1479.18 1458.68 1485.99 1458.68 Q1493.69 1458.68 1498.74 1463.27 Q1503.82 1467.82 1503.82 1474.96 Q1503.82 1477.46 1503.04 1479.75 Q1502.3 1482.01 1501.28 1483.77 Q1500.29 1485.53 1497.59 1488.36 Q1494.88 1491.19 1492.71 1493.2 Q1490.54 1495.2 1485.66 1499.47 L1476.77 1508.12 L1491.89 1508.12 Q1499.27 1508.12 1499.84 1507.46 Q1500.66 1506.27 1501.69 1500 L1503.82 1500 L1501.44 1514.59 L1470.29 1514.59 Z" fill="#000000" fill-rule="nonzero" fill-opacity="1"></path><path clip-path="url(#clip260)" d="M1537.46 1578.81 Q1537.46 1578.21 1539.01 1576.73 Q1558.61 1556.77 1558.61 1519.17 Q1558.61 1481.46 1539.78 1462.39 Q1537.46 1460.19 1537.46 1459.54 Q1537.46 1458.35 1538.65 1458.35 Q1539.48 1458.35 1542.39 1460.79 Q1545.36 1463.22 1549.82 1468.8 Q1554.33 1474.39 1557.66 1481.22 Q1565.68 1497.79 1565.68 1519.17 Q1565.68 1539.72 1558.01 1556.3 Q1554.75 1563.25 1550.17 1569.07 Q1545.6 1574.89 1542.57 1577.44 Q1539.54 1580 1538.65 1580 Q1537.46 1580 1537.46 1578.81 Z" fill="#000000" fill-rule="nonzero" fill-opacity="1"></path><polyline clip-path="url(#clip260)" style="stroke:#000000; stroke-linecap:round; stroke-linejoin:round; stroke-width:4; stroke-opacity:1; fill:none" points="290.601,1328.42 290.601,47.2441 "></polyline>
<polyline clip-path="url(#clip260)" style="stroke:#000000; stroke-linecap:round; stroke-linejoin:round; stroke-width:4; stroke-opacity:1; fill:none" points="2257.66,1328.42 2257.66,47.2441 "></polyline>
<polyline clip-path="url(#clip260)" style="stroke:#000000; stroke-linecap:round; stroke-linejoin:round; stroke-width:4; stroke-opacity:1; fill:none" points="290.601,1292.16 305.699,1292.16 "></polyline>
<polyline clip-path="url(#clip260)" style="stroke:#000000; stroke-linecap:round; stroke-linejoin:round; stroke-width:4; stroke-opacity:1; fill:none" points="290.601,947.659 305.699,947.659 "></polyline>
<polyline clip-path="url(#clip260)" style="stroke:#000000; stroke-linecap:round; stroke-linejoin:round; stroke-width:4; stroke-opacity:1; fill:none" points="290.601,603.162 305.699,603.162 "></polyline>
<polyline clip-path="url(#clip260)" style="stroke:#000000; stroke-linecap:round; stroke-linejoin:round; stroke-width:4; stroke-opacity:1; fill:none" points="290.601,258.665 305.699,258.665 "></polyline>
<path clip-path="url(#clip260)" d="M208.675 1294.22 Q208.675 1280.28 212.195 1272.68 Q217.105 1261.38 228.684 1261.38 Q231.139 1261.38 233.687 1262.07 Q236.281 1262.72 239.523 1265.27 Q242.812 1267.82 244.803 1271.98 Q248.601 1280.04 248.601 1294.22 Q248.601 1308.07 245.081 1315.62 Q239.94 1326.64 228.592 1326.64 Q224.33 1326.64 219.976 1324.46 Q215.669 1322.29 212.936 1317.05 Q208.675 1309.22 208.675 1294.22 M216.549 1293.06 Q216.549 1307.37 217.568 1313.07 Q218.726 1319.23 221.875 1321.92 Q225.071 1324.56 228.592 1324.56 Q232.39 1324.56 235.539 1321.73 Q238.735 1318.86 239.708 1312.7 Q240.773 1306.63 240.727 1293.06 Q240.727 1279.86 239.801 1274.58 Q238.55 1268.42 235.215 1265.96 Q231.927 1263.46 228.592 1263.46 Q227.341 1263.46 225.998 1263.83 Q224.701 1264.2 222.802 1265.27 Q220.903 1266.33 219.421 1268.97 Q217.985 1271.61 217.29 1275.6 Q216.549 1280.74 216.549 1293.06 Z" fill="#000000" fill-rule="nonzero" fill-opacity="1"></path><path clip-path="url(#clip260)" d="M217.29 925.912 L217.29 922.948 Q228.684 922.948 234.567 916.88 Q236.188 916.88 236.466 917.251 Q236.744 917.621 236.744 919.335 L236.744 972.555 Q236.744 975.381 238.133 976.261 Q239.523 977.141 245.591 977.141 L248.601 977.141 L248.601 980.059 Q245.266 979.781 233.224 979.781 Q221.181 979.781 217.892 980.059 L217.892 977.141 L220.903 977.141 Q226.878 977.141 228.314 976.307 Q229.75 975.427 229.75 972.555 L229.75 923.411 Q224.794 925.912 217.29 925.912 Z" fill="#000000" fill-rule="nonzero" fill-opacity="1"></path><path clip-path="url(#clip260)" d="M210.713 635.562 Q210.713 633.848 210.852 633.339 Q211.037 632.829 211.778 632.042 L229.981 611.754 Q239.94 600.545 239.94 590.772 Q239.94 584.426 236.605 579.887 Q233.316 575.347 227.248 575.347 Q223.08 575.347 219.559 577.895 Q216.039 580.443 214.418 584.982 Q214.696 584.889 215.669 584.889 Q218.031 584.889 219.328 586.371 Q220.671 587.854 220.671 589.845 Q220.671 592.393 219.004 593.643 Q217.382 594.848 215.761 594.848 Q215.113 594.848 214.233 594.709 Q213.399 594.57 212.056 593.273 Q210.713 591.93 210.713 589.567 Q210.713 582.944 215.715 577.663 Q220.764 572.383 228.453 572.383 Q237.161 572.383 242.858 577.571 Q248.601 582.712 248.601 590.772 Q248.601 593.597 247.721 596.191 Q246.888 598.738 245.73 600.73 Q244.618 602.722 241.561 605.918 Q238.504 609.114 236.049 611.383 Q233.594 613.653 228.082 618.47 L218.031 628.244 L235.123 628.244 Q243.46 628.244 244.108 627.502 Q245.035 626.159 246.193 619.072 L248.601 619.072 L245.915 635.562 L210.713 635.562 Z" fill="#000000" fill-rule="nonzero" fill-opacity="1"></path><path clip-path="url(#clip260)" d="M209.23 278.281 Q209.23 275.455 210.852 274.112 Q212.473 272.769 214.557 272.769 Q216.734 272.769 218.263 274.205 Q219.837 275.594 219.837 278.049 Q219.837 280.689 217.985 282.172 Q216.178 283.654 213.584 283.283 Q215.854 287.081 220.023 288.795 Q224.238 290.509 228.128 290.509 Q232.205 290.509 235.493 286.989 Q238.828 283.468 238.828 274.853 Q238.828 267.535 235.956 263.32 Q233.131 259.105 227.526 259.105 L223.358 259.105 Q221.922 259.105 221.505 258.966 Q221.088 258.827 221.088 258.039 Q221.088 257.113 222.524 256.928 Q223.96 256.928 226.229 256.65 Q231.741 256.465 234.659 251.694 Q237.3 247.247 237.3 240.901 Q237.3 235.112 234.52 232.703 Q231.788 230.248 228.221 230.248 Q224.886 230.248 221.227 231.638 Q217.568 233.027 215.576 236.131 Q221.459 236.131 221.459 240.901 Q221.459 242.986 220.115 244.375 Q218.818 245.719 216.641 245.719 Q214.557 245.719 213.167 244.422 Q211.778 243.078 211.778 240.809 Q211.778 235.39 216.595 231.638 Q221.459 227.886 228.592 227.886 Q235.632 227.886 240.82 231.591 Q246.054 235.297 246.054 240.994 Q246.054 246.599 242.348 251.184 Q238.643 255.77 232.76 257.669 Q239.986 259.105 244.294 264.015 Q248.601 268.878 248.601 274.853 Q248.601 282.264 242.765 287.73 Q236.929 293.149 228.406 293.149 Q220.532 293.149 214.881 288.888 Q209.23 284.626 209.23 278.281 Z" fill="#000000" fill-rule="nonzero" fill-opacity="1"></path><path clip-path="url(#clip260)" d="M180.731 1104.01 L83.5742 1104.01 Q79.7022 1104.01 79.7022 1101.92 Q79.7022 1099.83 82.81 1099.83 L179.967 1099.83 Q183.839 1099.83 183.839 1101.92 Q183.839 1104.01 180.731 1104.01 Z" fill="#000000" fill-rule="nonzero" fill-opacity="1"></path><path clip-path="url(#clip260)" d="M119.042 1001.94 Q119.569 1001.47 120.096 1001.47 Q120.623 1001.47 122.146 1002.65 Q123.668 1003.76 125.718 1006.16 Q127.767 1008.56 129.7 1011.66 Q131.632 1014.77 132.92 1019.33 Q134.267 1023.9 134.267 1028.7 Q134.267 1037.66 128.353 1042.93 Q122.439 1048.14 113.948 1048.14 Q105.692 1048.14 97.7864 1043.52 Q89.8228 1038.89 84.9041 1031.4 Q79.9268 1023.9 79.9268 1016 Q79.9268 1009.73 82.8546 1005.81 Q85.7824 1001.88 90.2327 1001.88 Q93.6875 1001.88 95.7955 1003.88 Q97.9036 1005.87 97.9036 1008.56 Q97.9036 1010.43 96.8495 1011.72 Q95.737 1013.01 93.6875 1013.01 Q91.0525 1013.01 89.003 1010.84 Q88.1832 1010.02 87.8319 1009.09 Q87.422 1008.09 87.422 1007.51 Q87.3635 1006.92 87.3635 1005.57 Q85.0798 1006.8 83.8501 1009.73 Q82.5619 1012.6 82.5619 1015.88 Q82.5619 1020.74 85.9581 1025.37 Q89.2958 1029.99 94.5659 1032.8 Q99.7188 1035.61 107.038 1037.43 Q114.299 1039.24 118.515 1039.24 Q124.312 1039.24 127.943 1036.55 Q131.573 1033.86 131.573 1028.47 Q131.573 1027.41 131.515 1026.3 Q131.456 1025.13 130.812 1022.2 Q130.168 1019.22 129.055 1016.58 Q127.943 1013.95 125.542 1010.61 Q123.083 1007.21 119.745 1004.52 Q118.515 1003.58 118.515 1002.94 Q118.515 1002.41 119.042 1001.94 Z" fill="#000000" fill-rule="nonzero" fill-opacity="1"></path><path clip-path="url(#clip260)" d="M143.787 945.274 Q149.772 945.274 155.551 948.308 Q161.331 951.3 164.897 956.014 Q168.422 960.727 168.422 965.523 Q168.422 968.392 166.864 970.319 Q165.266 972.204 163.011 973.229 Q165.798 974.008 172.48 975.688 Q179.161 977.369 179.817 977.369 Q180.186 977.369 180.35 977.287 Q180.514 977.205 180.718 976.836 Q180.964 976.467 181.046 975.565 Q181.169 974.664 181.169 973.147 Q181.169 972.368 181.169 972.081 Q181.21 971.753 181.415 971.466 Q181.62 971.139 182.071 971.139 Q183.752 971.139 183.752 972.655 Q183.752 974.008 183.629 976.795 Q183.506 979.582 183.506 980.976 Q183.506 982.165 183.629 984.542 Q183.752 986.919 183.752 988.026 Q183.752 989.133 182.768 989.133 Q182.194 989.133 181.825 988.969 Q181.497 988.846 181.333 988.518 Q181.21 988.19 181.169 987.903 Q181.169 987.657 181.169 987.165 Q181.169 985.28 180.841 984.46 Q180.555 983.64 179.94 983.353 Q179.366 983.025 177.726 982.657 L140.344 973.229 Q137.844 972.655 136.081 972.655 Q133.868 972.655 133.048 973.352 Q132.228 974.049 132.228 975.278 Q132.228 977.41 134.77 978.804 Q137.311 980.197 142.23 981.386 Q143.582 981.755 143.869 982.001 Q144.156 982.206 144.156 982.82 Q144.115 983.845 143.295 983.845 Q143.09 983.845 141.779 983.517 Q140.426 983.189 138.459 982.575 Q136.45 981.919 135.179 981.222 Q134.319 980.812 133.745 980.443 Q133.171 980.074 132.269 979.336 Q131.367 978.558 130.876 977.451 Q130.384 976.344 130.384 974.992 Q130.384 972.368 131.941 970.196 Q133.499 968.023 136.655 967.45 Q133.909 965.113 132.146 962.244 Q130.384 959.375 130.384 956.464 Q130.384 951.628 134.155 948.471 Q137.885 945.274 143.787 945.274 M140.098 951.341 Q136.368 951.341 134.319 952.775 Q132.228 954.169 132.228 956.71 Q132.228 959.866 135.425 963.515 Q138.459 967.122 141.287 967.859 L157.724 971.999 L159.076 972.245 Q159.322 972.245 160.06 972.122 Q160.757 971.958 161.904 971.507 Q163.052 971.016 164.077 970.36 Q165.061 969.663 165.798 968.433 Q166.536 967.163 166.536 965.605 Q166.536 963.105 164.323 960.399 Q162.109 957.653 157.928 955.604 Q155.223 954.333 149.403 952.857 Q143.541 951.341 140.098 951.341 Z" fill="#000000" fill-rule="nonzero" fill-opacity="1"></path><path clip-path="url(#clip260)" d="M140.631 940.932 Q128.293 940.932 121.571 937.817 Q111.57 933.472 111.57 923.224 Q111.57 921.052 112.184 918.798 Q112.758 916.502 115.013 913.633 Q117.267 910.723 120.956 908.96 Q128.088 905.599 140.631 905.599 Q152.887 905.599 159.568 908.714 Q169.323 913.264 169.323 923.306 Q169.323 927.077 167.397 930.93 Q165.47 934.742 160.839 937.161 Q153.912 940.932 140.631 940.932 M139.606 933.964 Q152.272 933.964 157.314 933.062 Q162.765 932.037 165.143 929.25 Q167.479 926.422 167.479 923.306 Q167.479 919.945 164.979 917.158 Q162.437 914.33 156.986 913.469 Q151.616 912.526 139.606 912.567 Q127.924 912.567 123.252 913.387 Q117.8 914.494 115.628 917.445 Q113.414 920.355 113.414 923.306 Q113.414 924.413 113.742 925.602 Q114.07 926.75 115.013 928.43 Q115.955 930.111 118.292 931.422 Q120.628 932.693 124.153 933.308 Q128.703 933.964 139.606 933.964 Z" fill="#000000" fill-rule="nonzero" fill-opacity="1"></path><path clip-path="url(#clip260)" d="M180.731 873.758 L83.5742 873.758 Q79.7022 873.758 79.7022 871.67 Q79.7022 869.581 82.81 869.581 L179.967 869.581 Q183.839 869.581 183.839 871.67 Q183.839 873.758 180.731 873.758 Z" fill="#000000" fill-rule="nonzero" fill-opacity="1"></path><path clip-path="url(#clip260)" d="M74.6723 735.633 Q54.0096 735.633 37.3481 727.929 Q30.361 724.644 24.5086 720.046 Q18.6561 715.448 16.0882 712.402 Q13.5203 709.356 13.5203 708.52 Q13.5203 707.326 14.7147 707.266 Q15.3119 707.266 16.8048 708.879 Q36.8703 728.586 74.6723 728.526 Q112.594 728.526 131.883 709.356 Q133.973 707.266 134.63 707.266 Q135.824 707.266 135.824 708.52 Q135.824 709.356 133.376 712.283 Q130.927 715.209 125.314 719.747 Q119.7 724.286 112.833 727.571 Q96.171 735.633 74.6723 735.633 Z" fill="#000000" fill-rule="nonzero" fill-opacity="1"></path><path clip-path="url(#clip260)" d="M131.105 618.778 Q131.808 619.363 131.808 620.417 Q131.808 621.413 131.105 622.115 L106.277 646.943 L131.105 671.771 Q131.808 672.474 131.808 673.528 Q131.808 674.523 131.105 675.167 Q130.461 675.87 129.465 675.87 Q128.47 675.87 127.767 675.167 L102.939 650.339 L78.1116 675.167 Q77.4089 675.87 76.4135 675.87 Q75.3595 675.87 74.7739 675.167 Q74.0712 674.523 74.0712 673.528 Q74.0712 672.474 74.7739 671.771 L99.6017 646.943 L74.7739 622.115 Q74.0712 621.413 74.0712 620.417 Q74.0712 619.363 74.7739 618.778 Q75.3595 618.075 76.4135 618.075 Q77.4089 618.075 78.1116 618.778 L102.939 643.605 L127.767 618.778 Q128.47 618.075 129.524 618.075 Q130.519 618.075 131.105 618.778 Z" fill="#000000" fill-rule="nonzero" fill-opacity="1"></path><path clip-path="url(#clip260)" d="M64.468 572.634 L60.7204 572.634 Q60.7204 558.229 53.0496 550.793 Q53.0496 548.743 53.518 548.392 Q53.9865 548.041 56.153 548.041 L123.434 548.041 Q127.006 548.041 128.119 546.284 Q129.231 544.527 129.231 536.856 L129.231 533.05 L132.92 533.05 Q132.569 537.266 132.569 552.491 Q132.569 567.716 132.92 571.873 L129.231 571.873 L129.231 568.067 Q129.231 560.513 128.177 558.698 Q127.064 556.883 123.434 556.883 L61.306 556.883 Q64.468 563.148 64.468 572.634 Z" fill="#000000" fill-rule="nonzero" fill-opacity="1"></path><path clip-path="url(#clip260)" d="M94.5659 513.244 Q76.9405 513.244 67.3373 508.793 Q53.0496 502.586 53.0496 487.947 Q53.0496 484.844 53.9279 481.623 Q54.7477 478.344 57.9683 474.245 Q61.1889 470.088 66.4589 467.57 Q76.6477 462.768 94.5659 462.768 Q112.074 462.768 121.619 467.218 Q135.555 473.718 135.555 488.064 Q135.555 493.452 132.803 498.956 Q130.051 504.402 123.434 507.856 Q113.538 513.244 94.5659 513.244 M93.102 503.289 Q111.196 503.289 118.398 502.001 Q126.186 500.537 129.582 496.555 Q132.92 492.515 132.92 488.064 Q132.92 483.263 129.348 479.281 Q125.718 475.241 117.93 474.011 Q110.259 472.664 93.102 472.723 Q76.4135 472.723 69.7381 473.894 Q61.9501 475.475 58.8466 479.691 Q55.6846 483.848 55.6846 488.064 Q55.6846 489.645 56.153 491.344 Q56.6215 492.983 57.9683 495.384 Q59.3151 497.785 62.6528 499.659 Q65.9905 501.474 71.0263 502.352 Q77.526 503.289 93.102 503.289 Z" fill="#000000" fill-rule="nonzero" fill-opacity="1"></path><path clip-path="url(#clip260)" d="M48.5238 395.042 Q49.0157 394.55 49.7125 394.55 Q50.4093 394.55 50.9012 395.042 Q51.3931 395.534 51.3931 396.23 L51.3931 448.779 Q51.3931 449.475 50.9012 449.967 Q50.4093 450.459 49.7125 450.459 Q49.0157 450.459 48.5238 449.967 Q48.032 449.475 48.032 448.779 L48.032 396.23 Q48.032 395.534 48.5238 395.042 Z" fill="#000000" fill-rule="nonzero" fill-opacity="1"></path><path clip-path="url(#clip260)" d="M56.8447 385.785 L54.2623 385.785 L14.8716 360.003 Q13.8469 359.347 13.8879 358.322 Q13.8879 357.379 14.2568 357.174 Q14.6257 356.969 16.0603 356.969 L54.2623 356.969 L54.2623 348.567 L56.8447 348.567 L56.8447 356.969 L64.1408 356.969 Q66.5591 356.969 67.3379 355.986 Q68.1167 354.961 68.1167 350.616 L68.1167 348.854 L70.699 348.854 Q70.4531 352.297 70.4531 360.249 Q70.4531 368.16 70.699 371.603 L68.1167 371.603 L68.1167 369.84 Q68.1167 365.495 67.3789 364.47 Q66.6001 363.446 64.1408 363.446 L56.8447 363.446 L56.8447 385.785 M54.2623 383.408 L54.2623 362.954 L22.9465 362.954 L54.2623 383.408 Z" fill="#000000" fill-rule="nonzero" fill-opacity="1"></path><path clip-path="url(#clip260)" d="M134.63 318.611 Q134.033 318.611 132.54 317.059 Q112.474 297.352 74.6723 297.352 Q36.7509 297.352 17.5812 316.282 Q15.3716 318.611 14.7147 318.611 Q13.5203 318.611 13.5203 317.417 Q13.5203 316.581 15.9688 313.655 Q18.4172 310.669 24.0308 306.19 Q29.6444 301.651 36.512 298.307 Q53.1735 290.245 74.6723 290.245 Q95.3349 290.245 111.996 297.949 Q118.984 301.233 124.836 305.832 Q130.688 310.43 133.256 313.476 Q135.824 316.521 135.824 317.417 Q135.824 318.611 134.63 318.611 Z" fill="#000000" fill-rule="nonzero" fill-opacity="1"></path><polyline clip-path="url(#clip262)" style="stroke:#e31a1c; stroke-linecap:round; stroke-linejoin:round; stroke-width:16; stroke-opacity:1; fill:none" points="346.273,1292.16 375.729,1241.92 405.184,1191.78 434.64,1141.82 464.096,1092.13 493.552,1042.79 523.007,993.892 552.463,945.529 581.919,897.781 611.375,850.735 640.83,804.471 670.286,759.073 699.742,714.617 729.198,671.183 758.653,628.844 788.109,587.673 817.565,547.741 847.021,509.114 876.476,471.858 905.932,436.033 935.388,401.699 964.844,368.911 994.299,337.719 1023.76,308.174 1053.21,280.319 1082.67,254.196 1112.12,229.841 1141.58,207.289 1171.03,186.567 1200.49,167.703 1229.95,150.716 1259.4,135.623 1288.86,122.437 1318.31,111.166 1347.77,101.814 1377.22,94.3788 1406.68,88.8563 1436.14,85.2361 1465.59,83.5037 1495.05,83.6396 1524.5,85.6198 1553.96,89.4156 1583.41,94.9931 1612.87,102.314 1642.33,111.335 1671.78,122.006 1701.24,134.275 1730.69,148.083 1760.15,163.365 1789.6,180.051 1819.06,198.066 1848.52,217.329 1877.97,237.752 1907.43,259.24 1936.88,281.694 1966.34,305.006 1995.8,329.059 2025.25,353.731 2054.71,378.889 2084.16,404.391 2113.62,430.087 2143.07,455.815 2172.53,481.402 2201.99,506.664 "></polyline>
<polyline clip-path="url(#clip262)" style="stroke:#377db8; stroke-linecap:round; stroke-linejoin:round; stroke-width:16; stroke-opacity:1; fill:none" points="346.273,1292.16 375.729,1291.68 405.184,1290.24 434.64,1287.84 464.096,1284.49 493.552,1280.21 523.007,1274.99 552.463,1268.85 581.919,1261.81 611.375,1253.88 640.83,1245.09 670.286,1235.45 699.742,1224.99 729.198,1213.74 758.653,1201.72 788.109,1188.96 817.565,1175.49 847.021,1161.35 876.476,1146.58 905.932,1131.2 935.388,1115.26 964.844,1098.79 994.299,1081.84 1023.76,1064.45 1053.21,1046.66 1082.67,1028.52 1112.12,1010.07 1141.58,991.358 1171.03,972.428 1200.49,953.33 1229.95,934.11 1259.4,914.817 1288.86,895.5 1318.31,876.207 1347.77,856.986 1377.22,837.886 1406.68,818.955 1436.14,800.24 1465.59,781.79 1495.05,763.652 1524.5,745.871 1553.96,728.493 1583.41,711.562 1612.87,695.122 1642.33,679.216 1671.78,663.885 1701.24,649.169 1730.69,635.105 1760.15,621.732 1789.6,609.085 1819.06,597.197 1848.52,586.1 1877.97,575.824 1907.43,566.398 1936.88,557.848 1966.34,550.197 1995.8,543.467 2025.25,537.678 2054.71,532.847 2084.16,528.99 2113.62,526.118 2143.07,524.242 2172.53,523.368 2201.99,523.504 "></polyline>
<polyline clip-path="url(#clip262)" style="stroke:#4dae49; stroke-linecap:round; stroke-linejoin:round; stroke-width:16; stroke-opacity:1; fill:none" points="346.273,1292.16 375.729,1292.04 405.184,1291.69 434.64,1291.1 464.096,1290.27 493.552,1289.21 523.007,1287.91 552.463,1286.36 581.919,1284.57 611.375,1282.53 640.83,1280.25 670.286,1277.71 699.742,1274.92 729.198,1271.86 758.653,1268.55 788.109,1264.97 817.565,1261.12 847.021,1257 876.476,1252.61 905.932,1247.94 935.388,1243 964.844,1237.78 994.299,1232.28 1023.76,1226.5 1053.21,1220.45 1082.67,1214.12 1112.12,1207.51 1141.58,1200.62 1171.03,1193.47 1200.49,1186.05 1229.95,1178.37 1259.4,1170.44 1288.86,1162.25 1318.31,1153.82 1347.77,1145.15 1377.22,1136.26 1406.68,1127.15 1436.14,1117.84 1465.59,1108.33 1495.05,1098.63 1524.5,1088.77 1553.96,1078.75 1583.41,1068.59 1612.87,1058.3 1642.33,1047.91 1671.78,1037.42 1701.24,1026.85 1730.69,1016.22 1760.15,1005.56 1789.6,994.874 1819.06,984.187 1848.52,973.52 1877.97,962.893 1907.43,952.326 1936.88,941.841 1966.34,931.46 1995.8,921.204 2025.25,911.094 2054.71,901.154 2084.16,891.404 2113.62,881.867 2143.07,872.566 2172.53,863.52 2201.99,854.754 "></polyline>
<path clip-path="url(#clip262)" d="M346.273 1264.16 L318.273 1292.16 L346.273 1320.16 L374.273 1292.16 L346.273 1264.16 Z" fill="#e31a1c" fill-rule="evenodd" fill-opacity="1" stroke="#000000" stroke-opacity="1" stroke-width="0"></path>
<path clip-path="url(#clip262)" d="M434.64 1113.81 L406.64 1141.81 L434.64 1169.81 L462.64 1141.81 L434.64 1113.81 Z" fill="#e31a1c" fill-rule="evenodd" fill-opacity="1" stroke="#000000" stroke-opacity="1" stroke-width="0"></path>
<path clip-path="url(#clip262)" d="M523.007 965.83 L495.007 993.83 L523.007 1021.83 L551.007 993.83 L523.007 965.83 Z" fill="#e31a1c" fill-rule="evenodd" fill-opacity="1" stroke="#000000" stroke-opacity="1" stroke-width="0"></path>
<path clip-path="url(#clip262)" d="M611.375 822.536 L583.375 850.536 L611.375 878.536 L639.375 850.536 L611.375 822.536 Z" fill="#e31a1c" fill-rule="evenodd" fill-opacity="1" stroke="#000000" stroke-opacity="1" stroke-width="0"></path>
<path clip-path="url(#clip262)" d="M699.742 686.181 L671.742 714.181 L699.742 742.181 L727.742 714.181 L699.742 686.181 Z" fill="#e31a1c" fill-rule="evenodd" fill-opacity="1" stroke="#000000" stroke-opacity="1" stroke-width="0"></path>
<path clip-path="url(#clip262)" d="M788.109 558.909 L760.109 586.909 L788.109 614.909 L816.109 586.909 L788.109 558.909 Z" fill="#e31a1c" fill-rule="evenodd" fill-opacity="1" stroke="#000000" stroke-opacity="1" stroke-width="0"></path>
<path clip-path="url(#clip262)" d="M876.476 442.716 L848.476 470.716 L876.476 498.716 L904.476 470.716 L876.476 442.716 Z" fill="#e31a1c" fill-rule="evenodd" fill-opacity="1" stroke="#000000" stroke-opacity="1" stroke-width="0"></path>
<path clip-path="url(#clip262)" d="M964.844 339.419 L936.844 367.419 L964.844 395.419 L992.844 367.419 L964.844 339.419 Z" fill="#e31a1c" fill-rule="evenodd" fill-opacity="1" stroke="#000000" stroke-opacity="1" stroke-width="0"></path>
<path clip-path="url(#clip262)" d="M1053.21 250.618 L1025.21 278.618 L1053.21 306.618 L1081.21 278.618 L1053.21 250.618 Z" fill="#e31a1c" fill-rule="evenodd" fill-opacity="1" stroke="#000000" stroke-opacity="1" stroke-width="0"></path>
<path clip-path="url(#clip262)" d="M1141.58 177.665 L1113.58 205.665 L1141.58 233.665 L1169.58 205.665 L1141.58 177.665 Z" fill="#e31a1c" fill-rule="evenodd" fill-opacity="1" stroke="#000000" stroke-opacity="1" stroke-width="0"></path>
<path clip-path="url(#clip262)" d="M1229.95 121.627 L1201.95 149.627 L1229.95 177.627 L1257.95 149.627 L1229.95 121.627 Z" fill="#e31a1c" fill-rule="evenodd" fill-opacity="1" stroke="#000000" stroke-opacity="1" stroke-width="0"></path>
<path clip-path="url(#clip262)" d="M1318.31 83.2546 L1290.31 111.255 L1318.31 139.255 L1346.31 111.255 L1318.31 83.2546 Z" fill="#e31a1c" fill-rule="evenodd" fill-opacity="1" stroke="#000000" stroke-opacity="1" stroke-width="0"></path>
<path clip-path="url(#clip262)" d="M1406.68 62.9459 L1378.68 90.9459 L1406.68 118.946 L1434.68 90.9459 L1406.68 62.9459 Z" fill="#e31a1c" fill-rule="evenodd" fill-opacity="1" stroke="#000000" stroke-opacity="1" stroke-width="0"></path>
<path clip-path="url(#clip262)" d="M1495.05 60.7103 L1467.05 88.7103 L1495.05 116.71 L1523.05 88.7103 L1495.05 60.7103 Z" fill="#e31a1c" fill-rule="evenodd" fill-opacity="1" stroke="#000000" stroke-opacity="1" stroke-width="0"></path>
<path clip-path="url(#clip262)" d="M1583.41 76.1277 L1555.41 104.128 L1583.41 132.128 L1611.41 104.128 L1583.41 76.1277 Z" fill="#e31a1c" fill-rule="evenodd" fill-opacity="1" stroke="#000000" stroke-opacity="1" stroke-width="0"></path>
<path clip-path="url(#clip262)" d="M1671.78 108.3 L1643.78 136.3 L1671.78 164.3 L1699.78 136.3 L1671.78 108.3 Z" fill="#e31a1c" fill-rule="evenodd" fill-opacity="1" stroke="#000000" stroke-opacity="1" stroke-width="0"></path>
<path clip-path="url(#clip262)" d="M1760.15 155.787 L1732.15 183.787 L1760.15 211.787 L1788.15 183.787 L1760.15 155.787 Z" fill="#e31a1c" fill-rule="evenodd" fill-opacity="1" stroke="#000000" stroke-opacity="1" stroke-width="0"></path>
<path clip-path="url(#clip262)" d="M1848.52 216.523 L1820.52 244.523 L1848.52 272.523 L1876.52 244.523 L1848.52 216.523 Z" fill="#e31a1c" fill-rule="evenodd" fill-opacity="1" stroke="#000000" stroke-opacity="1" stroke-width="0"></path>
<path clip-path="url(#clip262)" d="M1936.88 287.697 L1908.88 315.697 L1936.88 343.697 L1964.88 315.697 L1936.88 287.697 Z" fill="#e31a1c" fill-rule="evenodd" fill-opacity="1" stroke="#000000" stroke-opacity="1" stroke-width="0"></path>
<path clip-path="url(#clip262)" d="M2025.25 365.578 L1997.25 393.578 L2025.25 421.578 L2053.25 393.578 L2025.25 365.578 Z" fill="#e31a1c" fill-rule="evenodd" fill-opacity="1" stroke="#000000" stroke-opacity="1" stroke-width="0"></path>
<path clip-path="url(#clip262)" d="M2113.62 445.295 L2085.62 473.295 L2113.62 501.295 L2141.62 473.295 L2113.62 445.295 Z" fill="#e31a1c" fill-rule="evenodd" fill-opacity="1" stroke="#000000" stroke-opacity="1" stroke-width="0"></path>
<path clip-path="url(#clip262)" d="M2201.99 520.625 L2173.99 548.625 L2201.99 576.625 L2229.99 548.625 L2201.99 520.625 Z" fill="#e31a1c" fill-rule="evenodd" fill-opacity="1" stroke="#000000" stroke-opacity="1" stroke-width="0"></path>
<path clip-path="url(#clip262)" d="M346.273 1264.16 L318.273 1292.16 L346.273 1320.16 L374.273 1292.16 L346.273 1264.16 Z" fill="#377db8" fill-rule="evenodd" fill-opacity="1" stroke="#000000" stroke-opacity="1" stroke-width="0"></path>
<path clip-path="url(#clip262)" d="M434.64 1259.89 L406.64 1287.89 L434.64 1315.89 L462.64 1287.89 L434.64 1259.89 Z" fill="#377db8" fill-rule="evenodd" fill-opacity="1" stroke="#000000" stroke-opacity="1" stroke-width="0"></path>
<path clip-path="url(#clip262)" d="M523.007 1247.17 L495.007 1275.17 L523.007 1303.17 L551.007 1275.17 L523.007 1247.17 Z" fill="#377db8" fill-rule="evenodd" fill-opacity="1" stroke="#000000" stroke-opacity="1" stroke-width="0"></path>
<path clip-path="url(#clip262)" d="M611.375 1226.25 L583.375 1254.25 L611.375 1282.25 L639.375 1254.25 L611.375 1226.25 Z" fill="#377db8" fill-rule="evenodd" fill-opacity="1" stroke="#000000" stroke-opacity="1" stroke-width="0"></path>
<path clip-path="url(#clip262)" d="M699.742 1197.57 L671.742 1225.57 L699.742 1253.57 L727.742 1225.57 L699.742 1197.57 Z" fill="#377db8" fill-rule="evenodd" fill-opacity="1" stroke="#000000" stroke-opacity="1" stroke-width="0"></path>
<path clip-path="url(#clip262)" d="M788.109 1161.71 L760.109 1189.71 L788.109 1217.71 L816.109 1189.71 L788.109 1161.71 Z" fill="#377db8" fill-rule="evenodd" fill-opacity="1" stroke="#000000" stroke-opacity="1" stroke-width="0"></path>
<path clip-path="url(#clip262)" d="M876.476 1119.4 L848.476 1147.4 L876.476 1175.4 L904.476 1147.4 L876.476 1119.4 Z" fill="#377db8" fill-rule="evenodd" fill-opacity="1" stroke="#000000" stroke-opacity="1" stroke-width="0"></path>
<path clip-path="url(#clip262)" d="M964.844 1071.54 L936.844 1099.54 L964.844 1127.54 L992.844 1099.54 L964.844 1071.54 Z" fill="#377db8" fill-rule="evenodd" fill-opacity="1" stroke="#000000" stroke-opacity="1" stroke-width="0"></path>
<path clip-path="url(#clip262)" d="M1053.21 1019.15 L1025.21 1047.15 L1053.21 1075.15 L1081.21 1047.15 L1053.21 1019.15 Z" fill="#377db8" fill-rule="evenodd" fill-opacity="1" stroke="#000000" stroke-opacity="1" stroke-width="0"></path>
<path clip-path="url(#clip262)" d="M1141.58 963.342 L1113.58 991.342 L1141.58 1019.34 L1169.58 991.342 L1141.58 963.342 Z" fill="#377db8" fill-rule="evenodd" fill-opacity="1" stroke="#000000" stroke-opacity="1" stroke-width="0"></path>
<path clip-path="url(#clip262)" d="M1229.95 905.365 L1201.95 933.365 L1229.95 961.365 L1257.95 933.365 L1229.95 905.365 Z" fill="#377db8" fill-rule="evenodd" fill-opacity="1" stroke="#000000" stroke-opacity="1" stroke-width="0"></path>
<path clip-path="url(#clip262)" d="M1318.31 846.529 L1290.31 874.529 L1318.31 902.529 L1346.31 874.529 L1318.31 846.529 Z" fill="#377db8" fill-rule="evenodd" fill-opacity="1" stroke="#000000" stroke-opacity="1" stroke-width="0"></path>
<path clip-path="url(#clip262)" d="M1406.68 788.203 L1378.68 816.203 L1406.68 844.203 L1434.68 816.203 L1406.68 788.203 Z" fill="#377db8" fill-rule="evenodd" fill-opacity="1" stroke="#000000" stroke-opacity="1" stroke-width="0"></path>
<path clip-path="url(#clip262)" d="M1495.05 731.797 L1467.05 759.797 L1495.05 787.797 L1523.05 759.797 L1495.05 731.797 Z" fill="#377db8" fill-rule="evenodd" fill-opacity="1" stroke="#000000" stroke-opacity="1" stroke-width="0"></path>
<path clip-path="url(#clip262)" d="M1583.41 678.724 L1555.41 706.724 L1583.41 734.724 L1611.41 706.724 L1583.41 678.724 Z" fill="#377db8" fill-rule="evenodd" fill-opacity="1" stroke="#000000" stroke-opacity="1" stroke-width="0"></path>
<path clip-path="url(#clip262)" d="M1671.78 630.381 L1643.78 658.381 L1671.78 686.381 L1699.78 658.381 L1671.78 630.381 Z" fill="#377db8" fill-rule="evenodd" fill-opacity="1" stroke="#000000" stroke-opacity="1" stroke-width="0"></path>
<path clip-path="url(#clip262)" d="M1760.15 588.114 L1732.15 616.114 L1760.15 644.114 L1788.15 616.114 L1760.15 588.114 Z" fill="#377db8" fill-rule="evenodd" fill-opacity="1" stroke="#000000" stroke-opacity="1" stroke-width="0"></path>
<path clip-path="url(#clip262)" d="M1848.52 553.186 L1820.52 581.186 L1848.52 609.186 L1876.52 581.186 L1848.52 553.186 Z" fill="#377db8" fill-rule="evenodd" fill-opacity="1" stroke="#000000" stroke-opacity="1" stroke-width="0"></path>
<path clip-path="url(#clip262)" d="M1936.88 526.74 L1908.88 554.74 L1936.88 582.74 L1964.88 554.74 L1936.88 526.74 Z" fill="#377db8" fill-rule="evenodd" fill-opacity="1" stroke="#000000" stroke-opacity="1" stroke-width="0"></path>
<path clip-path="url(#clip262)" d="M2025.25 509.763 L1997.25 537.763 L2025.25 565.763 L2053.25 537.763 L2025.25 509.763 Z" fill="#377db8" fill-rule="evenodd" fill-opacity="1" stroke="#000000" stroke-opacity="1" stroke-width="0"></path>
<path clip-path="url(#clip262)" d="M2113.62 503.04 L2085.62 531.04 L2113.62 559.04 L2141.62 531.04 L2113.62 503.04 Z" fill="#377db8" fill-rule="evenodd" fill-opacity="1" stroke="#000000" stroke-opacity="1" stroke-width="0"></path>
<path clip-path="url(#clip262)" d="M2201.99 507.108 L2173.99 535.108 L2201.99 563.108 L2229.99 535.108 L2201.99 507.108 Z" fill="#377db8" fill-rule="evenodd" fill-opacity="1" stroke="#000000" stroke-opacity="1" stroke-width="0"></path>
<path clip-path="url(#clip262)" d="M346.273 1264.16 L318.273 1292.16 L346.273 1320.16 L374.273 1292.16 L346.273 1264.16 Z" fill="#4dae49" fill-rule="evenodd" fill-opacity="1" stroke="#000000" stroke-opacity="1" stroke-width="0"></path>
<path clip-path="url(#clip262)" d="M434.64 1263.1 L406.64 1291.1 L434.64 1319.1 L462.64 1291.1 L434.64 1263.1 Z" fill="#4dae49" fill-rule="evenodd" fill-opacity="1" stroke="#000000" stroke-opacity="1" stroke-width="0"></path>
<path clip-path="url(#clip262)" d="M523.007 1259.9 L495.007 1287.9 L523.007 1315.9 L551.007 1287.9 L523.007 1259.9 Z" fill="#4dae49" fill-rule="evenodd" fill-opacity="1" stroke="#000000" stroke-opacity="1" stroke-width="0"></path>
<path clip-path="url(#clip262)" d="M611.375 1254.53 L583.375 1282.53 L611.375 1310.53 L639.375 1282.53 L611.375 1254.53 Z" fill="#4dae49" fill-rule="evenodd" fill-opacity="1" stroke="#000000" stroke-opacity="1" stroke-width="0"></path>
<path clip-path="url(#clip262)" d="M699.742 1246.89 L671.742 1274.89 L699.742 1302.89 L727.742 1274.89 L699.742 1246.89 Z" fill="#4dae49" fill-rule="evenodd" fill-opacity="1" stroke="#000000" stroke-opacity="1" stroke-width="0"></path>
<path clip-path="url(#clip262)" d="M788.109 1236.91 L760.109 1264.91 L788.109 1292.91 L816.109 1264.91 L788.109 1236.91 Z" fill="#4dae49" fill-rule="evenodd" fill-opacity="1" stroke="#000000" stroke-opacity="1" stroke-width="0"></path>
<path clip-path="url(#clip262)" d="M876.476 1224.48 L848.476 1252.48 L876.476 1280.48 L904.476 1252.48 L876.476 1224.48 Z" fill="#4dae49" fill-rule="evenodd" fill-opacity="1" stroke="#000000" stroke-opacity="1" stroke-width="0"></path>
<path clip-path="url(#clip262)" d="M964.844 1209.53 L936.844 1237.53 L964.844 1265.53 L992.844 1237.53 L964.844 1209.53 Z" fill="#4dae49" fill-rule="evenodd" fill-opacity="1" stroke="#000000" stroke-opacity="1" stroke-width="0"></path>
<path clip-path="url(#clip262)" d="M1053.21 1191.99 L1025.21 1219.99 L1053.21 1247.99 L1081.21 1219.99 L1053.21 1191.99 Z" fill="#4dae49" fill-rule="evenodd" fill-opacity="1" stroke="#000000" stroke-opacity="1" stroke-width="0"></path>
<path clip-path="url(#clip262)" d="M1141.58 1171.86 L1113.58 1199.86 L1141.58 1227.86 L1169.58 1199.86 L1141.58 1171.86 Z" fill="#4dae49" fill-rule="evenodd" fill-opacity="1" stroke="#000000" stroke-opacity="1" stroke-width="0"></path>
<path clip-path="url(#clip262)" d="M1229.95 1149.16 L1201.95 1177.16 L1229.95 1205.16 L1257.95 1177.16 L1229.95 1149.16 Z" fill="#4dae49" fill-rule="evenodd" fill-opacity="1" stroke="#000000" stroke-opacity="1" stroke-width="0"></path>
<path clip-path="url(#clip262)" d="M1318.31 1124 L1290.31 1152 L1318.31 1180 L1346.31 1152 L1318.31 1124 Z" fill="#4dae49" fill-rule="evenodd" fill-opacity="1" stroke="#000000" stroke-opacity="1" stroke-width="0"></path>
<path clip-path="url(#clip262)" d="M1406.68 1096.54 L1378.68 1124.54 L1406.68 1152.54 L1434.68 1124.54 L1406.68 1096.54 Z" fill="#4dae49" fill-rule="evenodd" fill-opacity="1" stroke="#000000" stroke-opacity="1" stroke-width="0"></path>
<path clip-path="url(#clip262)" d="M1495.05 1067.04 L1467.05 1095.04 L1495.05 1123.04 L1523.05 1095.04 L1495.05 1067.04 Z" fill="#4dae49" fill-rule="evenodd" fill-opacity="1" stroke="#000000" stroke-opacity="1" stroke-width="0"></path>
<path clip-path="url(#clip262)" d="M1583.41 1035.82 L1555.41 1063.82 L1583.41 1091.82 L1611.41 1063.82 L1583.41 1035.82 Z" fill="#4dae49" fill-rule="evenodd" fill-opacity="1" stroke="#000000" stroke-opacity="1" stroke-width="0"></path>
<path clip-path="url(#clip262)" d="M1671.78 1003.32 L1643.78 1031.32 L1671.78 1059.32 L1699.78 1031.32 L1671.78 1003.32 Z" fill="#4dae49" fill-rule="evenodd" fill-opacity="1" stroke="#000000" stroke-opacity="1" stroke-width="0"></path>
<path clip-path="url(#clip262)" d="M1760.15 970.028 L1732.15 998.028 L1760.15 1026.03 L1788.15 998.028 L1760.15 970.028 Z" fill="#4dae49" fill-rule="evenodd" fill-opacity="1" stroke="#000000" stroke-opacity="1" stroke-width="0"></path>
<path clip-path="url(#clip262)" d="M1848.52 936.552 L1820.52 964.552 L1848.52 992.552 L1876.52 964.552 L1848.52 936.552 Z" fill="#4dae49" fill-rule="evenodd" fill-opacity="1" stroke="#000000" stroke-opacity="1" stroke-width="0"></path>
<path clip-path="url(#clip262)" d="M1936.88 903.561 L1908.88 931.561 L1936.88 959.561 L1964.88 931.561 L1936.88 903.561 Z" fill="#4dae49" fill-rule="evenodd" fill-opacity="1" stroke="#000000" stroke-opacity="1" stroke-width="0"></path>
<path clip-path="url(#clip262)" d="M2025.25 871.802 L1997.25 899.802 L2025.25 927.802 L2053.25 899.802 L2025.25 871.802 Z" fill="#4dae49" fill-rule="evenodd" fill-opacity="1" stroke="#000000" stroke-opacity="1" stroke-width="0"></path>
<path clip-path="url(#clip262)" d="M2113.62 842.081 L2085.62 870.081 L2113.62 898.081 L2141.62 870.081 L2113.62 842.081 Z" fill="#4dae49" fill-rule="evenodd" fill-opacity="1" stroke="#000000" stroke-opacity="1" stroke-width="0"></path>
<path clip-path="url(#clip262)" d="M2201.99 815.252 L2173.99 843.252 L2201.99 871.252 L2229.99 843.252 L2201.99 815.252 Z" fill="#4dae49" fill-rule="evenodd" fill-opacity="1" stroke="#000000" stroke-opacity="1" stroke-width="0"></path>
<path clip-path="url(#clip260)" d="M2339.73 847.176 L2752.76 847.176 L2752.76 536.136 L2339.73 536.136  Z" fill="#ffffff" fill-rule="evenodd" fill-opacity="1"></path>
<polyline clip-path="url(#clip260)" style="stroke:#000000; stroke-linecap:round; stroke-linejoin:round; stroke-width:4; stroke-opacity:1; fill:none" points="2339.73,847.176 2752.76,847.176 2752.76,536.136 2339.73,536.136 2339.73,847.176 "></polyline>
<polyline clip-path="url(#clip260)" style="stroke:#e31a1c; stroke-linecap:round; stroke-linejoin:round; stroke-width:24; stroke-opacity:1; fill:none" points="2367.09,613.896 2531.23,613.896 "></polyline>
<path clip-path="url(#clip260)" d="M2596.18 610.405 Q2596.18 615.534 2593.58 620.488 Q2591.02 625.442 2586.97 628.499 Q2582.93 631.52 2578.82 631.52 Q2576.36 631.52 2574.71 630.185 Q2573.1 628.815 2572.22 626.882 Q2571.55 629.272 2570.11 634.998 Q2568.67 640.725 2568.67 641.287 Q2568.67 641.603 2568.74 641.744 Q2568.81 641.885 2569.13 642.06 Q2569.44 642.271 2570.22 642.341 Q2570.99 642.447 2572.29 642.447 Q2572.96 642.447 2573.2 642.447 Q2573.48 642.482 2573.73 642.657 Q2574.01 642.833 2574.01 643.22 Q2574.01 644.66 2572.71 644.66 Q2571.55 644.66 2569.16 644.555 Q2566.77 644.449 2565.58 644.449 Q2564.56 644.449 2562.52 644.555 Q2560.48 644.66 2559.54 644.66 Q2558.59 644.66 2558.59 643.817 Q2558.59 643.325 2558.73 643.009 Q2558.83 642.728 2559.11 642.587 Q2559.39 642.482 2559.64 642.447 Q2559.85 642.447 2560.27 642.447 Q2561.89 642.447 2562.59 642.166 Q2563.29 641.92 2563.54 641.393 Q2563.82 640.901 2564.14 639.495 L2572.22 607.454 Q2572.71 605.31 2572.71 603.8 Q2572.71 601.902 2572.11 601.2 Q2571.52 600.497 2570.46 600.497 Q2568.64 600.497 2567.44 602.675 Q2566.25 604.854 2565.23 609.07 Q2564.91 610.229 2564.7 610.475 Q2564.52 610.721 2564 610.721 Q2563.12 610.686 2563.12 609.983 Q2563.12 609.808 2563.4 608.683 Q2563.68 607.524 2564.21 605.837 Q2564.77 604.116 2565.37 603.027 Q2565.72 602.289 2566.04 601.797 Q2566.35 601.305 2566.98 600.532 Q2567.65 599.759 2568.6 599.338 Q2569.55 598.916 2570.71 598.916 Q2572.96 598.916 2574.82 600.251 Q2576.68 601.586 2577.17 604.292 Q2579.18 601.938 2581.63 600.427 Q2584.09 598.916 2586.59 598.916 Q2590.73 598.916 2593.44 602.148 Q2596.18 605.346 2596.18 610.405 M2590.98 607.243 Q2590.98 604.046 2589.75 602.289 Q2588.56 600.497 2586.38 600.497 Q2583.67 600.497 2580.55 603.238 Q2577.45 605.837 2576.82 608.262 L2573.27 622.35 L2573.06 623.51 Q2573.06 623.72 2573.17 624.353 Q2573.31 624.95 2573.69 625.934 Q2574.12 626.918 2574.68 627.796 Q2575.28 628.639 2576.33 629.272 Q2577.42 629.904 2578.75 629.904 Q2580.9 629.904 2583.22 628.007 Q2585.57 626.11 2587.33 622.526 Q2588.42 620.207 2589.68 615.218 Q2590.98 610.194 2590.98 607.243 Z" fill="#000000" fill-rule="nonzero" fill-opacity="1"></path><path clip-path="url(#clip260)" d="M2614.38 619.785 Q2614.45 618.907 2615.82 618.907 L2659.92 618.907 Q2661.99 618.907 2662.03 619.715 Q2662.03 620.594 2660.06 620.558 L2616.32 620.558 Q2614.38 620.594 2614.38 619.785 M2614.38 605.732 Q2614.38 604.854 2615.89 604.889 L2659.85 604.889 Q2661.99 604.889 2662.03 605.732 Q2662.03 606.54 2660.2 606.54 L2615.82 606.54 Q2614.38 606.54 2614.38 605.732 Z" fill="#000000" fill-rule="nonzero" fill-opacity="1"></path><path clip-path="url(#clip260)" d="M2689.77 607.699 Q2689.77 597.124 2692.44 591.362 Q2696.16 582.79 2704.95 582.79 Q2706.81 582.79 2708.74 583.317 Q2710.71 583.809 2713.17 585.741 Q2715.66 587.673 2717.17 590.835 Q2720.05 596.949 2720.05 607.699 Q2720.05 618.204 2717.38 623.931 Q2713.48 632.293 2704.88 632.293 Q2701.64 632.293 2698.34 630.642 Q2695.07 628.99 2693 625.02 Q2689.77 619.083 2689.77 607.699 M2695.74 606.821 Q2695.74 617.677 2696.52 621.999 Q2697.39 626.672 2699.78 628.709 Q2702.21 630.712 2704.88 630.712 Q2707.76 630.712 2710.15 628.569 Q2712.57 626.391 2713.31 621.718 Q2714.12 617.115 2714.08 606.821 Q2714.08 596.808 2713.38 592.803 Q2712.43 588.13 2709.9 586.268 Q2707.41 584.371 2704.88 584.371 Q2703.93 584.371 2702.91 584.652 Q2701.93 584.933 2700.49 585.741 Q2699.05 586.549 2697.92 588.552 Q2696.83 590.554 2696.3 593.576 Q2695.74 597.476 2695.74 606.821 Z" fill="#000000" fill-rule="nonzero" fill-opacity="1"></path><polyline clip-path="url(#clip260)" style="stroke:#377db8; stroke-linecap:round; stroke-linejoin:round; stroke-width:24; stroke-opacity:1; fill:none" points="2367.09,691.656 2531.23,691.656 "></polyline>
<path clip-path="url(#clip260)" d="M2596.18 688.165 Q2596.18 693.294 2593.58 698.248 Q2591.02 703.202 2586.97 706.259 Q2582.93 709.28 2578.82 709.28 Q2576.36 709.28 2574.71 707.945 Q2573.1 706.575 2572.22 704.642 Q2571.55 707.032 2570.11 712.758 Q2568.67 718.485 2568.67 719.047 Q2568.67 719.363 2568.74 719.504 Q2568.81 719.645 2569.13 719.82 Q2569.44 720.031 2570.22 720.101 Q2570.99 720.207 2572.29 720.207 Q2572.96 720.207 2573.2 720.207 Q2573.48 720.242 2573.73 720.417 Q2574.01 720.593 2574.01 720.98 Q2574.01 722.42 2572.71 722.42 Q2571.55 722.42 2569.16 722.315 Q2566.77 722.209 2565.58 722.209 Q2564.56 722.209 2562.52 722.315 Q2560.48 722.42 2559.54 722.42 Q2558.59 722.42 2558.59 721.577 Q2558.59 721.085 2558.73 720.769 Q2558.83 720.488 2559.11 720.347 Q2559.39 720.242 2559.64 720.207 Q2559.85 720.207 2560.27 720.207 Q2561.89 720.207 2562.59 719.926 Q2563.29 719.68 2563.54 719.153 Q2563.82 718.661 2564.14 717.255 L2572.22 685.214 Q2572.71 683.07 2572.71 681.56 Q2572.71 679.662 2572.11 678.96 Q2571.52 678.257 2570.46 678.257 Q2568.64 678.257 2567.44 680.435 Q2566.25 682.614 2565.23 686.83 Q2564.91 687.989 2564.7 688.235 Q2564.52 688.481 2564 688.481 Q2563.12 688.446 2563.12 687.743 Q2563.12 687.568 2563.4 686.443 Q2563.68 685.284 2564.21 683.597 Q2564.77 681.876 2565.37 680.787 Q2565.72 680.049 2566.04 679.557 Q2566.35 679.065 2566.98 678.292 Q2567.65 677.519 2568.6 677.098 Q2569.55 676.676 2570.71 676.676 Q2572.96 676.676 2574.82 678.011 Q2576.68 679.346 2577.17 682.052 Q2579.18 679.698 2581.63 678.187 Q2584.09 676.676 2586.59 676.676 Q2590.73 676.676 2593.44 679.908 Q2596.18 683.106 2596.18 688.165 M2590.98 685.003 Q2590.98 681.806 2589.75 680.049 Q2588.56 678.257 2586.38 678.257 Q2583.67 678.257 2580.55 680.998 Q2577.45 683.597 2576.82 686.022 L2573.27 700.11 L2573.06 701.27 Q2573.06 701.48 2573.17 702.113 Q2573.31 702.71 2573.69 703.694 Q2574.12 704.678 2574.68 705.556 Q2575.28 706.399 2576.33 707.032 Q2577.42 707.664 2578.75 707.664 Q2580.9 707.664 2583.22 705.767 Q2585.57 703.87 2587.33 700.286 Q2588.42 697.967 2589.68 692.978 Q2590.98 687.954 2590.98 685.003 Z" fill="#000000" fill-rule="nonzero" fill-opacity="1"></path><path clip-path="url(#clip260)" d="M2614.38 697.545 Q2614.45 696.667 2615.82 696.667 L2659.92 696.667 Q2661.99 696.667 2662.03 697.475 Q2662.03 698.354 2660.06 698.318 L2616.32 698.318 Q2614.38 698.354 2614.38 697.545 M2614.38 683.492 Q2614.38 682.614 2615.89 682.649 L2659.85 682.649 Q2661.99 682.649 2662.03 683.492 Q2662.03 684.3 2660.2 684.3 L2615.82 684.3 Q2614.38 684.3 2614.38 683.492 Z" fill="#000000" fill-rule="nonzero" fill-opacity="1"></path><path clip-path="url(#clip260)" d="M2689.77 667.401 L2689.77 665.152 Q2698.41 665.152 2702.87 660.55 Q2704.1 660.55 2704.32 660.831 Q2704.53 661.112 2704.53 662.412 L2704.53 702.78 Q2704.53 704.924 2705.58 705.591 Q2706.63 706.259 2711.24 706.259 L2713.52 706.259 L2713.52 708.472 Q2710.99 708.261 2701.86 708.261 Q2692.72 708.261 2690.23 708.472 L2690.23 706.259 L2692.51 706.259 Q2697.04 706.259 2698.13 705.626 Q2699.22 704.959 2699.22 702.78 L2699.22 665.504 Q2695.46 667.401 2689.77 667.401 Z" fill="#000000" fill-rule="nonzero" fill-opacity="1"></path><polyline clip-path="url(#clip260)" style="stroke:#4dae49; stroke-linecap:round; stroke-linejoin:round; stroke-width:24; stroke-opacity:1; fill:none" points="2367.09,769.416 2531.23,769.416 "></polyline>
<path clip-path="url(#clip260)" d="M2596.18 765.925 Q2596.18 771.054 2593.58 776.008 Q2591.02 780.962 2586.97 784.019 Q2582.93 787.04 2578.82 787.04 Q2576.36 787.04 2574.71 785.705 Q2573.1 784.335 2572.22 782.402 Q2571.55 784.792 2570.11 790.518 Q2568.67 796.245 2568.67 796.807 Q2568.67 797.123 2568.74 797.264 Q2568.81 797.405 2569.13 797.58 Q2569.44 797.791 2570.22 797.861 Q2570.99 797.967 2572.29 797.967 Q2572.96 797.967 2573.2 797.967 Q2573.48 798.002 2573.73 798.177 Q2574.01 798.353 2574.01 798.74 Q2574.01 800.18 2572.71 800.18 Q2571.55 800.18 2569.16 800.075 Q2566.77 799.969 2565.58 799.969 Q2564.56 799.969 2562.52 800.075 Q2560.48 800.18 2559.54 800.18 Q2558.59 800.18 2558.59 799.337 Q2558.59 798.845 2558.73 798.529 Q2558.83 798.248 2559.11 798.107 Q2559.39 798.002 2559.64 797.967 Q2559.85 797.967 2560.27 797.967 Q2561.89 797.967 2562.59 797.686 Q2563.29 797.44 2563.54 796.913 Q2563.82 796.421 2564.14 795.015 L2572.22 762.974 Q2572.71 760.83 2572.71 759.32 Q2572.71 757.422 2572.11 756.72 Q2571.52 756.017 2570.46 756.017 Q2568.64 756.017 2567.44 758.195 Q2566.25 760.374 2565.23 764.59 Q2564.91 765.749 2564.7 765.995 Q2564.52 766.241 2564 766.241 Q2563.12 766.206 2563.12 765.503 Q2563.12 765.328 2563.4 764.203 Q2563.68 763.044 2564.21 761.357 Q2564.77 759.636 2565.37 758.547 Q2565.72 757.809 2566.04 757.317 Q2566.35 756.825 2566.98 756.052 Q2567.65 755.279 2568.6 754.858 Q2569.55 754.436 2570.71 754.436 Q2572.96 754.436 2574.82 755.771 Q2576.68 757.106 2577.17 759.812 Q2579.18 757.458 2581.63 755.947 Q2584.09 754.436 2586.59 754.436 Q2590.73 754.436 2593.44 757.668 Q2596.18 760.866 2596.18 765.925 M2590.98 762.763 Q2590.98 759.566 2589.75 757.809 Q2588.56 756.017 2586.38 756.017 Q2583.67 756.017 2580.55 758.758 Q2577.45 761.357 2576.82 763.782 L2573.27 777.87 L2573.06 779.03 Q2573.06 779.24 2573.17 779.873 Q2573.31 780.47 2573.69 781.454 Q2574.12 782.438 2574.68 783.316 Q2575.28 784.159 2576.33 784.792 Q2577.42 785.424 2578.75 785.424 Q2580.9 785.424 2583.22 783.527 Q2585.57 781.63 2587.33 778.046 Q2588.42 775.727 2589.68 770.738 Q2590.98 765.714 2590.98 762.763 Z" fill="#000000" fill-rule="nonzero" fill-opacity="1"></path><path clip-path="url(#clip260)" d="M2614.38 775.305 Q2614.45 774.427 2615.82 774.427 L2659.92 774.427 Q2661.99 774.427 2662.03 775.235 Q2662.03 776.114 2660.06 776.078 L2616.32 776.078 Q2614.38 776.114 2614.38 775.305 M2614.38 761.252 Q2614.38 760.374 2615.89 760.409 L2659.85 760.409 Q2661.99 760.409 2662.03 761.252 Q2662.03 762.06 2660.2 762.06 L2615.82 762.06 Q2614.38 762.06 2614.38 761.252 Z" fill="#000000" fill-rule="nonzero" fill-opacity="1"></path><path clip-path="url(#clip260)" d="M2689.77 786.232 Q2689.77 784.932 2689.88 784.546 Q2690.02 784.159 2690.58 783.562 L2704.39 768.173 Q2711.94 759.671 2711.94 752.258 Q2711.94 747.444 2709.41 744.001 Q2706.91 740.558 2702.31 740.558 Q2699.15 740.558 2696.48 742.491 Q2693.81 744.423 2692.58 747.866 Q2692.79 747.796 2693.53 747.796 Q2695.32 747.796 2696.3 748.92 Q2697.32 750.044 2697.32 751.555 Q2697.32 753.487 2696.06 754.436 Q2694.83 755.35 2693.6 755.35 Q2693.11 755.35 2692.44 755.244 Q2691.81 755.139 2690.79 754.155 Q2689.77 753.136 2689.77 751.344 Q2689.77 746.32 2693.56 742.315 Q2697.39 738.31 2703.23 738.31 Q2709.83 738.31 2714.15 742.245 Q2718.51 746.145 2718.51 752.258 Q2718.51 754.401 2717.84 756.368 Q2717.21 758.301 2716.33 759.812 Q2715.49 761.322 2713.17 763.747 Q2710.85 766.171 2708.99 767.892 Q2707.13 769.614 2702.94 773.268 L2695.32 780.681 L2708.29 780.681 Q2714.61 780.681 2715.1 780.119 Q2715.8 779.1 2716.68 773.724 L2718.51 773.724 L2716.47 786.232 L2689.77 786.232 Z" fill="#000000" fill-rule="nonzero" fill-opacity="1"></path><path clip-path="url(#clip260)" d="M508.008 205.424 Q508.008 205.477 507.692 207.374 L495.676 255.279 Q495.044 257.808 493.252 260.338 Q491.513 262.92 488.719 265.134 Q485.979 267.4 481.763 268.77 Q477.6 270.193 472.804 270.193 Q465.162 270.193 461.79 268.559 Q458.469 266.978 458.469 263.605 Q458.469 260.654 460.314 258.968 Q462.158 257.334 464.266 257.334 Q466.269 257.334 467.323 258.494 Q468.377 259.653 468.377 261.129 Q468.377 262.762 467.27 264.396 Q466.164 266.082 463.95 266.715 Q467.481 267.822 472.593 267.822 Q483.397 267.822 488.034 256.386 Q488.14 256.227 488.14 256.175 L491.723 241.893 L491.565 241.787 Q490.669 242.841 489.246 244.054 Q487.876 245.213 484.925 246.636 Q481.974 248.059 479.075 248.059 Q473.015 248.059 468.851 243.421 Q464.741 238.731 464.741 230.984 Q464.741 225.345 467.007 219.706 Q469.326 214.014 472.909 209.851 Q476.546 205.635 481.183 203 Q485.874 200.365 490.406 200.365 Q493.568 200.365 496.256 202.262 Q498.943 204.107 500.419 207.163 Q500.682 204.634 502.105 203.58 Q503.581 202.526 504.846 202.526 Q506.269 202.526 507.112 203.316 Q508.008 204.054 508.008 205.424 M499.154 212.012 Q499.154 211.695 498.943 210.852 Q498.733 209.956 498.1 208.533 Q497.52 207.111 496.625 205.846 Q495.729 204.581 494.095 203.685 Q492.514 202.736 490.511 202.736 Q487.244 202.736 483.976 205.477 Q480.709 208.165 478.443 212.328 Q476.335 216.333 474.332 224.08 Q472.382 231.827 472.382 235.78 Q472.382 239.679 474.069 242.683 Q475.755 245.687 479.391 245.687 Q483.608 245.687 488.14 241.787 Q492.83 237.73 493.621 234.251 L498.838 213.645 Q499.154 212.381 499.154 212.012 Z" fill="#000000" fill-rule="nonzero" fill-opacity="1"></path><path clip-path="url(#clip260)" d="M535.202 249.532 L524.319 293.21 Q523.877 294.944 523.877 296.826 Q523.877 300.293 526.164 300.293 Q527.234 300.293 528.119 299.592 Q529.004 298.855 529.669 297.416 Q530.369 295.94 530.812 294.538 Q531.292 293.137 531.882 290.96 Q532.066 290.112 532.251 289.853 Q532.435 289.595 532.952 289.595 Q533.874 289.595 533.874 290.333 Q532.952 294.87 531.587 297.748 Q529.595 301.99 525.906 301.99 Q523.139 301.99 521.073 300.072 Q519.044 298.117 519.044 295.018 Q519.044 293.838 519.413 292.436 L528.931 254.66 L529.189 253.184 Q529.189 252.779 529.041 252.557 Q528.894 252.336 528.008 252.115 Q527.16 251.893 525.463 251.893 Q524.762 251.893 524.43 251.856 Q524.135 251.819 523.84 251.635 Q523.582 251.45 523.582 251.045 Q523.582 250.381 523.84 250.012 Q524.135 249.643 524.356 249.569 Q524.578 249.495 525.02 249.458 Q525.647 249.422 527.75 249.237 Q529.853 249.016 531.661 248.868 Q533.468 248.721 534.243 248.721 Q534.686 248.721 534.907 248.942 Q535.165 249.126 535.202 249.348 L535.202 249.532 Z" fill="#000000" fill-rule="nonzero" fill-opacity="1"></path><path clip-path="url(#clip260)" d="M576.507 231.669 Q576.613 230.351 578.668 230.351 L644.807 230.351 Q647.916 230.351 647.969 231.564 Q647.969 232.881 645.018 232.828 L579.406 232.828 Q576.507 232.881 576.507 231.669 M576.507 210.589 Q576.507 209.271 578.773 209.324 L644.702 209.324 Q647.916 209.324 647.969 210.589 Q647.969 211.801 645.229 211.801 L578.668 211.801 Q576.507 211.801 576.507 210.589 Z" fill="#000000" fill-rule="nonzero" fill-opacity="1"></path><path clip-path="url(#clip260)" d="M689.596 231.774 Q689.596 219.706 705.143 211.906 Q698.45 207.374 697.238 206.057 Q692.494 200.786 692.494 194.199 Q692.494 186.663 698.186 181.445 Q703.93 176.175 712.046 176.175 Q719.793 176.175 725.643 180.655 Q731.493 185.134 731.493 192.249 Q731.493 202.262 718.423 209.008 Q727.066 214.383 729.121 216.649 Q734.391 222.499 734.391 229.93 Q734.391 238.573 727.751 244.528 Q721.111 250.43 711.941 250.43 Q702.982 250.43 696.289 245.213 Q689.596 239.996 689.596 231.774 M694.971 231.774 Q694.971 238.467 699.978 242.947 Q705.037 247.426 712.046 247.426 Q718.845 247.426 723.904 243.527 Q729.016 239.627 729.016 233.83 Q729.016 231.564 728.225 229.614 Q727.488 227.664 725.959 226.135 Q724.484 224.554 723.535 223.869 Q722.639 223.131 720.9 221.919 L707.62 213.54 Q694.971 220.549 694.971 231.774 M697.238 189.983 Q697.238 195.148 702.666 198.731 L716.052 207.374 Q726.75 201.103 726.75 192.249 Q726.75 186.505 722.376 182.71 Q718.002 178.863 711.941 178.863 Q705.986 178.863 701.612 182.025 Q697.238 185.134 697.238 189.983 Z" fill="#000000" fill-rule="nonzero" fill-opacity="1"></path><path clip-path="url(#clip260)" d="M743.044 213.54 Q743.044 197.677 747.049 189.034 Q752.635 176.175 765.81 176.175 Q768.604 176.175 771.502 176.966 Q774.453 177.704 778.142 180.602 Q781.884 183.501 784.15 188.244 Q788.472 197.414 788.472 213.54 Q788.472 229.297 784.466 237.888 Q778.617 250.43 765.705 250.43 Q760.857 250.43 755.903 247.953 Q751.002 245.477 747.892 239.521 Q743.044 230.615 743.044 213.54 M752.003 212.222 Q752.003 228.507 753.162 234.989 Q754.48 241.998 758.063 245.055 Q761.7 248.059 765.705 248.059 Q770.027 248.059 773.61 244.844 Q777.246 241.577 778.353 234.567 Q779.565 227.664 779.513 212.222 Q779.513 197.203 778.459 191.195 Q777.036 184.186 773.241 181.393 Q769.5 178.547 765.705 178.547 Q764.282 178.547 762.754 178.968 Q761.278 179.39 759.118 180.602 Q756.957 181.814 755.27 184.818 Q753.637 187.822 752.846 192.354 Q752.003 198.204 752.003 212.222 Z" fill="#000000" fill-rule="nonzero" fill-opacity="1"></path><path clip-path="url(#clip260)" d="M796.924 213.54 Q796.924 197.677 800.929 189.034 Q806.515 176.175 819.69 176.175 Q822.484 176.175 825.382 176.966 Q828.333 177.704 832.022 180.602 Q835.764 183.501 838.03 188.244 Q842.352 197.414 842.352 213.54 Q842.352 229.297 838.346 237.888 Q832.497 250.43 819.585 250.43 Q814.737 250.43 809.783 247.953 Q804.882 245.477 801.772 239.521 Q796.924 230.615 796.924 213.54 M805.883 212.222 Q805.883 228.507 807.042 234.989 Q808.36 241.998 811.943 245.055 Q815.58 248.059 819.585 248.059 Q823.906 248.059 827.49 244.844 Q831.126 241.577 832.233 234.567 Q833.445 227.664 833.393 212.222 Q833.393 197.203 832.339 191.195 Q830.916 184.186 827.121 181.393 Q823.379 178.547 819.585 178.547 Q818.162 178.547 816.634 178.968 Q815.158 179.39 812.997 180.602 Q810.837 181.814 809.15 184.818 Q807.517 187.822 806.726 192.354 Q805.883 198.204 805.883 212.222 Z" fill="#000000" fill-rule="nonzero" fill-opacity="1"></path><path clip-path="url(#clip260)" d="M906.93 204.107 Q906.93 207.796 901.66 207.796 L889.328 207.796 Q887.431 216.544 887.431 224.976 Q887.431 235.042 890.541 242.789 Q891.173 244.317 891.173 245.16 Q891.173 246.741 889.75 248.006 Q888.38 249.271 886.746 249.271 Q885.376 249.271 884.48 248.217 Q883.637 247.163 882.899 243.843 Q882.003 239.943 882.003 235.622 Q882.003 230.457 882.846 225.503 Q883.69 220.496 886.535 207.796 L874.362 207.796 L868.301 231.669 Q866.14 239.732 865.402 242.209 Q864.928 243.685 864.77 244.159 Q864.612 244.633 864.138 245.793 Q863.716 246.899 863.4 247.321 Q863.084 247.69 862.557 248.27 Q862.03 248.902 861.397 249.06 Q860.765 249.271 859.974 249.271 Q858.762 249.271 857.814 248.48 Q856.865 247.743 856.865 246.32 Q856.865 245.371 857.708 243.737 Q867.721 222.13 871.516 207.796 L865.402 207.796 Q856.97 207.796 851.7 216.122 Q850.857 217.229 850.383 217.334 Q850.172 217.387 849.961 217.387 Q849.381 217.387 849.013 217.124 Q848.696 216.86 848.696 216.597 L848.644 216.333 Q848.644 216.017 849.434 214.594 Q850.277 213.118 851.858 210.852 Q853.492 208.586 855.231 206.636 Q856.918 204.844 858.551 203.738 Q860.238 202.578 861.819 202.157 Q863.4 201.735 864.296 201.63 Q865.192 201.524 866.456 201.524 L902.609 201.524 Q903.979 201.524 904.717 201.63 Q905.455 201.682 906.193 202.315 Q906.93 202.894 906.93 204.107 Z" fill="#000000" fill-rule="nonzero" fill-opacity="1"></path></svg>