<svg xmlns="http://www.w3.org/2000/svg" xmlns:xlink="http://www.w3.org/1999/xlink" width="700" height="400" viewBox="0 0 2800 1600">
<defs>
  <clipPath id="clip900">
    <rect x="0" y="0" width="2800" height="1600"></rect>
  </clipPath>
</defs>
<path clip-path="url(#clip900)" d="M0 1600 L2800 1600 L2800 0 L0 0  Z" fill="#ffffff" fill-rule="evenodd" fill-opacity="1"></path>
<defs>
  <clipPath id="clip901">
    <rect x="560" y="0" width="1961" height="1600"></rect>
  </clipPath>
</defs>
<defs>
  <clipPath id="clip902">
    <rect x="411" y="47" width="1863" height="1282"></rect>
  </clipPath>
</defs>
<path clip-path="url(#clip900)" d="M292.359 1328.42 L2257.89 1328.42 L2257.89 47.2441 L292.359 47.2441  Z" fill="#ffffff" fill-rule="evenodd" fill-opacity="1"></path>
<defs>
  <clipPath id="clip903">
    <rect x="292" y="47" width="1967" height="1282"></rect>
  </clipPath>
</defs>
<polyline clip-path="url(#clip900)" style="stroke:#000000; stroke-linecap:round; stroke-linejoin:round; stroke-width:4; stroke-opacity:1; fill:none" points="292.359,1328.42 2257.89,1328.42 "></polyline>
<polyline clip-path="url(#clip900)" style="stroke:#000000; stroke-linecap:round; stroke-linejoin:round; stroke-width:4; stroke-opacity:1; fill:none" points="292.359,47.2441 2257.89,47.2441 "></polyline>
<polyline clip-path="url(#clip900)" style="stroke:#000000; stroke-linecap:round; stroke-linejoin:round; stroke-width:4; stroke-opacity:1; fill:none" points="347.988,1328.42 347.988,1309.52 "></polyline>
<polyline clip-path="url(#clip900)" style="stroke:#000000; stroke-linecap:round; stroke-linejoin:round; stroke-width:4; stroke-opacity:1; fill:none" points="718.843,1328.42 718.843,1309.52 "></polyline>
<polyline clip-path="url(#clip900)" style="stroke:#000000; stroke-linecap:round; stroke-linejoin:round; stroke-width:4; stroke-opacity:1; fill:none" points="1089.7,1328.42 1089.7,1309.52 "></polyline>
<polyline clip-path="url(#clip900)" style="stroke:#000000; stroke-linecap:round; stroke-linejoin:round; stroke-width:4; stroke-opacity:1; fill:none" points="1460.55,1328.42 1460.55,1309.52 "></polyline>
<polyline clip-path="url(#clip900)" style="stroke:#000000; stroke-linecap:round; stroke-linejoin:round; stroke-width:4; stroke-opacity:1; fill:none" points="1831.41,1328.42 1831.41,1309.52 "></polyline>
<polyline clip-path="url(#clip900)" style="stroke:#000000; stroke-linecap:round; stroke-linejoin:round; stroke-width:4; stroke-opacity:1; fill:none" points="2202.26,1328.42 2202.26,1309.52 "></polyline>
<path clip-path="url(#clip900)" d="M328.024 1401.48 Q328.024 1387.53 331.545 1379.94 Q336.454 1368.64 348.034 1368.64 Q350.489 1368.64 353.036 1369.33 Q355.63 1369.98 358.873 1372.53 Q362.161 1375.08 364.153 1379.24 Q367.951 1387.3 367.951 1401.48 Q367.951 1415.33 364.431 1422.88 Q359.289 1433.9 347.941 1433.9 Q343.68 1433.9 339.326 1431.72 Q335.018 1429.55 332.286 1424.31 Q328.024 1416.48 328.024 1401.48 M335.898 1400.32 Q335.898 1414.63 336.917 1420.33 Q338.075 1426.49 341.225 1429.18 Q344.421 1431.82 347.941 1431.82 Q351.74 1431.82 354.889 1428.99 Q358.085 1426.12 359.058 1419.96 Q360.123 1413.89 360.077 1400.32 Q360.077 1387.12 359.151 1381.84 Q357.9 1375.68 354.565 1373.22 Q351.276 1370.72 347.941 1370.72 Q346.691 1370.72 345.348 1371.09 Q344.051 1371.46 342.152 1372.53 Q340.252 1373.59 338.77 1376.23 Q337.334 1378.87 336.64 1382.86 Q335.898 1388 335.898 1400.32 Z" fill="#000000" fill-rule="nonzero" fill-opacity="1"></path><path clip-path="url(#clip900)" d="M703.187 1377.67 L703.187 1374.7 Q714.581 1374.7 720.464 1368.64 Q722.085 1368.64 722.363 1369.01 Q722.641 1369.38 722.641 1371.09 L722.641 1424.31 Q722.641 1427.14 724.03 1428.02 Q725.42 1428.9 731.488 1428.9 L734.498 1428.9 L734.498 1431.82 Q731.164 1431.54 719.121 1431.54 Q707.078 1431.54 703.789 1431.82 L703.789 1428.9 L706.8 1428.9 Q712.775 1428.9 714.211 1428.06 Q715.647 1427.18 715.647 1424.31 L715.647 1375.17 Q710.691 1377.67 703.187 1377.67 Z" fill="#000000" fill-rule="nonzero" fill-opacity="1"></path><path clip-path="url(#clip900)" d="M1070.75 1431.82 Q1070.75 1430.1 1070.89 1429.59 Q1071.08 1429.08 1071.82 1428.3 L1090.02 1408.01 Q1099.98 1396.8 1099.98 1387.03 Q1099.98 1380.68 1096.65 1376.14 Q1093.36 1371.6 1087.29 1371.6 Q1083.12 1371.6 1079.6 1374.15 Q1076.08 1376.7 1074.46 1381.24 Q1074.74 1381.14 1075.71 1381.14 Q1078.07 1381.14 1079.37 1382.63 Q1080.71 1384.11 1080.71 1386.1 Q1080.71 1388.65 1079.04 1389.9 Q1077.42 1391.1 1075.8 1391.1 Q1075.15 1391.1 1074.27 1390.96 Q1073.44 1390.82 1072.1 1389.53 Q1070.75 1388.18 1070.75 1385.82 Q1070.75 1379.2 1075.76 1373.92 Q1080.8 1368.64 1088.49 1368.64 Q1097.2 1368.64 1102.9 1373.82 Q1108.64 1378.97 1108.64 1387.03 Q1108.64 1389.85 1107.76 1392.44 Q1106.93 1394.99 1105.77 1396.98 Q1104.66 1398.98 1101.6 1402.17 Q1098.54 1405.37 1096.09 1407.64 Q1093.63 1409.91 1088.12 1414.72 L1078.07 1424.5 L1095.16 1424.5 Q1103.5 1424.5 1104.15 1423.76 Q1105.08 1422.41 1106.23 1415.33 L1108.64 1415.33 L1105.96 1431.82 L1070.75 1431.82 Z" fill="#000000" fill-rule="nonzero" fill-opacity="1"></path><path clip-path="url(#clip900)" d="M1440.87 1419.03 Q1440.87 1416.21 1442.49 1414.86 Q1444.11 1413.52 1446.19 1413.52 Q1448.37 1413.52 1449.9 1414.96 Q1451.47 1416.35 1451.47 1418.8 Q1451.47 1421.44 1449.62 1422.92 Q1447.82 1424.4 1445.22 1424.03 Q1447.49 1427.83 1451.66 1429.55 Q1455.87 1431.26 1459.77 1431.26 Q1463.84 1431.26 1467.13 1427.74 Q1470.47 1424.22 1470.47 1415.6 Q1470.47 1408.29 1467.59 1404.07 Q1464.77 1399.86 1459.16 1399.86 L1454.99 1399.86 Q1453.56 1399.86 1453.14 1399.72 Q1452.72 1399.58 1452.72 1398.79 Q1452.72 1397.86 1454.16 1397.68 Q1455.6 1397.68 1457.87 1397.4 Q1463.38 1397.22 1466.3 1392.44 Q1468.94 1388 1468.94 1381.65 Q1468.94 1375.86 1466.16 1373.45 Q1463.42 1371 1459.86 1371 Q1456.52 1371 1452.86 1372.39 Q1449.2 1373.78 1447.21 1376.88 Q1453.1 1376.88 1453.1 1381.65 Q1453.1 1383.74 1451.75 1385.13 Q1450.46 1386.47 1448.28 1386.47 Q1446.19 1386.47 1444.8 1385.17 Q1443.41 1383.83 1443.41 1381.56 Q1443.41 1376.14 1448.23 1372.39 Q1453.1 1368.64 1460.23 1368.64 Q1467.27 1368.64 1472.46 1372.34 Q1477.69 1376.05 1477.69 1381.75 Q1477.69 1387.35 1473.99 1391.94 Q1470.28 1396.52 1464.4 1398.42 Q1471.62 1399.86 1475.93 1404.77 Q1480.24 1409.63 1480.24 1415.6 Q1480.24 1423.02 1474.4 1428.48 Q1468.57 1433.9 1460.04 1433.9 Q1452.17 1433.9 1446.52 1429.64 Q1440.87 1425.38 1440.87 1419.03 Z" fill="#000000" fill-rule="nonzero" fill-opacity="1"></path><path clip-path="url(#clip900)" d="M1810.38 1416.16 L1810.38 1413.24 L1839.51 1368.73 Q1840.25 1367.57 1841.41 1367.62 Q1842.48 1367.62 1842.71 1368.03 Q1842.94 1368.45 1842.94 1370.07 L1842.94 1413.24 L1852.44 1413.24 L1852.44 1416.16 L1842.94 1416.16 L1842.94 1424.4 Q1842.94 1427.14 1844.05 1428.02 Q1845.21 1428.9 1850.12 1428.9 L1852.11 1428.9 L1852.11 1431.82 Q1848.22 1431.54 1839.24 1431.54 Q1830.3 1431.54 1826.41 1431.82 L1826.41 1428.9 L1828.4 1428.9 Q1833.31 1428.9 1834.46 1428.06 Q1835.62 1427.18 1835.62 1424.4 L1835.62 1416.16 L1810.38 1416.16 M1813.07 1413.24 L1836.18 1413.24 L1836.18 1377.85 L1813.07 1413.24 Z" fill="#000000" fill-rule="nonzero" fill-opacity="1"></path><path clip-path="url(#clip900)" d="M2183.32 1416.53 Q2183.32 1413.71 2184.85 1412.64 Q2186.38 1411.53 2188 1411.53 Q2190.17 1411.53 2191.42 1412.92 Q2192.72 1414.26 2192.72 1416.16 Q2192.72 1418.06 2191.42 1419.45 Q2190.17 1420.79 2188 1420.79 Q2186.93 1420.79 2186.38 1420.61 Q2187.63 1424.96 2191.42 1428.11 Q2195.27 1431.26 2200.32 1431.26 Q2206.66 1431.26 2210.46 1425.1 Q2212.73 1421.12 2212.73 1412.08 Q2212.73 1404.12 2211.02 1400.13 Q2208.38 1394.07 2202.96 1394.07 Q2195.27 1394.07 2190.73 1400.69 Q2190.17 1401.52 2189.53 1401.57 Q2188.6 1401.57 2188.37 1401.06 Q2188.18 1400.5 2188.18 1399.07 L2188.18 1371 Q2188.18 1368.73 2189.11 1368.73 Q2189.48 1368.73 2190.27 1369.01 Q2196.24 1371.65 2202.87 1371.69 Q2209.67 1371.69 2215.79 1368.91 Q2216.25 1368.64 2216.53 1368.64 Q2217.46 1368.64 2217.5 1369.7 Q2217.5 1370.07 2216.71 1371.18 Q2215.97 1372.25 2214.35 1373.69 Q2212.73 1375.08 2210.65 1376.42 Q2208.56 1377.76 2205.51 1378.69 Q2202.49 1379.57 2199.16 1379.57 Q2195.18 1379.57 2191.1 1378.32 L2191.1 1396.8 Q2196.01 1391.98 2203.14 1391.98 Q2210.74 1391.98 2215.97 1398.1 Q2221.21 1404.21 2221.21 1412.73 Q2221.21 1421.67 2215 1427.79 Q2208.84 1433.9 2200.5 1433.9 Q2192.91 1433.9 2188.09 1428.48 Q2183.32 1423.06 2183.32 1416.53 Z" fill="#000000" fill-rule="nonzero" fill-opacity="1"></path><path clip-path="url(#clip900)" d="M1299.62 1478.6 Q1299.62 1478.68 1299.54 1478.77 Q1299.01 1483.11 1297.98 1485.53 Q1296.96 1487.91 1294.66 1489.01 Q1292.98 1489.83 1290.89 1489.83 Q1287.73 1489.83 1283.18 1487.74 Q1283.02 1487.66 1282.12 1487.25 Q1281.22 1486.84 1280.89 1486.72 Q1280.56 1486.6 1279.86 1486.35 Q1279.17 1486.06 1278.63 1485.98 Q1278.1 1485.9 1277.57 1485.9 Q1276.42 1485.9 1275.44 1486.39 Q1273.43 1487.37 1272.2 1488.85 Q1270.93 1490.28 1270.6 1492.87 Q1270.52 1493.19 1270.23 1493.44 Q1269.94 1493.69 1269.58 1493.69 Q1269.21 1493.69 1268.88 1493.4 Q1268.55 1493.11 1268.55 1492.7 Q1268.55 1492.62 1268.63 1492.54 Q1269.17 1488.19 1270.19 1485.82 Q1271.21 1483.4 1273.51 1482.29 Q1275.31 1481.43 1277.28 1481.43 Q1280.36 1481.43 1285.03 1483.56 Q1285.19 1483.64 1286.09 1484.05 Q1287 1484.46 1287.32 1484.59 Q1287.65 1484.71 1288.35 1485 Q1289.05 1485.24 1289.58 1485.32 Q1290.11 1485.41 1290.64 1485.41 Q1291.67 1485.41 1292.73 1484.87 Q1294.74 1483.89 1296.01 1482.46 Q1297.28 1481.02 1297.61 1478.44 Q1297.69 1478.11 1297.98 1477.86 Q1298.27 1477.58 1298.64 1477.58 Q1299.01 1477.58 1299.33 1477.91 Q1299.62 1478.19 1299.62 1478.6 Z" fill="#000000" fill-rule="nonzero" fill-opacity="1"></path><path clip-path="url(#clip900)" d="M1301.01 1507.59 Q1301.01 1508 1300.01 1509.76 Q1299.08 1511.46 1295.62 1515.73 Q1292.17 1520 1287.02 1524.98 Q1285.08 1526.91 1282.16 1529.61 Q1279.23 1532.3 1277.24 1534.06 L1275.25 1535.81 Q1267.63 1542.26 1260.96 1549.46 Q1261.43 1549.28 1262.25 1549.22 Q1263.07 1549.11 1263.65 1549.11 L1264.24 1549.11 Q1267.28 1549.11 1272.61 1551.16 Q1277.3 1552.68 1279.7 1552.68 Q1282.04 1552.68 1284.61 1551.86 Q1287.19 1551.04 1290 1548.64 Q1292.81 1546.24 1294.1 1542.61 Q1294.34 1542.02 1294.45 1541.85 Q1294.57 1541.61 1294.92 1541.38 Q1295.27 1541.08 1295.74 1541.08 Q1296.38 1541.08 1296.79 1541.44 Q1297.2 1541.79 1297.2 1542.26 Q1297.2 1543.31 1296.38 1545.42 Q1295.62 1547.53 1293.93 1550.16 Q1292.29 1552.8 1290.12 1555.2 Q1288.01 1557.54 1284.85 1559.18 Q1281.69 1560.76 1278.35 1560.76 Q1275.95 1560.76 1274.19 1559.59 Q1272.44 1558.48 1270.68 1556.31 Q1268.28 1553.56 1266.99 1552.68 Q1265.7 1551.74 1263.71 1551.74 Q1258.38 1551.74 1253.52 1559.18 Q1252.99 1560.23 1252.64 1560.47 Q1252.35 1560.76 1251.65 1560.76 Q1250.18 1560.7 1250.18 1559.53 Q1250.18 1559.06 1251.47 1557.01 Q1252.82 1554.9 1255.81 1551.22 Q1258.85 1547.53 1262.54 1543.84 L1273.31 1533.77 Q1285.26 1523.69 1290 1518.01 Q1288.01 1518.01 1287.13 1517.96 Q1286.31 1517.9 1284.67 1517.55 Q1283.03 1517.14 1280.75 1516.26 Q1275.42 1514.44 1273.2 1514.44 Q1272.61 1514.44 1271.97 1514.5 Q1271.32 1514.56 1269.86 1514.85 Q1268.45 1515.14 1267.28 1515.73 Q1266.11 1516.26 1264.88 1517.43 Q1263.65 1518.54 1263.01 1520.06 Q1262.83 1520.53 1262.71 1520.77 Q1262.6 1521 1262.25 1521.23 Q1261.95 1521.41 1261.49 1521.41 Q1260.78 1521.41 1260.37 1521 Q1260.02 1520.59 1260.02 1520.06 Q1260.02 1519.01 1261.08 1516.84 Q1262.13 1514.68 1263.89 1512.33 Q1265.64 1509.93 1268.51 1508.18 Q1271.38 1506.42 1274.54 1506.42 Q1276.42 1506.42 1278 1507.24 Q1279.64 1508.06 1280.46 1508.94 Q1281.34 1509.76 1282.8 1511.57 Q1284.03 1512.98 1284.61 1513.56 Q1285.2 1514.15 1286.37 1514.79 Q1287.6 1515.38 1288.95 1515.38 Q1291.17 1515.38 1293.22 1513.68 Q1295.27 1511.92 1297.91 1507.71 Q1298.61 1506.42 1299.72 1506.42 Q1301.01 1506.42 1301.01 1507.59 Z" fill="#000000" fill-rule="nonzero" fill-opacity="1"></path><polyline clip-path="url(#clip900)" style="stroke:#000000; stroke-linecap:round; stroke-linejoin:round; stroke-width:4; stroke-opacity:1; fill:none" points="292.359,1328.42 292.359,47.2441 "></polyline>
<polyline clip-path="url(#clip900)" style="stroke:#000000; stroke-linecap:round; stroke-linejoin:round; stroke-width:4; stroke-opacity:1; fill:none" points="2257.89,1328.42 2257.89,47.2441 "></polyline>
<polyline clip-path="url(#clip900)" style="stroke:#000000; stroke-linecap:round; stroke-linejoin:round; stroke-width:4; stroke-opacity:1; fill:none" points="292.359,1292.16 307.456,1292.16 "></polyline>
<polyline clip-path="url(#clip900)" style="stroke:#000000; stroke-linecap:round; stroke-linejoin:round; stroke-width:4; stroke-opacity:1; fill:none" points="292.359,1013.73 307.456,1013.73 "></polyline>
<polyline clip-path="url(#clip900)" style="stroke:#000000; stroke-linecap:round; stroke-linejoin:round; stroke-width:4; stroke-opacity:1; fill:none" points="292.359,735.306 307.456,735.306 "></polyline>
<polyline clip-path="url(#clip900)" style="stroke:#000000; stroke-linecap:round; stroke-linejoin:round; stroke-width:4; stroke-opacity:1; fill:none" points="292.359,456.882 307.456,456.882 "></polyline>
<polyline clip-path="url(#clip900)" style="stroke:#000000; stroke-linecap:round; stroke-linejoin:round; stroke-width:4; stroke-opacity:1; fill:none" points="292.359,178.457 307.456,178.457 "></polyline>
<path clip-path="url(#clip900)" d="M210.433 1294.22 Q210.433 1280.28 213.953 1272.68 Q218.863 1261.38 230.442 1261.38 Q232.897 1261.38 235.445 1262.07 Q238.039 1262.72 241.281 1265.27 Q244.57 1267.82 246.561 1271.98 Q250.359 1280.04 250.359 1294.22 Q250.359 1308.07 246.839 1315.62 Q241.698 1326.64 230.35 1326.64 Q226.088 1326.64 221.734 1324.46 Q217.427 1322.29 214.694 1317.05 Q210.433 1309.22 210.433 1294.22 M218.307 1293.06 Q218.307 1307.37 219.326 1313.07 Q220.484 1319.23 223.633 1321.92 Q226.829 1324.56 230.35 1324.56 Q234.148 1324.56 237.298 1321.73 Q240.494 1318.86 241.466 1312.7 Q242.532 1306.63 242.485 1293.06 Q242.485 1279.86 241.559 1274.58 Q240.308 1268.42 236.973 1265.96 Q233.685 1263.46 230.35 1263.46 Q229.099 1263.46 227.756 1263.83 Q226.459 1264.2 224.56 1265.27 Q222.661 1266.33 221.179 1268.97 Q219.743 1271.61 219.048 1275.6 Q218.307 1280.74 218.307 1293.06 Z" fill="#000000" fill-rule="nonzero" fill-opacity="1"></path><path clip-path="url(#clip900)" d="M219.048 991.985 L219.048 989.02 Q230.442 989.02 236.325 982.952 Q237.946 982.952 238.224 983.323 Q238.502 983.694 238.502 985.407 L238.502 1038.63 Q238.502 1041.45 239.891 1042.33 Q241.281 1043.21 247.349 1043.21 L250.359 1043.21 L250.359 1046.13 Q247.024 1045.85 234.982 1045.85 Q222.939 1045.85 219.65 1046.13 L219.65 1043.21 L222.661 1043.21 Q228.636 1043.21 230.072 1042.38 Q231.508 1041.5 231.508 1038.63 L231.508 989.483 Q226.552 991.985 219.048 991.985 Z" fill="#000000" fill-rule="nonzero" fill-opacity="1"></path><path clip-path="url(#clip900)" d="M212.471 767.706 Q212.471 765.993 212.61 765.483 Q212.795 764.974 213.536 764.186 L231.739 743.899 Q241.698 732.689 241.698 722.916 Q241.698 716.571 238.363 712.031 Q235.074 707.492 229.006 707.492 Q224.838 707.492 221.318 710.04 Q217.797 712.587 216.176 717.126 Q216.454 717.034 217.427 717.034 Q219.789 717.034 221.086 718.516 Q222.429 719.998 222.429 721.99 Q222.429 724.537 220.762 725.788 Q219.141 726.992 217.519 726.992 Q216.871 726.992 215.991 726.853 Q215.157 726.714 213.814 725.417 Q212.471 724.074 212.471 721.712 Q212.471 715.088 217.473 709.808 Q222.522 704.528 230.211 704.528 Q238.919 704.528 244.616 709.715 Q250.359 714.857 250.359 722.916 Q250.359 725.742 249.479 728.335 Q248.646 730.883 247.488 732.875 Q246.376 734.866 243.319 738.062 Q240.262 741.258 237.807 743.528 Q235.352 745.798 229.84 750.615 L219.789 760.388 L236.881 760.388 Q245.218 760.388 245.867 759.647 Q246.793 758.304 247.951 751.217 L250.359 751.217 L247.673 767.706 L212.471 767.706 Z" fill="#000000" fill-rule="nonzero" fill-opacity="1"></path><path clip-path="url(#clip900)" d="M210.988 476.498 Q210.988 473.672 212.61 472.329 Q214.231 470.986 216.315 470.986 Q218.492 470.986 220.021 472.422 Q221.595 473.811 221.595 476.266 Q221.595 478.906 219.743 480.388 Q217.936 481.871 215.342 481.5 Q217.612 485.298 221.781 487.012 Q225.996 488.726 229.887 488.726 Q233.963 488.726 237.251 485.206 Q240.586 481.685 240.586 473.07 Q240.586 465.752 237.714 461.537 Q234.889 457.322 229.284 457.322 L225.116 457.322 Q223.68 457.322 223.263 457.183 Q222.846 457.044 222.846 456.256 Q222.846 455.33 224.282 455.145 Q225.718 455.145 227.987 454.867 Q233.499 454.681 236.417 449.911 Q239.058 445.464 239.058 439.118 Q239.058 433.328 236.279 430.92 Q233.546 428.465 229.979 428.465 Q226.644 428.465 222.985 429.855 Q219.326 431.244 217.334 434.348 Q223.217 434.348 223.217 439.118 Q223.217 441.203 221.873 442.592 Q220.576 443.935 218.399 443.935 Q216.315 443.935 214.926 442.639 Q213.536 441.295 213.536 439.026 Q213.536 433.606 218.353 429.855 Q223.217 426.103 230.35 426.103 Q237.39 426.103 242.578 429.808 Q247.812 433.514 247.812 439.211 Q247.812 444.816 244.106 449.401 Q240.401 453.987 234.518 455.886 Q241.744 457.322 246.052 462.231 Q250.359 467.095 250.359 473.07 Q250.359 480.481 244.523 485.947 Q238.687 491.366 230.164 491.366 Q222.29 491.366 216.639 487.105 Q210.988 482.843 210.988 476.498 Z" fill="#000000" fill-rule="nonzero" fill-opacity="1"></path><path clip-path="url(#clip900)" d="M208.302 195.201 L208.302 192.283 L237.436 147.771 Q238.178 146.613 239.336 146.659 Q240.401 146.659 240.632 147.076 Q240.864 147.493 240.864 149.114 L240.864 192.283 L250.359 192.283 L250.359 195.201 L240.864 195.201 L240.864 203.446 Q240.864 206.179 241.976 207.059 Q243.134 207.939 248.043 207.939 L250.035 207.939 L250.035 210.857 Q246.144 210.579 237.159 210.579 Q228.219 210.579 224.328 210.857 L224.328 207.939 L226.32 207.939 Q231.23 207.939 232.388 207.105 Q233.546 206.225 233.546 203.446 L233.546 195.201 L208.302 195.201 M210.988 192.283 L234.102 192.283 L234.102 156.895 L210.988 192.283 Z" fill="#000000" fill-rule="nonzero" fill-opacity="1"></path><path clip-path="url(#clip900)" d="M180.293 1105.6 L83.1364 1105.6 Q79.2644 1105.6 79.2644 1103.52 Q79.2644 1101.43 82.3722 1101.43 L179.529 1101.43 Q183.401 1101.43 183.401 1103.52 Q183.401 1105.6 180.293 1105.6 Z" fill="#000000" fill-rule="nonzero" fill-opacity="1"></path><path clip-path="url(#clip900)" d="M118.605 1003.54 Q119.132 1003.07 119.659 1003.07 Q120.186 1003.07 121.708 1004.24 Q123.23 1005.35 125.28 1007.75 Q127.329 1010.15 129.262 1013.26 Q131.194 1016.36 132.482 1020.93 Q133.829 1025.5 133.829 1030.3 Q133.829 1039.26 127.915 1044.53 Q122.001 1049.74 113.51 1049.74 Q105.254 1049.74 97.3486 1045.11 Q89.385 1040.49 84.4663 1032.99 Q79.489 1025.5 79.489 1017.59 Q79.489 1011.32 82.4168 1007.4 Q85.3446 1003.48 89.7949 1003.48 Q93.2497 1003.48 95.3577 1005.47 Q97.4657 1007.46 97.4657 1010.15 Q97.4657 1012.03 96.4117 1013.32 Q95.2992 1014.6 93.2497 1014.6 Q90.6147 1014.6 88.5652 1012.44 Q87.7454 1011.62 87.3941 1010.68 Q86.9842 1009.68 86.9842 1009.1 Q86.9256 1008.51 86.9256 1007.17 Q84.642 1008.4 83.4123 1011.32 Q82.124 1014.19 82.124 1017.47 Q82.124 1022.33 85.5203 1026.96 Q88.858 1031.58 94.128 1034.4 Q99.281 1037.21 106.6 1039.02 Q113.861 1040.84 118.077 1040.84 Q123.875 1040.84 127.505 1038.14 Q131.136 1035.45 131.136 1030.06 Q131.136 1029.01 131.077 1027.9 Q131.018 1026.72 130.374 1023.8 Q129.73 1020.81 128.618 1018.18 Q127.505 1015.54 125.104 1012.2 Q122.645 1008.81 119.307 1006.11 Q118.077 1005.18 118.077 1004.53 Q118.077 1004.01 118.605 1003.54 Z" fill="#000000" fill-rule="nonzero" fill-opacity="1"></path><path clip-path="url(#clip900)" d="M143.349 946.868 Q149.334 946.868 155.113 949.901 Q160.893 952.893 164.459 957.607 Q167.984 962.321 167.984 967.117 Q167.984 969.986 166.426 971.912 Q164.828 973.798 162.573 974.823 Q165.361 975.601 172.042 977.282 Q178.723 978.962 179.379 978.962 Q179.748 978.962 179.912 978.881 Q180.076 978.799 180.281 978.43 Q180.527 978.061 180.609 977.159 Q180.732 976.257 180.732 974.741 Q180.732 973.962 180.732 973.675 Q180.773 973.347 180.978 973.06 Q181.182 972.732 181.633 972.732 Q183.314 972.732 183.314 974.249 Q183.314 975.601 183.191 978.389 Q183.068 981.176 183.068 982.57 Q183.068 983.758 183.191 986.136 Q183.314 988.513 183.314 989.62 Q183.314 990.726 182.33 990.726 Q181.756 990.726 181.387 990.562 Q181.059 990.439 180.896 990.112 Q180.773 989.784 180.732 989.497 Q180.732 989.251 180.732 988.759 Q180.732 986.873 180.404 986.054 Q180.117 985.234 179.502 984.947 Q178.928 984.619 177.288 984.25 L139.906 974.823 Q137.406 974.249 135.643 974.249 Q133.43 974.249 132.61 974.946 Q131.79 975.642 131.79 976.872 Q131.79 979.003 134.332 980.397 Q136.873 981.791 141.792 982.979 Q143.144 983.348 143.431 983.594 Q143.718 983.799 143.718 984.414 Q143.677 985.439 142.857 985.439 Q142.653 985.439 141.341 985.111 Q139.988 984.783 138.021 984.168 Q136.012 983.512 134.742 982.815 Q133.881 982.406 133.307 982.037 Q132.733 981.668 131.831 980.93 Q130.93 980.151 130.438 979.044 Q129.946 977.938 129.946 976.585 Q129.946 973.962 131.503 971.789 Q133.061 969.617 136.217 969.043 Q133.471 966.707 131.708 963.837 Q129.946 960.968 129.946 958.058 Q129.946 953.221 133.717 950.065 Q137.447 946.868 143.349 946.868 M139.66 952.934 Q135.93 952.934 133.881 954.369 Q131.79 955.763 131.79 958.304 Q131.79 961.46 134.988 965.108 Q138.021 968.715 140.849 969.453 L157.286 973.593 L158.638 973.839 Q158.884 973.839 159.622 973.716 Q160.319 973.552 161.467 973.101 Q162.614 972.609 163.639 971.953 Q164.623 971.257 165.361 970.027 Q166.098 968.756 166.098 967.199 Q166.098 964.698 163.885 961.993 Q161.672 959.247 157.491 957.197 Q154.785 955.927 148.965 954.451 Q143.103 952.934 139.66 952.934 Z" fill="#000000" fill-rule="nonzero" fill-opacity="1"></path><path clip-path="url(#clip900)" d="M119.125 938.829 L116.501 938.829 Q116.501 928.746 111.132 923.54 Q111.132 922.106 111.46 921.86 Q111.788 921.614 113.304 921.614 L160.401 921.614 Q162.901 921.614 163.68 920.384 Q164.459 919.155 164.459 913.785 L164.459 911.121 L167.041 911.121 Q166.795 914.072 166.795 924.729 Q166.795 935.386 167.041 938.297 L164.459 938.297 L164.459 935.632 Q164.459 930.345 163.721 929.074 Q162.942 927.803 160.401 927.803 L116.911 927.803 Q119.125 932.189 119.125 938.829 Z" fill="#000000" fill-rule="nonzero" fill-opacity="1"></path><path clip-path="url(#clip900)" d="M180.293 871.656 L83.1364 871.656 Q79.2644 871.656 79.2644 869.567 Q79.2644 867.478 82.3722 867.478 L179.529 867.478 Q183.401 867.478 183.401 869.567 Q183.401 871.656 180.293 871.656 Z" fill="#000000" fill-rule="nonzero" fill-opacity="1"></path><path clip-path="url(#clip900)" d="M74.5631 733.53 Q54.0116 733.53 37.4398 725.868 Q30.4903 722.601 24.6694 718.027 Q18.8485 713.454 16.2944 710.425 Q13.7403 707.395 13.7403 706.564 Q13.7403 705.376 14.9283 705.316 Q15.5222 705.316 17.0072 706.92 Q36.9646 726.521 74.5631 726.462 Q112.28 726.462 131.466 707.395 Q133.545 705.316 134.198 705.316 Q135.386 705.316 135.386 706.564 Q135.386 707.395 132.951 710.306 Q130.515 713.216 124.932 717.73 Q119.349 722.245 112.518 725.511 Q95.9461 733.53 74.5631 733.53 Z" fill="#000000" fill-rule="nonzero" fill-opacity="1"></path><path clip-path="url(#clip900)" d="M130.667 616.93 Q131.37 617.515 131.37 618.569 Q131.37 619.565 130.667 620.267 L105.839 645.095 L130.667 669.923 Q131.37 670.626 131.37 671.68 Q131.37 672.675 130.667 673.319 Q130.023 674.022 129.027 674.022 Q128.032 674.022 127.329 673.319 L102.502 648.491 L77.6738 673.319 Q76.9711 674.022 75.9757 674.022 Q74.9216 674.022 74.3361 673.319 Q73.6334 672.675 73.6334 671.68 Q73.6334 670.626 74.3361 669.923 L99.1639 645.095 L74.3361 620.267 Q73.6334 619.565 73.6334 618.569 Q73.6334 617.515 74.3361 616.93 Q74.9216 616.227 75.9757 616.227 Q76.9711 616.227 77.6738 616.93 L102.502 641.757 L127.329 616.93 Q128.032 616.227 129.086 616.227 Q130.081 616.227 130.667 616.93 Z" fill="#000000" fill-rule="nonzero" fill-opacity="1"></path><path clip-path="url(#clip900)" d="M64.0302 570.786 L60.2826 570.786 Q60.2826 556.381 52.6118 548.945 Q52.6118 546.895 53.0802 546.544 Q53.5487 546.193 55.7152 546.193 L122.996 546.193 Q126.568 546.193 127.681 544.436 Q128.793 542.679 128.793 535.008 L128.793 531.202 L132.482 531.202 Q132.131 535.418 132.131 550.643 Q132.131 565.868 132.482 570.025 L128.793 570.025 L128.793 566.219 Q128.793 558.665 127.739 556.85 Q126.627 555.035 122.996 555.035 L60.8682 555.035 Q64.0302 561.3 64.0302 570.786 Z" fill="#000000" fill-rule="nonzero" fill-opacity="1"></path><path clip-path="url(#clip900)" d="M94.128 511.396 Q76.5027 511.396 66.8995 506.945 Q52.6118 500.738 52.6118 486.099 Q52.6118 482.996 53.4901 479.775 Q54.3099 476.496 57.5305 472.397 Q60.7511 468.24 66.0211 465.722 Q76.2099 460.92 94.128 460.92 Q111.636 460.92 121.181 465.37 Q135.117 471.87 135.117 486.216 Q135.117 491.604 132.365 497.108 Q129.613 502.554 122.996 506.008 Q113.1 511.396 94.128 511.396 M92.6641 501.441 Q110.758 501.441 117.96 500.153 Q125.748 498.689 129.145 494.707 Q132.482 490.667 132.482 486.216 Q132.482 481.415 128.91 477.433 Q125.28 473.393 117.492 472.163 Q109.821 470.816 92.6641 470.875 Q75.9757 470.875 69.3003 472.046 Q61.5123 473.627 58.4088 477.843 Q55.2468 482 55.2468 486.216 Q55.2468 487.797 55.7152 489.496 Q56.1837 491.135 57.5305 493.536 Q58.8773 495.937 62.215 497.811 Q65.5527 499.626 70.5885 500.504 Q77.0882 501.441 92.6641 501.441 Z" fill="#000000" fill-rule="nonzero" fill-opacity="1"></path><path clip-path="url(#clip900)" d="M47.8066 393.194 Q48.2984 392.702 48.9953 392.702 Q49.6921 392.702 50.184 393.194 Q50.6758 393.686 50.6758 394.382 L50.6758 446.931 Q50.6758 447.627 50.184 448.119 Q49.6921 448.611 48.9953 448.611 Q48.2984 448.611 47.8066 448.119 Q47.3147 447.627 47.3147 446.931 L47.3147 394.382 Q47.3147 393.686 47.8066 393.194 Z" fill="#000000" fill-rule="nonzero" fill-opacity="1"></path><path clip-path="url(#clip900)" d="M69.9818 383.937 Q68.4652 383.937 68.0143 383.814 Q67.5634 383.65 66.8666 382.994 L48.9133 366.885 Q38.9939 358.073 30.3451 358.073 Q24.7296 358.073 20.7127 361.024 Q16.6957 363.934 16.6957 369.304 Q16.6957 372.993 18.9501 376.108 Q21.2045 379.223 25.2215 380.658 Q25.1395 380.412 25.1395 379.551 Q25.1395 377.461 26.4512 376.313 Q27.7628 375.124 29.5254 375.124 Q31.7798 375.124 32.8865 376.6 Q33.9522 378.034 33.9522 379.469 Q33.9522 380.043 33.8292 380.822 Q33.7063 381.56 32.5586 382.748 Q31.3699 383.937 29.2794 383.937 Q23.418 383.937 18.7452 379.51 Q14.0724 375.042 14.0724 368.238 Q14.0724 360.532 18.6632 355.49 Q23.213 350.408 30.3451 350.408 Q32.8455 350.408 35.1409 351.186 Q37.3953 351.924 39.1578 352.949 Q40.9204 353.933 43.7486 356.638 Q46.5769 359.343 48.5854 361.516 Q50.5938 363.688 54.8567 368.566 L63.5055 377.461 L63.5055 362.336 Q63.5055 354.957 62.8496 354.384 Q61.661 353.564 55.3896 352.539 L55.3896 350.408 L69.9818 352.785 L69.9818 383.937 Z" fill="#000000" fill-rule="nonzero" fill-opacity="1"></path><path clip-path="url(#clip900)" d="M134.198 316.763 Q133.604 316.763 132.119 315.219 Q112.162 295.618 74.5631 295.618 Q36.8458 295.618 17.7793 314.447 Q15.5816 316.763 14.9283 316.763 Q13.7403 316.763 13.7403 315.576 Q13.7403 314.744 16.1756 311.834 Q18.6109 308.864 24.1942 304.409 Q29.7776 299.895 36.6083 296.568 Q53.1801 288.55 74.5631 288.55 Q95.1145 288.55 111.686 296.212 Q118.636 299.479 124.457 304.052 Q130.278 308.626 132.832 311.655 Q135.386 314.685 135.386 315.576 Q135.386 316.763 134.198 316.763 Z" fill="#000000" fill-rule="nonzero" fill-opacity="1"></path><polyline clip-path="url(#clip903)" style="stroke:#e31a1c; stroke-linecap:round; stroke-linejoin:round; stroke-width:16; stroke-opacity:1; fill:none" points="347.988,1292.16 377.421,1213.56 406.854,1133.32 436.287,1053.46 465.719,979.162 495.152,915.83 524.585,866.773 554.018,832.759 583.451,812.64 612.884,804.24 642.317,805.07 671.75,812.762 701.183,825.276 730.616,840.966 760.049,858.56 789.482,877.114 818.915,895.943 848.348,914.571 877.781,932.678 907.214,950.059 936.647,966.594 966.079,982.221 995.512,996.922 1024.95,1010.71 1054.38,1023.6 1083.81,1035.65 1113.24,1046.89 1142.68,1057.38 1172.11,1067.17 1201.54,1076.31 1230.98,1084.85 1260.41,1092.82 1289.84,1100.28 1319.27,1107.27 1348.71,1113.81 1378.14,1119.96 1407.57,1125.73 1437.01,1131.15 1466.44,1136.26 1495.87,1141.08 1525.31,1145.62 1554.74,1149.91 1584.17,1153.98 1613.6,1157.82 1643.04,1161.47 1672.47,1164.93 1701.9,1168.21 1731.34,1171.34 1760.77,1174.31 1790.2,1177.15 1819.63,1179.85 1849.07,1182.44 1878.5,1184.9 1907.93,1187.26 1937.37,1189.52 1966.8,1191.69 1996.23,1193.76 2025.67,1195.75 2055.1,1197.66 2084.53,1199.5 2113.96,1201.27 2143.4,1202.97 2172.83,1204.61 2202.26,1206.18 "></polyline>
<polyline clip-path="url(#clip903)" style="stroke:#377db8; stroke-linecap:round; stroke-linejoin:round; stroke-width:16; stroke-opacity:1; fill:none" points="347.988,1292.16 377.421,1239.94 406.854,1203.26 436.287,1185.23 465.719,1171.03 495.152,1140.65 524.585,1092.66 554.018,1038.84 583.451,988.981 612.884,948.044 642.317,917.57 671.75,897.179 701.183,885.58 730.616,881.174 760.049,882.376 789.482,887.781 818.915,896.208 848.348,906.709 877.781,918.544 907.214,931.15 936.647,944.106 966.079,957.105 995.512,969.929 1024.95,982.427 1054.38,994.498 1083.81,1006.08 1113.24,1017.14 1142.68,1027.66 1172.11,1037.64 1201.54,1047.09 1230.98,1056.03 1260.41,1064.47 1289.84,1072.45 1319.27,1079.99 1348.71,1087.1 1378.14,1093.83 1407.57,1100.18 1437.01,1106.19 1466.44,1111.87 1495.87,1117.25 1525.31,1122.35 1554.74,1127.18 1584.17,1131.77 1613.6,1136.13 1643.04,1140.27 1672.47,1144.21 1701.9,1147.96 1731.34,1151.53 1760.77,1154.94 1790.2,1158.2 1819.63,1161.3 1849.07,1164.28 1878.5,1167.12 1907.93,1169.84 1937.37,1172.45 1966.8,1174.95 1996.23,1177.35 2025.67,1179.66 2055.1,1181.87 2084.53,1184.01 2113.96,1186.06 2143.4,1188.03 2172.83,1189.93 2202.26,1191.77 "></polyline>
<polyline clip-path="url(#clip903)" style="stroke:#4dae49; stroke-linecap:round; stroke-linejoin:round; stroke-width:16; stroke-opacity:1; fill:none" points="347.988,1292.16 377.421,1278.46 406.854,1245.49 436.287,1211.35 465.719,1190.89 495.152,1186.11 524.585,1184.52 554.018,1168.72 583.451,1135.72 612.884,1095.25 642.317,1055.92 671.75,1022.14 701.183,995.533 730.616,976.186 760.049,963.422 789.482,956.26 818.915,953.657 848.348,954.639 877.781,958.354 907.214,964.089 936.647,971.263 966.079,979.416 995.512,988.188 1024.95,997.304 1054.38,1006.55 1083.81,1015.79 1113.24,1024.89 1142.68,1033.77 1172.11,1042.4 1201.54,1050.71 1230.98,1058.71 1260.41,1066.37 1289.84,1073.69 1319.27,1080.68 1348.71,1087.34 1378.14,1093.68 1407.57,1099.72 1437.01,1105.47 1466.44,1110.94 1495.87,1116.14 1525.31,1121.1 1554.74,1125.81 1584.17,1130.31 1613.6,1134.59 1643.04,1138.67 1672.47,1142.56 1701.9,1146.28 1731.34,1149.83 1760.77,1153.22 1790.2,1156.46 1819.63,1159.57 1849.07,1162.54 1878.5,1165.39 1907.93,1168.12 1937.37,1170.74 1966.8,1173.25 1996.23,1175.67 2025.67,1177.99 2055.1,1180.23 2084.53,1182.38 2113.96,1184.45 2143.4,1186.44 2172.83,1188.37 2202.26,1190.22 "></polyline>
<polyline clip-path="url(#clip903)" style="stroke:#974ea2; stroke-linecap:round; stroke-linejoin:round; stroke-width:16; stroke-opacity:1; fill:none" points="347.988,1292.16 377.421,1289.64 406.854,1275.01 436.287,1247.58 465.719,1218.06 495.152,1198.59 524.585,1193.99 554.018,1199.06 583.451,1200.46 612.884,1186.46 642.317,1159.24 671.75,1127.47 701.183,1097.13 730.616,1071.04 760.049,1050.18 789.482,1034.57 818.915,1023.73 848.348,1017.01 877.781,1013.71 907.214,1013.17 936.647,1014.79 966.079,1018.07 995.512,1022.59 1024.95,1028.01 1054.38,1034.05 1083.81,1040.5 1113.24,1047.18 1142.68,1053.96 1172.11,1060.76 1201.54,1067.48 1230.98,1074.08 1260.41,1080.53 1289.84,1086.78 1319.27,1092.83 1348.71,1098.66 1378.14,1104.27 1407.57,1109.65 1437.01,1114.82 1466.44,1119.77 1495.87,1124.51 1525.31,1129.04 1554.74,1133.38 1584.17,1137.53 1613.6,1141.5 1643.04,1145.3 1672.47,1148.93 1701.9,1152.41 1731.34,1155.74 1760.77,1158.94 1790.2,1162 1819.63,1164.93 1849.07,1167.74 1878.5,1170.44 1907.93,1173.03 1937.37,1175.52 1966.8,1177.92 1996.23,1180.22 2025.67,1182.44 2055.1,1184.57 2084.53,1186.62 2113.96,1188.6 2143.4,1190.51 2172.83,1192.36 2202.26,1194.13 "></polyline>
<path clip-path="url(#clip903)" d="M347.988 1264.16 L319.988 1292.16 L347.988 1320.16 L375.988 1292.16 L347.988 1264.16 Z" fill="#e31a1c" fill-rule="evenodd" fill-opacity="1" stroke="#000000" stroke-opacity="1" stroke-width="0"></path>
<path clip-path="url(#clip903)" d="M436.287 1029.18 L408.287 1057.18 L436.287 1085.18 L464.287 1057.18 L436.287 1029.18 Z" fill="#e31a1c" fill-rule="evenodd" fill-opacity="1" stroke="#000000" stroke-opacity="1" stroke-width="0"></path>
<path clip-path="url(#clip903)" d="M524.585 810.761 L496.585 838.761 L524.585 866.761 L552.585 838.761 L524.585 810.761 Z" fill="#e31a1c" fill-rule="evenodd" fill-opacity="1" stroke="#000000" stroke-opacity="1" stroke-width="0"></path>
<path clip-path="url(#clip903)" d="M612.884 638.802 L584.884 666.802 L612.884 694.802 L640.884 666.802 L612.884 638.802 Z" fill="#e31a1c" fill-rule="evenodd" fill-opacity="1" stroke="#000000" stroke-opacity="1" stroke-width="0"></path>
<path clip-path="url(#clip903)" d="M701.183 512.999 L673.183 540.999 L701.183 568.999 L729.183 540.999 L701.183 512.999 Z" fill="#e31a1c" fill-rule="evenodd" fill-opacity="1" stroke="#000000" stroke-opacity="1" stroke-width="0"></path>
<path clip-path="url(#clip903)" d="M789.482 420.918 L761.482 448.918 L789.482 476.918 L817.482 448.918 L789.482 420.918 Z" fill="#e31a1c" fill-rule="evenodd" fill-opacity="1" stroke="#000000" stroke-opacity="1" stroke-width="0"></path>
<path clip-path="url(#clip903)" d="M877.781 351.93 L849.781 379.93 L877.781 407.93 L905.781 379.93 L877.781 351.93 Z" fill="#e31a1c" fill-rule="evenodd" fill-opacity="1" stroke="#000000" stroke-opacity="1" stroke-width="0"></path>
<path clip-path="url(#clip903)" d="M966.079 298.84 L938.079 326.84 L966.079 354.84 L994.079 326.84 L966.079 298.84 Z" fill="#e31a1c" fill-rule="evenodd" fill-opacity="1" stroke="#000000" stroke-opacity="1" stroke-width="0"></path>
<path clip-path="url(#clip903)" d="M1054.38 256.954 L1026.38 284.954 L1054.38 312.954 L1082.38 284.954 L1054.38 256.954 Z" fill="#e31a1c" fill-rule="evenodd" fill-opacity="1" stroke="#000000" stroke-opacity="1" stroke-width="0"></path>
<path clip-path="url(#clip903)" d="M1142.68 223.175 L1114.68 251.175 L1142.68 279.175 L1170.68 251.175 L1142.68 223.175 Z" fill="#e31a1c" fill-rule="evenodd" fill-opacity="1" stroke="#000000" stroke-opacity="1" stroke-width="0"></path>
<path clip-path="url(#clip903)" d="M1230.98 195.412 L1202.98 223.412 L1230.98 251.412 L1258.98 223.412 L1230.98 195.412 Z" fill="#e31a1c" fill-rule="evenodd" fill-opacity="1" stroke="#000000" stroke-opacity="1" stroke-width="0"></path>
<path clip-path="url(#clip903)" d="M1319.27 172.217 L1291.27 200.217 L1319.27 228.217 L1347.27 200.217 L1319.27 172.217 Z" fill="#e31a1c" fill-rule="evenodd" fill-opacity="1" stroke="#000000" stroke-opacity="1" stroke-width="0"></path>
<path clip-path="url(#clip903)" d="M1407.57 152.562 L1379.57 180.562 L1407.57 208.562 L1435.57 180.562 L1407.57 152.562 Z" fill="#e31a1c" fill-rule="evenodd" fill-opacity="1" stroke="#000000" stroke-opacity="1" stroke-width="0"></path>
<path clip-path="url(#clip903)" d="M1495.87 135.698 L1467.87 163.698 L1495.87 191.698 L1523.87 163.698 L1495.87 135.698 Z" fill="#e31a1c" fill-rule="evenodd" fill-opacity="1" stroke="#000000" stroke-opacity="1" stroke-width="0"></path>
<path clip-path="url(#clip903)" d="M1584.17 121.071 L1556.17 149.071 L1584.17 177.071 L1612.17 149.071 L1584.17 121.071 Z" fill="#e31a1c" fill-rule="evenodd" fill-opacity="1" stroke="#000000" stroke-opacity="1" stroke-width="0"></path>
<path clip-path="url(#clip903)" d="M1672.47 108.261 L1644.47 136.261 L1672.47 164.261 L1700.47 136.261 L1672.47 108.261 Z" fill="#e31a1c" fill-rule="evenodd" fill-opacity="1" stroke="#000000" stroke-opacity="1" stroke-width="0"></path>
<path clip-path="url(#clip903)" d="M1760.77 96.9451 L1732.77 124.945 L1760.77 152.945 L1788.77 124.945 L1760.77 96.9451 Z" fill="#e31a1c" fill-rule="evenodd" fill-opacity="1" stroke="#000000" stroke-opacity="1" stroke-width="0"></path>
<path clip-path="url(#clip903)" d="M1849.07 86.8666 L1821.07 114.867 L1849.07 142.867 L1877.07 114.867 L1849.07 86.8666 Z" fill="#e31a1c" fill-rule="evenodd" fill-opacity="1" stroke="#000000" stroke-opacity="1" stroke-width="0"></path>
<path clip-path="url(#clip903)" d="M1937.37 77.8234 L1909.37 105.823 L1937.37 133.823 L1965.37 105.823 L1937.37 77.8234 Z" fill="#e31a1c" fill-rule="evenodd" fill-opacity="1" stroke="#000000" stroke-opacity="1" stroke-width="0"></path>
<path clip-path="url(#clip903)" d="M2025.67 69.6562 L1997.67 97.6562 L2025.67 125.656 L2053.67 97.6562 L2025.67 69.6562 Z" fill="#e31a1c" fill-rule="evenodd" fill-opacity="1" stroke="#000000" stroke-opacity="1" stroke-width="0"></path>
<path clip-path="url(#clip903)" d="M2113.96 62.2441 L2085.96 90.2441 L2113.96 118.244 L2141.96 90.2441 L2113.96 62.2441 Z" fill="#e31a1c" fill-rule="evenodd" fill-opacity="1" stroke="#000000" stroke-opacity="1" stroke-width="0"></path>
<path clip-path="url(#clip903)" d="M2202.26 55.5037 L2174.26 83.5037 L2202.26 111.504 L2230.26 83.5037 L2202.26 55.5037 Z" fill="#e31a1c" fill-rule="evenodd" fill-opacity="1" stroke="#000000" stroke-opacity="1" stroke-width="0"></path>
<path clip-path="url(#clip903)" d="M347.988 1264.16 L319.988 1292.16 L347.988 1320.16 L375.988 1292.16 L347.988 1264.16 Z" fill="#377db8" fill-rule="evenodd" fill-opacity="1" stroke="#000000" stroke-opacity="1" stroke-width="0"></path>
<path clip-path="url(#clip903)" d="M436.287 1121.17 L408.287 1149.17 L436.287 1177.17 L464.287 1149.17 L436.287 1121.17 Z" fill="#377db8" fill-rule="evenodd" fill-opacity="1" stroke="#000000" stroke-opacity="1" stroke-width="0"></path>
<path clip-path="url(#clip903)" d="M524.585 1031.57 L496.585 1059.57 L524.585 1087.57 L552.585 1059.57 L524.585 1031.57 Z" fill="#377db8" fill-rule="evenodd" fill-opacity="1" stroke="#000000" stroke-opacity="1" stroke-width="0"></path>
<path clip-path="url(#clip903)" d="M612.884 941.241 L584.884 969.241 L612.884 997.241 L640.884 969.241 L612.884 941.241 Z" fill="#377db8" fill-rule="evenodd" fill-opacity="1" stroke="#000000" stroke-opacity="1" stroke-width="0"></path>
<path clip-path="url(#clip903)" d="M701.183 852.286 L673.183 880.286 L701.183 908.286 L729.183 880.286 L701.183 852.286 Z" fill="#377db8" fill-rule="evenodd" fill-opacity="1" stroke="#000000" stroke-opacity="1" stroke-width="0"></path>
<path clip-path="url(#clip903)" d="M789.482 776.84 L761.482 804.84 L789.482 832.84 L817.482 804.84 L789.482 776.84 Z" fill="#377db8" fill-rule="evenodd" fill-opacity="1" stroke="#000000" stroke-opacity="1" stroke-width="0"></path>
<path clip-path="url(#clip903)" d="M877.781 716.061 L849.781 744.061 L877.781 772.061 L905.781 744.061 L877.781 716.061 Z" fill="#377db8" fill-rule="evenodd" fill-opacity="1" stroke="#000000" stroke-opacity="1" stroke-width="0"></path>
<path clip-path="url(#clip903)" d="M966.079 667.426 L938.079 695.426 L966.079 723.426 L994.079 695.426 L966.079 667.426 Z" fill="#377db8" fill-rule="evenodd" fill-opacity="1" stroke="#000000" stroke-opacity="1" stroke-width="0"></path>
<path clip-path="url(#clip903)" d="M1054.38 628.17 L1026.38 656.17 L1054.38 684.17 L1082.38 656.17 L1054.38 628.17 Z" fill="#377db8" fill-rule="evenodd" fill-opacity="1" stroke="#000000" stroke-opacity="1" stroke-width="0"></path>
<path clip-path="url(#clip903)" d="M1142.68 596.061 L1114.68 624.061 L1142.68 652.061 L1170.68 624.061 L1142.68 596.061 Z" fill="#377db8" fill-rule="evenodd" fill-opacity="1" stroke="#000000" stroke-opacity="1" stroke-width="0"></path>
<path clip-path="url(#clip903)" d="M1230.98 569.431 L1202.98 597.431 L1230.98 625.431 L1258.98 597.431 L1230.98 569.431 Z" fill="#377db8" fill-rule="evenodd" fill-opacity="1" stroke="#000000" stroke-opacity="1" stroke-width="0"></path>
<path clip-path="url(#clip903)" d="M1319.27 547.049 L1291.27 575.049 L1319.27 603.049 L1347.27 575.049 L1319.27 547.049 Z" fill="#377db8" fill-rule="evenodd" fill-opacity="1" stroke="#000000" stroke-opacity="1" stroke-width="0"></path>
<path clip-path="url(#clip903)" d="M1407.57 528.01 L1379.57 556.01 L1407.57 584.01 L1435.57 556.01 L1407.57 528.01 Z" fill="#377db8" fill-rule="evenodd" fill-opacity="1" stroke="#000000" stroke-opacity="1" stroke-width="0"></path>
<path clip-path="url(#clip903)" d="M1495.87 511.636 L1467.87 539.636 L1495.87 567.636 L1523.87 539.636 L1495.87 511.636 Z" fill="#377db8" fill-rule="evenodd" fill-opacity="1" stroke="#000000" stroke-opacity="1" stroke-width="0"></path>
<path clip-path="url(#clip903)" d="M1584.17 497.42 L1556.17 525.42 L1584.17 553.42 L1612.17 525.42 L1584.17 497.42 Z" fill="#377db8" fill-rule="evenodd" fill-opacity="1" stroke="#000000" stroke-opacity="1" stroke-width="0"></path>
<path clip-path="url(#clip903)" d="M1672.47 484.976 L1644.47 512.976 L1672.47 540.976 L1700.47 512.976 L1672.47 484.976 Z" fill="#377db8" fill-rule="evenodd" fill-opacity="1" stroke="#000000" stroke-opacity="1" stroke-width="0"></path>
<path clip-path="url(#clip903)" d="M1760.77 474.013 L1732.77 502.013 L1760.77 530.013 L1788.77 502.013 L1760.77 474.013 Z" fill="#377db8" fill-rule="evenodd" fill-opacity="1" stroke="#000000" stroke-opacity="1" stroke-width="0"></path>
<path clip-path="url(#clip903)" d="M1849.07 464.306 L1821.07 492.306 L1849.07 520.306 L1877.07 492.306 L1849.07 464.306 Z" fill="#377db8" fill-rule="evenodd" fill-opacity="1" stroke="#000000" stroke-opacity="1" stroke-width="0"></path>
<path clip-path="url(#clip903)" d="M1937.37 455.669 L1909.37 483.669 L1937.37 511.669 L1965.37 483.669 L1937.37 455.669 Z" fill="#377db8" fill-rule="evenodd" fill-opacity="1" stroke="#000000" stroke-opacity="1" stroke-width="0"></path>
<path clip-path="url(#clip903)" d="M2025.67 447.932 L1997.67 475.932 L2025.67 503.932 L2053.67 475.932 L2025.67 447.932 Z" fill="#377db8" fill-rule="evenodd" fill-opacity="1" stroke="#000000" stroke-opacity="1" stroke-width="0"></path>
<path clip-path="url(#clip903)" d="M2113.96 440.927 L2085.96 468.927 L2113.96 496.927 L2141.96 468.927 L2113.96 440.927 Z" fill="#377db8" fill-rule="evenodd" fill-opacity="1" stroke="#000000" stroke-opacity="1" stroke-width="0"></path>
<path clip-path="url(#clip903)" d="M2202.26 434.478 L2174.26 462.478 L2202.26 490.478 L2230.26 462.478 L2202.26 434.478 Z" fill="#377db8" fill-rule="evenodd" fill-opacity="1" stroke="#000000" stroke-opacity="1" stroke-width="0"></path>
<path clip-path="url(#clip903)" d="M347.988 1264.16 L319.988 1292.16 L347.988 1320.16 L375.988 1292.16 L347.988 1264.16 Z" fill="#4dae49" fill-rule="evenodd" fill-opacity="1" stroke="#000000" stroke-opacity="1" stroke-width="0"></path>
<path clip-path="url(#clip903)" d="M436.287 1213.54 L408.287 1241.54 L436.287 1269.54 L464.287 1241.54 L436.287 1213.54 Z" fill="#4dae49" fill-rule="evenodd" fill-opacity="1" stroke="#000000" stroke-opacity="1" stroke-width="0"></path>
<path clip-path="url(#clip903)" d="M524.585 1147.89 L496.585 1175.89 L524.585 1203.89 L552.585 1175.89 L524.585 1147.89 Z" fill="#4dae49" fill-rule="evenodd" fill-opacity="1" stroke="#000000" stroke-opacity="1" stroke-width="0"></path>
<path clip-path="url(#clip903)" d="M612.884 1099.58 L584.884 1127.58 L612.884 1155.58 L640.884 1127.58 L612.884 1099.58 Z" fill="#4dae49" fill-rule="evenodd" fill-opacity="1" stroke="#000000" stroke-opacity="1" stroke-width="0"></path>
<path clip-path="url(#clip903)" d="M701.183 1048.96 L673.183 1076.96 L701.183 1104.96 L729.183 1076.96 L701.183 1048.96 Z" fill="#4dae49" fill-rule="evenodd" fill-opacity="1" stroke="#000000" stroke-opacity="1" stroke-width="0"></path>
<path clip-path="url(#clip903)" d="M789.482 999.854 L761.482 1027.85 L789.482 1055.85 L817.482 1027.85 L789.482 999.854 Z" fill="#4dae49" fill-rule="evenodd" fill-opacity="1" stroke="#000000" stroke-opacity="1" stroke-width="0"></path>
<path clip-path="url(#clip903)" d="M877.781 957.046 L849.781 985.046 L877.781 1013.05 L905.781 985.046 L877.781 957.046 Z" fill="#4dae49" fill-rule="evenodd" fill-opacity="1" stroke="#000000" stroke-opacity="1" stroke-width="0"></path>
<path clip-path="url(#clip903)" d="M966.079 921.298 L938.079 949.298 L966.079 977.298 L994.079 949.298 L966.079 921.298 Z" fill="#4dae49" fill-rule="evenodd" fill-opacity="1" stroke="#000000" stroke-opacity="1" stroke-width="0"></path>
<path clip-path="url(#clip903)" d="M1054.38 891.762 L1026.38 919.762 L1054.38 947.762 L1082.38 919.762 L1054.38 891.762 Z" fill="#4dae49" fill-rule="evenodd" fill-opacity="1" stroke="#000000" stroke-opacity="1" stroke-width="0"></path>
<path clip-path="url(#clip903)" d="M1142.68 867.296 L1114.68 895.296 L1142.68 923.296 L1170.68 895.296 L1142.68 867.296 Z" fill="#4dae49" fill-rule="evenodd" fill-opacity="1" stroke="#000000" stroke-opacity="1" stroke-width="0"></path>
<path clip-path="url(#clip903)" d="M1230.98 846.876 L1202.98 874.876 L1230.98 902.876 L1258.98 874.876 L1230.98 846.876 Z" fill="#4dae49" fill-rule="evenodd" fill-opacity="1" stroke="#000000" stroke-opacity="1" stroke-width="0"></path>
<path clip-path="url(#clip903)" d="M1319.27 829.676 L1291.27 857.676 L1319.27 885.676 L1347.27 857.676 L1319.27 829.676 Z" fill="#4dae49" fill-rule="evenodd" fill-opacity="1" stroke="#000000" stroke-opacity="1" stroke-width="0"></path>
<path clip-path="url(#clip903)" d="M1407.57 815.054 L1379.57 843.054 L1407.57 871.054 L1435.57 843.054 L1407.57 815.054 Z" fill="#4dae49" fill-rule="evenodd" fill-opacity="1" stroke="#000000" stroke-opacity="1" stroke-width="0"></path>
<path clip-path="url(#clip903)" d="M1495.87 802.51 L1467.87 830.51 L1495.87 858.51 L1523.87 830.51 L1495.87 802.51 Z" fill="#4dae49" fill-rule="evenodd" fill-opacity="1" stroke="#000000" stroke-opacity="1" stroke-width="0"></path>
<path clip-path="url(#clip903)" d="M1584.17 791.655 L1556.17 819.655 L1584.17 847.655 L1612.17 819.655 L1584.17 791.655 Z" fill="#4dae49" fill-rule="evenodd" fill-opacity="1" stroke="#000000" stroke-opacity="1" stroke-width="0"></path>
<path clip-path="url(#clip903)" d="M1672.47 782.179 L1644.47 810.179 L1672.47 838.179 L1700.47 810.179 L1672.47 782.179 Z" fill="#4dae49" fill-rule="evenodd" fill-opacity="1" stroke="#000000" stroke-opacity="1" stroke-width="0"></path>
<path clip-path="url(#clip903)" d="M1760.77 773.843 L1732.77 801.843 L1760.77 829.843 L1788.77 801.843 L1760.77 773.843 Z" fill="#4dae49" fill-rule="evenodd" fill-opacity="1" stroke="#000000" stroke-opacity="1" stroke-width="0"></path>
<path clip-path="url(#clip903)" d="M1849.07 766.469 L1821.07 794.469 L1849.07 822.469 L1877.07 794.469 L1849.07 766.469 Z" fill="#4dae49" fill-rule="evenodd" fill-opacity="1" stroke="#000000" stroke-opacity="1" stroke-width="0"></path>
<path clip-path="url(#clip903)" d="M1937.37 759.932 L1909.37 787.932 L1937.37 815.932 L1965.37 787.932 L1937.37 759.932 Z" fill="#4dae49" fill-rule="evenodd" fill-opacity="1" stroke="#000000" stroke-opacity="1" stroke-width="0"></path>
<path clip-path="url(#clip903)" d="M2025.67 754.144 L1997.67 782.144 L2025.67 810.144 L2053.67 782.144 L2025.67 754.144 Z" fill="#4dae49" fill-rule="evenodd" fill-opacity="1" stroke="#000000" stroke-opacity="1" stroke-width="0"></path>
<path clip-path="url(#clip903)" d="M2113.96 749.03 L2085.96 777.03 L2113.96 805.03 L2141.96 777.03 L2113.96 749.03 Z" fill="#4dae49" fill-rule="evenodd" fill-opacity="1" stroke="#000000" stroke-opacity="1" stroke-width="0"></path>
<path clip-path="url(#clip903)" d="M2202.26 744.513 L2174.26 772.513 L2202.26 800.513 L2230.26 772.513 L2202.26 744.513 Z" fill="#4dae49" fill-rule="evenodd" fill-opacity="1" stroke="#000000" stroke-opacity="1" stroke-width="0"></path>
<path clip-path="url(#clip903)" d="M347.988 1264.16 L319.988 1292.16 L347.988 1320.16 L375.988 1292.16 L347.988 1264.16 Z" fill="#974ea2" fill-rule="evenodd" fill-opacity="1" stroke="#000000" stroke-opacity="1" stroke-width="0"></path>
<path clip-path="url(#clip903)" d="M436.287 1246.98 L408.287 1274.98 L436.287 1302.98 L464.287 1274.98 L436.287 1246.98 Z" fill="#974ea2" fill-rule="evenodd" fill-opacity="1" stroke="#000000" stroke-opacity="1" stroke-width="0"></path>
<path clip-path="url(#clip903)" d="M524.585 1200.97 L496.585 1228.97 L524.585 1256.97 L552.585 1228.97 L524.585 1200.97 Z" fill="#974ea2" fill-rule="evenodd" fill-opacity="1" stroke="#000000" stroke-opacity="1" stroke-width="0"></path>
<path clip-path="url(#clip903)" d="M612.884 1168.44 L584.884 1196.44 L612.884 1224.44 L640.884 1196.44 L612.884 1168.44 Z" fill="#974ea2" fill-rule="evenodd" fill-opacity="1" stroke="#000000" stroke-opacity="1" stroke-width="0"></path>
<path clip-path="url(#clip903)" d="M701.183 1141.13 L673.183 1169.13 L701.183 1197.13 L729.183 1169.13 L701.183 1141.13 Z" fill="#974ea2" fill-rule="evenodd" fill-opacity="1" stroke="#000000" stroke-opacity="1" stroke-width="0"></path>
<path clip-path="url(#clip903)" d="M789.482 1112.68 L761.482 1140.68 L789.482 1168.68 L817.482 1140.68 L789.482 1112.68 Z" fill="#974ea2" fill-rule="evenodd" fill-opacity="1" stroke="#000000" stroke-opacity="1" stroke-width="0"></path>
<path clip-path="url(#clip903)" d="M877.781 1085.53 L849.781 1113.53 L877.781 1141.53 L905.781 1113.53 L877.781 1085.53 Z" fill="#974ea2" fill-rule="evenodd" fill-opacity="1" stroke="#000000" stroke-opacity="1" stroke-width="0"></path>
<path clip-path="url(#clip903)" d="M966.079 1061.53 L938.079 1089.53 L966.079 1117.53 L994.079 1089.53 L966.079 1061.53 Z" fill="#974ea2" fill-rule="evenodd" fill-opacity="1" stroke="#000000" stroke-opacity="1" stroke-width="0"></path>
<path clip-path="url(#clip903)" d="M1054.38 1041.01 L1026.38 1069.01 L1054.38 1097.01 L1082.38 1069.01 L1054.38 1041.01 Z" fill="#974ea2" fill-rule="evenodd" fill-opacity="1" stroke="#000000" stroke-opacity="1" stroke-width="0"></path>
<path clip-path="url(#clip903)" d="M1142.68 1023.67 L1114.68 1051.67 L1142.68 1079.67 L1170.68 1051.67 L1142.68 1023.67 Z" fill="#974ea2" fill-rule="evenodd" fill-opacity="1" stroke="#000000" stroke-opacity="1" stroke-width="0"></path>
<path clip-path="url(#clip903)" d="M1230.98 1009.01 L1202.98 1037.01 L1230.98 1065.01 L1258.98 1037.01 L1230.98 1009.01 Z" fill="#974ea2" fill-rule="evenodd" fill-opacity="1" stroke="#000000" stroke-opacity="1" stroke-width="0"></path>
<path clip-path="url(#clip903)" d="M1319.27 996.553 L1291.27 1024.55 L1319.27 1052.55 L1347.27 1024.55 L1319.27 996.553 Z" fill="#974ea2" fill-rule="evenodd" fill-opacity="1" stroke="#000000" stroke-opacity="1" stroke-width="0"></path>
<path clip-path="url(#clip903)" d="M1407.57 985.909 L1379.57 1013.91 L1407.57 1041.91 L1435.57 1013.91 L1407.57 985.909 Z" fill="#974ea2" fill-rule="evenodd" fill-opacity="1" stroke="#000000" stroke-opacity="1" stroke-width="0"></path>
<path clip-path="url(#clip903)" d="M1495.87 976.752 L1467.87 1004.75 L1495.87 1032.75 L1523.87 1004.75 L1495.87 976.752 Z" fill="#974ea2" fill-rule="evenodd" fill-opacity="1" stroke="#000000" stroke-opacity="1" stroke-width="0"></path>
<path clip-path="url(#clip903)" d="M1584.17 968.824 L1556.17 996.824 L1584.17 1024.82 L1612.17 996.824 L1584.17 968.824 Z" fill="#974ea2" fill-rule="evenodd" fill-opacity="1" stroke="#000000" stroke-opacity="1" stroke-width="0"></path>
<path clip-path="url(#clip903)" d="M1672.47 961.917 L1644.47 989.917 L1672.47 1017.92 L1700.47 989.917 L1672.47 961.917 Z" fill="#974ea2" fill-rule="evenodd" fill-opacity="1" stroke="#000000" stroke-opacity="1" stroke-width="0"></path>
<path clip-path="url(#clip903)" d="M1760.77 955.85 L1732.77 983.85 L1760.77 1011.85 L1788.77 983.85 L1760.77 955.85 Z" fill="#974ea2" fill-rule="evenodd" fill-opacity="1" stroke="#000000" stroke-opacity="1" stroke-width="0"></path>
<path clip-path="url(#clip903)" d="M1849.07 950.476 L1821.07 978.476 L1849.07 1006.48 L1877.07 978.476 L1849.07 950.476 Z" fill="#974ea2" fill-rule="evenodd" fill-opacity="1" stroke="#000000" stroke-opacity="1" stroke-width="0"></path>
<path clip-path="url(#clip903)" d="M1937.37 945.696 L1909.37 973.696 L1937.37 1001.7 L1965.37 973.696 L1937.37 945.696 Z" fill="#974ea2" fill-rule="evenodd" fill-opacity="1" stroke="#000000" stroke-opacity="1" stroke-width="0"></path>
<path clip-path="url(#clip903)" d="M2025.67 941.473 L1997.67 969.473 L2025.67 997.473 L2053.67 969.473 L2025.67 941.473 Z" fill="#974ea2" fill-rule="evenodd" fill-opacity="1" stroke="#000000" stroke-opacity="1" stroke-width="0"></path>
<path clip-path="url(#clip903)" d="M2113.96 937.813 L2085.96 965.813 L2113.96 993.813 L2141.96 965.813 L2113.96 937.813 Z" fill="#974ea2" fill-rule="evenodd" fill-opacity="1" stroke="#000000" stroke-opacity="1" stroke-width="0"></path>
<path clip-path="url(#clip903)" d="M2202.26 934.735 L2174.26 962.735 L2202.26 990.735 L2230.26 962.735 L2202.26 934.735 Z" fill="#974ea2" fill-rule="evenodd" fill-opacity="1" stroke="#000000" stroke-opacity="1" stroke-width="0"></path>
<path clip-path="url(#clip900)" d="M2339.9 886.056 L2752.76 886.056 L2752.76 497.256 L2339.9 497.256  Z" fill="#ffffff" fill-rule="evenodd" fill-opacity="1"></path>
<polyline clip-path="url(#clip900)" style="stroke:#000000; stroke-linecap:round; stroke-linejoin:round; stroke-width:4; stroke-opacity:1; fill:none" points="2339.9,886.056 2752.76,886.056 2752.76,497.256 2339.9,497.256 2339.9,886.056 "></polyline>
<polyline clip-path="url(#clip900)" style="stroke:#e31a1c; stroke-linecap:round; stroke-linejoin:round; stroke-width:24; stroke-opacity:1; fill:none" points="2367.24,575.016 2531.27,575.016 "></polyline>
<path clip-path="url(#clip900)" d="M2596.2 571.525 Q2596.2 576.654 2593.6 581.608 Q2591.03 586.562 2586.99 589.619 Q2582.95 592.64 2578.84 592.64 Q2576.38 592.64 2574.73 591.305 Q2573.12 589.935 2572.24 588.002 Q2571.57 590.392 2570.13 596.118 Q2568.69 601.845 2568.69 602.407 Q2568.69 602.723 2568.76 602.864 Q2568.83 603.005 2569.15 603.18 Q2569.46 603.391 2570.24 603.461 Q2571.01 603.567 2572.31 603.567 Q2572.98 603.567 2573.22 603.567 Q2573.5 603.602 2573.75 603.777 Q2574.03 603.953 2574.03 604.34 Q2574.03 605.78 2572.73 605.78 Q2571.57 605.78 2569.18 605.675 Q2566.79 605.569 2565.6 605.569 Q2564.58 605.569 2562.54 605.675 Q2560.5 605.78 2559.55 605.78 Q2558.61 605.78 2558.61 604.937 Q2558.61 604.445 2558.75 604.129 Q2558.85 603.848 2559.13 603.707 Q2559.41 603.602 2559.66 603.567 Q2559.87 603.567 2560.29 603.567 Q2561.91 603.567 2562.61 603.286 Q2563.31 603.04 2563.56 602.513 Q2563.84 602.021 2564.16 600.615 L2572.24 568.574 Q2572.73 566.43 2572.73 564.92 Q2572.73 563.022 2572.13 562.32 Q2571.54 561.617 2570.48 561.617 Q2568.65 561.617 2567.46 563.795 Q2566.27 565.974 2565.25 570.19 Q2564.93 571.349 2564.72 571.595 Q2564.54 571.841 2564.02 571.841 Q2563.14 571.806 2563.14 571.103 Q2563.14 570.928 2563.42 569.803 Q2563.7 568.644 2564.23 566.957 Q2564.79 565.236 2565.39 564.147 Q2565.74 563.409 2566.05 562.917 Q2566.37 562.425 2567 561.652 Q2567.67 560.879 2568.62 560.458 Q2569.57 560.036 2570.73 560.036 Q2572.98 560.036 2574.84 561.371 Q2576.7 562.706 2577.19 565.412 Q2579.19 563.058 2581.65 561.547 Q2584.11 560.036 2586.61 560.036 Q2590.75 560.036 2593.46 563.268 Q2596.2 566.466 2596.2 571.525 M2591 568.363 Q2591 565.166 2589.77 563.409 Q2588.58 561.617 2586.4 561.617 Q2583.69 561.617 2580.56 564.358 Q2577.47 566.957 2576.84 569.382 L2573.29 583.47 L2573.08 584.63 Q2573.08 584.84 2573.19 585.473 Q2573.33 586.07 2573.71 587.054 Q2574.14 588.038 2574.7 588.916 Q2575.29 589.759 2576.35 590.392 Q2577.44 591.024 2578.77 591.024 Q2580.92 591.024 2583.24 589.127 Q2585.59 587.23 2587.35 583.646 Q2588.43 581.327 2589.7 576.338 Q2591 571.314 2591 568.363 Z" fill="#000000" fill-rule="nonzero" fill-opacity="1"></path><path clip-path="url(#clip900)" d="M2614.4 580.905 Q2614.47 580.027 2615.84 580.027 L2659.94 580.027 Q2662.01 580.027 2662.04 580.835 Q2662.04 581.714 2660.08 581.678 L2616.34 581.678 Q2614.4 581.714 2614.4 580.905 M2614.4 566.852 Q2614.4 565.974 2615.91 566.009 L2659.87 566.009 Q2662.01 566.009 2662.04 566.852 Q2662.04 567.66 2660.22 567.66 L2615.84 567.66 Q2614.4 567.66 2614.4 566.852 Z" fill="#000000" fill-rule="nonzero" fill-opacity="1"></path><path clip-path="url(#clip900)" d="M2689.79 568.819 Q2689.79 558.244 2692.46 552.482 Q2696.18 543.91 2704.97 543.91 Q2706.83 543.91 2708.76 544.437 Q2710.73 544.929 2713.19 546.861 Q2715.68 548.793 2717.19 551.955 Q2720.07 558.069 2720.07 568.819 Q2720.07 579.324 2717.4 585.051 Q2713.5 593.413 2704.9 593.413 Q2701.66 593.413 2698.36 591.762 Q2695.09 590.11 2693.02 586.14 Q2689.79 580.203 2689.79 568.819 M2695.76 567.941 Q2695.76 578.797 2696.53 583.119 Q2697.41 587.792 2699.8 589.829 Q2702.23 591.832 2704.9 591.832 Q2707.78 591.832 2710.17 589.689 Q2712.59 587.511 2713.33 582.838 Q2714.14 578.235 2714.1 567.941 Q2714.1 557.928 2713.4 553.923 Q2712.45 549.25 2709.92 547.388 Q2707.43 545.491 2704.9 545.491 Q2703.95 545.491 2702.93 545.772 Q2701.95 546.053 2700.51 546.861 Q2699.06 547.669 2697.94 549.672 Q2696.85 551.674 2696.32 554.696 Q2695.76 558.596 2695.76 567.941 Z" fill="#000000" fill-rule="nonzero" fill-opacity="1"></path><polyline clip-path="url(#clip900)" style="stroke:#377db8; stroke-linecap:round; stroke-linejoin:round; stroke-width:24; stroke-opacity:1; fill:none" points="2367.24,652.776 2531.27,652.776 "></polyline>
<path clip-path="url(#clip900)" d="M2596.2 649.285 Q2596.2 654.414 2593.6 659.368 Q2591.03 664.322 2586.99 667.379 Q2582.95 670.4 2578.84 670.4 Q2576.38 670.4 2574.73 669.065 Q2573.12 667.695 2572.24 665.762 Q2571.57 668.152 2570.13 673.878 Q2568.69 679.605 2568.69 680.167 Q2568.69 680.483 2568.76 680.624 Q2568.83 680.765 2569.15 680.94 Q2569.46 681.151 2570.24 681.221 Q2571.01 681.327 2572.31 681.327 Q2572.98 681.327 2573.22 681.327 Q2573.5 681.362 2573.75 681.537 Q2574.03 681.713 2574.03 682.1 Q2574.03 683.54 2572.73 683.54 Q2571.57 683.54 2569.18 683.435 Q2566.79 683.329 2565.6 683.329 Q2564.58 683.329 2562.54 683.435 Q2560.5 683.54 2559.55 683.54 Q2558.61 683.54 2558.61 682.697 Q2558.61 682.205 2558.75 681.889 Q2558.85 681.608 2559.13 681.467 Q2559.41 681.362 2559.66 681.327 Q2559.87 681.327 2560.29 681.327 Q2561.91 681.327 2562.61 681.046 Q2563.31 680.8 2563.56 680.273 Q2563.84 679.781 2564.16 678.375 L2572.24 646.334 Q2572.73 644.19 2572.73 642.68 Q2572.73 640.782 2572.13 640.08 Q2571.54 639.377 2570.48 639.377 Q2568.65 639.377 2567.46 641.555 Q2566.27 643.734 2565.25 647.95 Q2564.93 649.109 2564.72 649.355 Q2564.54 649.601 2564.02 649.601 Q2563.14 649.566 2563.14 648.863 Q2563.14 648.688 2563.42 647.563 Q2563.7 646.404 2564.23 644.717 Q2564.79 642.996 2565.39 641.907 Q2565.74 641.169 2566.05 640.677 Q2566.37 640.185 2567 639.412 Q2567.67 638.639 2568.62 638.218 Q2569.57 637.796 2570.73 637.796 Q2572.98 637.796 2574.84 639.131 Q2576.7 640.466 2577.19 643.172 Q2579.19 640.818 2581.65 639.307 Q2584.11 637.796 2586.61 637.796 Q2590.75 637.796 2593.46 641.028 Q2596.2 644.226 2596.2 649.285 M2591 646.123 Q2591 642.926 2589.77 641.169 Q2588.58 639.377 2586.4 639.377 Q2583.69 639.377 2580.56 642.118 Q2577.47 644.717 2576.84 647.142 L2573.29 661.23 L2573.08 662.39 Q2573.08 662.6 2573.19 663.233 Q2573.33 663.83 2573.71 664.814 Q2574.14 665.798 2574.7 666.676 Q2575.29 667.519 2576.35 668.152 Q2577.44 668.784 2578.77 668.784 Q2580.92 668.784 2583.24 666.887 Q2585.59 664.99 2587.35 661.406 Q2588.43 659.087 2589.7 654.098 Q2591 649.074 2591 646.123 Z" fill="#000000" fill-rule="nonzero" fill-opacity="1"></path><path clip-path="url(#clip900)" d="M2614.4 658.665 Q2614.47 657.787 2615.84 657.787 L2659.94 657.787 Q2662.01 657.787 2662.04 658.595 Q2662.04 659.474 2660.08 659.438 L2616.34 659.438 Q2614.4 659.474 2614.4 658.665 M2614.4 644.612 Q2614.4 643.734 2615.91 643.769 L2659.87 643.769 Q2662.01 643.769 2662.04 644.612 Q2662.04 645.42 2660.22 645.42 L2615.84 645.42 Q2614.4 645.42 2614.4 644.612 Z" fill="#000000" fill-rule="nonzero" fill-opacity="1"></path><path clip-path="url(#clip900)" d="M2689.79 628.521 L2689.79 626.272 Q2698.43 626.272 2702.89 621.67 Q2704.12 621.67 2704.33 621.951 Q2704.55 622.232 2704.55 623.532 L2704.55 663.9 Q2704.55 666.044 2705.6 666.711 Q2706.65 667.379 2711.26 667.379 L2713.54 667.379 L2713.54 669.592 Q2711.01 669.381 2701.88 669.381 Q2692.74 669.381 2690.25 669.592 L2690.25 667.379 L2692.53 667.379 Q2697.06 667.379 2698.15 666.746 Q2699.24 666.079 2699.24 663.9 L2699.24 626.624 Q2695.48 628.521 2689.79 628.521 Z" fill="#000000" fill-rule="nonzero" fill-opacity="1"></path><polyline clip-path="url(#clip900)" style="stroke:#4dae49; stroke-linecap:round; stroke-linejoin:round; stroke-width:24; stroke-opacity:1; fill:none" points="2367.24,730.536 2531.27,730.536 "></polyline>
<path clip-path="url(#clip900)" d="M2596.2 727.045 Q2596.2 732.174 2593.6 737.128 Q2591.03 742.082 2586.99 745.139 Q2582.95 748.16 2578.84 748.16 Q2576.38 748.16 2574.73 746.825 Q2573.12 745.455 2572.24 743.522 Q2571.57 745.912 2570.13 751.638 Q2568.69 757.365 2568.69 757.927 Q2568.69 758.243 2568.76 758.384 Q2568.83 758.525 2569.15 758.7 Q2569.46 758.911 2570.24 758.981 Q2571.01 759.087 2572.31 759.087 Q2572.98 759.087 2573.22 759.087 Q2573.5 759.122 2573.75 759.297 Q2574.03 759.473 2574.03 759.86 Q2574.03 761.3 2572.73 761.3 Q2571.57 761.3 2569.18 761.195 Q2566.79 761.089 2565.6 761.089 Q2564.58 761.089 2562.54 761.195 Q2560.5 761.3 2559.55 761.3 Q2558.61 761.3 2558.61 760.457 Q2558.61 759.965 2558.75 759.649 Q2558.85 759.368 2559.13 759.227 Q2559.41 759.122 2559.66 759.087 Q2559.87 759.087 2560.29 759.087 Q2561.91 759.087 2562.61 758.806 Q2563.31 758.56 2563.56 758.033 Q2563.84 757.541 2564.16 756.135 L2572.24 724.094 Q2572.73 721.95 2572.73 720.44 Q2572.73 718.542 2572.13 717.84 Q2571.54 717.137 2570.48 717.137 Q2568.65 717.137 2567.46 719.315 Q2566.27 721.494 2565.25 725.71 Q2564.93 726.869 2564.72 727.115 Q2564.54 727.361 2564.02 727.361 Q2563.14 727.326 2563.14 726.623 Q2563.14 726.448 2563.42 725.323 Q2563.7 724.164 2564.23 722.477 Q2564.79 720.756 2565.39 719.667 Q2565.74 718.929 2566.05 718.437 Q2566.37 717.945 2567 717.172 Q2567.67 716.399 2568.62 715.978 Q2569.57 715.556 2570.73 715.556 Q2572.98 715.556 2574.84 716.891 Q2576.7 718.226 2577.19 720.932 Q2579.19 718.578 2581.65 717.067 Q2584.11 715.556 2586.61 715.556 Q2590.75 715.556 2593.46 718.788 Q2596.2 721.986 2596.2 727.045 M2591 723.883 Q2591 720.686 2589.77 718.929 Q2588.58 717.137 2586.4 717.137 Q2583.69 717.137 2580.56 719.878 Q2577.47 722.477 2576.84 724.902 L2573.29 738.99 L2573.08 740.15 Q2573.08 740.36 2573.19 740.993 Q2573.33 741.59 2573.71 742.574 Q2574.14 743.558 2574.7 744.436 Q2575.29 745.279 2576.35 745.912 Q2577.44 746.544 2578.77 746.544 Q2580.92 746.544 2583.24 744.647 Q2585.59 742.75 2587.35 739.166 Q2588.43 736.847 2589.7 731.858 Q2591 726.834 2591 723.883 Z" fill="#000000" fill-rule="nonzero" fill-opacity="1"></path><path clip-path="url(#clip900)" d="M2614.4 736.425 Q2614.47 735.547 2615.84 735.547 L2659.94 735.547 Q2662.01 735.547 2662.04 736.355 Q2662.04 737.234 2660.08 737.198 L2616.34 737.198 Q2614.4 737.234 2614.4 736.425 M2614.4 722.372 Q2614.4 721.494 2615.91 721.529 L2659.87 721.529 Q2662.01 721.529 2662.04 722.372 Q2662.04 723.18 2660.22 723.18 L2615.84 723.18 Q2614.4 723.18 2614.4 722.372 Z" fill="#000000" fill-rule="nonzero" fill-opacity="1"></path><path clip-path="url(#clip900)" d="M2689.79 747.352 Q2689.79 746.052 2689.89 745.666 Q2690.04 745.279 2690.6 744.682 L2704.4 729.293 Q2711.96 720.791 2711.96 713.378 Q2711.96 708.564 2709.43 705.121 Q2706.93 701.678 2702.33 701.678 Q2699.17 701.678 2696.5 703.611 Q2693.83 705.543 2692.6 708.986 Q2692.81 708.916 2693.55 708.916 Q2695.34 708.916 2696.32 710.04 Q2697.34 711.164 2697.34 712.675 Q2697.34 714.607 2696.08 715.556 Q2694.85 716.47 2693.62 716.47 Q2693.13 716.47 2692.46 716.364 Q2691.83 716.259 2690.81 715.275 Q2689.79 714.256 2689.79 712.464 Q2689.79 707.44 2693.58 703.435 Q2697.41 699.43 2703.25 699.43 Q2709.85 699.43 2714.17 703.365 Q2718.53 707.265 2718.53 713.378 Q2718.53 715.521 2717.86 717.488 Q2717.23 719.421 2716.35 720.932 Q2715.51 722.442 2713.19 724.867 Q2710.87 727.291 2709.01 729.012 Q2707.15 730.734 2702.96 734.388 L2695.34 741.801 L2708.3 741.801 Q2714.63 741.801 2715.12 741.239 Q2715.82 740.22 2716.7 734.844 L2718.53 734.844 L2716.49 747.352 L2689.79 747.352 Z" fill="#000000" fill-rule="nonzero" fill-opacity="1"></path><polyline clip-path="url(#clip900)" style="stroke:#974ea2; stroke-linecap:round; stroke-linejoin:round; stroke-width:24; stroke-opacity:1; fill:none" points="2367.24,808.296 2531.27,808.296 "></polyline>
<path clip-path="url(#clip900)" d="M2596.2 804.805 Q2596.2 809.934 2593.6 814.888 Q2591.03 819.842 2586.99 822.899 Q2582.95 825.92 2578.84 825.92 Q2576.38 825.92 2574.73 824.585 Q2573.12 823.215 2572.24 821.282 Q2571.57 823.672 2570.13 829.398 Q2568.69 835.125 2568.69 835.687 Q2568.69 836.003 2568.76 836.144 Q2568.83 836.285 2569.15 836.46 Q2569.46 836.671 2570.24 836.741 Q2571.01 836.847 2572.31 836.847 Q2572.98 836.847 2573.22 836.847 Q2573.5 836.882 2573.75 837.057 Q2574.03 837.233 2574.03 837.62 Q2574.03 839.06 2572.73 839.06 Q2571.57 839.06 2569.18 838.955 Q2566.79 838.849 2565.6 838.849 Q2564.58 838.849 2562.54 838.955 Q2560.5 839.06 2559.55 839.06 Q2558.61 839.06 2558.61 838.217 Q2558.61 837.725 2558.75 837.409 Q2558.85 837.128 2559.13 836.987 Q2559.41 836.882 2559.66 836.847 Q2559.87 836.847 2560.29 836.847 Q2561.91 836.847 2562.61 836.566 Q2563.31 836.32 2563.56 835.793 Q2563.84 835.301 2564.16 833.895 L2572.24 801.854 Q2572.73 799.71 2572.73 798.2 Q2572.73 796.302 2572.13 795.6 Q2571.54 794.897 2570.48 794.897 Q2568.65 794.897 2567.46 797.075 Q2566.27 799.254 2565.25 803.47 Q2564.93 804.629 2564.72 804.875 Q2564.54 805.121 2564.02 805.121 Q2563.14 805.086 2563.14 804.383 Q2563.14 804.208 2563.42 803.083 Q2563.7 801.924 2564.23 800.237 Q2564.79 798.516 2565.39 797.427 Q2565.74 796.689 2566.05 796.197 Q2566.37 795.705 2567 794.932 Q2567.67 794.159 2568.62 793.738 Q2569.57 793.316 2570.73 793.316 Q2572.98 793.316 2574.84 794.651 Q2576.7 795.986 2577.19 798.692 Q2579.19 796.338 2581.65 794.827 Q2584.11 793.316 2586.61 793.316 Q2590.75 793.316 2593.46 796.548 Q2596.2 799.746 2596.2 804.805 M2591 801.643 Q2591 798.446 2589.77 796.689 Q2588.58 794.897 2586.4 794.897 Q2583.69 794.897 2580.56 797.638 Q2577.47 800.237 2576.84 802.662 L2573.29 816.75 L2573.08 817.91 Q2573.08 818.12 2573.19 818.753 Q2573.33 819.35 2573.71 820.334 Q2574.14 821.318 2574.7 822.196 Q2575.29 823.039 2576.35 823.672 Q2577.44 824.304 2578.77 824.304 Q2580.92 824.304 2583.24 822.407 Q2585.59 820.51 2587.35 816.926 Q2588.43 814.607 2589.7 809.618 Q2591 804.594 2591 801.643 Z" fill="#000000" fill-rule="nonzero" fill-opacity="1"></path><path clip-path="url(#clip900)" d="M2614.4 814.185 Q2614.47 813.307 2615.84 813.307 L2659.94 813.307 Q2662.01 813.307 2662.04 814.115 Q2662.04 814.994 2660.08 814.958 L2616.34 814.958 Q2614.4 814.994 2614.4 814.185 M2614.4 800.132 Q2614.4 799.254 2615.91 799.289 L2659.87 799.289 Q2662.01 799.289 2662.04 800.132 Q2662.04 800.94 2660.22 800.94 L2615.84 800.94 Q2614.4 800.94 2614.4 800.132 Z" fill="#000000" fill-rule="nonzero" fill-opacity="1"></path><path clip-path="url(#clip900)" d="M2689.79 815.415 Q2689.79 813.272 2691.02 812.253 Q2692.25 811.234 2693.83 811.234 Q2695.48 811.234 2696.64 812.323 Q2697.83 813.377 2697.83 815.239 Q2697.83 817.242 2696.43 818.366 Q2695.06 819.491 2693.09 819.21 Q2694.81 822.091 2697.98 823.39 Q2701.17 824.69 2704.12 824.69 Q2707.22 824.69 2709.71 822.02 Q2712.24 819.35 2712.24 812.815 Q2712.24 807.264 2710.06 804.067 Q2707.92 800.87 2703.67 800.87 L2700.51 800.87 Q2699.42 800.87 2699.1 800.764 Q2698.78 800.659 2698.78 800.062 Q2698.78 799.359 2699.87 799.219 Q2700.96 799.219 2702.68 799.008 Q2706.86 798.867 2709.08 795.248 Q2711.08 791.876 2711.08 787.062 Q2711.08 782.671 2708.97 780.844 Q2706.9 778.982 2704.19 778.982 Q2701.66 778.982 2698.89 780.036 Q2696.11 781.09 2694.6 783.444 Q2699.06 783.444 2699.06 787.062 Q2699.06 788.643 2698.05 789.697 Q2697.06 790.716 2695.41 790.716 Q2693.83 790.716 2692.78 789.732 Q2691.72 788.714 2691.72 786.992 Q2691.72 782.881 2695.38 780.036 Q2699.06 777.19 2704.48 777.19 Q2709.82 777.19 2713.75 780 Q2717.72 782.811 2717.72 787.133 Q2717.72 791.384 2714.91 794.862 Q2712.1 798.34 2707.64 799.781 Q2713.12 800.87 2716.39 804.594 Q2719.65 808.283 2719.65 812.815 Q2719.65 818.437 2715.23 822.582 Q2710.8 826.693 2704.33 826.693 Q2698.36 826.693 2694.08 823.461 Q2689.79 820.228 2689.79 815.415 Z" fill="#000000" fill-rule="nonzero" fill-opacity="1"></path><path clip-path="url(#clip900)" d="M592.717 205.424 Q592.717 205.477 592.401 207.374 L580.385 255.279 Q579.753 257.808 577.961 260.338 Q576.222 262.92 573.429 265.134 Q570.688 267.4 566.472 268.77 Q562.309 270.193 557.513 270.193 Q549.872 270.193 546.499 268.559 Q543.179 266.978 543.179 263.605 Q543.179 260.654 545.023 258.968 Q546.868 257.334 548.976 257.334 Q550.978 257.334 552.032 258.494 Q553.086 259.653 553.086 261.129 Q553.086 262.762 551.98 264.396 Q550.873 266.082 548.659 266.715 Q552.19 267.822 557.302 267.822 Q568.106 267.822 572.744 256.386 Q572.849 256.227 572.849 256.175 L576.433 241.893 L576.274 241.787 Q575.379 242.841 573.956 244.054 Q572.585 245.213 569.634 246.636 Q566.683 248.059 563.784 248.059 Q557.724 248.059 553.561 243.421 Q549.45 238.731 549.45 230.984 Q549.45 225.345 551.716 219.706 Q554.035 214.014 557.618 209.851 Q561.255 205.635 565.892 203 Q570.583 200.365 575.115 200.365 Q578.277 200.365 580.965 202.262 Q583.653 204.107 585.128 207.163 Q585.392 204.634 586.815 203.58 Q588.29 202.526 589.555 202.526 Q590.978 202.526 591.821 203.316 Q592.717 204.054 592.717 205.424 M583.863 212.012 Q583.863 211.695 583.653 210.852 Q583.442 209.956 582.809 208.533 Q582.23 207.111 581.334 205.846 Q580.438 204.581 578.804 203.685 Q577.223 202.736 575.22 202.736 Q571.953 202.736 568.686 205.477 Q565.418 208.165 563.152 212.328 Q561.044 216.333 559.041 224.08 Q557.091 231.827 557.091 235.78 Q557.091 239.679 558.778 242.683 Q560.464 245.687 564.101 245.687 Q568.317 245.687 572.849 241.787 Q577.539 237.73 578.33 234.251 L583.547 213.645 Q583.863 212.381 583.863 212.012 Z" fill="#000000" fill-rule="nonzero" fill-opacity="1"></path><path clip-path="url(#clip900)" d="M619.911 249.532 L609.029 293.21 Q608.586 294.944 608.586 296.826 Q608.586 300.293 610.873 300.293 Q611.943 300.293 612.828 299.592 Q613.714 298.855 614.378 297.416 Q615.079 295.94 615.521 294.538 Q616.001 293.137 616.591 290.96 Q616.776 290.112 616.96 289.853 Q617.144 289.595 617.661 289.595 Q618.583 289.595 618.583 290.333 Q617.661 294.87 616.296 297.748 Q614.304 301.99 610.615 301.99 Q607.848 301.99 605.782 300.072 Q603.753 298.117 603.753 295.018 Q603.753 293.838 604.122 292.436 L613.64 254.66 L613.898 253.184 Q613.898 252.779 613.751 252.557 Q613.603 252.336 612.718 252.115 Q611.869 251.893 610.172 251.893 Q609.471 251.893 609.139 251.856 Q608.844 251.819 608.549 251.635 Q608.291 251.45 608.291 251.045 Q608.291 250.381 608.549 250.012 Q608.844 249.643 609.065 249.569 Q609.287 249.495 609.729 249.458 Q610.357 249.422 612.459 249.237 Q614.562 249.016 616.37 248.868 Q618.177 248.721 618.952 248.721 Q619.395 248.721 619.616 248.942 Q619.874 249.126 619.911 249.348 L619.911 249.532 Z" fill="#000000" fill-rule="nonzero" fill-opacity="1"></path><path clip-path="url(#clip900)" d="M661.216 231.669 Q661.322 230.351 663.377 230.351 L729.516 230.351 Q732.626 230.351 732.678 231.564 Q732.678 232.881 729.727 232.828 L664.115 232.828 Q661.216 232.881 661.216 231.669 M661.216 210.589 Q661.216 209.271 663.483 209.324 L729.411 209.324 Q732.626 209.324 732.678 210.589 Q732.678 211.801 729.938 211.801 L663.377 211.801 Q661.216 211.801 661.216 210.589 Z" fill="#000000" fill-rule="nonzero" fill-opacity="1"></path><path clip-path="url(#clip900)" d="M774.305 186.452 L774.305 183.079 Q787.269 183.079 793.962 176.175 Q795.807 176.175 796.123 176.597 Q796.439 177.019 796.439 178.968 L796.439 239.521 Q796.439 242.736 798.02 243.737 Q799.601 244.739 806.505 244.739 L809.931 244.739 L809.931 248.059 Q806.136 247.743 792.434 247.743 Q778.732 247.743 774.99 248.059 L774.99 244.739 L778.416 244.739 Q785.214 244.739 786.848 243.79 Q788.482 242.789 788.482 239.521 L788.482 183.606 Q782.843 186.452 774.305 186.452 Z" fill="#000000" fill-rule="nonzero" fill-opacity="1"></path></svg>