<svg xmlns="http://www.w3.org/2000/svg" xmlns:xlink="http://www.w3.org/1999/xlink" width="700" height="400" viewBox="0 0 2800 1600">
<defs>
  <clipPath id="clip300">
    <rect x="0" y="0" width="2800" height="1600"></rect>
  </clipPath>
</defs>
<path clip-path="url(#clip300)" d="M0 1600 L2800 1600 L2800 0 L0 0  Z" fill="#ffffff" fill-rule="evenodd" fill-opacity="1"></path>
<defs>
  <clipPath id="clip301">
    <rect x="560" y="0" width="1961" height="1600"></rect>
  </clipPath>
</defs>
<defs>
  <clipPath id="clip302">
    <rect x="290" y="47" width="1968" height="1282"></rect>
  </clipPath>
</defs>
<path clip-path="url(#clip300)" d="M292.732 1328.42 L2257.94 1328.42 L2257.94 47.2441 L292.732 47.2441  Z" fill="#ffffff" fill-rule="evenodd" fill-opacity="1"></path>
<defs>
  <clipPath id="clip303">
    <rect x="292" y="47" width="1966" height="1282"></rect>
  </clipPath>
</defs>
<polyline clip-path="url(#clip300)" style="stroke:#000000; stroke-linecap:round; stroke-linejoin:round; stroke-width:4; stroke-opacity:1; fill:none" points="292.732,1328.42 2257.94,1328.42 "></polyline>
<polyline clip-path="url(#clip300)" style="stroke:#000000; stroke-linecap:round; stroke-linejoin:round; stroke-width:4; stroke-opacity:1; fill:none" points="292.732,47.2441 2257.94,47.2441 "></polyline>
<polyline clip-path="url(#clip300)" style="stroke:#000000; stroke-linecap:round; stroke-linejoin:round; stroke-width:4; stroke-opacity:1; fill:none" points="348.351,1328.42 348.351,1309.52 "></polyline>
<polyline clip-path="url(#clip300)" style="stroke:#000000; stroke-linecap:round; stroke-linejoin:round; stroke-width:4; stroke-opacity:1; fill:none" points="811.844,1328.42 811.844,1309.52 "></polyline>
<polyline clip-path="url(#clip300)" style="stroke:#000000; stroke-linecap:round; stroke-linejoin:round; stroke-width:4; stroke-opacity:1; fill:none" points="1275.34,1328.42 1275.34,1309.52 "></polyline>
<polyline clip-path="url(#clip300)" style="stroke:#000000; stroke-linecap:round; stroke-linejoin:round; stroke-width:4; stroke-opacity:1; fill:none" points="1738.83,1328.42 1738.83,1309.52 "></polyline>
<polyline clip-path="url(#clip300)" style="stroke:#000000; stroke-linecap:round; stroke-linejoin:round; stroke-width:4; stroke-opacity:1; fill:none" points="2202.32,1328.42 2202.32,1309.52 "></polyline>
<path clip-path="url(#clip300)" d="M267.78 1401.48 Q267.78 1387.53 271.3 1379.94 Q276.21 1368.64 287.789 1368.64 Q290.244 1368.64 292.792 1369.33 Q295.386 1369.98 298.628 1372.53 Q301.917 1375.08 303.908 1379.24 Q307.706 1387.3 307.706 1401.48 Q307.706 1415.33 304.186 1422.88 Q299.045 1433.9 287.697 1433.9 Q283.435 1433.9 279.081 1431.72 Q274.774 1429.55 272.041 1424.31 Q267.78 1416.48 267.78 1401.48 M275.654 1400.32 Q275.654 1414.63 276.673 1420.33 Q277.831 1426.49 280.98 1429.18 Q284.176 1431.82 287.697 1431.82 Q291.495 1431.82 294.645 1428.99 Q297.841 1426.12 298.813 1419.96 Q299.879 1413.89 299.832 1400.32 Q299.832 1387.12 298.906 1381.84 Q297.655 1375.68 294.32 1373.22 Q291.032 1370.72 287.697 1370.72 Q286.446 1370.72 285.103 1371.09 Q283.806 1371.46 281.907 1372.53 Q280.008 1373.59 278.526 1376.23 Q277.09 1378.87 276.395 1382.86 Q275.654 1388 275.654 1400.32 Z" fill="#000000" fill-rule="nonzero" fill-opacity="1"></path><path clip-path="url(#clip300)" d="M321 1430.29 Q319.564 1428.76 319.564 1426.77 Q319.564 1424.78 321 1423.34 Q322.436 1421.86 324.613 1421.86 Q326.697 1421.86 328.087 1423.25 Q329.523 1424.59 329.523 1426.81 Q329.523 1428.99 327.994 1430.43 Q326.512 1431.82 324.613 1431.82 Q322.436 1431.82 321 1430.29 Z" fill="#000000" fill-rule="nonzero" fill-opacity="1"></path><path clip-path="url(#clip300)" d="M341.565 1401.48 Q341.565 1387.53 345.086 1379.94 Q349.995 1368.64 361.575 1368.64 Q364.03 1368.64 366.578 1369.33 Q369.171 1369.98 372.414 1372.53 Q375.702 1375.08 377.694 1379.24 Q381.492 1387.3 381.492 1401.48 Q381.492 1415.33 377.972 1422.88 Q372.831 1433.9 361.483 1433.9 Q357.221 1433.9 352.867 1431.72 Q348.56 1429.55 345.827 1424.31 Q341.565 1416.48 341.565 1401.48 M349.44 1400.32 Q349.44 1414.63 350.459 1420.33 Q351.617 1426.49 354.766 1429.18 Q357.962 1431.82 361.483 1431.82 Q365.281 1431.82 368.43 1428.99 Q371.626 1426.12 372.599 1419.96 Q373.664 1413.89 373.618 1400.32 Q373.618 1387.12 372.692 1381.84 Q371.441 1375.68 368.106 1373.22 Q364.817 1370.72 361.483 1370.72 Q360.232 1370.72 358.889 1371.09 Q357.592 1371.46 355.693 1372.53 Q353.794 1373.59 352.311 1376.23 Q350.876 1378.87 350.181 1382.86 Q349.44 1388 349.44 1400.32 Z" fill="#000000" fill-rule="nonzero" fill-opacity="1"></path><path clip-path="url(#clip300)" d="M388.996 1401.48 Q388.996 1387.53 392.516 1379.94 Q397.426 1368.64 409.006 1368.64 Q411.461 1368.64 414.008 1369.33 Q416.602 1369.98 419.844 1372.53 Q423.133 1375.08 425.125 1379.24 Q428.923 1387.3 428.923 1401.48 Q428.923 1415.33 425.402 1422.88 Q420.261 1433.9 408.913 1433.9 Q404.652 1433.9 400.298 1431.72 Q395.99 1429.55 393.257 1424.31 Q388.996 1416.48 388.996 1401.48 M396.87 1400.32 Q396.87 1414.63 397.889 1420.33 Q399.047 1426.49 402.197 1429.18 Q405.393 1431.82 408.913 1431.82 Q412.711 1431.82 415.861 1428.99 Q419.057 1426.12 420.029 1419.96 Q421.095 1413.89 421.049 1400.32 Q421.049 1387.12 420.122 1381.84 Q418.872 1375.68 415.537 1373.22 Q412.248 1370.72 408.913 1370.72 Q407.662 1370.72 406.319 1371.09 Q405.022 1371.46 403.123 1372.53 Q401.224 1373.59 399.742 1376.23 Q398.306 1378.87 397.611 1382.86 Q396.87 1388 396.87 1400.32 Z" fill="#000000" fill-rule="nonzero" fill-opacity="1"></path><path clip-path="url(#clip300)" d="M731.782 1401.48 Q731.782 1387.53 735.302 1379.94 Q740.212 1368.64 751.791 1368.64 Q754.246 1368.64 756.794 1369.33 Q759.388 1369.98 762.63 1372.53 Q765.919 1375.08 767.91 1379.24 Q771.709 1387.3 771.709 1401.48 Q771.709 1415.33 768.188 1422.88 Q763.047 1433.9 751.699 1433.9 Q747.438 1433.9 743.084 1431.72 Q738.776 1429.55 736.043 1424.31 Q731.782 1416.48 731.782 1401.48 M739.656 1400.32 Q739.656 1414.63 740.675 1420.33 Q741.833 1426.49 744.983 1429.18 Q748.179 1431.82 751.699 1431.82 Q755.497 1431.82 758.647 1428.99 Q761.843 1426.12 762.815 1419.96 Q763.881 1413.89 763.834 1400.32 Q763.834 1387.12 762.908 1381.84 Q761.657 1375.68 758.322 1373.22 Q755.034 1370.72 751.699 1370.72 Q750.448 1370.72 749.105 1371.09 Q747.808 1371.46 745.909 1372.53 Q744.01 1373.59 742.528 1376.23 Q741.092 1378.87 740.397 1382.86 Q739.656 1388 739.656 1400.32 Z" fill="#000000" fill-rule="nonzero" fill-opacity="1"></path><path clip-path="url(#clip300)" d="M785.002 1430.29 Q783.566 1428.76 783.566 1426.77 Q783.566 1424.78 785.002 1423.34 Q786.438 1421.86 788.615 1421.86 Q790.699 1421.86 792.089 1423.25 Q793.525 1424.59 793.525 1426.81 Q793.525 1428.99 791.996 1430.43 Q790.514 1431.82 788.615 1431.82 Q786.438 1431.82 785.002 1430.29 Z" fill="#000000" fill-rule="nonzero" fill-opacity="1"></path><path clip-path="url(#clip300)" d="M806.587 1431.82 Q806.587 1430.1 806.726 1429.59 Q806.911 1429.08 807.652 1428.3 L825.855 1408.01 Q835.814 1396.8 835.814 1387.03 Q835.814 1380.68 832.479 1376.14 Q829.19 1371.6 823.122 1371.6 Q818.954 1371.6 815.434 1374.15 Q811.913 1376.7 810.292 1381.24 Q810.57 1381.14 811.543 1381.14 Q813.905 1381.14 815.202 1382.63 Q816.545 1384.11 816.545 1386.1 Q816.545 1388.65 814.878 1389.9 Q813.257 1391.1 811.635 1391.1 Q810.987 1391.1 810.107 1390.96 Q809.273 1390.82 807.93 1389.53 Q806.587 1388.18 806.587 1385.82 Q806.587 1379.2 811.589 1373.92 Q816.638 1368.64 824.327 1368.64 Q833.035 1368.64 838.732 1373.82 Q844.475 1378.97 844.475 1387.03 Q844.475 1389.85 843.595 1392.44 Q842.762 1394.99 841.604 1396.98 Q840.492 1398.98 837.435 1402.17 Q834.378 1405.37 831.923 1407.64 Q829.468 1409.91 823.956 1414.72 L813.905 1424.5 L830.997 1424.5 Q839.334 1424.5 839.982 1423.76 Q840.909 1422.41 842.067 1415.33 L844.475 1415.33 L841.789 1431.82 L806.587 1431.82 Z" fill="#000000" fill-rule="nonzero" fill-opacity="1"></path><path clip-path="url(#clip300)" d="M854.017 1416.53 Q854.017 1413.71 855.546 1412.64 Q857.074 1411.53 858.695 1411.53 Q860.872 1411.53 862.123 1412.92 Q863.42 1414.26 863.42 1416.16 Q863.42 1418.06 862.123 1419.45 Q860.872 1420.79 858.695 1420.79 Q857.63 1420.79 857.074 1420.61 Q858.325 1424.96 862.123 1428.11 Q865.967 1431.26 871.016 1431.26 Q877.362 1431.26 881.16 1425.1 Q883.43 1421.12 883.43 1412.08 Q883.43 1404.12 881.716 1400.13 Q879.076 1394.07 873.656 1394.07 Q865.967 1394.07 861.428 1400.69 Q860.872 1401.52 860.224 1401.57 Q859.297 1401.57 859.066 1401.06 Q858.881 1400.5 858.881 1399.07 L858.881 1371 Q858.881 1368.73 859.807 1368.73 Q860.177 1368.73 860.965 1369.01 Q866.94 1371.65 873.564 1371.69 Q880.372 1371.69 886.487 1368.91 Q886.95 1368.64 887.228 1368.64 Q888.154 1368.64 888.2 1369.7 Q888.2 1370.07 887.413 1371.18 Q886.672 1372.25 885.051 1373.69 Q883.43 1375.08 881.345 1376.42 Q879.261 1377.76 876.204 1378.69 Q873.193 1379.57 869.858 1379.57 Q865.875 1379.57 861.799 1378.32 L861.799 1396.8 Q866.708 1391.98 873.842 1391.98 Q881.438 1391.98 886.672 1398.1 Q891.906 1404.21 891.906 1412.73 Q891.906 1421.67 885.699 1427.79 Q879.539 1433.9 871.201 1433.9 Q863.605 1433.9 858.788 1428.48 Q854.017 1423.06 854.017 1416.53 Z" fill="#000000" fill-rule="nonzero" fill-opacity="1"></path><path clip-path="url(#clip300)" d="M1194.76 1401.48 Q1194.76 1387.53 1198.29 1379.94 Q1203.19 1368.64 1214.77 1368.64 Q1217.23 1368.64 1219.78 1369.33 Q1222.37 1369.98 1225.61 1372.53 Q1228.9 1375.08 1230.89 1379.24 Q1234.69 1387.3 1234.69 1401.48 Q1234.69 1415.33 1231.17 1422.88 Q1226.03 1433.9 1214.68 1433.9 Q1210.42 1433.9 1206.07 1431.72 Q1201.76 1429.55 1199.03 1424.31 Q1194.76 1416.48 1194.76 1401.48 M1202.64 1400.32 Q1202.64 1414.63 1203.66 1420.33 Q1204.82 1426.49 1207.97 1429.18 Q1211.16 1431.82 1214.68 1431.82 Q1218.48 1431.82 1221.63 1428.99 Q1224.83 1426.12 1225.8 1419.96 Q1226.86 1413.89 1226.82 1400.32 Q1226.82 1387.12 1225.89 1381.84 Q1224.64 1375.68 1221.31 1373.22 Q1218.02 1370.72 1214.68 1370.72 Q1213.43 1370.72 1212.09 1371.09 Q1210.79 1371.46 1208.89 1372.53 Q1206.99 1373.59 1205.51 1376.23 Q1204.07 1378.87 1203.38 1382.86 Q1202.64 1388 1202.64 1400.32 Z" fill="#000000" fill-rule="nonzero" fill-opacity="1"></path><path clip-path="url(#clip300)" d="M1247.99 1430.29 Q1246.55 1428.76 1246.55 1426.77 Q1246.55 1424.78 1247.99 1423.34 Q1249.42 1421.86 1251.6 1421.86 Q1253.68 1421.86 1255.07 1423.25 Q1256.51 1424.59 1256.51 1426.81 Q1256.51 1428.99 1254.98 1430.43 Q1253.5 1431.82 1251.6 1431.82 Q1249.42 1431.82 1247.99 1430.29 Z" fill="#000000" fill-rule="nonzero" fill-opacity="1"></path><path clip-path="url(#clip300)" d="M1269.57 1416.53 Q1269.57 1413.71 1271.1 1412.64 Q1272.63 1411.53 1274.25 1411.53 Q1276.42 1411.53 1277.68 1412.92 Q1278.97 1414.26 1278.97 1416.16 Q1278.97 1418.06 1277.68 1419.45 Q1276.42 1420.79 1274.25 1420.79 Q1273.18 1420.79 1272.63 1420.61 Q1273.88 1424.96 1277.68 1428.11 Q1281.52 1431.26 1286.57 1431.26 Q1292.91 1431.26 1296.71 1425.1 Q1298.98 1421.12 1298.98 1412.08 Q1298.98 1404.12 1297.27 1400.13 Q1294.63 1394.07 1289.21 1394.07 Q1281.52 1394.07 1276.98 1400.69 Q1276.42 1401.52 1275.78 1401.57 Q1274.85 1401.57 1274.62 1401.06 Q1274.43 1400.5 1274.43 1399.07 L1274.43 1371 Q1274.43 1368.73 1275.36 1368.73 Q1275.73 1368.73 1276.52 1369.01 Q1282.49 1371.65 1289.12 1371.69 Q1295.93 1371.69 1302.04 1368.91 Q1302.5 1368.64 1302.78 1368.64 Q1303.71 1368.64 1303.75 1369.7 Q1303.75 1370.07 1302.97 1371.18 Q1302.22 1372.25 1300.6 1373.69 Q1298.98 1375.08 1296.9 1376.42 Q1294.81 1377.76 1291.76 1378.69 Q1288.75 1379.57 1285.41 1379.57 Q1281.43 1379.57 1277.35 1378.32 L1277.35 1396.8 Q1282.26 1391.98 1289.39 1391.98 Q1296.99 1391.98 1302.22 1398.1 Q1307.46 1404.21 1307.46 1412.73 Q1307.46 1421.67 1301.25 1427.79 Q1295.09 1433.9 1286.75 1433.9 Q1279.16 1433.9 1274.34 1428.48 Q1269.57 1423.06 1269.57 1416.53 Z" fill="#000000" fill-rule="nonzero" fill-opacity="1"></path><path clip-path="url(#clip300)" d="M1315.98 1401.48 Q1315.98 1387.53 1319.5 1379.94 Q1324.41 1368.64 1335.99 1368.64 Q1338.45 1368.64 1340.99 1369.33 Q1343.59 1369.98 1346.83 1372.53 Q1350.12 1375.08 1352.11 1379.24 Q1355.91 1387.3 1355.91 1401.48 Q1355.91 1415.33 1352.39 1422.88 Q1347.25 1433.9 1335.9 1433.9 Q1331.64 1433.9 1327.28 1431.72 Q1322.98 1429.55 1320.24 1424.31 Q1315.98 1416.48 1315.98 1401.48 M1323.86 1400.32 Q1323.86 1414.63 1324.87 1420.33 Q1326.03 1426.49 1329.18 1429.18 Q1332.38 1431.82 1335.9 1431.82 Q1339.7 1431.82 1342.85 1428.99 Q1346.04 1426.12 1347.01 1419.96 Q1348.08 1413.89 1348.03 1400.32 Q1348.03 1387.12 1347.11 1381.84 Q1345.86 1375.68 1342.52 1373.22 Q1339.23 1370.72 1335.9 1370.72 Q1334.65 1370.72 1333.3 1371.09 Q1332.01 1371.46 1330.11 1372.53 Q1328.21 1373.59 1326.73 1376.23 Q1325.29 1378.87 1324.6 1382.86 Q1323.86 1388 1323.86 1400.32 Z" fill="#000000" fill-rule="nonzero" fill-opacity="1"></path><path clip-path="url(#clip300)" d="M1658.77 1401.48 Q1658.77 1387.53 1662.29 1379.94 Q1667.2 1368.64 1678.78 1368.64 Q1681.23 1368.64 1683.78 1369.33 Q1686.37 1369.98 1689.62 1372.53 Q1692.9 1375.08 1694.9 1379.24 Q1698.69 1387.3 1698.69 1401.48 Q1698.69 1415.33 1695.17 1422.88 Q1690.03 1433.9 1678.68 1433.9 Q1674.42 1433.9 1670.07 1431.72 Q1665.76 1429.55 1663.03 1424.31 Q1658.77 1416.48 1658.77 1401.48 M1666.64 1400.32 Q1666.64 1414.63 1667.66 1420.33 Q1668.82 1426.49 1671.97 1429.18 Q1675.16 1431.82 1678.68 1431.82 Q1682.48 1431.82 1685.63 1428.99 Q1688.83 1426.12 1689.8 1419.96 Q1690.87 1413.89 1690.82 1400.32 Q1690.82 1387.12 1689.89 1381.84 Q1688.64 1375.68 1685.31 1373.22 Q1682.02 1370.72 1678.68 1370.72 Q1677.43 1370.72 1676.09 1371.09 Q1674.79 1371.46 1672.89 1372.53 Q1671 1373.59 1669.51 1376.23 Q1668.08 1378.87 1667.38 1382.86 Q1666.64 1388 1666.64 1400.32 Z" fill="#000000" fill-rule="nonzero" fill-opacity="1"></path><path clip-path="url(#clip300)" d="M1711.99 1430.29 Q1710.55 1428.76 1710.55 1426.77 Q1710.55 1424.78 1711.99 1423.34 Q1713.42 1421.86 1715.6 1421.86 Q1717.68 1421.86 1719.07 1423.25 Q1720.51 1424.59 1720.51 1426.81 Q1720.51 1428.99 1718.98 1430.43 Q1717.5 1431.82 1715.6 1431.82 Q1713.42 1431.82 1711.99 1430.29 Z" fill="#000000" fill-rule="nonzero" fill-opacity="1"></path><path clip-path="url(#clip300)" d="M1734.17 1387.21 L1737.28 1367.71 L1739.64 1367.71 Q1739.92 1368.87 1740.38 1369.38 Q1740.89 1369.89 1743.58 1370.3 Q1746.31 1370.72 1751.82 1370.72 L1774.84 1370.72 Q1774.84 1372.9 1774.01 1374.06 L1761.18 1392.07 Q1757.1 1397.77 1755.3 1408.29 Q1754.23 1415.33 1754.28 1423.85 L1754.28 1428.67 Q1754.28 1433.9 1749.88 1433.9 Q1745.52 1433.9 1745.52 1428.67 Q1745.52 1410.56 1757.19 1393 Q1758.45 1391.19 1763.03 1384.76 Q1767.66 1378.32 1767.85 1378.04 L1748.21 1378.04 Q1739.59 1378.04 1738.9 1378.6 Q1737.97 1379.43 1736.54 1387.21 L1734.17 1387.21 Z" fill="#000000" fill-rule="nonzero" fill-opacity="1"></path><path clip-path="url(#clip300)" d="M1781 1416.53 Q1781 1413.71 1782.53 1412.64 Q1784.06 1411.53 1785.68 1411.53 Q1787.86 1411.53 1789.11 1412.92 Q1790.41 1414.26 1790.41 1416.16 Q1790.41 1418.06 1789.11 1419.45 Q1787.86 1420.79 1785.68 1420.79 Q1784.62 1420.79 1784.06 1420.61 Q1785.31 1424.96 1789.11 1428.11 Q1792.95 1431.26 1798 1431.26 Q1804.35 1431.26 1808.15 1425.1 Q1810.41 1421.12 1810.41 1412.08 Q1810.41 1404.12 1808.7 1400.13 Q1806.06 1394.07 1800.64 1394.07 Q1792.95 1394.07 1788.41 1400.69 Q1787.86 1401.52 1787.21 1401.57 Q1786.28 1401.57 1786.05 1401.06 Q1785.87 1400.5 1785.87 1399.07 L1785.87 1371 Q1785.87 1368.73 1786.79 1368.73 Q1787.16 1368.73 1787.95 1369.01 Q1793.93 1371.65 1800.55 1371.69 Q1807.36 1371.69 1813.47 1368.91 Q1813.94 1368.64 1814.21 1368.64 Q1815.14 1368.64 1815.19 1369.7 Q1815.19 1370.07 1814.4 1371.18 Q1813.66 1372.25 1812.04 1373.69 Q1810.41 1375.08 1808.33 1376.42 Q1806.25 1377.76 1803.19 1378.69 Q1800.18 1379.57 1796.84 1379.57 Q1792.86 1379.57 1788.78 1378.32 L1788.78 1396.8 Q1793.69 1391.98 1800.83 1391.98 Q1808.42 1391.98 1813.66 1398.1 Q1818.89 1404.21 1818.89 1412.73 Q1818.89 1421.67 1812.68 1427.79 Q1806.52 1433.9 1798.19 1433.9 Q1790.59 1433.9 1785.77 1428.48 Q1781 1423.06 1781 1416.53 Z" fill="#000000" fill-rule="nonzero" fill-opacity="1"></path><path clip-path="url(#clip300)" d="M2124.11 1377.67 L2124.11 1374.7 Q2135.51 1374.7 2141.39 1368.64 Q2143.01 1368.64 2143.29 1369.01 Q2143.57 1369.38 2143.57 1371.09 L2143.57 1424.31 Q2143.57 1427.14 2144.96 1428.02 Q2146.35 1428.9 2152.41 1428.9 L2155.42 1428.9 L2155.42 1431.82 Q2152.09 1431.54 2140.05 1431.54 Q2128 1431.54 2124.71 1431.82 L2124.71 1428.9 L2127.73 1428.9 Q2133.7 1428.9 2135.14 1428.06 Q2136.57 1427.18 2136.57 1424.31 L2136.57 1375.17 Q2131.62 1377.67 2124.11 1377.67 Z" fill="#000000" fill-rule="nonzero" fill-opacity="1"></path><path clip-path="url(#clip300)" d="M2172.61 1430.29 Q2171.17 1428.76 2171.17 1426.77 Q2171.17 1424.78 2172.61 1423.34 Q2174.04 1421.86 2176.22 1421.86 Q2178.31 1421.86 2179.7 1423.25 Q2181.13 1424.59 2181.13 1426.81 Q2181.13 1428.99 2179.6 1430.43 Q2178.12 1431.82 2176.22 1431.82 Q2174.04 1431.82 2172.61 1430.29 Z" fill="#000000" fill-rule="nonzero" fill-opacity="1"></path><path clip-path="url(#clip300)" d="M2193.17 1401.48 Q2193.17 1387.53 2196.69 1379.94 Q2201.6 1368.64 2213.18 1368.64 Q2215.64 1368.64 2218.19 1369.33 Q2220.78 1369.98 2224.02 1372.53 Q2227.31 1375.08 2229.3 1379.24 Q2233.1 1387.3 2233.1 1401.48 Q2233.1 1415.33 2229.58 1422.88 Q2224.44 1433.9 2213.09 1433.9 Q2208.83 1433.9 2204.48 1431.72 Q2200.17 1429.55 2197.44 1424.31 Q2193.17 1416.48 2193.17 1401.48 M2201.05 1400.32 Q2201.05 1414.63 2202.07 1420.33 Q2203.22 1426.49 2206.37 1429.18 Q2209.57 1431.82 2213.09 1431.82 Q2216.89 1431.82 2220.04 1428.99 Q2223.23 1426.12 2224.21 1419.96 Q2225.27 1413.89 2225.23 1400.32 Q2225.23 1387.12 2224.3 1381.84 Q2223.05 1375.68 2219.71 1373.22 Q2216.43 1370.72 2213.09 1370.72 Q2211.84 1370.72 2210.5 1371.09 Q2209.2 1371.46 2207.3 1372.53 Q2205.4 1373.59 2203.92 1376.23 Q2202.48 1378.87 2201.79 1382.86 Q2201.05 1388 2201.05 1400.32 Z" fill="#000000" fill-rule="nonzero" fill-opacity="1"></path><path clip-path="url(#clip300)" d="M2240.6 1401.48 Q2240.6 1387.53 2244.12 1379.94 Q2249.03 1368.64 2260.61 1368.64 Q2263.07 1368.64 2265.62 1369.33 Q2268.21 1369.98 2271.45 1372.53 Q2274.74 1375.08 2276.73 1379.24 Q2280.53 1387.3 2280.53 1401.48 Q2280.53 1415.33 2277.01 1422.88 Q2271.87 1433.9 2260.52 1433.9 Q2256.26 1433.9 2251.91 1431.72 Q2247.6 1429.55 2244.87 1424.31 Q2240.6 1416.48 2240.6 1401.48 M2248.48 1400.32 Q2248.48 1414.63 2249.5 1420.33 Q2250.66 1426.49 2253.81 1429.18 Q2257 1431.82 2260.52 1431.82 Q2264.32 1431.82 2267.47 1428.99 Q2270.67 1426.12 2271.64 1419.96 Q2272.7 1413.89 2272.66 1400.32 Q2272.66 1387.12 2271.73 1381.84 Q2270.48 1375.68 2267.14 1373.22 Q2263.86 1370.72 2260.52 1370.72 Q2259.27 1370.72 2257.93 1371.09 Q2256.63 1371.46 2254.73 1372.53 Q2252.83 1373.59 2251.35 1376.23 Q2249.91 1378.87 2249.22 1382.86 Q2248.48 1388 2248.48 1400.32 Z" fill="#000000" fill-rule="nonzero" fill-opacity="1"></path><path clip-path="url(#clip300)" d="M1020.56 1496.28 Q1020.56 1496.36 1020.48 1496.45 Q1019.95 1500.79 1018.93 1503.21 Q1017.9 1505.59 1015.61 1506.69 Q1013.92 1507.51 1011.83 1507.51 Q1008.68 1507.51 1004.13 1505.42 Q1003.96 1505.34 1003.06 1504.93 Q1002.16 1504.52 1001.83 1504.4 Q1001.5 1504.27 1000.81 1504.03 Q1000.11 1503.74 999.578 1503.66 Q999.045 1503.58 998.513 1503.58 Q997.365 1503.58 996.381 1504.07 Q994.373 1505.05 993.143 1506.53 Q991.872 1507.96 991.544 1510.55 Q991.462 1510.87 991.175 1511.12 Q990.889 1511.37 990.52 1511.37 Q990.151 1511.37 989.823 1511.08 Q989.495 1510.79 989.495 1510.38 Q989.495 1510.3 989.577 1510.22 Q990.11 1505.87 991.135 1503.5 Q992.159 1501.08 994.455 1499.97 Q996.258 1499.11 998.226 1499.11 Q1001.3 1499.11 1005.97 1501.24 Q1006.14 1501.32 1007.04 1501.73 Q1007.94 1502.14 1008.27 1502.27 Q1008.6 1502.39 1009.29 1502.68 Q1009.99 1502.92 1010.52 1503 Q1011.06 1503.09 1011.59 1503.09 Q1012.61 1503.09 1013.68 1502.55 Q1015.69 1501.57 1016.96 1500.13 Q1018.23 1498.7 1018.56 1496.12 Q1018.64 1495.79 1018.93 1495.54 Q1019.21 1495.26 1019.58 1495.26 Q1019.95 1495.26 1020.28 1495.59 Q1020.56 1495.87 1020.56 1496.28 Z" fill="#000000" fill-rule="nonzero" fill-opacity="1"></path><path clip-path="url(#clip300)" d="M1021.95 1525.27 Q1021.95 1525.68 1020.96 1527.44 Q1020.02 1529.14 1016.57 1533.41 Q1013.11 1537.68 1007.96 1542.66 Q1006.03 1544.59 1003.1 1547.29 Q1000.17 1549.98 998.181 1551.74 L996.19 1553.49 Q988.578 1559.94 981.902 1567.14 Q982.371 1566.96 983.191 1566.9 Q984.01 1566.79 984.596 1566.79 L985.182 1566.79 Q988.227 1566.79 993.555 1568.84 Q998.24 1570.36 1000.64 1570.36 Q1002.98 1570.36 1005.56 1569.54 Q1008.14 1568.72 1010.95 1566.32 Q1013.76 1563.92 1015.05 1560.29 Q1015.28 1559.7 1015.4 1559.53 Q1015.51 1559.29 1015.87 1559.06 Q1016.22 1558.76 1016.68 1558.76 Q1017.33 1558.76 1017.74 1559.12 Q1018.15 1559.47 1018.15 1559.94 Q1018.15 1560.99 1017.33 1563.1 Q1016.57 1565.21 1014.87 1567.84 Q1013.23 1570.48 1011.06 1572.88 Q1008.96 1575.22 1005.79 1576.86 Q1002.63 1578.44 999.294 1578.44 Q996.893 1578.44 995.136 1577.27 Q993.379 1576.16 991.623 1573.99 Q989.222 1571.24 987.934 1570.36 Q986.646 1569.42 984.655 1569.42 Q979.326 1569.42 974.466 1576.86 Q973.939 1577.91 973.587 1578.15 Q973.295 1578.44 972.592 1578.44 Q971.128 1578.38 971.128 1577.21 Q971.128 1576.74 972.416 1574.69 Q973.763 1572.58 976.75 1568.89 Q979.794 1565.21 983.483 1561.52 L994.258 1551.45 Q1006.2 1541.37 1010.95 1535.69 Q1008.96 1535.69 1008.08 1535.64 Q1007.26 1535.58 1005.62 1535.23 Q1003.98 1534.82 1001.69 1533.94 Q996.366 1532.12 994.141 1532.12 Q993.555 1532.12 992.911 1532.18 Q992.267 1532.24 990.803 1532.53 Q989.398 1532.82 988.227 1533.41 Q987.055 1533.94 985.826 1535.11 Q984.596 1536.22 983.952 1537.74 Q983.776 1538.21 983.659 1538.45 Q983.542 1538.68 983.191 1538.91 Q982.898 1539.09 982.429 1539.09 Q981.727 1539.09 981.317 1538.68 Q980.966 1538.27 980.966 1537.74 Q980.966 1536.69 982.02 1534.52 Q983.074 1532.36 984.83 1530.01 Q986.587 1527.61 989.456 1525.86 Q992.325 1524.1 995.487 1524.1 Q997.361 1524.1 998.942 1524.92 Q1000.58 1525.74 1001.4 1526.62 Q1002.28 1527.44 1003.74 1529.25 Q1004.97 1530.66 1005.56 1531.24 Q1006.14 1531.83 1007.32 1532.47 Q1008.55 1533.06 1009.89 1533.06 Q1012.12 1533.06 1014.17 1531.36 Q1016.22 1529.6 1018.85 1525.39 Q1019.55 1524.1 1020.67 1524.1 Q1021.95 1524.1 1021.95 1525.27 Z" fill="#000000" fill-rule="nonzero" fill-opacity="1"></path><path clip-path="url(#clip300)" d="M1121.9 1519.17 Q1121.9 1498.62 1129.57 1482.05 Q1132.83 1475.1 1137.41 1469.28 Q1141.98 1463.46 1145.01 1460.9 Q1148.04 1458.35 1148.87 1458.35 Q1150.06 1458.35 1150.12 1459.54 Q1150.12 1460.13 1148.51 1461.62 Q1128.91 1481.58 1128.97 1519.17 Q1128.97 1556.89 1148.04 1576.08 Q1150.12 1578.15 1150.12 1578.81 Q1150.12 1580 1148.87 1580 Q1148.04 1580 1145.13 1577.56 Q1142.22 1575.13 1137.7 1569.54 Q1133.19 1563.96 1129.92 1557.13 Q1121.9 1540.56 1121.9 1519.17 Z" fill="#000000" fill-rule="nonzero" fill-opacity="1"></path><path clip-path="url(#clip300)" d="M1238.5 1575.28 Q1237.92 1575.98 1236.86 1575.98 Q1235.87 1575.98 1235.17 1575.28 L1210.34 1550.45 L1185.51 1575.28 Q1184.81 1575.98 1183.75 1575.98 Q1182.76 1575.98 1182.11 1575.28 Q1181.41 1574.63 1181.41 1573.64 Q1181.41 1572.64 1182.11 1571.94 L1206.94 1547.11 L1182.11 1522.28 Q1181.41 1521.58 1181.41 1520.59 Q1181.41 1519.53 1182.11 1518.95 Q1182.76 1518.24 1183.75 1518.24 Q1184.81 1518.24 1185.51 1518.95 L1210.34 1543.77 L1235.17 1518.95 Q1235.87 1518.24 1236.86 1518.24 Q1237.92 1518.24 1238.5 1518.95 Q1239.21 1519.53 1239.21 1520.59 Q1239.21 1521.58 1238.5 1522.28 L1213.68 1547.11 L1238.5 1571.94 Q1239.21 1572.64 1239.21 1573.7 Q1239.21 1574.69 1238.5 1575.28 Z" fill="#000000" fill-rule="nonzero" fill-opacity="1"></path><path clip-path="url(#clip300)" d="M1284.65 1508.64 L1284.65 1504.89 Q1299.05 1504.89 1306.49 1497.22 Q1308.54 1497.22 1308.89 1497.69 Q1309.24 1498.16 1309.24 1500.33 L1309.24 1567.61 Q1309.24 1571.18 1311 1572.29 Q1312.75 1573.4 1320.42 1573.4 L1324.23 1573.4 L1324.23 1577.09 Q1320.02 1576.74 1304.79 1576.74 Q1289.57 1576.74 1285.41 1577.09 L1285.41 1573.4 L1289.21 1573.4 Q1296.77 1573.4 1298.58 1572.35 Q1300.4 1571.24 1300.4 1567.61 L1300.4 1505.48 Q1294.13 1508.64 1284.65 1508.64 Z" fill="#000000" fill-rule="nonzero" fill-opacity="1"></path><path clip-path="url(#clip300)" d="M1344.04 1538.74 Q1344.04 1521.11 1348.49 1511.51 Q1354.7 1497.22 1369.33 1497.22 Q1372.44 1497.22 1375.66 1498.1 Q1378.94 1498.92 1383.04 1502.14 Q1387.19 1505.36 1389.71 1510.63 Q1394.51 1520.82 1394.51 1538.74 Q1394.51 1556.25 1390.06 1565.79 Q1383.56 1579.73 1369.22 1579.73 Q1363.83 1579.73 1358.33 1576.98 Q1352.88 1574.22 1349.42 1567.61 Q1344.04 1557.71 1344.04 1538.74 M1353.99 1537.27 Q1353.99 1555.37 1355.28 1562.57 Q1356.74 1570.36 1360.73 1573.76 Q1364.77 1577.09 1369.22 1577.09 Q1374.02 1577.09 1378 1573.52 Q1382.04 1569.89 1383.27 1562.1 Q1384.62 1554.43 1384.56 1537.27 Q1384.56 1520.59 1383.39 1513.91 Q1381.81 1506.12 1377.59 1503.02 Q1373.43 1499.86 1369.22 1499.86 Q1367.64 1499.86 1365.94 1500.33 Q1364.3 1500.79 1361.9 1502.14 Q1359.5 1503.49 1357.62 1506.83 Q1355.81 1510.16 1354.93 1515.2 Q1353.99 1521.7 1353.99 1537.27 Z" fill="#000000" fill-rule="nonzero" fill-opacity="1"></path><path clip-path="url(#clip300)" d="M1462.24 1492.42 Q1462.73 1492.91 1462.73 1493.61 Q1462.73 1494.3 1462.24 1494.79 Q1461.75 1495.29 1461.05 1495.29 L1408.5 1495.29 Q1407.81 1495.29 1407.31 1494.79 Q1406.82 1494.3 1406.82 1493.61 Q1406.82 1492.91 1407.31 1492.42 Q1407.81 1491.93 1408.5 1491.93 L1461.05 1491.93 Q1461.75 1491.93 1462.24 1492.42 Z" fill="#000000" fill-rule="nonzero" fill-opacity="1"></path><path clip-path="url(#clip300)" d="M1471.5 1514.59 Q1471.5 1513.08 1471.62 1512.62 Q1471.78 1512.17 1472.44 1511.48 L1488.55 1493.52 Q1497.36 1483.6 1497.36 1474.96 Q1497.36 1469.34 1494.41 1465.32 Q1491.5 1461.31 1486.13 1461.31 Q1482.44 1461.31 1479.33 1463.56 Q1476.21 1465.81 1474.78 1469.83 Q1475.02 1469.75 1475.88 1469.75 Q1477.97 1469.75 1479.12 1471.06 Q1480.31 1472.37 1480.31 1474.14 Q1480.31 1476.39 1478.83 1477.5 Q1477.4 1478.56 1475.96 1478.56 Q1475.39 1478.56 1474.61 1478.44 Q1473.87 1478.32 1472.69 1477.17 Q1471.5 1475.98 1471.5 1473.89 Q1471.5 1468.03 1475.92 1463.36 Q1480.39 1458.68 1487.2 1458.68 Q1494.9 1458.68 1499.94 1463.27 Q1505.03 1467.82 1505.03 1474.96 Q1505.03 1477.46 1504.25 1479.75 Q1503.51 1482.01 1502.48 1483.77 Q1501.5 1485.53 1498.8 1488.36 Q1496.09 1491.19 1493.92 1493.2 Q1491.75 1495.2 1486.87 1499.47 L1477.97 1508.12 L1493.1 1508.12 Q1500.48 1508.12 1501.05 1507.46 Q1501.87 1506.27 1502.89 1500 L1505.03 1500 L1502.65 1514.59 L1471.5 1514.59 Z" fill="#000000" fill-rule="nonzero" fill-opacity="1"></path><path clip-path="url(#clip300)" d="M1538.67 1578.81 Q1538.67 1578.21 1540.21 1576.73 Q1559.82 1556.77 1559.82 1519.17 Q1559.82 1481.46 1540.99 1462.39 Q1538.67 1460.19 1538.67 1459.54 Q1538.67 1458.35 1539.86 1458.35 Q1540.69 1458.35 1543.6 1460.79 Q1546.57 1463.22 1551.02 1468.8 Q1555.54 1474.39 1558.87 1481.22 Q1566.88 1497.79 1566.88 1519.17 Q1566.88 1539.72 1559.22 1556.3 Q1555.95 1563.25 1551.38 1569.07 Q1546.81 1574.89 1543.78 1577.44 Q1540.75 1580 1539.86 1580 Q1538.67 1580 1538.67 1578.81 Z" fill="#000000" fill-rule="nonzero" fill-opacity="1"></path><polyline clip-path="url(#clip300)" style="stroke:#000000; stroke-linecap:round; stroke-linejoin:round; stroke-width:4; stroke-opacity:1; fill:none" points="292.732,1328.42 292.732,47.2441 "></polyline>
<polyline clip-path="url(#clip300)" style="stroke:#000000; stroke-linecap:round; stroke-linejoin:round; stroke-width:4; stroke-opacity:1; fill:none" points="2257.94,1328.42 2257.94,47.2441 "></polyline>
<polyline clip-path="url(#clip300)" style="stroke:#000000; stroke-linecap:round; stroke-linejoin:round; stroke-width:4; stroke-opacity:1; fill:none" points="292.732,1292.16 307.829,1292.16 "></polyline>
<polyline clip-path="url(#clip300)" style="stroke:#000000; stroke-linecap:round; stroke-linejoin:round; stroke-width:4; stroke-opacity:1; fill:none" points="292.732,1029.07 307.829,1029.07 "></polyline>
<polyline clip-path="url(#clip300)" style="stroke:#000000; stroke-linecap:round; stroke-linejoin:round; stroke-width:4; stroke-opacity:1; fill:none" points="292.732,765.981 307.829,765.981 "></polyline>
<polyline clip-path="url(#clip300)" style="stroke:#000000; stroke-linecap:round; stroke-linejoin:round; stroke-width:4; stroke-opacity:1; fill:none" points="292.732,502.894 307.829,502.894 "></polyline>
<polyline clip-path="url(#clip300)" style="stroke:#000000; stroke-linecap:round; stroke-linejoin:round; stroke-width:4; stroke-opacity:1; fill:none" points="292.732,239.806 307.829,239.806 "></polyline>
<path clip-path="url(#clip300)" d="M210.805 1294.22 Q210.805 1280.28 214.325 1272.68 Q219.235 1261.38 230.815 1261.38 Q233.27 1261.38 235.817 1262.07 Q238.411 1262.72 241.654 1265.27 Q244.942 1267.82 246.934 1271.98 Q250.732 1280.04 250.732 1294.22 Q250.732 1308.07 247.212 1315.62 Q242.07 1326.64 230.722 1326.64 Q226.461 1326.64 222.107 1324.46 Q217.799 1322.29 215.067 1317.05 Q210.805 1309.22 210.805 1294.22 M218.679 1293.06 Q218.679 1307.37 219.698 1313.07 Q220.856 1319.23 224.006 1321.92 Q227.202 1324.56 230.722 1324.56 Q234.52 1324.56 237.67 1321.73 Q240.866 1318.86 241.839 1312.7 Q242.904 1306.63 242.858 1293.06 Q242.858 1279.86 241.931 1274.58 Q240.681 1268.42 237.346 1265.96 Q234.057 1263.46 230.722 1263.46 Q229.472 1263.46 228.128 1263.83 Q226.832 1264.2 224.932 1265.27 Q223.033 1266.33 221.551 1268.97 Q220.115 1271.61 219.421 1275.6 Q218.679 1280.74 218.679 1293.06 Z" fill="#000000" fill-rule="nonzero" fill-opacity="1"></path><path clip-path="url(#clip300)" d="M212.843 1061.47 Q212.843 1059.75 212.982 1059.25 Q213.167 1058.74 213.909 1057.95 L232.112 1037.66 Q242.07 1026.45 242.07 1016.68 Q242.07 1010.33 238.735 1005.79 Q235.447 1001.25 229.379 1001.25 Q225.21 1001.25 221.69 1003.8 Q218.17 1006.35 216.549 1010.89 Q216.827 1010.8 217.799 1010.8 Q220.162 1010.8 221.459 1012.28 Q222.802 1013.76 222.802 1015.75 Q222.802 1018.3 221.134 1019.55 Q219.513 1020.75 217.892 1020.75 Q217.244 1020.75 216.363 1020.62 Q215.53 1020.48 214.187 1019.18 Q212.843 1017.84 212.843 1015.47 Q212.843 1008.85 217.846 1003.57 Q222.894 998.29 230.583 998.29 Q239.291 998.29 244.989 1003.48 Q250.732 1008.62 250.732 1016.68 Q250.732 1019.5 249.852 1022.1 Q249.018 1024.65 247.86 1026.64 Q246.749 1028.63 243.692 1031.82 Q240.635 1035.02 238.18 1037.29 Q235.725 1039.56 230.213 1044.38 L220.162 1054.15 L237.253 1054.15 Q245.591 1054.15 246.239 1053.41 Q247.165 1052.07 248.323 1044.98 L250.732 1044.98 L248.046 1061.47 L212.843 1061.47 Z" fill="#000000" fill-rule="nonzero" fill-opacity="1"></path><path clip-path="url(#clip300)" d="M208.675 782.726 L208.675 779.807 L237.809 735.295 Q238.55 734.137 239.708 734.183 Q240.773 734.183 241.005 734.6 Q241.237 735.017 241.237 736.638 L241.237 779.807 L250.732 779.807 L250.732 782.726 L241.237 782.726 L241.237 790.97 Q241.237 793.703 242.348 794.583 Q243.506 795.463 248.416 795.463 L250.408 795.463 L250.408 798.381 Q246.517 798.103 237.531 798.103 Q228.592 798.103 224.701 798.381 L224.701 795.463 L226.693 795.463 Q231.602 795.463 232.76 794.629 Q233.918 793.749 233.918 790.97 L233.918 782.726 L208.675 782.726 M211.361 779.807 L234.474 779.807 L234.474 744.42 L211.361 779.807 Z" fill="#000000" fill-rule="nonzero" fill-opacity="1"></path><path clip-path="url(#clip300)" d="M211.361 505.326 Q211.361 490.411 218.957 481.286 Q226.554 472.115 236.327 472.115 Q242.024 472.115 245.174 475.033 Q248.37 477.905 248.37 482.352 Q248.37 484.806 246.934 485.872 Q245.498 486.937 244.016 486.937 Q242.302 486.937 240.959 485.779 Q239.616 484.621 239.616 482.537 Q239.616 478.275 244.85 478.275 Q242.395 474.477 236.512 474.477 Q234.706 474.477 232.853 475.033 Q231 475.543 228.592 477.303 Q226.183 479.063 224.33 481.842 Q222.478 484.621 221.181 489.855 Q219.884 495.089 219.884 501.898 L219.884 504.168 Q223.774 494.765 231.741 494.811 Q239.708 494.811 245.22 500.879 Q250.732 506.947 250.732 515.933 Q250.732 525.15 244.989 531.264 Q239.245 537.378 231.186 537.378 Q227.573 537.378 224.284 535.85 Q221.042 534.368 217.985 530.94 Q214.974 527.512 213.167 520.935 Q211.361 514.358 211.361 505.326 M220.069 513.848 Q220.069 523.158 221.783 527.605 Q222.061 528.346 222.663 529.365 Q223.311 530.384 224.377 531.727 Q225.488 533.024 227.295 533.904 Q229.101 534.738 231.186 534.738 Q237.531 534.738 240.588 528.578 Q242.209 525.15 242.209 515.84 Q242.209 506.345 240.496 502.871 Q237.577 496.988 231.649 496.988 Q227.665 496.988 224.886 499.721 Q222.153 502.454 221.088 506.113 Q220.069 509.772 220.069 513.848 Z" fill="#000000" fill-rule="nonzero" fill-opacity="1"></path><path clip-path="url(#clip300)" d="M211.361 257.894 Q211.361 247.287 225.025 240.432 Q219.143 236.448 218.077 235.29 Q213.909 230.659 213.909 224.869 Q213.909 218.245 218.911 213.66 Q223.96 209.028 231.093 209.028 Q237.902 209.028 243.043 212.965 Q248.185 216.902 248.185 223.155 Q248.185 231.955 236.697 237.884 Q244.294 242.609 246.1 244.6 Q250.732 249.742 250.732 256.273 Q250.732 263.869 244.896 269.103 Q239.06 274.291 231 274.291 Q223.126 274.291 217.244 269.705 Q211.361 265.12 211.361 257.894 M216.086 257.894 Q216.086 263.776 220.486 267.714 Q224.932 271.651 231.093 271.651 Q237.068 271.651 241.515 268.223 Q246.008 264.795 246.008 259.7 Q246.008 257.709 245.313 255.995 Q244.664 254.281 243.321 252.938 Q242.024 251.548 241.19 250.946 Q240.403 250.298 238.874 249.232 L227.202 241.868 Q216.086 248.028 216.086 257.894 M218.077 221.163 Q218.077 225.702 222.848 228.852 L234.613 236.448 Q244.016 230.936 244.016 223.155 Q244.016 218.106 240.171 214.771 Q236.327 211.39 231 211.39 Q225.766 211.39 221.922 214.169 Q218.077 216.902 218.077 221.163 Z" fill="#000000" fill-rule="nonzero" fill-opacity="1"></path><path clip-path="url(#clip300)" d="M180.731 1104.01 L83.5742 1104.01 Q79.7022 1104.01 79.7022 1101.92 Q79.7022 1099.83 82.81 1099.83 L179.967 1099.83 Q183.839 1099.83 183.839 1101.92 Q183.839 1104.01 180.731 1104.01 Z" fill="#000000" fill-rule="nonzero" fill-opacity="1"></path><path clip-path="url(#clip300)" d="M119.042 1001.94 Q119.569 1001.47 120.096 1001.47 Q120.623 1001.47 122.146 1002.65 Q123.668 1003.76 125.718 1006.16 Q127.767 1008.56 129.7 1011.66 Q131.632 1014.77 132.92 1019.33 Q134.267 1023.9 134.267 1028.7 Q134.267 1037.66 128.353 1042.93 Q122.439 1048.14 113.948 1048.14 Q105.692 1048.14 97.7864 1043.52 Q89.8228 1038.89 84.9041 1031.4 Q79.9268 1023.9 79.9268 1016 Q79.9268 1009.73 82.8546 1005.81 Q85.7824 1001.88 90.2327 1001.88 Q93.6875 1001.88 95.7955 1003.88 Q97.9036 1005.87 97.9036 1008.56 Q97.9036 1010.43 96.8495 1011.72 Q95.737 1013.01 93.6875 1013.01 Q91.0525 1013.01 89.003 1010.84 Q88.1832 1010.02 87.8319 1009.09 Q87.422 1008.09 87.422 1007.51 Q87.3635 1006.92 87.3635 1005.57 Q85.0798 1006.8 83.8501 1009.73 Q82.5619 1012.6 82.5619 1015.88 Q82.5619 1020.74 85.9581 1025.37 Q89.2958 1029.99 94.5659 1032.8 Q99.7188 1035.61 107.038 1037.43 Q114.299 1039.24 118.515 1039.24 Q124.312 1039.24 127.943 1036.55 Q131.573 1033.86 131.573 1028.47 Q131.573 1027.41 131.515 1026.3 Q131.456 1025.13 130.812 1022.2 Q130.168 1019.22 129.055 1016.58 Q127.943 1013.95 125.542 1010.61 Q123.083 1007.21 119.745 1004.52 Q118.515 1003.58 118.515 1002.94 Q118.515 1002.41 119.042 1001.94 Z" fill="#000000" fill-rule="nonzero" fill-opacity="1"></path><path clip-path="url(#clip300)" d="M143.787 945.274 Q149.772 945.274 155.551 948.308 Q161.331 951.3 164.897 956.014 Q168.422 960.727 168.422 965.523 Q168.422 968.392 166.864 970.319 Q165.266 972.204 163.011 973.229 Q165.798 974.008 172.48 975.688 Q179.161 977.369 179.817 977.369 Q180.186 977.369 180.35 977.287 Q180.514 977.205 180.718 976.836 Q180.964 976.467 181.046 975.565 Q181.169 974.664 181.169 973.147 Q181.169 972.368 181.169 972.081 Q181.21 971.753 181.415 971.466 Q181.62 971.139 182.071 971.139 Q183.752 971.139 183.752 972.655 Q183.752 974.008 183.629 976.795 Q183.506 979.582 183.506 980.976 Q183.506 982.165 183.629 984.542 Q183.752 986.919 183.752 988.026 Q183.752 989.133 182.768 989.133 Q182.194 989.133 181.825 988.969 Q181.497 988.846 181.333 988.518 Q181.21 988.19 181.169 987.903 Q181.169 987.657 181.169 987.165 Q181.169 985.28 180.841 984.46 Q180.555 983.64 179.94 983.353 Q179.366 983.025 177.726 982.657 L140.344 973.229 Q137.844 972.655 136.081 972.655 Q133.868 972.655 133.048 973.352 Q132.228 974.049 132.228 975.278 Q132.228 977.41 134.77 978.804 Q137.311 980.197 142.23 981.386 Q143.582 981.755 143.869 982.001 Q144.156 982.206 144.156 982.82 Q144.115 983.845 143.295 983.845 Q143.09 983.845 141.779 983.517 Q140.426 983.189 138.459 982.575 Q136.45 981.919 135.179 981.222 Q134.319 980.812 133.745 980.443 Q133.171 980.074 132.269 979.336 Q131.367 978.558 130.876 977.451 Q130.384 976.344 130.384 974.992 Q130.384 972.368 131.941 970.196 Q133.499 968.023 136.655 967.45 Q133.909 965.113 132.146 962.244 Q130.384 959.375 130.384 956.464 Q130.384 951.628 134.155 948.471 Q137.885 945.274 143.787 945.274 M140.098 951.341 Q136.368 951.341 134.319 952.775 Q132.228 954.169 132.228 956.71 Q132.228 959.866 135.425 963.515 Q138.459 967.122 141.287 967.859 L157.724 971.999 L159.076 972.245 Q159.322 972.245 160.06 972.122 Q160.757 971.958 161.904 971.507 Q163.052 971.016 164.077 970.36 Q165.061 969.663 165.798 968.433 Q166.536 967.163 166.536 965.605 Q166.536 963.105 164.323 960.399 Q162.109 957.653 157.928 955.604 Q155.223 954.333 149.403 952.857 Q143.541 951.341 140.098 951.341 Z" fill="#000000" fill-rule="nonzero" fill-opacity="1"></path><path clip-path="url(#clip300)" d="M140.631 940.932 Q128.293 940.932 121.571 937.817 Q111.57 933.472 111.57 923.224 Q111.57 921.052 112.184 918.798 Q112.758 916.502 115.013 913.633 Q117.267 910.723 120.956 908.96 Q128.088 905.599 140.631 905.599 Q152.887 905.599 159.568 908.714 Q169.323 913.264 169.323 923.306 Q169.323 927.077 167.397 930.93 Q165.47 934.742 160.839 937.161 Q153.912 940.932 140.631 940.932 M139.606 933.964 Q152.272 933.964 157.314 933.062 Q162.765 932.037 165.143 929.25 Q167.479 926.422 167.479 923.306 Q167.479 919.945 164.979 917.158 Q162.437 914.33 156.986 913.469 Q151.616 912.526 139.606 912.567 Q127.924 912.567 123.252 913.387 Q117.8 914.494 115.628 917.445 Q113.414 920.355 113.414 923.306 Q113.414 924.413 113.742 925.602 Q114.07 926.75 115.013 928.43 Q115.955 930.111 118.292 931.422 Q120.628 932.693 124.153 933.308 Q128.703 933.964 139.606 933.964 Z" fill="#000000" fill-rule="nonzero" fill-opacity="1"></path><path clip-path="url(#clip300)" d="M180.731 873.758 L83.5742 873.758 Q79.7022 873.758 79.7022 871.67 Q79.7022 869.581 82.81 869.581 L179.967 869.581 Q183.839 869.581 183.839 871.67 Q183.839 873.758 180.731 873.758 Z" fill="#000000" fill-rule="nonzero" fill-opacity="1"></path><path clip-path="url(#clip300)" d="M74.6723 735.633 Q54.0096 735.633 37.3481 727.929 Q30.361 724.644 24.5086 720.046 Q18.6561 715.448 16.0882 712.402 Q13.5203 709.356 13.5203 708.52 Q13.5203 707.326 14.7147 707.266 Q15.3119 707.266 16.8048 708.879 Q36.8703 728.586 74.6723 728.526 Q112.594 728.526 131.883 709.356 Q133.973 707.266 134.63 707.266 Q135.824 707.266 135.824 708.52 Q135.824 709.356 133.376 712.283 Q130.927 715.209 125.314 719.747 Q119.7 724.286 112.833 727.571 Q96.171 735.633 74.6723 735.633 Z" fill="#000000" fill-rule="nonzero" fill-opacity="1"></path><path clip-path="url(#clip300)" d="M131.105 618.778 Q131.808 619.363 131.808 620.417 Q131.808 621.413 131.105 622.115 L106.277 646.943 L131.105 671.771 Q131.808 672.474 131.808 673.528 Q131.808 674.523 131.105 675.167 Q130.461 675.87 129.465 675.87 Q128.47 675.87 127.767 675.167 L102.939 650.339 L78.1116 675.167 Q77.4089 675.87 76.4135 675.87 Q75.3595 675.87 74.7739 675.167 Q74.0712 674.523 74.0712 673.528 Q74.0712 672.474 74.7739 671.771 L99.6017 646.943 L74.7739 622.115 Q74.0712 621.413 74.0712 620.417 Q74.0712 619.363 74.7739 618.778 Q75.3595 618.075 76.4135 618.075 Q77.4089 618.075 78.1116 618.778 L102.939 643.605 L127.767 618.778 Q128.47 618.075 129.524 618.075 Q130.519 618.075 131.105 618.778 Z" fill="#000000" fill-rule="nonzero" fill-opacity="1"></path><path clip-path="url(#clip300)" d="M64.468 572.634 L60.7204 572.634 Q60.7204 558.229 53.0496 550.793 Q53.0496 548.743 53.518 548.392 Q53.9865 548.041 56.153 548.041 L123.434 548.041 Q127.006 548.041 128.119 546.284 Q129.231 544.527 129.231 536.856 L129.231 533.05 L132.92 533.05 Q132.569 537.266 132.569 552.491 Q132.569 567.716 132.92 571.873 L129.231 571.873 L129.231 568.067 Q129.231 560.513 128.177 558.698 Q127.064 556.883 123.434 556.883 L61.306 556.883 Q64.468 563.148 64.468 572.634 Z" fill="#000000" fill-rule="nonzero" fill-opacity="1"></path><path clip-path="url(#clip300)" d="M94.5659 513.244 Q76.9405 513.244 67.3373 508.793 Q53.0496 502.586 53.0496 487.947 Q53.0496 484.844 53.9279 481.623 Q54.7477 478.344 57.9683 474.245 Q61.1889 470.088 66.4589 467.57 Q76.6477 462.768 94.5659 462.768 Q112.074 462.768 121.619 467.218 Q135.555 473.718 135.555 488.064 Q135.555 493.452 132.803 498.956 Q130.051 504.402 123.434 507.856 Q113.538 513.244 94.5659 513.244 M93.102 503.289 Q111.196 503.289 118.398 502.001 Q126.186 500.537 129.582 496.555 Q132.92 492.515 132.92 488.064 Q132.92 483.263 129.348 479.281 Q125.718 475.241 117.93 474.011 Q110.259 472.664 93.102 472.723 Q76.4135 472.723 69.7381 473.894 Q61.9501 475.475 58.8466 479.691 Q55.6846 483.848 55.6846 488.064 Q55.6846 489.645 56.153 491.344 Q56.6215 492.983 57.9683 495.384 Q59.3151 497.785 62.6528 499.659 Q65.9905 501.474 71.0263 502.352 Q77.526 503.289 93.102 503.289 Z" fill="#000000" fill-rule="nonzero" fill-opacity="1"></path><path clip-path="url(#clip300)" d="M48.5238 395.042 Q49.0157 394.55 49.7125 394.55 Q50.4093 394.55 50.9012 395.042 Q51.3931 395.534 51.3931 396.23 L51.3931 448.779 Q51.3931 449.475 50.9012 449.967 Q50.4093 450.459 49.7125 450.459 Q49.0157 450.459 48.5238 449.967 Q48.032 449.475 48.032 448.779 L48.032 396.23 Q48.032 395.534 48.5238 395.042 Z" fill="#000000" fill-rule="nonzero" fill-opacity="1"></path><path clip-path="url(#clip300)" d="M56.8447 385.785 L54.2623 385.785 L14.8716 360.003 Q13.8469 359.347 13.8879 358.322 Q13.8879 357.379 14.2568 357.174 Q14.6257 356.969 16.0603 356.969 L54.2623 356.969 L54.2623 348.567 L56.8447 348.567 L56.8447 356.969 L64.1408 356.969 Q66.5591 356.969 67.3379 355.986 Q68.1167 354.961 68.1167 350.616 L68.1167 348.854 L70.699 348.854 Q70.4531 352.297 70.4531 360.249 Q70.4531 368.16 70.699 371.603 L68.1167 371.603 L68.1167 369.84 Q68.1167 365.495 67.3789 364.47 Q66.6001 363.446 64.1408 363.446 L56.8447 363.446 L56.8447 385.785 M54.2623 383.408 L54.2623 362.954 L22.9465 362.954 L54.2623 383.408 Z" fill="#000000" fill-rule="nonzero" fill-opacity="1"></path><path clip-path="url(#clip300)" d="M134.63 318.611 Q134.033 318.611 132.54 317.059 Q112.474 297.352 74.6723 297.352 Q36.7509 297.352 17.5812 316.282 Q15.3716 318.611 14.7147 318.611 Q13.5203 318.611 13.5203 317.417 Q13.5203 316.581 15.9688 313.655 Q18.4172 310.669 24.0308 306.19 Q29.6444 301.651 36.512 298.307 Q53.1735 290.245 74.6723 290.245 Q95.3349 290.245 111.996 297.949 Q118.984 301.233 124.836 305.832 Q130.688 310.43 133.256 313.476 Q135.824 316.521 135.824 317.417 Q135.824 318.611 134.63 318.611 Z" fill="#000000" fill-rule="nonzero" fill-opacity="1"></path><polyline clip-path="url(#clip303)" style="stroke:#e31a1c; stroke-linecap:round; stroke-linejoin:round; stroke-width:16; stroke-opacity:1; fill:none" points="348.351,1292.16 377.779,1272.97 407.207,1253.78 436.635,1234.6 466.064,1215.41 495.492,1196.23 524.92,1177.04 554.348,1157.85 583.776,1138.67 613.204,1119.48 642.632,1100.29 672.06,1081.11 701.488,1061.92 730.917,1042.74 760.345,1023.55 789.773,1004.36 819.201,985.178 848.629,965.992 878.057,946.806 907.485,927.62 936.913,908.435 966.341,889.249 995.769,870.063 1025.2,850.877 1054.63,831.692 1084.05,812.506 1113.48,793.32 1142.91,774.135 1172.34,754.949 1201.77,735.764 1231.19,716.579 1260.62,697.393 1290.05,678.208 1319.48,659.023 1348.91,639.838 1378.33,620.652 1407.76,601.467 1437.19,582.283 1466.62,563.098 1496.05,543.913 1525.48,524.728 1554.9,505.543 1584.33,486.359 1613.76,467.174 1643.19,447.99 1672.62,428.806 1702.04,409.621 1731.47,390.437 1760.9,371.253 1790.33,352.069 1819.76,332.885 1849.18,313.701 1878.61,294.518 1908.04,275.334 1937.47,256.151 1966.9,236.967 1996.33,217.784 2025.75,198.601 2055.18,179.417 2084.61,160.234 2114.04,141.052 2143.47,121.869 2172.89,102.686 2202.32,83.5037 "></polyline>
<polyline clip-path="url(#clip303)" style="stroke:#377db8; stroke-linecap:round; stroke-linejoin:round; stroke-width:16; stroke-opacity:1; fill:none" points="348.351,1292.16 377.779,1292.15 407.207,1292.15 436.635,1292.14 466.064,1292.12 495.492,1292.11 524.92,1292.08 554.348,1292.06 583.776,1292.03 613.204,1291.99 642.632,1291.95 672.06,1291.91 701.488,1291.86 730.917,1291.81 760.345,1291.76 789.773,1291.7 819.201,1291.64 848.629,1291.57 878.057,1291.5 907.485,1291.42 936.913,1291.34 966.341,1291.26 995.769,1291.17 1025.2,1291.08 1054.63,1290.99 1084.05,1290.89 1113.48,1290.78 1142.91,1290.68 1172.34,1290.56 1201.77,1290.45 1231.19,1290.33 1260.62,1290.21 1290.05,1290.08 1319.48,1289.95 1348.91,1289.81 1378.33,1289.67 1407.76,1289.53 1437.19,1289.38 1466.62,1289.22 1496.05,1289.07 1525.48,1288.91 1554.9,1288.74 1584.33,1288.58 1613.76,1288.4 1643.19,1288.23 1672.62,1288.05 1702.04,1287.86 1731.47,1287.67 1760.9,1287.48 1790.33,1287.28 1819.76,1287.08 1849.18,1286.88 1878.61,1286.67 1908.04,1286.45 1937.47,1286.24 1966.9,1286.02 1996.33,1285.79 2025.75,1285.56 2055.18,1285.33 2084.61,1285.09 2114.04,1284.85 2143.47,1284.6 2172.89,1284.35 2202.32,1284.1 "></polyline>
<polyline clip-path="url(#clip303)" style="stroke:#4dae49; stroke-linecap:round; stroke-linejoin:round; stroke-width:16; stroke-opacity:1; fill:none" points="348.351,1292.16 377.779,1292.16 407.207,1292.16 436.635,1292.16 466.064,1292.16 495.492,1292.16 524.92,1292.16 554.348,1292.16 583.776,1292.16 613.204,1292.16 642.632,1292.16 672.06,1292.16 701.488,1292.16 730.917,1292.16 760.345,1292.16 789.773,1292.16 819.201,1292.15 848.629,1292.15 878.057,1292.15 907.485,1292.15 936.913,1292.15 966.341,1292.15 995.769,1292.15 1025.2,1292.15 1054.63,1292.15 1084.05,1292.15 1113.48,1292.15 1142.91,1292.15 1172.34,1292.15 1201.77,1292.15 1231.19,1292.15 1260.62,1292.15 1290.05,1292.15 1319.48,1292.15 1348.91,1292.14 1378.33,1292.14 1407.76,1292.14 1437.19,1292.14 1466.62,1292.14 1496.05,1292.14 1525.48,1292.14 1554.9,1292.14 1584.33,1292.13 1613.76,1292.13 1643.19,1292.13 1672.62,1292.13 1702.04,1292.13 1731.47,1292.13 1760.9,1292.12 1790.33,1292.12 1819.76,1292.12 1849.18,1292.12 1878.61,1292.12 1908.04,1292.11 1937.47,1292.11 1966.9,1292.11 1996.33,1292.11 2025.75,1292.1 2055.18,1292.1 2084.61,1292.1 2114.04,1292.09 2143.47,1292.09 2172.89,1292.09 2202.32,1292.08 "></polyline>
<path clip-path="url(#clip303)" d="M348.351 1264.16 L320.351 1292.16 L348.351 1320.16 L376.351 1292.16 L348.351 1264.16 Z" fill="#e31a1c" fill-rule="evenodd" fill-opacity="1" stroke="#000000" stroke-opacity="1" stroke-width="0"></path>
<path clip-path="url(#clip303)" d="M436.635 1206.75 L408.635 1234.75 L436.635 1262.75 L464.635 1234.75 L436.635 1206.75 Z" fill="#e31a1c" fill-rule="evenodd" fill-opacity="1" stroke="#000000" stroke-opacity="1" stroke-width="0"></path>
<path clip-path="url(#clip303)" d="M524.92 1150.24 L496.92 1178.24 L524.92 1206.24 L552.92 1178.24 L524.92 1150.24 Z" fill="#e31a1c" fill-rule="evenodd" fill-opacity="1" stroke="#000000" stroke-opacity="1" stroke-width="0"></path>
<path clip-path="url(#clip303)" d="M613.204 1095.53 L585.204 1123.53 L613.204 1151.53 L641.204 1123.53 L613.204 1095.53 Z" fill="#e31a1c" fill-rule="evenodd" fill-opacity="1" stroke="#000000" stroke-opacity="1" stroke-width="0"></path>
<path clip-path="url(#clip303)" d="M701.488 1043.46 L673.488 1071.46 L701.488 1099.46 L729.488 1071.46 L701.488 1043.46 Z" fill="#e31a1c" fill-rule="evenodd" fill-opacity="1" stroke="#000000" stroke-opacity="1" stroke-width="0"></path>
<path clip-path="url(#clip303)" d="M789.773 994.863 L761.773 1022.86 L789.773 1050.86 L817.773 1022.86 L789.773 994.863 Z" fill="#e31a1c" fill-rule="evenodd" fill-opacity="1" stroke="#000000" stroke-opacity="1" stroke-width="0"></path>
<path clip-path="url(#clip303)" d="M878.057 950.495 L850.057 978.495 L878.057 1006.5 L906.057 978.495 L878.057 950.495 Z" fill="#e31a1c" fill-rule="evenodd" fill-opacity="1" stroke="#000000" stroke-opacity="1" stroke-width="0"></path>
<path clip-path="url(#clip303)" d="M966.341 911.052 L938.341 939.052 L966.341 967.052 L994.341 939.052 L966.341 911.052 Z" fill="#e31a1c" fill-rule="evenodd" fill-opacity="1" stroke="#000000" stroke-opacity="1" stroke-width="0"></path>
<path clip-path="url(#clip303)" d="M1054.63 877.144 L1026.63 905.144 L1054.63 933.144 L1082.63 905.144 L1054.63 877.144 Z" fill="#e31a1c" fill-rule="evenodd" fill-opacity="1" stroke="#000000" stroke-opacity="1" stroke-width="0"></path>
<path clip-path="url(#clip303)" d="M1142.91 849.287 L1114.91 877.287 L1142.91 905.287 L1170.91 877.287 L1142.91 849.287 Z" fill="#e31a1c" fill-rule="evenodd" fill-opacity="1" stroke="#000000" stroke-opacity="1" stroke-width="0"></path>
<path clip-path="url(#clip303)" d="M1231.19 827.89 L1203.19 855.89 L1231.19 883.89 L1259.19 855.89 L1231.19 827.89 Z" fill="#e31a1c" fill-rule="evenodd" fill-opacity="1" stroke="#000000" stroke-opacity="1" stroke-width="0"></path>
<path clip-path="url(#clip303)" d="M1319.48 813.238 L1291.48 841.238 L1319.48 869.238 L1347.48 841.238 L1319.48 813.238 Z" fill="#e31a1c" fill-rule="evenodd" fill-opacity="1" stroke="#000000" stroke-opacity="1" stroke-width="0"></path>
<path clip-path="url(#clip303)" d="M1407.76 805.483 L1379.76 833.483 L1407.76 861.483 L1435.76 833.483 L1407.76 805.483 Z" fill="#e31a1c" fill-rule="evenodd" fill-opacity="1" stroke="#000000" stroke-opacity="1" stroke-width="0"></path>
<path clip-path="url(#clip303)" d="M1496.05 804.629 L1468.05 832.629 L1496.05 860.629 L1524.05 832.629 L1496.05 804.629 Z" fill="#e31a1c" fill-rule="evenodd" fill-opacity="1" stroke="#000000" stroke-opacity="1" stroke-width="0"></path>
<path clip-path="url(#clip303)" d="M1584.33 810.516 L1556.33 838.516 L1584.33 866.516 L1612.33 838.516 L1584.33 810.516 Z" fill="#e31a1c" fill-rule="evenodd" fill-opacity="1" stroke="#000000" stroke-opacity="1" stroke-width="0"></path>
<path clip-path="url(#clip303)" d="M1672.62 822.801 L1644.62 850.801 L1672.62 878.801 L1700.62 850.801 L1672.62 822.801 Z" fill="#e31a1c" fill-rule="evenodd" fill-opacity="1" stroke="#000000" stroke-opacity="1" stroke-width="0"></path>
<path clip-path="url(#clip303)" d="M1760.9 840.933 L1732.9 868.933 L1760.9 896.933 L1788.9 868.933 L1760.9 840.933 Z" fill="#e31a1c" fill-rule="evenodd" fill-opacity="1" stroke="#000000" stroke-opacity="1" stroke-width="0"></path>
<path clip-path="url(#clip303)" d="M1849.18 864.125 L1821.18 892.125 L1849.18 920.125 L1877.18 892.125 L1849.18 864.125 Z" fill="#e31a1c" fill-rule="evenodd" fill-opacity="1" stroke="#000000" stroke-opacity="1" stroke-width="0"></path>
<path clip-path="url(#clip303)" d="M1937.47 891.302 L1909.47 919.302 L1937.47 947.302 L1965.47 919.302 L1937.47 891.302 Z" fill="#e31a1c" fill-rule="evenodd" fill-opacity="1" stroke="#000000" stroke-opacity="1" stroke-width="0"></path>
<path clip-path="url(#clip303)" d="M2025.75 921.041 L1997.75 949.041 L2025.75 977.041 L2053.75 949.041 L2025.75 921.041 Z" fill="#e31a1c" fill-rule="evenodd" fill-opacity="1" stroke="#000000" stroke-opacity="1" stroke-width="0"></path>
<path clip-path="url(#clip303)" d="M2114.04 951.48 L2086.04 979.48 L2114.04 1007.48 L2142.04 979.48 L2114.04 951.48 Z" fill="#e31a1c" fill-rule="evenodd" fill-opacity="1" stroke="#000000" stroke-opacity="1" stroke-width="0"></path>
<path clip-path="url(#clip303)" d="M2202.32 980.244 L2174.32 1008.24 L2202.32 1036.24 L2230.32 1008.24 L2202.32 980.244 Z" fill="#e31a1c" fill-rule="evenodd" fill-opacity="1" stroke="#000000" stroke-opacity="1" stroke-width="0"></path>
<path clip-path="url(#clip303)" d="M348.351 1264.16 L320.351 1292.16 L348.351 1320.16 L376.351 1292.16 L348.351 1264.16 Z" fill="#377db8" fill-rule="evenodd" fill-opacity="1" stroke="#000000" stroke-opacity="1" stroke-width="0"></path>
<path clip-path="url(#clip303)" d="M436.635 1262.53 L408.635 1290.53 L436.635 1318.53 L464.635 1290.53 L436.635 1262.53 Z" fill="#377db8" fill-rule="evenodd" fill-opacity="1" stroke="#000000" stroke-opacity="1" stroke-width="0"></path>
<path clip-path="url(#clip303)" d="M524.92 1257.67 L496.92 1285.67 L524.92 1313.67 L552.92 1285.67 L524.92 1257.67 Z" fill="#377db8" fill-rule="evenodd" fill-opacity="1" stroke="#000000" stroke-opacity="1" stroke-width="0"></path>
<path clip-path="url(#clip303)" d="M613.204 1249.68 L585.204 1277.68 L613.204 1305.68 L641.204 1277.68 L613.204 1249.68 Z" fill="#377db8" fill-rule="evenodd" fill-opacity="1" stroke="#000000" stroke-opacity="1" stroke-width="0"></path>
<path clip-path="url(#clip303)" d="M701.488 1238.73 L673.488 1266.73 L701.488 1294.73 L729.488 1266.73 L701.488 1238.73 Z" fill="#377db8" fill-rule="evenodd" fill-opacity="1" stroke="#000000" stroke-opacity="1" stroke-width="0"></path>
<path clip-path="url(#clip303)" d="M789.773 1225.04 L761.773 1253.04 L789.773 1281.04 L817.773 1253.04 L789.773 1225.04 Z" fill="#377db8" fill-rule="evenodd" fill-opacity="1" stroke="#000000" stroke-opacity="1" stroke-width="0"></path>
<path clip-path="url(#clip303)" d="M878.057 1208.88 L850.057 1236.88 L878.057 1264.88 L906.057 1236.88 L878.057 1208.88 Z" fill="#377db8" fill-rule="evenodd" fill-opacity="1" stroke="#000000" stroke-opacity="1" stroke-width="0"></path>
<path clip-path="url(#clip303)" d="M966.341 1190.61 L938.341 1218.61 L966.341 1246.61 L994.341 1218.61 L966.341 1190.61 Z" fill="#377db8" fill-rule="evenodd" fill-opacity="1" stroke="#000000" stroke-opacity="1" stroke-width="0"></path>
<path clip-path="url(#clip303)" d="M1054.63 1170.6 L1026.63 1198.6 L1054.63 1226.6 L1082.63 1198.6 L1054.63 1170.6 Z" fill="#377db8" fill-rule="evenodd" fill-opacity="1" stroke="#000000" stroke-opacity="1" stroke-width="0"></path>
<path clip-path="url(#clip303)" d="M1142.91 1149.29 L1114.91 1177.29 L1142.91 1205.29 L1170.91 1177.29 L1142.91 1149.29 Z" fill="#377db8" fill-rule="evenodd" fill-opacity="1" stroke="#000000" stroke-opacity="1" stroke-width="0"></path>
<path clip-path="url(#clip303)" d="M1231.19 1127.15 L1203.19 1155.15 L1231.19 1183.15 L1259.19 1155.15 L1231.19 1127.15 Z" fill="#377db8" fill-rule="evenodd" fill-opacity="1" stroke="#000000" stroke-opacity="1" stroke-width="0"></path>
<path clip-path="url(#clip303)" d="M1319.48 1104.69 L1291.48 1132.69 L1319.48 1160.69 L1347.48 1132.69 L1319.48 1104.69 Z" fill="#377db8" fill-rule="evenodd" fill-opacity="1" stroke="#000000" stroke-opacity="1" stroke-width="0"></path>
<path clip-path="url(#clip303)" d="M1407.76 1082.42 L1379.76 1110.42 L1407.76 1138.42 L1435.76 1110.42 L1407.76 1082.42 Z" fill="#377db8" fill-rule="evenodd" fill-opacity="1" stroke="#000000" stroke-opacity="1" stroke-width="0"></path>
<path clip-path="url(#clip303)" d="M1496.05 1060.88 L1468.05 1088.88 L1496.05 1116.88 L1524.05 1088.88 L1496.05 1060.88 Z" fill="#377db8" fill-rule="evenodd" fill-opacity="1" stroke="#000000" stroke-opacity="1" stroke-width="0"></path>
<path clip-path="url(#clip303)" d="M1584.33 1040.61 L1556.33 1068.61 L1584.33 1096.61 L1612.33 1068.61 L1584.33 1040.61 Z" fill="#377db8" fill-rule="evenodd" fill-opacity="1" stroke="#000000" stroke-opacity="1" stroke-width="0"></path>
<path clip-path="url(#clip303)" d="M1672.62 1022.15 L1644.62 1050.15 L1672.62 1078.15 L1700.62 1050.15 L1672.62 1022.15 Z" fill="#377db8" fill-rule="evenodd" fill-opacity="1" stroke="#000000" stroke-opacity="1" stroke-width="0"></path>
<path clip-path="url(#clip303)" d="M1760.9 1006.01 L1732.9 1034.01 L1760.9 1062.01 L1788.9 1034.01 L1760.9 1006.01 Z" fill="#377db8" fill-rule="evenodd" fill-opacity="1" stroke="#000000" stroke-opacity="1" stroke-width="0"></path>
<path clip-path="url(#clip303)" d="M1849.18 992.677 L1821.18 1020.68 L1849.18 1048.68 L1877.18 1020.68 L1849.18 992.677 Z" fill="#377db8" fill-rule="evenodd" fill-opacity="1" stroke="#000000" stroke-opacity="1" stroke-width="0"></path>
<path clip-path="url(#clip303)" d="M1937.47 982.579 L1909.47 1010.58 L1937.47 1038.58 L1965.47 1010.58 L1937.47 982.579 Z" fill="#377db8" fill-rule="evenodd" fill-opacity="1" stroke="#000000" stroke-opacity="1" stroke-width="0"></path>
<path clip-path="url(#clip303)" d="M2025.75 976.097 L1997.75 1004.1 L2025.75 1032.1 L2053.75 1004.1 L2025.75 976.097 Z" fill="#377db8" fill-rule="evenodd" fill-opacity="1" stroke="#000000" stroke-opacity="1" stroke-width="0"></path>
<path clip-path="url(#clip303)" d="M2114.04 973.53 L2086.04 1001.53 L2114.04 1029.53 L2142.04 1001.53 L2114.04 973.53 Z" fill="#377db8" fill-rule="evenodd" fill-opacity="1" stroke="#000000" stroke-opacity="1" stroke-width="0"></path>
<path clip-path="url(#clip303)" d="M2202.32 975.083 L2174.32 1003.08 L2202.32 1031.08 L2230.32 1003.08 L2202.32 975.083 Z" fill="#377db8" fill-rule="evenodd" fill-opacity="1" stroke="#000000" stroke-opacity="1" stroke-width="0"></path>
<path clip-path="url(#clip303)" d="M348.351 1264.16 L320.351 1292.16 L348.351 1320.16 L376.351 1292.16 L348.351 1264.16 Z" fill="#4dae49" fill-rule="evenodd" fill-opacity="1" stroke="#000000" stroke-opacity="1" stroke-width="0"></path>
<path clip-path="url(#clip303)" d="M436.635 1263.75 L408.635 1291.75 L436.635 1319.75 L464.635 1291.75 L436.635 1263.75 Z" fill="#4dae49" fill-rule="evenodd" fill-opacity="1" stroke="#000000" stroke-opacity="1" stroke-width="0"></path>
<path clip-path="url(#clip303)" d="M524.92 1262.53 L496.92 1290.53 L524.92 1318.53 L552.92 1290.53 L524.92 1262.53 Z" fill="#4dae49" fill-rule="evenodd" fill-opacity="1" stroke="#000000" stroke-opacity="1" stroke-width="0"></path>
<path clip-path="url(#clip303)" d="M613.204 1260.48 L585.204 1288.48 L613.204 1316.48 L641.204 1288.48 L613.204 1260.48 Z" fill="#4dae49" fill-rule="evenodd" fill-opacity="1" stroke="#000000" stroke-opacity="1" stroke-width="0"></path>
<path clip-path="url(#clip303)" d="M701.488 1257.56 L673.488 1285.56 L701.488 1313.56 L729.488 1285.56 L701.488 1257.56 Z" fill="#4dae49" fill-rule="evenodd" fill-opacity="1" stroke="#000000" stroke-opacity="1" stroke-width="0"></path>
<path clip-path="url(#clip303)" d="M789.773 1253.75 L761.773 1281.75 L789.773 1309.75 L817.773 1281.75 L789.773 1253.75 Z" fill="#4dae49" fill-rule="evenodd" fill-opacity="1" stroke="#000000" stroke-opacity="1" stroke-width="0"></path>
<path clip-path="url(#clip303)" d="M878.057 1249.01 L850.057 1277.01 L878.057 1305.01 L906.057 1277.01 L878.057 1249.01 Z" fill="#4dae49" fill-rule="evenodd" fill-opacity="1" stroke="#000000" stroke-opacity="1" stroke-width="0"></path>
<path clip-path="url(#clip303)" d="M966.341 1243.3 L938.341 1271.3 L966.341 1299.3 L994.341 1271.3 L966.341 1243.3 Z" fill="#4dae49" fill-rule="evenodd" fill-opacity="1" stroke="#000000" stroke-opacity="1" stroke-width="0"></path>
<path clip-path="url(#clip303)" d="M1054.63 1236.6 L1026.63 1264.6 L1054.63 1292.6 L1082.63 1264.6 L1054.63 1236.6 Z" fill="#4dae49" fill-rule="evenodd" fill-opacity="1" stroke="#000000" stroke-opacity="1" stroke-width="0"></path>
<path clip-path="url(#clip303)" d="M1142.91 1228.91 L1114.91 1256.91 L1142.91 1284.91 L1170.91 1256.91 L1142.91 1228.91 Z" fill="#4dae49" fill-rule="evenodd" fill-opacity="1" stroke="#000000" stroke-opacity="1" stroke-width="0"></path>
<path clip-path="url(#clip303)" d="M1231.19 1220.25 L1203.19 1248.25 L1231.19 1276.25 L1259.19 1248.25 L1231.19 1220.25 Z" fill="#4dae49" fill-rule="evenodd" fill-opacity="1" stroke="#000000" stroke-opacity="1" stroke-width="0"></path>
<path clip-path="url(#clip303)" d="M1319.48 1210.64 L1291.48 1238.64 L1319.48 1266.64 L1347.48 1238.64 L1319.48 1210.64 Z" fill="#4dae49" fill-rule="evenodd" fill-opacity="1" stroke="#000000" stroke-opacity="1" stroke-width="0"></path>
<path clip-path="url(#clip303)" d="M1407.76 1200.15 L1379.76 1228.15 L1407.76 1256.15 L1435.76 1228.15 L1407.76 1200.15 Z" fill="#4dae49" fill-rule="evenodd" fill-opacity="1" stroke="#000000" stroke-opacity="1" stroke-width="0"></path>
<path clip-path="url(#clip303)" d="M1496.05 1188.89 L1468.05 1216.89 L1496.05 1244.89 L1524.05 1216.89 L1496.05 1188.89 Z" fill="#4dae49" fill-rule="evenodd" fill-opacity="1" stroke="#000000" stroke-opacity="1" stroke-width="0"></path>
<path clip-path="url(#clip303)" d="M1584.33 1176.97 L1556.33 1204.97 L1584.33 1232.97 L1612.33 1204.97 L1584.33 1176.97 Z" fill="#4dae49" fill-rule="evenodd" fill-opacity="1" stroke="#000000" stroke-opacity="1" stroke-width="0"></path>
<path clip-path="url(#clip303)" d="M1672.62 1164.56 L1644.62 1192.56 L1672.62 1220.56 L1700.62 1192.56 L1672.62 1164.56 Z" fill="#4dae49" fill-rule="evenodd" fill-opacity="1" stroke="#000000" stroke-opacity="1" stroke-width="0"></path>
<path clip-path="url(#clip303)" d="M1760.9 1151.85 L1732.9 1179.85 L1760.9 1207.85 L1788.9 1179.85 L1760.9 1151.85 Z" fill="#4dae49" fill-rule="evenodd" fill-opacity="1" stroke="#000000" stroke-opacity="1" stroke-width="0"></path>
<path clip-path="url(#clip303)" d="M1849.18 1139.06 L1821.18 1167.06 L1849.18 1195.06 L1877.18 1167.06 L1849.18 1139.06 Z" fill="#4dae49" fill-rule="evenodd" fill-opacity="1" stroke="#000000" stroke-opacity="1" stroke-width="0"></path>
<path clip-path="url(#clip303)" d="M1937.47 1126.47 L1909.47 1154.47 L1937.47 1182.47 L1965.47 1154.47 L1937.47 1126.47 Z" fill="#4dae49" fill-rule="evenodd" fill-opacity="1" stroke="#000000" stroke-opacity="1" stroke-width="0"></path>
<path clip-path="url(#clip303)" d="M2025.75 1114.34 L1997.75 1142.34 L2025.75 1170.34 L2053.75 1142.34 L2025.75 1114.34 Z" fill="#4dae49" fill-rule="evenodd" fill-opacity="1" stroke="#000000" stroke-opacity="1" stroke-width="0"></path>
<path clip-path="url(#clip303)" d="M2114.04 1102.99 L2086.04 1130.99 L2114.04 1158.99 L2142.04 1130.99 L2114.04 1102.99 Z" fill="#4dae49" fill-rule="evenodd" fill-opacity="1" stroke="#000000" stroke-opacity="1" stroke-width="0"></path>
<path clip-path="url(#clip303)" d="M2202.32 1092.75 L2174.32 1120.75 L2202.32 1148.75 L2230.32 1120.75 L2202.32 1092.75 Z" fill="#4dae49" fill-rule="evenodd" fill-opacity="1" stroke="#000000" stroke-opacity="1" stroke-width="0"></path>
<path clip-path="url(#clip300)" d="M2339.94 847.176 L2752.76 847.176 L2752.76 536.136 L2339.94 536.136  Z" fill="#ffffff" fill-rule="evenodd" fill-opacity="1"></path>
<polyline clip-path="url(#clip300)" style="stroke:#000000; stroke-linecap:round; stroke-linejoin:round; stroke-width:4; stroke-opacity:1; fill:none" points="2339.94,847.176 2752.76,847.176 2752.76,536.136 2339.94,536.136 2339.94,847.176 "></polyline>
<polyline clip-path="url(#clip300)" style="stroke:#e31a1c; stroke-linecap:round; stroke-linejoin:round; stroke-width:24; stroke-opacity:1; fill:none" points="2367.28,613.896 2531.28,613.896 "></polyline>
<path clip-path="url(#clip300)" d="M2596.2 610.405 Q2596.2 615.534 2593.6 620.488 Q2591.04 625.442 2587 628.499 Q2582.96 631.52 2578.85 631.52 Q2576.39 631.52 2574.74 630.185 Q2573.12 628.815 2572.24 626.882 Q2571.57 629.272 2570.13 634.998 Q2568.69 640.725 2568.69 641.287 Q2568.69 641.603 2568.76 641.744 Q2568.83 641.885 2569.15 642.06 Q2569.47 642.271 2570.24 642.341 Q2571.01 642.447 2572.31 642.447 Q2572.98 642.447 2573.23 642.447 Q2573.51 642.482 2573.75 642.657 Q2574.03 642.833 2574.03 643.22 Q2574.03 644.66 2572.73 644.66 Q2571.57 644.66 2569.19 644.555 Q2566.8 644.449 2565.6 644.449 Q2564.58 644.449 2562.55 644.555 Q2560.51 644.66 2559.56 644.66 Q2558.61 644.66 2558.61 643.817 Q2558.61 643.325 2558.75 643.009 Q2558.86 642.728 2559.14 642.587 Q2559.42 642.482 2559.66 642.447 Q2559.88 642.447 2560.3 642.447 Q2561.91 642.447 2562.62 642.166 Q2563.32 641.92 2563.56 641.393 Q2563.85 640.901 2564.16 639.495 L2572.24 607.454 Q2572.73 605.31 2572.73 603.8 Q2572.73 601.902 2572.14 601.2 Q2571.54 600.497 2570.49 600.497 Q2568.66 600.497 2567.46 602.675 Q2566.27 604.854 2565.25 609.07 Q2564.93 610.229 2564.72 610.475 Q2564.55 610.721 2564.02 610.721 Q2563.14 610.686 2563.14 609.983 Q2563.14 609.808 2563.42 608.683 Q2563.7 607.524 2564.23 605.837 Q2564.79 604.116 2565.39 603.027 Q2565.74 602.289 2566.06 601.797 Q2566.38 601.305 2567.01 600.532 Q2567.67 599.759 2568.62 599.338 Q2569.57 598.916 2570.73 598.916 Q2572.98 598.916 2574.84 600.251 Q2576.7 601.586 2577.2 604.292 Q2579.2 601.938 2581.66 600.427 Q2584.12 598.916 2586.61 598.916 Q2590.76 598.916 2593.46 602.148 Q2596.2 605.346 2596.2 610.405 M2591 607.243 Q2591 604.046 2589.77 602.289 Q2588.58 600.497 2586.4 600.497 Q2583.7 600.497 2580.57 603.238 Q2577.48 605.837 2576.84 608.262 L2573.3 622.35 L2573.09 623.51 Q2573.09 623.72 2573.19 624.353 Q2573.33 624.95 2573.72 625.934 Q2574.14 626.918 2574.7 627.796 Q2575.3 628.639 2576.35 629.272 Q2577.44 629.904 2578.78 629.904 Q2580.92 629.904 2583.24 628.007 Q2585.59 626.11 2587.35 622.526 Q2588.44 620.207 2589.7 615.218 Q2591 610.194 2591 607.243 Z" fill="#000000" fill-rule="nonzero" fill-opacity="1"></path><path clip-path="url(#clip300)" d="M2614.41 619.785 Q2614.48 618.907 2615.85 618.907 L2659.94 618.907 Q2662.01 618.907 2662.05 619.715 Q2662.05 620.594 2660.08 620.558 L2616.34 620.558 Q2614.41 620.594 2614.41 619.785 M2614.41 605.732 Q2614.41 604.854 2615.92 604.889 L2659.87 604.889 Q2662.01 604.889 2662.05 605.732 Q2662.05 606.54 2660.22 606.54 L2615.85 606.54 Q2614.41 606.54 2614.41 605.732 Z" fill="#000000" fill-rule="nonzero" fill-opacity="1"></path><path clip-path="url(#clip300)" d="M2689.79 607.699 Q2689.79 597.124 2692.46 591.362 Q2696.19 582.79 2704.97 582.79 Q2706.83 582.79 2708.77 583.317 Q2710.73 583.809 2713.19 585.741 Q2715.69 587.673 2717.2 590.835 Q2720.08 596.949 2720.08 607.699 Q2720.08 618.204 2717.41 623.931 Q2713.51 632.293 2704.9 632.293 Q2701.67 632.293 2698.37 630.642 Q2695.1 628.99 2693.03 625.02 Q2689.79 619.083 2689.79 607.699 M2695.77 606.821 Q2695.77 617.677 2696.54 621.999 Q2697.42 626.672 2699.81 628.709 Q2702.23 630.712 2704.9 630.712 Q2707.78 630.712 2710.17 628.569 Q2712.6 626.391 2713.33 621.718 Q2714.14 617.115 2714.11 606.821 Q2714.11 596.808 2713.4 592.803 Q2712.45 588.13 2709.92 586.268 Q2707.43 584.371 2704.9 584.371 Q2703.95 584.371 2702.93 584.652 Q2701.95 584.933 2700.51 585.741 Q2699.07 586.549 2697.94 588.552 Q2696.86 590.554 2696.33 593.576 Q2695.77 597.476 2695.77 606.821 Z" fill="#000000" fill-rule="nonzero" fill-opacity="1"></path><polyline clip-path="url(#clip300)" style="stroke:#377db8; stroke-linecap:round; stroke-linejoin:round; stroke-width:24; stroke-opacity:1; fill:none" points="2367.28,691.656 2531.28,691.656 "></polyline>
<path clip-path="url(#clip300)" d="M2596.2 688.165 Q2596.2 693.294 2593.6 698.248 Q2591.04 703.202 2587 706.259 Q2582.96 709.28 2578.85 709.28 Q2576.39 709.28 2574.74 707.945 Q2573.12 706.575 2572.24 704.642 Q2571.57 707.032 2570.13 712.758 Q2568.69 718.485 2568.69 719.047 Q2568.69 719.363 2568.76 719.504 Q2568.83 719.645 2569.15 719.82 Q2569.47 720.031 2570.24 720.101 Q2571.01 720.207 2572.31 720.207 Q2572.98 720.207 2573.23 720.207 Q2573.51 720.242 2573.75 720.417 Q2574.03 720.593 2574.03 720.98 Q2574.03 722.42 2572.73 722.42 Q2571.57 722.42 2569.19 722.315 Q2566.8 722.209 2565.6 722.209 Q2564.58 722.209 2562.55 722.315 Q2560.51 722.42 2559.56 722.42 Q2558.61 722.42 2558.61 721.577 Q2558.61 721.085 2558.75 720.769 Q2558.86 720.488 2559.14 720.347 Q2559.42 720.242 2559.66 720.207 Q2559.88 720.207 2560.3 720.207 Q2561.91 720.207 2562.62 719.926 Q2563.32 719.68 2563.56 719.153 Q2563.85 718.661 2564.16 717.255 L2572.24 685.214 Q2572.73 683.07 2572.73 681.56 Q2572.73 679.662 2572.14 678.96 Q2571.54 678.257 2570.49 678.257 Q2568.66 678.257 2567.46 680.435 Q2566.27 682.614 2565.25 686.83 Q2564.93 687.989 2564.72 688.235 Q2564.55 688.481 2564.02 688.481 Q2563.14 688.446 2563.14 687.743 Q2563.14 687.568 2563.42 686.443 Q2563.7 685.284 2564.23 683.597 Q2564.79 681.876 2565.39 680.787 Q2565.74 680.049 2566.06 679.557 Q2566.38 679.065 2567.01 678.292 Q2567.67 677.519 2568.62 677.098 Q2569.57 676.676 2570.73 676.676 Q2572.98 676.676 2574.84 678.011 Q2576.7 679.346 2577.2 682.052 Q2579.2 679.698 2581.66 678.187 Q2584.12 676.676 2586.61 676.676 Q2590.76 676.676 2593.46 679.908 Q2596.2 683.106 2596.2 688.165 M2591 685.003 Q2591 681.806 2589.77 680.049 Q2588.58 678.257 2586.4 678.257 Q2583.7 678.257 2580.57 680.998 Q2577.48 683.597 2576.84 686.022 L2573.3 700.11 L2573.09 701.27 Q2573.09 701.48 2573.19 702.113 Q2573.33 702.71 2573.72 703.694 Q2574.14 704.678 2574.7 705.556 Q2575.3 706.399 2576.35 707.032 Q2577.44 707.664 2578.78 707.664 Q2580.92 707.664 2583.24 705.767 Q2585.59 703.87 2587.35 700.286 Q2588.44 697.967 2589.7 692.978 Q2591 687.954 2591 685.003 Z" fill="#000000" fill-rule="nonzero" fill-opacity="1"></path><path clip-path="url(#clip300)" d="M2614.41 697.545 Q2614.48 696.667 2615.85 696.667 L2659.94 696.667 Q2662.01 696.667 2662.05 697.475 Q2662.05 698.354 2660.08 698.318 L2616.34 698.318 Q2614.41 698.354 2614.41 697.545 M2614.41 683.492 Q2614.41 682.614 2615.92 682.649 L2659.87 682.649 Q2662.01 682.649 2662.05 683.492 Q2662.05 684.3 2660.22 684.3 L2615.85 684.3 Q2614.41 684.3 2614.41 683.492 Z" fill="#000000" fill-rule="nonzero" fill-opacity="1"></path><path clip-path="url(#clip300)" d="M2689.79 667.401 L2689.79 665.152 Q2698.44 665.152 2702.9 660.55 Q2704.13 660.55 2704.34 660.831 Q2704.55 661.112 2704.55 662.412 L2704.55 702.78 Q2704.55 704.924 2705.6 705.591 Q2706.66 706.259 2711.26 706.259 L2713.54 706.259 L2713.54 708.472 Q2711.01 708.261 2701.88 708.261 Q2692.74 708.261 2690.25 708.472 L2690.25 706.259 L2692.53 706.259 Q2697.07 706.259 2698.16 705.626 Q2699.24 704.959 2699.24 702.78 L2699.24 665.504 Q2695.49 667.401 2689.79 667.401 Z" fill="#000000" fill-rule="nonzero" fill-opacity="1"></path><polyline clip-path="url(#clip300)" style="stroke:#4dae49; stroke-linecap:round; stroke-linejoin:round; stroke-width:24; stroke-opacity:1; fill:none" points="2367.28,769.416 2531.28,769.416 "></polyline>
<path clip-path="url(#clip300)" d="M2596.2 765.925 Q2596.2 771.054 2593.6 776.008 Q2591.04 780.962 2587 784.019 Q2582.96 787.04 2578.85 787.04 Q2576.39 787.04 2574.74 785.705 Q2573.12 784.335 2572.24 782.402 Q2571.57 784.792 2570.13 790.518 Q2568.69 796.245 2568.69 796.807 Q2568.69 797.123 2568.76 797.264 Q2568.83 797.405 2569.15 797.58 Q2569.47 797.791 2570.24 797.861 Q2571.01 797.967 2572.31 797.967 Q2572.98 797.967 2573.23 797.967 Q2573.51 798.002 2573.75 798.177 Q2574.03 798.353 2574.03 798.74 Q2574.03 800.18 2572.73 800.18 Q2571.57 800.18 2569.19 800.075 Q2566.8 799.969 2565.6 799.969 Q2564.58 799.969 2562.55 800.075 Q2560.51 800.18 2559.56 800.18 Q2558.61 800.18 2558.61 799.337 Q2558.61 798.845 2558.75 798.529 Q2558.86 798.248 2559.14 798.107 Q2559.42 798.002 2559.66 797.967 Q2559.88 797.967 2560.3 797.967 Q2561.91 797.967 2562.62 797.686 Q2563.32 797.44 2563.56 796.913 Q2563.85 796.421 2564.16 795.015 L2572.24 762.974 Q2572.73 760.83 2572.73 759.32 Q2572.73 757.422 2572.14 756.72 Q2571.54 756.017 2570.49 756.017 Q2568.66 756.017 2567.46 758.195 Q2566.27 760.374 2565.25 764.59 Q2564.93 765.749 2564.72 765.995 Q2564.55 766.241 2564.02 766.241 Q2563.14 766.206 2563.14 765.503 Q2563.14 765.328 2563.42 764.203 Q2563.7 763.044 2564.23 761.357 Q2564.79 759.636 2565.39 758.547 Q2565.74 757.809 2566.06 757.317 Q2566.38 756.825 2567.01 756.052 Q2567.67 755.279 2568.62 754.858 Q2569.57 754.436 2570.73 754.436 Q2572.98 754.436 2574.84 755.771 Q2576.7 757.106 2577.2 759.812 Q2579.2 757.458 2581.66 755.947 Q2584.12 754.436 2586.61 754.436 Q2590.76 754.436 2593.46 757.668 Q2596.2 760.866 2596.2 765.925 M2591 762.763 Q2591 759.566 2589.77 757.809 Q2588.58 756.017 2586.4 756.017 Q2583.7 756.017 2580.57 758.758 Q2577.48 761.357 2576.84 763.782 L2573.3 777.87 L2573.09 779.03 Q2573.09 779.24 2573.19 779.873 Q2573.33 780.47 2573.72 781.454 Q2574.14 782.438 2574.7 783.316 Q2575.3 784.159 2576.35 784.792 Q2577.44 785.424 2578.78 785.424 Q2580.92 785.424 2583.24 783.527 Q2585.59 781.63 2587.35 778.046 Q2588.44 775.727 2589.7 770.738 Q2591 765.714 2591 762.763 Z" fill="#000000" fill-rule="nonzero" fill-opacity="1"></path><path clip-path="url(#clip300)" d="M2614.41 775.305 Q2614.48 774.427 2615.85 774.427 L2659.94 774.427 Q2662.01 774.427 2662.05 775.235 Q2662.05 776.114 2660.08 776.078 L2616.34 776.078 Q2614.41 776.114 2614.41 775.305 M2614.41 761.252 Q2614.41 760.374 2615.92 760.409 L2659.87 760.409 Q2662.01 760.409 2662.05 761.252 Q2662.05 762.06 2660.22 762.06 L2615.85 762.06 Q2614.41 762.06 2614.41 761.252 Z" fill="#000000" fill-rule="nonzero" fill-opacity="1"></path><path clip-path="url(#clip300)" d="M2689.79 786.232 Q2689.79 784.932 2689.9 784.546 Q2690.04 784.159 2690.6 783.562 L2704.41 768.173 Q2711.96 759.671 2711.96 752.258 Q2711.96 747.444 2709.43 744.001 Q2706.94 740.558 2702.34 740.558 Q2699.17 740.558 2696.5 742.491 Q2693.83 744.423 2692.6 747.866 Q2692.81 747.796 2693.55 747.796 Q2695.34 747.796 2696.33 748.92 Q2697.35 750.044 2697.35 751.555 Q2697.35 753.487 2696.08 754.436 Q2694.85 755.35 2693.62 755.35 Q2693.13 755.35 2692.46 755.244 Q2691.83 755.139 2690.81 754.155 Q2689.79 753.136 2689.79 751.344 Q2689.79 746.32 2693.59 742.315 Q2697.42 738.31 2703.25 738.31 Q2709.85 738.31 2714.18 742.245 Q2718.53 746.145 2718.53 752.258 Q2718.53 754.401 2717.87 756.368 Q2717.23 758.301 2716.35 759.812 Q2715.51 761.322 2713.19 763.747 Q2710.87 766.171 2709.01 767.892 Q2707.15 769.614 2702.97 773.268 L2695.34 780.681 L2708.31 780.681 Q2714.63 780.681 2715.12 780.119 Q2715.83 779.1 2716.71 773.724 L2718.53 773.724 L2716.49 786.232 L2689.79 786.232 Z" fill="#000000" fill-rule="nonzero" fill-opacity="1"></path><path clip-path="url(#clip300)" d="M509.769 205.424 Q509.769 205.477 509.453 207.374 L497.437 255.279 Q496.805 257.808 495.013 260.338 Q493.274 262.92 490.481 265.134 Q487.74 267.4 483.524 268.77 Q479.361 270.193 474.565 270.193 Q466.924 270.193 463.551 268.559 Q460.231 266.978 460.231 263.605 Q460.231 260.654 462.075 258.968 Q463.92 257.334 466.028 257.334 Q468.03 257.334 469.084 258.494 Q470.138 259.653 470.138 261.129 Q470.138 262.762 469.032 264.396 Q467.925 266.082 465.712 266.715 Q469.243 267.822 474.354 267.822 Q485.158 267.822 489.796 256.386 Q489.901 256.227 489.901 256.175 L493.485 241.893 L493.327 241.787 Q492.431 242.841 491.008 244.054 Q489.638 245.213 486.686 246.636 Q483.735 248.059 480.837 248.059 Q474.776 248.059 470.613 243.421 Q466.502 238.731 466.502 230.984 Q466.502 225.345 468.768 219.706 Q471.087 214.014 474.671 209.851 Q478.307 205.635 482.945 203 Q487.635 200.365 492.167 200.365 Q495.329 200.365 498.017 202.262 Q500.705 204.107 502.18 207.163 Q502.444 204.634 503.867 203.58 Q505.342 202.526 506.607 202.526 Q508.03 202.526 508.873 203.316 Q509.769 204.054 509.769 205.424 M500.916 212.012 Q500.916 211.695 500.705 210.852 Q500.494 209.956 499.862 208.533 Q499.282 207.111 498.386 205.846 Q497.49 204.581 495.856 203.685 Q494.275 202.736 492.273 202.736 Q489.005 202.736 485.738 205.477 Q482.47 208.165 480.204 212.328 Q478.096 216.333 476.094 224.08 Q474.144 231.827 474.144 235.78 Q474.144 239.679 475.83 242.683 Q477.517 245.687 481.153 245.687 Q485.369 245.687 489.901 241.787 Q494.591 237.73 495.382 234.251 L500.599 213.645 Q500.916 212.381 500.916 212.012 Z" fill="#000000" fill-rule="nonzero" fill-opacity="1"></path><path clip-path="url(#clip300)" d="M536.963 249.532 L526.081 293.21 Q525.638 294.944 525.638 296.826 Q525.638 300.293 527.925 300.293 Q528.995 300.293 529.88 299.592 Q530.766 298.855 531.43 297.416 Q532.131 295.94 532.573 294.538 Q533.053 293.137 533.643 290.96 Q533.828 290.112 534.012 289.853 Q534.197 289.595 534.713 289.595 Q535.635 289.595 535.635 290.333 Q534.713 294.87 533.348 297.748 Q531.356 301.99 527.667 301.99 Q524.9 301.99 522.834 300.072 Q520.805 298.117 520.805 295.018 Q520.805 293.838 521.174 292.436 L530.692 254.66 L530.95 253.184 Q530.95 252.779 530.803 252.557 Q530.655 252.336 529.77 252.115 Q528.921 251.893 527.224 251.893 Q526.523 251.893 526.191 251.856 Q525.896 251.819 525.601 251.635 Q525.343 251.45 525.343 251.045 Q525.343 250.381 525.601 250.012 Q525.896 249.643 526.118 249.569 Q526.339 249.495 526.782 249.458 Q527.409 249.422 529.512 249.237 Q531.614 249.016 533.422 248.868 Q535.23 248.721 536.004 248.721 Q536.447 248.721 536.668 248.942 Q536.927 249.126 536.963 249.348 L536.963 249.532 Z" fill="#000000" fill-rule="nonzero" fill-opacity="1"></path><path clip-path="url(#clip300)" d="M578.269 231.669 Q578.374 230.351 580.429 230.351 L646.568 230.351 Q649.678 230.351 649.731 231.564 Q649.731 232.881 646.779 232.828 L581.167 232.828 Q578.269 232.881 578.269 231.669 M578.269 210.589 Q578.269 209.271 580.535 209.324 L646.463 209.324 Q649.678 209.324 649.731 210.589 Q649.731 211.801 646.99 211.801 L580.429 211.801 Q578.269 211.801 578.269 210.589 Z" fill="#000000" fill-rule="nonzero" fill-opacity="1"></path><path clip-path="url(#clip300)" d="M691.357 231.774 Q691.357 219.706 706.904 211.906 Q700.211 207.374 698.999 206.057 Q694.256 200.786 694.256 194.199 Q694.256 186.663 699.947 181.445 Q705.692 176.175 713.808 176.175 Q721.555 176.175 727.404 180.655 Q733.254 185.134 733.254 192.249 Q733.254 202.262 720.184 209.008 Q728.827 214.383 730.883 216.649 Q736.153 222.499 736.153 229.93 Q736.153 238.573 729.512 244.528 Q722.872 250.43 713.702 250.43 Q704.743 250.43 698.05 245.213 Q691.357 239.996 691.357 231.774 M696.733 231.774 Q696.733 238.467 701.739 242.947 Q706.799 247.426 713.808 247.426 Q720.606 247.426 725.665 243.527 Q730.777 239.627 730.777 233.83 Q730.777 231.564 729.987 229.614 Q729.249 227.664 727.721 226.135 Q726.245 224.554 725.296 223.869 Q724.401 223.131 722.661 221.919 L709.381 213.54 Q696.733 220.549 696.733 231.774 M698.999 189.983 Q698.999 195.148 704.427 198.731 L717.813 207.374 Q728.511 201.103 728.511 192.249 Q728.511 186.505 724.137 182.71 Q719.763 178.863 713.702 178.863 Q707.747 178.863 703.373 182.025 Q698.999 185.134 698.999 189.983 Z" fill="#000000" fill-rule="nonzero" fill-opacity="1"></path><path clip-path="url(#clip300)" d="M744.805 213.54 Q744.805 197.677 748.81 189.034 Q754.397 176.175 767.572 176.175 Q770.365 176.175 773.263 176.966 Q776.215 177.704 779.904 180.602 Q783.645 183.501 785.912 188.244 Q790.233 197.414 790.233 213.54 Q790.233 229.297 786.228 237.888 Q780.378 250.43 767.466 250.43 Q762.618 250.43 757.664 247.953 Q752.763 245.477 749.654 239.521 Q744.805 230.615 744.805 213.54 M753.764 212.222 Q753.764 228.507 754.924 234.989 Q756.241 241.998 759.825 245.055 Q763.461 248.059 767.466 248.059 Q771.788 248.059 775.371 244.844 Q779.008 241.577 780.115 234.567 Q781.327 227.664 781.274 212.222 Q781.274 197.203 780.22 191.195 Q778.797 184.186 775.003 181.393 Q771.261 178.547 767.466 178.547 Q766.044 178.547 764.515 178.968 Q763.04 179.39 760.879 180.602 Q758.718 181.814 757.032 184.818 Q755.398 187.822 754.607 192.354 Q753.764 198.204 753.764 212.222 Z" fill="#000000" fill-rule="nonzero" fill-opacity="1"></path><path clip-path="url(#clip300)" d="M798.685 213.54 Q798.685 197.677 802.69 189.034 Q808.277 176.175 821.452 176.175 Q824.245 176.175 827.143 176.966 Q830.095 177.704 833.784 180.602 Q837.525 183.501 839.792 188.244 Q844.113 197.414 844.113 213.54 Q844.113 229.297 840.108 237.888 Q834.258 250.43 821.346 250.43 Q816.498 250.43 811.544 247.953 Q806.643 245.477 803.534 239.521 Q798.685 230.615 798.685 213.54 M807.644 212.222 Q807.644 228.507 808.804 234.989 Q810.121 241.998 813.705 245.055 Q817.341 248.059 821.346 248.059 Q825.668 248.059 829.251 244.844 Q832.888 241.577 833.994 234.567 Q835.207 227.664 835.154 212.222 Q835.154 197.203 834.1 191.195 Q832.677 184.186 828.883 181.393 Q825.141 178.547 821.346 178.547 Q819.923 178.547 818.395 178.968 Q816.919 179.39 814.759 180.602 Q812.598 181.814 810.912 184.818 Q809.278 187.822 808.487 192.354 Q807.644 198.204 807.644 212.222 Z" fill="#000000" fill-rule="nonzero" fill-opacity="1"></path><path clip-path="url(#clip300)" d="M908.692 204.107 Q908.692 207.796 903.422 207.796 L891.09 207.796 Q889.193 216.544 889.193 224.976 Q889.193 235.042 892.302 242.789 Q892.934 244.317 892.934 245.16 Q892.934 246.741 891.511 248.006 Q890.141 249.271 888.507 249.271 Q887.137 249.271 886.241 248.217 Q885.398 247.163 884.66 243.843 Q883.764 239.943 883.764 235.622 Q883.764 230.457 884.608 225.503 Q885.451 220.496 888.297 207.796 L876.123 207.796 L870.062 231.669 Q867.902 239.732 867.164 242.209 Q866.689 243.685 866.531 244.159 Q866.373 244.633 865.899 245.793 Q865.477 246.899 865.161 247.321 Q864.845 247.69 864.318 248.27 Q863.791 248.902 863.159 249.06 Q862.526 249.271 861.736 249.271 Q860.524 249.271 859.575 248.48 Q858.626 247.743 858.626 246.32 Q858.626 245.371 859.47 243.737 Q869.483 222.13 873.277 207.796 L867.164 207.796 Q858.732 207.796 853.462 216.122 Q852.618 217.229 852.144 217.334 Q851.933 217.387 851.723 217.387 Q851.143 217.387 850.774 217.124 Q850.458 216.86 850.458 216.597 L850.405 216.333 Q850.405 216.017 851.196 214.594 Q852.039 213.118 853.62 210.852 Q855.253 208.586 856.993 206.636 Q858.679 204.844 860.313 203.738 Q861.999 202.578 863.58 202.157 Q865.161 201.735 866.057 201.63 Q866.953 201.524 868.218 201.524 L904.37 201.524 Q905.741 201.524 906.478 201.63 Q907.216 201.682 907.954 202.315 Q908.692 202.894 908.692 204.107 Z" fill="#000000" fill-rule="nonzero" fill-opacity="1"></path></svg>