<?xml version="1.0" encoding="UTF-8" standalone="no"?>
<svg
   width="600"
   height="400"
   viewBox="0 0 2400 1600"
   version="1.1"
   id="svg296"
   sodipodi:docname="plot_70.svg"
   inkscape:version="1.2.2 (732a01da63, 2022-12-09)"
   xmlns:inkscape="http://www.inkscape.org/namespaces/inkscape"
   xmlns:sodipodi="http://sodipodi.sourceforge.net/DTD/sodipodi-0.dtd"
   xmlns="http://www.w3.org/2000/svg"
   xmlns:svg="http://www.w3.org/2000/svg">
  <sodipodi:namedview
     id="namedview298"
     pagecolor="#ffffff"
     bordercolor="#000000"
     borderopacity="0.25"
     inkscape:showpageshadow="2"
     inkscape:pageopacity="0.0"
     inkscape:pagecheckerboard="0"
     inkscape:deskcolor="#d1d1d1"
     showgrid="false"
     showguides="true"
     inkscape:zoom="1.05"
     inkscape:cx="140"
     inkscape:cy="270.47619"
     inkscape:window-width="2560"
     inkscape:window-height="1057"
     inkscape:window-x="-8"
     inkscape:window-y="-8"
     inkscape:window-maximized="1"
     inkscape:current-layer="svg296" />
  <defs
     id="defs5">
    <clipPath
       id="clip340">
      <rect
         x="0"
         y="0"
         width="2400"
         height="1600"
         id="rect2" />
    </clipPath>
    <clipPath
       id="clip340-5">
      <rect
         x="0"
         y="0"
         width="2400"
         height="1600"
         id="rect2-4" />
    </clipPath>
    <clipPath
       id="clipPath638">
      <rect
         x="0"
         y="0"
         width="2400"
         height="1600"
         id="rect636" />
    </clipPath>
    <clipPath
       id="clipPath642">
      <rect
         x="0"
         y="0"
         width="2400"
         height="1600"
         id="rect640" />
    </clipPath>
    <clipPath
       id="clipPath646">
      <rect
         x="0"
         y="0"
         width="2400"
         height="1600"
         id="rect644" />
    </clipPath>
    <clipPath
       id="clipPath650">
      <rect
         x="0"
         y="0"
         width="2400"
         height="1600"
         id="rect648" />
    </clipPath>
    <clipPath
       id="clipPath654">
      <rect
         x="0"
         y="0"
         width="2400"
         height="1600"
         id="rect652" />
    </clipPath>
    <clipPath
       id="clipPath658">
      <rect
         x="0"
         y="0"
         width="2400"
         height="1600"
         id="rect656" />
    </clipPath>
    <clipPath
       id="clipPath662">
      <rect
         x="0"
         y="0"
         width="2400"
         height="1600"
         id="rect660" />
    </clipPath>
    <clipPath
       id="clipPath666">
      <rect
         x="0"
         y="0"
         width="2400"
         height="1600"
         id="rect664" />
    </clipPath>
    <clipPath
       id="clipPath670">
      <rect
         x="0"
         y="0"
         width="2400"
         height="1600"
         id="rect668" />
    </clipPath>
    <clipPath
       id="clipPath674">
      <rect
         x="0"
         y="0"
         width="2400"
         height="1600"
         id="rect672" />
    </clipPath>
    <clipPath
       id="clipPath678">
      <rect
         x="0"
         y="0"
         width="2400"
         height="1600"
         id="rect676" />
    </clipPath>
    <clipPath
       id="clipPath682">
      <rect
         x="0"
         y="0"
         width="2400"
         height="1600"
         id="rect680" />
    </clipPath>
    <clipPath
       id="clipPath686">
      <rect
         x="0"
         y="0"
         width="2400"
         height="1600"
         id="rect684" />
    </clipPath>
    <clipPath
       id="clipPath690">
      <rect
         x="0"
         y="0"
         width="2400"
         height="1600"
         id="rect688" />
    </clipPath>
    <clipPath
       id="clipPath694">
      <rect
         x="0"
         y="0"
         width="2400"
         height="1600"
         id="rect692" />
    </clipPath>
    <clipPath
       id="clipPath698">
      <rect
         x="0"
         y="0"
         width="2400"
         height="1600"
         id="rect696" />
    </clipPath>
    <clipPath
       id="clipPath702">
      <rect
         x="0"
         y="0"
         width="2400"
         height="1600"
         id="rect700" />
    </clipPath>
    <clipPath
       id="clipPath706">
      <rect
         x="0"
         y="0"
         width="2400"
         height="1600"
         id="rect704" />
    </clipPath>
    <clipPath
       id="clipPath710">
      <rect
         x="0"
         y="0"
         width="2400"
         height="1600"
         id="rect708" />
    </clipPath>
    <clipPath
       id="clipPath714">
      <rect
         x="0"
         y="0"
         width="2400"
         height="1600"
         id="rect712" />
    </clipPath>
    <clipPath
       id="clipPath718">
      <rect
         x="0"
         y="0"
         width="2400"
         height="1600"
         id="rect716" />
    </clipPath>
  </defs>
  <defs
     id="defs12">
    <clipPath
       id="clip341">
      <rect
         x="480"
         y="0"
         width="1681"
         height="1600"
         id="rect9" />
    </clipPath>
  </defs>
  <defs
     id="defs17">
    <clipPath
       id="clip342">
      <rect
         x="1428"
         y="749"
         width="937"
         height="719"
         id="rect14" />
    </clipPath>
  </defs>
  <defs
     id="defs24">
    <clipPath
       id="clip343">
      <rect
         x="207"
         y="47"
         width="1749"
         height="1373"
         id="rect21" />
    </clipPath>
  </defs>
  <polyline
     clip-path="url(#clip340-5)"
     style="fill:none;stroke:#000000;stroke-width:4;stroke-linecap:round;stroke-linejoin:round;stroke-opacity:1"
     points="2027.01,908.372 2352.76,908.372 2352.76,597.332 2027.01,597.332 2027.01,908.372 "
     id="polyline242"
     transform="matrix(2.6333476,0,0,3.3819516,-4696.7284,-1767.8899)" />
  <polyline
     clip-path="url(#clip340-5)"
     style="fill:none;stroke:#e31a1c;stroke-width:12;stroke-linecap:round;stroke-linejoin:round;stroke-opacity:1"
     points="2050.85,649.172 2193.88,649.172 "
     id="polyline244"
     transform="matrix(2.1692977,0,0,3.3769023,-3733.7657,-1764.0885)" />
  <path
     clip-path="url(#clip340-5)"
     d="m 2242.78,646.853 q 0,3.42 -1.73,6.722 -1.71,3.303 -4.4,5.341 -2.7,2.014 -5.44,2.014 -1.64,0 -2.74,-0.89 -1.07,-0.914 -1.66,-2.202 -0.45,1.593 -1.41,5.411 -0.96,3.818 -0.96,4.192 0,0.211 0.05,0.305 0.05,0.094 0.26,0.211 0.21,0.14 0.72,0.187 0.52,0.07 1.39,0.07 0.44,0 0.61,0 0.18,0.024 0.35,0.141 0.18,0.117 0.18,0.375 0,0.96 -0.86,0.96 -0.78,0 -2.37,-0.07 -1.59,-0.071 -2.39,-0.071 -0.68,0 -2.03,0.071 -1.36,0.07 -2,0.07 -0.63,0 -0.63,-0.562 0,-0.328 0.1,-0.539 0.07,-0.187 0.25,-0.281 0.19,-0.07 0.35,-0.094 0.14,0 0.43,0 1.07,0 1.54,-0.187 0.47,-0.164 0.63,-0.515 0.19,-0.328 0.4,-1.265 l 5.39,-21.361 q 0.33,-1.429 0.33,-2.436 0,-1.265 -0.4,-1.734 -0.4,-0.468 -1.1,-0.468 -1.22,0 -2.02,1.452 -0.79,1.452 -1.47,4.263 -0.21,0.773 -0.35,0.937 -0.12,0.164 -0.47,0.164 -0.59,-0.024 -0.59,-0.492 0,-0.117 0.19,-0.867 0.19,-0.773 0.54,-1.897 0.37,-1.148 0.77,-1.874 0.24,-0.492 0.45,-0.819 0.21,-0.328 0.63,-0.844 0.44,-0.515 1.08,-0.796 0.63,-0.281 1.4,-0.281 1.5,0 2.74,0.89 1.24,0.89 1.57,2.694 1.34,-1.57 2.98,-2.577 1.64,-1.007 3.3,-1.007 2.76,0 4.57,2.155 1.82,2.131 1.82,5.504 m -3.46,-2.108 q 0,-2.131 -0.82,-3.303 -0.8,-1.194 -2.25,-1.194 -1.8,0 -3.89,1.827 -2.06,1.733 -2.48,3.349 l -2.37,9.393 -0.14,0.773 q 0,0.14 0.07,0.562 0.1,0.398 0.35,1.054 0.28,0.656 0.66,1.241 0.4,0.562 1.1,0.984 0.73,0.422 1.62,0.422 1.42,0 2.97,-1.265 1.57,-1.265 2.74,-3.654 0.73,-1.546 1.57,-4.872 0.87,-3.349 0.87,-5.317 z"
     fill="#000000"
     fill-rule="evenodd"
     fill-opacity="1"
     id="path246"
     transform="matrix(3.3769023,0,0,3.3769023,-6411.1359,-1764.0885)" />
  <path
     clip-path="url(#clip340-5)"
     d="m 2254.92,653.107 q 0.04,-0.586 0.96,-0.586 h 29.39 q 1.38,0 1.41,0.539 0,0.586 -1.32,0.562 h -29.16 q -1.28,0.024 -1.28,-0.515 m 0,-9.369 q 0,-0.586 1,-0.562 h 29.3 q 1.43,0 1.46,0.562 0,0.539 -1.22,0.539 h -29.58 q -0.96,0 -0.96,-0.539 z"
     fill="#000000"
     fill-rule="evenodd"
     fill-opacity="1"
     id="path248"
     transform="matrix(3.3769023,0,0,3.3769023,-6411.1359,-1764.0885)" />
  <path
     clip-path="url(#clip340-5)"
     d="m 2305.17,645.05 q 0,-7.051 1.78,-10.892 2.48,-5.715 8.34,-5.715 1.24,0 2.53,0.351 1.31,0.328 2.95,1.617 1.66,1.288 2.67,3.396 1.92,4.075 1.92,11.243 0,7.003 -1.78,10.821 -2.6,5.574 -8.34,5.574 -2.16,0 -4.36,-1.101 -2.18,-1.1 -3.56,-3.747 -2.15,-3.959 -2.15,-11.547 m 3.98,-0.586 q 0,7.238 0.51,10.118 0.59,3.116 2.18,4.474 1.62,1.335 3.4,1.335 1.92,0 3.51,-1.429 1.62,-1.452 2.11,-4.567 0.54,-3.068 0.52,-9.931 0,-6.675 -0.47,-9.346 -0.64,-3.115 -2.32,-4.356 -1.66,-1.265 -3.35,-1.265 -0.63,0 -1.31,0.187 -0.66,0.188 -1.62,0.727 -0.96,0.538 -1.71,1.873 -0.72,1.335 -1.08,3.35 -0.37,2.6 -0.37,8.83 z"
     fill="#000000"
     fill-rule="evenodd"
     fill-opacity="1"
     id="path250"
     transform="matrix(3.3769023,0,0,3.3769023,-6411.1359,-1764.0885)" />
  <polyline
     clip-path="url(#clip340-5)"
     style="fill:none;stroke:#377db8;stroke-width:12;stroke-linecap:round;stroke-linejoin:round;stroke-opacity:1"
     points="2050.85,701.012 2193.88,701.012 "
     id="polyline252"
     transform="matrix(2.1692977,0,0,3.3769023,-3733.7657,-1764.0885)" />
  <path
     clip-path="url(#clip340-5)"
     d="m 2242.78,698.693 q 0,3.42 -1.73,6.722 -1.71,3.303 -4.4,5.341 -2.7,2.014 -5.44,2.014 -1.64,0 -2.74,-0.89 -1.07,-0.914 -1.66,-2.202 -0.45,1.593 -1.41,5.411 -0.96,3.818 -0.96,4.192 0,0.211 0.05,0.305 0.05,0.094 0.26,0.211 0.21,0.14 0.72,0.187 0.52,0.07 1.39,0.07 0.44,0 0.61,0 0.18,0.024 0.35,0.141 0.18,0.117 0.18,0.375 0,0.96 -0.86,0.96 -0.78,0 -2.37,-0.07 -1.59,-0.071 -2.39,-0.071 -0.68,0 -2.03,0.071 -1.36,0.07 -2,0.07 -0.63,0 -0.63,-0.562 0,-0.328 0.1,-0.539 0.07,-0.187 0.25,-0.281 0.19,-0.07 0.35,-0.094 0.14,0 0.43,0 1.07,0 1.54,-0.187 0.47,-0.164 0.63,-0.515 0.19,-0.328 0.4,-1.265 l 5.39,-21.361 q 0.33,-1.429 0.33,-2.436 0,-1.265 -0.4,-1.734 -0.4,-0.468 -1.1,-0.468 -1.22,0 -2.02,1.452 -0.79,1.452 -1.47,4.263 -0.21,0.773 -0.35,0.937 -0.12,0.164 -0.47,0.164 -0.59,-0.024 -0.59,-0.492 0,-0.117 0.19,-0.867 0.19,-0.773 0.54,-1.897 0.37,-1.148 0.77,-1.874 0.24,-0.492 0.45,-0.819 0.21,-0.328 0.63,-0.844 0.44,-0.515 1.08,-0.796 0.63,-0.281 1.4,-0.281 1.5,0 2.74,0.89 1.24,0.89 1.57,2.694 1.34,-1.57 2.98,-2.577 1.64,-1.007 3.3,-1.007 2.76,0 4.57,2.155 1.82,2.131 1.82,5.504 m -3.46,-2.108 q 0,-2.131 -0.82,-3.303 -0.8,-1.194 -2.25,-1.194 -1.8,0 -3.89,1.827 -2.06,1.733 -2.48,3.349 l -2.37,9.393 -0.14,0.773 q 0,0.14 0.07,0.562 0.1,0.398 0.35,1.054 0.28,0.656 0.66,1.241 0.4,0.562 1.1,0.984 0.73,0.422 1.62,0.422 1.42,0 2.97,-1.265 1.57,-1.265 2.74,-3.654 0.73,-1.546 1.57,-4.872 0.87,-3.349 0.87,-5.317 z"
     fill="#000000"
     fill-rule="evenodd"
     fill-opacity="1"
     id="path254"
     transform="matrix(3.3769023,0,0,3.3769023,-6411.1359,-1764.0885)" />
  <path
     clip-path="url(#clip340-5)"
     d="m 2254.92,704.947 q 0.04,-0.586 0.96,-0.586 h 29.39 q 1.38,0 1.41,0.539 0,0.586 -1.32,0.562 h -29.16 q -1.28,0.024 -1.28,-0.515 m 0,-9.369 q 0,-0.586 1,-0.562 h 29.3 q 1.43,0 1.46,0.562 0,0.539 -1.22,0.539 h -29.58 q -0.96,0 -0.96,-0.539 z"
     fill="#000000"
     fill-rule="evenodd"
     fill-opacity="1"
     id="path256"
     transform="matrix(3.3769023,0,0,3.3769023,-6411.1359,-1764.0885)" />
  <path
     clip-path="url(#clip340-5)"
     d="m 2305.17,684.85 v -1.499 q 5.76,0 8.73,-3.068 0.82,0 0.96,0.187 0.14,0.188 0.14,1.054 v 26.913 q 0,1.429 0.71,1.874 0.7,0.445 3.77,0.445 h 1.52 v 1.475 q -1.69,-0.14 -7.78,-0.14 -6.09,0 -7.75,0.14 v -1.475 h 1.52 q 3.03,0 3.75,-0.422 0.73,-0.445 0.73,-1.897 v -24.851 q -2.51,1.264 -6.3,1.264 z"
     fill="#000000"
     fill-rule="evenodd"
     fill-opacity="1"
     id="path258"
     transform="matrix(3.3769023,0,0,3.3769023,-6411.1359,-1764.0885)" />
  <polyline
     clip-path="url(#clip340-5)"
     style="fill:none;stroke:#4dae49;stroke-width:12;stroke-linecap:round;stroke-linejoin:round;stroke-opacity:1"
     points="2050.85,752.852 2193.88,752.852 "
     id="polyline260"
     transform="matrix(2.1692977,0,0,3.3769023,-3733.7657,-1764.0885)" />
  <path
     clip-path="url(#clip340-5)"
     d="m 2242.78,750.533 q 0,3.42 -1.73,6.722 -1.71,3.303 -4.4,5.341 -2.7,2.014 -5.44,2.014 -1.64,0 -2.74,-0.89 -1.07,-0.914 -1.66,-2.202 -0.45,1.593 -1.41,5.411 -0.96,3.818 -0.96,4.192 0,0.211 0.05,0.305 0.05,0.094 0.26,0.211 0.21,0.14 0.72,0.187 0.52,0.07 1.39,0.07 0.44,0 0.61,0 0.18,0.024 0.35,0.141 0.18,0.117 0.18,0.375 0,0.96 -0.86,0.96 -0.78,0 -2.37,-0.07 -1.59,-0.071 -2.39,-0.071 -0.68,0 -2.03,0.071 -1.36,0.07 -2,0.07 -0.63,0 -0.63,-0.562 0,-0.328 0.1,-0.539 0.07,-0.187 0.25,-0.281 0.19,-0.07 0.35,-0.094 0.14,0 0.43,0 1.07,0 1.54,-0.187 0.47,-0.164 0.63,-0.515 0.19,-0.328 0.4,-1.265 l 5.39,-21.361 q 0.33,-1.429 0.33,-2.436 0,-1.265 -0.4,-1.734 -0.4,-0.468 -1.1,-0.468 -1.22,0 -2.02,1.452 -0.79,1.452 -1.47,4.263 -0.21,0.773 -0.35,0.937 -0.12,0.164 -0.47,0.164 -0.59,-0.024 -0.59,-0.492 0,-0.117 0.19,-0.867 0.19,-0.773 0.54,-1.897 0.37,-1.148 0.77,-1.874 0.24,-0.492 0.45,-0.819 0.21,-0.328 0.63,-0.844 0.44,-0.515 1.08,-0.796 0.63,-0.281 1.4,-0.281 1.5,0 2.74,0.89 1.24,0.89 1.57,2.694 1.34,-1.57 2.98,-2.577 1.64,-1.007 3.3,-1.007 2.76,0 4.57,2.155 1.82,2.131 1.82,5.504 m -3.46,-2.108 q 0,-2.131 -0.82,-3.303 -0.8,-1.194 -2.25,-1.194 -1.8,0 -3.89,1.827 -2.06,1.733 -2.48,3.349 l -2.37,9.393 -0.14,0.773 q 0,0.14 0.07,0.562 0.1,0.398 0.35,1.054 0.28,0.656 0.66,1.241 0.4,0.562 1.1,0.984 0.73,0.422 1.62,0.422 1.42,0 2.97,-1.265 1.57,-1.265 2.74,-3.654 0.73,-1.546 1.57,-4.872 0.87,-3.349 0.87,-5.317 z"
     fill="#000000"
     fill-rule="evenodd"
     fill-opacity="1"
     id="path262"
     transform="matrix(3.3769023,0,0,3.3769023,-6411.1359,-1764.0885)" />
  <path
     clip-path="url(#clip340-5)"
     d="m 2254.92,756.787 q 0.04,-0.586 0.96,-0.586 h 29.39 q 1.38,0 1.41,0.539 0,0.586 -1.32,0.562 h -29.16 q -1.28,0.024 -1.28,-0.515 m 0,-9.369 q 0,-0.586 1,-0.562 h 29.3 q 1.43,0 1.46,0.562 0,0.539 -1.22,0.539 h -29.58 q -0.96,0 -0.96,-0.539 z"
     fill="#000000"
     fill-rule="evenodd"
     fill-opacity="1"
     id="path264"
     transform="matrix(3.3769023,0,0,3.3769023,-6411.1359,-1764.0885)" />
  <path
     clip-path="url(#clip340-5)"
     d="m 2305.17,764.071 q 0,-0.866 0.07,-1.124 0.09,-0.258 0.47,-0.656 l 9.2,-10.259 q 5.04,-5.668 5.04,-10.61 0,-3.209 -1.69,-5.505 -1.66,-2.295 -4.73,-2.295 -2.11,0 -3.89,1.288 -1.78,1.289 -2.6,3.584 0.14,-0.047 0.63,-0.047 1.2,0 1.85,0.75 0.68,0.749 0.68,1.756 0,1.289 -0.84,1.921 -0.82,0.609 -1.64,0.609 -0.33,0 -0.77,-0.07 -0.42,-0.071 -1.1,-0.726 -0.68,-0.68 -0.68,-1.874 0,-3.35 2.53,-6.02 2.55,-2.67 6.44,-2.67 4.4,0 7.28,2.623 2.91,2.6 2.91,6.676 0,1.429 -0.45,2.74 -0.42,1.288 -1.01,2.296 -0.56,1.007 -2.1,2.623 -1.55,1.616 -2.79,2.764 -1.24,1.147 -4.03,3.583 l -5.08,4.942 h 8.64 q 4.22,0 4.54,-0.374 0.47,-0.68 1.06,-4.263 h 1.22 l -1.36,8.338 z"
     fill="#000000"
     fill-rule="evenodd"
     fill-opacity="1"
     id="path266"
     transform="matrix(3.3769023,0,0,3.3769023,-6411.1359,-1764.0885)" />
  <polyline
     clip-path="url(#clip340-5)"
     style="fill:none;stroke:#974ea2;stroke-width:12;stroke-linecap:round;stroke-linejoin:round;stroke-opacity:1"
     points="2050.85,804.692 2193.88,804.692 "
     id="polyline268"
     transform="matrix(2.1606099,0,0,3.3769023,-3716.0004,-1764.0885)" />
  <path
     clip-path="url(#clip340-5)"
     d="m 2242.78,802.373 q 0,3.42 -1.73,6.722 -1.71,3.303 -4.4,5.341 -2.7,2.014 -5.44,2.014 -1.64,0 -2.74,-0.89 -1.07,-0.914 -1.66,-2.202 -0.45,1.593 -1.41,5.411 -0.96,3.818 -0.96,4.192 0,0.211 0.05,0.305 0.05,0.094 0.26,0.211 0.21,0.14 0.72,0.187 0.52,0.07 1.39,0.07 0.44,0 0.61,0 0.18,0.024 0.35,0.141 0.18,0.117 0.18,0.375 0,0.96 -0.86,0.96 -0.78,0 -2.37,-0.07 -1.59,-0.071 -2.39,-0.071 -0.68,0 -2.03,0.071 -1.36,0.07 -2,0.07 -0.63,0 -0.63,-0.562 0,-0.328 0.1,-0.539 0.07,-0.187 0.25,-0.281 0.19,-0.07 0.35,-0.094 0.14,0 0.43,0 1.07,0 1.54,-0.187 0.47,-0.164 0.63,-0.515 0.19,-0.328 0.4,-1.265 l 5.39,-21.361 q 0.33,-1.429 0.33,-2.436 0,-1.265 -0.4,-1.734 -0.4,-0.468 -1.1,-0.468 -1.22,0 -2.02,1.452 -0.79,1.452 -1.47,4.263 -0.21,0.773 -0.35,0.937 -0.12,0.164 -0.47,0.164 -0.59,-0.024 -0.59,-0.492 0,-0.117 0.19,-0.867 0.19,-0.773 0.54,-1.897 0.37,-1.148 0.77,-1.874 0.24,-0.492 0.45,-0.819 0.21,-0.328 0.63,-0.844 0.44,-0.515 1.08,-0.796 0.63,-0.281 1.4,-0.281 1.5,0 2.74,0.89 1.24,0.89 1.57,2.694 1.34,-1.57 2.98,-2.577 1.64,-1.007 3.3,-1.007 2.76,0 4.57,2.155 1.82,2.131 1.82,5.504 m -3.46,-2.108 q 0,-2.131 -0.82,-3.303 -0.8,-1.194 -2.25,-1.194 -1.8,0 -3.89,1.827 -2.06,1.733 -2.48,3.349 l -2.37,9.393 -0.14,0.773 q 0,0.14 0.07,0.562 0.1,0.398 0.35,1.054 0.28,0.656 0.66,1.241 0.4,0.562 1.1,0.984 0.73,0.422 1.62,0.422 1.42,0 2.97,-1.265 1.57,-1.265 2.74,-3.654 0.73,-1.546 1.57,-4.872 0.87,-3.349 0.87,-5.317 z"
     fill="#000000"
     fill-rule="evenodd"
     fill-opacity="1"
     id="path270"
     transform="matrix(3.3769023,0,0,3.3769023,-6411.1359,-1764.0885)" />
  <path
     clip-path="url(#clip340-5)"
     d="m 2254.92,808.627 q 0.04,-0.586 0.96,-0.586 h 29.39 q 1.38,0 1.41,0.539 0,0.586 -1.32,0.562 h -29.16 q -1.28,0.024 -1.28,-0.515 m 0,-9.369 q 0,-0.586 1,-0.562 h 29.3 q 1.43,0 1.46,0.562 0,0.539 -1.22,0.539 h -29.58 q -0.96,0 -0.96,-0.539 z"
     fill="#000000"
     fill-rule="evenodd"
     fill-opacity="1"
     id="path272"
     transform="matrix(3.3769023,0,0,3.3769023,-6411.1359,-1764.0885)" />
  <path
     clip-path="url(#clip340-5)"
     d="m 2305.17,809.447 q 0,-1.429 0.82,-2.108 0.82,-0.68 1.87,-0.68 1.1,0 1.87,0.726 0.8,0.703 0.8,1.945 0,1.335 -0.94,2.084 -0.91,0.75 -2.22,0.562 1.15,1.921 3.25,2.788 2.14,0.866 4.1,0.866 2.06,0 3.73,-1.78 1.68,-1.78 1.68,-6.137 0,-3.7 -1.45,-5.832 -1.43,-2.131 -4.26,-2.131 h -2.11 q -0.72,0 -0.94,-0.071 -0.21,-0.07 -0.21,-0.468 0,-0.468 0.73,-0.562 0.73,0 1.87,-0.141 2.79,-0.093 4.27,-2.506 1.33,-2.248 1.33,-5.457 0,-2.928 -1.4,-4.146 -1.39,-1.241 -3.19,-1.241 -1.69,0 -3.54,0.702 -1.85,0.703 -2.85,2.272 2.97,0 2.97,2.413 0,1.054 -0.68,1.756 -0.65,0.68 -1.76,0.68 -1.05,0 -1.75,-0.656 -0.7,-0.679 -0.7,-1.827 0,-2.741 2.43,-4.638 2.46,-1.897 6.07,-1.897 3.56,0 6.18,1.874 2.65,1.874 2.65,4.755 0,2.834 -1.88,5.153 -1.87,2.318 -4.84,3.279 3.65,0.726 5.83,3.209 2.18,2.459 2.18,5.48 0,3.748 -2.95,6.512 -2.96,2.74 -7.27,2.74 -3.98,0 -6.84,-2.155 -2.85,-2.154 -2.85,-5.363 z"
     fill="#000000"
     fill-rule="evenodd"
     fill-opacity="1"
     id="path274"
     transform="matrix(3.3769023,0,0,3.3769023,-6411.1359,-1764.0885)" />
  <polyline
     clip-path="url(#clip340-5)"
     style="fill:none;stroke:#ff7e00;stroke-width:12;stroke-linecap:round;stroke-linejoin:round;stroke-opacity:1"
     points="2050.85,856.532 2193.88,856.532 "
     id="polyline276"
     transform="matrix(2.1692977,0,0,3.3769023,-3733.7657,-1764.0885)" />
  <path
     clip-path="url(#clip340-5)"
     d="m 2242.78,854.479 q 0,3.419 -1.73,6.722 -1.71,3.303 -4.4,5.34 -2.7,2.015 -5.44,2.015 -1.64,0 -2.74,-0.89 -1.07,-0.914 -1.66,-2.202 -0.45,1.593 -1.41,5.41 -0.96,3.818 -0.96,4.193 0,0.211 0.05,0.305 0.05,0.093 0.26,0.21 0.21,0.141 0.72,0.188 0.52,0.07 1.39,0.07 0.44,0 0.61,0 0.18,0.023 0.35,0.14 0.18,0.118 0.18,0.375 0,0.961 -0.86,0.961 -0.78,0 -2.37,-0.071 -1.59,-0.07 -2.39,-0.07 -0.68,0 -2.03,0.07 -1.36,0.071 -2,0.071 -0.63,0 -0.63,-0.563 0,-0.327 0.1,-0.538 0.07,-0.188 0.25,-0.281 0.19,-0.071 0.35,-0.094 0.14,0 0.43,0 1.07,0 1.54,-0.187 0.47,-0.164 0.63,-0.516 0.19,-0.328 0.4,-1.265 l 5.39,-21.361 q 0.33,-1.429 0.33,-2.436 0,-1.265 -0.4,-1.733 -0.4,-0.468 -1.1,-0.468 -1.22,0 -2.02,1.452 -0.79,1.452 -1.47,4.263 -0.21,0.773 -0.35,0.937 -0.12,0.163 -0.47,0.163 -0.59,-0.023 -0.59,-0.491 0,-0.117 0.19,-0.867 0.19,-0.773 0.54,-1.897 0.37,-1.148 0.77,-1.874 0.24,-0.492 0.45,-0.82 0.21,-0.328 0.63,-0.843 0.44,-0.515 1.08,-0.796 0.63,-0.281 1.4,-0.281 1.5,0 2.74,0.89 1.24,0.89 1.57,2.693 1.34,-1.569 2.98,-2.576 1.64,-1.007 3.3,-1.007 2.76,0 4.57,2.154 1.82,2.132 1.82,5.505 m -3.46,-2.108 q 0,-2.132 -0.82,-3.303 -0.8,-1.194 -2.25,-1.194 -1.8,0 -3.89,1.827 -2.06,1.733 -2.48,3.349 l -2.37,9.392 -0.14,0.773 q 0,0.141 0.07,0.562 0.1,0.399 0.35,1.054 0.28,0.656 0.66,1.242 0.4,0.562 1.1,0.984 0.73,0.421 1.62,0.421 1.42,0 2.97,-1.265 1.57,-1.264 2.74,-3.654 0.73,-1.545 1.57,-4.871 0.87,-3.35 0.87,-5.317 z"
     fill="#000000"
     fill-rule="evenodd"
     fill-opacity="1"
     id="path278"
     transform="matrix(3.3769023,0,0,3.3769023,-6411.1359,-1764.0885)" />
  <path
     clip-path="url(#clip340-5)"
     d="m 2254.92,860.732 q 0.04,-0.585 0.96,-0.585 h 29.39 q 1.38,0 1.41,0.539 0,0.585 -1.32,0.562 h -29.16 q -1.28,0.023 -1.28,-0.516 m 0,-9.368 q 0,-0.586 1,-0.563 h 29.3 q 1.43,0 1.46,0.563 0,0.538 -1.22,0.538 h -29.58 q -0.96,0 -0.96,-0.538 z"
     fill="#000000"
     fill-rule="evenodd"
     fill-opacity="1"
     id="path280"
     transform="matrix(3.3769023,0,0,3.3769023,-6411.1359,-1764.0885)" />
  <path
     clip-path="url(#clip340-5)"
     d="m 2305.17,860.1 v -1.476 l 14.73,-22.509 q 0.37,-0.585 0.96,-0.562 0.54,0 0.66,0.211 0.11,0.211 0.11,1.031 v 21.829 h 4.8 v 1.476 h -4.8 v 4.169 q 0,1.382 0.57,1.827 0.58,0.445 3.06,0.445 h 1.01 v 1.476 q -1.97,-0.141 -6.51,-0.141 -4.52,0 -6.49,0.141 v -1.476 h 1.01 q 2.48,0 3.07,-0.421 0.58,-0.445 0.58,-1.851 V 860.1 h -12.76 m 1.36,-1.476 h 11.68 V 840.73 Z"
     fill="#000000"
     fill-rule="evenodd"
     fill-opacity="1"
     id="path282"
     transform="matrix(3.3769023,0,0,3.3769023,-6411.1359,-1764.0885)" />
</svg>
