<svg xmlns="http://www.w3.org/2000/svg" xmlns:xlink="http://www.w3.org/1999/xlink" width="700" height="400" viewBox="0 0 2800 1600">
<defs>
  <clipPath id="clip090">
    <rect x="0" y="0" width="2800" height="1600"></rect>
  </clipPath>
</defs>
<path clip-path="url(#clip090)" d="M0 1600 L2800 1600 L2800 0 L0 0  Z" fill="#ffffff" fill-rule="evenodd" fill-opacity="1"></path>
<defs>
  <clipPath id="clip091">
    <rect x="560" y="0" width="1961" height="1600"></rect>
  </clipPath>
</defs>
<defs>
  <clipPath id="clip092">
    <rect x="364" y="47" width="1904" height="1282"></rect>
  </clipPath>
</defs>
<path clip-path="url(#clip090)" d="M364.015 1328.42 L2267.45 1328.42 L2267.45 47.2441 L364.015 47.2441  Z" fill="#ffffff" fill-rule="evenodd" fill-opacity="1"></path>
<polyline clip-path="url(#clip090)" style="stroke:#000000; stroke-linecap:round; stroke-linejoin:round; stroke-width:4; stroke-opacity:1; fill:none" points="364.015,1328.42 2267.45,1328.42 "></polyline>
<polyline clip-path="url(#clip090)" style="stroke:#000000; stroke-linecap:round; stroke-linejoin:round; stroke-width:4; stroke-opacity:1; fill:none" points="364.015,47.2441 2267.45,47.2441 "></polyline>
<polyline clip-path="url(#clip090)" style="stroke:#000000; stroke-linecap:round; stroke-linejoin:round; stroke-width:4; stroke-opacity:1; fill:none" points="417.885,1328.42 417.885,1309.52 "></polyline>
<polyline clip-path="url(#clip090)" style="stroke:#000000; stroke-linecap:round; stroke-linejoin:round; stroke-width:4; stroke-opacity:1; fill:none" points="777.023,1328.42 777.023,1309.52 "></polyline>
<polyline clip-path="url(#clip090)" style="stroke:#000000; stroke-linecap:round; stroke-linejoin:round; stroke-width:4; stroke-opacity:1; fill:none" points="1136.16,1328.42 1136.16,1309.52 "></polyline>
<polyline clip-path="url(#clip090)" style="stroke:#000000; stroke-linecap:round; stroke-linejoin:round; stroke-width:4; stroke-opacity:1; fill:none" points="1495.3,1328.42 1495.3,1309.52 "></polyline>
<polyline clip-path="url(#clip090)" style="stroke:#000000; stroke-linecap:round; stroke-linejoin:round; stroke-width:4; stroke-opacity:1; fill:none" points="1854.44,1328.42 1854.44,1309.52 "></polyline>
<polyline clip-path="url(#clip090)" style="stroke:#000000; stroke-linecap:round; stroke-linejoin:round; stroke-width:4; stroke-opacity:1; fill:none" points="2213.57,1328.42 2213.57,1309.52 "></polyline>
<path clip-path="url(#clip090)" d="M397.922 1401.48 Q397.922 1387.53 401.442 1379.94 Q406.352 1368.64 417.932 1368.64 Q420.387 1368.64 422.934 1369.33 Q425.528 1369.98 428.77 1372.53 Q432.059 1375.08 434.051 1379.24 Q437.849 1387.3 437.849 1401.48 Q437.849 1415.33 434.328 1422.88 Q429.187 1433.9 417.839 1433.9 Q413.578 1433.9 409.224 1431.72 Q404.916 1429.55 402.183 1424.31 Q397.922 1416.48 397.922 1401.48 M405.796 1400.32 Q405.796 1414.63 406.815 1420.33 Q407.973 1426.49 411.123 1429.18 Q414.319 1431.82 417.839 1431.82 Q421.637 1431.82 424.787 1428.99 Q427.983 1426.12 428.955 1419.96 Q430.021 1413.89 429.974 1400.32 Q429.974 1387.12 429.048 1381.84 Q427.798 1375.68 424.463 1373.22 Q421.174 1370.72 417.839 1370.72 Q416.588 1370.72 415.245 1371.09 Q413.948 1371.46 412.049 1372.53 Q410.15 1373.59 408.668 1376.23 Q407.232 1378.87 406.537 1382.86 Q405.796 1388 405.796 1400.32 Z" fill="#000000" fill-rule="nonzero" fill-opacity="1"></path><path clip-path="url(#clip090)" d="M761.367 1377.67 L761.367 1374.7 Q772.762 1374.7 778.644 1368.64 Q780.265 1368.64 780.543 1369.01 Q780.821 1369.38 780.821 1371.09 L780.821 1424.31 Q780.821 1427.14 782.211 1428.02 Q783.6 1428.9 789.668 1428.9 L792.679 1428.9 L792.679 1431.82 Q789.344 1431.54 777.301 1431.54 Q765.258 1431.54 761.97 1431.82 L761.97 1428.9 L764.98 1428.9 Q770.955 1428.9 772.391 1428.06 Q773.827 1427.18 773.827 1424.31 L773.827 1375.17 Q768.871 1377.67 761.367 1377.67 Z" fill="#000000" fill-rule="nonzero" fill-opacity="1"></path><path clip-path="url(#clip090)" d="M1117.22 1431.82 Q1117.22 1430.1 1117.36 1429.59 Q1117.54 1429.08 1118.28 1428.3 L1136.49 1408.01 Q1146.44 1396.8 1146.44 1387.03 Q1146.44 1380.68 1143.11 1376.14 Q1139.82 1371.6 1133.75 1371.6 Q1129.58 1371.6 1126.06 1374.15 Q1122.54 1376.7 1120.92 1381.24 Q1121.2 1381.14 1122.17 1381.14 Q1124.53 1381.14 1125.83 1382.63 Q1127.18 1384.11 1127.18 1386.1 Q1127.18 1388.65 1125.51 1389.9 Q1123.89 1391.1 1122.27 1391.1 Q1121.62 1391.1 1120.74 1390.96 Q1119.9 1390.82 1118.56 1389.53 Q1117.22 1388.18 1117.22 1385.82 Q1117.22 1379.2 1122.22 1373.92 Q1127.27 1368.64 1134.96 1368.64 Q1143.66 1368.64 1149.36 1373.82 Q1155.11 1378.97 1155.11 1387.03 Q1155.11 1389.85 1154.23 1392.44 Q1153.39 1394.99 1152.23 1396.98 Q1151.12 1398.98 1148.06 1402.17 Q1145.01 1405.37 1142.55 1407.64 Q1140.1 1409.91 1134.59 1414.72 L1124.53 1424.5 L1141.63 1424.5 Q1149.96 1424.5 1150.61 1423.76 Q1151.54 1422.41 1152.7 1415.33 L1155.11 1415.33 L1152.42 1431.82 L1117.22 1431.82 Z" fill="#000000" fill-rule="nonzero" fill-opacity="1"></path><path clip-path="url(#clip090)" d="M1475.61 1419.03 Q1475.61 1416.21 1477.23 1414.86 Q1478.86 1413.52 1480.94 1413.52 Q1483.12 1413.52 1484.65 1414.96 Q1486.22 1416.35 1486.22 1418.8 Q1486.22 1421.44 1484.37 1422.92 Q1482.56 1424.4 1479.97 1424.03 Q1482.24 1427.83 1486.41 1429.55 Q1490.62 1431.26 1494.51 1431.26 Q1498.59 1431.26 1501.88 1427.74 Q1505.21 1424.22 1505.21 1415.6 Q1505.21 1408.29 1502.34 1404.07 Q1499.51 1399.86 1493.91 1399.86 L1489.74 1399.86 Q1488.3 1399.86 1487.89 1399.72 Q1487.47 1399.58 1487.47 1398.79 Q1487.47 1397.86 1488.91 1397.68 Q1490.34 1397.68 1492.61 1397.4 Q1498.12 1397.22 1501.04 1392.44 Q1503.68 1388 1503.68 1381.65 Q1503.68 1375.86 1500.9 1373.45 Q1498.17 1371 1494.6 1371 Q1491.27 1371 1487.61 1372.39 Q1483.95 1373.78 1481.96 1376.88 Q1487.84 1376.88 1487.84 1381.65 Q1487.84 1383.74 1486.5 1385.13 Q1485.2 1386.47 1483.02 1386.47 Q1480.94 1386.47 1479.55 1385.17 Q1478.16 1383.83 1478.16 1381.56 Q1478.16 1376.14 1482.98 1372.39 Q1487.84 1368.64 1494.97 1368.64 Q1502.02 1368.64 1507.2 1372.34 Q1512.44 1376.05 1512.44 1381.75 Q1512.44 1387.35 1508.73 1391.94 Q1505.03 1396.52 1499.14 1398.42 Q1506.37 1399.86 1510.68 1404.77 Q1514.98 1409.63 1514.98 1415.6 Q1514.98 1423.02 1509.15 1428.48 Q1503.31 1433.9 1494.79 1433.9 Q1486.92 1433.9 1481.26 1429.64 Q1475.61 1425.38 1475.61 1419.03 Z" fill="#000000" fill-rule="nonzero" fill-opacity="1"></path><path clip-path="url(#clip090)" d="M1833.41 1416.16 L1833.41 1413.24 L1862.54 1368.73 Q1863.28 1367.57 1864.44 1367.62 Q1865.51 1367.62 1865.74 1368.03 Q1865.97 1368.45 1865.97 1370.07 L1865.97 1413.24 L1875.47 1413.24 L1875.47 1416.16 L1865.97 1416.16 L1865.97 1424.4 Q1865.97 1427.14 1867.08 1428.02 Q1868.24 1428.9 1873.15 1428.9 L1875.14 1428.9 L1875.14 1431.82 Q1871.25 1431.54 1862.26 1431.54 Q1853.33 1431.54 1849.43 1431.82 L1849.43 1428.9 L1851.43 1428.9 Q1856.34 1428.9 1857.49 1428.06 Q1858.65 1427.18 1858.65 1424.4 L1858.65 1416.16 L1833.41 1416.16 M1836.09 1413.24 L1859.21 1413.24 L1859.21 1377.85 L1836.09 1413.24 Z" fill="#000000" fill-rule="nonzero" fill-opacity="1"></path><path clip-path="url(#clip090)" d="M2194.63 1416.53 Q2194.63 1413.71 2196.16 1412.64 Q2197.69 1411.53 2199.31 1411.53 Q2201.49 1411.53 2202.74 1412.92 Q2204.03 1414.26 2204.03 1416.16 Q2204.03 1418.06 2202.74 1419.45 Q2201.49 1420.79 2199.31 1420.79 Q2198.24 1420.79 2197.69 1420.61 Q2198.94 1424.96 2202.74 1428.11 Q2206.58 1431.26 2211.63 1431.26 Q2217.97 1431.26 2221.77 1425.1 Q2224.04 1421.12 2224.04 1412.08 Q2224.04 1404.12 2222.33 1400.13 Q2219.69 1394.07 2214.27 1394.07 Q2206.58 1394.07 2202.04 1400.69 Q2201.49 1401.52 2200.84 1401.57 Q2199.91 1401.57 2199.68 1401.06 Q2199.49 1400.5 2199.49 1399.07 L2199.49 1371 Q2199.49 1368.73 2200.42 1368.73 Q2200.79 1368.73 2201.58 1369.01 Q2207.55 1371.65 2214.18 1371.69 Q2220.99 1371.69 2227.1 1368.91 Q2227.56 1368.64 2227.84 1368.64 Q2228.77 1368.64 2228.81 1369.7 Q2228.81 1370.07 2228.03 1371.18 Q2227.28 1372.25 2225.66 1373.69 Q2224.04 1375.08 2221.96 1376.42 Q2219.87 1377.76 2216.82 1378.69 Q2213.81 1379.57 2210.47 1379.57 Q2206.49 1379.57 2202.41 1378.32 L2202.41 1396.8 Q2207.32 1391.98 2214.45 1391.98 Q2222.05 1391.98 2227.28 1398.1 Q2232.52 1404.21 2232.52 1412.73 Q2232.52 1421.67 2226.31 1427.79 Q2220.15 1433.9 2211.81 1433.9 Q2204.22 1433.9 2199.4 1428.48 Q2194.63 1423.06 2194.63 1416.53 Z" fill="#000000" fill-rule="nonzero" fill-opacity="1"></path><path clip-path="url(#clip090)" d="M1340.22 1478.6 Q1340.22 1478.68 1340.14 1478.77 Q1339.61 1483.11 1338.59 1485.53 Q1337.56 1487.91 1335.27 1489.01 Q1333.58 1489.83 1331.49 1489.83 Q1328.34 1489.83 1323.79 1487.74 Q1323.62 1487.66 1322.72 1487.25 Q1321.82 1486.84 1321.49 1486.72 Q1321.16 1486.6 1320.47 1486.35 Q1319.77 1486.06 1319.24 1485.98 Q1318.71 1485.9 1318.17 1485.9 Q1317.03 1485.9 1316.04 1486.39 Q1314.03 1487.37 1312.8 1488.85 Q1311.53 1490.28 1311.2 1492.87 Q1311.12 1493.19 1310.84 1493.44 Q1310.55 1493.69 1310.18 1493.69 Q1309.81 1493.69 1309.48 1493.4 Q1309.16 1493.11 1309.16 1492.7 Q1309.16 1492.62 1309.24 1492.54 Q1309.77 1488.19 1310.79 1485.82 Q1311.82 1483.4 1314.11 1482.29 Q1315.92 1481.43 1317.89 1481.43 Q1320.96 1481.43 1325.63 1483.56 Q1325.8 1483.64 1326.7 1484.05 Q1327.6 1484.46 1327.93 1484.59 Q1328.26 1484.71 1328.95 1485 Q1329.65 1485.24 1330.18 1485.32 Q1330.72 1485.41 1331.25 1485.41 Q1332.27 1485.41 1333.34 1484.87 Q1335.35 1483.89 1336.62 1482.46 Q1337.89 1481.02 1338.22 1478.44 Q1338.3 1478.11 1338.59 1477.86 Q1338.87 1477.58 1339.24 1477.58 Q1339.61 1477.58 1339.94 1477.91 Q1340.22 1478.19 1340.22 1478.6 Z" fill="#000000" fill-rule="nonzero" fill-opacity="1"></path><path clip-path="url(#clip090)" d="M1341.62 1507.59 Q1341.62 1508 1340.62 1509.76 Q1339.68 1511.46 1336.23 1515.73 Q1332.77 1520 1327.62 1524.98 Q1325.69 1526.91 1322.76 1529.61 Q1319.83 1532.3 1317.84 1534.06 L1315.85 1535.81 Q1308.24 1542.26 1301.56 1549.46 Q1302.03 1549.28 1302.85 1549.22 Q1303.67 1549.11 1304.26 1549.11 L1304.84 1549.11 Q1307.89 1549.11 1313.22 1551.16 Q1317.9 1552.68 1320.3 1552.68 Q1322.64 1552.68 1325.22 1551.86 Q1327.8 1551.04 1330.61 1548.64 Q1333.42 1546.24 1334.71 1542.61 Q1334.94 1542.02 1335.06 1541.85 Q1335.17 1541.61 1335.53 1541.38 Q1335.88 1541.08 1336.34 1541.08 Q1336.99 1541.08 1337.4 1541.44 Q1337.81 1541.79 1337.81 1542.26 Q1337.81 1543.31 1336.99 1545.42 Q1336.23 1547.53 1334.53 1550.16 Q1332.89 1552.8 1330.72 1555.2 Q1328.62 1557.54 1325.45 1559.18 Q1322.29 1560.76 1318.95 1560.76 Q1316.55 1560.76 1314.8 1559.59 Q1313.04 1558.48 1311.28 1556.31 Q1308.88 1553.56 1307.59 1552.68 Q1306.31 1551.74 1304.31 1551.74 Q1298.99 1551.74 1294.13 1559.18 Q1293.6 1560.23 1293.25 1560.47 Q1292.95 1560.76 1292.25 1560.76 Q1290.79 1560.7 1290.79 1559.53 Q1290.79 1559.06 1292.08 1557.01 Q1293.42 1554.9 1296.41 1551.22 Q1299.45 1547.53 1303.14 1543.84 L1313.92 1533.77 Q1325.86 1523.69 1330.61 1518.01 Q1328.62 1518.01 1327.74 1517.96 Q1326.92 1517.9 1325.28 1517.55 Q1323.64 1517.14 1321.35 1516.26 Q1316.03 1514.44 1313.8 1514.44 Q1313.22 1514.44 1312.57 1514.5 Q1311.93 1514.56 1310.46 1514.85 Q1309.06 1515.14 1307.89 1515.73 Q1306.72 1516.26 1305.49 1517.43 Q1304.26 1518.54 1303.61 1520.06 Q1303.44 1520.53 1303.32 1520.77 Q1303.2 1521 1302.85 1521.23 Q1302.56 1521.41 1302.09 1521.41 Q1301.39 1521.41 1300.98 1521 Q1300.63 1520.59 1300.63 1520.06 Q1300.63 1519.01 1301.68 1516.84 Q1302.73 1514.68 1304.49 1512.33 Q1306.25 1509.93 1309.12 1508.18 Q1311.99 1506.42 1315.15 1506.42 Q1317.02 1506.42 1318.6 1507.24 Q1320.24 1508.06 1321.06 1508.94 Q1321.94 1509.76 1323.4 1511.57 Q1324.63 1512.98 1325.22 1513.56 Q1325.8 1514.15 1326.98 1514.79 Q1328.21 1515.38 1329.55 1515.38 Q1331.78 1515.38 1333.83 1513.68 Q1335.88 1511.92 1338.51 1507.71 Q1339.21 1506.42 1340.33 1506.42 Q1341.62 1506.42 1341.62 1507.59 Z" fill="#000000" fill-rule="nonzero" fill-opacity="1"></path><polyline clip-path="url(#clip090)" style="stroke:#000000; stroke-linecap:round; stroke-linejoin:round; stroke-width:4; stroke-opacity:1; fill:none" points="364.015,1328.42 364.015,47.2441 "></polyline>
<polyline clip-path="url(#clip090)" style="stroke:#000000; stroke-linecap:round; stroke-linejoin:round; stroke-width:4; stroke-opacity:1; fill:none" points="2267.45,1328.42 2267.45,47.2441 "></polyline>
<polyline clip-path="url(#clip090)" style="stroke:#000000; stroke-linecap:round; stroke-linejoin:round; stroke-width:4; stroke-opacity:1; fill:none" points="364.015,1292.16 379.073,1292.16 "></polyline>
<polyline clip-path="url(#clip090)" style="stroke:#000000; stroke-linecap:round; stroke-linejoin:round; stroke-width:4; stroke-opacity:1; fill:none" points="364.015,1076.49 379.073,1076.49 "></polyline>
<polyline clip-path="url(#clip090)" style="stroke:#000000; stroke-linecap:round; stroke-linejoin:round; stroke-width:4; stroke-opacity:1; fill:none" points="364.015,860.817 379.073,860.817 "></polyline>
<polyline clip-path="url(#clip090)" style="stroke:#000000; stroke-linecap:round; stroke-linejoin:round; stroke-width:4; stroke-opacity:1; fill:none" points="364.015,645.148 379.073,645.148 "></polyline>
<polyline clip-path="url(#clip090)" style="stroke:#000000; stroke-linecap:round; stroke-linejoin:round; stroke-width:4; stroke-opacity:1; fill:none" points="364.015,429.479 379.073,429.479 "></polyline>
<polyline clip-path="url(#clip090)" style="stroke:#000000; stroke-linecap:round; stroke-linejoin:round; stroke-width:4; stroke-opacity:1; fill:none" points="364.015,213.809 379.073,213.809 "></polyline>
<path clip-path="url(#clip090)" d="M208.302 1294.22 Q208.302 1280.28 211.822 1272.68 Q216.732 1261.38 228.312 1261.38 Q230.767 1261.38 233.314 1262.07 Q235.908 1262.72 239.15 1265.27 Q242.439 1267.82 244.431 1271.98 Q248.229 1280.04 248.229 1294.22 Q248.229 1308.07 244.709 1315.62 Q239.567 1326.64 228.219 1326.64 Q223.958 1326.64 219.604 1324.46 Q215.296 1322.29 212.563 1317.05 Q208.302 1309.22 208.302 1294.22 M216.176 1293.06 Q216.176 1307.37 217.195 1313.07 Q218.353 1319.23 221.503 1321.92 Q224.699 1324.56 228.219 1324.56 Q232.017 1324.56 235.167 1321.73 Q238.363 1318.86 239.336 1312.7 Q240.401 1306.63 240.355 1293.06 Q240.355 1279.86 239.428 1274.58 Q238.178 1268.42 234.843 1265.96 Q231.554 1263.46 228.219 1263.46 Q226.968 1263.46 225.625 1263.83 Q224.328 1264.2 222.429 1265.27 Q220.53 1266.33 219.048 1268.97 Q217.612 1271.61 216.917 1275.6 Q216.176 1280.74 216.176 1293.06 Z" fill="#000000" fill-rule="nonzero" fill-opacity="1"></path><path clip-path="url(#clip090)" d="M261.522 1323.03 Q260.086 1321.5 260.086 1319.51 Q260.086 1317.52 261.522 1316.08 Q262.958 1314.6 265.135 1314.6 Q267.219 1314.6 268.609 1315.99 Q270.045 1317.33 270.045 1319.55 Q270.045 1321.73 268.516 1323.17 Q267.034 1324.56 265.135 1324.56 Q262.958 1324.56 261.522 1323.03 Z" fill="#000000" fill-rule="nonzero" fill-opacity="1"></path><path clip-path="url(#clip090)" d="M282.088 1294.22 Q282.088 1280.28 285.608 1272.68 Q290.518 1261.38 302.098 1261.38 Q304.552 1261.38 307.1 1262.07 Q309.694 1262.72 312.936 1265.27 Q316.225 1267.82 318.216 1271.98 Q322.015 1280.04 322.015 1294.22 Q322.015 1308.07 318.494 1315.62 Q313.353 1326.64 302.005 1326.64 Q297.744 1326.64 293.39 1324.46 Q289.082 1322.29 286.349 1317.05 Q282.088 1309.22 282.088 1294.22 M289.962 1293.06 Q289.962 1307.37 290.981 1313.07 Q292.139 1319.23 295.289 1321.92 Q298.485 1324.56 302.005 1324.56 Q305.803 1324.56 308.953 1321.73 Q312.149 1318.86 313.121 1312.7 Q314.187 1306.63 314.14 1293.06 Q314.14 1279.86 313.214 1274.58 Q311.963 1268.42 308.628 1265.96 Q305.34 1263.46 302.005 1263.46 Q300.754 1263.46 299.411 1263.83 Q298.114 1264.2 296.215 1265.27 Q294.316 1266.33 292.834 1268.97 Q291.398 1271.61 290.703 1275.6 Q289.962 1280.74 289.962 1293.06 Z" fill="#000000" fill-rule="nonzero" fill-opacity="1"></path><path clip-path="url(#clip090)" d="M209.321 1078.55 Q209.321 1064.61 212.841 1057.01 Q217.751 1045.71 229.331 1045.71 Q231.786 1045.71 234.333 1046.4 Q236.927 1047.05 240.169 1049.6 Q243.458 1052.15 245.45 1056.31 Q249.248 1064.37 249.248 1078.55 Q249.248 1092.4 245.728 1099.95 Q240.586 1110.97 229.238 1110.97 Q224.977 1110.97 220.623 1108.79 Q216.315 1106.62 213.582 1101.38 Q209.321 1093.56 209.321 1078.55 M217.195 1077.39 Q217.195 1091.7 218.214 1097.4 Q219.372 1103.56 222.522 1106.25 Q225.718 1108.89 229.238 1108.89 Q233.036 1108.89 236.186 1106.06 Q239.382 1103.19 240.355 1097.03 Q241.42 1090.96 241.374 1077.39 Q241.374 1064.19 240.447 1058.91 Q239.197 1052.75 235.862 1050.29 Q232.573 1047.79 229.238 1047.79 Q227.987 1047.79 226.644 1048.16 Q225.347 1048.53 223.448 1049.6 Q221.549 1050.66 220.067 1053.3 Q218.631 1055.94 217.936 1059.93 Q217.195 1065.07 217.195 1077.39 Z" fill="#000000" fill-rule="nonzero" fill-opacity="1"></path><path clip-path="url(#clip090)" d="M262.541 1107.36 Q261.105 1105.83 261.105 1103.84 Q261.105 1101.85 262.541 1100.41 Q263.977 1098.93 266.154 1098.93 Q268.238 1098.93 269.628 1100.32 Q271.064 1101.66 271.064 1103.88 Q271.064 1106.06 269.535 1107.5 Q268.053 1108.89 266.154 1108.89 Q263.977 1108.89 262.541 1107.36 Z" fill="#000000" fill-rule="nonzero" fill-opacity="1"></path><path clip-path="url(#clip090)" d="M284.126 1093.6 Q284.126 1090.78 285.654 1089.71 Q287.183 1088.6 288.804 1088.6 Q290.981 1088.6 292.232 1089.99 Q293.529 1091.33 293.529 1093.23 Q293.529 1095.13 292.232 1096.52 Q290.981 1097.86 288.804 1097.86 Q287.739 1097.86 287.183 1097.68 Q288.433 1102.03 292.232 1105.18 Q296.076 1108.33 301.125 1108.33 Q307.471 1108.33 311.269 1102.17 Q313.538 1098.19 313.538 1089.15 Q313.538 1081.19 311.824 1077.2 Q309.184 1071.14 303.765 1071.14 Q296.076 1071.14 291.537 1077.76 Q290.981 1078.59 290.333 1078.64 Q289.406 1078.64 289.175 1078.13 Q288.989 1077.58 288.989 1076.14 L288.989 1048.07 Q288.989 1045.8 289.916 1045.8 Q290.286 1045.8 291.074 1046.08 Q297.049 1048.72 303.672 1048.77 Q310.481 1048.77 316.595 1045.99 Q317.059 1045.71 317.336 1045.71 Q318.263 1045.71 318.309 1046.77 Q318.309 1047.14 317.522 1048.26 Q316.781 1049.32 315.159 1050.76 Q313.538 1052.15 311.454 1053.49 Q309.37 1054.83 306.313 1055.76 Q303.302 1056.64 299.967 1056.64 Q295.983 1056.64 291.907 1055.39 L291.907 1073.87 Q296.817 1069.05 303.95 1069.05 Q311.547 1069.05 316.781 1075.17 Q322.015 1081.28 322.015 1089.8 Q322.015 1098.74 315.808 1104.86 Q309.647 1110.97 301.31 1110.97 Q293.714 1110.97 288.897 1105.55 Q284.126 1100.13 284.126 1093.6 Z" fill="#000000" fill-rule="nonzero" fill-opacity="1"></path><path clip-path="url(#clip090)" d="M213.026 839.071 L213.026 836.106 Q224.421 836.106 230.303 830.039 Q231.925 830.039 232.202 830.409 Q232.48 830.78 232.48 832.493 L232.48 885.714 Q232.48 888.539 233.87 889.419 Q235.26 890.299 241.327 890.299 L244.338 890.299 L244.338 893.217 Q241.003 892.94 228.96 892.94 Q216.917 892.94 213.629 893.217 L213.629 890.299 L216.639 890.299 Q222.614 890.299 224.05 889.466 Q225.486 888.586 225.486 885.714 L225.486 836.57 Q220.53 839.071 213.026 839.071 Z" fill="#000000" fill-rule="nonzero" fill-opacity="1"></path><path clip-path="url(#clip090)" d="M261.522 891.689 Q260.086 890.16 260.086 888.169 Q260.086 886.177 261.522 884.741 Q262.958 883.259 265.135 883.259 Q267.219 883.259 268.609 884.648 Q270.045 885.992 270.045 888.215 Q270.045 890.392 268.516 891.828 Q267.034 893.217 265.135 893.217 Q262.958 893.217 261.522 891.689 Z" fill="#000000" fill-rule="nonzero" fill-opacity="1"></path><path clip-path="url(#clip090)" d="M282.088 862.879 Q282.088 848.937 285.608 841.34 Q290.518 830.039 302.098 830.039 Q304.552 830.039 307.1 830.733 Q309.694 831.382 312.936 833.929 Q316.225 836.477 318.216 840.646 Q322.015 848.705 322.015 862.879 Q322.015 876.728 318.494 884.278 Q313.353 895.302 302.005 895.302 Q297.744 895.302 293.39 893.125 Q289.082 890.948 286.349 885.714 Q282.088 877.886 282.088 862.879 M289.962 861.721 Q289.962 876.033 290.981 881.73 Q292.139 887.891 295.289 890.577 Q298.485 893.217 302.005 893.217 Q305.803 893.217 308.953 890.392 Q312.149 887.52 313.121 881.36 Q314.187 875.292 314.14 861.721 Q314.14 848.52 313.214 843.239 Q311.963 837.079 308.628 834.624 Q305.34 832.123 302.005 832.123 Q300.754 832.123 299.411 832.493 Q298.114 832.864 296.215 833.929 Q294.316 834.995 292.834 837.635 Q291.398 840.275 290.703 844.258 Q289.962 849.4 289.962 861.721 Z" fill="#000000" fill-rule="nonzero" fill-opacity="1"></path><path clip-path="url(#clip090)" d="M214.045 623.401 L214.045 620.437 Q225.44 620.437 231.322 614.369 Q232.944 614.369 233.221 614.74 Q233.499 615.11 233.499 616.824 L233.499 670.044 Q233.499 672.87 234.889 673.75 Q236.279 674.63 242.346 674.63 L245.357 674.63 L245.357 677.548 Q242.022 677.27 229.979 677.27 Q217.936 677.27 214.648 677.548 L214.648 674.63 L217.658 674.63 Q223.633 674.63 225.069 673.796 Q226.505 672.916 226.505 670.044 L226.505 620.9 Q221.549 623.401 214.045 623.401 Z" fill="#000000" fill-rule="nonzero" fill-opacity="1"></path><path clip-path="url(#clip090)" d="M262.541 676.02 Q261.105 674.491 261.105 672.499 Q261.105 670.508 262.541 669.072 Q263.977 667.59 266.154 667.59 Q268.238 667.59 269.628 668.979 Q271.064 670.322 271.064 672.546 Q271.064 674.723 269.535 676.159 Q268.053 677.548 266.154 677.548 Q263.977 677.548 262.541 676.02 Z" fill="#000000" fill-rule="nonzero" fill-opacity="1"></path><path clip-path="url(#clip090)" d="M284.126 662.263 Q284.126 659.437 285.654 658.372 Q287.183 657.26 288.804 657.26 Q290.981 657.26 292.232 658.65 Q293.529 659.993 293.529 661.892 Q293.529 663.791 292.232 665.181 Q290.981 666.524 288.804 666.524 Q287.739 666.524 287.183 666.339 Q288.433 670.693 292.232 673.843 Q296.076 676.992 301.125 676.992 Q307.471 676.992 311.269 670.832 Q313.538 666.848 313.538 657.816 Q313.538 649.849 311.824 645.866 Q309.184 639.798 303.765 639.798 Q296.076 639.798 291.537 646.422 Q290.981 647.256 290.333 647.302 Q289.406 647.302 289.175 646.792 Q288.989 646.237 288.989 644.801 L288.989 616.731 Q288.989 614.462 289.916 614.462 Q290.286 614.462 291.074 614.74 Q297.049 617.38 303.672 617.426 Q310.481 617.426 316.595 614.647 Q317.059 614.369 317.336 614.369 Q318.263 614.369 318.309 615.435 Q318.309 615.805 317.522 616.917 Q316.781 617.982 315.159 619.418 Q313.538 620.808 311.454 622.151 Q309.37 623.494 306.313 624.42 Q303.302 625.3 299.967 625.3 Q295.983 625.3 291.907 624.05 L291.907 642.531 Q296.817 637.714 303.95 637.714 Q311.547 637.714 316.781 643.828 Q322.015 649.942 322.015 658.465 Q322.015 667.404 315.808 673.518 Q309.647 679.632 301.31 679.632 Q293.714 679.632 288.897 674.213 Q284.126 668.794 284.126 662.263 Z" fill="#000000" fill-rule="nonzero" fill-opacity="1"></path><path clip-path="url(#clip090)" d="M209.321 461.879 Q209.321 460.165 209.46 459.655 Q209.645 459.146 210.386 458.358 L228.59 438.071 Q238.548 426.862 238.548 417.088 Q238.548 410.743 235.213 406.204 Q231.925 401.664 225.857 401.664 Q221.688 401.664 218.168 404.212 Q214.648 406.759 213.026 411.299 Q213.304 411.206 214.277 411.206 Q216.639 411.206 217.936 412.688 Q219.28 414.17 219.28 416.162 Q219.28 418.71 217.612 419.96 Q215.991 421.164 214.37 421.164 Q213.721 421.164 212.841 421.026 Q212.007 420.887 210.664 419.59 Q209.321 418.246 209.321 415.884 Q209.321 409.261 214.323 403.98 Q219.372 398.7 227.061 398.7 Q235.769 398.7 241.466 403.888 Q247.21 409.029 247.21 417.088 Q247.21 419.914 246.33 422.508 Q245.496 425.055 244.338 427.047 Q243.226 429.039 240.169 432.235 Q237.112 435.431 234.657 437.7 Q232.202 439.97 226.691 444.787 L216.639 454.56 L233.731 454.56 Q242.068 454.56 242.717 453.819 Q243.643 452.476 244.801 445.389 L247.21 445.389 L244.523 461.879 L209.321 461.879 Z" fill="#000000" fill-rule="nonzero" fill-opacity="1"></path><path clip-path="url(#clip090)" d="M261.522 460.35 Q260.086 458.822 260.086 456.83 Q260.086 454.838 261.522 453.402 Q262.958 451.92 265.135 451.92 Q267.219 451.92 268.609 453.31 Q270.045 454.653 270.045 456.876 Q270.045 459.053 268.516 460.489 Q267.034 461.879 265.135 461.879 Q262.958 461.879 261.522 460.35 Z" fill="#000000" fill-rule="nonzero" fill-opacity="1"></path><path clip-path="url(#clip090)" d="M282.088 431.54 Q282.088 417.598 285.608 410.002 Q290.518 398.7 302.098 398.7 Q304.552 398.7 307.1 399.395 Q309.694 400.043 312.936 402.591 Q316.225 405.138 318.216 409.307 Q322.015 417.366 322.015 431.54 Q322.015 445.389 318.494 452.939 Q313.353 463.963 302.005 463.963 Q297.744 463.963 293.39 461.786 Q289.082 459.609 286.349 454.375 Q282.088 446.547 282.088 431.54 M289.962 430.382 Q289.962 444.694 290.981 450.392 Q292.139 456.552 295.289 459.239 Q298.485 461.879 302.005 461.879 Q305.803 461.879 308.953 459.053 Q312.149 456.181 313.121 450.021 Q314.187 443.953 314.14 430.382 Q314.14 417.181 313.214 411.901 Q311.963 405.74 308.628 403.285 Q305.34 400.784 302.005 400.784 Q300.754 400.784 299.411 401.155 Q298.114 401.525 296.215 402.591 Q294.316 403.656 292.834 406.296 Q291.398 408.936 290.703 412.92 Q289.962 418.061 289.962 430.382 Z" fill="#000000" fill-rule="nonzero" fill-opacity="1"></path><path clip-path="url(#clip090)" d="M210.34 246.209 Q210.34 244.496 210.479 243.986 Q210.664 243.477 211.405 242.689 L229.609 222.401 Q239.567 211.192 239.567 201.419 Q239.567 195.073 236.232 190.534 Q232.944 185.995 226.876 185.995 Q222.707 185.995 219.187 188.542 Q215.667 191.09 214.045 195.629 Q214.323 195.537 215.296 195.537 Q217.658 195.537 218.955 197.019 Q220.299 198.501 220.299 200.493 Q220.299 203.04 218.631 204.291 Q217.01 205.495 215.389 205.495 Q214.74 205.495 213.86 205.356 Q213.026 205.217 211.683 203.92 Q210.34 202.577 210.34 200.215 Q210.34 193.591 215.342 188.311 Q220.391 183.03 228.08 183.03 Q236.788 183.03 242.485 188.218 Q248.229 193.36 248.229 201.419 Q248.229 204.245 247.349 206.838 Q246.515 209.386 245.357 211.378 Q244.245 213.369 241.188 216.565 Q238.131 219.761 235.676 222.031 Q233.221 224.301 227.71 229.118 L217.658 238.891 L234.75 238.891 Q243.087 238.891 243.736 238.15 Q244.662 236.807 245.82 229.72 L248.229 229.72 L245.542 246.209 L210.34 246.209 Z" fill="#000000" fill-rule="nonzero" fill-opacity="1"></path><path clip-path="url(#clip090)" d="M262.541 244.681 Q261.105 243.152 261.105 241.161 Q261.105 239.169 262.541 237.733 Q263.977 236.251 266.154 236.251 Q268.238 236.251 269.628 237.64 Q271.064 238.984 271.064 241.207 Q271.064 243.384 269.535 244.82 Q268.053 246.209 266.154 246.209 Q263.977 246.209 262.541 244.681 Z" fill="#000000" fill-rule="nonzero" fill-opacity="1"></path><path clip-path="url(#clip090)" d="M284.126 230.924 Q284.126 228.099 285.654 227.033 Q287.183 225.922 288.804 225.922 Q290.981 225.922 292.232 227.311 Q293.529 228.655 293.529 230.554 Q293.529 232.453 292.232 233.842 Q290.981 235.185 288.804 235.185 Q287.739 235.185 287.183 235 Q288.433 239.354 292.232 242.504 Q296.076 245.654 301.125 245.654 Q307.471 245.654 311.269 239.493 Q313.538 235.51 313.538 226.478 Q313.538 218.511 311.824 214.527 Q309.184 208.46 303.765 208.46 Q296.076 208.46 291.537 215.083 Q290.981 215.917 290.333 215.963 Q289.406 215.963 289.175 215.454 Q288.989 214.898 288.989 213.462 L288.989 185.393 Q288.989 183.123 289.916 183.123 Q290.286 183.123 291.074 183.401 Q297.049 186.041 303.672 186.088 Q310.481 186.088 316.595 183.308 Q317.059 183.03 317.336 183.03 Q318.263 183.03 318.309 184.096 Q318.309 184.466 317.522 185.578 Q316.781 186.643 315.159 188.079 Q313.538 189.469 311.454 190.812 Q309.37 192.155 306.313 193.082 Q303.302 193.962 299.967 193.962 Q295.983 193.962 291.907 192.711 L291.907 211.192 Q296.817 206.375 303.95 206.375 Q311.547 206.375 316.781 212.489 Q322.015 218.603 322.015 227.126 Q322.015 236.066 315.808 242.18 Q309.647 248.294 301.31 248.294 Q293.714 248.294 288.897 242.874 Q284.126 237.455 284.126 230.924 Z" fill="#000000" fill-rule="nonzero" fill-opacity="1"></path><path clip-path="url(#clip090)" d="M180.293 1104.09 L83.1364 1104.09 Q79.2644 1104.09 79.2644 1102 Q79.2644 1099.91 82.3722 1099.91 L179.529 1099.91 Q183.401 1099.91 183.401 1102 Q183.401 1104.09 180.293 1104.09 Z" fill="#000000" fill-rule="nonzero" fill-opacity="1"></path><path clip-path="url(#clip090)" d="M118.605 1002.02 Q119.132 1001.56 119.659 1001.56 Q120.186 1001.56 121.708 1002.73 Q123.23 1003.84 125.28 1006.24 Q127.329 1008.64 129.262 1011.74 Q131.194 1014.85 132.482 1019.42 Q133.829 1023.98 133.829 1028.78 Q133.829 1037.74 127.915 1043.01 Q122.001 1048.23 113.51 1048.23 Q105.254 1048.23 97.3486 1043.6 Q89.385 1038.97 84.4663 1031.48 Q79.489 1023.98 79.489 1016.08 Q79.489 1009.81 82.4168 1005.89 Q85.3446 1001.97 89.7949 1001.97 Q93.2497 1001.97 95.3577 1003.96 Q97.4657 1005.95 97.4657 1008.64 Q97.4657 1010.52 96.4117 1011.8 Q95.2992 1013.09 93.2497 1013.09 Q90.6147 1013.09 88.5652 1010.93 Q87.7454 1010.11 87.3941 1009.17 Q86.9842 1008.17 86.9842 1007.59 Q86.9256 1007 86.9256 1005.66 Q84.642 1006.88 83.4123 1009.81 Q82.124 1012.68 82.124 1015.96 Q82.124 1020.82 85.5203 1025.45 Q88.858 1030.07 94.128 1032.88 Q99.281 1035.69 106.6 1037.51 Q113.861 1039.32 118.077 1039.32 Q123.875 1039.32 127.505 1036.63 Q131.136 1033.94 131.136 1028.55 Q131.136 1027.5 131.077 1026.38 Q131.018 1025.21 130.374 1022.28 Q129.73 1019.3 128.618 1016.66 Q127.505 1014.03 125.104 1010.69 Q122.645 1007.29 119.307 1004.6 Q118.077 1003.66 118.077 1003.02 Q118.077 1002.49 118.605 1002.02 Z" fill="#000000" fill-rule="nonzero" fill-opacity="1"></path><path clip-path="url(#clip090)" d="M143.349 945.356 Q149.334 945.356 155.113 948.389 Q160.893 951.381 164.459 956.095 Q167.984 960.809 167.984 965.605 Q167.984 968.474 166.426 970.4 Q164.828 972.286 162.573 973.311 Q165.361 974.089 172.042 975.77 Q178.723 977.45 179.379 977.45 Q179.748 977.45 179.912 977.369 Q180.076 977.287 180.281 976.918 Q180.527 976.549 180.609 975.647 Q180.732 974.745 180.732 973.229 Q180.732 972.45 180.732 972.163 Q180.773 971.835 180.978 971.548 Q181.182 971.22 181.633 971.22 Q183.314 971.22 183.314 972.737 Q183.314 974.089 183.191 976.877 Q183.068 979.664 183.068 981.058 Q183.068 982.246 183.191 984.624 Q183.314 987.001 183.314 988.108 Q183.314 989.214 182.33 989.214 Q181.756 989.214 181.387 989.05 Q181.059 988.927 180.896 988.6 Q180.773 988.272 180.732 987.985 Q180.732 987.739 180.732 987.247 Q180.732 985.361 180.404 984.542 Q180.117 983.722 179.502 983.435 Q178.928 983.107 177.288 982.738 L139.906 973.311 Q137.406 972.737 135.643 972.737 Q133.43 972.737 132.61 973.434 Q131.79 974.13 131.79 975.36 Q131.79 977.491 134.332 978.885 Q136.873 980.279 141.792 981.467 Q143.144 981.836 143.431 982.082 Q143.718 982.287 143.718 982.902 Q143.677 983.927 142.857 983.927 Q142.653 983.927 141.341 983.599 Q139.988 983.271 138.021 982.656 Q136.012 982 134.742 981.303 Q133.881 980.894 133.307 980.525 Q132.733 980.156 131.831 979.418 Q130.93 978.639 130.438 977.532 Q129.946 976.426 129.946 975.073 Q129.946 972.45 131.503 970.277 Q133.061 968.105 136.217 967.531 Q133.471 965.195 131.708 962.325 Q129.946 959.456 129.946 956.546 Q129.946 951.709 133.717 948.553 Q137.447 945.356 143.349 945.356 M139.66 951.422 Q135.93 951.422 133.881 952.857 Q131.79 954.251 131.79 956.792 Q131.79 959.948 134.988 963.596 Q138.021 967.203 140.849 967.941 L157.286 972.081 L158.638 972.327 Q158.884 972.327 159.622 972.204 Q160.319 972.04 161.467 971.589 Q162.614 971.097 163.639 970.441 Q164.623 969.745 165.361 968.515 Q166.098 967.244 166.098 965.687 Q166.098 963.186 163.885 960.481 Q161.672 957.735 157.491 955.685 Q154.785 954.415 148.965 952.939 Q143.103 951.422 139.66 951.422 Z" fill="#000000" fill-rule="nonzero" fill-opacity="1"></path><path clip-path="url(#clip090)" d="M167.041 940.341 Q165.525 940.341 165.074 940.218 Q164.623 940.054 163.926 939.399 L145.973 923.29 Q136.053 914.477 127.405 914.477 Q121.789 914.477 117.772 917.428 Q113.755 920.339 113.755 925.708 Q113.755 929.397 116.01 932.512 Q118.264 935.628 122.281 937.062 Q122.199 936.816 122.199 935.956 Q122.199 933.865 123.511 932.717 Q124.822 931.529 126.585 931.529 Q128.839 931.529 129.946 933.004 Q131.012 934.439 131.012 935.874 Q131.012 936.447 130.889 937.226 Q130.766 937.964 129.618 939.153 Q128.429 940.341 126.339 940.341 Q120.477 940.341 115.805 935.915 Q111.132 931.447 111.132 924.642 Q111.132 916.937 115.723 911.895 Q120.272 906.812 127.405 906.812 Q129.905 906.812 132.2 907.591 Q134.455 908.329 136.217 909.353 Q137.98 910.337 140.808 913.043 Q143.636 915.748 145.645 917.92 Q147.653 920.093 151.916 924.97 L160.565 933.865 L160.565 918.74 Q160.565 911.362 159.909 910.788 Q158.72 909.968 152.449 908.944 L152.449 906.812 L167.041 909.19 L167.041 940.341 Z" fill="#000000" fill-rule="nonzero" fill-opacity="1"></path><path clip-path="url(#clip090)" d="M180.293 873.168 L83.1364 873.168 Q79.2644 873.168 79.2644 871.079 Q79.2644 868.99 82.3722 868.99 L179.529 868.99 Q183.401 868.99 183.401 871.079 Q183.401 873.168 180.293 873.168 Z" fill="#000000" fill-rule="nonzero" fill-opacity="1"></path><path clip-path="url(#clip090)" d="M74.5631 735.042 Q54.0116 735.042 37.4398 727.38 Q30.4903 724.113 24.6694 719.539 Q18.8485 714.966 16.2944 711.937 Q13.7403 708.907 13.7403 708.076 Q13.7403 706.888 14.9283 706.828 Q15.5222 706.828 17.0072 708.432 Q36.9646 728.033 74.5631 727.974 Q112.28 727.974 131.466 708.907 Q133.545 706.828 134.198 706.828 Q135.386 706.828 135.386 708.076 Q135.386 708.907 132.951 711.818 Q130.515 714.728 124.932 719.242 Q119.349 723.757 112.518 727.023 Q95.9461 735.042 74.5631 735.042 Z" fill="#000000" fill-rule="nonzero" fill-opacity="1"></path><path clip-path="url(#clip090)" d="M130.667 618.442 Q131.37 619.027 131.37 620.081 Q131.37 621.077 130.667 621.779 L105.839 646.607 L130.667 671.435 Q131.37 672.138 131.37 673.192 Q131.37 674.187 130.667 674.831 Q130.023 675.534 129.027 675.534 Q128.032 675.534 127.329 674.831 L102.502 650.003 L77.6738 674.831 Q76.9711 675.534 75.9757 675.534 Q74.9216 675.534 74.3361 674.831 Q73.6334 674.187 73.6334 673.192 Q73.6334 672.138 74.3361 671.435 L99.1639 646.607 L74.3361 621.779 Q73.6334 621.077 73.6334 620.081 Q73.6334 619.027 74.3361 618.442 Q74.9216 617.739 75.9757 617.739 Q76.9711 617.739 77.6738 618.442 L102.502 643.269 L127.329 618.442 Q128.032 617.739 129.086 617.739 Q130.081 617.739 130.667 618.442 Z" fill="#000000" fill-rule="nonzero" fill-opacity="1"></path><path clip-path="url(#clip090)" d="M64.0302 572.298 L60.2826 572.298 Q60.2826 557.893 52.6118 550.457 Q52.6118 548.407 53.0802 548.056 Q53.5487 547.705 55.7152 547.705 L122.996 547.705 Q126.568 547.705 127.681 545.948 Q128.793 544.191 128.793 536.52 L128.793 532.714 L132.482 532.714 Q132.131 536.93 132.131 552.155 Q132.131 567.38 132.482 571.537 L128.793 571.537 L128.793 567.731 Q128.793 560.177 127.739 558.362 Q126.627 556.547 122.996 556.547 L60.8682 556.547 Q64.0302 562.812 64.0302 572.298 Z" fill="#000000" fill-rule="nonzero" fill-opacity="1"></path><path clip-path="url(#clip090)" d="M94.128 512.908 Q76.5027 512.908 66.8995 508.457 Q52.6118 502.25 52.6118 487.611 Q52.6118 484.508 53.4901 481.287 Q54.3099 478.008 57.5305 473.909 Q60.7511 469.752 66.0211 467.234 Q76.2099 462.432 94.128 462.432 Q111.636 462.432 121.181 466.882 Q135.117 473.382 135.117 487.728 Q135.117 493.116 132.365 498.62 Q129.613 504.066 122.996 507.52 Q113.1 512.908 94.128 512.908 M92.6641 502.953 Q110.758 502.953 117.96 501.665 Q125.748 500.201 129.145 496.219 Q132.482 492.179 132.482 487.728 Q132.482 482.927 128.91 478.945 Q125.28 474.905 117.492 473.675 Q109.821 472.328 92.6641 472.387 Q75.9757 472.387 69.3003 473.558 Q61.5123 475.139 58.4088 479.355 Q55.2468 483.512 55.2468 487.728 Q55.2468 489.309 55.7152 491.008 Q56.1837 492.647 57.5305 495.048 Q58.8773 497.449 62.215 499.323 Q65.5527 501.138 70.5885 502.016 Q77.0882 502.953 92.6641 502.953 Z" fill="#000000" fill-rule="nonzero" fill-opacity="1"></path><path clip-path="url(#clip090)" d="M47.8066 394.706 Q48.2984 394.214 48.9953 394.214 Q49.6921 394.214 50.184 394.706 Q50.6758 395.198 50.6758 395.894 L50.6758 448.443 Q50.6758 449.139 50.184 449.631 Q49.6921 450.123 48.9953 450.123 Q48.2984 450.123 47.8066 449.631 Q47.3147 449.139 47.3147 448.443 L47.3147 395.894 Q47.3147 395.198 47.8066 394.706 Z" fill="#000000" fill-rule="nonzero" fill-opacity="1"></path><path clip-path="url(#clip090)" d="M69.9818 385.449 Q68.4652 385.449 68.0143 385.326 Q67.5634 385.162 66.8666 384.506 L48.9133 368.397 Q38.9939 359.585 30.3451 359.585 Q24.7296 359.585 20.7127 362.536 Q16.6957 365.446 16.6957 370.816 Q16.6957 374.505 18.9501 377.62 Q21.2045 380.735 25.2215 382.17 Q25.1395 381.924 25.1395 381.063 Q25.1395 378.973 26.4512 377.825 Q27.7628 376.636 29.5254 376.636 Q31.7798 376.636 32.8865 378.112 Q33.9522 379.546 33.9522 380.981 Q33.9522 381.555 33.8292 382.334 Q33.7063 383.072 32.5586 384.26 Q31.3699 385.449 29.2794 385.449 Q23.418 385.449 18.7452 381.022 Q14.0724 376.554 14.0724 369.75 Q14.0724 362.044 18.6632 357.002 Q23.213 351.92 30.3451 351.92 Q32.8455 351.92 35.1409 352.698 Q37.3953 353.436 39.1578 354.461 Q40.9204 355.445 43.7486 358.15 Q46.5769 360.855 48.5854 363.028 Q50.5938 365.2 54.8567 370.078 L63.5055 378.973 L63.5055 363.848 Q63.5055 356.469 62.8496 355.896 Q61.661 355.076 55.3896 354.051 L55.3896 351.92 L69.9818 354.297 L69.9818 385.449 Z" fill="#000000" fill-rule="nonzero" fill-opacity="1"></path><path clip-path="url(#clip090)" d="M134.198 318.275 Q133.604 318.275 132.119 316.731 Q112.162 297.13 74.5631 297.13 Q36.8458 297.13 17.7793 315.959 Q15.5816 318.275 14.9283 318.275 Q13.7403 318.275 13.7403 317.088 Q13.7403 316.256 16.1756 313.346 Q18.6109 310.376 24.1942 305.921 Q29.7776 301.407 36.6083 298.08 Q53.1801 290.062 74.5631 290.062 Q95.1145 290.062 111.686 297.724 Q118.636 300.991 124.457 305.564 Q130.278 310.138 132.832 313.167 Q135.386 316.197 135.386 317.088 Q135.386 318.275 134.198 318.275 Z" fill="#000000" fill-rule="nonzero" fill-opacity="1"></path><polyline clip-path="url(#clip092)" style="stroke:#e31a1c; stroke-linecap:round; stroke-linejoin:round; stroke-width:16; stroke-opacity:1; fill:none" points="417.885,1292.16 446.388,1220.81 474.891,1142.45 503.394,1056.75 531.897,970.788 560.4,894.462 588.903,835.474 617.406,797.084 645.909,778.54 674.412,776.658 702.915,787.352 731.418,806.652 759.921,831.213 788.424,858.457 816.927,886.537 845.43,914.208 873.933,940.689 902.436,965.533 930.939,988.529 959.442,1009.62 987.945,1028.84 1016.45,1046.28 1044.95,1062.09 1073.45,1076.38 1101.96,1089.32 1130.46,1101.03 1158.96,1111.64 1187.47,1121.28 1215.97,1130.04 1244.47,1138.02 1272.98,1145.32 1301.48,1151.99 1329.98,1158.12 1358.48,1163.75 1386.99,1168.94 1415.49,1173.74 1443.99,1178.18 1472.5,1182.31 1501,1186.14 1529.5,1189.72 1558.01,1193.05 1586.51,1196.18 1615.01,1199.11 1643.51,1201.86 1672.02,1204.45 1700.52,1206.89 1729.02,1209.19 1757.53,1211.37 1786.03,1213.44 1814.53,1215.39 1843.04,1217.25 1871.54,1219.02 1900.04,1220.7 1928.54,1222.3 1957.05,1223.83 1985.55,1225.29 2014.05,1226.69 2042.56,1228.02 2071.06,1229.3 2099.56,1230.53 2128.07,1231.71 2156.57,1232.85 2185.07,1233.94 2213.57,1234.99 "></polyline>
<polyline clip-path="url(#clip092)" style="stroke:#377db8; stroke-linecap:round; stroke-linejoin:round; stroke-width:16; stroke-opacity:1; fill:none" points="417.885,1292.16 446.388,1214.49 474.891,1154.35 503.394,1122.99 531.897,1114.64 560.4,1102.55 588.903,1063.1 617.406,1003.5 645.909,942.98 674.412,893.621 702.915,859.736 731.418,841.087 759.921,835.339 788.424,839.522 816.927,850.779 845.43,866.693 873.933,885.369 902.436,905.401 930.939,925.794 959.442,945.874 987.945,965.211 1016.45,983.549 1044.95,1000.75 1073.45,1016.78 1101.96,1031.62 1130.46,1045.34 1158.96,1057.98 1187.47,1069.62 1215.97,1080.33 1244.47,1090.2 1272.98,1099.29 1301.48,1107.67 1329.98,1115.42 1358.48,1122.59 1386.99,1129.23 1415.49,1135.39 1443.99,1141.11 1472.5,1146.45 1501,1151.42 1529.5,1156.08 1558.01,1160.43 1586.51,1164.51 1615.01,1168.35 1643.51,1171.95 1672.02,1175.35 1700.52,1178.56 1729.02,1181.59 1757.53,1184.47 1786.03,1187.19 1814.53,1189.77 1843.04,1192.22 1871.54,1194.56 1900.04,1196.78 1928.54,1198.9 1957.05,1200.93 1985.55,1202.86 2014.05,1204.71 2042.56,1206.49 2071.06,1208.19 2099.56,1209.82 2128.07,1211.39 2156.57,1212.89 2185.07,1214.34 2213.57,1215.73 "></polyline>
<polyline clip-path="url(#clip092)" style="stroke:#4dae49; stroke-linecap:round; stroke-linejoin:round; stroke-width:16; stroke-opacity:1; fill:none" points="417.885,1292.16 446.388,1262.44 474.891,1224.68 503.394,1178.31 531.897,1139.74 560.4,1124.22 588.903,1128.04 617.406,1127.89 645.909,1102.57 674.412,1057.41 702.915,1008.99 731.418,967.72 759.921,937.496 788.424,918.59 816.927,909.601 845.43,908.556 873.933,913.465 902.436,922.578 930.939,934.468 959.442,948.03 987.945,962.442 1016.45,977.112 1044.95,991.631 1073.45,1005.73 1101.96,1019.23 1130.46,1032.04 1158.96,1044.11 1187.47,1055.43 1215.97,1066.01 1244.47,1075.88 1272.98,1085.08 1301.48,1093.64 1329.98,1101.62 1358.48,1109.05 1386.99,1115.97 1415.49,1122.43 1443.99,1128.46 1472.5,1134.1 1501,1139.38 1529.5,1144.33 1558.01,1148.97 1586.51,1153.33 1615.01,1157.44 1643.51,1161.31 1672.02,1164.97 1700.52,1168.42 1729.02,1171.69 1757.53,1174.79 1786.03,1177.72 1814.53,1180.52 1843.04,1183.17 1871.54,1185.7 1900.04,1188.11 1928.54,1190.4 1957.05,1192.6 1985.55,1194.7 2014.05,1196.71 2042.56,1198.63 2071.06,1200.48 2099.56,1202.25 2128.07,1203.96 2156.57,1205.59 2185.07,1207.17 2213.57,1208.68 "></polyline>
<polyline clip-path="url(#clip092)" style="stroke:#974ea2; stroke-linecap:round; stroke-linejoin:round; stroke-width:16; stroke-opacity:1; fill:none" points="417.885,1292.16 446.388,1281.35 474.891,1257.26 503.394,1228.09 531.897,1191.64 560.4,1156.52 588.903,1138.42 617.406,1141.56 645.909,1153.74 674.412,1153.07 702.915,1128.96 731.418,1091.72 759.921,1054.09 788.424,1022.6 816.927,999.417 845.43,984.455 873.933,976.663 902.436,974.67 930.939,977.113 959.442,982.789 987.945,990.702 1016.45,1000.06 1044.95,1010.27 1073.45,1020.88 1101.96,1031.57 1130.46,1042.12 1158.96,1052.36 1187.47,1062.21 1215.97,1071.61 1244.47,1080.52 1272.98,1088.94 1301.48,1096.87 1329.98,1104.33 1358.48,1111.34 1386.99,1117.92 1415.49,1124.09 1443.99,1129.89 1472.5,1135.33 1501,1140.45 1529.5,1145.27 1558.01,1149.8 1586.51,1154.07 1615.01,1158.09 1643.51,1161.9 1672.02,1165.5 1700.52,1168.9 1729.02,1172.12 1757.53,1175.18 1786.03,1178.09 1814.53,1180.85 1843.04,1183.48 1871.54,1185.99 1900.04,1188.38 1928.54,1190.66 1957.05,1192.84 1985.55,1194.93 2014.05,1196.92 2042.56,1198.84 2071.06,1200.67 2099.56,1202.44 2128.07,1204.13 2156.57,1205.76 2185.07,1207.33 2213.57,1208.84 "></polyline>
<polyline clip-path="url(#clip092)" style="stroke:#ff7e00; stroke-linecap:round; stroke-linejoin:round; stroke-width:16; stroke-opacity:1; fill:none" points="417.885,1292.16 446.388,1289.37 474.891,1275.33 503.394,1254.12 531.897,1230.06 560.4,1199.25 588.903,1168.5 617.406,1151.59 645.909,1153.86 674.412,1168.62 702.915,1179.93 731.418,1172.54 759.921,1147.82 788.424,1117.29 816.927,1088.91 845.43,1065.99 873.933,1049.36 902.436,1038.65 930.939,1033 959.442,1031.45 987.945,1033.04 1016.45,1036.98 1044.95,1042.57 1073.45,1049.28 1101.96,1056.67 1130.46,1064.45 1158.96,1072.36 1187.47,1080.24 1215.97,1087.97 1244.47,1095.47 1272.98,1102.69 1301.48,1109.6 1329.98,1116.17 1358.48,1122.41 1386.99,1128.32 1415.49,1133.92 1443.99,1139.2 1472.5,1144.19 1501,1148.9 1529.5,1153.35 1558.01,1157.56 1586.51,1161.53 1615.01,1165.29 1643.51,1168.85 1672.02,1172.22 1700.52,1175.41 1729.02,1178.44 1757.53,1181.32 1786.03,1184.06 1814.53,1186.67 1843.04,1189.15 1871.54,1191.51 1900.04,1193.77 1928.54,1195.93 1957.05,1197.99 1985.55,1199.97 2014.05,1201.86 2042.56,1203.67 2071.06,1205.41 2099.56,1207.08 2128.07,1208.68 2156.57,1210.23 2185.07,1211.71 2213.57,1213.14 "></polyline>
<path clip-path="url(#clip092)" d="M417.885 1264.16 L389.885 1292.16 L417.885 1320.16 L445.885 1292.16 L417.885 1264.16 Z" fill="#e31a1c" fill-rule="evenodd" fill-opacity="1" stroke="#000000" stroke-opacity="1" stroke-width="0"></path>
<path clip-path="url(#clip092)" d="M503.394 1046.91 L475.394 1074.91 L503.394 1102.91 L531.394 1074.91 L503.394 1046.91 Z" fill="#e31a1c" fill-rule="evenodd" fill-opacity="1" stroke="#000000" stroke-opacity="1" stroke-width="0"></path>
<path clip-path="url(#clip092)" d="M588.903 823.309 L560.903 851.309 L588.903 879.309 L616.903 851.309 L588.903 823.309 Z" fill="#e31a1c" fill-rule="evenodd" fill-opacity="1" stroke="#000000" stroke-opacity="1" stroke-width="0"></path>
<path clip-path="url(#clip092)" d="M674.412 639.845 L646.412 667.845 L674.412 695.845 L702.412 667.845 L674.412 639.845 Z" fill="#e31a1c" fill-rule="evenodd" fill-opacity="1" stroke="#000000" stroke-opacity="1" stroke-width="0"></path>
<path clip-path="url(#clip092)" d="M759.921 507.039 L731.921 535.039 L759.921 563.039 L787.921 535.039 L759.921 507.039 Z" fill="#e31a1c" fill-rule="evenodd" fill-opacity="1" stroke="#000000" stroke-opacity="1" stroke-width="0"></path>
<path clip-path="url(#clip092)" d="M845.43 411.988 L817.43 439.988 L845.43 467.988 L873.43 439.988 L845.43 411.988 Z" fill="#e31a1c" fill-rule="evenodd" fill-opacity="1" stroke="#000000" stroke-opacity="1" stroke-width="0"></path>
<path clip-path="url(#clip092)" d="M930.939 342.186 L902.939 370.186 L930.939 398.186 L958.939 370.186 L930.939 342.186 Z" fill="#e31a1c" fill-rule="evenodd" fill-opacity="1" stroke="#000000" stroke-opacity="1" stroke-width="0"></path>
<path clip-path="url(#clip092)" d="M1016.45 289.301 L988.448 317.301 L1016.45 345.301 L1044.45 317.301 L1016.45 289.301 Z" fill="#e31a1c" fill-rule="evenodd" fill-opacity="1" stroke="#000000" stroke-opacity="1" stroke-width="0"></path>
<path clip-path="url(#clip092)" d="M1101.96 248.071 L1073.96 276.071 L1101.96 304.071 L1129.96 276.071 L1101.96 248.071 Z" fill="#e31a1c" fill-rule="evenodd" fill-opacity="1" stroke="#000000" stroke-opacity="1" stroke-width="0"></path>
<path clip-path="url(#clip092)" d="M1187.47 215.128 L1159.47 243.128 L1187.47 271.128 L1215.47 243.128 L1187.47 215.128 Z" fill="#e31a1c" fill-rule="evenodd" fill-opacity="1" stroke="#000000" stroke-opacity="1" stroke-width="0"></path>
<path clip-path="url(#clip092)" d="M1272.98 188.254 L1244.98 216.254 L1272.98 244.254 L1300.98 216.254 L1272.98 188.254 Z" fill="#e31a1c" fill-rule="evenodd" fill-opacity="1" stroke="#000000" stroke-opacity="1" stroke-width="0"></path>
<path clip-path="url(#clip092)" d="M1358.48 165.941 L1330.48 193.941 L1358.48 221.941 L1386.48 193.941 L1358.48 165.941 Z" fill="#e31a1c" fill-rule="evenodd" fill-opacity="1" stroke="#000000" stroke-opacity="1" stroke-width="0"></path>
<path clip-path="url(#clip092)" d="M1443.99 147.132 L1415.99 175.132 L1443.99 203.132 L1471.99 175.132 L1443.99 147.132 Z" fill="#e31a1c" fill-rule="evenodd" fill-opacity="1" stroke="#000000" stroke-opacity="1" stroke-width="0"></path>
<path clip-path="url(#clip092)" d="M1529.5 131.07 L1501.5 159.07 L1529.5 187.07 L1557.5 159.07 L1529.5 131.07 Z" fill="#e31a1c" fill-rule="evenodd" fill-opacity="1" stroke="#000000" stroke-opacity="1" stroke-width="0"></path>
<path clip-path="url(#clip092)" d="M1615.01 117.195 L1587.01 145.195 L1615.01 173.195 L1643.01 145.195 L1615.01 117.195 Z" fill="#e31a1c" fill-rule="evenodd" fill-opacity="1" stroke="#000000" stroke-opacity="1" stroke-width="0"></path>
<path clip-path="url(#clip092)" d="M1700.52 105.085 L1672.52 133.085 L1700.52 161.085 L1728.52 133.085 L1700.52 105.085 Z" fill="#e31a1c" fill-rule="evenodd" fill-opacity="1" stroke="#000000" stroke-opacity="1" stroke-width="0"></path>
<path clip-path="url(#clip092)" d="M1786.03 94.4076 L1758.03 122.408 L1786.03 150.408 L1814.03 122.408 L1786.03 94.4076 Z" fill="#e31a1c" fill-rule="evenodd" fill-opacity="1" stroke="#000000" stroke-opacity="1" stroke-width="0"></path>
<path clip-path="url(#clip092)" d="M1871.54 84.8979 L1843.54 112.898 L1871.54 140.898 L1899.54 112.898 L1871.54 84.8979 Z" fill="#e31a1c" fill-rule="evenodd" fill-opacity="1" stroke="#000000" stroke-opacity="1" stroke-width="0"></path>
<path clip-path="url(#clip092)" d="M1957.05 76.3525 L1929.05 104.353 L1957.05 132.353 L1985.05 104.353 L1957.05 76.3525 Z" fill="#e31a1c" fill-rule="evenodd" fill-opacity="1" stroke="#000000" stroke-opacity="1" stroke-width="0"></path>
<path clip-path="url(#clip092)" d="M2042.56 68.6333 L2014.56 96.6333 L2042.56 124.633 L2070.56 96.6333 L2042.56 68.6333 Z" fill="#e31a1c" fill-rule="evenodd" fill-opacity="1" stroke="#000000" stroke-opacity="1" stroke-width="0"></path>
<path clip-path="url(#clip092)" d="M2128.07 61.6773 L2100.07 89.6773 L2128.07 117.677 L2156.07 89.6773 L2128.07 61.6773 Z" fill="#e31a1c" fill-rule="evenodd" fill-opacity="1" stroke="#000000" stroke-opacity="1" stroke-width="0"></path>
<path clip-path="url(#clip092)" d="M2213.57 55.5037 L2185.57 83.5037 L2213.57 111.504 L2241.57 83.5037 L2213.57 55.5037 Z" fill="#e31a1c" fill-rule="evenodd" fill-opacity="1" stroke="#000000" stroke-opacity="1" stroke-width="0"></path>
<path clip-path="url(#clip092)" d="M417.885 1264.16 L389.885 1292.16 L417.885 1320.16 L445.885 1292.16 L417.885 1264.16 Z" fill="#377db8" fill-rule="evenodd" fill-opacity="1" stroke="#000000" stroke-opacity="1" stroke-width="0"></path>
<path clip-path="url(#clip092)" d="M503.394 1049.18 L475.394 1077.18 L503.394 1105.18 L531.394 1077.18 L503.394 1049.18 Z" fill="#377db8" fill-rule="evenodd" fill-opacity="1" stroke="#000000" stroke-opacity="1" stroke-width="0"></path>
<path clip-path="url(#clip092)" d="M588.903 923.46 L560.903 951.46 L588.903 979.46 L616.903 951.46 L588.903 923.46 Z" fill="#377db8" fill-rule="evenodd" fill-opacity="1" stroke="#000000" stroke-opacity="1" stroke-width="0"></path>
<path clip-path="url(#clip092)" d="M674.412 821.826 L646.412 849.826 L674.412 877.826 L702.412 849.826 L674.412 821.826 Z" fill="#377db8" fill-rule="evenodd" fill-opacity="1" stroke="#000000" stroke-opacity="1" stroke-width="0"></path>
<path clip-path="url(#clip092)" d="M759.921 721.994 L731.921 749.994 L759.921 777.994 L787.921 749.994 L759.921 721.994 Z" fill="#377db8" fill-rule="evenodd" fill-opacity="1" stroke="#000000" stroke-opacity="1" stroke-width="0"></path>
<path clip-path="url(#clip092)" d="M845.43 636.068 L817.43 664.068 L845.43 692.068 L873.43 664.068 L845.43 636.068 Z" fill="#377db8" fill-rule="evenodd" fill-opacity="1" stroke="#000000" stroke-opacity="1" stroke-width="0"></path>
<path clip-path="url(#clip092)" d="M930.939 566.722 L902.939 594.722 L930.939 622.722 L958.939 594.722 L930.939 566.722 Z" fill="#377db8" fill-rule="evenodd" fill-opacity="1" stroke="#000000" stroke-opacity="1" stroke-width="0"></path>
<path clip-path="url(#clip092)" d="M1016.45 511.414 L988.448 539.414 L1016.45 567.414 L1044.45 539.414 L1016.45 511.414 Z" fill="#377db8" fill-rule="evenodd" fill-opacity="1" stroke="#000000" stroke-opacity="1" stroke-width="0"></path>
<path clip-path="url(#clip092)" d="M1101.96 466.967 L1073.96 494.967 L1101.96 522.967 L1129.96 494.967 L1101.96 466.967 Z" fill="#377db8" fill-rule="evenodd" fill-opacity="1" stroke="#000000" stroke-opacity="1" stroke-width="0"></path>
<path clip-path="url(#clip092)" d="M1187.47 430.761 L1159.47 458.761 L1187.47 486.761 L1215.47 458.761 L1187.47 430.761 Z" fill="#377db8" fill-rule="evenodd" fill-opacity="1" stroke="#000000" stroke-opacity="1" stroke-width="0"></path>
<path clip-path="url(#clip092)" d="M1272.98 400.834 L1244.98 428.834 L1272.98 456.834 L1300.98 428.834 L1272.98 400.834 Z" fill="#377db8" fill-rule="evenodd" fill-opacity="1" stroke="#000000" stroke-opacity="1" stroke-width="0"></path>
<path clip-path="url(#clip092)" d="M1358.48 375.752 L1330.48 403.752 L1358.48 431.752 L1386.48 403.752 L1358.48 375.752 Z" fill="#377db8" fill-rule="evenodd" fill-opacity="1" stroke="#000000" stroke-opacity="1" stroke-width="0"></path>
<path clip-path="url(#clip092)" d="M1443.99 354.462 L1415.99 382.462 L1443.99 410.462 L1471.99 382.462 L1443.99 354.462 Z" fill="#377db8" fill-rule="evenodd" fill-opacity="1" stroke="#000000" stroke-opacity="1" stroke-width="0"></path>
<path clip-path="url(#clip092)" d="M1529.5 336.185 L1501.5 364.185 L1529.5 392.185 L1557.5 364.185 L1529.5 336.185 Z" fill="#377db8" fill-rule="evenodd" fill-opacity="1" stroke="#000000" stroke-opacity="1" stroke-width="0"></path>
<path clip-path="url(#clip092)" d="M1615.01 320.347 L1587.01 348.347 L1615.01 376.347 L1643.01 348.347 L1615.01 320.347 Z" fill="#377db8" fill-rule="evenodd" fill-opacity="1" stroke="#000000" stroke-opacity="1" stroke-width="0"></path>
<path clip-path="url(#clip092)" d="M1700.52 306.534 L1672.52 334.534 L1700.52 362.534 L1728.52 334.534 L1700.52 306.534 Z" fill="#377db8" fill-rule="evenodd" fill-opacity="1" stroke="#000000" stroke-opacity="1" stroke-width="0"></path>
<path clip-path="url(#clip092)" d="M1786.03 294.456 L1758.03 322.456 L1786.03 350.456 L1814.03 322.456 L1786.03 294.456 Z" fill="#377db8" fill-rule="evenodd" fill-opacity="1" stroke="#000000" stroke-opacity="1" stroke-width="0"></path>
<path clip-path="url(#clip092)" d="M1871.54 283.895 L1843.54 311.895 L1871.54 339.895 L1899.54 311.895 L1871.54 283.895 Z" fill="#377db8" fill-rule="evenodd" fill-opacity="1" stroke="#000000" stroke-opacity="1" stroke-width="0"></path>
<path clip-path="url(#clip092)" d="M1957.05 274.634 L1929.05 302.634 L1957.05 330.634 L1985.05 302.634 L1957.05 274.634 Z" fill="#377db8" fill-rule="evenodd" fill-opacity="1" stroke="#000000" stroke-opacity="1" stroke-width="0"></path>
<path clip-path="url(#clip092)" d="M2042.56 266.409 L2014.56 294.409 L2042.56 322.409 L2070.56 294.409 L2042.56 266.409 Z" fill="#377db8" fill-rule="evenodd" fill-opacity="1" stroke="#000000" stroke-opacity="1" stroke-width="0"></path>
<path clip-path="url(#clip092)" d="M2128.07 258.893 L2100.07 286.893 L2128.07 314.893 L2156.07 286.893 L2128.07 258.893 Z" fill="#377db8" fill-rule="evenodd" fill-opacity="1" stroke="#000000" stroke-opacity="1" stroke-width="0"></path>
<path clip-path="url(#clip092)" d="M2213.57 251.728 L2185.57 279.728 L2213.57 307.728 L2241.57 279.728 L2213.57 251.728 Z" fill="#377db8" fill-rule="evenodd" fill-opacity="1" stroke="#000000" stroke-opacity="1" stroke-width="0"></path>
<path clip-path="url(#clip092)" d="M417.885 1264.16 L389.885 1292.16 L417.885 1320.16 L445.885 1292.16 L417.885 1264.16 Z" fill="#4dae49" fill-rule="evenodd" fill-opacity="1" stroke="#000000" stroke-opacity="1" stroke-width="0"></path>
<path clip-path="url(#clip092)" d="M503.394 1167.6 L475.394 1195.6 L503.394 1223.6 L531.394 1195.6 L503.394 1167.6 Z" fill="#4dae49" fill-rule="evenodd" fill-opacity="1" stroke="#000000" stroke-opacity="1" stroke-width="0"></path>
<path clip-path="url(#clip092)" d="M588.903 1062.31 L560.903 1090.31 L588.903 1118.31 L616.903 1090.31 L588.903 1062.31 Z" fill="#4dae49" fill-rule="evenodd" fill-opacity="1" stroke="#000000" stroke-opacity="1" stroke-width="0"></path>
<path clip-path="url(#clip092)" d="M674.412 994.964 L646.412 1022.96 L674.412 1050.96 L702.412 1022.96 L674.412 994.964 Z" fill="#4dae49" fill-rule="evenodd" fill-opacity="1" stroke="#000000" stroke-opacity="1" stroke-width="0"></path>
<path clip-path="url(#clip092)" d="M759.921 937.193 L731.921 965.193 L759.921 993.193 L787.921 965.193 L759.921 937.193 Z" fill="#4dae49" fill-rule="evenodd" fill-opacity="1" stroke="#000000" stroke-opacity="1" stroke-width="0"></path>
<path clip-path="url(#clip092)" d="M845.43 880.582 L817.43 908.582 L845.43 936.582 L873.43 908.582 L845.43 880.582 Z" fill="#4dae49" fill-rule="evenodd" fill-opacity="1" stroke="#000000" stroke-opacity="1" stroke-width="0"></path>
<path clip-path="url(#clip092)" d="M930.939 829.573 L902.939 857.573 L930.939 885.573 L958.939 857.573 L930.939 829.573 Z" fill="#4dae49" fill-rule="evenodd" fill-opacity="1" stroke="#000000" stroke-opacity="1" stroke-width="0"></path>
<path clip-path="url(#clip092)" d="M1016.45 786.049 L988.448 814.049 L1016.45 842.049 L1044.45 814.049 L1016.45 786.049 Z" fill="#4dae49" fill-rule="evenodd" fill-opacity="1" stroke="#000000" stroke-opacity="1" stroke-width="0"></path>
<path clip-path="url(#clip092)" d="M1101.96 749.611 L1073.96 777.611 L1101.96 805.611 L1129.96 777.611 L1101.96 749.611 Z" fill="#4dae49" fill-rule="evenodd" fill-opacity="1" stroke="#000000" stroke-opacity="1" stroke-width="0"></path>
<path clip-path="url(#clip092)" d="M1187.47 719.16 L1159.47 747.16 L1187.47 775.16 L1215.47 747.16 L1187.47 719.16 Z" fill="#4dae49" fill-rule="evenodd" fill-opacity="1" stroke="#000000" stroke-opacity="1" stroke-width="0"></path>
<path clip-path="url(#clip092)" d="M1272.98 693.573 L1244.98 721.573 L1272.98 749.573 L1300.98 721.573 L1272.98 693.573 Z" fill="#4dae49" fill-rule="evenodd" fill-opacity="1" stroke="#000000" stroke-opacity="1" stroke-width="0"></path>
<path clip-path="url(#clip092)" d="M1358.48 671.896 L1330.48 699.896 L1358.48 727.896 L1386.48 699.896 L1358.48 671.896 Z" fill="#4dae49" fill-rule="evenodd" fill-opacity="1" stroke="#000000" stroke-opacity="1" stroke-width="0"></path>
<path clip-path="url(#clip092)" d="M1443.99 653.366 L1415.99 681.366 L1443.99 709.366 L1471.99 681.366 L1443.99 653.366 Z" fill="#4dae49" fill-rule="evenodd" fill-opacity="1" stroke="#000000" stroke-opacity="1" stroke-width="0"></path>
<path clip-path="url(#clip092)" d="M1529.5 637.377 L1501.5 665.377 L1529.5 693.377 L1557.5 665.377 L1529.5 637.377 Z" fill="#4dae49" fill-rule="evenodd" fill-opacity="1" stroke="#000000" stroke-opacity="1" stroke-width="0"></path>
<path clip-path="url(#clip092)" d="M1615.01 623.427 L1587.01 651.427 L1615.01 679.427 L1643.01 651.427 L1615.01 623.427 Z" fill="#4dae49" fill-rule="evenodd" fill-opacity="1" stroke="#000000" stroke-opacity="1" stroke-width="0"></path>
<path clip-path="url(#clip092)" d="M1700.52 611.079 L1672.52 639.079 L1700.52 667.079 L1728.52 639.079 L1700.52 611.079 Z" fill="#4dae49" fill-rule="evenodd" fill-opacity="1" stroke="#000000" stroke-opacity="1" stroke-width="0"></path>
<path clip-path="url(#clip092)" d="M1786.03 599.988 L1758.03 627.988 L1786.03 655.988 L1814.03 627.988 L1786.03 599.988 Z" fill="#4dae49" fill-rule="evenodd" fill-opacity="1" stroke="#000000" stroke-opacity="1" stroke-width="0"></path>
<path clip-path="url(#clip092)" d="M1871.54 589.95 L1843.54 617.95 L1871.54 645.95 L1899.54 617.95 L1871.54 589.95 Z" fill="#4dae49" fill-rule="evenodd" fill-opacity="1" stroke="#000000" stroke-opacity="1" stroke-width="0"></path>
<path clip-path="url(#clip092)" d="M1957.05 580.905 L1929.05 608.905 L1957.05 636.905 L1985.05 608.905 L1957.05 580.905 Z" fill="#4dae49" fill-rule="evenodd" fill-opacity="1" stroke="#000000" stroke-opacity="1" stroke-width="0"></path>
<path clip-path="url(#clip092)" d="M2042.56 572.865 L2014.56 600.865 L2042.56 628.865 L2070.56 600.865 L2042.56 572.865 Z" fill="#4dae49" fill-rule="evenodd" fill-opacity="1" stroke="#000000" stroke-opacity="1" stroke-width="0"></path>
<path clip-path="url(#clip092)" d="M2128.07 565.795 L2100.07 593.795 L2128.07 621.795 L2156.07 593.795 L2128.07 565.795 Z" fill="#4dae49" fill-rule="evenodd" fill-opacity="1" stroke="#000000" stroke-opacity="1" stroke-width="0"></path>
<path clip-path="url(#clip092)" d="M2213.57 559.543 L2185.57 587.543 L2213.57 615.543 L2241.57 587.543 L2213.57 559.543 Z" fill="#4dae49" fill-rule="evenodd" fill-opacity="1" stroke="#000000" stroke-opacity="1" stroke-width="0"></path>
<path clip-path="url(#clip092)" d="M417.885 1264.16 L389.885 1292.16 L417.885 1320.16 L445.885 1292.16 L417.885 1264.16 Z" fill="#974ea2" fill-rule="evenodd" fill-opacity="1" stroke="#000000" stroke-opacity="1" stroke-width="0"></path>
<path clip-path="url(#clip092)" d="M503.394 1224.65 L475.394 1252.65 L503.394 1280.65 L531.394 1252.65 L503.394 1224.65 Z" fill="#974ea2" fill-rule="evenodd" fill-opacity="1" stroke="#000000" stroke-opacity="1" stroke-width="0"></path>
<path clip-path="url(#clip092)" d="M588.903 1152.83 L560.903 1180.83 L588.903 1208.83 L616.903 1180.83 L588.903 1152.83 Z" fill="#974ea2" fill-rule="evenodd" fill-opacity="1" stroke="#000000" stroke-opacity="1" stroke-width="0"></path>
<path clip-path="url(#clip092)" d="M674.412 1096.42 L646.412 1124.42 L674.412 1152.42 L702.412 1124.42 L674.412 1096.42 Z" fill="#974ea2" fill-rule="evenodd" fill-opacity="1" stroke="#000000" stroke-opacity="1" stroke-width="0"></path>
<path clip-path="url(#clip092)" d="M759.921 1059.33 L731.921 1087.33 L759.921 1115.33 L787.921 1087.33 L759.921 1059.33 Z" fill="#974ea2" fill-rule="evenodd" fill-opacity="1" stroke="#000000" stroke-opacity="1" stroke-width="0"></path>
<path clip-path="url(#clip092)" d="M845.43 1025.72 L817.43 1053.72 L845.43 1081.72 L873.43 1053.72 L845.43 1025.72 Z" fill="#974ea2" fill-rule="evenodd" fill-opacity="1" stroke="#000000" stroke-opacity="1" stroke-width="0"></path>
<path clip-path="url(#clip092)" d="M930.939 993.412 L902.939 1021.41 L930.939 1049.41 L958.939 1021.41 L930.939 993.412 Z" fill="#974ea2" fill-rule="evenodd" fill-opacity="1" stroke="#000000" stroke-opacity="1" stroke-width="0"></path>
<path clip-path="url(#clip092)" d="M1016.45 963.999 L988.448 991.999 L1016.45 1020 L1044.45 991.999 L1016.45 963.999 Z" fill="#974ea2" fill-rule="evenodd" fill-opacity="1" stroke="#000000" stroke-opacity="1" stroke-width="0"></path>
<path clip-path="url(#clip092)" d="M1101.96 938.249 L1073.96 966.249 L1101.96 994.249 L1129.96 966.249 L1101.96 938.249 Z" fill="#974ea2" fill-rule="evenodd" fill-opacity="1" stroke="#000000" stroke-opacity="1" stroke-width="0"></path>
<path clip-path="url(#clip092)" d="M1187.47 916.091 L1159.47 944.091 L1187.47 972.091 L1215.47 944.091 L1187.47 916.091 Z" fill="#974ea2" fill-rule="evenodd" fill-opacity="1" stroke="#000000" stroke-opacity="1" stroke-width="0"></path>
<path clip-path="url(#clip092)" d="M1272.98 897.113 L1244.98 925.113 L1272.98 953.113 L1300.98 925.113 L1272.98 897.113 Z" fill="#974ea2" fill-rule="evenodd" fill-opacity="1" stroke="#000000" stroke-opacity="1" stroke-width="0"></path>
<path clip-path="url(#clip092)" d="M1358.48 880.829 L1330.48 908.829 L1358.48 936.829 L1386.48 908.829 L1358.48 880.829 Z" fill="#974ea2" fill-rule="evenodd" fill-opacity="1" stroke="#000000" stroke-opacity="1" stroke-width="0"></path>
<path clip-path="url(#clip092)" d="M1443.99 866.795 L1415.99 894.795 L1443.99 922.795 L1471.99 894.795 L1443.99 866.795 Z" fill="#974ea2" fill-rule="evenodd" fill-opacity="1" stroke="#000000" stroke-opacity="1" stroke-width="0"></path>
<path clip-path="url(#clip092)" d="M1529.5 854.652 L1501.5 882.652 L1529.5 910.652 L1557.5 882.652 L1529.5 854.652 Z" fill="#974ea2" fill-rule="evenodd" fill-opacity="1" stroke="#000000" stroke-opacity="1" stroke-width="0"></path>
<path clip-path="url(#clip092)" d="M1615.01 844.145 L1587.01 872.145 L1615.01 900.145 L1643.01 872.145 L1615.01 844.145 Z" fill="#974ea2" fill-rule="evenodd" fill-opacity="1" stroke="#000000" stroke-opacity="1" stroke-width="0"></path>
<path clip-path="url(#clip092)" d="M1700.52 835.054 L1672.52 863.054 L1700.52 891.054 L1728.52 863.054 L1700.52 835.054 Z" fill="#974ea2" fill-rule="evenodd" fill-opacity="1" stroke="#000000" stroke-opacity="1" stroke-width="0"></path>
<path clip-path="url(#clip092)" d="M1786.03 827.105 L1758.03 855.105 L1786.03 883.105 L1814.03 855.105 L1786.03 827.105 Z" fill="#974ea2" fill-rule="evenodd" fill-opacity="1" stroke="#000000" stroke-opacity="1" stroke-width="0"></path>
<path clip-path="url(#clip092)" d="M1871.54 819.986 L1843.54 847.986 L1871.54 875.986 L1899.54 847.986 L1871.54 819.986 Z" fill="#974ea2" fill-rule="evenodd" fill-opacity="1" stroke="#000000" stroke-opacity="1" stroke-width="0"></path>
<path clip-path="url(#clip092)" d="M1957.05 813.484 L1929.05 841.484 L1957.05 869.484 L1985.05 841.484 L1957.05 813.484 Z" fill="#974ea2" fill-rule="evenodd" fill-opacity="1" stroke="#000000" stroke-opacity="1" stroke-width="0"></path>
<path clip-path="url(#clip092)" d="M2042.56 807.578 L2014.56 835.578 L2042.56 863.578 L2070.56 835.578 L2042.56 807.578 Z" fill="#974ea2" fill-rule="evenodd" fill-opacity="1" stroke="#000000" stroke-opacity="1" stroke-width="0"></path>
<path clip-path="url(#clip092)" d="M2128.07 802.401 L2100.07 830.401 L2128.07 858.401 L2156.07 830.401 L2128.07 802.401 Z" fill="#974ea2" fill-rule="evenodd" fill-opacity="1" stroke="#000000" stroke-opacity="1" stroke-width="0"></path>
<path clip-path="url(#clip092)" d="M2213.57 798.101 L2185.57 826.101 L2213.57 854.101 L2241.57 826.101 L2213.57 798.101 Z" fill="#974ea2" fill-rule="evenodd" fill-opacity="1" stroke="#000000" stroke-opacity="1" stroke-width="0"></path>
<path clip-path="url(#clip092)" d="M417.885 1264.16 L389.885 1292.16 L417.885 1320.16 L445.885 1292.16 L417.885 1264.16 Z" fill="#ff7e00" fill-rule="evenodd" fill-opacity="1" stroke="#000000" stroke-opacity="1" stroke-width="0"></path>
<path clip-path="url(#clip092)" d="M503.394 1247.44 L475.394 1275.44 L503.394 1303.44 L531.394 1275.44 L503.394 1247.44 Z" fill="#ff7e00" fill-rule="evenodd" fill-opacity="1" stroke="#000000" stroke-opacity="1" stroke-width="0"></path>
<path clip-path="url(#clip092)" d="M588.903 1202.22 L560.903 1230.22 L588.903 1258.22 L616.903 1230.22 L588.903 1202.22 Z" fill="#ff7e00" fill-rule="evenodd" fill-opacity="1" stroke="#000000" stroke-opacity="1" stroke-width="0"></path>
<path clip-path="url(#clip092)" d="M674.412 1156.09 L646.412 1184.09 L674.412 1212.09 L702.412 1184.09 L674.412 1156.09 Z" fill="#ff7e00" fill-rule="evenodd" fill-opacity="1" stroke="#000000" stroke-opacity="1" stroke-width="0"></path>
<path clip-path="url(#clip092)" d="M759.921 1127.59 L731.921 1155.59 L759.921 1183.59 L787.921 1155.59 L759.921 1127.59 Z" fill="#ff7e00" fill-rule="evenodd" fill-opacity="1" stroke="#000000" stroke-opacity="1" stroke-width="0"></path>
<path clip-path="url(#clip092)" d="M845.43 1107.53 L817.43 1135.53 L845.43 1163.53 L873.43 1135.53 L845.43 1107.53 Z" fill="#ff7e00" fill-rule="evenodd" fill-opacity="1" stroke="#000000" stroke-opacity="1" stroke-width="0"></path>
<path clip-path="url(#clip092)" d="M930.939 1089.28 L902.939 1117.28 L930.939 1145.28 L958.939 1117.28 L930.939 1089.28 Z" fill="#ff7e00" fill-rule="evenodd" fill-opacity="1" stroke="#000000" stroke-opacity="1" stroke-width="0"></path>
<path clip-path="url(#clip092)" d="M1016.45 1071.98 L988.448 1099.98 L1016.45 1127.98 L1044.45 1099.98 L1016.45 1071.98 Z" fill="#ff7e00" fill-rule="evenodd" fill-opacity="1" stroke="#000000" stroke-opacity="1" stroke-width="0"></path>
<path clip-path="url(#clip092)" d="M1101.96 1056.06 L1073.96 1084.06 L1101.96 1112.06 L1129.96 1084.06 L1101.96 1056.06 Z" fill="#ff7e00" fill-rule="evenodd" fill-opacity="1" stroke="#000000" stroke-opacity="1" stroke-width="0"></path>
<path clip-path="url(#clip092)" d="M1187.47 1041.84 L1159.47 1069.84 L1187.47 1097.84 L1215.47 1069.84 L1187.47 1041.84 Z" fill="#ff7e00" fill-rule="evenodd" fill-opacity="1" stroke="#000000" stroke-opacity="1" stroke-width="0"></path>
<path clip-path="url(#clip092)" d="M1272.98 1029.32 L1244.98 1057.32 L1272.98 1085.32 L1300.98 1057.32 L1272.98 1029.32 Z" fill="#ff7e00" fill-rule="evenodd" fill-opacity="1" stroke="#000000" stroke-opacity="1" stroke-width="0"></path>
<path clip-path="url(#clip092)" d="M1358.48 1018.36 L1330.48 1046.36 L1358.48 1074.36 L1386.48 1046.36 L1358.48 1018.36 Z" fill="#ff7e00" fill-rule="evenodd" fill-opacity="1" stroke="#000000" stroke-opacity="1" stroke-width="0"></path>
<path clip-path="url(#clip092)" d="M1443.99 1008.79 L1415.99 1036.79 L1443.99 1064.79 L1471.99 1036.79 L1443.99 1008.79 Z" fill="#ff7e00" fill-rule="evenodd" fill-opacity="1" stroke="#000000" stroke-opacity="1" stroke-width="0"></path>
<path clip-path="url(#clip092)" d="M1529.5 1000.37 L1501.5 1028.37 L1529.5 1056.37 L1557.5 1028.37 L1529.5 1000.37 Z" fill="#ff7e00" fill-rule="evenodd" fill-opacity="1" stroke="#000000" stroke-opacity="1" stroke-width="0"></path>
<path clip-path="url(#clip092)" d="M1615.01 992.903 L1587.01 1020.9 L1615.01 1048.9 L1643.01 1020.9 L1615.01 992.903 Z" fill="#ff7e00" fill-rule="evenodd" fill-opacity="1" stroke="#000000" stroke-opacity="1" stroke-width="0"></path>
<path clip-path="url(#clip092)" d="M1700.52 986.328 L1672.52 1014.33 L1700.52 1042.33 L1728.52 1014.33 L1700.52 986.328 Z" fill="#ff7e00" fill-rule="evenodd" fill-opacity="1" stroke="#000000" stroke-opacity="1" stroke-width="0"></path>
<path clip-path="url(#clip092)" d="M1786.03 980.644 L1758.03 1008.64 L1786.03 1036.64 L1814.03 1008.64 L1786.03 980.644 Z" fill="#ff7e00" fill-rule="evenodd" fill-opacity="1" stroke="#000000" stroke-opacity="1" stroke-width="0"></path>
<path clip-path="url(#clip092)" d="M1871.54 975.745 L1843.54 1003.74 L1871.54 1031.74 L1899.54 1003.74 L1871.54 975.745 Z" fill="#ff7e00" fill-rule="evenodd" fill-opacity="1" stroke="#000000" stroke-opacity="1" stroke-width="0"></path>
<path clip-path="url(#clip092)" d="M1957.05 971.371 L1929.05 999.371 L1957.05 1027.37 L1985.05 999.371 L1957.05 971.371 Z" fill="#ff7e00" fill-rule="evenodd" fill-opacity="1" stroke="#000000" stroke-opacity="1" stroke-width="0"></path>
<path clip-path="url(#clip092)" d="M2042.56 967.288 L2014.56 995.288 L2042.56 1023.29 L2070.56 995.288 L2042.56 967.288 Z" fill="#ff7e00" fill-rule="evenodd" fill-opacity="1" stroke="#000000" stroke-opacity="1" stroke-width="0"></path>
<path clip-path="url(#clip092)" d="M2128.07 963.478 L2100.07 991.478 L2128.07 1019.48 L2156.07 991.478 L2128.07 963.478 Z" fill="#ff7e00" fill-rule="evenodd" fill-opacity="1" stroke="#000000" stroke-opacity="1" stroke-width="0"></path>
<path clip-path="url(#clip092)" d="M2213.57 960.159 L2185.57 988.159 L2213.57 1016.16 L2241.57 988.159 L2213.57 960.159 Z" fill="#ff7e00" fill-rule="evenodd" fill-opacity="1" stroke="#000000" stroke-opacity="1" stroke-width="0"></path>
<path clip-path="url(#clip090)" d="M2347.07 924.936 L2752.76 924.936 L2752.76 458.376 L2347.07 458.376  Z" fill="#ffffff" fill-rule="evenodd" fill-opacity="1"></path>
<polyline clip-path="url(#clip090)" style="stroke:#000000; stroke-linecap:round; stroke-linejoin:round; stroke-width:4; stroke-opacity:1; fill:none" points="2347.07,924.936 2752.76,924.936 2752.76,458.376 2347.07,458.376 2347.07,924.936 "></polyline>
<polyline clip-path="url(#clip090)" style="stroke:#e31a1c; stroke-linecap:round; stroke-linejoin:round; stroke-width:24; stroke-opacity:1; fill:none" points="2373.61,536.136 2532.86,536.136 "></polyline>
<path clip-path="url(#clip090)" d="M2597 532.645 Q2597 537.774 2594.4 542.728 Q2591.83 547.682 2587.79 550.739 Q2583.75 553.76 2579.64 553.76 Q2577.18 553.76 2575.53 552.425 Q2573.91 551.055 2573.03 549.122 Q2572.37 551.512 2570.93 557.238 Q2569.49 562.965 2569.49 563.527 Q2569.49 563.843 2569.56 563.984 Q2569.63 564.125 2569.94 564.3 Q2570.26 564.511 2571.03 564.581 Q2571.8 564.687 2573.1 564.687 Q2573.77 564.687 2574.02 564.687 Q2574.3 564.722 2574.55 564.897 Q2574.83 565.073 2574.83 565.46 Q2574.83 566.9 2573.53 566.9 Q2572.37 566.9 2569.98 566.795 Q2567.59 566.689 2566.39 566.689 Q2565.38 566.689 2563.34 566.795 Q2561.3 566.9 2560.35 566.9 Q2559.4 566.9 2559.4 566.057 Q2559.4 565.565 2559.54 565.249 Q2559.65 564.968 2559.93 564.827 Q2560.21 564.722 2560.46 564.687 Q2560.67 564.687 2561.09 564.687 Q2562.71 564.687 2563.41 564.406 Q2564.11 564.16 2564.36 563.633 Q2564.64 563.141 2564.95 561.735 L2573.03 529.694 Q2573.53 527.55 2573.53 526.04 Q2573.53 524.142 2572.93 523.44 Q2572.33 522.737 2571.28 522.737 Q2569.45 522.737 2568.26 524.915 Q2567.06 527.094 2566.04 531.31 Q2565.73 532.469 2565.52 532.715 Q2565.34 532.961 2564.81 532.961 Q2563.93 532.926 2563.93 532.223 Q2563.93 532.048 2564.22 530.923 Q2564.5 529.764 2565.02 528.077 Q2565.59 526.356 2566.18 525.267 Q2566.53 524.529 2566.85 524.037 Q2567.17 523.545 2567.8 522.772 Q2568.47 521.999 2569.42 521.578 Q2570.36 521.156 2571.52 521.156 Q2573.77 521.156 2575.63 522.491 Q2577.5 523.826 2577.99 526.532 Q2579.99 524.178 2582.45 522.667 Q2584.91 521.156 2587.4 521.156 Q2591.55 521.156 2594.26 524.388 Q2597 527.586 2597 532.645 M2591.8 529.483 Q2591.8 526.286 2590.57 524.529 Q2589.37 522.737 2587.19 522.737 Q2584.49 522.737 2581.36 525.478 Q2578.27 528.077 2577.64 530.502 L2574.09 544.59 L2573.88 545.75 Q2573.88 545.96 2573.98 546.593 Q2574.12 547.19 2574.51 548.174 Q2574.93 549.158 2575.49 550.036 Q2576.09 550.879 2577.15 551.512 Q2578.23 552.144 2579.57 552.144 Q2581.71 552.144 2584.03 550.247 Q2586.39 548.35 2588.14 544.766 Q2589.23 542.447 2590.5 537.458 Q2591.8 532.434 2591.8 529.483 Z" fill="#000000" fill-rule="nonzero" fill-opacity="1"></path><path clip-path="url(#clip090)" d="M2615.2 542.025 Q2615.27 541.147 2616.64 541.147 L2660.73 541.147 Q2662.81 541.147 2662.84 541.955 Q2662.84 542.834 2660.87 542.798 L2617.13 542.798 Q2615.2 542.834 2615.2 542.025 M2615.2 527.972 Q2615.2 527.094 2616.71 527.129 L2660.66 527.129 Q2662.81 527.129 2662.84 527.972 Q2662.84 528.78 2661.01 528.78 L2616.64 528.78 Q2615.2 528.78 2615.2 527.972 Z" fill="#000000" fill-rule="nonzero" fill-opacity="1"></path><path clip-path="url(#clip090)" d="M2690.59 529.939 Q2690.59 519.364 2693.26 513.602 Q2696.98 505.03 2705.76 505.03 Q2707.63 505.03 2709.56 505.557 Q2711.53 506.049 2713.98 507.981 Q2716.48 509.913 2717.99 513.075 Q2720.87 519.189 2720.87 529.939 Q2720.87 540.444 2718.2 546.171 Q2714.3 554.533 2705.69 554.533 Q2702.46 554.533 2699.16 552.882 Q2695.89 551.23 2693.82 547.26 Q2690.59 541.323 2690.59 529.939 M2696.56 529.061 Q2696.56 539.917 2697.33 544.239 Q2698.21 548.912 2700.6 550.949 Q2703.02 552.952 2705.69 552.952 Q2708.57 552.952 2710.96 550.809 Q2713.39 548.631 2714.12 543.958 Q2714.93 539.355 2714.9 529.061 Q2714.9 519.048 2714.2 515.043 Q2713.25 510.37 2710.72 508.508 Q2708.22 506.611 2705.69 506.611 Q2704.74 506.611 2703.73 506.892 Q2702.74 507.173 2701.3 507.981 Q2699.86 508.789 2698.74 510.792 Q2697.65 512.794 2697.12 515.816 Q2696.56 519.716 2696.56 529.061 Z" fill="#000000" fill-rule="nonzero" fill-opacity="1"></path><polyline clip-path="url(#clip090)" style="stroke:#377db8; stroke-linecap:round; stroke-linejoin:round; stroke-width:24; stroke-opacity:1; fill:none" points="2373.61,613.896 2532.86,613.896 "></polyline>
<path clip-path="url(#clip090)" d="M2597 610.405 Q2597 615.534 2594.4 620.488 Q2591.83 625.442 2587.79 628.499 Q2583.75 631.52 2579.64 631.52 Q2577.18 631.52 2575.53 630.185 Q2573.91 628.815 2573.03 626.882 Q2572.37 629.272 2570.93 634.998 Q2569.49 640.725 2569.49 641.287 Q2569.49 641.603 2569.56 641.744 Q2569.63 641.885 2569.94 642.06 Q2570.26 642.271 2571.03 642.341 Q2571.8 642.447 2573.1 642.447 Q2573.77 642.447 2574.02 642.447 Q2574.3 642.482 2574.55 642.657 Q2574.83 642.833 2574.83 643.22 Q2574.83 644.66 2573.53 644.66 Q2572.37 644.66 2569.98 644.555 Q2567.59 644.449 2566.39 644.449 Q2565.38 644.449 2563.34 644.555 Q2561.3 644.66 2560.35 644.66 Q2559.4 644.66 2559.4 643.817 Q2559.4 643.325 2559.54 643.009 Q2559.65 642.728 2559.93 642.587 Q2560.21 642.482 2560.46 642.447 Q2560.67 642.447 2561.09 642.447 Q2562.71 642.447 2563.41 642.166 Q2564.11 641.92 2564.36 641.393 Q2564.64 640.901 2564.95 639.495 L2573.03 607.454 Q2573.53 605.31 2573.53 603.8 Q2573.53 601.902 2572.93 601.2 Q2572.33 600.497 2571.28 600.497 Q2569.45 600.497 2568.26 602.675 Q2567.06 604.854 2566.04 609.07 Q2565.73 610.229 2565.52 610.475 Q2565.34 610.721 2564.81 610.721 Q2563.93 610.686 2563.93 609.983 Q2563.93 609.808 2564.22 608.683 Q2564.5 607.524 2565.02 605.837 Q2565.59 604.116 2566.18 603.027 Q2566.53 602.289 2566.85 601.797 Q2567.17 601.305 2567.8 600.532 Q2568.47 599.759 2569.42 599.338 Q2570.36 598.916 2571.52 598.916 Q2573.77 598.916 2575.63 600.251 Q2577.5 601.586 2577.99 604.292 Q2579.99 601.938 2582.45 600.427 Q2584.91 598.916 2587.4 598.916 Q2591.55 598.916 2594.26 602.148 Q2597 605.346 2597 610.405 M2591.8 607.243 Q2591.8 604.046 2590.57 602.289 Q2589.37 600.497 2587.19 600.497 Q2584.49 600.497 2581.36 603.238 Q2578.27 605.837 2577.64 608.262 L2574.09 622.35 L2573.88 623.51 Q2573.88 623.72 2573.98 624.353 Q2574.12 624.95 2574.51 625.934 Q2574.93 626.918 2575.49 627.796 Q2576.09 628.639 2577.15 629.272 Q2578.23 629.904 2579.57 629.904 Q2581.71 629.904 2584.03 628.007 Q2586.39 626.11 2588.14 622.526 Q2589.23 620.207 2590.5 615.218 Q2591.8 610.194 2591.8 607.243 Z" fill="#000000" fill-rule="nonzero" fill-opacity="1"></path><path clip-path="url(#clip090)" d="M2615.2 619.785 Q2615.27 618.907 2616.64 618.907 L2660.73 618.907 Q2662.81 618.907 2662.84 619.715 Q2662.84 620.594 2660.87 620.558 L2617.13 620.558 Q2615.2 620.594 2615.2 619.785 M2615.2 605.732 Q2615.2 604.854 2616.71 604.889 L2660.66 604.889 Q2662.81 604.889 2662.84 605.732 Q2662.84 606.54 2661.01 606.54 L2616.64 606.54 Q2615.2 606.54 2615.2 605.732 Z" fill="#000000" fill-rule="nonzero" fill-opacity="1"></path><path clip-path="url(#clip090)" d="M2690.59 589.641 L2690.59 587.392 Q2699.23 587.392 2703.69 582.79 Q2704.92 582.79 2705.13 583.071 Q2705.34 583.352 2705.34 584.652 L2705.34 625.02 Q2705.34 627.164 2706.4 627.831 Q2707.45 628.499 2712.05 628.499 L2714.34 628.499 L2714.34 630.712 Q2711.81 630.501 2702.67 630.501 Q2693.54 630.501 2691.04 630.712 L2691.04 628.499 L2693.33 628.499 Q2697.86 628.499 2698.95 627.866 Q2700.04 627.199 2700.04 625.02 L2700.04 587.744 Q2696.28 589.641 2690.59 589.641 Z" fill="#000000" fill-rule="nonzero" fill-opacity="1"></path><polyline clip-path="url(#clip090)" style="stroke:#4dae49; stroke-linecap:round; stroke-linejoin:round; stroke-width:24; stroke-opacity:1; fill:none" points="2373.61,691.656 2532.86,691.656 "></polyline>
<path clip-path="url(#clip090)" d="M2597 688.165 Q2597 693.294 2594.4 698.248 Q2591.83 703.202 2587.79 706.259 Q2583.75 709.28 2579.64 709.28 Q2577.18 709.28 2575.53 707.945 Q2573.91 706.575 2573.03 704.642 Q2572.37 707.032 2570.93 712.758 Q2569.49 718.485 2569.49 719.047 Q2569.49 719.363 2569.56 719.504 Q2569.63 719.645 2569.94 719.82 Q2570.26 720.031 2571.03 720.101 Q2571.8 720.207 2573.1 720.207 Q2573.77 720.207 2574.02 720.207 Q2574.3 720.242 2574.55 720.417 Q2574.83 720.593 2574.83 720.98 Q2574.83 722.42 2573.53 722.42 Q2572.37 722.42 2569.98 722.315 Q2567.59 722.209 2566.39 722.209 Q2565.38 722.209 2563.34 722.315 Q2561.3 722.42 2560.35 722.42 Q2559.4 722.42 2559.4 721.577 Q2559.4 721.085 2559.54 720.769 Q2559.65 720.488 2559.93 720.347 Q2560.21 720.242 2560.46 720.207 Q2560.67 720.207 2561.09 720.207 Q2562.71 720.207 2563.41 719.926 Q2564.11 719.68 2564.36 719.153 Q2564.64 718.661 2564.95 717.255 L2573.03 685.214 Q2573.53 683.07 2573.53 681.56 Q2573.53 679.662 2572.93 678.96 Q2572.33 678.257 2571.28 678.257 Q2569.45 678.257 2568.26 680.435 Q2567.06 682.614 2566.04 686.83 Q2565.73 687.989 2565.52 688.235 Q2565.34 688.481 2564.81 688.481 Q2563.93 688.446 2563.93 687.743 Q2563.93 687.568 2564.22 686.443 Q2564.5 685.284 2565.02 683.597 Q2565.59 681.876 2566.18 680.787 Q2566.53 680.049 2566.85 679.557 Q2567.17 679.065 2567.8 678.292 Q2568.47 677.519 2569.42 677.098 Q2570.36 676.676 2571.52 676.676 Q2573.77 676.676 2575.63 678.011 Q2577.5 679.346 2577.99 682.052 Q2579.99 679.698 2582.45 678.187 Q2584.91 676.676 2587.4 676.676 Q2591.55 676.676 2594.26 679.908 Q2597 683.106 2597 688.165 M2591.8 685.003 Q2591.8 681.806 2590.57 680.049 Q2589.37 678.257 2587.19 678.257 Q2584.49 678.257 2581.36 680.998 Q2578.27 683.597 2577.64 686.022 L2574.09 700.11 L2573.88 701.27 Q2573.88 701.48 2573.98 702.113 Q2574.12 702.71 2574.51 703.694 Q2574.93 704.678 2575.49 705.556 Q2576.09 706.399 2577.15 707.032 Q2578.23 707.664 2579.57 707.664 Q2581.71 707.664 2584.03 705.767 Q2586.39 703.87 2588.14 700.286 Q2589.23 697.967 2590.5 692.978 Q2591.8 687.954 2591.8 685.003 Z" fill="#000000" fill-rule="nonzero" fill-opacity="1"></path><path clip-path="url(#clip090)" d="M2615.2 697.545 Q2615.27 696.667 2616.64 696.667 L2660.73 696.667 Q2662.81 696.667 2662.84 697.475 Q2662.84 698.354 2660.87 698.318 L2617.13 698.318 Q2615.2 698.354 2615.2 697.545 M2615.2 683.492 Q2615.2 682.614 2616.71 682.649 L2660.66 682.649 Q2662.81 682.649 2662.84 683.492 Q2662.84 684.3 2661.01 684.3 L2616.64 684.3 Q2615.2 684.3 2615.2 683.492 Z" fill="#000000" fill-rule="nonzero" fill-opacity="1"></path><path clip-path="url(#clip090)" d="M2690.59 708.472 Q2690.59 707.172 2690.69 706.786 Q2690.83 706.399 2691.39 705.802 L2705.2 690.413 Q2712.75 681.911 2712.75 674.498 Q2712.75 669.684 2710.23 666.241 Q2707.73 662.798 2703.13 662.798 Q2699.97 662.798 2697.3 664.731 Q2694.63 666.663 2693.4 670.106 Q2693.61 670.036 2694.34 670.036 Q2696.14 670.036 2697.12 671.16 Q2698.14 672.284 2698.14 673.795 Q2698.14 675.727 2696.87 676.676 Q2695.64 677.59 2694.41 677.59 Q2693.92 677.59 2693.26 677.484 Q2692.62 677.379 2691.6 676.395 Q2690.59 675.376 2690.59 673.584 Q2690.59 668.56 2694.38 664.555 Q2698.21 660.55 2704.04 660.55 Q2710.65 660.55 2714.97 664.485 Q2719.32 668.385 2719.32 674.498 Q2719.32 676.641 2718.66 678.608 Q2718.02 680.541 2717.15 682.052 Q2716.3 683.562 2713.98 685.987 Q2711.67 688.411 2709.8 690.132 Q2707.94 691.854 2703.76 695.508 L2696.14 702.921 L2709.1 702.921 Q2715.42 702.921 2715.92 702.359 Q2716.62 701.34 2717.5 695.964 L2719.32 695.964 L2717.29 708.472 L2690.59 708.472 Z" fill="#000000" fill-rule="nonzero" fill-opacity="1"></path><polyline clip-path="url(#clip090)" style="stroke:#974ea2; stroke-linecap:round; stroke-linejoin:round; stroke-width:24; stroke-opacity:1; fill:none" points="2373.61,769.416 2532.86,769.416 "></polyline>
<path clip-path="url(#clip090)" d="M2597 765.925 Q2597 771.054 2594.4 776.008 Q2591.83 780.962 2587.79 784.019 Q2583.75 787.04 2579.64 787.04 Q2577.18 787.04 2575.53 785.705 Q2573.91 784.335 2573.03 782.402 Q2572.37 784.792 2570.93 790.518 Q2569.49 796.245 2569.49 796.807 Q2569.49 797.123 2569.56 797.264 Q2569.63 797.405 2569.94 797.58 Q2570.26 797.791 2571.03 797.861 Q2571.8 797.967 2573.1 797.967 Q2573.77 797.967 2574.02 797.967 Q2574.3 798.002 2574.55 798.177 Q2574.83 798.353 2574.83 798.74 Q2574.83 800.18 2573.53 800.18 Q2572.37 800.18 2569.98 800.075 Q2567.59 799.969 2566.39 799.969 Q2565.38 799.969 2563.34 800.075 Q2561.3 800.18 2560.35 800.18 Q2559.4 800.18 2559.4 799.337 Q2559.4 798.845 2559.54 798.529 Q2559.65 798.248 2559.93 798.107 Q2560.21 798.002 2560.46 797.967 Q2560.67 797.967 2561.09 797.967 Q2562.71 797.967 2563.41 797.686 Q2564.11 797.44 2564.36 796.913 Q2564.64 796.421 2564.95 795.015 L2573.03 762.974 Q2573.53 760.83 2573.53 759.32 Q2573.53 757.422 2572.93 756.72 Q2572.33 756.017 2571.28 756.017 Q2569.45 756.017 2568.26 758.195 Q2567.06 760.374 2566.04 764.59 Q2565.73 765.749 2565.52 765.995 Q2565.34 766.241 2564.81 766.241 Q2563.93 766.206 2563.93 765.503 Q2563.93 765.328 2564.22 764.203 Q2564.5 763.044 2565.02 761.357 Q2565.59 759.636 2566.18 758.547 Q2566.53 757.809 2566.85 757.317 Q2567.17 756.825 2567.8 756.052 Q2568.47 755.279 2569.42 754.858 Q2570.36 754.436 2571.52 754.436 Q2573.77 754.436 2575.63 755.771 Q2577.5 757.106 2577.99 759.812 Q2579.99 757.458 2582.45 755.947 Q2584.91 754.436 2587.4 754.436 Q2591.55 754.436 2594.26 757.668 Q2597 760.866 2597 765.925 M2591.8 762.763 Q2591.8 759.566 2590.57 757.809 Q2589.37 756.017 2587.19 756.017 Q2584.49 756.017 2581.36 758.758 Q2578.27 761.357 2577.64 763.782 L2574.09 777.87 L2573.88 779.03 Q2573.88 779.24 2573.98 779.873 Q2574.12 780.47 2574.51 781.454 Q2574.93 782.438 2575.49 783.316 Q2576.09 784.159 2577.15 784.792 Q2578.23 785.424 2579.57 785.424 Q2581.71 785.424 2584.03 783.527 Q2586.39 781.63 2588.14 778.046 Q2589.23 775.727 2590.5 770.738 Q2591.8 765.714 2591.8 762.763 Z" fill="#000000" fill-rule="nonzero" fill-opacity="1"></path><path clip-path="url(#clip090)" d="M2615.2 775.305 Q2615.27 774.427 2616.64 774.427 L2660.73 774.427 Q2662.81 774.427 2662.84 775.235 Q2662.84 776.114 2660.87 776.078 L2617.13 776.078 Q2615.2 776.114 2615.2 775.305 M2615.2 761.252 Q2615.2 760.374 2616.71 760.409 L2660.66 760.409 Q2662.81 760.409 2662.84 761.252 Q2662.84 762.06 2661.01 762.06 L2616.64 762.06 Q2615.2 762.06 2615.2 761.252 Z" fill="#000000" fill-rule="nonzero" fill-opacity="1"></path><path clip-path="url(#clip090)" d="M2690.59 776.535 Q2690.59 774.392 2691.82 773.373 Q2693.04 772.354 2694.63 772.354 Q2696.28 772.354 2697.44 773.443 Q2698.63 774.497 2698.63 776.359 Q2698.63 778.362 2697.23 779.486 Q2695.86 780.611 2693.89 780.33 Q2695.61 783.211 2698.77 784.51 Q2701.97 785.81 2704.92 785.81 Q2708.01 785.81 2710.51 783.14 Q2713.04 780.47 2713.04 773.935 Q2713.04 768.384 2710.86 765.187 Q2708.71 761.99 2704.46 761.99 L2701.3 761.99 Q2700.21 761.99 2699.9 761.884 Q2699.58 761.779 2699.58 761.182 Q2699.58 760.479 2700.67 760.339 Q2701.76 760.339 2703.48 760.128 Q2707.66 759.987 2709.87 756.368 Q2711.88 752.996 2711.88 748.182 Q2711.88 743.791 2709.77 741.964 Q2707.7 740.102 2704.99 740.102 Q2702.46 740.102 2699.69 741.156 Q2696.91 742.21 2695.4 744.564 Q2699.86 744.564 2699.86 748.182 Q2699.86 749.763 2698.84 750.817 Q2697.86 751.836 2696.21 751.836 Q2694.63 751.836 2693.57 750.852 Q2692.52 749.834 2692.52 748.112 Q2692.52 744.001 2696.17 741.156 Q2699.86 738.31 2705.27 738.31 Q2710.61 738.31 2714.55 741.12 Q2718.52 743.931 2718.52 748.253 Q2718.52 752.504 2715.71 755.982 Q2712.9 759.46 2708.43 760.901 Q2713.91 761.99 2717.18 765.714 Q2720.45 769.403 2720.45 773.935 Q2720.45 779.557 2716.02 783.702 Q2711.6 787.813 2705.13 787.813 Q2699.16 787.813 2694.87 784.581 Q2690.59 781.348 2690.59 776.535 Z" fill="#000000" fill-rule="nonzero" fill-opacity="1"></path><polyline clip-path="url(#clip090)" style="stroke:#ff7e00; stroke-linecap:round; stroke-linejoin:round; stroke-width:24; stroke-opacity:1; fill:none" points="2373.61,847.176 2532.86,847.176 "></polyline>
<path clip-path="url(#clip090)" d="M2597 844.086 Q2597 849.215 2594.4 854.169 Q2591.83 859.123 2587.79 862.18 Q2583.75 865.201 2579.64 865.201 Q2577.18 865.201 2575.53 863.866 Q2573.91 862.496 2573.03 860.564 Q2572.37 862.953 2570.93 868.679 Q2569.49 874.406 2569.49 874.968 Q2569.49 875.285 2569.56 875.425 Q2569.63 875.566 2569.94 875.741 Q2570.26 875.952 2571.03 876.022 Q2571.8 876.128 2573.1 876.128 Q2573.77 876.128 2574.02 876.128 Q2574.3 876.163 2574.55 876.339 Q2574.83 876.514 2574.83 876.901 Q2574.83 878.341 2573.53 878.341 Q2572.37 878.341 2569.98 878.236 Q2567.59 878.13 2566.39 878.13 Q2565.38 878.13 2563.34 878.236 Q2561.3 878.341 2560.35 878.341 Q2559.4 878.341 2559.4 877.498 Q2559.4 877.006 2559.54 876.69 Q2559.65 876.409 2559.93 876.268 Q2560.21 876.163 2560.46 876.128 Q2560.67 876.128 2561.09 876.128 Q2562.71 876.128 2563.41 875.847 Q2564.11 875.601 2564.36 875.074 Q2564.64 874.582 2564.95 873.177 L2573.03 841.135 Q2573.53 838.991 2573.53 837.481 Q2573.53 835.583 2572.93 834.881 Q2572.33 834.178 2571.28 834.178 Q2569.45 834.178 2568.26 836.356 Q2567.06 838.535 2566.04 842.751 Q2565.73 843.91 2565.52 844.156 Q2565.34 844.402 2564.81 844.402 Q2563.93 844.367 2563.93 843.664 Q2563.93 843.489 2564.22 842.364 Q2564.5 841.205 2565.02 839.518 Q2565.59 837.797 2566.18 836.708 Q2566.53 835.97 2566.85 835.478 Q2567.17 834.986 2567.8 834.213 Q2568.47 833.44 2569.42 833.019 Q2570.36 832.597 2571.52 832.597 Q2573.77 832.597 2575.63 833.932 Q2577.5 835.267 2577.99 837.973 Q2579.99 835.619 2582.45 834.108 Q2584.91 832.597 2587.4 832.597 Q2591.55 832.597 2594.26 835.829 Q2597 839.027 2597 844.086 M2591.8 840.924 Q2591.8 837.727 2590.57 835.97 Q2589.37 834.178 2587.19 834.178 Q2584.49 834.178 2581.36 836.919 Q2578.27 839.518 2577.64 841.943 L2574.09 856.031 L2573.88 857.191 Q2573.88 857.401 2573.98 858.034 Q2574.12 858.631 2574.51 859.615 Q2574.93 860.599 2575.49 861.477 Q2576.09 862.32 2577.15 862.953 Q2578.23 863.585 2579.57 863.585 Q2581.71 863.585 2584.03 861.688 Q2586.39 859.791 2588.14 856.207 Q2589.23 853.888 2590.5 848.899 Q2591.8 843.875 2591.8 840.924 Z" fill="#000000" fill-rule="nonzero" fill-opacity="1"></path><path clip-path="url(#clip090)" d="M2615.2 853.467 Q2615.27 852.588 2616.64 852.588 L2660.73 852.588 Q2662.81 852.588 2662.84 853.396 Q2662.84 854.275 2660.87 854.239 L2617.13 854.239 Q2615.2 854.275 2615.2 853.467 M2615.2 839.413 Q2615.2 838.535 2616.71 838.57 L2660.66 838.57 Q2662.81 838.57 2662.84 839.413 Q2662.84 840.221 2661.01 840.221 L2616.64 840.221 Q2615.2 840.221 2615.2 839.413 Z" fill="#000000" fill-rule="nonzero" fill-opacity="1"></path><path clip-path="url(#clip090)" d="M2690.59 852.518 L2690.59 850.304 L2712.68 816.541 Q2713.25 815.663 2714.12 815.698 Q2714.93 815.698 2715.11 816.014 Q2715.28 816.33 2715.28 817.56 L2715.28 850.304 L2722.49 850.304 L2722.49 852.518 L2715.28 852.518 L2715.28 858.772 Q2715.28 860.845 2716.13 861.512 Q2717.01 862.18 2720.73 862.18 L2722.24 862.18 L2722.24 864.393 Q2719.29 864.182 2712.47 864.182 Q2705.69 864.182 2702.74 864.393 L2702.74 862.18 L2704.25 862.18 Q2707.98 862.18 2708.85 861.547 Q2709.73 860.88 2709.73 858.772 L2709.73 852.518 L2690.59 852.518 M2692.62 850.304 L2710.15 850.304 L2710.15 823.462 L2692.62 850.304 Z" fill="#000000" fill-rule="nonzero" fill-opacity="1"></path><path clip-path="url(#clip090)" d="M651.952 205.424 Q651.952 205.477 651.636 207.374 L639.62 255.279 Q638.988 257.808 637.196 260.338 Q635.457 262.92 632.664 265.134 Q629.923 267.4 625.707 268.77 Q621.544 270.193 616.748 270.193 Q609.106 270.193 605.734 268.559 Q602.414 266.978 602.414 263.605 Q602.414 260.654 604.258 258.968 Q606.103 257.334 608.211 257.334 Q610.213 257.334 611.267 258.494 Q612.321 259.653 612.321 261.129 Q612.321 262.762 611.214 264.396 Q610.108 266.082 607.894 266.715 Q611.425 267.822 616.537 267.822 Q627.341 267.822 631.978 256.386 Q632.084 256.227 632.084 256.175 L635.668 241.893 L635.509 241.787 Q634.614 242.841 633.191 244.054 Q631.82 245.213 628.869 246.636 Q625.918 248.059 623.019 248.059 Q616.959 248.059 612.796 243.421 Q608.685 238.731 608.685 230.984 Q608.685 225.345 610.951 219.706 Q613.27 214.014 616.853 209.851 Q620.49 205.635 625.127 203 Q629.818 200.365 634.35 200.365 Q637.512 200.365 640.2 202.262 Q642.887 204.107 644.363 207.163 Q644.627 204.634 646.05 203.58 Q647.525 202.526 648.79 202.526 Q650.213 202.526 651.056 203.316 Q651.952 204.054 651.952 205.424 M643.098 212.012 Q643.098 211.695 642.887 210.852 Q642.677 209.956 642.044 208.533 Q641.465 207.111 640.569 205.846 Q639.673 204.581 638.039 203.685 Q636.458 202.736 634.455 202.736 Q631.188 202.736 627.921 205.477 Q624.653 208.165 622.387 212.328 Q620.279 216.333 618.276 224.08 Q616.326 231.827 616.326 235.78 Q616.326 239.679 618.013 242.683 Q619.699 245.687 623.336 245.687 Q627.552 245.687 632.084 241.787 Q636.774 237.73 637.565 234.251 L642.782 213.645 Q643.098 212.381 643.098 212.012 Z" fill="#000000" fill-rule="nonzero" fill-opacity="1"></path><path clip-path="url(#clip090)" d="M679.146 249.532 L668.264 293.21 Q667.821 294.944 667.821 296.826 Q667.821 300.293 670.108 300.293 Q671.178 300.293 672.063 299.592 Q672.949 298.855 673.613 297.416 Q674.314 295.94 674.756 294.538 Q675.236 293.137 675.826 290.96 Q676.01 290.112 676.195 289.853 Q676.379 289.595 676.896 289.595 Q677.818 289.595 677.818 290.333 Q676.896 294.87 675.531 297.748 Q673.539 301.99 669.85 301.99 Q667.083 301.99 665.017 300.072 Q662.988 298.117 662.988 295.018 Q662.988 293.838 663.357 292.436 L672.875 254.66 L673.133 253.184 Q673.133 252.779 672.985 252.557 Q672.838 252.336 671.953 252.115 Q671.104 251.893 669.407 251.893 Q668.706 251.893 668.374 251.856 Q668.079 251.819 667.784 251.635 Q667.526 251.45 667.526 251.045 Q667.526 250.381 667.784 250.012 Q668.079 249.643 668.3 249.569 Q668.522 249.495 668.964 249.458 Q669.592 249.422 671.694 249.237 Q673.797 249.016 675.605 248.868 Q677.412 248.721 678.187 248.721 Q678.63 248.721 678.851 248.942 Q679.109 249.126 679.146 249.348 L679.146 249.532 Z" fill="#000000" fill-rule="nonzero" fill-opacity="1"></path><path clip-path="url(#clip090)" d="M720.451 231.669 Q720.557 230.351 722.612 230.351 L788.751 230.351 Q791.861 230.351 791.913 231.564 Q791.913 232.881 788.962 232.828 L723.35 232.828 Q720.451 232.881 720.451 231.669 M720.451 210.589 Q720.451 209.271 722.718 209.324 L788.646 209.324 Q791.861 209.324 791.913 210.589 Q791.913 211.801 789.173 211.801 L722.612 211.801 Q720.451 211.801 720.451 210.589 Z" fill="#000000" fill-rule="nonzero" fill-opacity="1"></path><path clip-path="url(#clip090)" d="M833.54 186.452 L833.54 183.079 Q846.504 183.079 853.197 176.175 Q855.042 176.175 855.358 176.597 Q855.674 177.019 855.674 178.968 L855.674 239.521 Q855.674 242.736 857.255 243.737 Q858.836 244.739 865.74 244.739 L869.166 244.739 L869.166 248.059 Q865.371 247.743 851.669 247.743 Q837.967 247.743 834.225 248.059 L834.225 244.739 L837.651 244.739 Q844.449 244.739 846.083 243.79 Q847.716 242.789 847.716 239.521 L847.716 183.606 Q842.078 186.452 833.54 186.452 Z" fill="#000000" fill-rule="nonzero" fill-opacity="1"></path></svg>