<svg xmlns="http://www.w3.org/2000/svg" xmlns:xlink="http://www.w3.org/1999/xlink" width="600" height="400" viewBox="0 0 2400 1600">
<defs>
  <clipPath id="clip690">
    <rect x="0" y="0" width="2400" height="1600"></rect>
  </clipPath>
</defs>
<path clip-path="url(#clip690)" d="M0 1600 L2400 1600 L2400 0 L0 0  Z" fill="#ffffff" fill-rule="evenodd" fill-opacity="1"></path>
<defs>
  <clipPath id="clip691">
    <rect x="480" y="0" width="1681" height="1600"></rect>
  </clipPath>
</defs>
<defs>
  <clipPath id="clip692">
    <rect x="263" y="47" width="1701" height="1373"></rect>
  </clipPath>
</defs>
<path clip-path="url(#clip690)" d="M187.191 1418.86 L1952.82 1418.86 L1952.82 47.2441 L187.191 47.2441  Z" fill="#ffffff" fill-rule="evenodd" fill-opacity="1"></path>
<defs>
  <clipPath id="clip693">
    <rect x="187" y="47" width="1767" height="1373"></rect>
  </clipPath>
</defs>
<polyline clip-path="url(#clip690)" style="stroke:#000000; stroke-linecap:round; stroke-linejoin:round; stroke-width:4; stroke-opacity:1; fill:none" points="187.191,1418.86 1952.82,1418.86 "></polyline>
<polyline clip-path="url(#clip690)" style="stroke:#000000; stroke-linecap:round; stroke-linejoin:round; stroke-width:4; stroke-opacity:1; fill:none" points="187.191,47.2441 1952.82,47.2441 "></polyline>
<polyline clip-path="url(#clip690)" style="stroke:#000000; stroke-linecap:round; stroke-linejoin:round; stroke-width:4; stroke-opacity:1; fill:none" points="237.162,1418.86 237.162,1399.96 "></polyline>
<polyline clip-path="url(#clip690)" style="stroke:#000000; stroke-linecap:round; stroke-linejoin:round; stroke-width:4; stroke-opacity:1; fill:none" points="653.583,1418.86 653.583,1399.96 "></polyline>
<polyline clip-path="url(#clip690)" style="stroke:#000000; stroke-linecap:round; stroke-linejoin:round; stroke-width:4; stroke-opacity:1; fill:none" points="1070,1418.86 1070,1399.96 "></polyline>
<polyline clip-path="url(#clip690)" style="stroke:#000000; stroke-linecap:round; stroke-linejoin:round; stroke-width:4; stroke-opacity:1; fill:none" points="1486.43,1418.86 1486.43,1399.96 "></polyline>
<polyline clip-path="url(#clip690)" style="stroke:#000000; stroke-linecap:round; stroke-linejoin:round; stroke-width:4; stroke-opacity:1; fill:none" points="1902.85,1418.86 1902.85,1399.96 "></polyline>
<path clip-path="url(#clip690)" d="M199.257 1471.83 Q199.257 1462.54 201.604 1457.48 Q204.877 1449.94 212.597 1449.94 Q214.234 1449.94 215.932 1450.4 Q217.661 1450.84 219.823 1452.53 Q222.015 1454.23 223.343 1457.01 Q225.875 1462.38 225.875 1471.83 Q225.875 1481.07 223.528 1486.1 Q220.101 1493.45 212.535 1493.45 Q209.695 1493.45 206.792 1492 Q203.92 1490.55 202.098 1487.06 Q199.257 1481.84 199.257 1471.83 M204.507 1471.06 Q204.507 1480.6 205.186 1484.4 Q205.958 1488.51 208.058 1490.3 Q210.189 1492.06 212.535 1492.06 Q215.067 1492.06 217.167 1490.18 Q219.298 1488.26 219.946 1484.15 Q220.657 1480.11 220.626 1471.06 Q220.626 1462.26 220.008 1458.74 Q219.174 1454.63 216.951 1453 Q214.759 1451.33 212.535 1451.33 Q211.702 1451.33 210.806 1451.58 Q209.942 1451.82 208.675 1452.53 Q207.409 1453.24 206.421 1455 Q205.464 1456.76 205.001 1459.42 Q204.507 1462.85 204.507 1471.06 Z" fill="#000000" fill-rule="nonzero" fill-opacity="1"></path><path clip-path="url(#clip690)" d="M234.738 1491.04 Q233.78 1490.02 233.78 1488.69 Q233.78 1487.37 234.738 1486.41 Q235.695 1485.42 237.146 1485.42 Q238.536 1485.42 239.462 1486.35 Q240.419 1487.24 240.419 1488.72 Q240.419 1490.18 239.4 1491.13 Q238.412 1492.06 237.146 1492.06 Q235.695 1492.06 234.738 1491.04 Z" fill="#000000" fill-rule="nonzero" fill-opacity="1"></path><path clip-path="url(#clip690)" d="M248.448 1471.83 Q248.448 1462.54 250.795 1457.48 Q254.068 1449.94 261.788 1449.94 Q263.424 1449.94 265.123 1450.4 Q266.852 1450.84 269.013 1452.53 Q271.206 1454.23 272.534 1457.01 Q275.066 1462.38 275.066 1471.83 Q275.066 1481.07 272.719 1486.1 Q269.291 1493.45 261.726 1493.45 Q258.885 1493.45 255.982 1492 Q253.111 1490.55 251.289 1487.06 Q248.448 1481.84 248.448 1471.83 M253.697 1471.06 Q253.697 1480.6 254.377 1484.4 Q255.149 1488.51 257.248 1490.3 Q259.379 1492.06 261.726 1492.06 Q264.258 1492.06 266.358 1490.18 Q268.489 1488.26 269.137 1484.15 Q269.847 1480.11 269.816 1471.06 Q269.816 1462.26 269.199 1458.74 Q268.365 1454.63 266.142 1453 Q263.949 1451.33 261.726 1451.33 Q260.892 1451.33 259.997 1451.58 Q259.132 1451.82 257.866 1452.53 Q256.6 1453.24 255.612 1455 Q254.655 1456.76 254.191 1459.42 Q253.697 1462.85 253.697 1471.06 Z" fill="#000000" fill-rule="nonzero" fill-opacity="1"></path><path clip-path="url(#clip690)" d="M616.019 1471.83 Q616.019 1462.54 618.365 1457.48 Q621.639 1449.94 629.358 1449.94 Q630.995 1449.94 632.693 1450.4 Q634.423 1450.84 636.584 1452.53 Q638.777 1454.23 640.104 1457.01 Q642.636 1462.38 642.636 1471.83 Q642.636 1481.07 640.29 1486.1 Q636.862 1493.45 629.297 1493.45 Q626.456 1493.45 623.553 1492 Q620.681 1490.55 618.859 1487.06 Q616.019 1481.84 616.019 1471.83 M621.268 1471.06 Q621.268 1480.6 621.947 1484.4 Q622.719 1488.51 624.819 1490.3 Q626.95 1492.06 629.297 1492.06 Q631.829 1492.06 633.928 1490.18 Q636.059 1488.26 636.708 1484.15 Q637.418 1480.11 637.387 1471.06 Q637.387 1462.26 636.769 1458.74 Q635.936 1454.63 633.712 1453 Q631.52 1451.33 629.297 1451.33 Q628.463 1451.33 627.567 1451.58 Q626.703 1451.82 625.437 1452.53 Q624.171 1453.24 623.183 1455 Q622.225 1456.76 621.762 1459.42 Q621.268 1462.85 621.268 1471.06 Z" fill="#000000" fill-rule="nonzero" fill-opacity="1"></path><path clip-path="url(#clip690)" d="M651.499 1491.04 Q650.542 1490.02 650.542 1488.69 Q650.542 1487.37 651.499 1486.41 Q652.456 1485.42 653.907 1485.42 Q655.297 1485.42 656.223 1486.35 Q657.181 1487.24 657.181 1488.72 Q657.181 1490.18 656.162 1491.13 Q655.173 1492.06 653.907 1492.06 Q652.456 1492.06 651.499 1491.04 Z" fill="#000000" fill-rule="nonzero" fill-opacity="1"></path><path clip-path="url(#clip690)" d="M665.888 1481.87 Q665.888 1479.99 666.907 1479.28 Q667.926 1478.53 669.007 1478.53 Q670.459 1478.53 671.292 1479.46 Q672.157 1480.36 672.157 1481.62 Q672.157 1482.89 671.292 1483.82 Q670.459 1484.71 669.007 1484.71 Q668.297 1484.71 667.926 1484.59 Q668.76 1487.49 671.292 1489.59 Q673.855 1491.69 677.221 1491.69 Q681.452 1491.69 683.984 1487.58 Q685.497 1484.93 685.497 1478.91 Q685.497 1473.59 684.354 1470.94 Q682.594 1466.89 678.981 1466.89 Q673.855 1466.89 670.829 1471.31 Q670.459 1471.86 670.026 1471.9 Q669.409 1471.9 669.254 1471.56 Q669.131 1471.19 669.131 1470.23 L669.131 1451.52 Q669.131 1450 669.748 1450 Q669.995 1450 670.52 1450.19 Q674.504 1451.95 678.919 1451.98 Q683.459 1451.98 687.535 1450.13 Q687.844 1449.94 688.029 1449.94 Q688.646 1449.94 688.677 1450.65 Q688.677 1450.9 688.152 1451.64 Q687.658 1452.35 686.578 1453.31 Q685.497 1454.23 684.107 1455.13 Q682.718 1456.02 680.68 1456.64 Q678.672 1457.23 676.449 1457.23 Q673.794 1457.23 671.076 1456.39 L671.076 1468.72 Q674.349 1465.5 679.105 1465.5 Q684.169 1465.5 687.658 1469.58 Q691.148 1473.66 691.148 1479.34 Q691.148 1485.3 687.01 1489.37 Q682.903 1493.45 677.345 1493.45 Q672.28 1493.45 669.069 1489.84 Q665.888 1486.22 665.888 1481.87 Z" fill="#000000" fill-rule="nonzero" fill-opacity="1"></path><path clip-path="url(#clip690)" d="M1033.68 1455.96 L1033.68 1453.99 Q1041.27 1453.99 1045.19 1449.94 Q1046.27 1449.94 1046.46 1450.19 Q1046.64 1450.43 1046.64 1451.58 L1046.64 1487.06 Q1046.64 1488.94 1047.57 1489.53 Q1048.5 1490.11 1052.54 1490.11 L1054.55 1490.11 L1054.55 1492.06 Q1052.33 1491.87 1044.3 1491.87 Q1036.27 1491.87 1034.08 1492.06 L1034.08 1490.11 L1036.08 1490.11 Q1040.07 1490.11 1041.02 1489.56 Q1041.98 1488.97 1041.98 1487.06 L1041.98 1454.29 Q1038.68 1455.96 1033.68 1455.96 Z" fill="#000000" fill-rule="nonzero" fill-opacity="1"></path><path clip-path="url(#clip690)" d="M1066.01 1491.04 Q1065.05 1490.02 1065.05 1488.69 Q1065.05 1487.37 1066.01 1486.41 Q1066.96 1485.42 1068.41 1485.42 Q1069.8 1485.42 1070.73 1486.35 Q1071.69 1487.24 1071.69 1488.72 Q1071.69 1490.18 1070.67 1491.13 Q1069.68 1492.06 1068.41 1492.06 Q1066.96 1492.06 1066.01 1491.04 Z" fill="#000000" fill-rule="nonzero" fill-opacity="1"></path><path clip-path="url(#clip690)" d="M1079.72 1471.83 Q1079.72 1462.54 1082.06 1457.48 Q1085.34 1449.94 1093.06 1449.94 Q1094.69 1449.94 1096.39 1450.4 Q1098.12 1450.84 1100.28 1452.53 Q1102.47 1454.23 1103.8 1457.01 Q1106.33 1462.38 1106.33 1471.83 Q1106.33 1481.07 1103.99 1486.1 Q1100.56 1493.45 1092.99 1493.45 Q1090.15 1493.45 1087.25 1492 Q1084.38 1490.55 1082.56 1487.06 Q1079.72 1481.84 1079.72 1471.83 M1084.97 1471.06 Q1084.97 1480.6 1085.64 1484.4 Q1086.42 1488.51 1088.52 1490.3 Q1090.65 1492.06 1092.99 1492.06 Q1095.53 1492.06 1097.63 1490.18 Q1099.76 1488.26 1100.41 1484.15 Q1101.12 1480.11 1101.08 1471.06 Q1101.08 1462.26 1100.47 1458.74 Q1099.63 1454.63 1097.41 1453 Q1095.22 1451.33 1092.99 1451.33 Q1092.16 1451.33 1091.26 1451.58 Q1090.4 1451.82 1089.13 1452.53 Q1087.87 1453.24 1086.88 1455 Q1085.92 1456.76 1085.46 1459.42 Q1084.97 1462.85 1084.97 1471.06 Z" fill="#000000" fill-rule="nonzero" fill-opacity="1"></path><path clip-path="url(#clip690)" d="M1450.44 1455.96 L1450.44 1453.99 Q1458.03 1453.99 1461.95 1449.94 Q1463.04 1449.94 1463.22 1450.19 Q1463.41 1450.43 1463.41 1451.58 L1463.41 1487.06 Q1463.41 1488.94 1464.33 1489.53 Q1465.26 1490.11 1469.3 1490.11 L1471.31 1490.11 L1471.31 1492.06 Q1469.09 1491.87 1461.06 1491.87 Q1453.03 1491.87 1450.84 1492.06 L1450.84 1490.11 L1452.85 1490.11 Q1456.83 1490.11 1457.79 1489.56 Q1458.74 1488.97 1458.74 1487.06 L1458.74 1454.29 Q1455.44 1455.96 1450.44 1455.96 Z" fill="#000000" fill-rule="nonzero" fill-opacity="1"></path><path clip-path="url(#clip690)" d="M1482.77 1491.04 Q1481.81 1490.02 1481.81 1488.69 Q1481.81 1487.37 1482.77 1486.41 Q1483.72 1485.42 1485.18 1485.42 Q1486.57 1485.42 1487.49 1486.35 Q1488.45 1487.24 1488.45 1488.72 Q1488.45 1490.18 1487.43 1491.13 Q1486.44 1492.06 1485.18 1492.06 Q1483.72 1492.06 1482.77 1491.04 Z" fill="#000000" fill-rule="nonzero" fill-opacity="1"></path><path clip-path="url(#clip690)" d="M1497.16 1481.87 Q1497.16 1479.99 1498.18 1479.28 Q1499.19 1478.53 1500.28 1478.53 Q1501.73 1478.53 1502.56 1479.46 Q1503.43 1480.36 1503.43 1481.62 Q1503.43 1482.89 1502.56 1483.82 Q1501.73 1484.71 1500.28 1484.71 Q1499.57 1484.71 1499.19 1484.59 Q1500.03 1487.49 1502.56 1489.59 Q1505.12 1491.69 1508.49 1491.69 Q1512.72 1491.69 1515.25 1487.58 Q1516.77 1484.93 1516.77 1478.91 Q1516.77 1473.59 1515.62 1470.94 Q1513.86 1466.89 1510.25 1466.89 Q1505.12 1466.89 1502.1 1471.31 Q1501.73 1471.86 1501.29 1471.9 Q1500.68 1471.9 1500.52 1471.56 Q1500.4 1471.19 1500.4 1470.23 L1500.4 1451.52 Q1500.4 1450 1501.02 1450 Q1501.26 1450 1501.79 1450.19 Q1505.77 1451.95 1510.19 1451.98 Q1514.73 1451.98 1518.8 1450.13 Q1519.11 1449.94 1519.3 1449.94 Q1519.91 1449.94 1519.95 1450.65 Q1519.95 1450.9 1519.42 1451.64 Q1518.93 1452.35 1517.85 1453.31 Q1516.77 1454.23 1515.38 1455.13 Q1513.99 1456.02 1511.95 1456.64 Q1509.94 1457.23 1507.72 1457.23 Q1505.06 1457.23 1502.34 1456.39 L1502.34 1468.72 Q1505.62 1465.5 1510.37 1465.5 Q1515.44 1465.5 1518.93 1469.58 Q1522.42 1473.66 1522.42 1479.34 Q1522.42 1485.3 1518.28 1489.37 Q1514.17 1493.45 1508.61 1493.45 Q1503.55 1493.45 1500.34 1489.84 Q1497.16 1486.22 1497.16 1481.87 Z" fill="#000000" fill-rule="nonzero" fill-opacity="1"></path><path clip-path="url(#clip690)" d="M1865.28 1492.06 Q1865.28 1490.92 1865.38 1490.58 Q1865.5 1490.24 1865.99 1489.71 L1878.13 1476.19 Q1884.77 1468.72 1884.77 1462.2 Q1884.77 1457.97 1882.54 1454.94 Q1880.35 1451.92 1876.31 1451.92 Q1873.53 1451.92 1871.18 1453.62 Q1868.83 1455.31 1867.75 1458.34 Q1867.94 1458.28 1868.59 1458.28 Q1870.16 1458.28 1871.03 1459.27 Q1871.92 1460.25 1871.92 1461.58 Q1871.92 1463.28 1870.81 1464.11 Q1869.73 1464.92 1868.65 1464.92 Q1868.22 1464.92 1867.63 1464.82 Q1867.07 1464.73 1866.18 1463.87 Q1865.28 1462.97 1865.28 1461.4 Q1865.28 1456.98 1868.62 1453.46 Q1871.98 1449.94 1877.11 1449.94 Q1882.92 1449.94 1886.71 1453.4 Q1890.54 1456.83 1890.54 1462.2 Q1890.54 1464.08 1889.96 1465.81 Q1889.4 1467.51 1888.63 1468.84 Q1887.89 1470.17 1885.85 1472.3 Q1883.81 1474.43 1882.17 1475.94 Q1880.54 1477.45 1876.86 1480.67 L1870.16 1487.18 L1881.56 1487.18 Q1887.11 1487.18 1887.55 1486.69 Q1888.16 1485.79 1888.94 1481.07 L1890.54 1481.07 L1888.75 1492.06 L1865.28 1492.06 Z" fill="#000000" fill-rule="nonzero" fill-opacity="1"></path><path clip-path="url(#clip690)" d="M1900.08 1491.04 Q1899.13 1490.02 1899.13 1488.69 Q1899.13 1487.37 1900.08 1486.41 Q1901.04 1485.42 1902.49 1485.42 Q1903.88 1485.42 1904.81 1486.35 Q1905.77 1487.24 1905.77 1488.72 Q1905.77 1490.18 1904.75 1491.13 Q1903.76 1492.06 1902.49 1492.06 Q1901.04 1492.06 1900.08 1491.04 Z" fill="#000000" fill-rule="nonzero" fill-opacity="1"></path><path clip-path="url(#clip690)" d="M1913.79 1471.83 Q1913.79 1462.54 1916.14 1457.48 Q1919.41 1449.94 1927.13 1449.94 Q1928.77 1449.94 1930.47 1450.4 Q1932.2 1450.84 1934.36 1452.53 Q1936.55 1454.23 1937.88 1457.01 Q1940.41 1462.38 1940.41 1471.83 Q1940.41 1481.07 1938.07 1486.1 Q1934.64 1493.45 1927.07 1493.45 Q1924.23 1493.45 1921.33 1492 Q1918.46 1490.55 1916.64 1487.06 Q1913.79 1481.84 1913.79 1471.83 M1919.04 1471.06 Q1919.04 1480.6 1919.72 1484.4 Q1920.5 1488.51 1922.59 1490.3 Q1924.73 1492.06 1927.07 1492.06 Q1929.6 1492.06 1931.7 1490.18 Q1933.84 1488.26 1934.48 1484.15 Q1935.19 1480.11 1935.16 1471.06 Q1935.16 1462.26 1934.55 1458.74 Q1933.71 1454.63 1931.49 1453 Q1929.3 1451.33 1927.07 1451.33 Q1926.24 1451.33 1925.34 1451.58 Q1924.48 1451.82 1923.21 1452.53 Q1921.95 1453.24 1920.96 1455 Q1920 1456.76 1919.54 1459.42 Q1919.04 1462.85 1919.04 1471.06 Z" fill="#000000" fill-rule="nonzero" fill-opacity="1"></path><path clip-path="url(#clip690)" d="M968.42 1540.17 L968.42 1538.3 Q975.622 1538.3 979.341 1534.46 Q980.365 1534.46 980.541 1534.7 Q980.717 1534.93 980.717 1536.01 L980.717 1569.65 Q980.717 1571.44 981.595 1572 Q982.473 1572.55 986.309 1572.55 L988.212 1572.55 L988.212 1574.4 Q986.104 1574.22 978.492 1574.22 Q970.879 1574.22 968.801 1574.4 L968.801 1572.55 L970.704 1572.55 Q974.48 1572.55 975.388 1572.03 Q976.296 1571.47 976.296 1569.65 L976.296 1538.59 Q973.163 1540.17 968.42 1540.17 Z" fill="#000000" fill-rule="nonzero" fill-opacity="1"></path><path clip-path="url(#clip690)" d="M998.115 1555.22 Q998.115 1546.41 1000.34 1541.61 Q1003.44 1534.46 1010.76 1534.46 Q1012.32 1534.46 1013.93 1534.9 Q1015.56 1535.31 1017.61 1536.92 Q1019.69 1538.53 1020.95 1541.17 Q1023.35 1546.26 1023.35 1555.22 Q1023.35 1563.97 1021.13 1568.75 Q1017.88 1575.72 1010.7 1575.72 Q1008.01 1575.72 1005.26 1574.34 Q1002.54 1572.96 1000.81 1569.65 Q998.115 1564.71 998.115 1555.22 M1003.09 1554.49 Q1003.09 1563.54 1003.74 1567.14 Q1004.47 1571.03 1006.46 1572.73 Q1008.48 1574.4 1010.7 1574.4 Q1013.11 1574.4 1015.1 1572.61 Q1017.12 1570.8 1017.73 1566.9 Q1018.4 1563.07 1018.38 1554.49 Q1018.38 1546.14 1017.79 1542.81 Q1017 1538.91 1014.89 1537.36 Q1012.81 1535.78 1010.7 1535.78 Q1009.91 1535.78 1009.07 1536.01 Q1008.25 1536.25 1007.05 1536.92 Q1005.84 1537.6 1004.91 1539.26 Q1004 1540.93 1003.56 1543.45 Q1003.09 1546.7 1003.09 1554.49 Z" fill="#000000" fill-rule="nonzero" fill-opacity="1"></path><path clip-path="url(#clip690)" d="M1029.5 1543.14 Q1029.5 1542.38 1029.56 1542.16 Q1029.64 1541.93 1029.97 1541.59 L1038.03 1532.61 Q1042.43 1527.65 1042.43 1523.32 Q1042.43 1520.52 1040.96 1518.51 Q1039.5 1516.5 1036.82 1516.5 Q1034.97 1516.5 1033.41 1517.63 Q1031.86 1518.75 1031.14 1520.76 Q1031.26 1520.72 1031.69 1520.72 Q1032.74 1520.72 1033.31 1521.38 Q1033.91 1522.03 1033.91 1522.92 Q1033.91 1524.04 1033.17 1524.6 Q1032.45 1525.13 1031.73 1525.13 Q1031.45 1525.13 1031.06 1525.07 Q1030.69 1525.01 1030.09 1524.43 Q1029.5 1523.84 1029.5 1522.79 Q1029.5 1519.86 1031.71 1517.52 Q1033.95 1515.19 1037.35 1515.19 Q1041.2 1515.19 1043.72 1517.48 Q1046.26 1519.76 1046.26 1523.32 Q1046.26 1524.58 1045.87 1525.72 Q1045.51 1526.85 1044.99 1527.73 Q1044.5 1528.61 1043.15 1530.03 Q1041.8 1531.44 1040.71 1532.45 Q1039.62 1533.45 1037.19 1535.58 L1032.74 1539.91 L1040.3 1539.91 Q1043.99 1539.91 1044.28 1539.58 Q1044.69 1538.98 1045.2 1535.85 L1046.26 1535.85 L1045.08 1543.14 L1029.5 1543.14 Z" fill="#000000" fill-rule="nonzero" fill-opacity="1"></path><path clip-path="url(#clip690)" d="M1102.44 1573.49 Q1102.15 1573.84 1101.62 1573.84 Q1101.12 1573.84 1100.77 1573.49 L1088.36 1561.08 L1075.94 1573.49 Q1075.59 1573.84 1075.07 1573.84 Q1074.57 1573.84 1074.25 1573.49 Q1073.89 1573.17 1073.89 1572.67 Q1073.89 1572.17 1074.25 1571.82 L1086.66 1559.41 L1074.25 1546.99 Q1073.89 1546.64 1073.89 1546.14 Q1073.89 1545.62 1074.25 1545.32 Q1074.57 1544.97 1075.07 1544.97 Q1075.59 1544.97 1075.94 1545.32 L1088.36 1557.74 L1100.77 1545.32 Q1101.12 1544.97 1101.62 1544.97 Q1102.15 1544.97 1102.44 1545.32 Q1102.79 1545.62 1102.79 1546.14 Q1102.79 1546.64 1102.44 1546.99 L1090.03 1559.41 L1102.44 1571.82 Q1102.79 1572.17 1102.79 1572.7 Q1102.79 1573.2 1102.44 1573.49 Z" fill="#000000" fill-rule="nonzero" fill-opacity="1"></path><path clip-path="url(#clip690)" d="M1170.93 1533.99 Q1170.93 1534.17 1170.75 1534.87 L1137.23 1572.35 L1147.47 1572.35 Q1150.49 1572.35 1152.77 1571.82 Q1155.06 1571.26 1156.64 1570.33 Q1158.22 1569.39 1159.45 1567.78 Q1160.71 1566.14 1161.53 1564.36 Q1162.35 1562.54 1163.2 1559.88 Q1163.52 1558.85 1163.66 1558.62 Q1163.81 1558.38 1164.19 1558.38 Q1164.57 1558.38 1164.78 1558.62 Q1164.98 1558.82 1164.98 1559.06 Q1164.98 1559.17 1164.92 1559.35 Q1164.89 1559.5 1164.84 1559.67 Q1164.78 1559.85 1164.75 1559.93 L1160.47 1573.2 Q1160.21 1574.05 1159.95 1574.22 Q1159.68 1574.4 1158.63 1574.4 L1132.54 1574.4 Q1131.63 1574.4 1131.34 1574.34 Q1131.05 1574.25 1131.05 1573.87 L1131.28 1572.79 L1164.81 1535.31 L1155.03 1535.31 Q1152.27 1535.31 1150.11 1535.81 Q1147.97 1536.28 1146.45 1537.16 Q1144.93 1538.01 1143.75 1539.44 Q1142.58 1540.85 1141.79 1542.48 Q1141 1544.09 1140.27 1546.35 L1140.18 1546.5 Q1140.1 1546.64 1140.04 1546.73 Q1139.98 1546.79 1139.83 1546.88 Q1139.69 1546.93 1139.51 1546.93 Q1139.19 1546.93 1138.98 1546.76 Q1138.81 1546.58 1138.81 1546.41 L1138.78 1546.26 Q1138.84 1545.73 1138.95 1545.44 L1142.26 1534.64 Q1142.53 1533.79 1142.79 1533.61 Q1143.05 1533.44 1144.11 1533.44 L1169.43 1533.44 Q1170.37 1533.44 1170.63 1533.53 Q1170.93 1533.61 1170.93 1533.99 Z" fill="#000000" fill-rule="nonzero" fill-opacity="1"></path><polyline clip-path="url(#clip690)" style="stroke:#000000; stroke-linecap:round; stroke-linejoin:round; stroke-width:4; stroke-opacity:1; fill:none" points="187.191,1418.86 187.191,47.2441 "></polyline>
<polyline clip-path="url(#clip690)" style="stroke:#000000; stroke-linecap:round; stroke-linejoin:round; stroke-width:4; stroke-opacity:1; fill:none" points="1952.82,1418.86 1952.82,47.2441 "></polyline>
<polyline clip-path="url(#clip690)" style="stroke:#000000; stroke-linecap:round; stroke-linejoin:round; stroke-width:4; stroke-opacity:1; fill:none" points="187.191,1380.04 202.599,1380.04 "></polyline>
<polyline clip-path="url(#clip690)" style="stroke:#000000; stroke-linecap:round; stroke-linejoin:round; stroke-width:4; stroke-opacity:1; fill:none" points="187.191,1105.64 202.599,1105.64 "></polyline>
<polyline clip-path="url(#clip690)" style="stroke:#000000; stroke-linecap:round; stroke-linejoin:round; stroke-width:4; stroke-opacity:1; fill:none" points="187.191,831.245 202.599,831.245 "></polyline>
<polyline clip-path="url(#clip690)" style="stroke:#000000; stroke-linecap:round; stroke-linejoin:round; stroke-width:4; stroke-opacity:1; fill:none" points="187.191,556.848 202.599,556.848 "></polyline>
<polyline clip-path="url(#clip690)" style="stroke:#000000; stroke-linecap:round; stroke-linejoin:round; stroke-width:4; stroke-opacity:1; fill:none" points="187.191,282.45 202.599,282.45 "></polyline>
<path clip-path="url(#clip690)" d="M124.573 1381.41 Q124.573 1372.12 126.92 1367.06 Q130.193 1359.52 137.913 1359.52 Q139.55 1359.52 141.248 1359.98 Q142.977 1360.42 145.139 1362.12 Q147.331 1363.81 148.659 1366.59 Q151.191 1371.97 151.191 1381.41 Q151.191 1390.65 148.844 1395.68 Q145.417 1403.03 137.851 1403.03 Q135.01 1403.03 132.108 1401.58 Q129.236 1400.13 127.414 1396.64 Q124.573 1391.42 124.573 1381.41 M129.823 1380.64 Q129.823 1390.18 130.502 1393.98 Q131.274 1398.09 133.374 1399.88 Q135.504 1401.64 137.851 1401.64 Q140.383 1401.64 142.483 1399.76 Q144.614 1397.84 145.262 1393.74 Q145.972 1389.69 145.942 1380.64 Q145.942 1371.84 145.324 1368.32 Q144.49 1364.21 142.267 1362.58 Q140.074 1360.91 137.851 1360.91 Q137.017 1360.91 136.122 1361.16 Q135.257 1361.4 133.991 1362.12 Q132.725 1362.83 131.737 1364.59 Q130.78 1366.35 130.317 1369 Q129.823 1372.43 129.823 1380.64 Z" fill="#000000" fill-rule="nonzero" fill-opacity="1"></path><path clip-path="url(#clip690)" d="M130.317 1091.15 L130.317 1089.17 Q137.913 1089.17 141.835 1085.12 Q142.915 1085.12 143.101 1085.37 Q143.286 1085.62 143.286 1086.76 L143.286 1122.24 Q143.286 1124.12 144.212 1124.71 Q145.139 1125.3 149.184 1125.3 L151.191 1125.3 L151.191 1127.24 Q148.968 1127.06 140.939 1127.06 Q132.91 1127.06 130.718 1127.24 L130.718 1125.3 L132.725 1125.3 Q136.709 1125.3 137.666 1124.74 Q138.623 1124.16 138.623 1122.24 L138.623 1089.48 Q135.319 1091.15 130.317 1091.15 Z" fill="#000000" fill-rule="nonzero" fill-opacity="1"></path><path clip-path="url(#clip690)" d="M125.932 852.845 Q125.932 851.703 126.024 851.363 Q126.148 851.024 126.642 850.499 L138.778 836.974 Q145.417 829.501 145.417 822.985 Q145.417 818.755 143.193 815.729 Q141.001 812.702 136.956 812.702 Q134.177 812.702 131.83 814.401 Q129.483 816.099 128.402 819.125 Q128.587 819.064 129.236 819.064 Q130.811 819.064 131.675 820.052 Q132.571 821.04 132.571 822.368 Q132.571 824.066 131.459 824.9 Q130.378 825.703 129.298 825.703 Q128.865 825.703 128.279 825.61 Q127.723 825.517 126.827 824.653 Q125.932 823.757 125.932 822.182 Q125.932 817.767 129.267 814.246 Q132.633 810.726 137.759 810.726 Q143.564 810.726 147.362 814.185 Q151.191 817.612 151.191 822.985 Q151.191 824.869 150.604 826.598 Q150.048 828.296 149.276 829.624 Q148.535 830.952 146.497 833.083 Q144.459 835.213 142.823 836.726 Q141.186 838.24 137.511 841.451 L130.811 847.966 L142.205 847.966 Q147.763 847.966 148.196 847.472 Q148.813 846.577 149.585 841.852 L151.191 841.852 L149.4 852.845 L125.932 852.845 Z" fill="#000000" fill-rule="nonzero" fill-opacity="1"></path><path clip-path="url(#clip690)" d="M124.944 569.925 Q124.944 568.042 126.024 567.146 Q127.105 566.251 128.495 566.251 Q129.946 566.251 130.965 567.208 Q132.015 568.134 132.015 569.771 Q132.015 571.531 130.78 572.519 Q129.576 573.507 127.846 573.26 Q129.359 575.792 132.139 576.935 Q134.949 578.077 137.542 578.077 Q140.26 578.077 142.452 575.73 Q144.675 573.384 144.675 567.64 Q144.675 562.761 142.761 559.951 Q140.877 557.141 137.141 557.141 L134.362 557.141 Q133.405 557.141 133.127 557.049 Q132.849 556.956 132.849 556.431 Q132.849 555.813 133.806 555.69 Q134.763 555.69 136.276 555.505 Q139.951 555.381 141.896 552.201 Q143.656 549.236 143.656 545.006 Q143.656 541.146 141.804 539.54 Q139.982 537.903 137.604 537.903 Q135.381 537.903 132.941 538.83 Q130.502 539.756 129.174 541.825 Q133.096 541.825 133.096 545.006 Q133.096 546.395 132.2 547.322 Q131.336 548.217 129.884 548.217 Q128.495 548.217 127.568 547.352 Q126.642 546.457 126.642 544.944 Q126.642 541.331 129.853 538.83 Q133.096 536.329 137.851 536.329 Q142.545 536.329 146.003 538.799 Q149.493 541.269 149.493 545.067 Q149.493 548.804 147.022 551.861 Q144.552 554.918 140.63 556.184 Q145.447 557.141 148.319 560.414 Q151.191 563.657 151.191 567.64 Q151.191 572.581 147.3 576.225 Q143.409 579.837 137.728 579.837 Q132.478 579.837 128.711 576.997 Q124.944 574.156 124.944 569.925 Z" fill="#000000" fill-rule="nonzero" fill-opacity="1"></path><path clip-path="url(#clip690)" d="M123.153 293.613 L123.153 291.668 L142.576 261.993 Q143.07 261.221 143.842 261.252 Q144.552 261.252 144.706 261.53 Q144.861 261.808 144.861 262.888 L144.861 291.668 L151.191 291.668 L151.191 293.613 L144.861 293.613 L144.861 299.11 Q144.861 300.931 145.602 301.518 Q146.374 302.105 149.647 302.105 L150.975 302.105 L150.975 304.05 Q148.381 303.865 142.39 303.865 Q136.431 303.865 133.837 304.05 L133.837 302.105 L135.165 302.105 Q138.438 302.105 139.21 301.549 Q139.982 300.962 139.982 299.11 L139.982 293.613 L123.153 293.613 M124.944 291.668 L140.352 291.668 L140.352 268.076 L124.944 291.668 Z" fill="#000000" fill-rule="nonzero" fill-opacity="1"></path><path clip-path="url(#clip690)" d="M36.0394 888.52 L34.1656 888.52 Q34.1656 881.317 30.3302 877.599 Q30.3302 876.574 30.5644 876.398 Q30.7987 876.223 31.8819 876.223 L65.5224 876.223 Q67.3084 876.223 67.8647 875.344 Q68.421 874.466 68.421 870.631 L68.421 868.728 L70.2655 868.728 Q70.0898 870.836 70.0898 878.448 Q70.0898 886.06 70.2655 888.139 L68.421 888.139 L68.421 886.236 Q68.421 882.459 67.8939 881.551 Q67.3377 880.644 65.5224 880.644 L34.4584 880.644 Q36.0394 883.776 36.0394 888.52 Z" fill="#000000" fill-rule="nonzero" fill-opacity="1"></path><path clip-path="url(#clip690)" d="M51.0883 858.824 Q42.2756 858.824 37.474 856.599 Q30.3302 853.496 30.3302 846.176 Q30.3302 844.624 30.7694 843.014 Q31.1793 841.374 32.7896 839.325 Q34.3999 837.246 37.0349 835.987 Q42.1293 833.587 51.0883 833.587 Q59.8425 833.587 64.6148 835.812 Q71.583 839.062 71.583 846.235 Q71.583 848.928 70.2069 851.68 Q68.8308 854.403 65.5224 856.131 Q60.5744 858.824 51.0883 858.824 M50.3564 853.847 Q59.4033 853.847 63.0045 853.203 Q66.8985 852.471 68.5966 850.48 Q70.2655 848.46 70.2655 846.235 Q70.2655 843.834 68.4795 841.843 Q66.6643 839.823 62.7703 839.208 Q58.9349 838.535 50.3564 838.564 Q42.0121 838.564 38.6744 839.149 Q34.7805 839.94 33.2287 842.048 Q31.6477 844.127 31.6477 846.235 Q31.6477 847.025 31.8819 847.874 Q32.1162 848.694 32.7896 849.894 Q33.463 851.095 35.1318 852.032 Q36.8007 852.939 39.3186 853.378 Q42.5684 853.847 50.3564 853.847 Z" fill="#000000" fill-rule="nonzero" fill-opacity="1"></path><path clip-path="url(#clip690)" d="M32.2217 827.44 L30.9306 827.44 L11.2352 814.549 Q10.7228 814.221 10.7433 813.708 Q10.7433 813.237 10.9278 813.135 Q11.1122 813.032 11.8296 813.032 L30.9306 813.032 L30.9306 808.831 L32.2217 808.831 L32.2217 813.032 L35.8698 813.032 Q37.0789 813.032 37.4683 812.54 Q37.8577 812.028 37.8577 809.855 L37.8577 808.974 L39.1489 808.974 Q39.0259 810.696 39.0259 814.672 Q39.0259 818.627 39.1489 820.349 L37.8577 820.349 L37.8577 819.467 Q37.8577 817.295 37.4888 816.783 Q37.0994 816.27 35.8698 816.27 L32.2217 816.27 L32.2217 827.44 M30.9306 826.251 L30.9306 816.024 L15.2727 816.024 L30.9306 826.251 Z" fill="#000000" fill-rule="nonzero" fill-opacity="1"></path><path clip-path="url(#clip690)" d="M69.3579 752.672 Q69.7092 752.965 69.7092 753.492 Q69.7092 753.99 69.3579 754.341 L56.944 766.755 L69.3579 779.169 Q69.7092 779.52 69.7092 780.047 Q69.7092 780.545 69.3579 780.867 Q69.0358 781.218 68.5381 781.218 Q68.0403 781.218 67.689 780.867 L55.2751 768.453 L42.8612 780.867 Q42.5099 781.218 42.0121 781.218 Q41.4851 781.218 41.1924 780.867 Q40.841 780.545 40.841 780.047 Q40.841 779.52 41.1924 779.169 L53.6063 766.755 L41.1924 754.341 Q40.841 753.99 40.841 753.492 Q40.841 752.965 41.1924 752.672 Q41.4851 752.321 42.0121 752.321 Q42.5099 752.321 42.8612 752.672 L55.2751 765.086 L67.689 752.672 Q68.0403 752.321 68.5673 752.321 Q69.0651 752.321 69.3579 752.672 Z" fill="#000000" fill-rule="nonzero" fill-opacity="1"></path><path clip-path="url(#clip690)" d="M83.4113 724.065 L27.5781 724.065 Q25.3529 724.065 25.3529 722.864 Q25.3529 721.664 27.1389 721.664 L82.9721 721.664 Q85.1973 721.664 85.1973 722.864 Q85.1973 724.065 83.4113 724.065 Z" fill="#000000" fill-rule="nonzero" fill-opacity="1"></path><path clip-path="url(#clip690)" d="M63.3266 676.213 Q63.5901 675.979 63.8536 675.979 Q64.1171 675.979 64.8783 676.565 Q65.6395 677.121 66.6643 678.321 Q67.689 679.522 68.6552 681.073 Q69.6214 682.625 70.2655 684.909 Q70.9389 687.193 70.9389 689.593 Q70.9389 694.073 67.9818 696.708 Q65.0247 699.314 60.7794 699.314 Q56.6512 699.314 52.6986 697.001 Q48.7168 694.688 46.2575 690.94 Q43.7688 687.193 43.7688 683.24 Q43.7688 680.107 45.2327 678.146 Q46.6966 676.184 48.9218 676.184 Q50.6492 676.184 51.7032 677.179 Q52.7572 678.175 52.7572 679.522 Q52.7572 680.459 52.2302 681.103 Q51.6739 681.747 50.6492 681.747 Q49.3317 681.747 48.3069 680.664 Q47.897 680.254 47.7214 679.785 Q47.5164 679.287 47.5164 678.995 Q47.4871 678.702 47.4871 678.029 Q46.3453 678.643 45.7305 680.107 Q45.0863 681.542 45.0863 683.181 Q45.0863 685.612 46.7845 687.924 Q48.4533 690.237 51.0883 691.643 Q53.6648 693.048 57.3246 693.956 Q60.955 694.863 63.0631 694.863 Q65.9616 694.863 67.7768 693.517 Q69.5921 692.17 69.5921 689.476 Q69.5921 688.949 69.5628 688.393 Q69.5335 687.807 69.2115 686.343 Q68.8894 684.85 68.3331 683.533 Q67.7768 682.215 66.5764 680.546 Q65.3468 678.848 63.6779 677.502 Q63.0631 677.033 63.0631 676.711 Q63.0631 676.447 63.3266 676.213 Z" fill="#000000" fill-rule="nonzero" fill-opacity="1"></path><path clip-path="url(#clip690)" d="M75.7077 647.875 Q78.6999 647.875 81.5897 649.392 Q84.4794 650.888 86.2624 653.245 Q88.025 655.602 88.025 657.999 Q88.025 659.434 87.2462 660.397 Q86.4469 661.34 85.3197 661.852 Q86.7133 662.242 90.0539 663.082 Q93.3946 663.922 93.7225 663.922 Q93.9069 663.922 93.9889 663.881 Q94.0709 663.84 94.1734 663.656 Q94.2963 663.471 94.3373 663.021 Q94.3988 662.57 94.3988 661.811 Q94.3988 661.422 94.3988 661.279 Q94.4193 661.115 94.5218 660.971 Q94.6242 660.807 94.8497 660.807 Q95.69 660.807 95.69 661.565 Q95.69 662.242 95.6285 663.635 Q95.567 665.029 95.567 665.726 Q95.567 666.32 95.6285 667.509 Q95.69 668.698 95.69 669.251 Q95.69 669.804 95.1981 669.804 Q94.9112 669.804 94.7267 669.722 Q94.5628 669.661 94.4808 669.497 Q94.4193 669.333 94.3988 669.189 Q94.3988 669.066 94.3988 668.821 Q94.3988 667.878 94.2348 667.468 Q94.0914 667.058 93.784 666.915 Q93.497 666.751 92.6773 666.566 L73.9861 661.852 Q72.736 661.565 71.8547 661.565 Q70.748 661.565 70.3381 661.914 Q69.9282 662.262 69.9282 662.877 Q69.9282 663.943 71.1989 664.64 Q72.4695 665.336 74.9289 665.931 Q75.6052 666.115 75.7487 666.238 Q75.8921 666.341 75.8921 666.648 Q75.8717 667.16 75.4618 667.16 Q75.3593 667.16 74.7035 666.997 Q74.0271 666.833 73.0434 666.525 Q72.0392 666.197 71.4038 665.849 Q70.9734 665.644 70.6865 665.459 Q70.3996 665.275 69.9487 664.906 Q69.4978 664.517 69.2519 663.963 Q69.0059 663.41 69.0059 662.734 Q69.0059 661.422 69.7847 660.336 Q70.5635 659.25 72.1416 658.963 Q70.7685 657.794 69.8872 656.36 Q69.0059 654.925 69.0059 653.47 Q69.0059 651.052 70.8915 649.474 Q72.7565 647.875 75.7077 647.875 M73.8632 650.908 Q71.9982 650.908 70.9734 651.626 Q69.9282 652.322 69.9282 653.593 Q69.9282 655.171 71.5268 656.995 Q73.0434 658.799 74.4575 659.168 L82.6759 661.238 L83.3522 661.36 Q83.4752 661.36 83.8441 661.299 Q84.1925 661.217 84.7663 660.992 Q85.3402 660.746 85.8525 660.418 Q86.3444 660.069 86.7133 659.454 Q87.0822 658.819 87.0822 658.04 Q87.0822 656.79 85.9755 655.438 Q84.8688 654.064 82.7783 653.04 Q81.4257 652.404 78.5155 651.667 Q75.5847 650.908 73.8632 650.908 Z" fill="#000000" fill-rule="nonzero" fill-opacity="1"></path><path clip-path="url(#clip690)" d="M87.5536 645.368 Q86.7953 645.368 86.5699 645.306 Q86.3444 645.224 85.996 644.896 L77.0194 636.842 Q72.0596 632.436 67.7353 632.436 Q64.9275 632.436 62.919 633.911 Q60.9106 635.366 60.9106 638.051 Q60.9106 639.896 62.0378 641.453 Q63.165 643.011 65.1734 643.728 Q65.1325 643.605 65.1325 643.175 Q65.1325 642.13 65.7883 641.556 Q66.4441 640.961 67.3254 640.961 Q68.4526 640.961 69.0059 641.699 Q69.5388 642.417 69.5388 643.134 Q69.5388 643.421 69.4773 643.81 Q69.4158 644.179 68.842 644.773 Q68.2476 645.368 67.2024 645.368 Q64.2717 645.368 61.9353 643.154 Q59.5989 640.92 59.5989 637.518 Q59.5989 633.665 61.8943 631.144 Q64.1692 628.603 67.7353 628.603 Q68.9855 628.603 70.1332 628.993 Q71.2604 629.361 72.1416 629.874 Q73.0229 630.366 74.437 631.718 Q75.8512 633.071 76.8554 634.157 Q77.8596 635.243 79.9911 637.682 L84.3154 642.13 L84.3154 634.567 Q84.3154 630.878 83.9875 630.591 Q83.3932 630.181 80.2575 629.669 L80.2575 628.603 L87.5536 629.792 L87.5536 645.368 Z" fill="#000000" fill-rule="nonzero" fill-opacity="1"></path><path clip-path="url(#clip690)" d="M83.4113 602.335 L27.5781 602.335 Q25.3529 602.335 25.3529 601.135 Q25.3529 599.935 27.1389 599.935 L82.9721 599.935 Q85.1973 599.935 85.1973 601.135 Q85.1973 602.335 83.4113 602.335 Z" fill="#000000" fill-rule="nonzero" fill-opacity="1"></path><polyline clip-path="url(#clip693)" style="stroke:#e31a1c; stroke-linecap:round; stroke-linejoin:round; stroke-width:12; stroke-opacity:1; fill:none" points="237.162,1380.04 263.601,1362.25 290.04,1344.47 316.48,1326.68 342.919,1308.89 369.359,1291.1 395.798,1273.31 422.238,1255.53 448.677,1237.74 475.117,1219.95 501.556,1202.16 527.996,1184.38 554.435,1166.59 580.875,1148.8 607.314,1131.01 633.754,1113.22 660.193,1095.43 686.632,1077.64 713.072,1059.86 739.511,1042.07 765.951,1024.28 792.39,1006.49 818.83,988.698 845.269,970.908 871.709,953.118 898.148,935.328 924.588,917.538 951.027,899.747 977.467,881.956 1003.91,864.165 1030.35,846.373 1056.78,828.582 1083.22,810.79 1109.66,792.998 1136.1,775.205 1162.54,757.412 1188.98,739.619 1215.42,721.825 1241.86,704.032 1268.3,686.238 1294.74,668.443 1321.18,650.648 1347.62,632.853 1374.06,615.057 1400.5,597.261 1426.94,579.465 1453.38,561.668 1479.82,543.871 1506.26,526.074 1532.7,508.276 1559.13,490.477 1585.57,472.678 1612.01,454.879 1638.45,437.079 1664.89,419.279 1691.33,401.478 1717.77,383.677 1744.21,365.875 1770.65,348.073 1797.09,330.271 1823.53,312.467 1849.97,294.664 1876.41,276.859 1902.85,259.054 "></polyline>
<polyline clip-path="url(#clip693)" style="stroke:#377db8; stroke-linecap:round; stroke-linejoin:round; stroke-width:12; stroke-opacity:1; fill:none" points="237.162,1380.04 263.601,1359.5 290.04,1338.96 316.48,1318.42 342.919,1297.88 369.359,1277.34 395.798,1256.81 422.238,1236.27 448.677,1215.73 475.117,1195.19 501.556,1174.65 527.996,1154.11 554.435,1133.58 580.875,1113.04 607.314,1092.5 633.754,1071.97 660.193,1051.43 686.632,1030.9 713.072,1010.36 739.511,989.826 765.951,969.292 792.39,948.758 818.83,928.226 845.269,907.693 871.709,887.162 898.148,866.631 924.588,846.101 951.027,825.571 977.467,805.043 1003.91,784.515 1030.35,763.988 1056.78,743.462 1083.22,722.936 1109.66,702.412 1136.1,681.888 1162.54,661.366 1188.98,640.844 1215.42,620.324 1241.86,599.804 1268.3,579.286 1294.74,558.768 1321.18,538.252 1347.62,517.737 1374.06,497.223 1400.5,476.711 1426.94,456.199 1453.38,435.689 1479.82,415.18 1506.26,394.673 1532.7,374.167 1559.13,353.662 1585.57,333.158 1612.01,312.656 1638.45,292.156 1664.89,271.657 1691.33,251.159 1717.77,230.664 1744.21,210.169 1770.65,189.676 1797.09,169.185 1823.53,148.696 1849.97,128.208 1876.41,107.722 1902.85,87.2378 "></polyline>
<polyline clip-path="url(#clip693)" style="stroke:#4dae49; stroke-linecap:round; stroke-linejoin:round; stroke-width:12; stroke-opacity:1; fill:none" points="237.162,1380.04 263.601,1372.78 290.04,1365.52 316.48,1358.26 342.919,1350.99 369.359,1343.73 395.798,1336.47 422.238,1329.21 448.677,1321.95 475.117,1314.68 501.556,1307.42 527.996,1300.16 554.435,1292.9 580.875,1285.63 607.314,1278.37 633.754,1271.11 660.193,1263.85 686.632,1256.58 713.072,1249.32 739.511,1242.06 765.951,1234.79 792.39,1227.53 818.83,1220.27 845.269,1213 871.709,1205.74 898.148,1198.47 924.588,1191.21 951.027,1183.94 977.467,1176.68 1003.91,1169.41 1030.35,1162.15 1056.78,1154.88 1083.22,1147.61 1109.66,1140.35 1136.1,1133.08 1162.54,1125.81 1188.98,1118.54 1215.42,1111.28 1241.86,1104.01 1268.3,1096.74 1294.74,1089.47 1321.18,1082.2 1347.62,1074.93 1374.06,1067.66 1400.5,1060.39 1426.94,1053.12 1453.38,1045.85 1479.82,1038.57 1506.26,1031.3 1532.7,1024.03 1559.13,1016.76 1585.57,1009.48 1612.01,1002.21 1638.45,994.933 1664.89,987.658 1691.33,980.382 1717.77,973.106 1744.21,965.829 1770.65,958.551 1797.09,951.273 1823.53,943.995 1849.97,936.716 1876.41,929.436 1902.85,922.156 "></polyline>
<polyline clip-path="url(#clip693)" style="stroke:#974ea2; stroke-linecap:round; stroke-linejoin:round; stroke-width:12; stroke-opacity:1; fill:none" points="237.162,1380.04 263.601,1380.03 290.04,1380.02 316.48,1379.99 342.919,1379.95 369.359,1379.89 395.798,1379.83 422.238,1379.75 448.677,1379.66 475.117,1379.56 501.556,1379.45 527.996,1379.32 554.435,1379.19 580.875,1379.04 607.314,1378.88 633.754,1378.71 660.193,1378.52 686.632,1378.33 713.072,1378.12 739.511,1377.9 765.951,1377.67 792.39,1377.43 818.83,1377.17 845.269,1376.91 871.709,1376.63 898.148,1376.34 924.588,1376.04 951.027,1375.72 977.467,1375.4 1003.91,1375.06 1030.35,1374.71 1056.78,1374.35 1083.22,1373.98 1109.66,1373.59 1136.1,1373.2 1162.54,1372.79 1188.98,1372.37 1215.42,1371.94 1241.86,1371.49 1268.3,1371.04 1294.74,1370.57 1321.18,1370.09 1347.62,1369.6 1374.06,1369.1 1400.5,1368.59 1426.94,1368.06 1453.38,1367.52 1479.82,1366.97 1506.26,1366.41 1532.7,1365.84 1559.13,1365.25 1585.57,1364.66 1612.01,1364.05 1638.45,1363.43 1664.89,1362.8 1691.33,1362.16 1717.77,1361.5 1744.21,1360.84 1770.65,1360.16 1797.09,1359.47 1823.53,1358.77 1849.97,1358.05 1876.41,1357.33 1902.85,1356.59 "></polyline>
<polyline clip-path="url(#clip693)" style="stroke:#ff7e00; stroke-linecap:round; stroke-linejoin:round; stroke-width:12; stroke-opacity:1; fill:none" points="237.162,1380.04 263.601,1380.04 290.04,1380.04 316.48,1380.04 342.919,1380.04 369.359,1380.04 395.798,1380.04 422.238,1380.04 448.677,1380.04 475.117,1380.04 501.556,1380.04 527.996,1380.04 554.435,1380.03 580.875,1380.03 607.314,1380.03 633.754,1380.03 660.193,1380.02 686.632,1380.02 713.072,1380.02 739.511,1380.01 765.951,1380.01 792.39,1380 818.83,1380 845.269,1379.99 871.709,1379.98 898.148,1379.98 924.588,1379.97 951.027,1379.96 977.467,1379.95 1003.91,1379.94 1030.35,1379.93 1056.78,1379.92 1083.22,1379.91 1109.66,1379.89 1136.1,1379.88 1162.54,1379.87 1188.98,1379.85 1215.42,1379.83 1241.86,1379.82 1268.3,1379.8 1294.74,1379.78 1321.18,1379.76 1347.62,1379.74 1374.06,1379.72 1400.5,1379.69 1426.94,1379.67 1453.38,1379.64 1479.82,1379.62 1506.26,1379.59 1532.7,1379.56 1559.13,1379.53 1585.57,1379.5 1612.01,1379.47 1638.45,1379.43 1664.89,1379.4 1691.33,1379.36 1717.77,1379.32 1744.21,1379.29 1770.65,1379.24 1797.09,1379.2 1823.53,1379.16 1849.97,1379.12 1876.41,1379.07 1902.85,1379.02 "></polyline>
<path clip-path="url(#clip693)" d="M237.162 1362.04 L219.162 1380.04 L237.162 1398.04 L255.162 1380.04 L237.162 1362.04 Z" fill="#e31a1c" fill-rule="evenodd" fill-opacity="1" stroke="#000000" stroke-opacity="1" stroke-width="0"></path>
<path clip-path="url(#clip693)" d="M348.207 1287.33 L330.207 1305.33 L348.207 1323.33 L366.207 1305.33 L348.207 1287.33 Z" fill="#e31a1c" fill-rule="evenodd" fill-opacity="1" stroke="#000000" stroke-opacity="1" stroke-width="0"></path>
<path clip-path="url(#clip693)" d="M459.253 1212.62 L441.253 1230.62 L459.253 1248.62 L477.253 1230.62 L459.253 1212.62 Z" fill="#e31a1c" fill-rule="evenodd" fill-opacity="1" stroke="#000000" stroke-opacity="1" stroke-width="0"></path>
<path clip-path="url(#clip693)" d="M570.299 1137.92 L552.299 1155.92 L570.299 1173.92 L588.299 1155.92 L570.299 1137.92 Z" fill="#e31a1c" fill-rule="evenodd" fill-opacity="1" stroke="#000000" stroke-opacity="1" stroke-width="0"></path>
<path clip-path="url(#clip693)" d="M681.345 1063.21 L663.345 1081.21 L681.345 1099.21 L699.345 1081.21 L681.345 1063.21 Z" fill="#e31a1c" fill-rule="evenodd" fill-opacity="1" stroke="#000000" stroke-opacity="1" stroke-width="0"></path>
<path clip-path="url(#clip693)" d="M792.39 988.502 L774.39 1006.5 L792.39 1024.5 L810.39 1006.5 L792.39 988.502 Z" fill="#e31a1c" fill-rule="evenodd" fill-opacity="1" stroke="#000000" stroke-opacity="1" stroke-width="0"></path>
<path clip-path="url(#clip693)" d="M903.436 913.794 L885.436 931.794 L903.436 949.794 L921.436 931.794 L903.436 913.794 Z" fill="#e31a1c" fill-rule="evenodd" fill-opacity="1" stroke="#000000" stroke-opacity="1" stroke-width="0"></path>
<path clip-path="url(#clip693)" d="M1014.48 839.086 L996.482 857.086 L1014.48 875.086 L1032.48 857.086 L1014.48 839.086 Z" fill="#e31a1c" fill-rule="evenodd" fill-opacity="1" stroke="#000000" stroke-opacity="1" stroke-width="0"></path>
<path clip-path="url(#clip693)" d="M1125.53 764.378 L1107.53 782.378 L1125.53 800.378 L1143.53 782.378 L1125.53 764.378 Z" fill="#e31a1c" fill-rule="evenodd" fill-opacity="1" stroke="#000000" stroke-opacity="1" stroke-width="0"></path>
<path clip-path="url(#clip693)" d="M1236.57 689.67 L1218.57 707.67 L1236.57 725.67 L1254.57 707.67 L1236.57 689.67 Z" fill="#e31a1c" fill-rule="evenodd" fill-opacity="1" stroke="#000000" stroke-opacity="1" stroke-width="0"></path>
<path clip-path="url(#clip693)" d="M1347.62 614.962 L1329.62 632.962 L1347.62 650.962 L1365.62 632.962 L1347.62 614.962 Z" fill="#e31a1c" fill-rule="evenodd" fill-opacity="1" stroke="#000000" stroke-opacity="1" stroke-width="0"></path>
<path clip-path="url(#clip693)" d="M1458.66 540.255 L1440.66 558.255 L1458.66 576.255 L1476.66 558.255 L1458.66 540.255 Z" fill="#e31a1c" fill-rule="evenodd" fill-opacity="1" stroke="#000000" stroke-opacity="1" stroke-width="0"></path>
<path clip-path="url(#clip693)" d="M1569.71 465.547 L1551.71 483.547 L1569.71 501.547 L1587.71 483.547 L1569.71 465.547 Z" fill="#e31a1c" fill-rule="evenodd" fill-opacity="1" stroke="#000000" stroke-opacity="1" stroke-width="0"></path>
<path clip-path="url(#clip693)" d="M1680.76 390.839 L1662.76 408.839 L1680.76 426.839 L1698.76 408.839 L1680.76 390.839 Z" fill="#e31a1c" fill-rule="evenodd" fill-opacity="1" stroke="#000000" stroke-opacity="1" stroke-width="0"></path>
<path clip-path="url(#clip693)" d="M1791.8 316.131 L1773.8 334.131 L1791.8 352.131 L1809.8 334.131 L1791.8 316.131 Z" fill="#e31a1c" fill-rule="evenodd" fill-opacity="1" stroke="#000000" stroke-opacity="1" stroke-width="0"></path>
<path clip-path="url(#clip693)" d="M1902.85 241.423 L1884.85 259.423 L1902.85 277.423 L1920.85 259.423 L1902.85 241.423 Z" fill="#e31a1c" fill-rule="evenodd" fill-opacity="1" stroke="#000000" stroke-opacity="1" stroke-width="0"></path>
<path clip-path="url(#clip693)" d="M237.162 1362.04 L219.162 1380.04 L237.162 1398.04 L255.162 1380.04 L237.162 1362.04 Z" fill="#377db8" fill-rule="evenodd" fill-opacity="1" stroke="#000000" stroke-opacity="1" stroke-width="0"></path>
<path clip-path="url(#clip693)" d="M348.207 1275.78 L330.207 1293.78 L348.207 1311.78 L366.207 1293.78 L348.207 1275.78 Z" fill="#377db8" fill-rule="evenodd" fill-opacity="1" stroke="#000000" stroke-opacity="1" stroke-width="0"></path>
<path clip-path="url(#clip693)" d="M459.253 1189.51 L441.253 1207.51 L459.253 1225.51 L477.253 1207.51 L459.253 1189.51 Z" fill="#377db8" fill-rule="evenodd" fill-opacity="1" stroke="#000000" stroke-opacity="1" stroke-width="0"></path>
<path clip-path="url(#clip693)" d="M570.299 1103.25 L552.299 1121.25 L570.299 1139.25 L588.299 1121.25 L570.299 1103.25 Z" fill="#377db8" fill-rule="evenodd" fill-opacity="1" stroke="#000000" stroke-opacity="1" stroke-width="0"></path>
<path clip-path="url(#clip693)" d="M681.345 1016.98 L663.345 1034.98 L681.345 1052.98 L699.345 1034.98 L681.345 1016.98 Z" fill="#377db8" fill-rule="evenodd" fill-opacity="1" stroke="#000000" stroke-opacity="1" stroke-width="0"></path>
<path clip-path="url(#clip693)" d="M792.39 930.715 L774.39 948.715 L792.39 966.715 L810.39 948.715 L792.39 930.715 Z" fill="#377db8" fill-rule="evenodd" fill-opacity="1" stroke="#000000" stroke-opacity="1" stroke-width="0"></path>
<path clip-path="url(#clip693)" d="M903.436 844.45 L885.436 862.45 L903.436 880.45 L921.436 862.45 L903.436 844.45 Z" fill="#377db8" fill-rule="evenodd" fill-opacity="1" stroke="#000000" stroke-opacity="1" stroke-width="0"></path>
<path clip-path="url(#clip693)" d="M1014.48 758.185 L996.482 776.185 L1014.48 794.185 L1032.48 776.185 L1014.48 758.185 Z" fill="#377db8" fill-rule="evenodd" fill-opacity="1" stroke="#000000" stroke-opacity="1" stroke-width="0"></path>
<path clip-path="url(#clip693)" d="M1125.53 671.919 L1107.53 689.919 L1125.53 707.919 L1143.53 689.919 L1125.53 671.919 Z" fill="#377db8" fill-rule="evenodd" fill-opacity="1" stroke="#000000" stroke-opacity="1" stroke-width="0"></path>
<path clip-path="url(#clip693)" d="M1236.57 585.654 L1218.57 603.654 L1236.57 621.654 L1254.57 603.654 L1236.57 585.654 Z" fill="#377db8" fill-rule="evenodd" fill-opacity="1" stroke="#000000" stroke-opacity="1" stroke-width="0"></path>
<path clip-path="url(#clip693)" d="M1347.62 499.389 L1329.62 517.389 L1347.62 535.389 L1365.62 517.389 L1347.62 499.389 Z" fill="#377db8" fill-rule="evenodd" fill-opacity="1" stroke="#000000" stroke-opacity="1" stroke-width="0"></path>
<path clip-path="url(#clip693)" d="M1458.66 413.124 L1440.66 431.124 L1458.66 449.124 L1476.66 431.124 L1458.66 413.124 Z" fill="#377db8" fill-rule="evenodd" fill-opacity="1" stroke="#000000" stroke-opacity="1" stroke-width="0"></path>
<path clip-path="url(#clip693)" d="M1569.71 326.859 L1551.71 344.859 L1569.71 362.859 L1587.71 344.859 L1569.71 326.859 Z" fill="#377db8" fill-rule="evenodd" fill-opacity="1" stroke="#000000" stroke-opacity="1" stroke-width="0"></path>
<path clip-path="url(#clip693)" d="M1680.76 240.594 L1662.76 258.594 L1680.76 276.594 L1698.76 258.594 L1680.76 240.594 Z" fill="#377db8" fill-rule="evenodd" fill-opacity="1" stroke="#000000" stroke-opacity="1" stroke-width="0"></path>
<path clip-path="url(#clip693)" d="M1791.8 154.329 L1773.8 172.329 L1791.8 190.329 L1809.8 172.329 L1791.8 154.329 Z" fill="#377db8" fill-rule="evenodd" fill-opacity="1" stroke="#000000" stroke-opacity="1" stroke-width="0"></path>
<path clip-path="url(#clip693)" d="M1902.85 68.0634 L1884.85 86.0634 L1902.85 104.063 L1920.85 86.0634 L1902.85 68.0634 Z" fill="#377db8" fill-rule="evenodd" fill-opacity="1" stroke="#000000" stroke-opacity="1" stroke-width="0"></path>
<path clip-path="url(#clip693)" d="M237.162 1362.04 L219.162 1380.04 L237.162 1398.04 L255.162 1380.04 L237.162 1362.04 Z" fill="#4dae49" fill-rule="evenodd" fill-opacity="1" stroke="#000000" stroke-opacity="1" stroke-width="0"></path>
<path clip-path="url(#clip693)" d="M348.207 1331.54 L330.207 1349.54 L348.207 1367.54 L366.207 1349.54 L348.207 1331.54 Z" fill="#4dae49" fill-rule="evenodd" fill-opacity="1" stroke="#000000" stroke-opacity="1" stroke-width="0"></path>
<path clip-path="url(#clip693)" d="M459.253 1301.04 L441.253 1319.04 L459.253 1337.04 L477.253 1319.04 L459.253 1301.04 Z" fill="#4dae49" fill-rule="evenodd" fill-opacity="1" stroke="#000000" stroke-opacity="1" stroke-width="0"></path>
<path clip-path="url(#clip693)" d="M570.299 1270.54 L552.299 1288.54 L570.299 1306.54 L588.299 1288.54 L570.299 1270.54 Z" fill="#4dae49" fill-rule="evenodd" fill-opacity="1" stroke="#000000" stroke-opacity="1" stroke-width="0"></path>
<path clip-path="url(#clip693)" d="M681.345 1240.04 L663.345 1258.04 L681.345 1276.04 L699.345 1258.04 L681.345 1240.04 Z" fill="#4dae49" fill-rule="evenodd" fill-opacity="1" stroke="#000000" stroke-opacity="1" stroke-width="0"></path>
<path clip-path="url(#clip693)" d="M792.39 1209.54 L774.39 1227.54 L792.39 1245.54 L810.39 1227.54 L792.39 1209.54 Z" fill="#4dae49" fill-rule="evenodd" fill-opacity="1" stroke="#000000" stroke-opacity="1" stroke-width="0"></path>
<path clip-path="url(#clip693)" d="M903.436 1179.04 L885.436 1197.04 L903.436 1215.04 L921.436 1197.04 L903.436 1179.04 Z" fill="#4dae49" fill-rule="evenodd" fill-opacity="1" stroke="#000000" stroke-opacity="1" stroke-width="0"></path>
<path clip-path="url(#clip693)" d="M1014.48 1148.55 L996.482 1166.55 L1014.48 1184.55 L1032.48 1166.55 L1014.48 1148.55 Z" fill="#4dae49" fill-rule="evenodd" fill-opacity="1" stroke="#000000" stroke-opacity="1" stroke-width="0"></path>
<path clip-path="url(#clip693)" d="M1125.53 1118.05 L1107.53 1136.05 L1125.53 1154.05 L1143.53 1136.05 L1125.53 1118.05 Z" fill="#4dae49" fill-rule="evenodd" fill-opacity="1" stroke="#000000" stroke-opacity="1" stroke-width="0"></path>
<path clip-path="url(#clip693)" d="M1236.57 1087.55 L1218.57 1105.55 L1236.57 1123.55 L1254.57 1105.55 L1236.57 1087.55 Z" fill="#4dae49" fill-rule="evenodd" fill-opacity="1" stroke="#000000" stroke-opacity="1" stroke-width="0"></path>
<path clip-path="url(#clip693)" d="M1347.62 1057.05 L1329.62 1075.05 L1347.62 1093.05 L1365.62 1075.05 L1347.62 1057.05 Z" fill="#4dae49" fill-rule="evenodd" fill-opacity="1" stroke="#000000" stroke-opacity="1" stroke-width="0"></path>
<path clip-path="url(#clip693)" d="M1458.66 1026.55 L1440.66 1044.55 L1458.66 1062.55 L1476.66 1044.55 L1458.66 1026.55 Z" fill="#4dae49" fill-rule="evenodd" fill-opacity="1" stroke="#000000" stroke-opacity="1" stroke-width="0"></path>
<path clip-path="url(#clip693)" d="M1569.71 996.049 L1551.71 1014.05 L1569.71 1032.05 L1587.71 1014.05 L1569.71 996.049 Z" fill="#4dae49" fill-rule="evenodd" fill-opacity="1" stroke="#000000" stroke-opacity="1" stroke-width="0"></path>
<path clip-path="url(#clip693)" d="M1680.76 965.549 L1662.76 983.549 L1680.76 1001.55 L1698.76 983.549 L1680.76 965.549 Z" fill="#4dae49" fill-rule="evenodd" fill-opacity="1" stroke="#000000" stroke-opacity="1" stroke-width="0"></path>
<path clip-path="url(#clip693)" d="M1791.8 935.05 L1773.8 953.05 L1791.8 971.05 L1809.8 953.05 L1791.8 935.05 Z" fill="#4dae49" fill-rule="evenodd" fill-opacity="1" stroke="#000000" stroke-opacity="1" stroke-width="0"></path>
<path clip-path="url(#clip693)" d="M1902.85 904.551 L1884.85 922.551 L1902.85 940.551 L1920.85 922.551 L1902.85 904.551 Z" fill="#4dae49" fill-rule="evenodd" fill-opacity="1" stroke="#000000" stroke-opacity="1" stroke-width="0"></path>
<path clip-path="url(#clip690)" d="M2025 908.372 L2352.76 908.372 L2352.76 597.332 L2025 597.332  Z" fill="#ffffff" fill-rule="evenodd" fill-opacity="1"></path>
<polyline clip-path="url(#clip690)" style="stroke:#000000; stroke-linecap:round; stroke-linejoin:round; stroke-width:4; stroke-opacity:1; fill:none" points="2025,908.372 2352.76,908.372 2352.76,597.332 2025,597.332 2025,908.372 "></polyline>
<polyline clip-path="url(#clip690)" style="stroke:#e31a1c; stroke-linecap:round; stroke-linejoin:round; stroke-width:12; stroke-opacity:1; fill:none" points="2049.07,649.172 2193.44,649.172 "></polyline>
<path clip-path="url(#clip690)" d="M2242.56 646.853 Q2242.56 650.273 2240.83 653.575 Q2239.12 656.878 2236.42 658.916 Q2233.73 660.93 2230.99 660.93 Q2229.35 660.93 2228.25 660.04 Q2227.17 659.126 2226.59 657.838 Q2226.14 659.431 2225.18 663.249 Q2224.22 667.067 2224.22 667.441 Q2224.22 667.652 2224.27 667.746 Q2224.31 667.84 2224.53 667.957 Q2224.74 668.097 2225.25 668.144 Q2225.77 668.214 2226.63 668.214 Q2227.08 668.214 2227.24 668.214 Q2227.43 668.238 2227.59 668.355 Q2227.78 668.472 2227.78 668.73 Q2227.78 669.69 2226.91 669.69 Q2226.14 669.69 2224.55 669.62 Q2222.96 669.549 2222.16 669.549 Q2221.48 669.549 2220.12 669.62 Q2218.76 669.69 2218.13 669.69 Q2217.5 669.69 2217.5 669.128 Q2217.5 668.8 2217.59 668.589 Q2217.66 668.402 2217.85 668.308 Q2218.04 668.238 2218.2 668.214 Q2218.34 668.214 2218.62 668.214 Q2219.7 668.214 2220.17 668.027 Q2220.64 667.863 2220.8 667.512 Q2220.99 667.184 2221.2 666.247 L2226.59 644.886 Q2226.91 643.457 2226.91 642.45 Q2226.91 641.185 2226.52 640.716 Q2226.12 640.248 2225.42 640.248 Q2224.2 640.248 2223.4 641.7 Q2222.6 643.152 2221.93 645.963 Q2221.71 646.736 2221.57 646.9 Q2221.46 647.064 2221.11 647.064 Q2220.52 647.04 2220.52 646.572 Q2220.52 646.455 2220.71 645.705 Q2220.89 644.932 2221.25 643.808 Q2221.62 642.66 2222.02 641.934 Q2222.25 641.442 2222.46 641.115 Q2222.67 640.787 2223.1 640.271 Q2223.54 639.756 2224.17 639.475 Q2224.81 639.194 2225.58 639.194 Q2227.08 639.194 2228.32 640.084 Q2229.56 640.974 2229.89 642.778 Q2231.22 641.208 2232.86 640.201 Q2234.5 639.194 2236.17 639.194 Q2238.93 639.194 2240.73 641.349 Q2242.56 643.48 2242.56 646.853 M2239.09 644.745 Q2239.09 642.614 2238.27 641.442 Q2237.48 640.248 2236.03 640.248 Q2234.22 640.248 2232.14 642.075 Q2230.08 643.808 2229.65 645.424 L2227.29 654.817 L2227.15 655.59 Q2227.15 655.73 2227.22 656.152 Q2227.31 656.55 2227.57 657.206 Q2227.85 657.862 2228.23 658.447 Q2228.62 659.009 2229.33 659.431 Q2230.05 659.853 2230.94 659.853 Q2232.37 659.853 2233.92 658.588 Q2235.49 657.323 2236.66 654.934 Q2237.38 653.388 2238.23 650.062 Q2239.09 646.713 2239.09 644.745 Z" fill="#000000" fill-rule="nonzero" fill-opacity="1"></path><path clip-path="url(#clip690)" d="M2254.69 653.107 Q2254.74 652.521 2255.65 652.521 L2285.05 652.521 Q2286.43 652.521 2286.45 653.06 Q2286.45 653.646 2285.14 653.622 L2255.98 653.622 Q2254.69 653.646 2254.69 653.107 M2254.69 643.738 Q2254.69 643.152 2255.7 643.176 L2285 643.176 Q2286.43 643.176 2286.45 643.738 Q2286.45 644.277 2285.24 644.277 L2255.65 644.277 Q2254.69 644.277 2254.69 643.738 Z" fill="#000000" fill-rule="nonzero" fill-opacity="1"></path><path clip-path="url(#clip690)" d="M2304.94 645.05 Q2304.94 637.999 2306.72 634.158 Q2309.21 628.443 2315.06 628.443 Q2316.3 628.443 2317.59 628.794 Q2318.9 629.122 2320.54 630.411 Q2322.21 631.699 2323.21 633.807 Q2325.13 637.882 2325.13 645.05 Q2325.13 652.053 2323.35 655.871 Q2320.75 661.445 2315.02 661.445 Q2312.86 661.445 2310.66 660.344 Q2308.48 659.244 2307.1 656.597 Q2304.94 652.638 2304.94 645.05 M2308.93 644.464 Q2308.93 651.702 2309.44 654.582 Q2310.03 657.698 2311.62 659.056 Q2313.24 660.391 2315.02 660.391 Q2316.94 660.391 2318.53 658.962 Q2320.15 657.51 2320.64 654.395 Q2321.18 651.327 2321.15 644.464 Q2321.15 637.789 2320.68 635.118 Q2320.05 632.003 2318.37 630.762 Q2316.7 629.497 2315.02 629.497 Q2314.38 629.497 2313.7 629.684 Q2313.05 629.872 2312.09 630.411 Q2311.13 630.949 2310.38 632.284 Q2309.65 633.619 2309.3 635.634 Q2308.93 638.234 2308.93 644.464 Z" fill="#000000" fill-rule="nonzero" fill-opacity="1"></path><polyline clip-path="url(#clip690)" style="stroke:#377db8; stroke-linecap:round; stroke-linejoin:round; stroke-width:12; stroke-opacity:1; fill:none" points="2049.07,701.012 2193.44,701.012 "></polyline>
<path clip-path="url(#clip690)" d="M2242.56 698.693 Q2242.56 702.113 2240.83 705.415 Q2239.12 708.718 2236.42 710.756 Q2233.73 712.77 2230.99 712.77 Q2229.35 712.77 2228.25 711.88 Q2227.17 710.966 2226.59 709.678 Q2226.14 711.271 2225.18 715.089 Q2224.22 718.907 2224.22 719.281 Q2224.22 719.492 2224.27 719.586 Q2224.31 719.68 2224.53 719.797 Q2224.74 719.937 2225.25 719.984 Q2225.77 720.054 2226.63 720.054 Q2227.08 720.054 2227.24 720.054 Q2227.43 720.078 2227.59 720.195 Q2227.78 720.312 2227.78 720.57 Q2227.78 721.53 2226.91 721.53 Q2226.14 721.53 2224.55 721.46 Q2222.96 721.389 2222.16 721.389 Q2221.48 721.389 2220.12 721.46 Q2218.76 721.53 2218.13 721.53 Q2217.5 721.53 2217.5 720.968 Q2217.5 720.64 2217.59 720.429 Q2217.66 720.242 2217.85 720.148 Q2218.04 720.078 2218.2 720.054 Q2218.34 720.054 2218.62 720.054 Q2219.7 720.054 2220.17 719.867 Q2220.64 719.703 2220.8 719.352 Q2220.99 719.024 2221.2 718.087 L2226.59 696.726 Q2226.91 695.297 2226.91 694.29 Q2226.91 693.025 2226.52 692.556 Q2226.12 692.088 2225.42 692.088 Q2224.2 692.088 2223.4 693.54 Q2222.6 694.992 2221.93 697.803 Q2221.71 698.576 2221.57 698.74 Q2221.46 698.904 2221.11 698.904 Q2220.52 698.88 2220.52 698.412 Q2220.52 698.295 2220.71 697.545 Q2220.89 696.772 2221.25 695.648 Q2221.62 694.5 2222.02 693.774 Q2222.25 693.282 2222.46 692.955 Q2222.67 692.627 2223.1 692.111 Q2223.54 691.596 2224.17 691.315 Q2224.81 691.034 2225.58 691.034 Q2227.08 691.034 2228.32 691.924 Q2229.56 692.814 2229.89 694.618 Q2231.22 693.048 2232.86 692.041 Q2234.5 691.034 2236.17 691.034 Q2238.93 691.034 2240.73 693.189 Q2242.56 695.32 2242.56 698.693 M2239.09 696.585 Q2239.09 694.454 2238.27 693.282 Q2237.48 692.088 2236.03 692.088 Q2234.22 692.088 2232.14 693.915 Q2230.08 695.648 2229.65 697.264 L2227.29 706.657 L2227.15 707.43 Q2227.15 707.57 2227.22 707.992 Q2227.31 708.39 2227.57 709.046 Q2227.85 709.702 2228.23 710.287 Q2228.62 710.849 2229.33 711.271 Q2230.05 711.693 2230.94 711.693 Q2232.37 711.693 2233.92 710.428 Q2235.49 709.163 2236.66 706.774 Q2237.38 705.228 2238.23 701.902 Q2239.09 698.553 2239.09 696.585 Z" fill="#000000" fill-rule="nonzero" fill-opacity="1"></path><path clip-path="url(#clip690)" d="M2254.69 704.947 Q2254.74 704.361 2255.65 704.361 L2285.05 704.361 Q2286.43 704.361 2286.45 704.9 Q2286.45 705.486 2285.14 705.462 L2255.98 705.462 Q2254.69 705.486 2254.69 704.947 M2254.69 695.578 Q2254.69 694.992 2255.7 695.016 L2285 695.016 Q2286.43 695.016 2286.45 695.578 Q2286.45 696.117 2285.24 696.117 L2255.65 696.117 Q2254.69 696.117 2254.69 695.578 Z" fill="#000000" fill-rule="nonzero" fill-opacity="1"></path><path clip-path="url(#clip690)" d="M2304.94 684.85 L2304.94 683.351 Q2310.71 683.351 2313.68 680.283 Q2314.5 680.283 2314.64 680.47 Q2314.78 680.658 2314.78 681.524 L2314.78 708.437 Q2314.78 709.866 2315.48 710.311 Q2316.19 710.756 2319.26 710.756 L2320.78 710.756 L2320.78 712.231 Q2319.09 712.091 2313 712.091 Q2306.91 712.091 2305.25 712.231 L2305.25 710.756 L2306.77 710.756 Q2309.79 710.756 2310.52 710.334 Q2311.24 709.889 2311.24 708.437 L2311.24 683.586 Q2308.74 684.85 2304.94 684.85 Z" fill="#000000" fill-rule="nonzero" fill-opacity="1"></path><polyline clip-path="url(#clip690)" style="stroke:#4dae49; stroke-linecap:round; stroke-linejoin:round; stroke-width:12; stroke-opacity:1; fill:none" points="2049.07,752.852 2193.44,752.852 "></polyline>
<path clip-path="url(#clip690)" d="M2242.56 750.533 Q2242.56 753.953 2240.83 757.255 Q2239.12 760.558 2236.42 762.596 Q2233.73 764.61 2230.99 764.61 Q2229.35 764.61 2228.25 763.72 Q2227.17 762.806 2226.59 761.518 Q2226.14 763.111 2225.18 766.929 Q2224.22 770.747 2224.22 771.121 Q2224.22 771.332 2224.27 771.426 Q2224.31 771.52 2224.53 771.637 Q2224.74 771.777 2225.25 771.824 Q2225.77 771.894 2226.63 771.894 Q2227.08 771.894 2227.24 771.894 Q2227.43 771.918 2227.59 772.035 Q2227.78 772.152 2227.78 772.41 Q2227.78 773.37 2226.91 773.37 Q2226.14 773.37 2224.55 773.3 Q2222.96 773.229 2222.16 773.229 Q2221.48 773.229 2220.12 773.3 Q2218.76 773.37 2218.13 773.37 Q2217.5 773.37 2217.5 772.808 Q2217.5 772.48 2217.59 772.269 Q2217.66 772.082 2217.85 771.988 Q2218.04 771.918 2218.2 771.894 Q2218.34 771.894 2218.62 771.894 Q2219.7 771.894 2220.17 771.707 Q2220.64 771.543 2220.8 771.192 Q2220.99 770.864 2221.2 769.927 L2226.59 748.566 Q2226.91 747.137 2226.91 746.13 Q2226.91 744.865 2226.52 744.396 Q2226.12 743.928 2225.42 743.928 Q2224.2 743.928 2223.4 745.38 Q2222.6 746.832 2221.93 749.643 Q2221.71 750.416 2221.57 750.58 Q2221.46 750.744 2221.11 750.744 Q2220.52 750.72 2220.52 750.252 Q2220.52 750.135 2220.71 749.385 Q2220.89 748.612 2221.25 747.488 Q2221.62 746.34 2222.02 745.614 Q2222.25 745.122 2222.46 744.795 Q2222.67 744.467 2223.1 743.951 Q2223.54 743.436 2224.17 743.155 Q2224.81 742.874 2225.58 742.874 Q2227.08 742.874 2228.32 743.764 Q2229.56 744.654 2229.89 746.458 Q2231.22 744.888 2232.86 743.881 Q2234.5 742.874 2236.17 742.874 Q2238.93 742.874 2240.73 745.029 Q2242.56 747.16 2242.56 750.533 M2239.09 748.425 Q2239.09 746.294 2238.27 745.122 Q2237.48 743.928 2236.03 743.928 Q2234.22 743.928 2232.14 745.755 Q2230.08 747.488 2229.65 749.104 L2227.29 758.497 L2227.15 759.27 Q2227.15 759.41 2227.22 759.832 Q2227.31 760.23 2227.57 760.886 Q2227.85 761.542 2228.23 762.127 Q2228.62 762.689 2229.33 763.111 Q2230.05 763.533 2230.94 763.533 Q2232.37 763.533 2233.92 762.268 Q2235.49 761.003 2236.66 758.614 Q2237.38 757.068 2238.23 753.742 Q2239.09 750.393 2239.09 748.425 Z" fill="#000000" fill-rule="nonzero" fill-opacity="1"></path><path clip-path="url(#clip690)" d="M2254.69 756.787 Q2254.74 756.201 2255.65 756.201 L2285.05 756.201 Q2286.43 756.201 2286.45 756.74 Q2286.45 757.326 2285.14 757.302 L2255.98 757.302 Q2254.69 757.326 2254.69 756.787 M2254.69 747.418 Q2254.69 746.832 2255.7 746.856 L2285 746.856 Q2286.43 746.856 2286.45 747.418 Q2286.45 747.957 2285.24 747.957 L2255.65 747.957 Q2254.69 747.957 2254.69 747.418 Z" fill="#000000" fill-rule="nonzero" fill-opacity="1"></path><path clip-path="url(#clip690)" d="M2304.94 764.071 Q2304.94 763.205 2305.01 762.947 Q2305.11 762.689 2305.48 762.291 L2314.69 752.032 Q2319.72 746.364 2319.72 741.422 Q2319.72 738.213 2318.04 735.917 Q2316.37 733.622 2313.31 733.622 Q2311.2 733.622 2309.42 734.91 Q2307.64 736.199 2306.82 738.494 Q2306.96 738.447 2307.45 738.447 Q2308.64 738.447 2309.3 739.197 Q2309.98 739.946 2309.98 740.953 Q2309.98 742.242 2309.14 742.874 Q2308.32 743.483 2307.5 743.483 Q2307.17 743.483 2306.72 743.413 Q2306.3 743.342 2305.62 742.687 Q2304.94 742.007 2304.94 740.813 Q2304.94 737.463 2307.47 734.793 Q2310.03 732.123 2313.91 732.123 Q2318.32 732.123 2321.2 734.746 Q2324.1 737.346 2324.1 741.422 Q2324.1 742.851 2323.66 744.162 Q2323.24 745.45 2322.65 746.458 Q2322.09 747.465 2320.54 749.081 Q2319 750.697 2317.76 751.845 Q2316.51 752.992 2313.73 755.428 L2308.64 760.37 L2317.29 760.37 Q2321.5 760.37 2321.83 759.996 Q2322.3 759.316 2322.89 755.733 L2324.1 755.733 L2322.75 764.071 L2304.94 764.071 Z" fill="#000000" fill-rule="nonzero" fill-opacity="1"></path><polyline clip-path="url(#clip690)" style="stroke:#974ea2; stroke-linecap:round; stroke-linejoin:round; stroke-width:12; stroke-opacity:1; fill:none" points="2049.07,804.692 2193.44,804.692 "></polyline>
<path clip-path="url(#clip690)" d="M2242.56 802.373 Q2242.56 805.793 2240.83 809.095 Q2239.12 812.398 2236.42 814.436 Q2233.73 816.45 2230.99 816.45 Q2229.35 816.45 2228.25 815.56 Q2227.17 814.646 2226.59 813.358 Q2226.14 814.951 2225.18 818.769 Q2224.22 822.587 2224.22 822.961 Q2224.22 823.172 2224.27 823.266 Q2224.31 823.36 2224.53 823.477 Q2224.74 823.617 2225.25 823.664 Q2225.77 823.734 2226.63 823.734 Q2227.08 823.734 2227.24 823.734 Q2227.43 823.758 2227.59 823.875 Q2227.78 823.992 2227.78 824.25 Q2227.78 825.21 2226.91 825.21 Q2226.14 825.21 2224.55 825.14 Q2222.96 825.069 2222.16 825.069 Q2221.48 825.069 2220.12 825.14 Q2218.76 825.21 2218.13 825.21 Q2217.5 825.21 2217.5 824.648 Q2217.5 824.32 2217.59 824.109 Q2217.66 823.922 2217.85 823.828 Q2218.04 823.758 2218.2 823.734 Q2218.34 823.734 2218.62 823.734 Q2219.7 823.734 2220.17 823.547 Q2220.64 823.383 2220.8 823.032 Q2220.99 822.704 2221.2 821.767 L2226.59 800.406 Q2226.91 798.977 2226.91 797.97 Q2226.91 796.705 2226.52 796.236 Q2226.12 795.768 2225.42 795.768 Q2224.2 795.768 2223.4 797.22 Q2222.6 798.672 2221.93 801.483 Q2221.71 802.256 2221.57 802.42 Q2221.46 802.584 2221.11 802.584 Q2220.52 802.56 2220.52 802.092 Q2220.52 801.975 2220.71 801.225 Q2220.89 800.452 2221.25 799.328 Q2221.62 798.18 2222.02 797.454 Q2222.25 796.962 2222.46 796.635 Q2222.67 796.307 2223.1 795.791 Q2223.54 795.276 2224.17 794.995 Q2224.81 794.714 2225.58 794.714 Q2227.08 794.714 2228.32 795.604 Q2229.56 796.494 2229.89 798.298 Q2231.22 796.728 2232.86 795.721 Q2234.5 794.714 2236.17 794.714 Q2238.93 794.714 2240.73 796.869 Q2242.56 799 2242.56 802.373 M2239.09 800.265 Q2239.09 798.134 2238.27 796.962 Q2237.48 795.768 2236.03 795.768 Q2234.22 795.768 2232.14 797.595 Q2230.08 799.328 2229.65 800.944 L2227.29 810.337 L2227.15 811.11 Q2227.15 811.25 2227.22 811.672 Q2227.31 812.07 2227.57 812.726 Q2227.85 813.382 2228.23 813.967 Q2228.62 814.529 2229.33 814.951 Q2230.05 815.373 2230.94 815.373 Q2232.37 815.373 2233.92 814.108 Q2235.49 812.843 2236.66 810.454 Q2237.38 808.908 2238.23 805.582 Q2239.09 802.233 2239.09 800.265 Z" fill="#000000" fill-rule="nonzero" fill-opacity="1"></path><path clip-path="url(#clip690)" d="M2254.69 808.627 Q2254.74 808.041 2255.65 808.041 L2285.05 808.041 Q2286.43 808.041 2286.45 808.58 Q2286.45 809.166 2285.14 809.142 L2255.98 809.142 Q2254.69 809.166 2254.69 808.627 M2254.69 799.258 Q2254.69 798.672 2255.7 798.696 L2285 798.696 Q2286.43 798.696 2286.45 799.258 Q2286.45 799.797 2285.24 799.797 L2255.65 799.797 Q2254.69 799.797 2254.69 799.258 Z" fill="#000000" fill-rule="nonzero" fill-opacity="1"></path><path clip-path="url(#clip690)" d="M2304.94 809.447 Q2304.94 808.018 2305.76 807.339 Q2306.58 806.659 2307.64 806.659 Q2308.74 806.659 2309.51 807.385 Q2310.31 808.088 2310.31 809.33 Q2310.31 810.665 2309.37 811.414 Q2308.46 812.164 2307.15 811.976 Q2308.29 813.897 2310.4 814.764 Q2312.53 815.63 2314.5 815.63 Q2316.56 815.63 2318.22 813.85 Q2319.91 812.07 2319.91 807.713 Q2319.91 804.013 2318.46 801.881 Q2317.03 799.75 2314.2 799.75 L2312.09 799.75 Q2311.36 799.75 2311.15 799.679 Q2310.94 799.609 2310.94 799.211 Q2310.94 798.743 2311.67 798.649 Q2312.39 798.649 2313.54 798.508 Q2316.33 798.415 2317.8 796.002 Q2319.14 793.754 2319.14 790.545 Q2319.14 787.617 2317.73 786.399 Q2316.35 785.158 2314.55 785.158 Q2312.86 785.158 2311.01 785.86 Q2309.16 786.563 2308.15 788.132 Q2311.13 788.132 2311.13 790.545 Q2311.13 791.599 2310.45 792.301 Q2309.79 792.981 2308.69 792.981 Q2307.64 792.981 2306.93 792.325 Q2306.23 791.646 2306.23 790.498 Q2306.23 787.757 2308.67 785.86 Q2311.13 783.963 2314.73 783.963 Q2318.29 783.963 2320.92 785.837 Q2323.56 787.711 2323.56 790.592 Q2323.56 793.426 2321.69 795.745 Q2319.82 798.063 2316.84 799.024 Q2320.5 799.75 2322.67 802.233 Q2324.85 804.692 2324.85 807.713 Q2324.85 811.461 2321.9 814.225 Q2318.95 816.965 2314.64 816.965 Q2310.66 816.965 2307.8 814.81 Q2304.94 812.656 2304.94 809.447 Z" fill="#000000" fill-rule="nonzero" fill-opacity="1"></path><polyline clip-path="url(#clip690)" style="stroke:#ff7e00; stroke-linecap:round; stroke-linejoin:round; stroke-width:12; stroke-opacity:1; fill:none" points="2049.07,856.532 2193.44,856.532 "></polyline>
<path clip-path="url(#clip690)" d="M2242.56 854.479 Q2242.56 857.898 2240.83 861.201 Q2239.12 864.504 2236.42 866.541 Q2233.73 868.556 2230.99 868.556 Q2229.35 868.556 2228.25 867.666 Q2227.17 866.752 2226.59 865.464 Q2226.14 867.057 2225.18 870.874 Q2224.22 874.692 2224.22 875.067 Q2224.22 875.278 2224.27 875.372 Q2224.31 875.465 2224.53 875.582 Q2224.74 875.723 2225.25 875.77 Q2225.77 875.84 2226.63 875.84 Q2227.08 875.84 2227.24 875.84 Q2227.43 875.863 2227.59 875.98 Q2227.78 876.098 2227.78 876.355 Q2227.78 877.316 2226.91 877.316 Q2226.14 877.316 2224.55 877.245 Q2222.96 877.175 2222.16 877.175 Q2221.48 877.175 2220.12 877.245 Q2218.76 877.316 2218.13 877.316 Q2217.5 877.316 2217.5 876.753 Q2217.5 876.426 2217.59 876.215 Q2217.66 876.027 2217.85 875.934 Q2218.04 875.863 2218.2 875.84 Q2218.34 875.84 2218.62 875.84 Q2219.7 875.84 2220.17 875.653 Q2220.64 875.489 2220.8 875.137 Q2220.99 874.809 2221.2 873.872 L2226.59 852.511 Q2226.91 851.082 2226.91 850.075 Q2226.91 848.81 2226.52 848.342 Q2226.12 847.874 2225.42 847.874 Q2224.2 847.874 2223.4 849.326 Q2222.6 850.778 2221.93 853.589 Q2221.71 854.362 2221.57 854.526 Q2221.46 854.689 2221.11 854.689 Q2220.52 854.666 2220.52 854.198 Q2220.52 854.081 2220.71 853.331 Q2220.89 852.558 2221.25 851.434 Q2221.62 850.286 2222.02 849.56 Q2222.25 849.068 2222.46 848.74 Q2222.67 848.412 2223.1 847.897 Q2223.54 847.382 2224.17 847.101 Q2224.81 846.82 2225.58 846.82 Q2227.08 846.82 2228.32 847.71 Q2229.56 848.6 2229.89 850.403 Q2231.22 848.834 2232.86 847.827 Q2234.5 846.82 2236.17 846.82 Q2238.93 846.82 2240.73 848.974 Q2242.56 851.106 2242.56 854.479 M2239.09 852.371 Q2239.09 850.239 2238.27 849.068 Q2237.48 847.874 2236.03 847.874 Q2234.22 847.874 2232.14 849.701 Q2230.08 851.434 2229.65 853.05 L2227.29 862.442 L2227.15 863.215 Q2227.15 863.356 2227.22 863.777 Q2227.31 864.176 2227.57 864.831 Q2227.85 865.487 2228.23 866.073 Q2228.62 866.635 2229.33 867.057 Q2230.05 867.478 2230.94 867.478 Q2232.37 867.478 2233.92 866.213 Q2235.49 864.949 2236.66 862.559 Q2237.38 861.014 2238.23 857.688 Q2239.09 854.338 2239.09 852.371 Z" fill="#000000" fill-rule="nonzero" fill-opacity="1"></path><path clip-path="url(#clip690)" d="M2254.69 860.732 Q2254.74 860.147 2255.65 860.147 L2285.05 860.147 Q2286.43 860.147 2286.45 860.686 Q2286.45 861.271 2285.14 861.248 L2255.98 861.248 Q2254.69 861.271 2254.69 860.732 M2254.69 851.364 Q2254.69 850.778 2255.7 850.801 L2285 850.801 Q2286.43 850.801 2286.45 851.364 Q2286.45 851.902 2285.24 851.902 L2255.65 851.902 Q2254.69 851.902 2254.69 851.364 Z" fill="#000000" fill-rule="nonzero" fill-opacity="1"></path><path clip-path="url(#clip690)" d="M2304.94 860.1 L2304.94 858.624 L2319.68 836.115 Q2320.05 835.53 2320.64 835.553 Q2321.18 835.553 2321.29 835.764 Q2321.41 835.975 2321.41 836.795 L2321.41 858.624 L2326.21 858.624 L2326.21 860.1 L2321.41 860.1 L2321.41 864.269 Q2321.41 865.651 2321.97 866.096 Q2322.56 866.541 2325.04 866.541 L2326.05 866.541 L2326.05 868.017 Q2324.08 867.876 2319.54 867.876 Q2315.02 867.876 2313.05 868.017 L2313.05 866.541 L2314.06 866.541 Q2316.54 866.541 2317.12 866.12 Q2317.71 865.675 2317.71 864.269 L2317.71 860.1 L2304.94 860.1 M2306.3 858.624 L2317.99 858.624 L2317.99 840.73 L2306.3 858.624 Z" fill="#000000" fill-rule="nonzero" fill-opacity="1"></path><path clip-path="url(#clip690)" d="M360.142 237.989 Q360.142 238.033 359.878 239.614 L349.865 279.534 Q349.338 281.642 347.845 283.75 Q346.396 285.902 344.068 287.747 Q341.784 289.635 338.271 290.777 Q334.802 291.963 330.805 291.963 Q324.437 291.963 321.626 290.601 Q318.86 289.284 318.86 286.473 Q318.86 284.014 320.397 282.609 Q321.934 281.247 323.691 281.247 Q325.359 281.247 326.238 282.213 Q327.116 283.179 327.116 284.409 Q327.116 285.771 326.194 287.132 Q325.272 288.537 323.427 289.064 Q326.369 289.987 330.629 289.987 Q339.632 289.987 343.497 280.457 Q343.585 280.325 343.585 280.281 L346.571 268.379 L346.44 268.292 Q345.693 269.17 344.507 270.18 Q343.365 271.146 340.906 272.332 Q338.447 273.518 336.031 273.518 Q330.981 273.518 327.511 269.653 Q324.086 265.744 324.086 259.289 Q324.086 254.589 325.974 249.89 Q327.907 245.147 330.893 241.678 Q333.923 238.164 337.788 235.969 Q341.697 233.773 345.473 233.773 Q348.108 233.773 350.348 235.354 Q352.588 236.891 353.818 239.438 Q354.037 237.33 355.223 236.452 Q356.453 235.573 357.507 235.573 Q358.692 235.573 359.395 236.232 Q360.142 236.847 360.142 237.989 M352.764 243.478 Q352.764 243.215 352.588 242.512 Q352.412 241.766 351.885 240.58 Q351.402 239.394 350.656 238.34 Q349.909 237.286 348.548 236.54 Q347.23 235.749 345.561 235.749 Q342.838 235.749 340.115 238.033 Q337.393 240.272 335.504 243.742 Q333.748 247.08 332.079 253.535 Q330.454 259.991 330.454 263.285 Q330.454 266.535 331.859 269.038 Q333.264 271.541 336.295 271.541 Q339.808 271.541 343.585 268.292 Q347.494 264.91 348.152 262.011 L352.5 244.84 Q352.764 243.786 352.764 243.478 Z" fill="#000000" fill-rule="nonzero" fill-opacity="1"></path><path clip-path="url(#clip690)" d="M386.266 259.859 Q386.354 258.762 388.066 258.762 L443.182 258.762 Q445.774 258.762 445.817 259.772 Q445.817 260.87 443.358 260.826 L388.681 260.826 Q386.266 260.87 386.266 259.859 M386.266 242.293 Q386.266 241.195 388.154 241.239 L443.095 241.239 Q445.774 241.239 445.817 242.293 Q445.817 243.303 443.534 243.303 L388.066 243.303 Q386.266 243.303 386.266 242.293 Z" fill="#000000" fill-rule="nonzero" fill-opacity="1"></path><path clip-path="url(#clip690)" d="M480.509 244.752 Q480.509 231.533 483.846 224.331 Q488.502 213.615 499.481 213.615 Q501.808 213.615 504.224 214.274 Q506.683 214.888 509.757 217.304 Q512.876 219.719 514.764 223.672 Q518.365 231.313 518.365 244.752 Q518.365 257.883 515.027 265.042 Q510.153 275.494 499.393 275.494 Q495.353 275.494 491.224 273.43 Q487.14 271.366 484.549 266.403 Q480.509 258.981 480.509 244.752 M487.975 243.654 Q487.975 257.224 488.941 262.626 Q490.039 268.467 493.025 271.014 Q496.055 273.518 499.393 273.518 Q502.994 273.518 505.981 270.839 Q509.011 268.116 509.933 262.275 Q510.943 256.522 510.899 243.654 Q510.899 231.138 510.021 226.131 Q508.835 220.29 505.673 217.963 Q502.555 215.591 499.393 215.591 Q498.207 215.591 496.934 215.942 Q495.704 216.294 493.903 217.304 Q492.103 218.314 490.697 220.817 Q489.336 223.32 488.677 227.097 Q487.975 231.972 487.975 243.654 Z" fill="#000000" fill-rule="nonzero" fill-opacity="1"></path><path clip-path="url(#clip690)" d="M526.409 272.068 Q525.048 270.619 525.048 268.731 Q525.048 266.842 526.409 265.481 Q527.771 264.076 529.835 264.076 Q531.811 264.076 533.128 265.393 Q534.49 266.667 534.49 268.775 Q534.49 270.839 533.041 272.2 Q531.635 273.518 529.835 273.518 Q527.771 273.518 526.409 272.068 Z" fill="#000000" fill-rule="nonzero" fill-opacity="1"></path><path clip-path="url(#clip690)" d="M540.671 222.179 L540.671 219.368 Q551.475 219.368 557.053 213.615 Q558.59 213.615 558.853 213.966 Q559.117 214.317 559.117 215.942 L559.117 266.403 Q559.117 269.082 560.434 269.917 Q561.752 270.751 567.505 270.751 L570.359 270.751 L570.359 273.518 Q567.197 273.254 555.779 273.254 Q544.361 273.254 541.242 273.518 L541.242 270.751 L544.097 270.751 Q549.762 270.751 551.124 269.96 Q552.485 269.126 552.485 266.403 L552.485 219.807 Q547.786 222.179 540.671 222.179 Z" fill="#000000" fill-rule="nonzero" fill-opacity="1"></path></svg>