<?xml version="1.0" encoding="UTF-8" standalone="no"?>
<svg
   width="600"
   height="400"
   viewBox="0 0 2400 1600"
   version="1.1"
   id="svg277"
   sodipodi:docname="super_extreme.svg"
   inkscape:version="1.2.2 (b0a8486541, 2022-12-01)"
   xmlns:inkscape="http://www.inkscape.org/namespaces/inkscape"
   xmlns:sodipodi="http://sodipodi.sourceforge.net/DTD/sodipodi-0.dtd"
   xmlns="http://www.w3.org/2000/svg"
   xmlns:svg="http://www.w3.org/2000/svg">
  <sodipodi:namedview
     id="namedview279"
     pagecolor="#505050"
     bordercolor="#eeeeee"
     borderopacity="1"
     inkscape:showpageshadow="0"
     inkscape:pageopacity="0"
     inkscape:pagecheckerboard="0"
     inkscape:deskcolor="#505050"
     showgrid="false"
     showguides="true"
     inkscape:zoom="1.4754962"
     inkscape:cx="300.91573"
     inkscape:cy="236.53061"
     inkscape:window-width="1920"
     inkscape:window-height="1011"
     inkscape:window-x="0"
     inkscape:window-y="32"
     inkscape:window-maximized="1"
     inkscape:current-layer="svg277" />
  <defs
     id="defs5">
    <clipPath
       id="clip490">
      <rect
         x="0"
         y="0"
         width="2400"
         height="1600"
         id="rect2" />
    </clipPath>
  </defs>
  <defs
     id="defs12">
    <clipPath
       id="clip491">
      <rect
         x="480"
         y="0"
         width="1681"
         height="1600"
         id="rect9" />
    </clipPath>
  </defs>
  <defs
     id="defs17">
    <clipPath
       id="clip492">
      <rect
         x="319"
         y="47"
         width="2034"
         height="1299"
         id="rect14" />
    </clipPath>
  </defs>
  <polyline
     clip-path="url(#clip490)"
     style="fill:none;stroke:#000000;stroke-width:4;stroke-linecap:round;stroke-linejoin:round;stroke-opacity:1"
     points="319.734,1345.42 2352.76,1345.42 "
     id="polyline21"
     transform="matrix(0.9777595,0,0,0.9777595,32,1.0062513)"
     inkscape:export-filename="super_extreme.png"
     inkscape:export-xdpi="96"
     inkscape:export-ydpi="96" />
  <polyline
     clip-path="url(#clip490)"
     style="fill:none;stroke:#000000;stroke-width:4;stroke-linecap:round;stroke-linejoin:round;stroke-opacity:1"
     points="319.734,47.2441 2352.76,47.2441 "
     id="polyline23"
     transform="matrix(0.9777595,0,0,0.9777595,32,1.0062513)" />
  <polyline
     clip-path="url(#clip490)"
     style="fill:none;stroke:#000000;stroke-width:4;stroke-linecap:round;stroke-linejoin:round;stroke-opacity:1"
     points="377.272,1345.42 377.272,1326.52 "
     id="polyline25"
     transform="matrix(0.9777595,0,0,0.9777595,32,1.0062513)" />
  <polyline
     clip-path="url(#clip490)"
     style="fill:none;stroke:#000000;stroke-width:4;stroke-linecap:round;stroke-linejoin:round;stroke-opacity:1"
     points="856.759,1345.42 856.759,1326.52 "
     id="polyline27"
     transform="matrix(0.9777595,0,0,0.9777595,32,1.0062513)" />
  <polyline
     clip-path="url(#clip490)"
     style="fill:none;stroke:#000000;stroke-width:4;stroke-linecap:round;stroke-linejoin:round;stroke-opacity:1"
     points="1336.24,1345.42 1336.24,1326.52 "
     id="polyline29"
     transform="matrix(0.9777595,0,0,0.9777595,32,1.0062513)" />
  <polyline
     clip-path="url(#clip490)"
     style="fill:none;stroke:#000000;stroke-width:4;stroke-linecap:round;stroke-linejoin:round;stroke-opacity:1"
     points="1815.73,1345.42 1815.73,1326.52 "
     id="polyline31"
     transform="matrix(0.9777595,0,0,0.9777595,32,1.0062513)" />
  <polyline
     clip-path="url(#clip490)"
     style="fill:none;stroke:#000000;stroke-width:4;stroke-linecap:round;stroke-linejoin:round;stroke-opacity:1"
     points="2295.22,1345.42 2295.22,1326.52 "
     id="polyline33"
     transform="matrix(0.9777595,0,0,0.9777595,32,1.0062513)" />
  <path
     clip-path="url(#clip490)"
     d="m 296.701,1415.28 q 0,-13.94 3.52,-21.54 4.91,-11.3 16.49,-11.3 2.454,0 5.002,0.7 2.594,0.64 5.836,3.19 3.289,2.55 5.28,6.72 3.799,8.06 3.799,22.23 0,13.85 -3.521,21.4 -5.141,11.02 -16.489,11.02 -4.261,0 -8.615,-2.17 -4.308,-2.18 -7.041,-7.41 -4.261,-7.83 -4.261,-22.84 m 7.874,-1.16 q 0,14.32 1.019,20.01 1.158,6.16 4.308,8.85 3.196,2.64 6.716,2.64 3.798,0 6.948,-2.83 3.196,-2.87 4.168,-9.03 1.066,-6.07 1.019,-19.64 0,-13.2 -0.926,-18.48 -1.251,-6.16 -4.586,-8.61 -3.288,-2.5 -6.623,-2.5 -1.251,0 -2.594,0.37 -1.297,0.37 -3.196,1.43 -1.899,1.07 -3.381,3.71 -1.436,2.64 -2.131,6.62 -0.741,5.14 -0.741,17.46 z"
     fill="#000000"
     fill-rule="nonzero"
     fill-opacity="1"
     id="path35"
     transform="matrix(0.9777595,0,0,0.9777595,32,1.0062513)" />
  <path
     clip-path="url(#clip490)"
     d="m 349.921,1444.09 q -1.436,-1.53 -1.436,-3.52 0,-1.99 1.436,-3.43 1.436,-1.48 3.613,-1.48 2.084,0 3.474,1.39 1.436,1.34 1.436,3.57 0,2.17 -1.529,3.61 -1.482,1.39 -3.381,1.39 -2.177,0 -3.613,-1.53 z"
     fill="#000000"
     fill-rule="nonzero"
     fill-opacity="1"
     id="path37"
     transform="matrix(0.9777595,0,0,0.9777595,32,1.0062513)" />
  <path
     clip-path="url(#clip490)"
     d="m 370.487,1415.28 q 0,-13.94 3.52,-21.54 4.91,-11.3 16.489,-11.3 2.455,0 5.003,0.7 2.594,0.64 5.836,3.19 3.289,2.55 5.28,6.72 3.798,8.06 3.798,22.23 0,13.85 -3.52,21.4 -5.141,11.02 -16.489,11.02 -4.262,0 -8.616,-2.17 -4.307,-2.18 -7.04,-7.41 -4.261,-7.83 -4.261,-22.84 m 7.874,-1.16 q 0,14.32 1.019,20.01 1.158,6.16 4.307,8.85 3.196,2.64 6.717,2.64 3.798,0 6.948,-2.83 3.196,-2.87 4.168,-9.03 1.066,-6.07 1.019,-19.64 0,-13.2 -0.926,-18.48 -1.251,-6.16 -4.586,-8.61 -3.288,-2.5 -6.623,-2.5 -1.251,0 -2.594,0.37 -1.297,0.37 -3.196,1.43 -1.899,1.07 -3.381,3.71 -1.436,2.64 -2.131,6.62 -0.741,5.14 -0.741,17.46 z"
     fill="#000000"
     fill-rule="nonzero"
     fill-opacity="1"
     id="path39"
     transform="matrix(0.9777595,0,0,0.9777595,32,1.0062513)" />
  <path
     clip-path="url(#clip490)"
     d="m 417.917,1415.28 q 0,-13.94 3.52,-21.54 4.91,-11.3 16.49,-11.3 2.455,0 5.002,0.7 2.594,0.64 5.836,3.19 3.289,2.55 5.281,6.72 3.798,8.06 3.798,22.23 0,13.85 -3.52,21.4 -5.142,11.02 -16.49,11.02 -4.261,0 -8.615,-2.17 -4.308,-2.18 -7.041,-7.41 -4.261,-7.83 -4.261,-22.84 m 7.874,-1.16 q 0,14.32 1.019,20.01 1.158,6.16 4.308,8.85 3.196,2.64 6.716,2.64 3.798,0 6.948,-2.83 3.196,-2.87 4.169,-9.03 1.065,-6.07 1.019,-19.64 0,-13.2 -0.927,-18.48 -1.25,-6.16 -4.585,-8.61 -3.289,-2.5 -6.624,-2.5 -1.25,0 -2.594,0.37 -1.297,0.37 -3.196,1.43 -1.899,1.07 -3.381,3.71 -1.436,2.64 -2.131,6.62 -0.741,5.14 -0.741,17.46 z"
     fill="#000000"
     fill-rule="nonzero"
     fill-opacity="1"
     id="path41"
     transform="matrix(0.9777595,0,0,0.9777595,32,1.0062513)" />
  <path
     clip-path="url(#clip490)"
     d="m 776.697,1415.28 q 0,-13.94 3.52,-21.54 4.91,-11.3 16.489,-11.3 2.455,0 5.003,0.7 2.594,0.64 5.836,3.19 3.289,2.55 5.28,6.72 3.798,8.06 3.798,22.23 0,13.85 -3.52,21.4 -5.141,11.02 -16.489,11.02 -4.262,0 -8.616,-2.17 -4.307,-2.18 -7.04,-7.41 -4.261,-7.83 -4.261,-22.84 m 7.874,-1.16 q 0,14.32 1.019,20.01 1.158,6.16 4.307,8.85 3.196,2.64 6.717,2.64 3.798,0 6.947,-2.83 3.196,-2.87 4.169,-9.03 1.066,-6.07 1.019,-19.64 0,-13.2 -0.926,-18.48 -1.251,-6.16 -4.586,-8.61 -3.288,-2.5 -6.623,-2.5 -1.251,0 -2.594,0.37 -1.297,0.37 -3.196,1.43 -1.899,1.07 -3.381,3.71 -1.436,2.64 -2.131,6.62 -0.741,5.14 -0.741,17.46 z"
     fill="#000000"
     fill-rule="nonzero"
     fill-opacity="1"
     id="path43"
     transform="matrix(0.9777595,0,0,0.9777595,32,1.0062513)" />
  <path
     clip-path="url(#clip490)"
     d="m 829.917,1444.09 q -1.436,-1.53 -1.436,-3.52 0,-1.99 1.436,-3.43 1.436,-1.48 3.613,-1.48 2.084,0 3.474,1.39 1.436,1.34 1.436,3.57 0,2.17 -1.529,3.61 -1.482,1.39 -3.381,1.39 -2.177,0 -3.613,-1.53 z"
     fill="#000000"
     fill-rule="nonzero"
     fill-opacity="1"
     id="path45"
     transform="matrix(0.9777595,0,0,0.9777595,32,1.0062513)" />
  <path
     clip-path="url(#clip490)"
     d="m 851.501,1445.62 q 0,-1.71 0.139,-2.22 0.186,-0.51 0.927,-1.3 l 18.203,-20.29 q 9.959,-11.21 9.959,-20.98 0,-6.35 -3.335,-10.89 -3.289,-4.53 -9.357,-4.53 -4.168,0 -7.689,2.54 -3.52,2.55 -5.141,7.09 0.278,-0.09 1.251,-0.09 2.362,0 3.659,1.48 1.343,1.48 1.343,3.47 0,2.55 -1.667,3.8 -1.622,1.21 -3.243,1.21 -0.648,0 -1.528,-0.14 -0.834,-0.14 -2.177,-1.44 -1.344,-1.34 -1.344,-3.7 0,-6.63 5.003,-11.91 5.049,-5.28 12.738,-5.28 8.707,0 14.405,5.19 5.743,5.14 5.743,13.2 0,2.83 -0.88,5.42 -0.834,2.55 -1.992,4.54 -1.111,1.99 -4.168,5.19 -3.057,3.19 -5.512,5.46 -2.455,2.27 -7.967,7.09 l -10.051,9.77 h 17.091 q 8.338,0 8.986,-0.74 0.927,-1.34 2.085,-8.43 h 2.408 l -2.686,16.49 z"
     fill="#000000"
     fill-rule="nonzero"
     fill-opacity="1"
     id="path47"
     transform="matrix(0.9777595,0,0,0.9777595,32,1.0062513)" />
  <path
     clip-path="url(#clip490)"
     d="m 898.932,1430.33 q 0,-2.82 1.528,-3.89 1.529,-1.11 3.15,-1.11 2.177,0 3.428,1.39 1.297,1.35 1.297,3.24 0,1.9 -1.297,3.29 -1.251,1.35 -3.428,1.35 -1.065,0 -1.621,-0.19 1.251,4.35 5.049,7.5 3.844,3.15 8.893,3.15 6.346,0 10.144,-6.16 2.269,-3.98 2.269,-13.01 0,-7.97 -1.713,-11.95 -2.641,-6.07 -8.06,-6.07 -7.689,0 -12.228,6.62 -0.556,0.84 -1.204,0.88 -0.927,0 -1.158,-0.51 -0.186,-0.55 -0.186,-1.99 v -28.07 q 0,-2.27 0.927,-2.27 0.37,0 1.158,0.28 5.975,2.64 12.598,2.69 6.809,0 12.923,-2.78 0.464,-0.28 0.741,-0.28 0.927,0 0.973,1.07 0,0.37 -0.787,1.48 -0.741,1.06 -2.363,2.5 -1.621,1.39 -3.705,2.73 -2.084,1.35 -5.141,2.27 -3.011,0.88 -6.346,0.88 -3.983,0 -8.06,-1.25 v 18.48 q 4.91,-4.81 12.043,-4.81 7.597,0 12.831,6.11 5.234,6.11 5.234,14.64 0,8.94 -6.207,15.05 -6.16,6.11 -14.498,6.11 -7.596,0 -12.413,-5.42 -4.771,-5.41 -4.771,-11.95 z"
     fill="#000000"
     fill-rule="nonzero"
     fill-opacity="1"
     id="path49"
     transform="matrix(0.9777595,0,0,0.9777595,32,1.0062513)" />
  <path
     clip-path="url(#clip490)"
     d="m 1255.67,1415.28 q 0,-13.94 3.52,-21.54 4.91,-11.3 16.49,-11.3 2.46,0 5.01,0.7 2.59,0.64 5.83,3.19 3.29,2.55 5.28,6.72 3.8,8.06 3.8,22.23 0,13.85 -3.52,21.4 -5.14,11.02 -16.49,11.02 -4.26,0 -8.61,-2.17 -4.31,-2.18 -7.05,-7.41 -4.26,-7.83 -4.26,-22.84 m 7.88,-1.16 q 0,14.32 1.02,20.01 1.15,6.16 4.3,8.85 3.2,2.64 6.72,2.64 3.8,0 6.95,-2.83 3.19,-2.87 4.17,-9.03 1.06,-6.07 1.02,-19.64 0,-13.2 -0.93,-18.48 -1.25,-6.16 -4.59,-8.61 -3.28,-2.5 -6.62,-2.5 -1.25,0 -2.59,0.37 -1.3,0.37 -3.2,1.43 -1.9,1.07 -3.38,3.71 -1.44,2.64 -2.13,6.62 -0.74,5.14 -0.74,17.46 z"
     fill="#000000"
     fill-rule="nonzero"
     fill-opacity="1"
     id="path51"
     transform="matrix(0.9777595,0,0,0.9777595,32,1.0062513)" />
  <path
     clip-path="url(#clip490)"
     d="m 1308.89,1444.09 q -1.43,-1.53 -1.43,-3.52 0,-1.99 1.43,-3.43 1.44,-1.48 3.62,-1.48 2.08,0 3.47,1.39 1.44,1.34 1.44,3.57 0,2.17 -1.53,3.61 -1.48,1.39 -3.38,1.39 -2.18,0 -3.62,-1.53 z"
     fill="#000000"
     fill-rule="nonzero"
     fill-opacity="1"
     id="path53"
     transform="matrix(0.9777595,0,0,0.9777595,32,1.0062513)" />
  <path
     clip-path="url(#clip490)"
     d="m 1330.48,1430.33 q 0,-2.82 1.53,-3.89 1.53,-1.11 3.15,-1.11 2.17,0 3.42,1.39 1.3,1.35 1.3,3.24 0,1.9 -1.3,3.29 -1.25,1.35 -3.42,1.35 -1.07,0 -1.62,-0.19 1.25,4.35 5.04,7.5 3.85,3.15 8.9,3.15 6.34,0 10.14,-6.16 2.27,-3.98 2.27,-13.01 0,-7.97 -1.71,-11.95 -2.64,-6.07 -8.06,-6.07 -7.69,0 -12.23,6.62 -0.56,0.84 -1.21,0.88 -0.92,0 -1.15,-0.51 -0.19,-0.55 -0.19,-1.99 v -28.07 q 0,-2.27 0.93,-2.27 0.37,0 1.16,0.28 5.97,2.64 12.59,2.69 6.81,0 12.93,-2.78 0.46,-0.28 0.74,-0.28 0.93,0 0.97,1.07 0,0.37 -0.79,1.48 -0.74,1.06 -2.36,2.5 -1.62,1.39 -3.7,2.73 -2.09,1.35 -5.15,2.27 -3.01,0.88 -6.34,0.88 -3.98,0 -8.06,-1.25 v 18.48 q 4.91,-4.81 12.04,-4.81 7.6,0 12.83,6.11 5.24,6.11 5.24,14.64 0,8.94 -6.21,15.05 -6.16,6.11 -14.5,6.11 -7.59,0 -12.41,-5.42 -4.77,-5.41 -4.77,-11.95 z"
     fill="#000000"
     fill-rule="nonzero"
     fill-opacity="1"
     id="path55"
     transform="matrix(0.9777595,0,0,0.9777595,32,1.0062513)" />
  <path
     clip-path="url(#clip490)"
     d="m 1376.89,1415.28 q 0,-13.94 3.52,-21.54 4.91,-11.3 16.49,-11.3 2.45,0 5,0.7 2.6,0.64 5.84,3.19 3.29,2.55 5.28,6.72 3.8,8.06 3.8,22.23 0,13.85 -3.52,21.4 -5.15,11.02 -16.49,11.02 -4.26,0 -8.62,-2.17 -4.31,-2.18 -7.04,-7.41 -4.26,-7.83 -4.26,-22.84 m 7.87,-1.16 q 0,14.32 1.02,20.01 1.16,6.16 4.31,8.85 3.2,2.64 6.72,2.64 3.79,0 6.94,-2.83 3.2,-2.87 4.17,-9.03 1.07,-6.07 1.02,-19.64 0,-13.2 -0.92,-18.48 -1.25,-6.16 -4.59,-8.61 -3.29,-2.5 -6.62,-2.5 -1.25,0 -2.6,0.37 -1.29,0.37 -3.19,1.43 -1.9,1.07 -3.38,3.71 -1.44,2.64 -2.14,6.62 -0.74,5.14 -0.74,17.46 z"
     fill="#000000"
     fill-rule="nonzero"
     fill-opacity="1"
     id="path57"
     transform="matrix(0.9777595,0,0,0.9777595,32,1.0062513)" />
  <path
     clip-path="url(#clip490)"
     d="m 1735.67,1415.28 q 0,-13.94 3.52,-21.54 4.91,-11.3 16.49,-11.3 2.45,0 5,0.7 2.6,0.64 5.84,3.19 3.29,2.55 5.28,6.72 3.8,8.06 3.8,22.23 0,13.85 -3.52,21.4 -5.15,11.02 -16.49,11.02 -4.27,0 -8.62,-2.17 -4.31,-2.18 -7.04,-7.41 -4.26,-7.83 -4.26,-22.84 m 7.87,-1.16 q 0,14.32 1.02,20.01 1.16,6.16 4.31,8.85 3.2,2.64 6.72,2.64 3.79,0 6.94,-2.83 3.2,-2.87 4.17,-9.03 1.07,-6.07 1.02,-19.64 0,-13.2 -0.92,-18.48 -1.26,-6.16 -4.59,-8.61 -3.29,-2.5 -6.62,-2.5 -1.25,0 -2.6,0.37 -1.29,0.37 -3.19,1.43 -1.9,1.07 -3.38,3.71 -1.44,2.64 -2.14,6.62 -0.74,5.14 -0.74,17.46 z"
     fill="#000000"
     fill-rule="nonzero"
     fill-opacity="1"
     id="path59"
     transform="matrix(0.9777595,0,0,0.9777595,32,1.0062513)" />
  <path
     clip-path="url(#clip490)"
     d="m 1788.89,1444.09 q -1.44,-1.53 -1.44,-3.52 0,-1.99 1.44,-3.43 1.44,-1.48 3.61,-1.48 2.09,0 3.48,1.39 1.43,1.34 1.43,3.57 0,2.17 -1.53,3.61 -1.48,1.39 -3.38,1.39 -2.17,0 -3.61,-1.53 z"
     fill="#000000"
     fill-rule="nonzero"
     fill-opacity="1"
     id="path61"
     transform="matrix(0.9777595,0,0,0.9777595,32,1.0062513)" />
  <path
     clip-path="url(#clip490)"
     d="m 1811.08,1401.01 3.1,-19.5 h 2.36 q 0.28,1.16 0.74,1.67 0.51,0.51 3.2,0.93 2.73,0.42 8.24,0.42 h 23.02 q 0,2.17 -0.83,3.33 l -12.83,18.02 q -4.08,5.7 -5.88,16.21 -1.07,7.04 -1.02,15.56 v 4.82 q 0,5.23 -4.4,5.23 -4.36,0 -4.36,-5.23 0,-18.11 11.68,-35.67 1.25,-1.8 5.83,-8.24 4.63,-6.44 4.82,-6.72 h -19.64 q -8.61,0 -9.31,0.56 -0.93,0.83 -2.36,8.61 z"
     fill="#000000"
     fill-rule="nonzero"
     fill-opacity="1"
     id="path63"
     transform="matrix(0.9777595,0,0,0.9777595,32,1.0062513)" />
  <path
     clip-path="url(#clip490)"
     d="m 1857.9,1430.33 q 0,-2.82 1.53,-3.89 1.53,-1.11 3.15,-1.11 2.18,0 3.43,1.39 1.3,1.35 1.3,3.24 0,1.9 -1.3,3.29 -1.25,1.35 -3.43,1.35 -1.06,0 -1.62,-0.19 1.25,4.35 5.05,7.5 3.84,3.15 8.89,3.15 6.35,0 10.15,-6.16 2.27,-3.98 2.27,-13.01 0,-7.97 -1.72,-11.95 -2.64,-6.07 -8.06,-6.07 -7.69,0 -12.22,6.62 -0.56,0.84 -1.21,0.88 -0.93,0 -1.16,-0.51 -0.18,-0.55 -0.18,-1.99 v -28.07 q 0,-2.27 0.92,-2.27 0.37,0 1.16,0.28 5.98,2.64 12.6,2.69 6.81,0 12.92,-2.78 0.47,-0.28 0.75,-0.28 0.92,0 0.97,1.07 0,0.37 -0.79,1.48 -0.74,1.06 -2.36,2.5 -1.62,1.39 -3.71,2.73 -2.08,1.35 -5.14,2.27 -3.01,0.88 -6.34,0.88 -3.99,0 -8.06,-1.25 v 18.48 q 4.91,-4.81 12.04,-4.81 7.6,0 12.83,6.11 5.23,6.11 5.23,14.64 0,8.94 -6.2,15.05 -6.16,6.11 -14.5,6.11 -7.6,0 -12.41,-5.42 -4.78,-5.41 -4.78,-11.95 z"
     fill="#000000"
     fill-rule="nonzero"
     fill-opacity="1"
     id="path65"
     transform="matrix(0.9777595,0,0,0.9777595,32,1.0062513)" />
  <path
     clip-path="url(#clip490)"
     d="m 2217.01,1391.47 v -2.96 q 11.39,0 17.28,-6.07 1.62,0 1.89,0.37 0.28,0.37 0.28,2.09 v 53.22 q 0,2.82 1.39,3.7 1.39,0.88 7.46,0.88 h 3.01 v 2.92 q -3.34,-0.28 -15.38,-0.28 -12.04,0 -15.33,0.28 v -2.92 h 3.01 q 5.98,0 7.41,-0.83 1.44,-0.88 1.44,-3.75 v -49.15 q -4.96,2.5 -12.46,2.5 z"
     fill="#000000"
     fill-rule="nonzero"
     fill-opacity="1"
     id="path67"
     transform="matrix(0.9777595,0,0,0.9777595,32,1.0062513)" />
  <path
     clip-path="url(#clip490)"
     d="m 2265.5,1444.09 q -1.43,-1.53 -1.43,-3.52 0,-1.99 1.43,-3.43 1.44,-1.48 3.62,-1.48 2.08,0 3.47,1.39 1.44,1.34 1.44,3.57 0,2.17 -1.53,3.61 -1.48,1.39 -3.38,1.39 -2.18,0 -3.62,-1.53 z"
     fill="#000000"
     fill-rule="nonzero"
     fill-opacity="1"
     id="path69"
     transform="matrix(0.9777595,0,0,0.9777595,32,1.0062513)" />
  <path
     clip-path="url(#clip490)"
     d="m 2286.07,1415.28 q 0,-13.94 3.52,-21.54 4.91,-11.3 16.49,-11.3 2.45,0 5,0.7 2.6,0.64 5.84,3.19 3.29,2.55 5.28,6.72 3.8,8.06 3.8,22.23 0,13.85 -3.52,21.4 -5.15,11.02 -16.49,11.02 -4.26,0 -8.62,-2.17 -4.31,-2.18 -7.04,-7.41 -4.26,-7.83 -4.26,-22.84 m 7.87,-1.16 q 0,14.32 1.02,20.01 1.16,6.16 4.31,8.85 3.2,2.64 6.72,2.64 3.79,0 6.94,-2.83 3.2,-2.87 4.17,-9.03 1.07,-6.07 1.02,-19.64 0,-13.2 -0.92,-18.48 -1.25,-6.16 -4.59,-8.61 -3.29,-2.5 -6.62,-2.5 -1.25,0 -2.6,0.37 -1.29,0.37 -3.19,1.43 -1.9,1.07 -3.38,3.71 -1.44,2.64 -2.14,6.62 -0.74,5.14 -0.74,17.46 z"
     fill="#000000"
     fill-rule="nonzero"
     fill-opacity="1"
     id="path71"
     transform="matrix(0.9777595,0,0,0.9777595,32,1.0062513)" />
  <path
     clip-path="url(#clip490)"
     d="m 2333.5,1415.28 q 0,-13.94 3.52,-21.54 4.91,-11.3 16.49,-11.3 2.45,0 5,0.7 2.6,0.64 5.84,3.19 3.29,2.55 5.28,6.72 3.8,8.06 3.8,22.23 0,13.85 -3.52,21.4 -5.14,11.02 -16.49,11.02 -4.26,0 -8.62,-2.17 -4.31,-2.18 -7.04,-7.41 -4.26,-7.83 -4.26,-22.84 m 7.87,-1.16 q 0,14.32 1.02,20.01 1.16,6.16 4.31,8.85 3.2,2.64 6.72,2.64 3.8,0 6.94,-2.83 3.2,-2.87 4.17,-9.03 1.07,-6.07 1.02,-19.64 0,-13.2 -0.92,-18.48 -1.25,-6.16 -4.59,-8.61 -3.29,-2.5 -6.62,-2.5 -1.25,0 -2.6,0.37 -1.29,0.37 -3.19,1.43 -1.9,1.07 -3.38,3.71 -1.44,2.64 -2.13,6.62 -0.75,5.14 -0.75,17.46 z"
     fill="#000000"
     fill-rule="nonzero"
     fill-opacity="1"
     id="path73"
     transform="matrix(0.9777595,0,0,0.9777595,32,1.0062513)" />
  <path
     clip-path="url(#clip490)"
     d="m 1056,1510.14 q 0,0.09 -0.09,0.18 -0.59,4.78 -1.72,7.44 -1.13,2.61 -3.65,3.83 -1.85,0.9 -4.15,0.9 -3.47,0 -8.48,-2.3 -0.18,-0.09 -1.17,-0.54 -0.99,-0.45 -1.35,-0.59 -0.36,-0.13 -1.13,-0.4 -0.76,-0.32 -1.35,-0.41 -0.59,-0.09 -1.17,-0.09 -1.26,0 -2.35,0.54 -2.21,1.08 -3.56,2.71 -1.4,1.58 -1.76,4.42 -0.09,0.36 -0.4,0.63 -0.32,0.27 -0.72,0.27 -0.41,0 -0.77,-0.32 -0.36,-0.31 -0.36,-0.76 0,-0.09 0.09,-0.18 0.58,-4.78 1.71,-7.4 1.13,-2.66 3.65,-3.88 1.99,-0.94 4.15,-0.94 3.38,0 8.52,2.34 0.18,0.09 1.18,0.54 0.99,0.45 1.35,0.59 0.36,0.13 1.13,0.45 0.76,0.27 1.35,0.36 0.58,0.09 1.17,0.09 1.13,0 2.3,-0.59 2.21,-1.08 3.61,-2.66 1.4,-1.57 1.76,-4.41 0.09,-0.37 0.4,-0.64 0.32,-0.31 0.72,-0.31 0.41,0 0.77,0.36 0.32,0.31 0.32,0.77 z"
     fill="#000000"
     fill-rule="nonzero"
     fill-opacity="1"
     id="path75"
     transform="matrix(0.9777595,0,0,0.9777595,32,1.0062513)" />
  <path
     clip-path="url(#clip490)"
     d="m 1057.11,1542.03 q 0,0.45 -1.1,2.38 -1.03,1.87 -4.83,6.57 -3.8,4.7 -9.47,10.18 -2.12,2.12 -5.34,5.09 -3.22,2.96 -5.41,4.89 l -2.19,1.94 q -8.38,7.08 -15.72,15 0.52,-0.19 1.42,-0.25 0.9,-0.13 1.54,-0.13 h 0.65 q 3.35,0 9.21,2.25 5.15,1.68 7.79,1.68 2.58,0 5.41,-0.91 2.84,-0.9 5.93,-3.54 3.09,-2.64 4.51,-6.63 0.26,-0.65 0.38,-0.84 0.13,-0.26 0.52,-0.52 0.39,-0.32 0.9,-0.32 0.71,0 1.16,0.39 0.45,0.39 0.45,0.9 0,1.16 -0.9,3.48 -0.84,2.32 -2.71,5.22 -1.8,2.89 -4.18,5.54 -2.32,2.57 -5.8,4.38 -3.48,1.73 -7.15,1.73 -2.64,0 -4.57,-1.28 -1.93,-1.23 -3.87,-3.61 -2.64,-3.03 -4.05,-3.99 -1.42,-1.03 -3.61,-1.03 -5.86,0 -11.21,8.18 -0.58,1.15 -0.97,1.41 -0.32,0.32 -1.09,0.32 -1.61,-0.06 -1.61,-1.35 0,-0.51 1.42,-2.77 1.48,-2.32 4.76,-6.37 3.35,-4.06 7.41,-8.12 l 11.85,-11.08 q 13.14,-11.08 18.36,-17.33 -2.19,0 -3.16,-0.06 -0.9,-0.06 -2.7,-0.45 -1.81,-0.45 -4.32,-1.42 -5.86,-2 -8.31,-2 -0.64,0 -1.35,0.07 -0.71,0.06 -2.32,0.39 -1.54,0.32 -2.83,0.96 -1.29,0.58 -2.64,1.87 -1.36,1.22 -2.06,2.9 -0.2,0.51 -0.33,0.77 -0.13,0.26 -0.51,0.52 -0.32,0.19 -0.84,0.19 -0.77,0 -1.22,-0.45 -0.39,-0.45 -0.39,-1.03 0,-1.16 1.16,-3.54 1.16,-2.39 3.09,-4.96 1.93,-2.64 5.09,-4.58 3.16,-1.93 6.63,-1.93 2.07,0 3.8,0.9 1.81,0.9 2.71,1.87 0.97,0.9 2.58,2.9 1.35,1.54 1.99,2.19 0.65,0.64 1.94,1.35 1.35,0.65 2.83,0.65 2.45,0 4.7,-1.87 2.26,-1.93 5.15,-6.57 0.78,-1.42 2,-1.42 1.42,0 1.42,1.29 z"
     fill="#000000"
     fill-rule="nonzero"
     fill-opacity="1"
     id="path77"
     transform="matrix(0.9777595,0,0,0.9777595,32,1.0062513)" />
  <path
     clip-path="url(#clip490)"
     d="m 1167.47,1535.34 q 0,-22.61 8.43,-40.83 3.59,-7.65 8.62,-14.05 5.03,-6.4 8.36,-9.21 3.33,-2.81 4.25,-2.81 1.3,0 1.37,1.31 0,0.65 -1.76,2.28 -21.56,21.95 -21.5,63.31 0,41.48 20.97,62.58 2.29,2.29 2.29,3 0,1.31 -1.37,1.31 -0.92,0 -4.12,-2.68 -3.2,-2.68 -8.16,-8.82 -4.97,-6.14 -8.56,-13.65 -8.82,-18.23 -8.82,-41.74 z"
     fill="#000000"
     fill-rule="nonzero"
     fill-opacity="1"
     id="path79"
     transform="matrix(0.9777595,0,0,0.9777595,32,1.0062513)" />
  <path
     clip-path="url(#clip490)"
     d="m 1295.73,1597.04 q -0.65,0.77 -1.81,0.77 -1.09,0 -1.86,-0.77 l -27.32,-27.31 -27.31,27.31 q -0.77,0.77 -1.93,0.77 -1.09,0 -1.8,-0.77 -0.77,-0.71 -0.77,-1.81 0,-1.09 0.77,-1.87 l 27.31,-27.31 -27.31,-27.31 q -0.77,-0.77 -0.77,-1.86 0,-1.16 0.77,-1.81 0.71,-0.77 1.8,-0.77 1.16,0 1.93,0.77 l 27.31,27.31 27.32,-27.31 q 0.77,-0.77 1.86,-0.77 1.16,0 1.81,0.77 0.77,0.65 0.77,1.81 0,1.09 -0.77,1.86 l -27.31,27.31 27.31,27.31 q 0.77,0.78 0.77,1.94 0,1.09 -0.77,1.74 z"
     fill="#000000"
     fill-rule="nonzero"
     fill-opacity="1"
     id="path81"
     transform="matrix(0.9777595,0,0,0.9777595,32,1.0062513)" />
  <path
     clip-path="url(#clip490)"
     d="m 1346.49,1523.74 v -4.13 q 15.85,0 24.03,-8.43 2.25,0 2.64,0.51 0.39,0.52 0.39,2.9 v 74.01 q 0,3.93 1.93,5.15 1.93,1.23 10.37,1.23 h 4.18 v 4.05 q -4.63,-0.38 -21.38,-0.38 -16.75,0 -21.32,0.38 v -4.05 h 4.19 q 8.31,0 10.3,-1.16 2,-1.23 2,-5.22 v -68.34 q -6.89,3.48 -17.33,3.48 z"
     fill="#000000"
     fill-rule="nonzero"
     fill-opacity="1"
     id="path83"
     transform="matrix(0.9777595,0,0,0.9777595,32,1.0062513)" />
  <path
     clip-path="url(#clip490)"
     d="m 1411.82,1556.84 q 0,-19.38 4.9,-29.95 6.82,-15.71 22.93,-15.71 3.41,0 6.95,0.96 3.61,0.9 8.12,4.45 4.57,3.54 7.34,9.34 5.28,11.2 5.28,30.91 0,19.26 -4.89,29.76 -7.15,15.33 -22.93,15.33 -5.93,0 -11.98,-3.03 -5.99,-3.02 -9.79,-10.3 -5.93,-10.89 -5.93,-31.76 m 10.95,-1.61 q 0,19.91 1.42,27.83 1.61,8.57 5.99,12.3 4.44,3.67 9.34,3.67 5.28,0 9.66,-3.93 4.44,-3.99 5.8,-12.56 1.48,-8.43 1.41,-27.31 0,-18.35 -1.28,-25.7 -1.74,-8.56 -6.38,-11.98 -4.57,-3.48 -9.21,-3.48 -1.74,0 -3.61,0.52 -1.8,0.51 -4.44,2 -2.64,1.48 -4.71,5.15 -1.99,3.67 -2.96,9.21 -1.03,7.15 -1.03,24.28 z"
     fill="#000000"
     fill-rule="nonzero"
     fill-opacity="1"
     id="path85"
     transform="matrix(0.9777595,0,0,0.9777595,32,1.0062513)" />
  <path
     clip-path="url(#clip490)"
     d="m 1541.84,1505.9 q 0.55,0.54 0.55,1.31 0,0.76 -0.55,1.3 -0.54,0.54 -1.3,0.54 h -57.81 q -0.76,0 -1.3,-0.54 -0.54,-0.54 -0.54,-1.3 0,-0.77 0.54,-1.31 0.54,-0.54 1.3,-0.54 h 57.81 q 0.76,0 1.3,0.54 z"
     fill="#000000"
     fill-rule="nonzero"
     fill-opacity="1"
     id="path87"
     transform="matrix(0.9777595,0,0,0.9777595,32,1.0062513)" />
  <path
     clip-path="url(#clip490)"
     d="m 1552.03,1530.29 q 0,-1.67 0.13,-2.16 0.18,-0.5 0.9,-1.27 l 17.72,-19.74 q 9.7,-10.92 9.7,-20.43 0,-6.18 -3.25,-10.6 -3.2,-4.41 -9.11,-4.41 -4.06,0 -7.48,2.48 -3.43,2.48 -5.01,6.89 0.27,-0.09 1.22,-0.09 2.3,0 3.56,1.45 1.31,1.44 1.31,3.38 0,2.48 -1.62,3.7 -1.58,1.17 -3.16,1.17 -0.63,0 -1.49,-0.14 -0.81,-0.13 -2.12,-1.39 -1.3,-1.31 -1.3,-3.61 0,-6.45 4.86,-11.59 4.92,-5.14 12.4,-5.14 8.48,0 14.03,5.05 5.59,5 5.59,12.85 0,2.75 -0.86,5.28 -0.81,2.48 -1.94,4.41 -1.08,1.94 -4.06,5.05 -2.97,3.12 -5.36,5.32 -2.39,2.21 -7.76,6.9 l -9.78,9.52 h 16.64 q 8.11,0 8.74,-0.72 0.91,-1.31 2.03,-8.21 h 2.35 l -2.62,16.05 z"
     fill="#000000"
     fill-rule="nonzero"
     fill-opacity="1"
     id="path89"
     transform="matrix(0.9777595,0,0,0.9777595,32,1.0062513)" />
  <path
     clip-path="url(#clip490)"
     d="m 1625.91,1600.92 q 0,-0.65 1.7,-2.28 21.56,-21.95 21.56,-63.3 0,-41.49 -20.71,-62.46 -2.55,-2.41 -2.55,-3.13 0,-1.31 1.31,-1.31 0.92,0 4.12,2.68 3.26,2.68 8.16,8.82 4.97,6.14 8.63,13.65 8.82,18.23 8.82,41.75 0,22.6 -8.43,40.82 -3.6,7.65 -8.63,14.05 -5.03,6.4 -8.36,9.21 -3.33,2.81 -4.31,2.81 -1.31,0 -1.31,-1.31 z"
     fill="#000000"
     fill-rule="nonzero"
     fill-opacity="1"
     id="path91"
     transform="matrix(0.9777595,0,0,0.9777595,32,1.0062513)" />
  <polyline
     clip-path="url(#clip490)"
     style="fill:none;stroke:#000000;stroke-width:4;stroke-linecap:round;stroke-linejoin:round;stroke-opacity:1"
     points="319.734,1345.42 319.734,47.2441 "
     id="polyline93"
     transform="matrix(0.9777595,0,0,0.9777595,32,1.0062513)" />
  <polyline
     clip-path="url(#clip490)"
     style="fill:none;stroke:#000000;stroke-width:4;stroke-linecap:round;stroke-linejoin:round;stroke-opacity:1"
     points="2352.76,1345.42 2352.76,47.2441 "
     id="polyline95"
     transform="matrix(0.9777595,0,0,0.9777595,32,1.0062513)" />
  <polyline
     clip-path="url(#clip490)"
     style="fill:none;stroke:#000000;stroke-width:4;stroke-linecap:round;stroke-linejoin:round;stroke-opacity:1"
     points="319.734,1308.68 338.632,1308.68 "
     id="polyline97"
     transform="matrix(0.9777595,0,0,0.9777595,32,1.0062513)" />
  <polyline
     clip-path="url(#clip490)"
     style="fill:none;stroke:#000000;stroke-width:4;stroke-linecap:round;stroke-linejoin:round;stroke-opacity:1"
     points="319.734,1042.1 338.632,1042.1 "
     id="polyline99"
     transform="matrix(0.9777595,0,0,0.9777595,32,1.0062513)" />
  <polyline
     clip-path="url(#clip490)"
     style="fill:none;stroke:#000000;stroke-width:4;stroke-linecap:round;stroke-linejoin:round;stroke-opacity:1"
     points="319.734,775.521 338.632,775.521 "
     id="polyline101"
     transform="matrix(0.9777595,0,0,0.9777595,32,1.0062513)" />
  <polyline
     clip-path="url(#clip490)"
     style="fill:none;stroke:#000000;stroke-width:4;stroke-linecap:round;stroke-linejoin:round;stroke-opacity:1"
     points="319.734,508.941 338.632,508.941 "
     id="polyline103"
     transform="matrix(0.9777595,0,0,0.9777595,32,1.0062513)" />
  <polyline
     clip-path="url(#clip490)"
     style="fill:none;stroke:#000000;stroke-width:4;stroke-linecap:round;stroke-linejoin:round;stroke-opacity:1"
     points="319.734,242.362 338.632,242.362 "
     id="polyline105"
     transform="matrix(0.9777595,0,0,0.9777595,32,1.0062513)" />
  <path
     clip-path="url(#clip490)"
     d="m 170.021,1310.74 q 0,-13.94 3.521,-21.54 4.909,-11.3 16.489,-11.3 2.455,0 5.002,0.69 2.594,0.65 5.837,3.2 3.288,2.55 5.28,6.72 3.798,8.06 3.798,22.23 0,13.85 -3.52,21.4 -5.141,11.02 -16.49,11.02 -4.261,0 -8.615,-2.17 -4.308,-2.18 -7.04,-7.41 -4.262,-7.83 -4.262,-22.84 m 7.875,-1.16 q 0,14.31 1.019,20.01 1.158,6.16 4.307,8.85 3.196,2.64 6.716,2.64 3.799,0 6.948,-2.83 3.196,-2.87 4.169,-9.03 1.065,-6.07 1.019,-19.64 0,-13.2 -0.926,-18.48 -1.251,-6.16 -4.586,-8.61 -3.289,-2.51 -6.624,-2.51 -1.25,0 -2.593,0.38 -1.297,0.37 -3.196,1.43 -1.9,1.07 -3.382,3.71 -1.436,2.64 -2.13,6.62 -0.741,5.14 -0.741,17.46 z"
     fill="#000000"
     fill-rule="nonzero"
     fill-opacity="1"
     id="path107"
     transform="matrix(0.9777595,0,0,0.9777595,32,1.0062513)" />
  <path
     clip-path="url(#clip490)"
     d="m 223.242,1339.55 q -1.436,-1.53 -1.436,-3.52 0,-1.99 1.436,-3.43 1.436,-1.48 3.612,-1.48 2.085,0 3.474,1.39 1.436,1.34 1.436,3.57 0,2.17 -1.528,3.61 -1.482,1.39 -3.382,1.39 -2.176,0 -3.612,-1.53 z"
     fill="#000000"
     fill-rule="nonzero"
     fill-opacity="1"
     id="path109"
     transform="matrix(0.9777595,0,0,0.9777595,32,1.0062513)" />
  <path
     clip-path="url(#clip490)"
     d="m 243.807,1310.74 q 0,-13.94 3.52,-21.54 4.91,-11.3 16.49,-11.3 2.455,0 5.002,0.69 2.594,0.65 5.836,3.2 3.289,2.55 5.281,6.72 3.798,8.06 3.798,22.23 0,13.85 -3.52,21.4 -5.142,11.02 -16.49,11.02 -4.261,0 -8.615,-2.17 -4.308,-2.18 -7.041,-7.41 -4.261,-7.83 -4.261,-22.84 m 7.874,-1.16 q 0,14.31 1.019,20.01 1.158,6.16 4.308,8.85 3.196,2.64 6.716,2.64 3.798,0 6.948,-2.83 3.196,-2.87 4.169,-9.03 1.065,-6.07 1.019,-19.64 0,-13.2 -0.927,-18.48 -1.25,-6.16 -4.585,-8.61 -3.289,-2.51 -6.624,-2.51 -1.25,0 -2.594,0.38 -1.297,0.37 -3.196,1.43 -1.899,1.07 -3.381,3.71 -1.436,2.64 -2.131,6.62 -0.741,5.14 -0.741,17.46 z"
     fill="#000000"
     fill-rule="nonzero"
     fill-opacity="1"
     id="path111"
     transform="matrix(0.9777595,0,0,0.9777595,32,1.0062513)" />
  <path
     clip-path="url(#clip490)"
     d="m 171.04,1044.16 q 0,-13.94 3.521,-21.54 4.909,-11.3 16.489,-11.3 2.455,0 5.002,0.7 2.594,0.64 5.837,3.19 3.288,2.55 5.28,6.72 3.798,8.06 3.798,22.23 0,13.85 -3.52,21.4 -5.141,11.02 -16.49,11.02 -4.261,0 -8.615,-2.17 -4.308,-2.18 -7.04,-7.41 -4.262,-7.83 -4.262,-22.84 m 7.875,-1.16 q 0,14.32 1.019,20.01 1.158,6.16 4.307,8.85 3.196,2.64 6.716,2.64 3.799,0 6.948,-2.83 3.196,-2.87 4.169,-9.03 1.065,-6.07 1.019,-19.64 0,-13.2 -0.926,-18.48 -1.251,-6.16 -4.586,-8.61 -3.289,-2.5 -6.624,-2.5 -1.25,0 -2.593,0.37 -1.297,0.37 -3.196,1.43 -1.9,1.07 -3.382,3.71 -1.436,2.64 -2.13,6.62 -0.741,5.14 -0.741,17.46 z"
     fill="#000000"
     fill-rule="nonzero"
     fill-opacity="1"
     id="path113"
     transform="matrix(0.9777595,0,0,0.9777595,32,1.0062513)" />
  <path
     clip-path="url(#clip490)"
     d="m 224.261,1072.97 q -1.436,-1.53 -1.436,-3.52 0,-1.99 1.436,-3.43 1.436,-1.48 3.613,-1.48 2.084,0 3.473,1.39 1.436,1.34 1.436,3.57 0,2.17 -1.528,3.61 -1.482,1.39 -3.381,1.39 -2.177,0 -3.613,-1.53 z"
     fill="#000000"
     fill-rule="nonzero"
     fill-opacity="1"
     id="path115"
     transform="matrix(0.9777595,0,0,0.9777595,32,1.0062513)" />
  <path
     clip-path="url(#clip490)"
     d="m 245.845,1074.5 q 0,-1.71 0.139,-2.22 0.185,-0.51 0.927,-1.3 l 18.203,-20.29 q 9.958,-11.21 9.958,-20.98 0,-6.35 -3.335,-10.89 -3.288,-4.53 -9.356,-4.53 -4.169,0 -7.689,2.54 -3.52,2.55 -5.141,7.09 0.278,-0.09 1.25,-0.09 2.363,0 3.659,1.48 1.344,1.48 1.344,3.47 0,2.55 -1.668,3.8 -1.621,1.21 -3.242,1.21 -0.649,0 -1.529,-0.14 -0.833,-0.14 -2.177,-1.44 -1.343,-1.34 -1.343,-3.7 0,-6.63 5.003,-11.91 5.048,-5.28 12.737,-5.28 8.708,0 14.405,5.19 5.744,5.14 5.744,13.2 0,2.82 -0.88,5.42 -0.834,2.55 -1.992,4.54 -1.111,1.99 -4.168,5.19 -3.058,3.19 -5.512,5.46 -2.455,2.27 -7.967,7.09 l -10.051,9.77 h 17.091 q 8.338,0 8.986,-0.74 0.926,-1.34 2.084,-8.43 h 2.409 l -2.687,16.49 z"
     fill="#000000"
     fill-rule="nonzero"
     fill-opacity="1"
     id="path117"
     transform="matrix(0.9777595,0,0,0.9777595,32,1.0062513)" />
  <path
     clip-path="url(#clip490)"
     d="m 168.956,777.582 q 0,-13.942 3.52,-21.538 4.91,-11.302 16.49,-11.302 2.455,0 5.002,0.695 2.594,0.648 5.836,3.196 3.289,2.547 5.281,6.716 3.798,8.059 3.798,22.233 0,13.849 -3.52,21.399 -5.142,11.024 -16.49,11.024 -4.261,0 -8.615,-2.177 -4.308,-2.177 -7.041,-7.411 -4.261,-7.828 -4.261,-22.835 m 7.874,-1.158 q 0,14.312 1.019,20.01 1.158,6.16 4.308,8.846 3.196,2.641 6.716,2.641 3.798,0 6.948,-2.826 3.196,-2.872 4.169,-9.032 1.065,-6.068 1.019,-19.639 0,-13.201 -0.927,-18.481 -1.25,-6.161 -4.585,-8.616 -3.289,-2.501 -6.624,-2.501 -1.251,0 -2.594,0.371 -1.297,0.37 -3.196,1.436 -1.899,1.065 -3.381,3.705 -1.436,2.64 -2.131,6.624 -0.741,5.141 -0.741,17.462 z"
     fill="#000000"
     fill-rule="nonzero"
     fill-opacity="1"
     id="path119"
     transform="matrix(0.9777595,0,0,0.9777595,32,1.0062513)" />
  <path
     clip-path="url(#clip490)"
     d="m 222.176,806.392 q -1.436,-1.528 -1.436,-3.52 0,-1.992 1.436,-3.428 1.436,-1.482 3.613,-1.482 2.085,0 3.474,1.39 1.436,1.343 1.436,3.566 0,2.177 -1.529,3.613 -1.482,1.39 -3.381,1.39 -2.177,0 -3.613,-1.529 z"
     fill="#000000"
     fill-rule="nonzero"
     fill-opacity="1"
     id="path121"
     transform="matrix(0.9777595,0,0,0.9777595,32,1.0062513)" />
  <path
     clip-path="url(#clip490)"
     d="m 241.677,792.265 v -2.918 l 29.134,-44.513 q 0.741,-1.158 1.899,-1.111 1.065,0 1.297,0.417 0.232,0.416 0.232,2.038 v 43.169 h 9.495 v 2.918 h -9.495 v 8.245 q 0,2.732 1.111,3.612 1.158,0.881 6.068,0.881 h 1.992 v 2.918 q -3.891,-0.278 -12.877,-0.278 -8.939,0 -12.83,0.278 v -2.918 h 1.992 q 4.909,0 6.067,-0.834 1.158,-0.88 1.158,-3.659 v -8.245 h -25.243 m 2.686,-2.918 h 23.113 v -35.388 z"
     fill="#000000"
     fill-rule="nonzero"
     fill-opacity="1"
     id="path123"
     transform="matrix(0.9777595,0,0,0.9777595,32,1.0062513)" />
  <path
     clip-path="url(#clip490)"
     d="m 170.299,511.003 q 0,-13.942 3.52,-21.539 4.91,-11.301 16.49,-11.301 2.455,0 5.002,0.694 2.594,0.649 5.837,3.196 3.288,2.548 5.28,6.717 3.798,8.059 3.798,22.233 0,13.849 -3.52,21.399 -5.142,11.024 -16.49,11.024 -4.261,0 -8.615,-2.177 -4.308,-2.177 -7.04,-7.411 -4.262,-7.828 -4.262,-22.835 m 7.874,-1.158 q 0,14.312 1.019,20.009 1.158,6.161 4.308,8.847 3.196,2.64 6.716,2.64 3.798,0 6.948,-2.825 3.196,-2.872 4.169,-9.032 1.065,-6.068 1.019,-19.639 0,-13.201 -0.927,-18.482 -1.25,-6.16 -4.585,-8.615 -3.289,-2.501 -6.624,-2.501 -1.25,0 -2.594,0.37 -1.296,0.371 -3.196,1.436 -1.899,1.066 -3.381,3.706 -1.436,2.64 -2.13,6.623 -0.742,5.142 -0.742,17.463 z"
     fill="#000000"
     fill-rule="nonzero"
     fill-opacity="1"
     id="path125"
     transform="matrix(0.9777595,0,0,0.9777595,32,1.0062513)" />
  <path
     clip-path="url(#clip490)"
     d="m 223.52,539.813 q -1.436,-1.529 -1.436,-3.52 0,-1.992 1.436,-3.428 1.435,-1.482 3.612,-1.482 2.085,0 3.474,1.389 1.436,1.344 1.436,3.567 0,2.177 -1.528,3.613 -1.483,1.389 -3.382,1.389 -2.177,0 -3.612,-1.528 z"
     fill="#000000"
     fill-rule="nonzero"
     fill-opacity="1"
     id="path127"
     transform="matrix(0.9777595,0,0,0.9777595,32,1.0062513)" />
  <path
     clip-path="url(#clip490)"
     d="m 244.363,511.373 q 0,-14.915 7.596,-24.039 7.597,-9.171 17.37,-9.171 5.697,0 8.847,2.918 3.196,2.871 3.196,7.318 0,2.455 -1.436,3.52 -1.436,1.066 -2.918,1.066 -1.714,0 -3.057,-1.158 -1.344,-1.158 -1.344,-3.243 0,-4.261 5.234,-4.261 -2.454,-3.798 -8.337,-3.798 -1.806,0 -3.659,0.556 -1.853,0.509 -4.261,2.269 -2.409,1.76 -4.262,4.54 -1.852,2.779 -3.149,8.013 -1.297,5.234 -1.297,12.043 v 2.269 q 3.89,-9.403 11.857,-9.356 7.967,0 13.479,6.068 5.512,6.067 5.512,15.053 0,9.218 -5.744,15.332 -5.743,6.114 -13.803,6.114 -3.612,0 -6.901,-1.529 -3.242,-1.482 -6.299,-4.91 -3.011,-3.427 -4.818,-10.004 -1.806,-6.578 -1.806,-15.61 m 8.708,8.523 q 0,9.31 1.714,13.756 0.278,0.742 0.88,1.761 0.648,1.019 1.714,2.362 1.111,1.297 2.918,2.177 1.806,0.834 3.89,0.834 6.346,0 9.403,-6.161 1.621,-3.427 1.621,-12.737 0,-9.496 -1.713,-12.97 -2.919,-5.882 -8.847,-5.882 -3.984,0 -6.763,2.733 -2.733,2.732 -3.798,6.392 -1.019,3.659 -1.019,7.735 z"
     fill="#000000"
     fill-rule="nonzero"
     fill-opacity="1"
     id="path129"
     transform="matrix(0.9777595,0,0,0.9777595,32,1.0062513)" />
  <path
     clip-path="url(#clip490)"
     d="m 170.299,244.423 q 0,-13.942 3.52,-21.538 4.91,-11.302 16.49,-11.302 2.455,0 5.002,0.695 2.594,0.649 5.837,3.196 3.288,2.548 5.28,6.716 3.798,8.06 3.798,22.233 0,13.85 -3.52,21.4 -5.142,11.024 -16.49,11.024 -4.261,0 -8.615,-2.177 -4.308,-2.177 -7.04,-7.411 -4.262,-7.828 -4.262,-22.836 m 7.874,-1.158 q 0,14.313 1.019,20.01 1.158,6.161 4.308,8.847 3.196,2.64 6.716,2.64 3.798,0 6.948,-2.825 3.196,-2.872 4.169,-9.032 1.065,-6.068 1.019,-19.64 0,-13.2 -0.927,-18.481 -1.25,-6.16 -4.585,-8.615 -3.289,-2.501 -6.624,-2.501 -1.25,0 -2.594,0.37 -1.296,0.371 -3.196,1.436 -1.899,1.065 -3.381,3.706 -1.436,2.64 -2.13,6.623 -0.742,5.142 -0.742,17.462 z"
     fill="#000000"
     fill-rule="nonzero"
     fill-opacity="1"
     id="path131"
     transform="matrix(0.9777595,0,0,0.9777595,32,1.0062513)" />
  <path
     clip-path="url(#clip490)"
     d="m 223.52,273.234 q -1.436,-1.529 -1.436,-3.521 0,-1.991 1.436,-3.427 1.435,-1.482 3.612,-1.482 2.085,0 3.474,1.389 1.436,1.343 1.436,3.567 0,2.177 -1.528,3.613 -1.483,1.389 -3.382,1.389 -2.177,0 -3.612,-1.528 z"
     fill="#000000"
     fill-rule="nonzero"
     fill-opacity="1"
     id="path133"
     transform="matrix(0.9777595,0,0,0.9777595,32,1.0062513)" />
  <path
     clip-path="url(#clip490)"
     d="m 244.363,260.45 q 0,-10.607 13.664,-17.462 -5.882,-3.984 -6.948,-5.142 -4.168,-4.632 -4.168,-10.422 0,-6.623 5.002,-11.209 5.049,-4.632 12.182,-4.632 6.809,0 11.95,3.937 5.141,3.938 5.141,10.191 0,8.8 -11.487,14.729 7.597,4.724 9.403,6.716 4.632,5.142 4.632,11.673 0,7.596 -5.836,12.83 -5.836,5.188 -13.896,5.188 -7.874,0 -13.757,-4.586 -5.882,-4.586 -5.882,-11.811 m 4.725,0 q 0,5.882 4.4,9.819 4.446,3.937 10.607,3.937 5.975,0 10.422,-3.427 4.492,-3.428 4.492,-8.523 0,-1.992 -0.694,-3.705 -0.649,-1.714 -1.992,-3.057 -1.297,-1.39 -2.131,-1.992 -0.787,-0.649 -2.316,-1.714 l -11.672,-7.365 q -11.116,6.161 -11.116,16.027 m 1.991,-36.731 q 0,4.539 4.771,7.689 l 11.765,7.596 q 9.403,-5.512 9.403,-13.293 0,-5.049 -3.845,-8.384 -3.844,-3.381 -9.171,-3.381 -5.234,0 -9.078,2.779 -3.845,2.733 -3.845,6.994 z"
     fill="#000000"
     fill-rule="nonzero"
     fill-opacity="1"
     id="path135"
     transform="matrix(0.9777595,0,0,0.9777595,32,1.0062513)" />
  <path
     clip-path="url(#clip490)"
     d="m 126.346,1080.1 h -100.5 q -4.0052,0 -4.0052,-2.16 0,-2.16 3.2147,-2.16 H 125.555 q 4.006,0 4.006,2.16 0,2.16 -3.215,2.16 z"
     fill="#000000"
     fill-rule="nonzero"
     fill-opacity="1"
     id="path137"
     transform="matrix(0.9777595,0,0,0.9777595,32,1.0062513)" />
  <path
     clip-path="url(#clip490)"
     d="m 90.1933,993.975 q 0.4744,-0.421 0.9487,-0.421 0.4743,0 1.8445,1.054 1.3702,1.001 3.2147,3.162 1.8445,2.161 3.5836,4.95 1.7392,2.8 2.8982,6.91 1.212,4.11 1.212,8.43 0,8.06 -5.3223,12.81 -5.3227,4.69 -12.9643,4.69 -7.4308,0 -14.5453,-4.17 -7.1673,-4.16 -11.5941,-10.91 -4.4796,-6.74 -4.4796,-13.86 0,-5.64 2.635,-9.166 2.6351,-3.531 6.6403,-3.531 3.1093,0 5.0065,1.792 1.8973,1.791 1.8973,4.216 0,1.689 -0.9486,2.849 -1.0014,1.16 -2.8459,1.16 -2.3715,0 -4.216,-1.95 -0.7378,-0.74 -1.054,-1.59 -0.3689,-0.891 -0.3689,-1.418 -0.0527,-0.527 -0.0527,-1.739 -2.0553,1.107 -3.1621,3.737 -1.1594,2.59 -1.1594,5.54 0,4.37 3.0567,8.54 3.0039,4.16 7.7469,6.69 4.6377,2.53 11.2252,4.16 6.5349,1.64 10.3293,1.64 5.2174,0 8.4848,-2.43 3.2672,-2.42 3.2672,-7.27 0,-0.95 -0.052,-1.95 -0.053,-1.06 -0.633,-3.69 -0.58,-2.69 -1.5809,-5.06 -1.0013,-2.37 -3.162,-5.37 -2.2134,-3.062 -5.2173,-5.486 -1.1068,-0.843 -1.1068,-1.423 0,-0.474 0.4743,-0.896 z"
     fill="#000000"
     fill-rule="nonzero"
     fill-opacity="1"
     id="path139"
     transform="matrix(0.9777595,0,0,0.9777595,32,1.0062513)" />
  <path
     clip-path="url(#clip490)"
     d="m 112.463,942.97 q 5.386,0 10.587,2.73 5.202,2.693 8.411,6.935 3.173,4.242 3.173,8.559 0,2.582 -1.402,4.316 -1.439,1.697 -3.468,2.619 2.509,0.701 8.522,2.213 6.013,1.513 6.603,1.513 0.332,0 0.48,-0.074 0.147,-0.074 0.332,-0.406 0.221,-0.332 0.295,-1.143 0.111,-0.812 0.111,-2.177 0,-0.701 0,-0.959 0.037,-0.295 0.221,-0.553 0.184,-0.295 0.59,-0.295 1.513,0 1.513,1.364 0,1.218 -0.111,3.726 -0.111,2.509 -0.111,3.763 0,1.07 0.111,3.21 0.111,2.139 0.111,3.135 0,0.996 -0.886,0.996 -0.516,0 -0.848,-0.147 -0.295,-0.111 -0.443,-0.406 -0.11,-0.295 -0.147,-0.553 0,-0.222 0,-0.664 0,-1.697 -0.296,-2.435 -0.258,-0.738 -0.811,-0.996 -0.517,-0.295 -1.992,-0.627 l -33.644,-8.485 q -2.25,-0.517 -3.837,-0.517 -1.992,0 -2.73,0.628 -0.737,0.627 -0.737,1.733 0,1.919 2.287,3.173 2.287,1.254 6.714,2.324 1.217,0.332 1.475,0.553 0.259,0.185 0.259,0.738 -0.037,0.923 -0.775,0.923 -0.185,0 -1.365,-0.296 -1.217,-0.295 -2.988,-0.848 -1.808,-0.59 -2.951,-1.217 -0.775,-0.369 -1.292,-0.701 -0.516,-0.332 -1.328,-0.996 -0.811,-0.701 -1.254,-1.697 -0.443,-0.996 -0.443,-2.214 0,-2.361 1.402,-4.316 1.402,-1.955 4.243,-2.472 -2.472,-2.102 -4.058,-4.685 -1.587,-2.582 -1.587,-5.201 0,-4.353 3.394,-7.194 3.357,-2.877 8.67,-2.877 m -3.321,5.459 q -3.357,0 -5.201,1.292 -1.881,1.254 -1.881,3.541 0,2.841 2.877,6.124 2.73,3.246 5.275,3.91 l 14.793,3.726 1.218,0.222 q 0.221,0 0.885,-0.111 0.627,-0.148 1.66,-0.553 1.033,-0.443 1.955,-1.033 0.886,-0.628 1.55,-1.734 0.664,-1.144 0.664,-2.546 0,-2.25 -1.992,-4.685 -1.992,-2.471 -5.755,-4.316 -2.435,-1.144 -7.673,-2.472 -5.276,-1.365 -8.375,-1.365 z"
     fill="#000000"
     fill-rule="nonzero"
     fill-opacity="1"
     id="path141"
     transform="matrix(0.9777595,0,0,0.9777595,32,1.0062513)" />
  <path
     clip-path="url(#clip490)"
     d="m 133.785,938.461 q -1.365,0 -1.77,-0.111 -0.406,-0.147 -1.033,-0.737 l -16.158,-14.498 q -8.928,-7.932 -16.7117,-7.932 -5.054,0 -8.6693,2.656 -3.6152,2.62 -3.6152,7.452 0,3.32 2.029,6.124 2.0289,2.804 5.6442,4.095 -0.0738,-0.222 -0.0738,-0.996 0,-1.882 1.1805,-2.915 1.1805,-1.069 2.7668,-1.069 2.0289,0 3.0245,1.328 0.96,1.291 0.96,2.582 0,0.516 -0.111,1.217 -0.111,0.664 -1.144,1.734 -1.0695,1.07 -2.9509,1.07 -5.2753,0 -9.4808,-3.984 -4.2055,-4.021 -4.2055,-10.145 0,-6.935 4.1317,-11.473 4.0949,-4.574 10.5138,-4.574 2.2507,0 4.3157,0.701 2.029,0.664 3.616,1.586 1.586,0.885 4.131,3.32 2.546,2.435 4.353,4.39 1.808,1.955 5.645,6.345 l 7.784,8.005 V 919.02 q 0,-6.64 -0.591,-7.157 -1.07,-0.738 -6.714,-1.66 v -1.918 l 13.133,2.139 z"
     fill="#000000"
     fill-rule="nonzero"
     fill-opacity="1"
     id="path143"
     transform="matrix(0.9777595,0,0,0.9777595,32,1.0062513)" />
  <path
     clip-path="url(#clip490)"
     d="m 126.346,861.013 h -100.5 q -4.0052,0 -4.0052,-2.161 0,-2.161 3.2147,-2.161 H 125.555 q 4.006,0 4.006,2.161 0,2.161 -3.215,2.161 z"
     fill="#000000"
     fill-rule="nonzero"
     fill-opacity="1"
     id="path145"
     transform="matrix(0.9777595,0,0,0.9777595,32,1.0062513)" />
  <path
     clip-path="url(#clip490)"
     d="m 49.7304,730.916 q -18.774,0 -33.9126,-7 -6.34838,-2.984 -11.66586,-7.162 -5.31748,-4.178 -7.65066,-6.945 -2.33318,-2.767 -2.33318,-3.527 0,-1.085 1.0852,-1.14 0.5426,0 1.8991,1.465 18.2314,17.906 52.578,17.852 34.4551,0 51.9806,-17.417 1.9,-1.9 2.496,-1.9 1.086,0 1.086,1.14 0,0.76 -2.225,3.418 -2.225,2.659 -7.3251,6.783 -5.1005,4.124 -11.3404,7.108 -15.1385,7.325 -34.6721,7.325 z"
     fill="#000000"
     fill-rule="nonzero"
     fill-opacity="1"
     id="path147"
     transform="matrix(0.9777595,0,0,0.9777595,32,1.0062513)" />
  <path
     clip-path="url(#clip490)"
     d="m 101.05,625.342 q 0.632,0.527 0.632,1.476 0,0.896 -0.632,1.528 l -22.3454,22.345 22.3454,22.345 q 0.632,0.633 0.632,1.581 0,0.896 -0.632,1.476 -0.58,0.632 -1.476,0.632 -0.8959,0 -1.5283,-0.632 l -22.345,-22.345 -22.345,22.345 q -0.6324,0.632 -1.5283,0.632 -0.9486,0 -1.4756,-0.632 -0.6324,-0.58 -0.6324,-1.476 0,-0.948 0.6324,-1.581 l 22.345,-22.345 -22.345,-22.345 q -0.6324,-0.632 -0.6324,-1.528 0,-0.949 0.6324,-1.476 0.527,-0.632 1.4756,-0.632 0.8959,0 1.5283,0.632 l 22.345,22.345 22.345,-22.345 q 0.6324,-0.632 1.581,-0.632 0.8963,0 1.4233,0.632 z"
     fill="#000000"
     fill-rule="nonzero"
     fill-opacity="1"
     id="path149"
     transform="matrix(0.9777595,0,0,0.9777595,32,1.0062513)" />
  <path
     clip-path="url(#clip490)"
     d="m 41.0765,583.834 h -3.3729 q 0,-12.965 -6.9037,-19.658 0,-1.844 0.4216,-2.16 0.4216,-0.317 2.3715,-0.317 h 60.5529 q 3.2147,0 4.216,-1.581 1.0013,-1.581 1.0013,-8.484 v -3.426 h 3.3198 q -0.316,3.794 -0.316,17.497 0,13.702 0.316,17.443 h -3.3198 v -3.425 q 0,-6.798 -0.9486,-8.432 -1.0013,-1.634 -4.2687,-1.634 H 38.2307 q 2.8458,5.639 2.8458,14.177 z"
     fill="#000000"
     fill-rule="nonzero"
     fill-opacity="1"
     id="path151"
     transform="matrix(0.9777595,0,0,0.9777595,32,1.0062513)" />
  <path
     clip-path="url(#clip490)"
     d="m 68.1645,530.388 q -15.8628,0 -24.5057,-4.005 -12.8589,-5.586 -12.8589,-18.761 0,-2.794 0.7905,-5.692 0.7378,-2.951 3.6363,-6.64 2.8986,-3.742 7.6416,-6.008 9.1699,-4.322 25.2962,-4.322 15.7575,0 24.3477,4.006 12.5428,5.849 12.5428,18.761 0,4.848 -2.477,9.802 -2.477,4.901 -8.4321,8.011 -8.9064,4.848 -25.9814,4.848 m -1.3175,-8.959 q 16.2845,0 22.7666,-1.159 7.0092,-1.318 10.0658,-4.901 3.0036,-3.637 3.0036,-7.642 0,-4.321 -3.2144,-7.905 -3.2674,-3.636 -10.2766,-4.743 -6.9037,-1.212 -22.345,-1.16 -15.0196,0 -21.0275,1.054 -7.0091,1.423 -9.8023,5.218 -2.8458,3.742 -2.8458,7.536 0,1.423 0.4216,2.951 0.4216,1.476 1.6337,3.637 1.2121,2.16 4.2161,3.847 3.0039,1.633 7.5361,2.424 5.8498,0.843 19.8681,0.843 z"
     fill="#000000"
     fill-rule="nonzero"
     fill-opacity="1"
     id="path153"
     transform="matrix(0.9777595,0,0,0.9777595,32,1.0062513)" />
  <path
     clip-path="url(#clip490)"
     d="m 24.8469,424.008 q 0.4427,-0.443 1.0699,-0.443 0.6271,0 1.0698,0.443 0.4427,0.443 0.4427,1.07 v 47.293 q 0,0.627 -0.4427,1.07 -0.4427,0.443 -1.0698,0.443 -0.6272,0 -1.0699,-0.443 -0.4426,-0.443 -0.4426,-1.07 v -47.293 q 0,-0.627 0.4426,-1.07 z"
     fill="#000000"
     fill-rule="nonzero"
     fill-opacity="1"
     id="path155"
     transform="matrix(0.9777595,0,0,0.9777595,32,1.0062513)" />
  <path
     clip-path="url(#clip490)"
     d="m 34.6229,415.684 q -2.2503,0 -3.3202,-1.291 -1.0698,-1.292 -1.0698,-2.952 0,-1.733 1.1436,-2.951 1.1067,-1.254 3.0619,-1.254 2.1028,0 3.2833,1.476 1.1805,1.438 0.8853,3.504 3.025,-1.808 4.39,-5.128 1.3649,-3.357 1.3649,-6.455 0,-3.247 -2.8036,-5.866 -2.8037,-2.656 -9.6653,-2.656 -5.8287,0 -9.1857,2.287 -3.357,2.25 -3.357,6.714 v 3.32 q 0,1.144 -0.1107,1.476 -0.1107,0.332 -0.7378,0.332 -0.7378,0 -0.8854,-1.144 0,-1.143 -0.2213,-2.951 -0.1476,-4.39 -3.9473,-6.714 -3.54146,-2.103 -8.59543,-2.103 -4.611297,0 -6.5296,2.214 -1.95518,2.176 -1.95518,5.017 0,2.656 1.10671,5.57 1.10671,2.915 3.57836,4.501 0,-4.685 3.79971,-4.685 1.66006,0 2.76677,1.07 1.06982,1.032 1.06982,2.766 0,1.66 -1.03293,2.767 -1.06982,1.107 -2.87744,1.107 -4.316175,0 -7.30429,-3.837 -2.98812,-3.873 -2.98812,-9.554 0,-5.608 2.95123,-9.739 2.951224,-4.169 7.48874,-4.169 4.46373,0 8.11585,2.951 3.6522,2.951 5.1647,7.637 1.1436,-5.755 5.054,-9.186 3.8734,-3.431 8.6323,-3.431 5.9024,0 10.2555,4.648 4.3162,4.648 4.3162,11.436 0,6.272 -3.3939,10.772 -3.3939,4.501 -8.4479,4.501 z"
     fill="#000000"
     fill-rule="nonzero"
     fill-opacity="1"
     id="path157"
     transform="matrix(0.9777595,0,0,0.9777595,32,1.0062513)" />
  <path
     clip-path="url(#clip490)"
     d="m 104.207,355.232 q -0.542,0 -1.899,-1.411 -18.231,-17.905 -52.5776,-17.905 -34.4552,0 -51.87262,17.2 -2.00762,2.116 -2.60448,2.116 -1.0852,0 -1.0852,-1.085 0,-0.76 2.22466,-3.419 2.22466,-2.713 7.3251,-6.782 5.10044,-4.124 11.34034,-7.162 15.1386,-7.325 34.6722,-7.325 18.7739,0 33.9125,6.999 6.3484,2.984 11.6659,7.162 5.3172,4.178 7.6502,6.946 2.334,2.767 2.334,3.581 0,1.085 -1.086,1.085 z"
     fill="#000000"
     fill-rule="nonzero"
     fill-opacity="1"
     id="path159"
     transform="matrix(0.9777595,0,0,0.9777595,32,1.0062513)" />
  <path
     clip-path="url(#clip492)"
     d="m 377.272,1284.68 -24,24 24,24 24,-24 z"
     fill="#e31a1c"
     fill-rule="evenodd"
     fill-opacity="1"
     stroke="#000000"
     stroke-opacity="1"
     stroke-width="0"
     id="path161"
     transform="matrix(0.9777595,0,0,0.9777595,32,1.0062513)" />
  <path
     clip-path="url(#clip492)"
     d="m 505.135,1203.2 -24,24 24,24 24,-24 z"
     fill="#e31a1c"
     fill-rule="evenodd"
     fill-opacity="1"
     stroke="#000000"
     stroke-opacity="1"
     stroke-width="0"
     id="path163"
     transform="matrix(0.9777595,0,0,0.9777595,32,1.0062513)" />
  <path
     clip-path="url(#clip492)"
     d="m 632.998,1122.78 -24,24 24,24 24,-24 z"
     fill="#e31a1c"
     fill-rule="evenodd"
     fill-opacity="1"
     stroke="#000000"
     stroke-opacity="1"
     stroke-width="0"
     id="path165"
     transform="matrix(0.9777595,0,0,0.9777595,32,1.0062513)" />
  <path
     clip-path="url(#clip492)"
     d="m 760.861,1044.44 -24,24 24,24 24,-24 z"
     fill="#e31a1c"
     fill-rule="evenodd"
     fill-opacity="1"
     stroke="#000000"
     stroke-opacity="1"
     stroke-width="0"
     id="path167"
     transform="matrix(0.9777595,0,0,0.9777595,32,1.0062513)" />
  <path
     clip-path="url(#clip492)"
     d="m 888.724,969.163 -24,24 24,23.997 24,-23.997 z"
     fill="#e31a1c"
     fill-rule="evenodd"
     fill-opacity="1"
     stroke="#000000"
     stroke-opacity="1"
     stroke-width="0"
     id="path169"
     transform="matrix(0.9777595,0,0,0.9777595,32,1.0062513)" />
  <path
     clip-path="url(#clip492)"
     d="m 1016.59,897.892 -24.003,24 24.003,24 24,-24 z"
     fill="#e31a1c"
     fill-rule="evenodd"
     fill-opacity="1"
     stroke="#000000"
     stroke-opacity="1"
     stroke-width="0"
     id="path171"
     transform="matrix(0.9777595,0,0,0.9777595,32,1.0062513)" />
  <path
     clip-path="url(#clip492)"
     d="m 1144.45,831.474 -24,24 24,24 24,-24 z"
     fill="#e31a1c"
     fill-rule="evenodd"
     fill-opacity="1"
     stroke="#000000"
     stroke-opacity="1"
     stroke-width="0"
     id="path173"
     transform="matrix(0.9777595,0,0,0.9777595,32,1.0062513)" />
  <path
     clip-path="url(#clip492)"
     d="m 1272.31,770.672 -24,24 24,24 24,-24 z"
     fill="#e31a1c"
     fill-rule="evenodd"
     fill-opacity="1"
     stroke="#000000"
     stroke-opacity="1"
     stroke-width="0"
     id="path175"
     transform="matrix(0.9777595,0,0,0.9777595,32,1.0062513)" />
  <path
     clip-path="url(#clip492)"
     d="m 1400.18,716.14 -24,24 24,24 24,-24 z"
     fill="#e31a1c"
     fill-rule="evenodd"
     fill-opacity="1"
     stroke="#000000"
     stroke-opacity="1"
     stroke-width="0"
     id="path177"
     transform="matrix(0.9777595,0,0,0.9777595,32,1.0062513)" />
  <path
     clip-path="url(#clip492)"
     d="m 1528.04,668.42 -24,24 24,24 24,-24 z"
     fill="#e31a1c"
     fill-rule="evenodd"
     fill-opacity="1"
     stroke="#000000"
     stroke-opacity="1"
     stroke-width="0"
     id="path179"
     transform="matrix(0.9777595,0,0,0.9777595,32,1.0062513)" />
  <path
     clip-path="url(#clip492)"
     d="m 1655.9,627.932 -24,24 24,24 24,-24 z"
     fill="#e31a1c"
     fill-rule="evenodd"
     fill-opacity="1"
     stroke="#000000"
     stroke-opacity="1"
     stroke-width="0"
     id="path181"
     transform="matrix(0.9777595,0,0,0.9777595,32,1.0062513)" />
  <path
     clip-path="url(#clip492)"
     d="m 1783.77,594.969 -24,24 24,24 24,-24 z"
     fill="#e31a1c"
     fill-rule="evenodd"
     fill-opacity="1"
     stroke="#000000"
     stroke-opacity="1"
     stroke-width="0"
     id="path183"
     transform="matrix(0.9777595,0,0,0.9777595,32,1.0062513)" />
  <path
     clip-path="url(#clip492)"
     d="m 1911.63,569.695 -24,24 24,24 24,-24 z"
     fill="#e31a1c"
     fill-rule="evenodd"
     fill-opacity="1"
     stroke="#000000"
     stroke-opacity="1"
     stroke-width="0"
     id="path185"
     transform="matrix(0.9777595,0,0,0.9777595,32,1.0062513)" />
  <path
     clip-path="url(#clip492)"
     d="m 2039.49,552.15 -24,24 24,24 24,-24 z"
     fill="#e31a1c"
     fill-rule="evenodd"
     fill-opacity="1"
     stroke="#000000"
     stroke-opacity="1"
     stroke-width="0"
     id="path187"
     transform="matrix(0.9777595,0,0,0.9777595,32,1.0062513)" />
  <path
     clip-path="url(#clip492)"
     d="m 2167.35,542.249 -24,24 24,24 24,-24 z"
     fill="#e31a1c"
     fill-rule="evenodd"
     fill-opacity="1"
     stroke="#000000"
     stroke-opacity="1"
     stroke-width="0"
     id="path189"
     transform="matrix(0.9777595,0,0,0.9777595,32,1.0062513)" />
  <path
     clip-path="url(#clip492)"
     d="m 2295.22,539.787 -24,24 24,24 24,-24 z"
     fill="#e31a1c"
     fill-rule="evenodd"
     fill-opacity="1"
     stroke="#000000"
     stroke-opacity="1"
     stroke-width="0"
     id="path191"
     transform="matrix(0.9777595,0,0,0.9777595,32,1.0062513)" />
  <path
     clip-path="url(#clip492)"
     d="m 377.272,1284.68 -24,24 24,24 24,-24 z"
     fill="#377db8"
     fill-rule="evenodd"
     fill-opacity="1"
     stroke="#000000"
     stroke-opacity="1"
     stroke-width="0"
     id="path193"
     transform="matrix(0.9777595,0,0,0.9777595,32,1.0062513)" />
  <path
     clip-path="url(#clip492)"
     d="m 505.135,1282.68 -24,24 24,24 24,-24 z"
     fill="#377db8"
     fill-rule="evenodd"
     fill-opacity="1"
     stroke="#000000"
     stroke-opacity="1"
     stroke-width="0"
     id="path195"
     transform="matrix(0.9777595,0,0,0.9777595,32,1.0062513)" />
  <path
     clip-path="url(#clip492)"
     d="m 632.998,1276.71 -24,24 24,24 24,-24 z"
     fill="#377db8"
     fill-rule="evenodd"
     fill-opacity="1"
     stroke="#000000"
     stroke-opacity="1"
     stroke-width="0"
     id="path197"
     transform="matrix(0.9777595,0,0,0.9777595,32,1.0062513)" />
  <path
     clip-path="url(#clip492)"
     d="m 760.861,1266.89 -24,24 24,24 24,-24 z"
     fill="#377db8"
     fill-rule="evenodd"
     fill-opacity="1"
     stroke="#000000"
     stroke-opacity="1"
     stroke-width="0"
     id="path199"
     transform="matrix(0.9777595,0,0,0.9777595,32,1.0062513)" />
  <path
     clip-path="url(#clip492)"
     d="m 888.724,1253.39 -24,24 24,24 24,-24 z"
     fill="#377db8"
     fill-rule="evenodd"
     fill-opacity="1"
     stroke="#000000"
     stroke-opacity="1"
     stroke-width="0"
     id="path201"
     transform="matrix(0.9777595,0,0,0.9777595,32,1.0062513)" />
  <path
     clip-path="url(#clip492)"
     d="m 1016.59,1236.48 -24.003,24 24.003,24 24,-24 z"
     fill="#377db8"
     fill-rule="evenodd"
     fill-opacity="1"
     stroke="#000000"
     stroke-opacity="1"
     stroke-width="0"
     id="path203"
     transform="matrix(0.9777595,0,0,0.9777595,32,1.0062513)" />
  <path
     clip-path="url(#clip492)"
     d="m 1144.45,1216.46 -24,24 24,24 24,-24 z"
     fill="#377db8"
     fill-rule="evenodd"
     fill-opacity="1"
     stroke="#000000"
     stroke-opacity="1"
     stroke-width="0"
     id="path205"
     transform="matrix(0.9777595,0,0,0.9777595,32,1.0062513)" />
  <path
     clip-path="url(#clip492)"
     d="m 1272.31,1193.69 -24,24 24,24 24,-24 z"
     fill="#377db8"
     fill-rule="evenodd"
     fill-opacity="1"
     stroke="#000000"
     stroke-opacity="1"
     stroke-width="0"
     id="path207"
     transform="matrix(0.9777595,0,0,0.9777595,32,1.0062513)" />
  <path
     clip-path="url(#clip492)"
     d="m 1400.18,1168.59 -24,24 24,24 24,-24 z"
     fill="#377db8"
     fill-rule="evenodd"
     fill-opacity="1"
     stroke="#000000"
     stroke-opacity="1"
     stroke-width="0"
     id="path209"
     transform="matrix(0.9777595,0,0,0.9777595,32,1.0062513)" />
  <path
     clip-path="url(#clip492)"
     d="m 1528.04,1141.59 -24,24 24,24 24,-24 z"
     fill="#377db8"
     fill-rule="evenodd"
     fill-opacity="1"
     stroke="#000000"
     stroke-opacity="1"
     stroke-width="0"
     id="path211"
     transform="matrix(0.9777595,0,0,0.9777595,32,1.0062513)" />
  <path
     clip-path="url(#clip492)"
     d="m 1655.9,1113.17 -24,24 24,24 24,-24 z"
     fill="#377db8"
     fill-rule="evenodd"
     fill-opacity="1"
     stroke="#000000"
     stroke-opacity="1"
     stroke-width="0"
     id="path213"
     transform="matrix(0.9777595,0,0,0.9777595,32,1.0062513)" />
  <path
     clip-path="url(#clip492)"
     d="m 1783.77,1083.82 -24,24 24,24 24,-24 z"
     fill="#377db8"
     fill-rule="evenodd"
     fill-opacity="1"
     stroke="#000000"
     stroke-opacity="1"
     stroke-width="0"
     id="path215"
     transform="matrix(0.9777595,0,0,0.9777595,32,1.0062513)" />
  <path
     clip-path="url(#clip492)"
     d="m 1911.63,1054.01 -24,24 24,24 24,-24 z"
     fill="#377db8"
     fill-rule="evenodd"
     fill-opacity="1"
     stroke="#000000"
     stroke-opacity="1"
     stroke-width="0"
     id="path217"
     transform="matrix(0.9777595,0,0,0.9777595,32,1.0062513)" />
  <path
     clip-path="url(#clip492)"
     d="m 2039.49,1024.23 -24,24 24,24 24,-24 z"
     fill="#377db8"
     fill-rule="evenodd"
     fill-opacity="1"
     stroke="#000000"
     stroke-opacity="1"
     stroke-width="0"
     id="path219"
     transform="matrix(0.9777595,0,0,0.9777595,32,1.0062513)" />
  <path
     clip-path="url(#clip492)"
     d="m 2167.35,994.96 -24,24 24,24 24,-24 z"
     fill="#377db8"
     fill-rule="evenodd"
     fill-opacity="1"
     stroke="#000000"
     stroke-opacity="1"
     stroke-width="0"
     id="path221"
     transform="matrix(0.9777595,0,0,0.9777595,32,1.0062513)" />
  <path
     clip-path="url(#clip492)"
     d="m 2295.22,966.636 -24,24 24,24.004 24,-24.004 z"
     fill="#377db8"
     fill-rule="evenodd"
     fill-opacity="1"
     stroke="#000000"
     stroke-opacity="1"
     stroke-width="0"
     id="path223"
     transform="matrix(0.9777595,0,0,0.9777595,32,1.0062513)" />
  <path
     clip-path="url(#clip492)"
     d="m 377.272,1284.68 -24,24 24,24 24,-24 z"
     fill="#4dae49"
     fill-rule="evenodd"
     fill-opacity="1"
     stroke="#000000"
     stroke-opacity="1"
     stroke-width="0"
     id="path225"
     transform="matrix(0.9777595,0,0,0.9777595,32,1.0062513)" />
  <path
     clip-path="url(#clip492)"
     d="m 505.135,1284.17 -24,24 24,24 24,-24 z"
     fill="#4dae49"
     fill-rule="evenodd"
     fill-opacity="1"
     stroke="#000000"
     stroke-opacity="1"
     stroke-width="0"
     id="path227"
     transform="matrix(0.9777595,0,0,0.9777595,32,1.0062513)" />
  <path
     clip-path="url(#clip492)"
     d="m 632.998,1282.64 -24,24 24,24 24,-24 z"
     fill="#4dae49"
     fill-rule="evenodd"
     fill-opacity="1"
     stroke="#000000"
     stroke-opacity="1"
     stroke-width="0"
     id="path229"
     transform="matrix(0.9777595,0,0,0.9777595,32,1.0062513)" />
  <path
     clip-path="url(#clip492)"
     d="m 760.861,1280.08 -24,24 24,24 24,-24 z"
     fill="#4dae49"
     fill-rule="evenodd"
     fill-opacity="1"
     stroke="#000000"
     stroke-opacity="1"
     stroke-width="0"
     id="path231"
     transform="matrix(0.9777595,0,0,0.9777595,32,1.0062513)" />
  <path
     clip-path="url(#clip492)"
     d="m 888.724,1276.48 -24,24 24,24 24,-24 z"
     fill="#4dae49"
     fill-rule="evenodd"
     fill-opacity="1"
     stroke="#000000"
     stroke-opacity="1"
     stroke-width="0"
     id="path233"
     transform="matrix(0.9777595,0,0,0.9777595,32,1.0062513)" />
  <path
     clip-path="url(#clip492)"
     d="m 1016.59,1271.85 -24.003,24 24.003,24 24,-24 z"
     fill="#4dae49"
     fill-rule="evenodd"
     fill-opacity="1"
     stroke="#000000"
     stroke-opacity="1"
     stroke-width="0"
     id="path235"
     transform="matrix(0.9777595,0,0,0.9777595,32,1.0062513)" />
  <path
     clip-path="url(#clip492)"
     d="m 1144.45,1266.18 -24,24 24,24 24,-24 z"
     fill="#4dae49"
     fill-rule="evenodd"
     fill-opacity="1"
     stroke="#000000"
     stroke-opacity="1"
     stroke-width="0"
     id="path237"
     transform="matrix(0.9777595,0,0,0.9777595,32,1.0062513)" />
  <path
     clip-path="url(#clip492)"
     d="m 1272.31,1259.47 -24,24 24,24 24,-24 z"
     fill="#4dae49"
     fill-rule="evenodd"
     fill-opacity="1"
     stroke="#000000"
     stroke-opacity="1"
     stroke-width="0"
     id="path239"
     transform="matrix(0.9777595,0,0,0.9777595,32,1.0062513)" />
  <path
     clip-path="url(#clip492)"
     d="m 1400.18,1251.74 -24,24 24,24 24,-24 z"
     fill="#4dae49"
     fill-rule="evenodd"
     fill-opacity="1"
     stroke="#000000"
     stroke-opacity="1"
     stroke-width="0"
     id="path241"
     transform="matrix(0.9777595,0,0,0.9777595,32,1.0062513)" />
  <path
     clip-path="url(#clip492)"
     d="m 1528.04,1242.99 -24,24 24,24 24,-24 z"
     fill="#4dae49"
     fill-rule="evenodd"
     fill-opacity="1"
     stroke="#000000"
     stroke-opacity="1"
     stroke-width="0"
     id="path243"
     transform="matrix(0.9777595,0,0,0.9777595,32,1.0062513)" />
  <path
     clip-path="url(#clip492)"
     d="m 1655.9,1233.27 -24,24 24,24 24,-24 z"
     fill="#4dae49"
     fill-rule="evenodd"
     fill-opacity="1"
     stroke="#000000"
     stroke-opacity="1"
     stroke-width="0"
     id="path245"
     transform="matrix(0.9777595,0,0,0.9777595,32,1.0062513)" />
  <path
     clip-path="url(#clip492)"
     d="m 1783.77,1222.62 -24,24 24,24 24,-24 z"
     fill="#4dae49"
     fill-rule="evenodd"
     fill-opacity="1"
     stroke="#000000"
     stroke-opacity="1"
     stroke-width="0"
     id="path247"
     transform="matrix(0.9777595,0,0,0.9777595,32,1.0062513)" />
  <path
     clip-path="url(#clip492)"
     d="m 1911.63,1211.09 -24,24 24,24 24,-24 z"
     fill="#4dae49"
     fill-rule="evenodd"
     fill-opacity="1"
     stroke="#000000"
     stroke-opacity="1"
     stroke-width="0"
     id="path249"
     transform="matrix(0.9777595,0,0,0.9777595,32,1.0062513)" />
  <path
     clip-path="url(#clip492)"
     d="m 2039.49,1198.77 -24,24 24,24 24,-24 z"
     fill="#4dae49"
     fill-rule="evenodd"
     fill-opacity="1"
     stroke="#000000"
     stroke-opacity="1"
     stroke-width="0"
     id="path251"
     transform="matrix(0.9777595,0,0,0.9777595,32,1.0062513)" />
  <path
     clip-path="url(#clip492)"
     d="m 2167.35,1185.74 -24,24 24,24 24,-24 z"
     fill="#4dae49"
     fill-rule="evenodd"
     fill-opacity="1"
     stroke="#000000"
     stroke-opacity="1"
     stroke-width="0"
     id="path253"
     transform="matrix(0.9777595,0,0,0.9777595,32,1.0062513)" />
  <path
     clip-path="url(#clip492)"
     d="m 2295.22,1172.11 -24,24 24,24 24,-24 z"
     fill="#4dae49"
     fill-rule="evenodd"
     fill-opacity="1"
     stroke="#000000"
     stroke-opacity="1"
     stroke-width="0"
     id="path255"
     transform="matrix(0.9777595,0,0,0.9777595,32,1.0062513)" />
  <polyline
     clip-path="url(#clip492)"
     style="fill:none;stroke:#e31a1c;stroke-width:16;stroke-linecap:round;stroke-linejoin:round;stroke-opacity:1"
     points="377.272,1308.68 407.716,1289.24 438.159,1269.8 468.603,1250.36 499.047,1230.92 529.49,1211.47 559.934,1192.03 590.377,1172.59 620.821,1153.15 651.265,1133.71 681.708,1114.27 712.152,1094.83 742.595,1075.39 773.039,1055.95 803.482,1036.51 833.926,1017.07 864.37,997.627 894.813,978.186 925.257,958.746 955.7,939.305 986.144,919.865 1016.59,900.424 1047.03,880.984 1077.47,861.543 1107.92,842.103 1138.36,822.663 1168.81,803.223 1199.25,783.782 1229.69,764.342 1260.14,744.902 1290.58,725.462 1321.02,706.022 1351.47,686.582 1381.91,667.142 1412.35,647.703 1442.8,628.263 1473.24,608.823 1503.68,589.384 1534.13,569.944 1564.57,550.505 1595.02,531.065 1625.46,511.626 1655.9,492.187 1686.35,472.748 1716.79,453.309 1747.23,433.87 1777.68,414.431 1808.12,394.992 1838.56,375.553 1869.01,356.115 1899.45,336.676 1929.89,317.238 1960.34,297.8 1990.78,278.361 2021.23,258.923 2051.67,239.485 2082.11,220.047 2112.56,200.609 2143,181.172 2173.44,161.734 2203.89,142.297 2234.33,122.859 2264.77,103.422 2295.22,83.9849 "
     id="polyline257"
     transform="matrix(0.9777595,0,0,0.9777595,32,1.0062513)" />
  <polyline
     clip-path="url(#clip492)"
     style="fill:none;stroke:#377db8;stroke-width:16;stroke-linecap:round;stroke-linejoin:round;stroke-opacity:1"
     points="377.272,1308.68 407.716,1308.68 438.159,1308.67 468.603,1308.66 499.047,1308.65 529.49,1308.63 559.934,1308.6 590.377,1308.58 620.821,1308.55 651.265,1308.51 681.708,1308.47 712.152,1308.43 742.595,1308.38 773.039,1308.33 803.482,1308.28 833.926,1308.22 864.37,1308.15 894.813,1308.08 925.257,1308.01 955.7,1307.94 986.144,1307.86 1016.59,1307.77 1047.03,1307.68 1077.47,1307.59 1107.92,1307.49 1138.36,1307.39 1168.81,1307.29 1199.25,1307.18 1229.69,1307.07 1260.14,1306.95 1290.58,1306.83 1321.02,1306.7 1351.47,1306.57 1381.91,1306.44 1412.35,1306.3 1442.8,1306.16 1473.24,1306.01 1503.68,1305.86 1534.13,1305.71 1564.57,1305.55 1595.02,1305.39 1625.46,1305.22 1655.9,1305.05 1686.35,1304.88 1716.79,1304.7 1747.23,1304.51 1777.68,1304.33 1808.12,1304.14 1838.56,1303.94 1869.01,1303.74 1899.45,1303.54 1929.89,1303.33 1960.34,1303.12 1990.78,1302.9 2021.23,1302.68 2051.67,1302.46 2082.11,1302.23 2112.56,1302 2143,1301.76 2173.44,1301.52 2203.89,1301.27 2234.33,1301.03 2264.77,1300.77 2295.22,1300.52 "
     id="polyline259"
     transform="matrix(0.9777595,0,0,0.9777595,32,1.0062513)" />
  <polyline
     clip-path="url(#clip492)"
     style="fill:none;stroke:#4dae49;stroke-width:16;stroke-linecap:round;stroke-linejoin:round;stroke-opacity:1"
     points="377.272,1308.68 407.716,1308.68 438.159,1308.68 468.603,1308.68 499.047,1308.68 529.49,1308.68 559.934,1308.68 590.377,1308.68 620.821,1308.68 651.265,1308.68 681.708,1308.68 712.152,1308.68 742.595,1308.68 773.039,1308.68 803.482,1308.68 833.926,1308.68 864.37,1308.68 894.813,1308.68 925.257,1308.68 955.7,1308.68 986.144,1308.68 1016.59,1308.68 1047.03,1308.68 1077.47,1308.68 1107.92,1308.68 1138.36,1308.67 1168.81,1308.67 1199.25,1308.67 1229.69,1308.67 1260.14,1308.67 1290.58,1308.67 1321.02,1308.67 1351.47,1308.67 1381.91,1308.67 1412.35,1308.67 1442.8,1308.67 1473.24,1308.67 1503.68,1308.66 1534.13,1308.66 1564.57,1308.66 1595.02,1308.66 1625.46,1308.66 1655.9,1308.66 1686.35,1308.66 1716.79,1308.65 1747.23,1308.65 1777.68,1308.65 1808.12,1308.65 1838.56,1308.65 1869.01,1308.64 1899.45,1308.64 1929.89,1308.64 1960.34,1308.64 1990.78,1308.64 2021.23,1308.63 2051.67,1308.63 2082.11,1308.63 2112.56,1308.63 2143,1308.62 2173.44,1308.62 2203.89,1308.62 2234.33,1308.61 2264.77,1308.61 2295.22,1308.61 "
     id="polyline261"
     transform="matrix(0.9777595,0,0,0.9777595,32,1.0062513)" />
  <path
     clip-path="url(#clip490)"
     d="m 501.527,223.969 q 0,0.052 -0.317,1.949 l -12.015,47.905 q -0.633,2.53 -2.425,5.059 -1.739,2.583 -4.532,4.796 -2.74,2.266 -6.956,3.637 -4.164,1.422 -8.959,1.422 -7.642,0 -11.015,-1.633 -3.32,-1.581 -3.32,-4.954 0,-2.951 1.845,-4.638 1.844,-1.633 3.952,-1.633 2.003,0 3.057,1.159 1.054,1.159 1.054,2.635 0,1.634 -1.107,3.267 -1.107,1.687 -3.32,2.319 3.531,1.107 8.643,1.107 10.803,0 15.441,-11.436 0.106,-0.158 0.106,-0.211 l 3.583,-14.282 -0.158,-0.105 q -0.896,1.054 -2.319,2.266 -1.37,1.159 -4.321,2.582 -2.951,1.423 -5.85,1.423 -6.061,0 -10.224,-4.637 -4.11,-4.691 -4.11,-12.438 0,-5.639 2.266,-11.278 2.318,-5.691 5.902,-9.855 3.636,-4.216 8.274,-6.851 4.69,-2.635 9.223,-2.635 3.162,0 5.849,1.898 2.688,1.844 4.164,4.901 0.263,-2.53 1.686,-3.584 1.476,-1.054 2.741,-1.054 1.422,0 2.266,0.791 0.896,0.737 0.896,2.108 m -8.854,6.587 q 0,-0.316 -0.211,-1.159 -0.211,-0.896 -0.843,-2.319 -0.58,-1.423 -1.476,-2.688 -0.896,-1.265 -2.529,-2.161 -1.581,-0.948 -3.584,-0.948 -3.267,0 -6.535,2.74 -3.267,2.688 -5.533,6.851 -2.108,4.006 -4.111,11.753 -1.95,7.747 -1.95,11.699 0,3.9 1.686,6.904 1.687,3.004 5.323,3.004 4.216,0 8.749,-3.9 4.69,-4.058 5.48,-7.536 l 5.218,-20.606 q 0.316,-1.265 0.316,-1.634 z"
     fill="#000000"
     fill-rule="nonzero"
     fill-opacity="1"
     id="path263"
     transform="matrix(0.9777595,0,0,0.9777595,32,1.0062513)" />
  <path
     clip-path="url(#clip490)"
     d="m 631.265,219.331 v 0.211 q -1.686,7.905 -5.112,12.279 -3.372,4.374 -9.855,5.955 -1.633,0.422 -3.794,0.422 -4.585,0 -9.064,-2.161 -4.48,-2.213 -9.487,-6.008 -3.109,-2.319 -4.901,-3.531 -1.791,-1.212 -4.69,-2.424 -2.846,-1.265 -5.323,-1.265 -1.37,0 -2.793,0.316 -5.744,1.476 -9.117,4.533 -3.32,3.056 -4.585,8.853 -0.211,0.949 -1.318,0.949 -0.527,0 -0.895,-0.369 -0.369,-0.369 -0.369,-0.949 v -0.21 q 1.686,-7.905 5.059,-12.28 3.425,-4.374 9.908,-5.955 1.739,-0.421 3.794,-0.421 4.532,0 9.012,2.213 4.479,2.161 9.539,6.008 2.318,1.739 3.636,2.688 1.37,0.896 3.478,2.16 2.108,1.265 4.058,1.845 1.95,0.527 3.847,0.527 1.265,0 2.688,-0.316 5.744,-1.476 9.064,-4.533 3.373,-3.056 4.638,-8.853 0.422,-1.002 1.318,-1.002 0.527,0 0.896,0.369 0.368,0.369 0.368,0.949 m 0,23.768 v 0.211 q -1.686,7.905 -5.112,12.279 -3.372,4.374 -9.855,5.955 -1.633,0.422 -3.794,0.422 -4.532,0 -9.012,-2.161 -4.479,-2.214 -9.539,-6.061 -3.109,-2.318 -4.901,-3.531 -1.791,-1.212 -4.69,-2.424 -2.846,-1.265 -5.323,-1.265 -1.37,0 -2.793,0.317 -5.744,1.475 -9.117,4.532 -3.32,3.056 -4.585,8.854 -0.211,1.001 -1.318,1.001 -0.527,0 -0.895,-0.369 -0.369,-0.369 -0.369,-0.949 v -0.21 q 1.686,-7.906 5.059,-12.28 3.425,-4.374 9.908,-5.955 1.739,-0.421 3.794,-0.421 4.585,0 9.065,2.213 4.479,2.161 9.486,5.955 2.318,1.739 3.636,2.688 1.37,0.896 3.478,2.161 2.108,1.264 4.058,1.844 1.95,0.527 3.847,0.527 1.265,0 2.688,-0.316 5.744,-1.476 9.064,-4.532 3.373,-3.057 4.638,-8.854 0.369,-0.949 1.318,-0.949 0.527,0 0.896,0.369 0.368,0.369 0.368,0.949 z"
     fill="#000000"
     fill-rule="nonzero"
     fill-opacity="1"
     id="path265"
     transform="matrix(0.9777595,0,0,0.9777595,32,1.0062513)" />
  <path
     clip-path="url(#clip490)"
     d="m 743.777,238.092 q 0.632,0.633 0.632,1.529 0,0.896 -0.632,1.528 -0.633,0.632 -1.529,0.632 h -67.562 q -0.896,0 -1.528,-0.632 -0.632,-0.632 -0.632,-1.528 0,-0.896 0.632,-1.529 0.632,-0.632 1.528,-0.632 h 67.562 q 0.896,0 1.529,0.632 z"
     fill="#000000"
     fill-rule="nonzero"
     fill-opacity="1"
     id="path267"
     transform="matrix(0.9777595,0,0,0.9777595,32,1.0062513)" />
  <path
     clip-path="url(#clip490)"
     d="m 785.611,266.603 q 0,-1.95 0.158,-2.529 0.211,-0.58 1.054,-1.476 l 20.712,-23.083 q 11.33,-12.753 11.33,-23.873 0,-7.22 -3.794,-12.385 -3.742,-5.164 -10.646,-5.164 -4.743,0 -8.748,2.898 -4.005,2.899 -5.85,8.063 0.317,-0.105 1.423,-0.105 2.688,0 4.164,1.686 1.528,1.687 1.528,3.953 0,2.898 -1.897,4.321 -1.845,1.371 -3.689,1.371 -0.738,0 -1.739,-0.159 -0.949,-0.158 -2.477,-1.633 -1.529,-1.529 -1.529,-4.216 0,-7.536 5.692,-13.544 5.744,-6.008 14.493,-6.008 9.907,0 16.389,5.902 6.535,5.85 6.535,15.02 0,3.215 -1.001,6.166 -0.949,2.898 -2.266,5.164 -1.265,2.267 -4.743,5.903 -3.478,3.636 -6.271,6.219 -2.794,2.582 -9.065,8.063 l -11.436,11.12 h 19.446 q 9.487,0 10.224,-0.844 1.054,-1.528 2.372,-9.591 h 2.74 l -3.056,18.761 z"
     fill="#000000"
     fill-rule="nonzero"
     fill-opacity="1"
     id="path269"
     transform="matrix(0.9777595,0,0,0.9777595,32,1.0062513)" />
  <path
     clip-path="url(#clip490)"
     d="m 839.489,249.212 q 0,-3.215 1.739,-4.427 1.739,-1.265 3.583,-1.265 2.477,0 3.9,1.581 1.476,1.529 1.476,3.69 0,2.16 -1.476,3.741 -1.423,1.529 -3.9,1.529 -1.212,0 -1.844,-0.211 1.423,4.954 5.744,8.537 4.374,3.584 10.119,3.584 7.22,0 11.541,-7.009 2.582,-4.533 2.582,-14.809 0,-9.065 -1.949,-13.597 -3.004,-6.904 -9.17,-6.904 -8.749,0 -13.913,7.537 -0.633,0.948 -1.37,1.001 -1.054,0 -1.318,-0.58 -0.211,-0.632 -0.211,-2.266 v -31.936 q 0,-2.583 1.054,-2.583 0.422,0 1.318,0.316 6.798,3.004 14.334,3.057 7.747,0 14.704,-3.162 0.527,-0.316 0.843,-0.316 1.054,0 1.107,1.212 0,0.422 -0.896,1.686 -0.844,1.212 -2.688,2.846 -1.845,1.581 -4.216,3.109 -2.372,1.529 -5.85,2.583 -3.425,1.001 -7.22,1.001 -4.532,0 -9.17,-1.423 v 21.028 q 5.587,-5.481 13.702,-5.481 8.643,0 14.598,6.956 5.956,6.957 5.956,16.654 0,10.171 -7.062,17.127 -7.009,6.957 -16.495,6.957 -8.643,0 -14.124,-6.166 -5.428,-6.166 -5.428,-13.597 z"
     fill="#000000"
     fill-rule="nonzero"
     fill-opacity="1"
     id="path271"
     transform="matrix(0.9777595,0,0,0.9777595,32,1.0062513)" />
  <path
     clip-path="url(#clip490)"
     d="m 893.366,232.084 q 0,-15.862 4.005,-24.505 5.586,-12.859 18.762,-12.859 2.793,0 5.691,0.79 2.951,0.738 6.64,3.637 3.742,2.898 6.008,7.641 4.322,9.17 4.322,25.296 0,15.758 -4.005,24.348 -5.85,12.543 -18.762,12.543 -4.848,0 -9.802,-2.477 -4.901,-2.477 -8.011,-8.432 -4.848,-8.907 -4.848,-25.982 m 8.959,-1.317 q 0,16.284 1.159,22.767 1.318,7.009 4.902,10.065 3.636,3.004 7.641,3.004 4.322,0 7.905,-3.214 3.637,-3.268 4.743,-10.277 1.212,-6.904 1.16,-22.345 0,-15.02 -1.054,-21.028 -1.423,-7.009 -5.218,-9.802 -3.741,-2.846 -7.536,-2.846 -1.423,0 -2.951,0.422 -1.476,0.422 -3.636,1.634 -2.161,1.212 -3.848,4.216 -1.633,3.004 -2.424,7.536 -0.843,5.85 -0.843,19.868 z"
     fill="#000000"
     fill-rule="nonzero"
     fill-opacity="1"
     id="path273"
     transform="matrix(0.9777595,0,0,0.9777595,32,1.0062513)" />
  <path
     clip-path="url(#clip490)"
     d="m 947.243,232.084 q 0,-15.862 4.006,-24.505 5.586,-12.859 18.761,-12.859 2.793,0 5.692,0.79 2.951,0.738 6.64,3.637 3.742,2.898 6.008,7.641 4.321,9.17 4.321,25.296 0,15.758 -4.005,24.348 -5.85,12.543 -18.762,12.543 -4.848,0 -9.802,-2.477 -4.901,-2.477 -8.01,-8.432 -4.849,-8.907 -4.849,-25.982 m 8.959,-1.317 q 0,16.284 1.16,22.767 1.317,7.009 4.901,10.065 3.636,3.004 7.641,3.004 4.322,0 7.906,-3.214 3.636,-3.268 4.743,-10.277 1.212,-6.904 1.159,-22.345 0,-15.02 -1.054,-21.028 -1.423,-7.009 -5.217,-9.802 -3.742,-2.846 -7.537,-2.846 -1.422,0 -2.951,0.422 -1.475,0.422 -3.636,1.634 -2.161,1.212 -3.847,4.216 -1.634,3.004 -2.424,7.536 -0.844,5.85 -0.844,19.868 z"
     fill="#000000"
     fill-rule="nonzero"
     fill-opacity="1"
     id="path275"
     transform="matrix(0.9777595,0,0,0.9777595,32,1.0062513)" />
</svg>
