<svg xmlns="http://www.w3.org/2000/svg" xmlns:xlink="http://www.w3.org/1999/xlink" width="600" height="400" viewBox="0 0 2400 1600">
<defs>
  <clipPath id="clip490">
    <rect x="0" y="0" width="2400" height="1600"></rect>
  </clipPath>
</defs>
<path clip-path="url(#clip490)" d="M0 1600 L2400 1600 L2400 0 L0 0  Z" fill="#ffffff" fill-rule="evenodd" fill-opacity="1"></path>
<defs>
  <clipPath id="clip491">
    <rect x="480" y="0" width="1681" height="1600"></rect>
  </clipPath>
</defs>
<defs>
  <clipPath id="clip492">
    <rect x="319" y="47" width="2034" height="1299"></rect>
  </clipPath>
</defs>
<path clip-path="url(#clip490)" d="M319.734 1345.42 L2352.76 1345.42 L2352.76 47.2441 L319.734 47.2441  Z" fill="#ffffff" fill-rule="evenodd" fill-opacity="1"></path>
<polyline clip-path="url(#clip490)" style="stroke:#000000; stroke-linecap:round; stroke-linejoin:round; stroke-width:4; stroke-opacity:1; fill:none" points="319.734,1345.42 2352.76,1345.42 "></polyline>
<polyline clip-path="url(#clip490)" style="stroke:#000000; stroke-linecap:round; stroke-linejoin:round; stroke-width:4; stroke-opacity:1; fill:none" points="319.734,47.2441 2352.76,47.2441 "></polyline>
<polyline clip-path="url(#clip490)" style="stroke:#000000; stroke-linecap:round; stroke-linejoin:round; stroke-width:4; stroke-opacity:1; fill:none" points="377.272,1345.42 377.272,1326.52 "></polyline>
<polyline clip-path="url(#clip490)" style="stroke:#000000; stroke-linecap:round; stroke-linejoin:round; stroke-width:4; stroke-opacity:1; fill:none" points="856.759,1345.42 856.759,1326.52 "></polyline>
<polyline clip-path="url(#clip490)" style="stroke:#000000; stroke-linecap:round; stroke-linejoin:round; stroke-width:4; stroke-opacity:1; fill:none" points="1336.24,1345.42 1336.24,1326.52 "></polyline>
<polyline clip-path="url(#clip490)" style="stroke:#000000; stroke-linecap:round; stroke-linejoin:round; stroke-width:4; stroke-opacity:1; fill:none" points="1815.73,1345.42 1815.73,1326.52 "></polyline>
<polyline clip-path="url(#clip490)" style="stroke:#000000; stroke-linecap:round; stroke-linejoin:round; stroke-width:4; stroke-opacity:1; fill:none" points="2295.22,1345.42 2295.22,1326.52 "></polyline>
<path clip-path="url(#clip490)" d="M296.701 1415.28 Q296.701 1401.34 300.221 1393.74 Q305.131 1382.44 316.711 1382.44 Q319.165 1382.44 321.713 1383.14 Q324.307 1383.78 327.549 1386.33 Q330.838 1388.88 332.829 1393.05 Q336.628 1401.11 336.628 1415.28 Q336.628 1429.13 333.107 1436.68 Q327.966 1447.7 316.618 1447.7 Q312.357 1447.7 308.003 1445.53 Q303.695 1443.35 300.962 1438.12 Q296.701 1430.29 296.701 1415.28 M304.575 1414.12 Q304.575 1428.44 305.594 1434.13 Q306.752 1440.29 309.902 1442.98 Q313.098 1445.62 316.618 1445.62 Q320.416 1445.62 323.566 1442.79 Q326.762 1439.92 327.734 1433.76 Q328.8 1427.69 328.753 1414.12 Q328.753 1400.92 327.827 1395.64 Q326.576 1389.48 323.241 1387.03 Q319.953 1384.53 316.618 1384.53 Q315.367 1384.53 314.024 1384.9 Q312.727 1385.27 310.828 1386.33 Q308.929 1387.4 307.447 1390.04 Q306.011 1392.68 305.316 1396.66 Q304.575 1401.8 304.575 1414.12 Z" fill="#000000" fill-rule="nonzero" fill-opacity="1"></path><path clip-path="url(#clip490)" d="M349.921 1444.09 Q348.485 1442.56 348.485 1440.57 Q348.485 1438.58 349.921 1437.14 Q351.357 1435.66 353.534 1435.66 Q355.618 1435.66 357.008 1437.05 Q358.444 1438.39 358.444 1440.62 Q358.444 1442.79 356.915 1444.23 Q355.433 1445.62 353.534 1445.62 Q351.357 1445.62 349.921 1444.09 Z" fill="#000000" fill-rule="nonzero" fill-opacity="1"></path><path clip-path="url(#clip490)" d="M370.487 1415.28 Q370.487 1401.34 374.007 1393.74 Q378.917 1382.44 390.496 1382.44 Q392.951 1382.44 395.499 1383.14 Q398.093 1383.78 401.335 1386.33 Q404.624 1388.88 406.615 1393.05 Q410.413 1401.11 410.413 1415.28 Q410.413 1429.13 406.893 1436.68 Q401.752 1447.7 390.404 1447.7 Q386.142 1447.7 381.788 1445.53 Q377.481 1443.35 374.748 1438.12 Q370.487 1430.29 370.487 1415.28 M378.361 1414.12 Q378.361 1428.44 379.38 1434.13 Q380.538 1440.29 383.687 1442.98 Q386.883 1445.62 390.404 1445.62 Q394.202 1445.62 397.352 1442.79 Q400.548 1439.92 401.52 1433.76 Q402.586 1427.69 402.539 1414.12 Q402.539 1400.92 401.613 1395.64 Q400.362 1389.48 397.027 1387.03 Q393.739 1384.53 390.404 1384.53 Q389.153 1384.53 387.81 1384.9 Q386.513 1385.27 384.614 1386.33 Q382.715 1387.4 381.233 1390.04 Q379.797 1392.68 379.102 1396.66 Q378.361 1401.8 378.361 1414.12 Z" fill="#000000" fill-rule="nonzero" fill-opacity="1"></path><path clip-path="url(#clip490)" d="M417.917 1415.28 Q417.917 1401.34 421.437 1393.74 Q426.347 1382.44 437.927 1382.44 Q440.382 1382.44 442.929 1383.14 Q445.523 1383.78 448.765 1386.33 Q452.054 1388.88 454.046 1393.05 Q457.844 1401.11 457.844 1415.28 Q457.844 1429.13 454.324 1436.68 Q449.182 1447.7 437.834 1447.7 Q433.573 1447.7 429.219 1445.53 Q424.911 1443.35 422.178 1438.12 Q417.917 1430.29 417.917 1415.28 M425.791 1414.12 Q425.791 1428.44 426.81 1434.13 Q427.968 1440.29 431.118 1442.98 Q434.314 1445.62 437.834 1445.62 Q441.632 1445.62 444.782 1442.79 Q447.978 1439.92 448.951 1433.76 Q450.016 1427.69 449.97 1414.12 Q449.97 1400.92 449.043 1395.64 Q447.793 1389.48 444.458 1387.03 Q441.169 1384.53 437.834 1384.53 Q436.584 1384.53 435.24 1384.9 Q433.943 1385.27 432.044 1386.33 Q430.145 1387.4 428.663 1390.04 Q427.227 1392.68 426.532 1396.66 Q425.791 1401.8 425.791 1414.12 Z" fill="#000000" fill-rule="nonzero" fill-opacity="1"></path><path clip-path="url(#clip490)" d="M776.697 1415.28 Q776.697 1401.34 780.217 1393.74 Q785.127 1382.44 796.706 1382.44 Q799.161 1382.44 801.709 1383.14 Q804.303 1383.78 807.545 1386.33 Q810.834 1388.88 812.825 1393.05 Q816.623 1401.11 816.623 1415.28 Q816.623 1429.13 813.103 1436.68 Q807.962 1447.7 796.614 1447.7 Q792.352 1447.7 787.998 1445.53 Q783.691 1443.35 780.958 1438.12 Q776.697 1430.29 776.697 1415.28 M784.571 1414.12 Q784.571 1428.44 785.59 1434.13 Q786.748 1440.29 789.897 1442.98 Q793.093 1445.62 796.614 1445.62 Q800.412 1445.62 803.561 1442.79 Q806.757 1439.92 807.73 1433.76 Q808.796 1427.69 808.749 1414.12 Q808.749 1400.92 807.823 1395.64 Q806.572 1389.48 803.237 1387.03 Q799.949 1384.53 796.614 1384.53 Q795.363 1384.53 794.02 1384.9 Q792.723 1385.27 790.824 1386.33 Q788.925 1387.4 787.443 1390.04 Q786.007 1392.68 785.312 1396.66 Q784.571 1401.8 784.571 1414.12 Z" fill="#000000" fill-rule="nonzero" fill-opacity="1"></path><path clip-path="url(#clip490)" d="M829.917 1444.09 Q828.481 1442.56 828.481 1440.57 Q828.481 1438.58 829.917 1437.14 Q831.353 1435.66 833.53 1435.66 Q835.614 1435.66 837.004 1437.05 Q838.44 1438.39 838.44 1440.62 Q838.44 1442.79 836.911 1444.23 Q835.429 1445.62 833.53 1445.62 Q831.353 1445.62 829.917 1444.09 Z" fill="#000000" fill-rule="nonzero" fill-opacity="1"></path><path clip-path="url(#clip490)" d="M851.501 1445.62 Q851.501 1443.91 851.64 1443.4 Q851.826 1442.89 852.567 1442.1 L870.77 1421.81 Q880.729 1410.6 880.729 1400.83 Q880.729 1394.48 877.394 1389.94 Q874.105 1385.41 868.037 1385.41 Q863.869 1385.41 860.348 1387.95 Q856.828 1390.5 855.207 1395.04 Q855.485 1394.95 856.458 1394.95 Q858.82 1394.95 860.117 1396.43 Q861.46 1397.91 861.46 1399.9 Q861.46 1402.45 859.793 1403.7 Q858.171 1404.91 856.55 1404.91 Q855.902 1404.91 855.022 1404.77 Q854.188 1404.63 852.845 1403.33 Q851.501 1401.99 851.501 1399.63 Q851.501 1393 856.504 1387.72 Q861.553 1382.44 869.242 1382.44 Q877.949 1382.44 883.647 1387.63 Q889.39 1392.77 889.39 1400.83 Q889.39 1403.66 888.51 1406.25 Q887.676 1408.8 886.518 1410.79 Q885.407 1412.78 882.35 1415.98 Q879.293 1419.17 876.838 1421.44 Q874.383 1423.71 868.871 1428.53 L858.82 1438.3 L875.911 1438.3 Q884.249 1438.3 884.897 1437.56 Q885.824 1436.22 886.982 1429.13 L889.39 1429.13 L886.704 1445.62 L851.501 1445.62 Z" fill="#000000" fill-rule="nonzero" fill-opacity="1"></path><path clip-path="url(#clip490)" d="M898.932 1430.33 Q898.932 1427.51 900.46 1426.44 Q901.989 1425.33 903.61 1425.33 Q905.787 1425.33 907.038 1426.72 Q908.335 1428.07 908.335 1429.96 Q908.335 1431.86 907.038 1433.25 Q905.787 1434.6 903.61 1434.6 Q902.545 1434.6 901.989 1434.41 Q903.24 1438.76 907.038 1441.91 Q910.882 1445.06 915.931 1445.06 Q922.277 1445.06 926.075 1438.9 Q928.344 1434.92 928.344 1425.89 Q928.344 1417.92 926.631 1413.94 Q923.99 1407.87 918.571 1407.87 Q910.882 1407.87 906.343 1414.49 Q905.787 1415.33 905.139 1415.37 Q904.212 1415.37 903.981 1414.86 Q903.795 1414.31 903.795 1412.87 L903.795 1384.8 Q903.795 1382.53 904.722 1382.53 Q905.092 1382.53 905.88 1382.81 Q911.855 1385.45 918.478 1385.5 Q925.287 1385.5 931.401 1382.72 Q931.865 1382.44 932.142 1382.44 Q933.069 1382.44 933.115 1383.51 Q933.115 1383.88 932.328 1384.99 Q931.587 1386.05 929.965 1387.49 Q928.344 1388.88 926.26 1390.22 Q924.176 1391.57 921.119 1392.49 Q918.108 1393.37 914.773 1393.37 Q910.79 1393.37 906.713 1392.12 L906.713 1410.6 Q911.623 1405.79 918.756 1405.79 Q926.353 1405.79 931.587 1411.9 Q936.821 1418.01 936.821 1426.54 Q936.821 1435.48 930.614 1441.59 Q924.454 1447.7 916.116 1447.7 Q908.52 1447.7 903.703 1442.28 Q898.932 1436.87 898.932 1430.33 Z" fill="#000000" fill-rule="nonzero" fill-opacity="1"></path><path clip-path="url(#clip490)" d="M1255.67 1415.28 Q1255.67 1401.34 1259.19 1393.74 Q1264.1 1382.44 1275.68 1382.44 Q1278.14 1382.44 1280.69 1383.14 Q1283.28 1383.78 1286.52 1386.33 Q1289.81 1388.88 1291.8 1393.05 Q1295.6 1401.11 1295.6 1415.28 Q1295.6 1429.13 1292.08 1436.68 Q1286.94 1447.7 1275.59 1447.7 Q1271.33 1447.7 1266.98 1445.53 Q1262.67 1443.35 1259.93 1438.12 Q1255.67 1430.29 1255.67 1415.28 M1263.55 1414.12 Q1263.55 1428.44 1264.57 1434.13 Q1265.72 1440.29 1268.87 1442.98 Q1272.07 1445.62 1275.59 1445.62 Q1279.39 1445.62 1282.54 1442.79 Q1285.73 1439.92 1286.71 1433.76 Q1287.77 1427.69 1287.73 1414.12 Q1287.73 1400.92 1286.8 1395.64 Q1285.55 1389.48 1282.21 1387.03 Q1278.93 1384.53 1275.59 1384.53 Q1274.34 1384.53 1273 1384.9 Q1271.7 1385.27 1269.8 1386.33 Q1267.9 1387.4 1266.42 1390.04 Q1264.98 1392.68 1264.29 1396.66 Q1263.55 1401.8 1263.55 1414.12 Z" fill="#000000" fill-rule="nonzero" fill-opacity="1"></path><path clip-path="url(#clip490)" d="M1308.89 1444.09 Q1307.46 1442.56 1307.46 1440.57 Q1307.46 1438.58 1308.89 1437.14 Q1310.33 1435.66 1312.51 1435.66 Q1314.59 1435.66 1315.98 1437.05 Q1317.42 1438.39 1317.42 1440.62 Q1317.42 1442.79 1315.89 1444.23 Q1314.41 1445.62 1312.51 1445.62 Q1310.33 1445.62 1308.89 1444.09 Z" fill="#000000" fill-rule="nonzero" fill-opacity="1"></path><path clip-path="url(#clip490)" d="M1330.48 1430.33 Q1330.48 1427.51 1332.01 1426.44 Q1333.54 1425.33 1335.16 1425.33 Q1337.33 1425.33 1338.58 1426.72 Q1339.88 1428.07 1339.88 1429.96 Q1339.88 1431.86 1338.58 1433.25 Q1337.33 1434.6 1335.16 1434.6 Q1334.09 1434.6 1333.54 1434.41 Q1334.79 1438.76 1338.58 1441.91 Q1342.43 1445.06 1347.48 1445.06 Q1353.82 1445.06 1357.62 1438.9 Q1359.89 1434.92 1359.89 1425.89 Q1359.89 1417.92 1358.18 1413.94 Q1355.54 1407.87 1350.12 1407.87 Q1342.43 1407.87 1337.89 1414.49 Q1337.33 1415.33 1336.68 1415.37 Q1335.76 1415.37 1335.53 1414.86 Q1335.34 1414.31 1335.34 1412.87 L1335.34 1384.8 Q1335.34 1382.53 1336.27 1382.53 Q1336.64 1382.53 1337.43 1382.81 Q1343.4 1385.45 1350.02 1385.5 Q1356.83 1385.5 1362.95 1382.72 Q1363.41 1382.44 1363.69 1382.44 Q1364.62 1382.44 1364.66 1383.51 Q1364.66 1383.88 1363.87 1384.99 Q1363.13 1386.05 1361.51 1387.49 Q1359.89 1388.88 1357.81 1390.22 Q1355.72 1391.57 1352.66 1392.49 Q1349.65 1393.37 1346.32 1393.37 Q1342.34 1393.37 1338.26 1392.12 L1338.26 1410.6 Q1343.17 1405.79 1350.3 1405.79 Q1357.9 1405.79 1363.13 1411.9 Q1368.37 1418.01 1368.37 1426.54 Q1368.37 1435.48 1362.16 1441.59 Q1356 1447.7 1347.66 1447.7 Q1340.07 1447.7 1335.25 1442.28 Q1330.48 1436.87 1330.48 1430.33 Z" fill="#000000" fill-rule="nonzero" fill-opacity="1"></path><path clip-path="url(#clip490)" d="M1376.89 1415.28 Q1376.89 1401.34 1380.41 1393.74 Q1385.32 1382.44 1396.9 1382.44 Q1399.35 1382.44 1401.9 1383.14 Q1404.5 1383.78 1407.74 1386.33 Q1411.03 1388.88 1413.02 1393.05 Q1416.82 1401.11 1416.82 1415.28 Q1416.82 1429.13 1413.3 1436.68 Q1408.15 1447.7 1396.81 1447.7 Q1392.55 1447.7 1388.19 1445.53 Q1383.88 1443.35 1381.15 1438.12 Q1376.89 1430.29 1376.89 1415.28 M1384.76 1414.12 Q1384.76 1428.44 1385.78 1434.13 Q1386.94 1440.29 1390.09 1442.98 Q1393.29 1445.62 1396.81 1445.62 Q1400.6 1445.62 1403.75 1442.79 Q1406.95 1439.92 1407.92 1433.76 Q1408.99 1427.69 1408.94 1414.12 Q1408.94 1400.92 1408.02 1395.64 Q1406.77 1389.48 1403.43 1387.03 Q1400.14 1384.53 1396.81 1384.53 Q1395.56 1384.53 1394.21 1384.9 Q1392.92 1385.27 1391.02 1386.33 Q1389.12 1387.4 1387.64 1390.04 Q1386.2 1392.68 1385.5 1396.66 Q1384.76 1401.8 1384.76 1414.12 Z" fill="#000000" fill-rule="nonzero" fill-opacity="1"></path><path clip-path="url(#clip490)" d="M1735.67 1415.28 Q1735.67 1401.34 1739.19 1393.74 Q1744.1 1382.44 1755.68 1382.44 Q1758.13 1382.44 1760.68 1383.14 Q1763.28 1383.78 1766.52 1386.33 Q1769.81 1388.88 1771.8 1393.05 Q1775.6 1401.11 1775.6 1415.28 Q1775.6 1429.13 1772.08 1436.68 Q1766.93 1447.7 1755.59 1447.7 Q1751.32 1447.7 1746.97 1445.53 Q1742.66 1443.35 1739.93 1438.12 Q1735.67 1430.29 1735.67 1415.28 M1743.54 1414.12 Q1743.54 1428.44 1744.56 1434.13 Q1745.72 1440.29 1748.87 1442.98 Q1752.07 1445.62 1755.59 1445.62 Q1759.38 1445.62 1762.53 1442.79 Q1765.73 1439.92 1766.7 1433.76 Q1767.77 1427.69 1767.72 1414.12 Q1767.72 1400.92 1766.8 1395.64 Q1765.54 1389.48 1762.21 1387.03 Q1758.92 1384.53 1755.59 1384.53 Q1754.34 1384.53 1752.99 1384.9 Q1751.7 1385.27 1749.8 1386.33 Q1747.9 1387.4 1746.42 1390.04 Q1744.98 1392.68 1744.28 1396.66 Q1743.54 1401.8 1743.54 1414.12 Z" fill="#000000" fill-rule="nonzero" fill-opacity="1"></path><path clip-path="url(#clip490)" d="M1788.89 1444.09 Q1787.45 1442.56 1787.45 1440.57 Q1787.45 1438.58 1788.89 1437.14 Q1790.33 1435.66 1792.5 1435.66 Q1794.59 1435.66 1795.98 1437.05 Q1797.41 1438.39 1797.41 1440.62 Q1797.41 1442.79 1795.88 1444.23 Q1794.4 1445.62 1792.5 1445.62 Q1790.33 1445.62 1788.89 1444.09 Z" fill="#000000" fill-rule="nonzero" fill-opacity="1"></path><path clip-path="url(#clip490)" d="M1811.08 1401.01 L1814.18 1381.51 L1816.54 1381.51 Q1816.82 1382.67 1817.28 1383.18 Q1817.79 1383.69 1820.48 1384.11 Q1823.21 1384.53 1828.72 1384.53 L1851.74 1384.53 Q1851.74 1386.7 1850.91 1387.86 L1838.08 1405.88 Q1834 1411.58 1832.2 1422.09 Q1831.13 1429.13 1831.18 1437.65 L1831.18 1442.47 Q1831.18 1447.7 1826.78 1447.7 Q1822.42 1447.7 1822.42 1442.47 Q1822.42 1424.36 1834.1 1406.8 Q1835.35 1405 1839.93 1398.56 Q1844.56 1392.12 1844.75 1391.84 L1825.11 1391.84 Q1816.5 1391.84 1815.8 1392.4 Q1814.87 1393.23 1813.44 1401.01 L1811.08 1401.01 Z" fill="#000000" fill-rule="nonzero" fill-opacity="1"></path><path clip-path="url(#clip490)" d="M1857.9 1430.33 Q1857.9 1427.51 1859.43 1426.44 Q1860.96 1425.33 1862.58 1425.33 Q1864.76 1425.33 1866.01 1426.72 Q1867.31 1428.07 1867.31 1429.96 Q1867.31 1431.86 1866.01 1433.25 Q1864.76 1434.6 1862.58 1434.6 Q1861.52 1434.6 1860.96 1434.41 Q1862.21 1438.76 1866.01 1441.91 Q1869.85 1445.06 1874.9 1445.06 Q1881.25 1445.06 1885.05 1438.9 Q1887.32 1434.92 1887.32 1425.89 Q1887.32 1417.92 1885.6 1413.94 Q1882.96 1407.87 1877.54 1407.87 Q1869.85 1407.87 1865.32 1414.49 Q1864.76 1415.33 1864.11 1415.37 Q1863.18 1415.37 1862.95 1414.86 Q1862.77 1414.31 1862.77 1412.87 L1862.77 1384.8 Q1862.77 1382.53 1863.69 1382.53 Q1864.06 1382.53 1864.85 1382.81 Q1870.83 1385.45 1877.45 1385.5 Q1884.26 1385.5 1890.37 1382.72 Q1890.84 1382.44 1891.12 1382.44 Q1892.04 1382.44 1892.09 1383.51 Q1892.09 1383.88 1891.3 1384.99 Q1890.56 1386.05 1888.94 1387.49 Q1887.32 1388.88 1885.23 1390.22 Q1883.15 1391.57 1880.09 1392.49 Q1877.08 1393.37 1873.75 1393.37 Q1869.76 1393.37 1865.69 1392.12 L1865.69 1410.6 Q1870.6 1405.79 1877.73 1405.79 Q1885.33 1405.79 1890.56 1411.9 Q1895.79 1418.01 1895.79 1426.54 Q1895.79 1435.48 1889.59 1441.59 Q1883.43 1447.7 1875.09 1447.7 Q1867.49 1447.7 1862.68 1442.28 Q1857.9 1436.87 1857.9 1430.33 Z" fill="#000000" fill-rule="nonzero" fill-opacity="1"></path><path clip-path="url(#clip490)" d="M2217.01 1391.47 L2217.01 1388.51 Q2228.4 1388.51 2234.29 1382.44 Q2235.91 1382.44 2236.18 1382.81 Q2236.46 1383.18 2236.46 1384.9 L2236.46 1438.12 Q2236.46 1440.94 2237.85 1441.82 Q2239.24 1442.7 2245.31 1442.7 L2248.32 1442.7 L2248.32 1445.62 Q2244.98 1445.34 2232.94 1445.34 Q2220.9 1445.34 2217.61 1445.62 L2217.61 1442.7 L2220.62 1442.7 Q2226.6 1442.7 2228.03 1441.87 Q2229.47 1440.99 2229.47 1438.12 L2229.47 1388.97 Q2224.51 1391.47 2217.01 1391.47 Z" fill="#000000" fill-rule="nonzero" fill-opacity="1"></path><path clip-path="url(#clip490)" d="M2265.5 1444.09 Q2264.07 1442.56 2264.07 1440.57 Q2264.07 1438.58 2265.5 1437.14 Q2266.94 1435.66 2269.12 1435.66 Q2271.2 1435.66 2272.59 1437.05 Q2274.03 1438.39 2274.03 1440.62 Q2274.03 1442.79 2272.5 1444.23 Q2271.02 1445.62 2269.12 1445.62 Q2266.94 1445.62 2265.5 1444.09 Z" fill="#000000" fill-rule="nonzero" fill-opacity="1"></path><path clip-path="url(#clip490)" d="M2286.07 1415.28 Q2286.07 1401.34 2289.59 1393.74 Q2294.5 1382.44 2306.08 1382.44 Q2308.53 1382.44 2311.08 1383.14 Q2313.68 1383.78 2316.92 1386.33 Q2320.21 1388.88 2322.2 1393.05 Q2326 1401.11 2326 1415.28 Q2326 1429.13 2322.48 1436.68 Q2317.33 1447.7 2305.99 1447.7 Q2301.73 1447.7 2297.37 1445.53 Q2293.06 1443.35 2290.33 1438.12 Q2286.07 1430.29 2286.07 1415.28 M2293.94 1414.12 Q2293.94 1428.44 2294.96 1434.13 Q2296.12 1440.29 2299.27 1442.98 Q2302.47 1445.62 2305.99 1445.62 Q2309.78 1445.62 2312.93 1442.79 Q2316.13 1439.92 2317.1 1433.76 Q2318.17 1427.69 2318.12 1414.12 Q2318.12 1400.92 2317.2 1395.64 Q2315.95 1389.48 2312.61 1387.03 Q2309.32 1384.53 2305.99 1384.53 Q2304.74 1384.53 2303.39 1384.9 Q2302.1 1385.27 2300.2 1386.33 Q2298.3 1387.4 2296.82 1390.04 Q2295.38 1392.68 2294.68 1396.66 Q2293.94 1401.8 2293.94 1414.12 Z" fill="#000000" fill-rule="nonzero" fill-opacity="1"></path><path clip-path="url(#clip490)" d="M2333.5 1415.28 Q2333.5 1401.34 2337.02 1393.74 Q2341.93 1382.44 2353.51 1382.44 Q2355.96 1382.44 2358.51 1383.14 Q2361.11 1383.78 2364.35 1386.33 Q2367.64 1388.88 2369.63 1393.05 Q2373.43 1401.11 2373.43 1415.28 Q2373.43 1429.13 2369.91 1436.68 Q2364.77 1447.7 2353.42 1447.7 Q2349.16 1447.7 2344.8 1445.53 Q2340.49 1443.35 2337.76 1438.12 Q2333.5 1430.29 2333.5 1415.28 M2341.37 1414.12 Q2341.37 1428.44 2342.39 1434.13 Q2343.55 1440.29 2346.7 1442.98 Q2349.9 1445.62 2353.42 1445.62 Q2357.22 1445.62 2360.36 1442.79 Q2363.56 1439.92 2364.53 1433.76 Q2365.6 1427.69 2365.55 1414.12 Q2365.55 1400.92 2364.63 1395.64 Q2363.38 1389.48 2360.04 1387.03 Q2356.75 1384.53 2353.42 1384.53 Q2352.17 1384.53 2350.82 1384.9 Q2349.53 1385.27 2347.63 1386.33 Q2345.73 1387.4 2344.25 1390.04 Q2342.81 1392.68 2342.12 1396.66 Q2341.37 1401.8 2341.37 1414.12 Z" fill="#000000" fill-rule="nonzero" fill-opacity="1"></path><path clip-path="url(#clip490)" d="M1056 1510.14 Q1056 1510.23 1055.91 1510.32 Q1055.32 1515.1 1054.19 1517.76 Q1053.06 1520.37 1050.54 1521.59 Q1048.69 1522.49 1046.39 1522.49 Q1042.92 1522.49 1037.91 1520.19 Q1037.73 1520.1 1036.74 1519.65 Q1035.75 1519.2 1035.39 1519.06 Q1035.03 1518.93 1034.26 1518.66 Q1033.5 1518.34 1032.91 1518.25 Q1032.32 1518.16 1031.74 1518.16 Q1030.48 1518.16 1029.39 1518.7 Q1027.18 1519.78 1025.83 1521.41 Q1024.43 1522.99 1024.07 1525.83 Q1023.98 1526.19 1023.67 1526.46 Q1023.35 1526.73 1022.95 1526.73 Q1022.54 1526.73 1022.18 1526.41 Q1021.82 1526.1 1021.82 1525.65 Q1021.82 1525.56 1021.91 1525.47 Q1022.49 1520.69 1023.62 1518.07 Q1024.75 1515.41 1027.27 1514.19 Q1029.26 1513.25 1031.42 1513.25 Q1034.8 1513.25 1039.94 1515.59 Q1040.12 1515.68 1041.12 1516.13 Q1042.11 1516.58 1042.47 1516.72 Q1042.83 1516.85 1043.6 1517.17 Q1044.36 1517.44 1044.95 1517.53 Q1045.53 1517.62 1046.12 1517.62 Q1047.25 1517.62 1048.42 1517.03 Q1050.63 1515.95 1052.03 1514.37 Q1053.43 1512.8 1053.79 1509.96 Q1053.88 1509.59 1054.19 1509.32 Q1054.51 1509.01 1054.91 1509.01 Q1055.32 1509.01 1055.68 1509.37 Q1056 1509.68 1056 1510.14 Z" fill="#000000" fill-rule="nonzero" fill-opacity="1"></path><path clip-path="url(#clip490)" d="M1057.11 1542.03 Q1057.11 1542.48 1056.01 1544.41 Q1054.98 1546.28 1051.18 1550.98 Q1047.38 1555.68 1041.71 1561.16 Q1039.59 1563.28 1036.37 1566.25 Q1033.15 1569.21 1030.96 1571.14 L1028.77 1573.08 Q1020.39 1580.16 1013.05 1588.08 Q1013.57 1587.89 1014.47 1587.83 Q1015.37 1587.7 1016.01 1587.7 L1016.66 1587.7 Q1020.01 1587.7 1025.87 1589.95 Q1031.02 1591.63 1033.66 1591.63 Q1036.24 1591.63 1039.07 1590.72 Q1041.91 1589.82 1045 1587.18 Q1048.09 1584.54 1049.51 1580.55 Q1049.77 1579.9 1049.89 1579.71 Q1050.02 1579.45 1050.41 1579.19 Q1050.8 1578.87 1051.31 1578.87 Q1052.02 1578.87 1052.47 1579.26 Q1052.92 1579.65 1052.92 1580.16 Q1052.92 1581.32 1052.02 1583.64 Q1051.18 1585.96 1049.31 1588.86 Q1047.51 1591.75 1045.13 1594.4 Q1042.81 1596.97 1039.33 1598.78 Q1035.85 1600.51 1032.18 1600.51 Q1029.54 1600.51 1027.61 1599.23 Q1025.68 1598 1023.74 1595.62 Q1021.1 1592.59 1019.69 1591.63 Q1018.27 1590.6 1016.08 1590.6 Q1010.22 1590.6 1004.87 1598.78 Q1004.29 1599.93 1003.9 1600.19 Q1003.58 1600.51 1002.81 1600.51 Q1001.2 1600.45 1001.2 1599.16 Q1001.2 1598.65 1002.62 1596.39 Q1004.1 1594.07 1007.38 1590.02 Q1010.73 1585.96 1014.79 1581.9 L1026.64 1570.82 Q1039.78 1559.74 1045 1553.49 Q1042.81 1553.49 1041.84 1553.43 Q1040.94 1553.37 1039.14 1552.98 Q1037.33 1552.53 1034.82 1551.56 Q1028.96 1549.56 1026.51 1549.56 Q1025.87 1549.56 1025.16 1549.63 Q1024.45 1549.69 1022.84 1550.02 Q1021.3 1550.34 1020.01 1550.98 Q1018.72 1551.56 1017.37 1552.85 Q1016.01 1554.07 1015.31 1555.75 Q1015.11 1556.26 1014.98 1556.52 Q1014.85 1556.78 1014.47 1557.04 Q1014.15 1557.23 1013.63 1557.23 Q1012.86 1557.23 1012.41 1556.78 Q1012.02 1556.33 1012.02 1555.75 Q1012.02 1554.59 1013.18 1552.21 Q1014.34 1549.82 1016.27 1547.25 Q1018.2 1544.61 1021.36 1542.67 Q1024.52 1540.74 1027.99 1540.74 Q1030.06 1540.74 1031.79 1541.64 Q1033.6 1542.54 1034.5 1543.51 Q1035.47 1544.41 1037.08 1546.41 Q1038.43 1547.95 1039.07 1548.6 Q1039.72 1549.24 1041.01 1549.95 Q1042.36 1550.6 1043.84 1550.6 Q1046.29 1550.6 1048.54 1548.73 Q1050.8 1546.8 1053.69 1542.16 Q1054.47 1540.74 1055.69 1540.74 Q1057.11 1540.74 1057.11 1542.03 Z" fill="#000000" fill-rule="nonzero" fill-opacity="1"></path><path clip-path="url(#clip490)" d="M1167.47 1535.34 Q1167.47 1512.73 1175.9 1494.51 Q1179.49 1486.86 1184.52 1480.46 Q1189.55 1474.06 1192.88 1471.25 Q1196.21 1468.44 1197.13 1468.44 Q1198.43 1468.44 1198.5 1469.75 Q1198.5 1470.4 1196.74 1472.03 Q1175.18 1493.98 1175.24 1535.34 Q1175.24 1576.82 1196.21 1597.92 Q1198.5 1600.21 1198.5 1600.92 Q1198.5 1602.23 1197.13 1602.23 Q1196.21 1602.23 1193.01 1599.55 Q1189.81 1596.87 1184.85 1590.73 Q1179.88 1584.59 1176.29 1577.08 Q1167.47 1558.85 1167.47 1535.34 Z" fill="#000000" fill-rule="nonzero" fill-opacity="1"></path><path clip-path="url(#clip490)" d="M1295.73 1597.04 Q1295.08 1597.81 1293.92 1597.81 Q1292.83 1597.81 1292.06 1597.04 L1264.74 1569.73 L1237.43 1597.04 Q1236.66 1597.81 1235.5 1597.81 Q1234.41 1597.81 1233.7 1597.04 Q1232.93 1596.33 1232.93 1595.23 Q1232.93 1594.14 1233.7 1593.36 L1261.01 1566.05 L1233.7 1538.74 Q1232.93 1537.97 1232.93 1536.88 Q1232.93 1535.72 1233.7 1535.07 Q1234.41 1534.3 1235.5 1534.3 Q1236.66 1534.3 1237.43 1535.07 L1264.74 1562.38 L1292.06 1535.07 Q1292.83 1534.3 1293.92 1534.3 Q1295.08 1534.3 1295.73 1535.07 Q1296.5 1535.72 1296.5 1536.88 Q1296.5 1537.97 1295.73 1538.74 L1268.42 1566.05 L1295.73 1593.36 Q1296.5 1594.14 1296.5 1595.3 Q1296.5 1596.39 1295.73 1597.04 Z" fill="#000000" fill-rule="nonzero" fill-opacity="1"></path><path clip-path="url(#clip490)" d="M1346.49 1523.74 L1346.49 1519.61 Q1362.34 1519.61 1370.52 1511.18 Q1372.77 1511.18 1373.16 1511.69 Q1373.55 1512.21 1373.55 1514.59 L1373.55 1588.6 Q1373.55 1592.53 1375.48 1593.75 Q1377.41 1594.98 1385.85 1594.98 L1390.03 1594.98 L1390.03 1599.03 Q1385.4 1598.65 1368.65 1598.65 Q1351.9 1598.65 1347.33 1599.03 L1347.33 1594.98 L1351.52 1594.98 Q1359.83 1594.98 1361.82 1593.82 Q1363.82 1592.59 1363.82 1588.6 L1363.82 1520.26 Q1356.93 1523.74 1346.49 1523.74 Z" fill="#000000" fill-rule="nonzero" fill-opacity="1"></path><path clip-path="url(#clip490)" d="M1411.82 1556.84 Q1411.82 1537.46 1416.72 1526.89 Q1423.54 1511.18 1439.65 1511.18 Q1443.06 1511.18 1446.6 1512.14 Q1450.21 1513.04 1454.72 1516.59 Q1459.29 1520.13 1462.06 1525.93 Q1467.34 1537.13 1467.34 1556.84 Q1467.34 1576.1 1462.45 1586.6 Q1455.3 1601.93 1439.52 1601.93 Q1433.59 1601.93 1427.54 1598.9 Q1421.55 1595.88 1417.75 1588.6 Q1411.82 1577.71 1411.82 1556.84 M1422.77 1555.23 Q1422.77 1575.14 1424.19 1583.06 Q1425.8 1591.63 1430.18 1595.36 Q1434.62 1599.03 1439.52 1599.03 Q1444.8 1599.03 1449.18 1595.1 Q1453.62 1591.11 1454.98 1582.54 Q1456.46 1574.11 1456.39 1555.23 Q1456.39 1536.88 1455.11 1529.53 Q1453.37 1520.97 1448.73 1517.55 Q1444.16 1514.07 1439.52 1514.07 Q1437.78 1514.07 1435.91 1514.59 Q1434.11 1515.1 1431.47 1516.59 Q1428.83 1518.07 1426.76 1521.74 Q1424.77 1525.41 1423.8 1530.95 Q1422.77 1538.1 1422.77 1555.23 Z" fill="#000000" fill-rule="nonzero" fill-opacity="1"></path><path clip-path="url(#clip490)" d="M1541.84 1505.9 Q1542.39 1506.44 1542.39 1507.21 Q1542.39 1507.97 1541.84 1508.51 Q1541.3 1509.05 1540.54 1509.05 L1482.73 1509.05 Q1481.97 1509.05 1481.43 1508.51 Q1480.89 1507.97 1480.89 1507.21 Q1480.89 1506.44 1481.43 1505.9 Q1481.97 1505.36 1482.73 1505.36 L1540.54 1505.36 Q1541.3 1505.36 1541.84 1505.9 Z" fill="#000000" fill-rule="nonzero" fill-opacity="1"></path><path clip-path="url(#clip490)" d="M1552.03 1530.29 Q1552.03 1528.62 1552.16 1528.13 Q1552.34 1527.63 1553.06 1526.86 L1570.78 1507.12 Q1580.48 1496.2 1580.48 1486.69 Q1580.48 1480.51 1577.23 1476.09 Q1574.03 1471.68 1568.12 1471.68 Q1564.06 1471.68 1560.64 1474.16 Q1557.21 1476.64 1555.63 1481.05 Q1555.9 1480.96 1556.85 1480.96 Q1559.15 1480.96 1560.41 1482.41 Q1561.72 1483.85 1561.72 1485.79 Q1561.72 1488.27 1560.1 1489.49 Q1558.52 1490.66 1556.94 1490.66 Q1556.31 1490.66 1555.45 1490.52 Q1554.64 1490.39 1553.33 1489.13 Q1552.03 1487.82 1552.03 1485.52 Q1552.03 1479.07 1556.89 1473.93 Q1561.81 1468.79 1569.29 1468.79 Q1577.77 1468.79 1583.32 1473.84 Q1588.91 1478.84 1588.91 1486.69 Q1588.91 1489.44 1588.05 1491.97 Q1587.24 1494.45 1586.11 1496.38 Q1585.03 1498.32 1582.05 1501.43 Q1579.08 1504.55 1576.69 1506.75 Q1574.3 1508.96 1568.93 1513.65 L1559.15 1523.17 L1575.79 1523.17 Q1583.9 1523.17 1584.53 1522.45 Q1585.44 1521.14 1586.56 1514.24 L1588.91 1514.24 L1586.29 1530.29 L1552.03 1530.29 Z" fill="#000000" fill-rule="nonzero" fill-opacity="1"></path><path clip-path="url(#clip490)" d="M1625.91 1600.92 Q1625.91 1600.27 1627.61 1598.64 Q1649.17 1576.69 1649.17 1535.34 Q1649.17 1493.85 1628.46 1472.88 Q1625.91 1470.47 1625.91 1469.75 Q1625.91 1468.44 1627.22 1468.44 Q1628.14 1468.44 1631.34 1471.12 Q1634.6 1473.8 1639.5 1479.94 Q1644.47 1486.08 1648.13 1493.59 Q1656.95 1511.82 1656.95 1535.34 Q1656.95 1557.94 1648.52 1576.16 Q1644.92 1583.81 1639.89 1590.21 Q1634.86 1596.61 1631.53 1599.42 Q1628.2 1602.23 1627.22 1602.23 Q1625.91 1602.23 1625.91 1600.92 Z" fill="#000000" fill-rule="nonzero" fill-opacity="1"></path><polyline clip-path="url(#clip490)" style="stroke:#000000; stroke-linecap:round; stroke-linejoin:round; stroke-width:4; stroke-opacity:1; fill:none" points="319.734,1345.42 319.734,47.2441 "></polyline>
<polyline clip-path="url(#clip490)" style="stroke:#000000; stroke-linecap:round; stroke-linejoin:round; stroke-width:4; stroke-opacity:1; fill:none" points="2352.76,1345.42 2352.76,47.2441 "></polyline>
<polyline clip-path="url(#clip490)" style="stroke:#000000; stroke-linecap:round; stroke-linejoin:round; stroke-width:4; stroke-opacity:1; fill:none" points="319.734,1308.68 338.632,1308.68 "></polyline>
<polyline clip-path="url(#clip490)" style="stroke:#000000; stroke-linecap:round; stroke-linejoin:round; stroke-width:4; stroke-opacity:1; fill:none" points="319.734,1042.1 338.632,1042.1 "></polyline>
<polyline clip-path="url(#clip490)" style="stroke:#000000; stroke-linecap:round; stroke-linejoin:round; stroke-width:4; stroke-opacity:1; fill:none" points="319.734,775.521 338.632,775.521 "></polyline>
<polyline clip-path="url(#clip490)" style="stroke:#000000; stroke-linecap:round; stroke-linejoin:round; stroke-width:4; stroke-opacity:1; fill:none" points="319.734,508.941 338.632,508.941 "></polyline>
<polyline clip-path="url(#clip490)" style="stroke:#000000; stroke-linecap:round; stroke-linejoin:round; stroke-width:4; stroke-opacity:1; fill:none" points="319.734,242.362 338.632,242.362 "></polyline>
<path clip-path="url(#clip490)" d="M170.021 1310.74 Q170.021 1296.8 173.542 1289.2 Q178.451 1277.9 190.031 1277.9 Q192.486 1277.9 195.033 1278.59 Q197.627 1279.24 200.87 1281.79 Q204.158 1284.34 206.15 1288.51 Q209.948 1296.57 209.948 1310.74 Q209.948 1324.59 206.428 1332.14 Q201.287 1343.16 189.938 1343.16 Q185.677 1343.16 181.323 1340.99 Q177.015 1338.81 174.283 1333.58 Q170.021 1325.75 170.021 1310.74 M177.896 1309.58 Q177.896 1323.89 178.915 1329.59 Q180.073 1335.75 183.222 1338.44 Q186.418 1341.08 189.938 1341.08 Q193.737 1341.08 196.886 1338.25 Q200.082 1335.38 201.055 1329.22 Q202.12 1323.15 202.074 1309.58 Q202.074 1296.38 201.148 1291.1 Q199.897 1284.94 196.562 1282.49 Q193.273 1279.98 189.938 1279.98 Q188.688 1279.98 187.345 1280.36 Q186.048 1280.73 184.149 1281.79 Q182.249 1282.86 180.767 1285.5 Q179.331 1288.14 178.637 1292.12 Q177.896 1297.26 177.896 1309.58 Z" fill="#000000" fill-rule="nonzero" fill-opacity="1"></path><path clip-path="url(#clip490)" d="M223.242 1339.55 Q221.806 1338.02 221.806 1336.03 Q221.806 1334.04 223.242 1332.6 Q224.678 1331.12 226.854 1331.12 Q228.939 1331.12 230.328 1332.51 Q231.764 1333.85 231.764 1336.08 Q231.764 1338.25 230.236 1339.69 Q228.754 1341.08 226.854 1341.08 Q224.678 1341.08 223.242 1339.55 Z" fill="#000000" fill-rule="nonzero" fill-opacity="1"></path><path clip-path="url(#clip490)" d="M243.807 1310.74 Q243.807 1296.8 247.327 1289.2 Q252.237 1277.9 263.817 1277.9 Q266.272 1277.9 268.819 1278.59 Q271.413 1279.24 274.655 1281.79 Q277.944 1284.34 279.936 1288.51 Q283.734 1296.57 283.734 1310.74 Q283.734 1324.59 280.214 1332.14 Q275.072 1343.16 263.724 1343.16 Q259.463 1343.16 255.109 1340.99 Q250.801 1338.81 248.068 1333.58 Q243.807 1325.75 243.807 1310.74 M251.681 1309.58 Q251.681 1323.89 252.7 1329.59 Q253.858 1335.75 257.008 1338.44 Q260.204 1341.08 263.724 1341.08 Q267.522 1341.08 270.672 1338.25 Q273.868 1335.38 274.841 1329.22 Q275.906 1323.15 275.86 1309.58 Q275.86 1296.38 274.933 1291.1 Q273.683 1284.94 270.348 1282.49 Q267.059 1279.98 263.724 1279.98 Q262.474 1279.98 261.13 1280.36 Q259.833 1280.73 257.934 1281.79 Q256.035 1282.86 254.553 1285.5 Q253.117 1288.14 252.422 1292.12 Q251.681 1297.26 251.681 1309.58 Z" fill="#000000" fill-rule="nonzero" fill-opacity="1"></path><path clip-path="url(#clip490)" d="M171.04 1044.16 Q171.04 1030.22 174.561 1022.62 Q179.47 1011.32 191.05 1011.32 Q193.505 1011.32 196.052 1012.02 Q198.646 1012.66 201.889 1015.21 Q205.177 1017.76 207.169 1021.93 Q210.967 1029.99 210.967 1044.16 Q210.967 1058.01 207.447 1065.56 Q202.306 1076.58 190.957 1076.58 Q186.696 1076.58 182.342 1074.41 Q178.034 1072.23 175.302 1067 Q171.04 1059.17 171.04 1044.16 M178.915 1043 Q178.915 1057.32 179.934 1063.01 Q181.092 1069.17 184.241 1071.86 Q187.437 1074.5 190.957 1074.5 Q194.756 1074.5 197.905 1071.67 Q201.101 1068.8 202.074 1062.64 Q203.139 1056.57 203.093 1043 Q203.093 1029.8 202.167 1024.52 Q200.916 1018.36 197.581 1015.91 Q194.292 1013.41 190.957 1013.41 Q189.707 1013.41 188.364 1013.78 Q187.067 1014.15 185.168 1015.21 Q183.268 1016.28 181.786 1018.92 Q180.35 1021.56 179.656 1025.54 Q178.915 1030.68 178.915 1043 Z" fill="#000000" fill-rule="nonzero" fill-opacity="1"></path><path clip-path="url(#clip490)" d="M224.261 1072.97 Q222.825 1071.44 222.825 1069.45 Q222.825 1067.46 224.261 1066.02 Q225.697 1064.54 227.874 1064.54 Q229.958 1064.54 231.347 1065.93 Q232.783 1067.27 232.783 1069.5 Q232.783 1071.67 231.255 1073.11 Q229.773 1074.5 227.874 1074.5 Q225.697 1074.5 224.261 1072.97 Z" fill="#000000" fill-rule="nonzero" fill-opacity="1"></path><path clip-path="url(#clip490)" d="M245.845 1074.5 Q245.845 1072.79 245.984 1072.28 Q246.169 1071.77 246.911 1070.98 L265.114 1050.69 Q275.072 1039.48 275.072 1029.71 Q275.072 1023.36 271.737 1018.82 Q268.449 1014.29 262.381 1014.29 Q258.212 1014.29 254.692 1016.83 Q251.172 1019.38 249.551 1023.92 Q249.829 1023.83 250.801 1023.83 Q253.164 1023.83 254.46 1025.31 Q255.804 1026.79 255.804 1028.78 Q255.804 1031.33 254.136 1032.58 Q252.515 1033.79 250.894 1033.79 Q250.245 1033.79 249.365 1033.65 Q248.532 1033.51 247.188 1032.21 Q245.845 1030.87 245.845 1028.51 Q245.845 1021.88 250.848 1016.6 Q255.896 1011.32 263.585 1011.32 Q272.293 1011.32 277.99 1016.51 Q283.734 1021.65 283.734 1029.71 Q283.734 1032.53 282.854 1035.13 Q282.02 1037.68 280.862 1039.67 Q279.751 1041.66 276.694 1044.86 Q273.636 1048.05 271.182 1050.32 Q268.727 1052.59 263.215 1057.41 L253.164 1067.18 L270.255 1067.18 Q278.593 1067.18 279.241 1066.44 Q280.167 1065.1 281.325 1058.01 L283.734 1058.01 L281.047 1074.5 L245.845 1074.5 Z" fill="#000000" fill-rule="nonzero" fill-opacity="1"></path><path clip-path="url(#clip490)" d="M168.956 777.582 Q168.956 763.64 172.476 756.044 Q177.386 744.742 188.966 744.742 Q191.421 744.742 193.968 745.437 Q196.562 746.085 199.804 748.633 Q203.093 751.18 205.085 755.349 Q208.883 763.408 208.883 777.582 Q208.883 791.431 205.363 798.981 Q200.221 810.005 188.873 810.005 Q184.612 810.005 180.258 807.828 Q175.95 805.651 173.217 800.417 Q168.956 792.589 168.956 777.582 M176.83 776.424 Q176.83 790.736 177.849 796.434 Q179.007 802.594 182.157 805.28 Q185.353 807.921 188.873 807.921 Q192.671 807.921 195.821 805.095 Q199.017 802.223 199.99 796.063 Q201.055 789.995 201.009 776.424 Q201.009 763.223 200.082 757.943 Q198.832 751.782 195.497 749.327 Q192.208 746.826 188.873 746.826 Q187.622 746.826 186.279 747.197 Q184.982 747.567 183.083 748.633 Q181.184 749.698 179.702 752.338 Q178.266 754.978 177.571 758.962 Q176.83 764.103 176.83 776.424 Z" fill="#000000" fill-rule="nonzero" fill-opacity="1"></path><path clip-path="url(#clip490)" d="M222.176 806.392 Q220.74 804.864 220.74 802.872 Q220.74 800.88 222.176 799.444 Q223.612 797.962 225.789 797.962 Q227.874 797.962 229.263 799.352 Q230.699 800.695 230.699 802.918 Q230.699 805.095 229.17 806.531 Q227.688 807.921 225.789 807.921 Q223.612 807.921 222.176 806.392 Z" fill="#000000" fill-rule="nonzero" fill-opacity="1"></path><path clip-path="url(#clip490)" d="M241.677 792.265 L241.677 789.347 L270.811 744.834 Q271.552 743.676 272.71 743.723 Q273.775 743.723 274.007 744.14 Q274.239 744.556 274.239 746.178 L274.239 789.347 L283.734 789.347 L283.734 792.265 L274.239 792.265 L274.239 800.51 Q274.239 803.242 275.35 804.122 Q276.508 805.003 281.418 805.003 L283.41 805.003 L283.41 807.921 Q279.519 807.643 270.533 807.643 Q261.594 807.643 257.703 807.921 L257.703 805.003 L259.695 805.003 Q264.604 805.003 265.762 804.169 Q266.92 803.289 266.92 800.51 L266.92 792.265 L241.677 792.265 M244.363 789.347 L267.476 789.347 L267.476 753.959 L244.363 789.347 Z" fill="#000000" fill-rule="nonzero" fill-opacity="1"></path><path clip-path="url(#clip490)" d="M170.299 511.003 Q170.299 497.061 173.819 489.464 Q178.729 478.163 190.309 478.163 Q192.764 478.163 195.311 478.857 Q197.905 479.506 201.148 482.053 Q204.436 484.601 206.428 488.77 Q210.226 496.829 210.226 511.003 Q210.226 524.852 206.706 532.402 Q201.564 543.426 190.216 543.426 Q185.955 543.426 181.601 541.249 Q177.293 539.072 174.561 533.838 Q170.299 526.01 170.299 511.003 M178.173 509.845 Q178.173 524.157 179.192 529.854 Q180.35 536.015 183.5 538.701 Q186.696 541.341 190.216 541.341 Q194.014 541.341 197.164 538.516 Q200.36 535.644 201.333 529.484 Q202.398 523.416 202.352 509.845 Q202.352 496.644 201.425 491.363 Q200.175 485.203 196.84 482.748 Q193.551 480.247 190.216 480.247 Q188.966 480.247 187.622 480.617 Q186.326 480.988 184.426 482.053 Q182.527 483.119 181.045 485.759 Q179.609 488.399 178.915 492.382 Q178.173 497.524 178.173 509.845 Z" fill="#000000" fill-rule="nonzero" fill-opacity="1"></path><path clip-path="url(#clip490)" d="M223.52 539.813 Q222.084 538.284 222.084 536.293 Q222.084 534.301 223.52 532.865 Q224.955 531.383 227.132 531.383 Q229.217 531.383 230.606 532.772 Q232.042 534.116 232.042 536.339 Q232.042 538.516 230.514 539.952 Q229.031 541.341 227.132 541.341 Q224.955 541.341 223.52 539.813 Z" fill="#000000" fill-rule="nonzero" fill-opacity="1"></path><path clip-path="url(#clip490)" d="M244.363 511.373 Q244.363 496.458 251.959 487.334 Q259.556 478.163 269.329 478.163 Q275.026 478.163 278.176 481.081 Q281.372 483.952 281.372 488.399 Q281.372 490.854 279.936 491.919 Q278.5 492.985 277.018 492.985 Q275.304 492.985 273.961 491.827 Q272.617 490.669 272.617 488.584 Q272.617 484.323 277.851 484.323 Q275.397 480.525 269.514 480.525 Q267.708 480.525 265.855 481.081 Q264.002 481.59 261.594 483.35 Q259.185 485.11 257.332 487.89 Q255.48 490.669 254.183 495.903 Q252.886 501.137 252.886 507.946 L252.886 510.215 Q256.776 500.812 264.743 500.859 Q272.71 500.859 278.222 506.927 Q283.734 512.994 283.734 521.98 Q283.734 531.198 277.99 537.312 Q272.247 543.426 264.187 543.426 Q260.575 543.426 257.286 541.897 Q254.044 540.415 250.987 536.987 Q247.976 533.56 246.169 526.983 Q244.363 520.405 244.363 511.373 M253.071 519.896 Q253.071 529.206 254.785 533.652 Q255.063 534.394 255.665 535.413 Q256.313 536.432 257.379 537.775 Q258.49 539.072 260.297 539.952 Q262.103 540.786 264.187 540.786 Q270.533 540.786 273.59 534.625 Q275.211 531.198 275.211 521.888 Q275.211 512.392 273.498 508.918 Q270.579 503.036 264.651 503.036 Q260.667 503.036 257.888 505.769 Q255.155 508.501 254.09 512.161 Q253.071 515.82 253.071 519.896 Z" fill="#000000" fill-rule="nonzero" fill-opacity="1"></path><path clip-path="url(#clip490)" d="M170.299 244.423 Q170.299 230.481 173.819 222.885 Q178.729 211.583 190.309 211.583 Q192.764 211.583 195.311 212.278 Q197.905 212.927 201.148 215.474 Q204.436 218.022 206.428 222.19 Q210.226 230.25 210.226 244.423 Q210.226 258.273 206.706 265.823 Q201.564 276.847 190.216 276.847 Q185.955 276.847 181.601 274.67 Q177.293 272.493 174.561 267.259 Q170.299 259.431 170.299 244.423 M178.173 243.265 Q178.173 257.578 179.192 263.275 Q180.35 269.436 183.5 272.122 Q186.696 274.762 190.216 274.762 Q194.014 274.762 197.164 271.937 Q200.36 269.065 201.333 262.905 Q202.398 256.837 202.352 243.265 Q202.352 230.065 201.425 224.784 Q200.175 218.624 196.84 216.169 Q193.551 213.668 190.216 213.668 Q188.966 213.668 187.622 214.038 Q186.326 214.409 184.426 215.474 Q182.527 216.539 181.045 219.18 Q179.609 221.82 178.915 225.803 Q178.173 230.945 178.173 243.265 Z" fill="#000000" fill-rule="nonzero" fill-opacity="1"></path><path clip-path="url(#clip490)" d="M223.52 273.234 Q222.084 271.705 222.084 269.713 Q222.084 267.722 223.52 266.286 Q224.955 264.804 227.132 264.804 Q229.217 264.804 230.606 266.193 Q232.042 267.536 232.042 269.76 Q232.042 271.937 230.514 273.373 Q229.031 274.762 227.132 274.762 Q224.955 274.762 223.52 273.234 Z" fill="#000000" fill-rule="nonzero" fill-opacity="1"></path><path clip-path="url(#clip490)" d="M244.363 260.45 Q244.363 249.843 258.027 242.988 Q252.145 239.004 251.079 237.846 Q246.911 233.214 246.911 227.424 Q246.911 220.801 251.913 216.215 Q256.962 211.583 264.095 211.583 Q270.904 211.583 276.045 215.52 Q281.186 219.458 281.186 225.711 Q281.186 234.511 269.699 240.44 Q277.296 245.164 279.102 247.156 Q283.734 252.298 283.734 258.829 Q283.734 266.425 277.898 271.659 Q272.062 276.847 264.002 276.847 Q256.128 276.847 250.245 272.261 Q244.363 267.675 244.363 260.45 M249.088 260.45 Q249.088 266.332 253.488 270.269 Q257.934 274.206 264.095 274.206 Q270.07 274.206 274.517 270.779 Q279.009 267.351 279.009 262.256 Q279.009 260.264 278.315 258.551 Q277.666 256.837 276.323 255.494 Q275.026 254.104 274.192 253.502 Q273.405 252.853 271.876 251.788 L260.204 244.423 Q249.088 250.584 249.088 260.45 M251.079 223.719 Q251.079 228.258 255.85 231.408 L267.615 239.004 Q277.018 233.492 277.018 225.711 Q277.018 220.662 273.173 217.327 Q269.329 213.946 264.002 213.946 Q258.768 213.946 254.924 216.725 Q251.079 219.458 251.079 223.719 Z" fill="#000000" fill-rule="nonzero" fill-opacity="1"></path><path clip-path="url(#clip490)" d="M126.346 1080.1 L25.846 1080.1 Q21.8408 1080.1 21.8408 1077.94 Q21.8408 1075.78 25.0555 1075.78 L125.555 1075.78 Q129.561 1075.78 129.561 1077.94 Q129.561 1080.1 126.346 1080.1 Z" fill="#000000" fill-rule="nonzero" fill-opacity="1"></path><path clip-path="url(#clip490)" d="M90.1933 993.975 Q90.6677 993.554 91.142 993.554 Q91.6163 993.554 92.9865 994.608 Q94.3567 995.609 96.2012 997.77 Q98.0457 999.931 99.7848 1002.72 Q101.524 1005.52 102.683 1009.63 Q103.895 1013.74 103.895 1018.06 Q103.895 1026.12 98.5727 1030.87 Q93.25 1035.56 85.6084 1035.56 Q78.1776 1035.56 71.0631 1031.39 Q63.8958 1027.23 59.469 1020.48 Q54.9894 1013.74 54.9894 1006.62 Q54.9894 1000.98 57.6244 997.454 Q60.2595 993.923 64.2647 993.923 Q67.374 993.923 69.2712 995.715 Q71.1685 997.506 71.1685 999.931 Q71.1685 1001.62 70.2199 1002.78 Q69.2185 1003.94 67.374 1003.94 Q65.0025 1003.94 63.158 1001.99 Q62.4202 1001.25 62.104 1000.4 Q61.7351 999.509 61.7351 998.982 Q61.6824 998.455 61.6824 997.243 Q59.6271 998.35 58.5203 1000.98 Q57.3609 1003.57 57.3609 1006.52 Q57.3609 1010.89 60.4176 1015.06 Q63.4215 1019.22 68.1645 1021.75 Q72.8022 1024.28 79.3897 1025.91 Q85.9246 1027.55 89.719 1027.55 Q94.9364 1027.55 98.2038 1025.12 Q101.471 1022.7 101.471 1017.85 Q101.471 1016.9 101.419 1015.9 Q101.366 1014.84 100.786 1012.21 Q100.206 1009.52 99.2051 1007.15 Q98.2038 1004.78 96.0431 1001.78 Q93.8297 998.718 90.8258 996.294 Q89.719 995.451 89.719 994.871 Q89.719 994.397 90.1933 993.975 Z" fill="#000000" fill-rule="nonzero" fill-opacity="1"></path><path clip-path="url(#clip490)" d="M112.463 942.97 Q117.849 942.97 123.05 945.7 Q128.252 948.393 131.461 952.635 Q134.634 956.877 134.634 961.194 Q134.634 963.776 133.232 965.51 Q131.793 967.207 129.764 968.129 Q132.273 968.83 138.286 970.342 Q144.299 971.855 144.889 971.855 Q145.221 971.855 145.369 971.781 Q145.516 971.707 145.701 971.375 Q145.922 971.043 145.996 970.232 Q146.107 969.42 146.107 968.055 Q146.107 967.354 146.107 967.096 Q146.144 966.801 146.328 966.543 Q146.512 966.248 146.918 966.248 Q148.431 966.248 148.431 967.612 Q148.431 968.83 148.32 971.338 Q148.209 973.847 148.209 975.101 Q148.209 976.171 148.32 978.311 Q148.431 980.45 148.431 981.446 Q148.431 982.442 147.545 982.442 Q147.029 982.442 146.697 982.295 Q146.402 982.184 146.254 981.889 Q146.144 981.594 146.107 981.336 Q146.107 981.114 146.107 980.672 Q146.107 978.975 145.811 978.237 Q145.553 977.499 145 977.241 Q144.483 976.946 143.008 976.614 L109.364 968.129 Q107.114 967.612 105.527 967.612 Q103.535 967.612 102.797 968.24 Q102.06 968.867 102.06 969.973 Q102.06 971.892 104.347 973.146 Q106.634 974.4 111.061 975.47 Q112.278 975.802 112.536 976.023 Q112.795 976.208 112.795 976.761 Q112.758 977.684 112.02 977.684 Q111.835 977.684 110.655 977.388 Q109.438 977.093 107.667 976.54 Q105.859 975.95 104.716 975.323 Q103.941 974.954 103.424 974.622 Q102.908 974.29 102.096 973.626 Q101.285 972.925 100.842 971.929 Q100.399 970.933 100.399 969.715 Q100.399 967.354 101.801 965.399 Q103.203 963.444 106.044 962.927 Q103.572 960.825 101.986 958.242 Q100.399 955.66 100.399 953.041 Q100.399 948.688 103.793 945.847 Q107.15 942.97 112.463 942.97 M109.142 948.429 Q105.785 948.429 103.941 949.721 Q102.06 950.975 102.06 953.262 Q102.06 956.103 104.937 959.386 Q107.667 962.632 110.212 963.296 L125.005 967.022 L126.223 967.244 Q126.444 967.244 127.108 967.133 Q127.735 966.985 128.768 966.58 Q129.801 966.137 130.723 965.547 Q131.609 964.919 132.273 963.813 Q132.937 962.669 132.937 961.267 Q132.937 959.017 130.945 956.582 Q128.953 954.111 125.19 952.266 Q122.755 951.122 117.517 949.794 Q112.241 948.429 109.142 948.429 Z" fill="#000000" fill-rule="nonzero" fill-opacity="1"></path><path clip-path="url(#clip490)" d="M133.785 938.461 Q132.42 938.461 132.015 938.35 Q131.609 938.203 130.982 937.613 L114.824 923.115 Q105.896 915.183 98.1123 915.183 Q93.0583 915.183 89.443 917.839 Q85.8278 920.459 85.8278 925.291 Q85.8278 928.611 87.8568 931.415 Q89.8857 934.219 93.501 935.51 Q93.4272 935.288 93.4272 934.514 Q93.4272 932.632 94.6077 931.599 Q95.7882 930.53 97.3745 930.53 Q99.4034 930.53 100.399 931.858 Q101.359 933.149 101.359 934.44 Q101.359 934.956 101.248 935.657 Q101.137 936.321 100.104 937.391 Q99.0345 938.461 97.1531 938.461 Q91.8778 938.461 87.6723 934.477 Q83.4668 930.456 83.4668 924.332 Q83.4668 917.397 87.5985 912.859 Q91.6934 908.285 98.1123 908.285 Q100.363 908.285 102.428 908.986 Q104.457 909.65 106.044 910.572 Q107.63 911.457 110.175 913.892 Q112.721 916.327 114.528 918.282 Q116.336 920.237 120.173 924.627 L127.957 932.632 L127.957 919.02 Q127.957 912.38 127.366 911.863 Q126.296 911.125 120.652 910.203 L120.652 908.285 L133.785 910.424 L133.785 938.461 Z" fill="#000000" fill-rule="nonzero" fill-opacity="1"></path><path clip-path="url(#clip490)" d="M126.346 861.013 L25.846 861.013 Q21.8408 861.013 21.8408 858.852 Q21.8408 856.691 25.0555 856.691 L125.555 856.691 Q129.561 856.691 129.561 858.852 Q129.561 861.013 126.346 861.013 Z" fill="#000000" fill-rule="nonzero" fill-opacity="1"></path><path clip-path="url(#clip490)" d="M49.7304 730.916 Q30.9564 730.916 15.8178 723.916 Q9.46942 720.932 4.15194 716.754 Q-1.16554 712.576 -3.49872 709.809 Q-5.8319 707.042 -5.8319 706.282 Q-5.8319 705.197 -4.7467 705.142 Q-4.2041 705.142 -2.8476 706.607 Q15.3838 724.513 49.7304 724.459 Q84.1855 724.459 101.711 707.042 Q103.611 705.142 104.207 705.142 Q105.293 705.142 105.293 706.282 Q105.293 707.042 103.068 709.7 Q100.843 712.359 95.7429 716.483 Q90.6424 720.607 84.4025 723.591 Q69.264 730.916 49.7304 730.916 Z" fill="#000000" fill-rule="nonzero" fill-opacity="1"></path><path clip-path="url(#clip490)" d="M101.05 625.342 Q101.682 625.869 101.682 626.818 Q101.682 627.714 101.05 628.346 L78.7046 650.691 L101.05 673.036 Q101.682 673.669 101.682 674.617 Q101.682 675.513 101.05 676.093 Q100.47 676.725 99.574 676.725 Q98.6781 676.725 98.0457 676.093 L75.7007 653.748 L53.3557 676.093 Q52.7233 676.725 51.8274 676.725 Q50.8788 676.725 50.3518 676.093 Q49.7194 675.513 49.7194 674.617 Q49.7194 673.669 50.3518 673.036 L72.6968 650.691 L50.3518 628.346 Q49.7194 627.714 49.7194 626.818 Q49.7194 625.869 50.3518 625.342 Q50.8788 624.71 51.8274 624.71 Q52.7233 624.71 53.3557 625.342 L75.7007 647.687 L98.0457 625.342 Q98.6781 624.71 99.6267 624.71 Q100.523 624.71 101.05 625.342 Z" fill="#000000" fill-rule="nonzero" fill-opacity="1"></path><path clip-path="url(#clip490)" d="M41.0765 583.834 L37.7036 583.834 Q37.7036 570.869 30.7999 564.176 Q30.7999 562.332 31.2215 562.016 Q31.6431 561.699 33.593 561.699 L94.1459 561.699 Q97.3606 561.699 98.3619 560.118 Q99.3632 558.537 99.3632 551.634 L99.3632 548.208 L102.683 548.208 Q102.367 552.002 102.367 565.705 Q102.367 579.407 102.683 583.148 L99.3632 583.148 L99.3632 579.723 Q99.3632 572.925 98.4146 571.291 Q97.4133 569.657 94.1459 569.657 L38.2307 569.657 Q41.0765 575.296 41.0765 583.834 Z" fill="#000000" fill-rule="nonzero" fill-opacity="1"></path><path clip-path="url(#clip490)" d="M68.1645 530.388 Q52.3017 530.388 43.6588 526.383 Q30.7999 520.797 30.7999 507.622 Q30.7999 504.828 31.5904 501.93 Q32.3282 498.979 35.2267 495.29 Q38.1253 491.548 42.8683 489.282 Q52.0382 484.96 68.1645 484.96 Q83.922 484.96 92.5122 488.966 Q105.055 494.815 105.055 507.727 Q105.055 512.575 102.578 517.529 Q100.101 522.43 94.1459 525.54 Q85.2395 530.388 68.1645 530.388 M66.847 521.429 Q83.1315 521.429 89.6136 520.27 Q96.6228 518.952 99.6794 515.369 Q102.683 511.732 102.683 507.727 Q102.683 503.406 99.4686 499.822 Q96.2012 496.186 89.192 495.079 Q82.2883 493.867 66.847 493.919 Q51.8274 493.919 45.8195 494.973 Q38.8104 496.396 36.0172 500.191 Q33.1714 503.933 33.1714 507.727 Q33.1714 509.15 33.593 510.678 Q34.0146 512.154 35.2267 514.315 Q36.4388 516.475 39.4428 518.162 Q42.4467 519.795 46.9789 520.586 Q52.8287 521.429 66.847 521.429 Z" fill="#000000" fill-rule="nonzero" fill-opacity="1"></path><path clip-path="url(#clip490)" d="M24.8469 424.008 Q25.2896 423.565 25.9168 423.565 Q26.5439 423.565 26.9866 424.008 Q27.4293 424.451 27.4293 425.078 L27.4293 472.371 Q27.4293 472.998 26.9866 473.441 Q26.5439 473.884 25.9168 473.884 Q25.2896 473.884 24.8469 473.441 Q24.4043 472.998 24.4043 472.371 L24.4043 425.078 Q24.4043 424.451 24.8469 424.008 Z" fill="#000000" fill-rule="nonzero" fill-opacity="1"></path><path clip-path="url(#clip490)" d="M34.6229 415.684 Q32.3726 415.684 31.3027 414.393 Q30.2329 413.101 30.2329 411.441 Q30.2329 409.708 31.3765 408.49 Q32.4832 407.236 34.4384 407.236 Q36.5412 407.236 37.7217 408.712 Q38.9022 410.15 38.607 412.216 Q41.632 410.408 42.997 407.088 Q44.3619 403.731 44.3619 400.633 Q44.3619 397.386 41.5583 394.767 Q38.7546 392.111 31.893 392.111 Q26.0643 392.111 22.7073 394.398 Q19.3503 396.648 19.3503 401.112 L19.3503 404.432 Q19.3503 405.576 19.2396 405.908 Q19.1289 406.24 18.5018 406.24 Q17.764 406.24 17.6164 405.096 Q17.6164 403.953 17.3951 402.145 Q17.2475 397.755 13.4478 395.431 Q9.90634 393.328 4.85237 393.328 Q0.241073 393.328 -1.67723 395.542 Q-3.63241 397.718 -3.63241 400.559 Q-3.63241 403.215 -2.5257 406.129 Q-1.41899 409.044 1.05266 410.63 Q1.05266 405.945 4.85237 405.945 Q6.51243 405.945 7.61914 407.015 Q8.68896 408.047 8.68896 409.781 Q8.68896 411.441 7.65603 412.548 Q6.58621 413.655 4.77859 413.655 Q0.462415 413.655 -2.5257 409.818 Q-5.51382 405.945 -5.51382 400.264 Q-5.51382 394.656 -2.56259 390.525 Q0.388634 386.356 4.92615 386.356 Q9.38988 386.356 13.042 389.307 Q16.6942 392.258 18.2067 396.944 Q19.3503 391.189 23.2607 387.758 Q27.1341 384.327 31.893 384.327 Q37.7954 384.327 42.1485 388.975 Q46.4647 393.623 46.4647 400.411 Q46.4647 406.683 43.0708 411.183 Q39.6769 415.684 34.6229 415.684 Z" fill="#000000" fill-rule="nonzero" fill-opacity="1"></path><path clip-path="url(#clip490)" d="M104.207 355.232 Q103.665 355.232 102.308 353.821 Q84.077 335.916 49.7304 335.916 Q15.2752 335.916 -2.14222 353.116 Q-4.14984 355.232 -4.7467 355.232 Q-5.8319 355.232 -5.8319 354.147 Q-5.8319 353.387 -3.60724 350.728 Q-1.38258 348.015 3.71786 343.946 Q8.8183 339.822 15.0582 336.784 Q30.1968 329.459 49.7304 329.459 Q68.5043 329.459 83.6429 336.458 Q89.9913 339.442 95.3088 343.62 Q100.626 347.798 102.959 350.566 Q105.293 353.333 105.293 354.147 Q105.293 355.232 104.207 355.232 Z" fill="#000000" fill-rule="nonzero" fill-opacity="1"></path><path clip-path="url(#clip492)" d="M377.272 1284.68 L353.272 1308.68 L377.272 1332.68 L401.272 1308.68 L377.272 1284.68 Z" fill="#e31a1c" fill-rule="evenodd" fill-opacity="1" stroke="#000000" stroke-opacity="1" stroke-width="0"></path>
<path clip-path="url(#clip492)" d="M505.135 1203.2 L481.135 1227.2 L505.135 1251.2 L529.135 1227.2 L505.135 1203.2 Z" fill="#e31a1c" fill-rule="evenodd" fill-opacity="1" stroke="#000000" stroke-opacity="1" stroke-width="0"></path>
<path clip-path="url(#clip492)" d="M632.998 1122.78 L608.998 1146.78 L632.998 1170.78 L656.998 1146.78 L632.998 1122.78 Z" fill="#e31a1c" fill-rule="evenodd" fill-opacity="1" stroke="#000000" stroke-opacity="1" stroke-width="0"></path>
<path clip-path="url(#clip492)" d="M760.861 1044.44 L736.861 1068.44 L760.861 1092.44 L784.861 1068.44 L760.861 1044.44 Z" fill="#e31a1c" fill-rule="evenodd" fill-opacity="1" stroke="#000000" stroke-opacity="1" stroke-width="0"></path>
<path clip-path="url(#clip492)" d="M888.724 969.163 L864.724 993.163 L888.724 1017.16 L912.724 993.163 L888.724 969.163 Z" fill="#e31a1c" fill-rule="evenodd" fill-opacity="1" stroke="#000000" stroke-opacity="1" stroke-width="0"></path>
<path clip-path="url(#clip492)" d="M1016.59 897.892 L992.587 921.892 L1016.59 945.892 L1040.59 921.892 L1016.59 897.892 Z" fill="#e31a1c" fill-rule="evenodd" fill-opacity="1" stroke="#000000" stroke-opacity="1" stroke-width="0"></path>
<path clip-path="url(#clip492)" d="M1144.45 831.474 L1120.45 855.474 L1144.45 879.474 L1168.45 855.474 L1144.45 831.474 Z" fill="#e31a1c" fill-rule="evenodd" fill-opacity="1" stroke="#000000" stroke-opacity="1" stroke-width="0"></path>
<path clip-path="url(#clip492)" d="M1272.31 770.672 L1248.31 794.672 L1272.31 818.672 L1296.31 794.672 L1272.31 770.672 Z" fill="#e31a1c" fill-rule="evenodd" fill-opacity="1" stroke="#000000" stroke-opacity="1" stroke-width="0"></path>
<path clip-path="url(#clip492)" d="M1400.18 716.14 L1376.18 740.14 L1400.18 764.14 L1424.18 740.14 L1400.18 716.14 Z" fill="#e31a1c" fill-rule="evenodd" fill-opacity="1" stroke="#000000" stroke-opacity="1" stroke-width="0"></path>
<path clip-path="url(#clip492)" d="M1528.04 668.42 L1504.04 692.42 L1528.04 716.42 L1552.04 692.42 L1528.04 668.42 Z" fill="#e31a1c" fill-rule="evenodd" fill-opacity="1" stroke="#000000" stroke-opacity="1" stroke-width="0"></path>
<path clip-path="url(#clip492)" d="M1655.9 627.932 L1631.9 651.932 L1655.9 675.932 L1679.9 651.932 L1655.9 627.932 Z" fill="#e31a1c" fill-rule="evenodd" fill-opacity="1" stroke="#000000" stroke-opacity="1" stroke-width="0"></path>
<path clip-path="url(#clip492)" d="M1783.77 594.969 L1759.77 618.969 L1783.77 642.969 L1807.77 618.969 L1783.77 594.969 Z" fill="#e31a1c" fill-rule="evenodd" fill-opacity="1" stroke="#000000" stroke-opacity="1" stroke-width="0"></path>
<path clip-path="url(#clip492)" d="M1911.63 569.695 L1887.63 593.695 L1911.63 617.695 L1935.63 593.695 L1911.63 569.695 Z" fill="#e31a1c" fill-rule="evenodd" fill-opacity="1" stroke="#000000" stroke-opacity="1" stroke-width="0"></path>
<path clip-path="url(#clip492)" d="M2039.49 552.15 L2015.49 576.15 L2039.49 600.15 L2063.49 576.15 L2039.49 552.15 Z" fill="#e31a1c" fill-rule="evenodd" fill-opacity="1" stroke="#000000" stroke-opacity="1" stroke-width="0"></path>
<path clip-path="url(#clip492)" d="M2167.35 542.249 L2143.35 566.249 L2167.35 590.249 L2191.35 566.249 L2167.35 542.249 Z" fill="#e31a1c" fill-rule="evenodd" fill-opacity="1" stroke="#000000" stroke-opacity="1" stroke-width="0"></path>
<path clip-path="url(#clip492)" d="M2295.22 539.787 L2271.22 563.787 L2295.22 587.787 L2319.22 563.787 L2295.22 539.787 Z" fill="#e31a1c" fill-rule="evenodd" fill-opacity="1" stroke="#000000" stroke-opacity="1" stroke-width="0"></path>
<path clip-path="url(#clip492)" d="M377.272 1284.68 L353.272 1308.68 L377.272 1332.68 L401.272 1308.68 L377.272 1284.68 Z" fill="#377db8" fill-rule="evenodd" fill-opacity="1" stroke="#000000" stroke-opacity="1" stroke-width="0"></path>
<path clip-path="url(#clip492)" d="M505.135 1282.68 L481.135 1306.68 L505.135 1330.68 L529.135 1306.68 L505.135 1282.68 Z" fill="#377db8" fill-rule="evenodd" fill-opacity="1" stroke="#000000" stroke-opacity="1" stroke-width="0"></path>
<path clip-path="url(#clip492)" d="M632.998 1276.71 L608.998 1300.71 L632.998 1324.71 L656.998 1300.71 L632.998 1276.71 Z" fill="#377db8" fill-rule="evenodd" fill-opacity="1" stroke="#000000" stroke-opacity="1" stroke-width="0"></path>
<path clip-path="url(#clip492)" d="M760.861 1266.89 L736.861 1290.89 L760.861 1314.89 L784.861 1290.89 L760.861 1266.89 Z" fill="#377db8" fill-rule="evenodd" fill-opacity="1" stroke="#000000" stroke-opacity="1" stroke-width="0"></path>
<path clip-path="url(#clip492)" d="M888.724 1253.39 L864.724 1277.39 L888.724 1301.39 L912.724 1277.39 L888.724 1253.39 Z" fill="#377db8" fill-rule="evenodd" fill-opacity="1" stroke="#000000" stroke-opacity="1" stroke-width="0"></path>
<path clip-path="url(#clip492)" d="M1016.59 1236.48 L992.587 1260.48 L1016.59 1284.48 L1040.59 1260.48 L1016.59 1236.48 Z" fill="#377db8" fill-rule="evenodd" fill-opacity="1" stroke="#000000" stroke-opacity="1" stroke-width="0"></path>
<path clip-path="url(#clip492)" d="M1144.45 1216.46 L1120.45 1240.46 L1144.45 1264.46 L1168.45 1240.46 L1144.45 1216.46 Z" fill="#377db8" fill-rule="evenodd" fill-opacity="1" stroke="#000000" stroke-opacity="1" stroke-width="0"></path>
<path clip-path="url(#clip492)" d="M1272.31 1193.69 L1248.31 1217.69 L1272.31 1241.69 L1296.31 1217.69 L1272.31 1193.69 Z" fill="#377db8" fill-rule="evenodd" fill-opacity="1" stroke="#000000" stroke-opacity="1" stroke-width="0"></path>
<path clip-path="url(#clip492)" d="M1400.18 1168.59 L1376.18 1192.59 L1400.18 1216.59 L1424.18 1192.59 L1400.18 1168.59 Z" fill="#377db8" fill-rule="evenodd" fill-opacity="1" stroke="#000000" stroke-opacity="1" stroke-width="0"></path>
<path clip-path="url(#clip492)" d="M1528.04 1141.59 L1504.04 1165.59 L1528.04 1189.59 L1552.04 1165.59 L1528.04 1141.59 Z" fill="#377db8" fill-rule="evenodd" fill-opacity="1" stroke="#000000" stroke-opacity="1" stroke-width="0"></path>
<path clip-path="url(#clip492)" d="M1655.9 1113.17 L1631.9 1137.17 L1655.9 1161.17 L1679.9 1137.17 L1655.9 1113.17 Z" fill="#377db8" fill-rule="evenodd" fill-opacity="1" stroke="#000000" stroke-opacity="1" stroke-width="0"></path>
<path clip-path="url(#clip492)" d="M1783.77 1083.82 L1759.77 1107.82 L1783.77 1131.82 L1807.77 1107.82 L1783.77 1083.82 Z" fill="#377db8" fill-rule="evenodd" fill-opacity="1" stroke="#000000" stroke-opacity="1" stroke-width="0"></path>
<path clip-path="url(#clip492)" d="M1911.63 1054.01 L1887.63 1078.01 L1911.63 1102.01 L1935.63 1078.01 L1911.63 1054.01 Z" fill="#377db8" fill-rule="evenodd" fill-opacity="1" stroke="#000000" stroke-opacity="1" stroke-width="0"></path>
<path clip-path="url(#clip492)" d="M2039.49 1024.23 L2015.49 1048.23 L2039.49 1072.23 L2063.49 1048.23 L2039.49 1024.23 Z" fill="#377db8" fill-rule="evenodd" fill-opacity="1" stroke="#000000" stroke-opacity="1" stroke-width="0"></path>
<path clip-path="url(#clip492)" d="M2167.35 994.96 L2143.35 1018.96 L2167.35 1042.96 L2191.35 1018.96 L2167.35 994.96 Z" fill="#377db8" fill-rule="evenodd" fill-opacity="1" stroke="#000000" stroke-opacity="1" stroke-width="0"></path>
<path clip-path="url(#clip492)" d="M2295.22 966.636 L2271.22 990.636 L2295.22 1014.64 L2319.22 990.636 L2295.22 966.636 Z" fill="#377db8" fill-rule="evenodd" fill-opacity="1" stroke="#000000" stroke-opacity="1" stroke-width="0"></path>
<path clip-path="url(#clip492)" d="M377.272 1284.68 L353.272 1308.68 L377.272 1332.68 L401.272 1308.68 L377.272 1284.68 Z" fill="#4dae49" fill-rule="evenodd" fill-opacity="1" stroke="#000000" stroke-opacity="1" stroke-width="0"></path>
<path clip-path="url(#clip492)" d="M505.135 1284.17 L481.135 1308.17 L505.135 1332.17 L529.135 1308.17 L505.135 1284.17 Z" fill="#4dae49" fill-rule="evenodd" fill-opacity="1" stroke="#000000" stroke-opacity="1" stroke-width="0"></path>
<path clip-path="url(#clip492)" d="M632.998 1282.64 L608.998 1306.64 L632.998 1330.64 L656.998 1306.64 L632.998 1282.64 Z" fill="#4dae49" fill-rule="evenodd" fill-opacity="1" stroke="#000000" stroke-opacity="1" stroke-width="0"></path>
<path clip-path="url(#clip492)" d="M760.861 1280.08 L736.861 1304.08 L760.861 1328.08 L784.861 1304.08 L760.861 1280.08 Z" fill="#4dae49" fill-rule="evenodd" fill-opacity="1" stroke="#000000" stroke-opacity="1" stroke-width="0"></path>
<path clip-path="url(#clip492)" d="M888.724 1276.48 L864.724 1300.48 L888.724 1324.48 L912.724 1300.48 L888.724 1276.48 Z" fill="#4dae49" fill-rule="evenodd" fill-opacity="1" stroke="#000000" stroke-opacity="1" stroke-width="0"></path>
<path clip-path="url(#clip492)" d="M1016.59 1271.85 L992.587 1295.85 L1016.59 1319.85 L1040.59 1295.85 L1016.59 1271.85 Z" fill="#4dae49" fill-rule="evenodd" fill-opacity="1" stroke="#000000" stroke-opacity="1" stroke-width="0"></path>
<path clip-path="url(#clip492)" d="M1144.45 1266.18 L1120.45 1290.18 L1144.45 1314.18 L1168.45 1290.18 L1144.45 1266.18 Z" fill="#4dae49" fill-rule="evenodd" fill-opacity="1" stroke="#000000" stroke-opacity="1" stroke-width="0"></path>
<path clip-path="url(#clip492)" d="M1272.31 1259.47 L1248.31 1283.47 L1272.31 1307.47 L1296.31 1283.47 L1272.31 1259.47 Z" fill="#4dae49" fill-rule="evenodd" fill-opacity="1" stroke="#000000" stroke-opacity="1" stroke-width="0"></path>
<path clip-path="url(#clip492)" d="M1400.18 1251.74 L1376.18 1275.74 L1400.18 1299.74 L1424.18 1275.74 L1400.18 1251.74 Z" fill="#4dae49" fill-rule="evenodd" fill-opacity="1" stroke="#000000" stroke-opacity="1" stroke-width="0"></path>
<path clip-path="url(#clip492)" d="M1528.04 1242.99 L1504.04 1266.99 L1528.04 1290.99 L1552.04 1266.99 L1528.04 1242.99 Z" fill="#4dae49" fill-rule="evenodd" fill-opacity="1" stroke="#000000" stroke-opacity="1" stroke-width="0"></path>
<path clip-path="url(#clip492)" d="M1655.9 1233.27 L1631.9 1257.27 L1655.9 1281.27 L1679.9 1257.27 L1655.9 1233.27 Z" fill="#4dae49" fill-rule="evenodd" fill-opacity="1" stroke="#000000" stroke-opacity="1" stroke-width="0"></path>
<path clip-path="url(#clip492)" d="M1783.77 1222.62 L1759.77 1246.62 L1783.77 1270.62 L1807.77 1246.62 L1783.77 1222.62 Z" fill="#4dae49" fill-rule="evenodd" fill-opacity="1" stroke="#000000" stroke-opacity="1" stroke-width="0"></path>
<path clip-path="url(#clip492)" d="M1911.63 1211.09 L1887.63 1235.09 L1911.63 1259.09 L1935.63 1235.09 L1911.63 1211.09 Z" fill="#4dae49" fill-rule="evenodd" fill-opacity="1" stroke="#000000" stroke-opacity="1" stroke-width="0"></path>
<path clip-path="url(#clip492)" d="M2039.49 1198.77 L2015.49 1222.77 L2039.49 1246.77 L2063.49 1222.77 L2039.49 1198.77 Z" fill="#4dae49" fill-rule="evenodd" fill-opacity="1" stroke="#000000" stroke-opacity="1" stroke-width="0"></path>
<path clip-path="url(#clip492)" d="M2167.35 1185.74 L2143.35 1209.74 L2167.35 1233.74 L2191.35 1209.74 L2167.35 1185.74 Z" fill="#4dae49" fill-rule="evenodd" fill-opacity="1" stroke="#000000" stroke-opacity="1" stroke-width="0"></path>
<path clip-path="url(#clip492)" d="M2295.22 1172.11 L2271.22 1196.11 L2295.22 1220.11 L2319.22 1196.11 L2295.22 1172.11 Z" fill="#4dae49" fill-rule="evenodd" fill-opacity="1" stroke="#000000" stroke-opacity="1" stroke-width="0"></path>
<polyline clip-path="url(#clip492)" style="stroke:#e31a1c; stroke-linecap:round; stroke-linejoin:round; stroke-width:16; stroke-opacity:1; fill:none" points="377.272,1308.68 407.716,1289.24 438.159,1269.8 468.603,1250.36 499.047,1230.92 529.49,1211.47 559.934,1192.03 590.377,1172.59 620.821,1153.15 651.265,1133.71 681.708,1114.27 712.152,1094.83 742.595,1075.39 773.039,1055.95 803.482,1036.51 833.926,1017.07 864.37,997.627 894.813,978.186 925.257,958.746 955.7,939.305 986.144,919.865 1016.59,900.424 1047.03,880.984 1077.47,861.543 1107.92,842.103 1138.36,822.663 1168.81,803.223 1199.25,783.782 1229.69,764.342 1260.14,744.902 1290.58,725.462 1321.02,706.022 1351.47,686.582 1381.91,667.142 1412.35,647.703 1442.8,628.263 1473.24,608.823 1503.68,589.384 1534.13,569.944 1564.57,550.505 1595.02,531.065 1625.46,511.626 1655.9,492.187 1686.35,472.748 1716.79,453.309 1747.23,433.87 1777.68,414.431 1808.12,394.992 1838.56,375.553 1869.01,356.115 1899.45,336.676 1929.89,317.238 1960.34,297.8 1990.78,278.361 2021.23,258.923 2051.67,239.485 2082.11,220.047 2112.56,200.609 2143,181.172 2173.44,161.734 2203.89,142.297 2234.33,122.859 2264.77,103.422 2295.22,83.9849 "></polyline>
<polyline clip-path="url(#clip492)" style="stroke:#377db8; stroke-linecap:round; stroke-linejoin:round; stroke-width:16; stroke-opacity:1; fill:none" points="377.272,1308.68 407.716,1308.68 438.159,1308.67 468.603,1308.66 499.047,1308.65 529.49,1308.63 559.934,1308.6 590.377,1308.58 620.821,1308.55 651.265,1308.51 681.708,1308.47 712.152,1308.43 742.595,1308.38 773.039,1308.33 803.482,1308.28 833.926,1308.22 864.37,1308.15 894.813,1308.08 925.257,1308.01 955.7,1307.94 986.144,1307.86 1016.59,1307.77 1047.03,1307.68 1077.47,1307.59 1107.92,1307.49 1138.36,1307.39 1168.81,1307.29 1199.25,1307.18 1229.69,1307.07 1260.14,1306.95 1290.58,1306.83 1321.02,1306.7 1351.47,1306.57 1381.91,1306.44 1412.35,1306.3 1442.8,1306.16 1473.24,1306.01 1503.68,1305.86 1534.13,1305.71 1564.57,1305.55 1595.02,1305.39 1625.46,1305.22 1655.9,1305.05 1686.35,1304.88 1716.79,1304.7 1747.23,1304.51 1777.68,1304.33 1808.12,1304.14 1838.56,1303.94 1869.01,1303.74 1899.45,1303.54 1929.89,1303.33 1960.34,1303.12 1990.78,1302.9 2021.23,1302.68 2051.67,1302.46 2082.11,1302.23 2112.56,1302 2143,1301.76 2173.44,1301.52 2203.89,1301.27 2234.33,1301.03 2264.77,1300.77 2295.22,1300.52 "></polyline>
<polyline clip-path="url(#clip492)" style="stroke:#4dae49; stroke-linecap:round; stroke-linejoin:round; stroke-width:16; stroke-opacity:1; fill:none" points="377.272,1308.68 407.716,1308.68 438.159,1308.68 468.603,1308.68 499.047,1308.68 529.49,1308.68 559.934,1308.68 590.377,1308.68 620.821,1308.68 651.265,1308.68 681.708,1308.68 712.152,1308.68 742.595,1308.68 773.039,1308.68 803.482,1308.68 833.926,1308.68 864.37,1308.68 894.813,1308.68 925.257,1308.68 955.7,1308.68 986.144,1308.68 1016.59,1308.68 1047.03,1308.68 1077.47,1308.68 1107.92,1308.68 1138.36,1308.67 1168.81,1308.67 1199.25,1308.67 1229.69,1308.67 1260.14,1308.67 1290.58,1308.67 1321.02,1308.67 1351.47,1308.67 1381.91,1308.67 1412.35,1308.67 1442.8,1308.67 1473.24,1308.67 1503.68,1308.66 1534.13,1308.66 1564.57,1308.66 1595.02,1308.66 1625.46,1308.66 1655.9,1308.66 1686.35,1308.66 1716.79,1308.65 1747.23,1308.65 1777.68,1308.65 1808.12,1308.65 1838.56,1308.65 1869.01,1308.64 1899.45,1308.64 1929.89,1308.64 1960.34,1308.64 1990.78,1308.64 2021.23,1308.63 2051.67,1308.63 2082.11,1308.63 2112.56,1308.63 2143,1308.62 2173.44,1308.62 2203.89,1308.62 2234.33,1308.61 2264.77,1308.61 2295.22,1308.61 "></polyline>
<path clip-path="url(#clip490)" d="M501.527 223.969 Q501.527 224.021 501.21 225.918 L489.195 273.823 Q488.562 276.353 486.77 278.882 Q485.031 281.465 482.238 283.678 Q479.498 285.944 475.282 287.315 Q471.118 288.737 466.323 288.737 Q458.681 288.737 455.308 287.104 Q451.988 285.523 451.988 282.15 Q451.988 279.199 453.833 277.512 Q455.677 275.879 457.785 275.879 Q459.788 275.879 460.842 277.038 Q461.896 278.197 461.896 279.673 Q461.896 281.307 460.789 282.94 Q459.682 284.627 457.469 285.259 Q461 286.366 466.112 286.366 Q476.915 286.366 481.553 274.93 Q481.659 274.772 481.659 274.719 L485.242 260.437 L485.084 260.332 Q484.188 261.386 482.765 262.598 Q481.395 263.757 478.444 265.18 Q475.493 266.603 472.594 266.603 Q466.533 266.603 462.37 261.966 Q458.26 257.275 458.26 249.528 Q458.26 243.889 460.526 238.25 Q462.844 232.559 466.428 228.395 Q470.064 224.179 474.702 221.544 Q479.392 218.909 483.925 218.909 Q487.087 218.909 489.774 220.807 Q492.462 222.651 493.938 225.708 Q494.201 223.178 495.624 222.124 Q497.1 221.07 498.365 221.07 Q499.787 221.07 500.631 221.861 Q501.527 222.598 501.527 223.969 M492.673 230.556 Q492.673 230.24 492.462 229.397 Q492.251 228.501 491.619 227.078 Q491.039 225.655 490.143 224.39 Q489.247 223.125 487.614 222.229 Q486.033 221.281 484.03 221.281 Q480.763 221.281 477.495 224.021 Q474.228 226.709 471.962 230.872 Q469.854 234.878 467.851 242.625 Q465.901 250.372 465.901 254.324 Q465.901 258.224 467.587 261.228 Q469.274 264.232 472.91 264.232 Q477.126 264.232 481.659 260.332 Q486.349 256.274 487.139 252.796 L492.357 232.19 Q492.673 230.925 492.673 230.556 Z" fill="#000000" fill-rule="nonzero" fill-opacity="1"></path><path clip-path="url(#clip490)" d="M631.265 219.331 L631.265 219.542 Q629.579 227.447 626.153 231.821 Q622.781 236.195 616.298 237.776 Q614.665 238.198 612.504 238.198 Q607.919 238.198 603.44 236.037 Q598.96 233.824 593.953 230.029 Q590.844 227.71 589.052 226.498 Q587.261 225.286 584.362 224.074 Q581.516 222.809 579.039 222.809 Q577.669 222.809 576.246 223.125 Q570.502 224.601 567.129 227.658 Q563.809 230.714 562.544 236.511 Q562.333 237.46 561.226 237.46 Q560.699 237.46 560.331 237.091 Q559.962 236.722 559.962 236.142 L559.962 235.932 Q561.648 228.027 565.021 223.652 Q568.446 219.278 574.929 217.697 Q576.668 217.276 578.723 217.276 Q583.255 217.276 587.735 219.489 Q592.214 221.65 597.274 225.497 Q599.592 227.236 600.91 228.185 Q602.28 229.081 604.388 230.345 Q606.496 231.61 608.446 232.19 Q610.396 232.717 612.293 232.717 Q613.558 232.717 614.981 232.401 Q620.725 230.925 624.045 227.868 Q627.418 224.812 628.683 219.015 Q629.105 218.013 630.001 218.013 Q630.528 218.013 630.897 218.382 Q631.265 218.751 631.265 219.331 M631.265 243.099 L631.265 243.31 Q629.579 251.215 626.153 255.589 Q622.781 259.963 616.298 261.544 Q614.665 261.966 612.504 261.966 Q607.972 261.966 603.492 259.805 Q599.013 257.591 593.953 253.744 Q590.844 251.426 589.052 250.213 Q587.261 249.001 584.362 247.789 Q581.516 246.524 579.039 246.524 Q577.669 246.524 576.246 246.841 Q570.502 248.316 567.129 251.373 Q563.809 254.429 562.544 260.227 Q562.333 261.228 561.226 261.228 Q560.699 261.228 560.331 260.859 Q559.962 260.49 559.962 259.91 L559.962 259.7 Q561.648 251.794 565.021 247.42 Q568.446 243.046 574.929 241.465 Q576.668 241.044 578.723 241.044 Q583.308 241.044 587.788 243.257 Q592.267 245.418 597.274 249.212 Q599.592 250.951 600.91 251.9 Q602.28 252.796 604.388 254.061 Q606.496 255.325 608.446 255.905 Q610.396 256.432 612.293 256.432 Q613.558 256.432 614.981 256.116 Q620.725 254.64 624.045 251.584 Q627.418 248.527 628.683 242.73 Q629.052 241.781 630.001 241.781 Q630.528 241.781 630.897 242.15 Q631.265 242.519 631.265 243.099 Z" fill="#000000" fill-rule="nonzero" fill-opacity="1"></path><path clip-path="url(#clip490)" d="M743.777 238.092 Q744.409 238.725 744.409 239.621 Q744.409 240.517 743.777 241.149 Q743.144 241.781 742.248 241.781 L674.686 241.781 Q673.79 241.781 673.158 241.149 Q672.526 240.517 672.526 239.621 Q672.526 238.725 673.158 238.092 Q673.79 237.46 674.686 237.46 L742.248 237.46 Q743.144 237.46 743.777 238.092 Z" fill="#000000" fill-rule="nonzero" fill-opacity="1"></path><path clip-path="url(#clip490)" d="M785.611 266.603 Q785.611 264.653 785.769 264.074 Q785.98 263.494 786.823 262.598 L807.535 239.515 Q818.865 226.762 818.865 215.642 Q818.865 208.422 815.071 203.257 Q811.329 198.093 804.425 198.093 Q799.682 198.093 795.677 200.991 Q791.672 203.89 789.827 209.054 Q790.144 208.949 791.25 208.949 Q793.938 208.949 795.414 210.635 Q796.942 212.322 796.942 214.588 Q796.942 217.486 795.045 218.909 Q793.2 220.28 791.356 220.28 Q790.618 220.28 789.617 220.121 Q788.668 219.963 787.14 218.488 Q785.611 216.959 785.611 214.272 Q785.611 206.736 791.303 200.728 Q797.047 194.72 805.796 194.72 Q815.703 194.72 822.185 200.622 Q828.72 206.472 828.72 215.642 Q828.72 218.857 827.719 221.808 Q826.77 224.706 825.453 226.972 Q824.188 229.239 820.71 232.875 Q817.232 236.511 814.439 239.094 Q811.645 241.676 805.374 247.157 L793.938 258.277 L813.384 258.277 Q822.871 258.277 823.608 257.433 Q824.662 255.905 825.98 247.842 L828.72 247.842 L825.664 266.603 L785.611 266.603 Z" fill="#000000" fill-rule="nonzero" fill-opacity="1"></path><path clip-path="url(#clip490)" d="M839.489 249.212 Q839.489 245.997 841.228 244.785 Q842.967 243.52 844.811 243.52 Q847.288 243.52 848.711 245.101 Q850.187 246.63 850.187 248.791 Q850.187 250.951 848.711 252.532 Q847.288 254.061 844.811 254.061 Q843.599 254.061 842.967 253.85 Q844.39 258.804 848.711 262.387 Q853.085 265.971 858.83 265.971 Q866.05 265.971 870.371 258.962 Q872.953 254.429 872.953 244.153 Q872.953 235.088 871.004 230.556 Q868 223.652 861.834 223.652 Q853.085 223.652 847.921 231.189 Q847.288 232.137 846.551 232.19 Q845.497 232.19 845.233 231.61 Q845.022 230.978 845.022 229.344 L845.022 197.408 Q845.022 194.825 846.076 194.825 Q846.498 194.825 847.394 195.141 Q854.192 198.145 861.728 198.198 Q869.475 198.198 876.432 195.036 Q876.959 194.72 877.275 194.72 Q878.329 194.72 878.382 195.932 Q878.382 196.354 877.486 197.618 Q876.642 198.83 874.798 200.464 Q872.953 202.045 870.582 203.573 Q868.21 205.102 864.732 206.156 Q861.307 207.157 857.512 207.157 Q852.98 207.157 848.342 205.734 L848.342 226.762 Q853.929 221.281 862.044 221.281 Q870.687 221.281 876.642 228.237 Q882.598 235.194 882.598 244.891 Q882.598 255.062 875.536 262.018 Q868.527 268.975 859.041 268.975 Q850.398 268.975 844.917 262.809 Q839.489 256.643 839.489 249.212 Z" fill="#000000" fill-rule="nonzero" fill-opacity="1"></path><path clip-path="url(#clip490)" d="M893.366 232.084 Q893.366 216.222 897.371 207.579 Q902.957 194.72 916.133 194.72 Q918.926 194.72 921.824 195.51 Q924.775 196.248 928.464 199.147 Q932.206 202.045 934.472 206.788 Q938.794 215.958 938.794 232.084 Q938.794 247.842 934.789 256.432 Q928.939 268.975 916.027 268.975 Q911.179 268.975 906.225 266.498 Q901.324 264.021 898.214 258.066 Q893.366 249.159 893.366 232.084 M902.325 230.767 Q902.325 247.051 903.484 253.534 Q904.802 260.543 908.386 263.599 Q912.022 266.603 916.027 266.603 Q920.349 266.603 923.932 263.389 Q927.569 260.121 928.675 253.112 Q929.887 246.208 929.835 230.767 Q929.835 215.747 928.781 209.739 Q927.358 202.73 923.563 199.937 Q919.822 197.091 916.027 197.091 Q914.604 197.091 913.076 197.513 Q911.6 197.935 909.44 199.147 Q907.279 200.359 905.592 203.363 Q903.959 206.367 903.168 210.899 Q902.325 216.749 902.325 230.767 Z" fill="#000000" fill-rule="nonzero" fill-opacity="1"></path><path clip-path="url(#clip490)" d="M947.243 232.084 Q947.243 216.222 951.249 207.579 Q956.835 194.72 970.01 194.72 Q972.803 194.72 975.702 195.51 Q978.653 196.248 982.342 199.147 Q986.084 202.045 988.35 206.788 Q992.671 215.958 992.671 232.084 Q992.671 247.842 988.666 256.432 Q982.816 268.975 969.904 268.975 Q965.056 268.975 960.102 266.498 Q955.201 264.021 952.092 258.066 Q947.243 249.159 947.243 232.084 M956.202 230.767 Q956.202 247.051 957.362 253.534 Q958.679 260.543 962.263 263.599 Q965.899 266.603 969.904 266.603 Q974.226 266.603 977.81 263.389 Q981.446 260.121 982.553 253.112 Q983.765 246.208 983.712 230.767 Q983.712 215.747 982.658 209.739 Q981.235 202.73 977.441 199.937 Q973.699 197.091 969.904 197.091 Q968.482 197.091 966.953 197.513 Q965.478 197.935 963.317 199.147 Q961.156 200.359 959.47 203.363 Q957.836 206.367 957.046 210.899 Q956.202 216.749 956.202 230.767 Z" fill="#000000" fill-rule="nonzero" fill-opacity="1"></path></svg>