<svg xmlns="http://www.w3.org/2000/svg" xmlns:xlink="http://www.w3.org/1999/xlink" width="700" height="400" viewBox="0 0 2800 1600">
<defs>
  <clipPath id="clip050">
    <rect x="0" y="0" width="2800" height="1600"></rect>
  </clipPath>
</defs>
<path clip-path="url(#clip050)" d="M0 1600 L2800 1600 L2800 0 L0 0  Z" fill="#ffffff" fill-rule="evenodd" fill-opacity="1"></path>
<defs>
  <clipPath id="clip051">
    <rect x="560" y="0" width="1961" height="1600"></rect>
  </clipPath>
</defs>
<defs>
  <clipPath id="clip052">
    <rect x="364" y="47" width="1849" height="1282"></rect>
  </clipPath>
</defs>
<path clip-path="url(#clip050)" d="M364.015 1328.42 L2211.84 1328.42 L2211.84 47.2441 L364.015 47.2441  Z" fill="#ffffff" fill-rule="evenodd" fill-opacity="1"></path>
<polyline clip-path="url(#clip050)" style="stroke:#000000; stroke-linecap:round; stroke-linejoin:round; stroke-width:4; stroke-opacity:1; fill:none" points="364.015,1328.42 2211.84,1328.42 "></polyline>
<polyline clip-path="url(#clip050)" style="stroke:#000000; stroke-linecap:round; stroke-linejoin:round; stroke-width:4; stroke-opacity:1; fill:none" points="364.015,47.2441 2211.84,47.2441 "></polyline>
<polyline clip-path="url(#clip050)" style="stroke:#000000; stroke-linecap:round; stroke-linejoin:round; stroke-width:4; stroke-opacity:1; fill:none" points="416.312,1328.42 416.312,1309.52 "></polyline>
<polyline clip-path="url(#clip050)" style="stroke:#000000; stroke-linecap:round; stroke-linejoin:round; stroke-width:4; stroke-opacity:1; fill:none" points="764.958,1328.42 764.958,1309.52 "></polyline>
<polyline clip-path="url(#clip050)" style="stroke:#000000; stroke-linecap:round; stroke-linejoin:round; stroke-width:4; stroke-opacity:1; fill:none" points="1113.6,1328.42 1113.6,1309.52 "></polyline>
<polyline clip-path="url(#clip050)" style="stroke:#000000; stroke-linecap:round; stroke-linejoin:round; stroke-width:4; stroke-opacity:1; fill:none" points="1462.25,1328.42 1462.25,1309.52 "></polyline>
<polyline clip-path="url(#clip050)" style="stroke:#000000; stroke-linecap:round; stroke-linejoin:round; stroke-width:4; stroke-opacity:1; fill:none" points="1810.9,1328.42 1810.9,1309.52 "></polyline>
<polyline clip-path="url(#clip050)" style="stroke:#000000; stroke-linecap:round; stroke-linejoin:round; stroke-width:4; stroke-opacity:1; fill:none" points="2159.54,1328.42 2159.54,1309.52 "></polyline>
<path clip-path="url(#clip050)" d="M396.348 1401.48 Q396.348 1387.53 399.868 1379.94 Q404.778 1368.64 416.358 1368.64 Q418.813 1368.64 421.36 1369.33 Q423.954 1369.98 427.197 1372.53 Q430.485 1375.08 432.477 1379.24 Q436.275 1387.3 436.275 1401.48 Q436.275 1415.33 432.755 1422.88 Q427.613 1433.9 416.265 1433.9 Q412.004 1433.9 407.65 1431.72 Q403.342 1429.55 400.61 1424.31 Q396.348 1416.48 396.348 1401.48 M404.222 1400.32 Q404.222 1414.63 405.241 1420.33 Q406.399 1426.49 409.549 1429.18 Q412.745 1431.82 416.265 1431.82 Q420.063 1431.82 423.213 1428.99 Q426.409 1426.12 427.382 1419.96 Q428.447 1413.89 428.401 1400.32 Q428.401 1387.12 427.474 1381.84 Q426.224 1375.68 422.889 1373.22 Q419.6 1370.72 416.265 1370.72 Q415.015 1370.72 413.671 1371.09 Q412.374 1371.46 410.475 1372.53 Q408.576 1373.59 407.094 1376.23 Q405.658 1378.87 404.963 1382.86 Q404.222 1388 404.222 1400.32 Z" fill="#000000" fill-rule="nonzero" fill-opacity="1"></path><path clip-path="url(#clip050)" d="M749.302 1377.67 L749.302 1374.7 Q760.697 1374.7 766.579 1368.64 Q768.2 1368.64 768.478 1369.01 Q768.756 1369.38 768.756 1371.09 L768.756 1424.31 Q768.756 1427.14 770.146 1428.02 Q771.535 1428.9 777.603 1428.9 L780.614 1428.9 L780.614 1431.82 Q777.279 1431.54 765.236 1431.54 Q753.193 1431.54 749.905 1431.82 L749.905 1428.9 L752.915 1428.9 Q758.89 1428.9 760.326 1428.06 Q761.762 1427.18 761.762 1424.31 L761.762 1375.17 Q756.806 1377.67 749.302 1377.67 Z" fill="#000000" fill-rule="nonzero" fill-opacity="1"></path><path clip-path="url(#clip050)" d="M1094.66 1431.82 Q1094.66 1430.1 1094.8 1429.59 Q1094.98 1429.08 1095.73 1428.3 L1113.93 1408.01 Q1123.89 1396.8 1123.89 1387.03 Q1123.89 1380.68 1120.55 1376.14 Q1117.26 1371.6 1111.2 1371.6 Q1107.03 1371.6 1103.51 1374.15 Q1099.99 1376.7 1098.37 1381.24 Q1098.64 1381.14 1099.62 1381.14 Q1101.98 1381.14 1103.28 1382.63 Q1104.62 1384.11 1104.62 1386.1 Q1104.62 1388.65 1102.95 1389.9 Q1101.33 1391.1 1099.71 1391.1 Q1099.06 1391.1 1098.18 1390.96 Q1097.35 1390.82 1096 1389.53 Q1094.66 1388.18 1094.66 1385.82 Q1094.66 1379.2 1099.66 1373.92 Q1104.71 1368.64 1112.4 1368.64 Q1121.11 1368.64 1126.81 1373.82 Q1132.55 1378.97 1132.55 1387.03 Q1132.55 1389.85 1131.67 1392.44 Q1130.84 1394.99 1129.68 1396.98 Q1128.57 1398.98 1125.51 1402.17 Q1122.45 1405.37 1120 1407.64 Q1117.54 1409.91 1112.03 1414.72 L1101.98 1424.5 L1119.07 1424.5 Q1127.41 1424.5 1128.06 1423.76 Q1128.98 1422.41 1130.14 1415.33 L1132.55 1415.33 L1129.86 1431.82 L1094.66 1431.82 Z" fill="#000000" fill-rule="nonzero" fill-opacity="1"></path><path clip-path="url(#clip050)" d="M1442.57 1419.03 Q1442.57 1416.21 1444.19 1414.86 Q1445.81 1413.52 1447.89 1413.52 Q1450.07 1413.52 1451.6 1414.96 Q1453.17 1416.35 1453.17 1418.8 Q1453.17 1421.44 1451.32 1422.92 Q1449.51 1424.4 1446.92 1424.03 Q1449.19 1427.83 1453.36 1429.55 Q1457.57 1431.26 1461.46 1431.26 Q1465.54 1431.26 1468.83 1427.74 Q1472.16 1424.22 1472.16 1415.6 Q1472.16 1408.29 1469.29 1404.07 Q1466.47 1399.86 1460.86 1399.86 L1456.69 1399.86 Q1455.26 1399.86 1454.84 1399.72 Q1454.42 1399.58 1454.42 1398.79 Q1454.42 1397.86 1455.86 1397.68 Q1457.3 1397.68 1459.56 1397.4 Q1465.08 1397.22 1467.99 1392.44 Q1470.63 1388 1470.63 1381.65 Q1470.63 1375.86 1467.86 1373.45 Q1465.12 1371 1461.56 1371 Q1458.22 1371 1454.56 1372.39 Q1450.9 1373.78 1448.91 1376.88 Q1454.79 1376.88 1454.79 1381.65 Q1454.79 1383.74 1453.45 1385.13 Q1452.15 1386.47 1449.98 1386.47 Q1447.89 1386.47 1446.5 1385.17 Q1445.11 1383.83 1445.11 1381.56 Q1445.11 1376.14 1449.93 1372.39 Q1454.79 1368.64 1461.93 1368.64 Q1468.97 1368.64 1474.16 1372.34 Q1479.39 1376.05 1479.39 1381.75 Q1479.39 1387.35 1475.68 1391.94 Q1471.98 1396.52 1466.1 1398.42 Q1473.32 1399.86 1477.63 1404.77 Q1481.94 1409.63 1481.94 1415.6 Q1481.94 1423.02 1476.1 1428.48 Q1470.26 1433.9 1461.74 1433.9 Q1453.87 1433.9 1448.22 1429.64 Q1442.57 1425.38 1442.57 1419.03 Z" fill="#000000" fill-rule="nonzero" fill-opacity="1"></path><path clip-path="url(#clip050)" d="M1789.87 1416.16 L1789.87 1413.24 L1819 1368.73 Q1819.74 1367.57 1820.9 1367.62 Q1821.97 1367.62 1822.2 1368.03 Q1822.43 1368.45 1822.43 1370.07 L1822.43 1413.24 L1831.93 1413.24 L1831.93 1416.16 L1822.43 1416.16 L1822.43 1424.4 Q1822.43 1427.14 1823.54 1428.02 Q1824.7 1428.9 1829.61 1428.9 L1831.6 1428.9 L1831.6 1431.82 Q1827.71 1431.54 1818.73 1431.54 Q1809.79 1431.54 1805.9 1431.82 L1805.9 1428.9 L1807.89 1428.9 Q1812.8 1428.9 1813.95 1428.06 Q1815.11 1427.18 1815.11 1424.4 L1815.11 1416.16 L1789.87 1416.16 M1792.56 1413.24 L1815.67 1413.24 L1815.67 1377.85 L1792.56 1413.24 Z" fill="#000000" fill-rule="nonzero" fill-opacity="1"></path><path clip-path="url(#clip050)" d="M2140.6 1416.53 Q2140.6 1413.71 2142.13 1412.64 Q2143.66 1411.53 2145.28 1411.53 Q2147.46 1411.53 2148.71 1412.92 Q2150 1414.26 2150 1416.16 Q2150 1418.06 2148.71 1419.45 Q2147.46 1420.79 2145.28 1420.79 Q2144.21 1420.79 2143.66 1420.61 Q2144.91 1424.96 2148.71 1428.11 Q2152.55 1431.26 2157.6 1431.26 Q2163.94 1431.26 2167.74 1425.1 Q2170.01 1421.12 2170.01 1412.08 Q2170.01 1404.12 2168.3 1400.13 Q2165.66 1394.07 2160.24 1394.07 Q2152.55 1394.07 2148.01 1400.69 Q2147.46 1401.52 2146.81 1401.57 Q2145.88 1401.57 2145.65 1401.06 Q2145.46 1400.5 2145.46 1399.07 L2145.46 1371 Q2145.46 1368.73 2146.39 1368.73 Q2146.76 1368.73 2147.55 1369.01 Q2153.52 1371.65 2160.15 1371.69 Q2166.96 1371.69 2173.07 1368.91 Q2173.53 1368.64 2173.81 1368.64 Q2174.74 1368.64 2174.78 1369.7 Q2174.78 1370.07 2174 1371.18 Q2173.25 1372.25 2171.63 1373.69 Q2170.01 1375.08 2167.93 1376.42 Q2165.84 1377.76 2162.79 1378.69 Q2159.78 1379.57 2156.44 1379.57 Q2152.46 1379.57 2148.38 1378.32 L2148.38 1396.8 Q2153.29 1391.98 2160.42 1391.98 Q2168.02 1391.98 2173.25 1398.1 Q2178.49 1404.21 2178.49 1412.73 Q2178.49 1421.67 2172.28 1427.79 Q2166.12 1433.9 2157.78 1433.9 Q2150.19 1433.9 2145.37 1428.48 Q2140.6 1423.06 2140.6 1416.53 Z" fill="#000000" fill-rule="nonzero" fill-opacity="1"></path><path clip-path="url(#clip050)" d="M1312.42 1478.6 Q1312.42 1478.68 1312.34 1478.77 Q1311.81 1483.11 1310.78 1485.53 Q1309.76 1487.91 1307.46 1489.01 Q1305.78 1489.83 1303.69 1489.83 Q1300.54 1489.83 1295.99 1487.74 Q1295.82 1487.66 1294.92 1487.25 Q1294.02 1486.84 1293.69 1486.72 Q1293.36 1486.6 1292.67 1486.35 Q1291.97 1486.06 1291.44 1485.98 Q1290.9 1485.9 1290.37 1485.9 Q1289.22 1485.9 1288.24 1486.39 Q1286.23 1487.37 1285 1488.85 Q1283.73 1490.28 1283.4 1492.87 Q1283.32 1493.19 1283.03 1493.44 Q1282.75 1493.69 1282.38 1493.69 Q1282.01 1493.69 1281.68 1493.4 Q1281.35 1493.11 1281.35 1492.7 Q1281.35 1492.62 1281.44 1492.54 Q1281.97 1488.19 1282.99 1485.82 Q1284.02 1483.4 1286.31 1482.29 Q1288.12 1481.43 1290.08 1481.43 Q1293.16 1481.43 1297.83 1483.56 Q1297.99 1483.64 1298.9 1484.05 Q1299.8 1484.46 1300.13 1484.59 Q1300.45 1484.71 1301.15 1485 Q1301.85 1485.24 1302.38 1485.32 Q1302.91 1485.41 1303.45 1485.41 Q1304.47 1485.41 1305.54 1484.87 Q1307.55 1483.89 1308.82 1482.46 Q1310.09 1481.02 1310.41 1478.44 Q1310.5 1478.11 1310.78 1477.86 Q1311.07 1477.58 1311.44 1477.58 Q1311.81 1477.58 1312.14 1477.91 Q1312.42 1478.19 1312.42 1478.6 Z" fill="#000000" fill-rule="nonzero" fill-opacity="1"></path><path clip-path="url(#clip050)" d="M1313.81 1507.59 Q1313.81 1508 1312.82 1509.76 Q1311.88 1511.46 1308.43 1515.73 Q1304.97 1520 1299.82 1524.98 Q1297.89 1526.91 1294.96 1529.61 Q1292.03 1532.3 1290.04 1534.06 L1288.05 1535.81 Q1280.44 1542.26 1273.76 1549.46 Q1274.23 1549.28 1275.05 1549.22 Q1275.87 1549.11 1276.45 1549.11 L1277.04 1549.11 Q1280.08 1549.11 1285.41 1551.16 Q1290.1 1552.68 1292.5 1552.68 Q1294.84 1552.68 1297.42 1551.86 Q1299.99 1551.04 1302.8 1548.64 Q1305.62 1546.24 1306.9 1542.61 Q1307.14 1542.02 1307.25 1541.85 Q1307.37 1541.61 1307.72 1541.38 Q1308.07 1541.08 1308.54 1541.08 Q1309.19 1541.08 1309.6 1541.44 Q1310.01 1541.79 1310.01 1542.26 Q1310.01 1543.31 1309.19 1545.42 Q1308.43 1547.53 1306.73 1550.16 Q1305.09 1552.8 1302.92 1555.2 Q1300.81 1557.54 1297.65 1559.18 Q1294.49 1560.76 1291.15 1560.76 Q1288.75 1560.76 1286.99 1559.59 Q1285.24 1558.48 1283.48 1556.31 Q1281.08 1553.56 1279.79 1552.68 Q1278.5 1551.74 1276.51 1551.74 Q1271.18 1551.74 1266.32 1559.18 Q1265.8 1560.23 1265.45 1560.47 Q1265.15 1560.76 1264.45 1560.76 Q1262.99 1560.7 1262.99 1559.53 Q1262.99 1559.06 1264.27 1557.01 Q1265.62 1554.9 1268.61 1551.22 Q1271.65 1547.53 1275.34 1543.84 L1286.12 1533.77 Q1298.06 1523.69 1302.8 1518.01 Q1300.81 1518.01 1299.94 1517.96 Q1299.12 1517.9 1297.48 1517.55 Q1295.84 1517.14 1293.55 1516.26 Q1288.22 1514.44 1286 1514.44 Q1285.41 1514.44 1284.77 1514.5 Q1284.13 1514.56 1282.66 1514.85 Q1281.26 1515.14 1280.08 1515.73 Q1278.91 1516.26 1277.68 1517.43 Q1276.45 1518.54 1275.81 1520.06 Q1275.63 1520.53 1275.52 1520.77 Q1275.4 1521 1275.05 1521.23 Q1274.76 1521.41 1274.29 1521.41 Q1273.59 1521.41 1273.18 1521 Q1272.82 1520.59 1272.82 1520.06 Q1272.82 1519.01 1273.88 1516.84 Q1274.93 1514.68 1276.69 1512.33 Q1278.45 1509.93 1281.31 1508.18 Q1284.18 1506.42 1287.35 1506.42 Q1289.22 1506.42 1290.8 1507.24 Q1292.44 1508.06 1293.26 1508.94 Q1294.14 1509.76 1295.6 1511.57 Q1296.83 1512.98 1297.42 1513.56 Q1298 1514.15 1299.17 1514.79 Q1300.4 1515.38 1301.75 1515.38 Q1303.98 1515.38 1306.03 1513.68 Q1308.07 1511.92 1310.71 1507.71 Q1311.41 1506.42 1312.52 1506.42 Q1313.81 1506.42 1313.81 1507.59 Z" fill="#000000" fill-rule="nonzero" fill-opacity="1"></path><polyline clip-path="url(#clip050)" style="stroke:#000000; stroke-linecap:round; stroke-linejoin:round; stroke-width:4; stroke-opacity:1; fill:none" points="364.015,1328.42 364.015,47.2441 "></polyline>
<polyline clip-path="url(#clip050)" style="stroke:#000000; stroke-linecap:round; stroke-linejoin:round; stroke-width:4; stroke-opacity:1; fill:none" points="2211.84,1328.42 2211.84,47.2441 "></polyline>
<polyline clip-path="url(#clip050)" style="stroke:#000000; stroke-linecap:round; stroke-linejoin:round; stroke-width:4; stroke-opacity:1; fill:none" points="364.015,1292.16 378.633,1292.16 "></polyline>
<polyline clip-path="url(#clip050)" style="stroke:#000000; stroke-linecap:round; stroke-linejoin:round; stroke-width:4; stroke-opacity:1; fill:none" points="364.015,1075.79 378.633,1075.79 "></polyline>
<polyline clip-path="url(#clip050)" style="stroke:#000000; stroke-linecap:round; stroke-linejoin:round; stroke-width:4; stroke-opacity:1; fill:none" points="364.015,859.424 378.633,859.424 "></polyline>
<polyline clip-path="url(#clip050)" style="stroke:#000000; stroke-linecap:round; stroke-linejoin:round; stroke-width:4; stroke-opacity:1; fill:none" points="364.015,643.058 378.633,643.058 "></polyline>
<polyline clip-path="url(#clip050)" style="stroke:#000000; stroke-linecap:round; stroke-linejoin:round; stroke-width:4; stroke-opacity:1; fill:none" points="364.015,426.692 378.633,426.692 "></polyline>
<polyline clip-path="url(#clip050)" style="stroke:#000000; stroke-linecap:round; stroke-linejoin:round; stroke-width:4; stroke-opacity:1; fill:none" points="364.015,210.325 378.633,210.325 "></polyline>
<path clip-path="url(#clip050)" d="M208.302 1294.22 Q208.302 1280.28 211.822 1272.68 Q216.732 1261.38 228.312 1261.38 Q230.767 1261.38 233.314 1262.07 Q235.908 1262.72 239.15 1265.27 Q242.439 1267.82 244.431 1271.98 Q248.229 1280.04 248.229 1294.22 Q248.229 1308.07 244.709 1315.62 Q239.567 1326.64 228.219 1326.64 Q223.958 1326.64 219.604 1324.46 Q215.296 1322.29 212.563 1317.05 Q208.302 1309.22 208.302 1294.22 M216.176 1293.06 Q216.176 1307.37 217.195 1313.07 Q218.353 1319.23 221.503 1321.92 Q224.699 1324.56 228.219 1324.56 Q232.017 1324.56 235.167 1321.73 Q238.363 1318.86 239.336 1312.7 Q240.401 1306.63 240.355 1293.06 Q240.355 1279.86 239.428 1274.58 Q238.178 1268.42 234.843 1265.96 Q231.554 1263.46 228.219 1263.46 Q226.968 1263.46 225.625 1263.83 Q224.328 1264.2 222.429 1265.27 Q220.53 1266.33 219.048 1268.97 Q217.612 1271.61 216.917 1275.6 Q216.176 1280.74 216.176 1293.06 Z" fill="#000000" fill-rule="nonzero" fill-opacity="1"></path><path clip-path="url(#clip050)" d="M261.522 1323.03 Q260.086 1321.5 260.086 1319.51 Q260.086 1317.52 261.522 1316.08 Q262.958 1314.6 265.135 1314.6 Q267.219 1314.6 268.609 1315.99 Q270.045 1317.33 270.045 1319.55 Q270.045 1321.73 268.516 1323.17 Q267.034 1324.56 265.135 1324.56 Q262.958 1324.56 261.522 1323.03 Z" fill="#000000" fill-rule="nonzero" fill-opacity="1"></path><path clip-path="url(#clip050)" d="M282.088 1294.22 Q282.088 1280.28 285.608 1272.68 Q290.518 1261.38 302.098 1261.38 Q304.552 1261.38 307.1 1262.07 Q309.694 1262.72 312.936 1265.27 Q316.225 1267.82 318.216 1271.98 Q322.015 1280.04 322.015 1294.22 Q322.015 1308.07 318.494 1315.62 Q313.353 1326.64 302.005 1326.64 Q297.744 1326.64 293.39 1324.46 Q289.082 1322.29 286.349 1317.05 Q282.088 1309.22 282.088 1294.22 M289.962 1293.06 Q289.962 1307.37 290.981 1313.07 Q292.139 1319.23 295.289 1321.92 Q298.485 1324.56 302.005 1324.56 Q305.803 1324.56 308.953 1321.73 Q312.149 1318.86 313.121 1312.7 Q314.187 1306.63 314.14 1293.06 Q314.14 1279.86 313.214 1274.58 Q311.963 1268.42 308.628 1265.96 Q305.34 1263.46 302.005 1263.46 Q300.754 1263.46 299.411 1263.83 Q298.114 1264.2 296.215 1265.27 Q294.316 1266.33 292.834 1268.97 Q291.398 1271.61 290.703 1275.6 Q289.962 1280.74 289.962 1293.06 Z" fill="#000000" fill-rule="nonzero" fill-opacity="1"></path><path clip-path="url(#clip050)" d="M209.321 1077.85 Q209.321 1063.91 212.841 1056.31 Q217.751 1045.01 229.331 1045.01 Q231.786 1045.01 234.333 1045.71 Q236.927 1046.35 240.169 1048.9 Q243.458 1051.45 245.45 1055.62 Q249.248 1063.68 249.248 1077.85 Q249.248 1091.7 245.728 1099.25 Q240.586 1110.27 229.238 1110.27 Q224.977 1110.27 220.623 1108.1 Q216.315 1105.92 213.582 1100.69 Q209.321 1092.86 209.321 1077.85 M217.195 1076.69 Q217.195 1091.01 218.214 1096.7 Q219.372 1102.86 222.522 1105.55 Q225.718 1108.19 229.238 1108.19 Q233.036 1108.19 236.186 1105.36 Q239.382 1102.49 240.355 1096.33 Q241.42 1090.26 241.374 1076.69 Q241.374 1063.49 240.447 1058.21 Q239.197 1052.05 235.862 1049.6 Q232.573 1047.1 229.238 1047.1 Q227.987 1047.1 226.644 1047.47 Q225.347 1047.84 223.448 1048.9 Q221.549 1049.97 220.067 1052.61 Q218.631 1055.25 217.936 1059.23 Q217.195 1064.37 217.195 1076.69 Z" fill="#000000" fill-rule="nonzero" fill-opacity="1"></path><path clip-path="url(#clip050)" d="M262.541 1106.66 Q261.105 1105.13 261.105 1103.14 Q261.105 1101.15 262.541 1099.71 Q263.977 1098.23 266.154 1098.23 Q268.238 1098.23 269.628 1099.62 Q271.064 1100.96 271.064 1103.19 Q271.064 1105.36 269.535 1106.8 Q268.053 1108.19 266.154 1108.19 Q263.977 1108.19 262.541 1106.66 Z" fill="#000000" fill-rule="nonzero" fill-opacity="1"></path><path clip-path="url(#clip050)" d="M284.126 1092.9 Q284.126 1090.08 285.654 1089.01 Q287.183 1087.9 288.804 1087.9 Q290.981 1087.9 292.232 1089.29 Q293.529 1090.64 293.529 1092.53 Q293.529 1094.43 292.232 1095.82 Q290.981 1097.17 288.804 1097.17 Q287.739 1097.17 287.183 1096.98 Q288.433 1101.33 292.232 1104.48 Q296.076 1107.63 301.125 1107.63 Q307.471 1107.63 311.269 1101.47 Q313.538 1097.49 313.538 1088.46 Q313.538 1080.49 311.824 1076.51 Q309.184 1070.44 303.765 1070.44 Q296.076 1070.44 291.537 1077.06 Q290.981 1077.9 290.333 1077.94 Q289.406 1077.94 289.175 1077.43 Q288.989 1076.88 288.989 1075.44 L288.989 1047.37 Q288.989 1045.1 289.916 1045.1 Q290.286 1045.1 291.074 1045.38 Q297.049 1048.02 303.672 1048.07 Q310.481 1048.07 316.595 1045.29 Q317.059 1045.01 317.336 1045.01 Q318.263 1045.01 318.309 1046.08 Q318.309 1046.45 317.522 1047.56 Q316.781 1048.62 315.159 1050.06 Q313.538 1051.45 311.454 1052.79 Q309.37 1054.14 306.313 1055.06 Q303.302 1055.94 299.967 1055.94 Q295.983 1055.94 291.907 1054.69 L291.907 1073.17 Q296.817 1068.36 303.95 1068.36 Q311.547 1068.36 316.781 1074.47 Q322.015 1080.58 322.015 1089.11 Q322.015 1098.05 315.808 1104.16 Q309.647 1110.27 301.31 1110.27 Q293.714 1110.27 288.897 1104.86 Q284.126 1099.44 284.126 1092.9 Z" fill="#000000" fill-rule="nonzero" fill-opacity="1"></path><path clip-path="url(#clip050)" d="M213.026 837.677 L213.026 834.713 Q224.421 834.713 230.303 828.645 Q231.925 828.645 232.202 829.016 Q232.48 829.386 232.48 831.1 L232.48 884.32 Q232.48 887.146 233.87 888.026 Q235.26 888.906 241.327 888.906 L244.338 888.906 L244.338 891.824 Q241.003 891.546 228.96 891.546 Q216.917 891.546 213.629 891.824 L213.629 888.906 L216.639 888.906 Q222.614 888.906 224.05 888.072 Q225.486 887.192 225.486 884.32 L225.486 835.176 Q220.53 837.677 213.026 837.677 Z" fill="#000000" fill-rule="nonzero" fill-opacity="1"></path><path clip-path="url(#clip050)" d="M261.522 890.295 Q260.086 888.767 260.086 886.775 Q260.086 884.783 261.522 883.348 Q262.958 881.865 265.135 881.865 Q267.219 881.865 268.609 883.255 Q270.045 884.598 270.045 886.821 Q270.045 888.998 268.516 890.434 Q267.034 891.824 265.135 891.824 Q262.958 891.824 261.522 890.295 Z" fill="#000000" fill-rule="nonzero" fill-opacity="1"></path><path clip-path="url(#clip050)" d="M282.088 861.485 Q282.088 847.543 285.608 839.947 Q290.518 828.645 302.098 828.645 Q304.552 828.645 307.1 829.34 Q309.694 829.988 312.936 832.536 Q316.225 835.083 318.216 839.252 Q322.015 847.312 322.015 861.485 Q322.015 875.334 318.494 882.884 Q313.353 893.908 302.005 893.908 Q297.744 893.908 293.39 891.731 Q289.082 889.554 286.349 884.32 Q282.088 876.492 282.088 861.485 M289.962 860.327 Q289.962 874.64 290.981 880.337 Q292.139 886.497 295.289 889.184 Q298.485 891.824 302.005 891.824 Q305.803 891.824 308.953 888.998 Q312.149 886.127 313.121 879.966 Q314.187 873.899 314.14 860.327 Q314.14 847.126 313.214 841.846 Q311.963 835.686 308.628 833.231 Q305.34 830.729 302.005 830.729 Q300.754 830.729 299.411 831.1 Q298.114 831.471 296.215 832.536 Q294.316 833.601 292.834 836.241 Q291.398 838.882 290.703 842.865 Q289.962 848.006 289.962 860.327 Z" fill="#000000" fill-rule="nonzero" fill-opacity="1"></path><path clip-path="url(#clip050)" d="M214.045 621.311 L214.045 618.347 Q225.44 618.347 231.322 612.279 Q232.944 612.279 233.221 612.649 Q233.499 613.02 233.499 614.734 L233.499 667.954 Q233.499 670.78 234.889 671.66 Q236.279 672.54 242.346 672.54 L245.357 672.54 L245.357 675.458 Q242.022 675.18 229.979 675.18 Q217.936 675.18 214.648 675.458 L214.648 672.54 L217.658 672.54 Q223.633 672.54 225.069 671.706 Q226.505 670.826 226.505 667.954 L226.505 618.81 Q221.549 621.311 214.045 621.311 Z" fill="#000000" fill-rule="nonzero" fill-opacity="1"></path><path clip-path="url(#clip050)" d="M262.541 673.929 Q261.105 672.401 261.105 670.409 Q261.105 668.417 262.541 666.981 Q263.977 665.499 266.154 665.499 Q268.238 665.499 269.628 666.889 Q271.064 668.232 271.064 670.455 Q271.064 672.632 269.535 674.068 Q268.053 675.458 266.154 675.458 Q263.977 675.458 262.541 673.929 Z" fill="#000000" fill-rule="nonzero" fill-opacity="1"></path><path clip-path="url(#clip050)" d="M284.126 660.173 Q284.126 657.347 285.654 656.282 Q287.183 655.17 288.804 655.17 Q290.981 655.17 292.232 656.56 Q293.529 657.903 293.529 659.802 Q293.529 661.701 292.232 663.091 Q290.981 664.434 288.804 664.434 Q287.739 664.434 287.183 664.249 Q288.433 668.603 292.232 671.752 Q296.076 674.902 301.125 674.902 Q307.471 674.902 311.269 668.742 Q313.538 664.758 313.538 655.726 Q313.538 647.759 311.824 643.776 Q309.184 637.708 303.765 637.708 Q296.076 637.708 291.537 644.332 Q290.981 645.165 290.333 645.212 Q289.406 645.212 289.175 644.702 Q288.989 644.146 288.989 642.71 L288.989 614.641 Q288.989 612.372 289.916 612.372 Q290.286 612.372 291.074 612.649 Q297.049 615.29 303.672 615.336 Q310.481 615.336 316.595 612.557 Q317.059 612.279 317.336 612.279 Q318.263 612.279 318.309 613.344 Q318.309 613.715 317.522 614.826 Q316.781 615.892 315.159 617.328 Q313.538 618.717 311.454 620.06 Q309.37 621.404 306.313 622.33 Q303.302 623.21 299.967 623.21 Q295.983 623.21 291.907 621.96 L291.907 640.441 Q296.817 635.624 303.95 635.624 Q311.547 635.624 316.781 641.738 Q322.015 647.852 322.015 656.374 Q322.015 665.314 315.808 671.428 Q309.647 677.542 301.31 677.542 Q293.714 677.542 288.897 672.123 Q284.126 666.704 284.126 660.173 Z" fill="#000000" fill-rule="nonzero" fill-opacity="1"></path><path clip-path="url(#clip050)" d="M209.321 459.092 Q209.321 457.378 209.46 456.868 Q209.645 456.359 210.386 455.571 L228.59 435.284 Q238.548 424.075 238.548 414.301 Q238.548 407.956 235.213 403.416 Q231.925 398.877 225.857 398.877 Q221.688 398.877 218.168 401.425 Q214.648 403.972 213.026 408.511 Q213.304 408.419 214.277 408.419 Q216.639 408.419 217.936 409.901 Q219.28 411.383 219.28 413.375 Q219.28 415.922 217.612 417.173 Q215.991 418.377 214.37 418.377 Q213.721 418.377 212.841 418.238 Q212.007 418.099 210.664 416.803 Q209.321 415.459 209.321 413.097 Q209.321 406.473 214.323 401.193 Q219.372 395.913 227.061 395.913 Q235.769 395.913 241.466 401.1 Q247.21 406.242 247.21 414.301 Q247.21 417.127 246.33 419.721 Q245.496 422.268 244.338 424.26 Q243.226 426.252 240.169 429.448 Q237.112 432.644 234.657 434.913 Q232.202 437.183 226.691 442 L216.639 451.773 L233.731 451.773 Q242.068 451.773 242.717 451.032 Q243.643 449.689 244.801 442.602 L247.21 442.602 L244.523 459.092 L209.321 459.092 Z" fill="#000000" fill-rule="nonzero" fill-opacity="1"></path><path clip-path="url(#clip050)" d="M261.522 457.563 Q260.086 456.035 260.086 454.043 Q260.086 452.051 261.522 450.615 Q262.958 449.133 265.135 449.133 Q267.219 449.133 268.609 450.523 Q270.045 451.866 270.045 454.089 Q270.045 456.266 268.516 457.702 Q267.034 459.092 265.135 459.092 Q262.958 459.092 261.522 457.563 Z" fill="#000000" fill-rule="nonzero" fill-opacity="1"></path><path clip-path="url(#clip050)" d="M282.088 428.753 Q282.088 414.811 285.608 407.215 Q290.518 395.913 302.098 395.913 Q304.552 395.913 307.1 396.608 Q309.694 397.256 312.936 399.804 Q316.225 402.351 318.216 406.52 Q322.015 414.579 322.015 428.753 Q322.015 442.602 318.494 450.152 Q313.353 461.176 302.005 461.176 Q297.744 461.176 293.39 458.999 Q289.082 456.822 286.349 451.588 Q282.088 443.76 282.088 428.753 M289.962 427.595 Q289.962 441.907 290.981 447.605 Q292.139 453.765 295.289 456.451 Q298.485 459.092 302.005 459.092 Q305.803 459.092 308.953 456.266 Q312.149 453.394 313.121 447.234 Q314.187 441.166 314.14 427.595 Q314.14 414.394 313.214 409.114 Q311.963 402.953 308.628 400.498 Q305.34 397.997 302.005 397.997 Q300.754 397.997 299.411 398.368 Q298.114 398.738 296.215 399.804 Q294.316 400.869 292.834 403.509 Q291.398 406.149 290.703 410.133 Q289.962 415.274 289.962 427.595 Z" fill="#000000" fill-rule="nonzero" fill-opacity="1"></path><path clip-path="url(#clip050)" d="M210.34 242.725 Q210.34 241.012 210.479 240.502 Q210.664 239.993 211.405 239.205 L229.609 218.918 Q239.567 207.708 239.567 197.935 Q239.567 191.59 236.232 187.05 Q232.944 182.511 226.876 182.511 Q222.707 182.511 219.187 185.059 Q215.667 187.606 214.045 192.145 Q214.323 192.053 215.296 192.053 Q217.658 192.053 218.955 193.535 Q220.299 195.017 220.299 197.009 Q220.299 199.556 218.631 200.807 Q217.01 202.011 215.389 202.011 Q214.74 202.011 213.86 201.872 Q213.026 201.733 211.683 200.436 Q210.34 199.093 210.34 196.731 Q210.34 190.107 215.342 184.827 Q220.391 179.547 228.08 179.547 Q236.788 179.547 242.485 184.734 Q248.229 189.876 248.229 197.935 Q248.229 200.761 247.349 203.355 Q246.515 205.902 245.357 207.894 Q244.245 209.885 241.188 213.081 Q238.131 216.277 235.676 218.547 Q233.221 220.817 227.71 225.634 L217.658 235.407 L234.75 235.407 Q243.087 235.407 243.736 234.666 Q244.662 233.323 245.82 226.236 L248.229 226.236 L245.542 242.725 L210.34 242.725 Z" fill="#000000" fill-rule="nonzero" fill-opacity="1"></path><path clip-path="url(#clip050)" d="M262.541 241.197 Q261.105 239.668 261.105 237.677 Q261.105 235.685 262.541 234.249 Q263.977 232.767 266.154 232.767 Q268.238 232.767 269.628 234.157 Q271.064 235.5 271.064 237.723 Q271.064 239.9 269.535 241.336 Q268.053 242.725 266.154 242.725 Q263.977 242.725 262.541 241.197 Z" fill="#000000" fill-rule="nonzero" fill-opacity="1"></path><path clip-path="url(#clip050)" d="M284.126 227.44 Q284.126 224.615 285.654 223.549 Q287.183 222.438 288.804 222.438 Q290.981 222.438 292.232 223.827 Q293.529 225.171 293.529 227.07 Q293.529 228.969 292.232 230.358 Q290.981 231.702 288.804 231.702 Q287.739 231.702 287.183 231.516 Q288.433 235.87 292.232 239.02 Q296.076 242.17 301.125 242.17 Q307.471 242.17 311.269 236.009 Q313.538 232.026 313.538 222.994 Q313.538 215.027 311.824 211.043 Q309.184 204.976 303.765 204.976 Q296.076 204.976 291.537 211.599 Q290.981 212.433 290.333 212.479 Q289.406 212.479 289.175 211.97 Q288.989 211.414 288.989 209.978 L288.989 181.909 Q288.989 179.639 289.916 179.639 Q290.286 179.639 291.074 179.917 Q297.049 182.557 303.672 182.604 Q310.481 182.604 316.595 179.825 Q317.059 179.547 317.336 179.547 Q318.263 179.547 318.309 180.612 Q318.309 180.983 317.522 182.094 Q316.781 183.16 315.159 184.595 Q313.538 185.985 311.454 187.328 Q309.37 188.671 306.313 189.598 Q303.302 190.478 299.967 190.478 Q295.983 190.478 291.907 189.227 L291.907 207.708 Q296.817 202.891 303.95 202.891 Q311.547 202.891 316.781 209.005 Q322.015 215.119 322.015 223.642 Q322.015 232.582 315.808 238.696 Q309.647 244.81 301.31 244.81 Q293.714 244.81 288.897 239.391 Q284.126 233.971 284.126 227.44 Z" fill="#000000" fill-rule="nonzero" fill-opacity="1"></path><path clip-path="url(#clip050)" d="M180.293 1104.09 L83.1364 1104.09 Q79.2644 1104.09 79.2644 1102 Q79.2644 1099.91 82.3722 1099.91 L179.529 1099.91 Q183.401 1099.91 183.401 1102 Q183.401 1104.09 180.293 1104.09 Z" fill="#000000" fill-rule="nonzero" fill-opacity="1"></path><path clip-path="url(#clip050)" d="M118.605 1002.02 Q119.132 1001.56 119.659 1001.56 Q120.186 1001.56 121.708 1002.73 Q123.23 1003.84 125.28 1006.24 Q127.329 1008.64 129.262 1011.74 Q131.194 1014.85 132.482 1019.42 Q133.829 1023.98 133.829 1028.78 Q133.829 1037.74 127.915 1043.01 Q122.001 1048.23 113.51 1048.23 Q105.254 1048.23 97.3486 1043.6 Q89.385 1038.97 84.4663 1031.48 Q79.489 1023.98 79.489 1016.08 Q79.489 1009.81 82.4168 1005.89 Q85.3446 1001.97 89.7949 1001.97 Q93.2497 1001.97 95.3577 1003.96 Q97.4657 1005.95 97.4657 1008.64 Q97.4657 1010.52 96.4117 1011.8 Q95.2992 1013.09 93.2497 1013.09 Q90.6147 1013.09 88.5652 1010.93 Q87.7454 1010.11 87.3941 1009.17 Q86.9842 1008.17 86.9842 1007.59 Q86.9256 1007 86.9256 1005.66 Q84.642 1006.88 83.4123 1009.81 Q82.124 1012.68 82.124 1015.96 Q82.124 1020.82 85.5203 1025.45 Q88.858 1030.07 94.128 1032.88 Q99.281 1035.69 106.6 1037.51 Q113.861 1039.32 118.077 1039.32 Q123.875 1039.32 127.505 1036.63 Q131.136 1033.94 131.136 1028.55 Q131.136 1027.5 131.077 1026.38 Q131.018 1025.21 130.374 1022.28 Q129.73 1019.3 128.618 1016.66 Q127.505 1014.03 125.104 1010.69 Q122.645 1007.29 119.307 1004.6 Q118.077 1003.66 118.077 1003.02 Q118.077 1002.49 118.605 1002.02 Z" fill="#000000" fill-rule="nonzero" fill-opacity="1"></path><path clip-path="url(#clip050)" d="M143.349 945.356 Q149.334 945.356 155.113 948.389 Q160.893 951.381 164.459 956.095 Q167.984 960.809 167.984 965.605 Q167.984 968.474 166.426 970.4 Q164.828 972.286 162.573 973.311 Q165.361 974.089 172.042 975.77 Q178.723 977.45 179.379 977.45 Q179.748 977.45 179.912 977.369 Q180.076 977.287 180.281 976.918 Q180.527 976.549 180.609 975.647 Q180.732 974.745 180.732 973.229 Q180.732 972.45 180.732 972.163 Q180.773 971.835 180.978 971.548 Q181.182 971.22 181.633 971.22 Q183.314 971.22 183.314 972.737 Q183.314 974.089 183.191 976.877 Q183.068 979.664 183.068 981.058 Q183.068 982.246 183.191 984.624 Q183.314 987.001 183.314 988.108 Q183.314 989.214 182.33 989.214 Q181.756 989.214 181.387 989.05 Q181.059 988.927 180.896 988.6 Q180.773 988.272 180.732 987.985 Q180.732 987.739 180.732 987.247 Q180.732 985.361 180.404 984.542 Q180.117 983.722 179.502 983.435 Q178.928 983.107 177.288 982.738 L139.906 973.311 Q137.406 972.737 135.643 972.737 Q133.43 972.737 132.61 973.434 Q131.79 974.13 131.79 975.36 Q131.79 977.491 134.332 978.885 Q136.873 980.279 141.792 981.467 Q143.144 981.836 143.431 982.082 Q143.718 982.287 143.718 982.902 Q143.677 983.927 142.857 983.927 Q142.653 983.927 141.341 983.599 Q139.988 983.271 138.021 982.656 Q136.012 982 134.742 981.303 Q133.881 980.894 133.307 980.525 Q132.733 980.156 131.831 979.418 Q130.93 978.639 130.438 977.532 Q129.946 976.426 129.946 975.073 Q129.946 972.45 131.503 970.277 Q133.061 968.105 136.217 967.531 Q133.471 965.195 131.708 962.325 Q129.946 959.456 129.946 956.546 Q129.946 951.709 133.717 948.553 Q137.447 945.356 143.349 945.356 M139.66 951.422 Q135.93 951.422 133.881 952.857 Q131.79 954.251 131.79 956.792 Q131.79 959.948 134.988 963.596 Q138.021 967.203 140.849 967.941 L157.286 972.081 L158.638 972.327 Q158.884 972.327 159.622 972.204 Q160.319 972.04 161.467 971.589 Q162.614 971.097 163.639 970.441 Q164.623 969.745 165.361 968.515 Q166.098 967.244 166.098 965.687 Q166.098 963.186 163.885 960.481 Q161.672 957.735 157.491 955.685 Q154.785 954.415 148.965 952.939 Q143.103 951.422 139.66 951.422 Z" fill="#000000" fill-rule="nonzero" fill-opacity="1"></path><path clip-path="url(#clip050)" d="M167.041 940.341 Q165.525 940.341 165.074 940.218 Q164.623 940.054 163.926 939.399 L145.973 923.29 Q136.053 914.477 127.405 914.477 Q121.789 914.477 117.772 917.428 Q113.755 920.339 113.755 925.708 Q113.755 929.397 116.01 932.512 Q118.264 935.628 122.281 937.062 Q122.199 936.816 122.199 935.956 Q122.199 933.865 123.511 932.717 Q124.822 931.529 126.585 931.529 Q128.839 931.529 129.946 933.004 Q131.012 934.439 131.012 935.874 Q131.012 936.447 130.889 937.226 Q130.766 937.964 129.618 939.153 Q128.429 940.341 126.339 940.341 Q120.477 940.341 115.805 935.915 Q111.132 931.447 111.132 924.642 Q111.132 916.937 115.723 911.895 Q120.272 906.812 127.405 906.812 Q129.905 906.812 132.2 907.591 Q134.455 908.329 136.217 909.353 Q137.98 910.337 140.808 913.043 Q143.636 915.748 145.645 917.92 Q147.653 920.093 151.916 924.97 L160.565 933.865 L160.565 918.74 Q160.565 911.362 159.909 910.788 Q158.72 909.968 152.449 908.944 L152.449 906.812 L167.041 909.19 L167.041 940.341 Z" fill="#000000" fill-rule="nonzero" fill-opacity="1"></path><path clip-path="url(#clip050)" d="M180.293 873.168 L83.1364 873.168 Q79.2644 873.168 79.2644 871.079 Q79.2644 868.99 82.3722 868.99 L179.529 868.99 Q183.401 868.99 183.401 871.079 Q183.401 873.168 180.293 873.168 Z" fill="#000000" fill-rule="nonzero" fill-opacity="1"></path><path clip-path="url(#clip050)" d="M74.5631 735.042 Q54.0116 735.042 37.4398 727.38 Q30.4903 724.113 24.6694 719.539 Q18.8485 714.966 16.2944 711.937 Q13.7403 708.907 13.7403 708.076 Q13.7403 706.888 14.9283 706.828 Q15.5222 706.828 17.0072 708.432 Q36.9646 728.033 74.5631 727.974 Q112.28 727.974 131.466 708.907 Q133.545 706.828 134.198 706.828 Q135.386 706.828 135.386 708.076 Q135.386 708.907 132.951 711.818 Q130.515 714.728 124.932 719.242 Q119.349 723.757 112.518 727.023 Q95.9461 735.042 74.5631 735.042 Z" fill="#000000" fill-rule="nonzero" fill-opacity="1"></path><path clip-path="url(#clip050)" d="M130.667 618.442 Q131.37 619.027 131.37 620.081 Q131.37 621.077 130.667 621.779 L105.839 646.607 L130.667 671.435 Q131.37 672.138 131.37 673.192 Q131.37 674.187 130.667 674.831 Q130.023 675.534 129.027 675.534 Q128.032 675.534 127.329 674.831 L102.502 650.003 L77.6738 674.831 Q76.9711 675.534 75.9757 675.534 Q74.9216 675.534 74.3361 674.831 Q73.6334 674.187 73.6334 673.192 Q73.6334 672.138 74.3361 671.435 L99.1639 646.607 L74.3361 621.779 Q73.6334 621.077 73.6334 620.081 Q73.6334 619.027 74.3361 618.442 Q74.9216 617.739 75.9757 617.739 Q76.9711 617.739 77.6738 618.442 L102.502 643.269 L127.329 618.442 Q128.032 617.739 129.086 617.739 Q130.081 617.739 130.667 618.442 Z" fill="#000000" fill-rule="nonzero" fill-opacity="1"></path><path clip-path="url(#clip050)" d="M64.0302 572.298 L60.2826 572.298 Q60.2826 557.893 52.6118 550.457 Q52.6118 548.407 53.0802 548.056 Q53.5487 547.705 55.7152 547.705 L122.996 547.705 Q126.568 547.705 127.681 545.948 Q128.793 544.191 128.793 536.52 L128.793 532.714 L132.482 532.714 Q132.131 536.93 132.131 552.155 Q132.131 567.38 132.482 571.537 L128.793 571.537 L128.793 567.731 Q128.793 560.177 127.739 558.362 Q126.627 556.547 122.996 556.547 L60.8682 556.547 Q64.0302 562.812 64.0302 572.298 Z" fill="#000000" fill-rule="nonzero" fill-opacity="1"></path><path clip-path="url(#clip050)" d="M94.128 512.908 Q76.5027 512.908 66.8995 508.457 Q52.6118 502.25 52.6118 487.611 Q52.6118 484.508 53.4901 481.287 Q54.3099 478.008 57.5305 473.909 Q60.7511 469.752 66.0211 467.234 Q76.2099 462.432 94.128 462.432 Q111.636 462.432 121.181 466.882 Q135.117 473.382 135.117 487.728 Q135.117 493.116 132.365 498.62 Q129.613 504.066 122.996 507.52 Q113.1 512.908 94.128 512.908 M92.6641 502.953 Q110.758 502.953 117.96 501.665 Q125.748 500.201 129.145 496.219 Q132.482 492.179 132.482 487.728 Q132.482 482.927 128.91 478.945 Q125.28 474.905 117.492 473.675 Q109.821 472.328 92.6641 472.387 Q75.9757 472.387 69.3003 473.558 Q61.5123 475.139 58.4088 479.355 Q55.2468 483.512 55.2468 487.728 Q55.2468 489.309 55.7152 491.008 Q56.1837 492.647 57.5305 495.048 Q58.8773 497.449 62.215 499.323 Q65.5527 501.138 70.5885 502.016 Q77.0882 502.953 92.6641 502.953 Z" fill="#000000" fill-rule="nonzero" fill-opacity="1"></path><path clip-path="url(#clip050)" d="M47.8066 394.706 Q48.2984 394.214 48.9953 394.214 Q49.6921 394.214 50.184 394.706 Q50.6758 395.198 50.6758 395.894 L50.6758 448.443 Q50.6758 449.139 50.184 449.631 Q49.6921 450.123 48.9953 450.123 Q48.2984 450.123 47.8066 449.631 Q47.3147 449.139 47.3147 448.443 L47.3147 395.894 Q47.3147 395.198 47.8066 394.706 Z" fill="#000000" fill-rule="nonzero" fill-opacity="1"></path><path clip-path="url(#clip050)" d="M69.9818 385.449 Q68.4652 385.449 68.0143 385.326 Q67.5634 385.162 66.8666 384.506 L48.9133 368.397 Q38.9939 359.585 30.3451 359.585 Q24.7296 359.585 20.7127 362.536 Q16.6957 365.446 16.6957 370.816 Q16.6957 374.505 18.9501 377.62 Q21.2045 380.735 25.2215 382.17 Q25.1395 381.924 25.1395 381.063 Q25.1395 378.973 26.4512 377.825 Q27.7628 376.636 29.5254 376.636 Q31.7798 376.636 32.8865 378.112 Q33.9522 379.546 33.9522 380.981 Q33.9522 381.555 33.8292 382.334 Q33.7063 383.072 32.5586 384.26 Q31.3699 385.449 29.2794 385.449 Q23.418 385.449 18.7452 381.022 Q14.0724 376.554 14.0724 369.75 Q14.0724 362.044 18.6632 357.002 Q23.213 351.92 30.3451 351.92 Q32.8455 351.92 35.1409 352.698 Q37.3953 353.436 39.1578 354.461 Q40.9204 355.445 43.7486 358.15 Q46.5769 360.855 48.5854 363.028 Q50.5938 365.2 54.8567 370.078 L63.5055 378.973 L63.5055 363.848 Q63.5055 356.469 62.8496 355.896 Q61.661 355.076 55.3896 354.051 L55.3896 351.92 L69.9818 354.297 L69.9818 385.449 Z" fill="#000000" fill-rule="nonzero" fill-opacity="1"></path><path clip-path="url(#clip050)" d="M134.198 318.275 Q133.604 318.275 132.119 316.731 Q112.162 297.13 74.5631 297.13 Q36.8458 297.13 17.7793 315.959 Q15.5816 318.275 14.9283 318.275 Q13.7403 318.275 13.7403 317.088 Q13.7403 316.256 16.1756 313.346 Q18.6109 310.376 24.1942 305.921 Q29.7776 301.407 36.6083 298.08 Q53.1801 290.062 74.5631 290.062 Q95.1145 290.062 111.686 297.724 Q118.636 300.991 124.457 305.564 Q130.278 310.138 132.832 313.167 Q135.386 316.197 135.386 317.088 Q135.386 318.275 134.198 318.275 Z" fill="#000000" fill-rule="nonzero" fill-opacity="1"></path><polyline clip-path="url(#clip052)" style="stroke:#e31a1c; stroke-linecap:round; stroke-linejoin:round; stroke-width:16; stroke-opacity:1; fill:none" points="416.312,1292.16 443.982,1221.67 471.652,1149.37 499.323,1074.73 526.993,998.944 554.663,924.222 582.334,852.803 610.004,786.283 637.674,725.467 665.345,670.522 693.015,621.211 720.686,577.084 748.356,537.611 776.026,502.256 803.697,470.518 831.367,441.946 859.037,416.143 886.708,392.764 914.378,371.51 942.048,352.125 969.719,334.39 997.389,318.113 1025.06,303.132 1052.73,289.305 1080.4,276.51 1108.07,264.639 1135.74,253.599 1163.41,243.31 1191.08,233.699 1218.75,224.704 1246.42,216.269 1274.09,208.345 1301.76,200.887 1329.43,193.857 1357.1,187.219 1384.77,180.943 1412.44,175 1440.11,169.365 1467.79,164.014 1495.46,158.928 1523.13,154.088 1550.8,149.475 1578.47,145.076 1606.14,140.875 1633.81,136.859 1661.48,133.018 1689.15,129.339 1716.82,125.813 1744.49,122.431 1772.16,119.184 1799.83,116.064 1827.5,113.064 1855.17,110.177 1882.84,107.397 1910.51,104.719 1938.18,102.136 1965.85,99.6442 1993.52,97.2386 2021.19,94.9148 2048.86,92.6687 2076.53,90.4965 2104.2,88.3947 2131.87,86.3599 2159.54,84.389 "></polyline>
<polyline clip-path="url(#clip052)" style="stroke:#377db8; stroke-linecap:round; stroke-linejoin:round; stroke-width:16; stroke-opacity:1; fill:none" points="416.312,1292.16 443.982,1212.33 471.652,1139.01 499.323,1076.78 526.993,1026.56 554.663,985.774 582.334,950.322 610.004,916.804 637.674,883.458 665.345,849.929 693.015,816.597 720.686,784.039 748.356,752.751 776.026,723.067 803.697,695.161 831.367,669.09 859.037,644.826 886.708,622.295 914.378,601.392 942.048,582.002 969.719,564.008 997.389,547.293 1025.06,531.748 1052.73,517.272 1080.4,503.771 1108.07,491.16 1135.74,479.362 1163.41,468.306 1191.08,457.931 1218.75,448.178 1246.42,438.998 1274.09,430.343 1301.76,422.172 1329.43,414.447 1357.1,407.134 1384.77,400.203 1412.44,393.625 1440.11,387.374 1467.79,381.428 1495.46,375.766 1523.13,370.368 1550.8,365.217 1578.47,360.296 1606.14,355.591 1633.81,351.088 1661.48,346.775 1689.15,342.64 1716.82,338.673 1744.49,334.863 1772.16,331.202 1799.83,327.681 1827.5,324.293 1855.17,321.03 1882.84,317.885 1910.51,314.853 1938.18,311.927 1965.85,309.102 1993.52,306.374 2021.19,303.736 2048.86,301.185 2076.53,298.717 2104.2,296.327 2131.87,294.012 2159.54,291.769 "></polyline>
<polyline clip-path="url(#clip052)" style="stroke:#4dae49; stroke-linecap:round; stroke-linejoin:round; stroke-width:16; stroke-opacity:1; fill:none" points="416.312,1292.16 443.982,1263.12 471.652,1231.47 499.323,1195.65 526.993,1157.86 554.663,1122.35 582.334,1091.8 610.004,1066.34 637.674,1044.54 665.345,1024.76 693.015,1005.79 720.686,987.046 748.356,968.359 776.026,949.816 803.697,931.588 831.367,913.853 859.037,896.748 886.708,880.371 914.378,864.775 942.048,849.983 969.719,835.99 997.389,822.78 1025.06,810.32 1052.73,798.575 1080.4,787.505 1108.07,777.069 1135.74,767.227 1163.41,757.937 1191.08,749.164 1218.75,740.871 1246.42,733.025 1274.09,725.594 1301.76,718.551 1329.43,711.867 1357.1,705.52 1384.77,699.485 1412.44,693.741 1440.11,688.27 1467.79,683.054 1495.46,678.077 1523.13,673.322 1550.8,668.776 1578.47,664.427 1606.14,660.262 1633.81,656.27 1661.48,652.442 1689.15,648.767 1716.82,645.237 1744.49,641.843 1772.16,638.579 1799.83,635.437 1827.5,632.411 1855.17,629.494 1882.84,626.681 1910.51,623.966 1938.18,621.345 1965.85,618.813 1993.52,616.366 2021.19,613.998 2048.86,611.708 2076.53,609.49 2104.2,607.342 2131.87,605.261 2159.54,603.243 "></polyline>
<polyline clip-path="url(#clip052)" style="stroke:#974ea2; stroke-linecap:round; stroke-linejoin:round; stroke-width:16; stroke-opacity:1; fill:none" points="416.312,1292.16 443.982,1286.56 471.652,1272.23 499.323,1253.11 526.993,1230.82 554.663,1206.48 582.334,1182.41 610.004,1160.72 637.674,1142.27 665.345,1126.75 693.015,1113.39 720.686,1101.35 748.356,1090.02 776.026,1079.03 803.697,1068.22 831.367,1057.55 859.037,1047.04 886.708,1036.75 914.378,1026.73 942.048,1017.03 969.719,1007.67 997.389,998.698 1025.06,990.108 1052.73,981.906 1080.4,974.087 1108.07,966.642 1135.74,959.559 1163.41,952.823 1191.08,946.418 1218.75,940.326 1246.42,934.532 1274.09,929.019 1301.76,923.77 1329.43,918.771 1357.1,914.007 1384.77,909.463 1412.44,905.127 1440.11,900.987 1467.79,897.03 1495.46,893.247 1523.13,889.626 1550.8,886.159 1578.47,882.836 1606.14,879.65 1633.81,876.592 1661.48,873.656 1689.15,870.834 1716.82,868.121 1744.49,865.511 1772.16,862.999 1799.83,860.578 1827.5,858.245 1855.17,855.995 1882.84,853.823 1910.51,851.727 1938.18,849.701 1965.85,847.744 1993.52,845.851 2021.19,844.019 2048.86,842.246 2076.53,840.529 2104.2,838.866 2131.87,837.253 2159.54,835.689 "></polyline>
<polyline clip-path="url(#clip052)" style="stroke:#ff7e00; stroke-linecap:round; stroke-linejoin:round; stroke-width:16; stroke-opacity:1; fill:none" points="416.312,1292.16 443.982,1291.21 471.652,1285.88 499.323,1275.88 526.993,1262.98 554.663,1247.99 582.334,1231.53 610.004,1214.94 637.674,1199.65 665.345,1186.42 693.015,1175.33 720.686,1166.05 748.356,1158.11 776.026,1151.07 803.697,1144.6 831.367,1138.48 859.037,1132.57 886.708,1126.81 914.378,1121.17 942.048,1115.64 969.719,1110.24 997.389,1104.98 1025.06,1099.86 1052.73,1094.91 1080.4,1090.13 1108.07,1085.52 1135.74,1081.09 1163.41,1076.83 1191.08,1072.74 1218.75,1068.83 1246.42,1065.08 1274.09,1061.48 1301.76,1058.04 1329.43,1054.75 1357.1,1051.59 1384.77,1048.57 1412.44,1045.68 1440.11,1042.9 1467.79,1040.24 1495.46,1037.69 1523.13,1035.25 1550.8,1032.9 1578.47,1030.64 1606.14,1028.47 1633.81,1026.39 1661.48,1024.39 1689.15,1022.46 1716.82,1020.6 1744.49,1018.81 1772.16,1017.09 1799.83,1015.42 1827.5,1013.82 1855.17,1012.27 1882.84,1010.77 1910.51,1009.33 1938.18,1007.93 1965.85,1006.58 1993.52,1005.27 2021.19,1004.01 2048.86,1002.78 2076.53,1001.59 2104.2,1000.44 2131.87,999.323 2159.54,998.239 "></polyline>
<path clip-path="url(#clip052)" d="M416.312 1264.16 L388.312 1292.16 L416.312 1320.16 L444.312 1292.16 L416.312 1264.16 Z" fill="#e31a1c" fill-rule="evenodd" fill-opacity="1" stroke="#000000" stroke-opacity="1" stroke-width="0"></path>
<path clip-path="url(#clip052)" d="M499.323 1046.78 L471.323 1074.78 L499.323 1102.78 L527.323 1074.78 L499.323 1046.78 Z" fill="#e31a1c" fill-rule="evenodd" fill-opacity="1" stroke="#000000" stroke-opacity="1" stroke-width="0"></path>
<path clip-path="url(#clip052)" d="M582.334 825.037 L554.334 853.037 L582.334 881.037 L610.334 853.037 L582.334 825.037 Z" fill="#e31a1c" fill-rule="evenodd" fill-opacity="1" stroke="#000000" stroke-opacity="1" stroke-width="0"></path>
<path clip-path="url(#clip052)" d="M665.345 642.978 L637.345 670.978 L665.345 698.978 L693.345 670.978 L665.345 642.978 Z" fill="#e31a1c" fill-rule="evenodd" fill-opacity="1" stroke="#000000" stroke-opacity="1" stroke-width="0"></path>
<path clip-path="url(#clip052)" d="M748.356 510.23 L720.356 538.23 L748.356 566.23 L776.356 538.23 L748.356 510.23 Z" fill="#e31a1c" fill-rule="evenodd" fill-opacity="1" stroke="#000000" stroke-opacity="1" stroke-width="0"></path>
<path clip-path="url(#clip052)" d="M831.367 414.664 L803.367 442.664 L831.367 470.664 L859.367 442.664 L831.367 414.664 Z" fill="#e31a1c" fill-rule="evenodd" fill-opacity="1" stroke="#000000" stroke-opacity="1" stroke-width="0"></path>
<path clip-path="url(#clip052)" d="M914.378 344.272 L886.378 372.272 L914.378 400.272 L942.378 372.272 L914.378 344.272 Z" fill="#e31a1c" fill-rule="evenodd" fill-opacity="1" stroke="#000000" stroke-opacity="1" stroke-width="0"></path>
<path clip-path="url(#clip052)" d="M997.389 290.882 L969.389 318.882 L997.389 346.882 L1025.39 318.882 L997.389 290.882 Z" fill="#e31a1c" fill-rule="evenodd" fill-opacity="1" stroke="#000000" stroke-opacity="1" stroke-width="0"></path>
<path clip-path="url(#clip052)" d="M1080.4 249.256 L1052.4 277.256 L1080.4 305.256 L1108.4 277.256 L1080.4 249.256 Z" fill="#e31a1c" fill-rule="evenodd" fill-opacity="1" stroke="#000000" stroke-opacity="1" stroke-width="0"></path>
<path clip-path="url(#clip052)" d="M1163.41 216.014 L1135.41 244.014 L1163.41 272.014 L1191.41 244.014 L1163.41 216.014 Z" fill="#e31a1c" fill-rule="evenodd" fill-opacity="1" stroke="#000000" stroke-opacity="1" stroke-width="0"></path>
<path clip-path="url(#clip052)" d="M1246.42 188.915 L1218.42 216.915 L1246.42 244.915 L1274.42 216.915 L1246.42 188.915 Z" fill="#e31a1c" fill-rule="evenodd" fill-opacity="1" stroke="#000000" stroke-opacity="1" stroke-width="0"></path>
<path clip-path="url(#clip052)" d="M1329.43 166.432 L1301.43 194.432 L1329.43 222.432 L1357.43 194.432 L1329.43 166.432 Z" fill="#e31a1c" fill-rule="evenodd" fill-opacity="1" stroke="#000000" stroke-opacity="1" stroke-width="0"></path>
<path clip-path="url(#clip052)" d="M1412.44 147.496 L1384.44 175.496 L1412.44 203.496 L1440.44 175.496 L1412.44 147.496 Z" fill="#e31a1c" fill-rule="evenodd" fill-opacity="1" stroke="#000000" stroke-opacity="1" stroke-width="0"></path>
<path clip-path="url(#clip052)" d="M1495.46 131.337 L1467.46 159.337 L1495.46 187.337 L1523.46 159.337 L1495.46 131.337 Z" fill="#e31a1c" fill-rule="evenodd" fill-opacity="1" stroke="#000000" stroke-opacity="1" stroke-width="0"></path>
<path clip-path="url(#clip052)" d="M1578.47 117.389 L1550.47 145.389 L1578.47 173.389 L1606.47 145.389 L1578.47 117.389 Z" fill="#e31a1c" fill-rule="evenodd" fill-opacity="1" stroke="#000000" stroke-opacity="1" stroke-width="0"></path>
<path clip-path="url(#clip052)" d="M1661.48 105.222 L1633.48 133.222 L1661.48 161.222 L1689.48 133.222 L1661.48 105.222 Z" fill="#e31a1c" fill-rule="evenodd" fill-opacity="1" stroke="#000000" stroke-opacity="1" stroke-width="0"></path>
<path clip-path="url(#clip052)" d="M1744.49 94.4995 L1716.49 122.5 L1744.49 150.5 L1772.49 122.5 L1744.49 94.4995 Z" fill="#e31a1c" fill-rule="evenodd" fill-opacity="1" stroke="#000000" stroke-opacity="1" stroke-width="0"></path>
<path clip-path="url(#clip052)" d="M1827.5 84.9539 L1799.5 112.954 L1827.5 140.954 L1855.5 112.954 L1827.5 84.9539 Z" fill="#e31a1c" fill-rule="evenodd" fill-opacity="1" stroke="#000000" stroke-opacity="1" stroke-width="0"></path>
<path clip-path="url(#clip052)" d="M1910.51 76.38 L1882.51 104.38 L1910.51 132.38 L1938.51 104.38 L1910.51 76.38 Z" fill="#e31a1c" fill-rule="evenodd" fill-opacity="1" stroke="#000000" stroke-opacity="1" stroke-width="0"></path>
<path clip-path="url(#clip052)" d="M1993.52 68.64 L1965.52 96.64 L1993.52 124.64 L2021.52 96.64 L1993.52 68.64 Z" fill="#e31a1c" fill-rule="evenodd" fill-opacity="1" stroke="#000000" stroke-opacity="1" stroke-width="0"></path>
<path clip-path="url(#clip052)" d="M2076.53 61.6732 L2048.53 89.6732 L2076.53 117.673 L2104.53 89.6732 L2076.53 61.6732 Z" fill="#e31a1c" fill-rule="evenodd" fill-opacity="1" stroke="#000000" stroke-opacity="1" stroke-width="0"></path>
<path clip-path="url(#clip052)" d="M2159.54 55.5037 L2131.54 83.5037 L2159.54 111.504 L2187.54 83.5037 L2159.54 55.5037 Z" fill="#e31a1c" fill-rule="evenodd" fill-opacity="1" stroke="#000000" stroke-opacity="1" stroke-width="0"></path>
<path clip-path="url(#clip052)" d="M416.312 1264.16 L388.312 1292.16 L416.312 1320.16 L444.312 1292.16 L416.312 1264.16 Z" fill="#377db8" fill-rule="evenodd" fill-opacity="1" stroke="#000000" stroke-opacity="1" stroke-width="0"></path>
<path clip-path="url(#clip052)" d="M499.323 1048.74 L471.323 1076.74 L499.323 1104.74 L527.323 1076.74 L499.323 1048.74 Z" fill="#377db8" fill-rule="evenodd" fill-opacity="1" stroke="#000000" stroke-opacity="1" stroke-width="0"></path>
<path clip-path="url(#clip052)" d="M582.334 922.101 L554.334 950.101 L582.334 978.101 L610.334 950.101 L582.334 922.101 Z" fill="#377db8" fill-rule="evenodd" fill-opacity="1" stroke="#000000" stroke-opacity="1" stroke-width="0"></path>
<path clip-path="url(#clip052)" d="M665.345 821.617 L637.345 849.617 L665.345 877.617 L693.345 849.617 L665.345 821.617 Z" fill="#377db8" fill-rule="evenodd" fill-opacity="1" stroke="#000000" stroke-opacity="1" stroke-width="0"></path>
<path clip-path="url(#clip052)" d="M748.356 724.487 L720.356 752.487 L748.356 780.487 L776.356 752.487 L748.356 724.487 Z" fill="#377db8" fill-rule="evenodd" fill-opacity="1" stroke="#000000" stroke-opacity="1" stroke-width="0"></path>
<path clip-path="url(#clip052)" d="M831.367 640.893 L803.367 668.893 L831.367 696.893 L859.367 668.893 L831.367 640.893 Z" fill="#377db8" fill-rule="evenodd" fill-opacity="1" stroke="#000000" stroke-opacity="1" stroke-width="0"></path>
<path clip-path="url(#clip052)" d="M914.378 573.232 L886.378 601.232 L914.378 629.232 L942.378 601.232 L914.378 573.232 Z" fill="#377db8" fill-rule="evenodd" fill-opacity="1" stroke="#000000" stroke-opacity="1" stroke-width="0"></path>
<path clip-path="url(#clip052)" d="M997.389 519.135 L969.389 547.135 L997.389 575.135 L1025.39 547.135 L997.389 519.135 Z" fill="#377db8" fill-rule="evenodd" fill-opacity="1" stroke="#000000" stroke-opacity="1" stroke-width="0"></path>
<path clip-path="url(#clip052)" d="M1080.4 475.586 L1052.4 503.586 L1080.4 531.586 L1108.4 503.586 L1080.4 475.586 Z" fill="#377db8" fill-rule="evenodd" fill-opacity="1" stroke="#000000" stroke-opacity="1" stroke-width="0"></path>
<path clip-path="url(#clip052)" d="M1163.41 440.07 L1135.41 468.07 L1163.41 496.07 L1191.41 468.07 L1163.41 440.07 Z" fill="#377db8" fill-rule="evenodd" fill-opacity="1" stroke="#000000" stroke-opacity="1" stroke-width="0"></path>
<path clip-path="url(#clip052)" d="M1246.42 410.692 L1218.42 438.692 L1246.42 466.692 L1274.42 438.692 L1246.42 410.692 Z" fill="#377db8" fill-rule="evenodd" fill-opacity="1" stroke="#000000" stroke-opacity="1" stroke-width="0"></path>
<path clip-path="url(#clip052)" d="M1329.43 386.057 L1301.43 414.057 L1329.43 442.057 L1357.43 414.057 L1329.43 386.057 Z" fill="#377db8" fill-rule="evenodd" fill-opacity="1" stroke="#000000" stroke-opacity="1" stroke-width="0"></path>
<path clip-path="url(#clip052)" d="M1412.44 365.139 L1384.44 393.139 L1412.44 421.139 L1440.44 393.139 L1412.44 365.139 Z" fill="#377db8" fill-rule="evenodd" fill-opacity="1" stroke="#000000" stroke-opacity="1" stroke-width="0"></path>
<path clip-path="url(#clip052)" d="M1495.46 347.178 L1467.46 375.178 L1495.46 403.178 L1523.46 375.178 L1495.46 347.178 Z" fill="#377db8" fill-rule="evenodd" fill-opacity="1" stroke="#000000" stroke-opacity="1" stroke-width="0"></path>
<path clip-path="url(#clip052)" d="M1578.47 331.613 L1550.47 359.613 L1578.47 387.613 L1606.47 359.613 L1578.47 331.613 Z" fill="#377db8" fill-rule="evenodd" fill-opacity="1" stroke="#000000" stroke-opacity="1" stroke-width="0"></path>
<path clip-path="url(#clip052)" d="M1661.48 318.042 L1633.48 346.042 L1661.48 374.042 L1689.48 346.042 L1661.48 318.042 Z" fill="#377db8" fill-rule="evenodd" fill-opacity="1" stroke="#000000" stroke-opacity="1" stroke-width="0"></path>
<path clip-path="url(#clip052)" d="M1744.49 306.183 L1716.49 334.183 L1744.49 362.183 L1772.49 334.183 L1744.49 306.183 Z" fill="#377db8" fill-rule="evenodd" fill-opacity="1" stroke="#000000" stroke-opacity="1" stroke-width="0"></path>
<path clip-path="url(#clip052)" d="M1827.5 295.82 L1799.5 323.82 L1827.5 351.82 L1855.5 323.82 L1827.5 295.82 Z" fill="#377db8" fill-rule="evenodd" fill-opacity="1" stroke="#000000" stroke-opacity="1" stroke-width="0"></path>
<path clip-path="url(#clip052)" d="M1910.51 286.738 L1882.51 314.738 L1910.51 342.738 L1938.51 314.738 L1910.51 286.738 Z" fill="#377db8" fill-rule="evenodd" fill-opacity="1" stroke="#000000" stroke-opacity="1" stroke-width="0"></path>
<path clip-path="url(#clip052)" d="M1993.52 278.666 L1965.52 306.666 L1993.52 334.666 L2021.52 306.666 L1993.52 278.666 Z" fill="#377db8" fill-rule="evenodd" fill-opacity="1" stroke="#000000" stroke-opacity="1" stroke-width="0"></path>
<path clip-path="url(#clip052)" d="M2076.53 271.272 L2048.53 299.272 L2076.53 327.272 L2104.53 299.272 L2076.53 271.272 Z" fill="#377db8" fill-rule="evenodd" fill-opacity="1" stroke="#000000" stroke-opacity="1" stroke-width="0"></path>
<path clip-path="url(#clip052)" d="M2159.54 264.192 L2131.54 292.192 L2159.54 320.192 L2187.54 292.192 L2159.54 264.192 Z" fill="#377db8" fill-rule="evenodd" fill-opacity="1" stroke="#000000" stroke-opacity="1" stroke-width="0"></path>
<path clip-path="url(#clip052)" d="M416.312 1264.16 L388.312 1292.16 L416.312 1320.16 L444.312 1292.16 L416.312 1264.16 Z" fill="#4dae49" fill-rule="evenodd" fill-opacity="1" stroke="#000000" stroke-opacity="1" stroke-width="0"></path>
<path clip-path="url(#clip052)" d="M499.323 1167.69 L471.323 1195.69 L499.323 1223.69 L527.323 1195.69 L499.323 1167.69 Z" fill="#4dae49" fill-rule="evenodd" fill-opacity="1" stroke="#000000" stroke-opacity="1" stroke-width="0"></path>
<path clip-path="url(#clip052)" d="M582.334 1063.94 L554.334 1091.94 L582.334 1119.94 L610.334 1091.94 L582.334 1063.94 Z" fill="#4dae49" fill-rule="evenodd" fill-opacity="1" stroke="#000000" stroke-opacity="1" stroke-width="0"></path>
<path clip-path="url(#clip052)" d="M665.345 996.943 L637.345 1024.94 L665.345 1052.94 L693.345 1024.94 L665.345 996.943 Z" fill="#4dae49" fill-rule="evenodd" fill-opacity="1" stroke="#000000" stroke-opacity="1" stroke-width="0"></path>
<path clip-path="url(#clip052)" d="M748.356 940.728 L720.356 968.728 L748.356 996.728 L776.356 968.728 L748.356 940.728 Z" fill="#4dae49" fill-rule="evenodd" fill-opacity="1" stroke="#000000" stroke-opacity="1" stroke-width="0"></path>
<path clip-path="url(#clip052)" d="M831.367 886.516 L803.367 914.516 L831.367 942.516 L859.367 914.516 L831.367 886.516 Z" fill="#4dae49" fill-rule="evenodd" fill-opacity="1" stroke="#000000" stroke-opacity="1" stroke-width="0"></path>
<path clip-path="url(#clip052)" d="M914.378 837.759 L886.378 865.759 L914.378 893.759 L942.378 865.759 L914.378 837.759 Z" fill="#4dae49" fill-rule="evenodd" fill-opacity="1" stroke="#000000" stroke-opacity="1" stroke-width="0"></path>
<path clip-path="url(#clip052)" d="M997.389 796.072 L969.389 824.072 L997.389 852.072 L1025.39 824.072 L997.389 796.072 Z" fill="#4dae49" fill-rule="evenodd" fill-opacity="1" stroke="#000000" stroke-opacity="1" stroke-width="0"></path>
<path clip-path="url(#clip052)" d="M1080.4 761.085 L1052.4 789.085 L1080.4 817.085 L1108.4 789.085 L1080.4 761.085 Z" fill="#4dae49" fill-rule="evenodd" fill-opacity="1" stroke="#000000" stroke-opacity="1" stroke-width="0"></path>
<path clip-path="url(#clip052)" d="M1163.41 731.784 L1135.41 759.784 L1163.41 787.784 L1191.41 759.784 L1163.41 731.784 Z" fill="#4dae49" fill-rule="evenodd" fill-opacity="1" stroke="#000000" stroke-opacity="1" stroke-width="0"></path>
<path clip-path="url(#clip052)" d="M1246.42 707.12 L1218.42 735.12 L1246.42 763.12 L1274.42 735.12 L1246.42 707.12 Z" fill="#4dae49" fill-rule="evenodd" fill-opacity="1" stroke="#000000" stroke-opacity="1" stroke-width="0"></path>
<path clip-path="url(#clip052)" d="M1329.43 686.196 L1301.43 714.196 L1329.43 742.196 L1357.43 714.196 L1329.43 686.196 Z" fill="#4dae49" fill-rule="evenodd" fill-opacity="1" stroke="#000000" stroke-opacity="1" stroke-width="0"></path>
<path clip-path="url(#clip052)" d="M1412.44 668.291 L1384.44 696.291 L1412.44 724.291 L1440.44 696.291 L1412.44 668.291 Z" fill="#4dae49" fill-rule="evenodd" fill-opacity="1" stroke="#000000" stroke-opacity="1" stroke-width="0"></path>
<path clip-path="url(#clip052)" d="M1495.46 652.827 L1467.46 680.827 L1495.46 708.827 L1523.46 680.827 L1495.46 652.827 Z" fill="#4dae49" fill-rule="evenodd" fill-opacity="1" stroke="#000000" stroke-opacity="1" stroke-width="0"></path>
<path clip-path="url(#clip052)" d="M1578.47 639.318 L1550.47 667.318 L1578.47 695.318 L1606.47 667.318 L1578.47 639.318 Z" fill="#4dae49" fill-rule="evenodd" fill-opacity="1" stroke="#000000" stroke-opacity="1" stroke-width="0"></path>
<path clip-path="url(#clip052)" d="M1661.48 627.342 L1633.48 655.342 L1661.48 683.342 L1689.48 655.342 L1661.48 627.342 Z" fill="#4dae49" fill-rule="evenodd" fill-opacity="1" stroke="#000000" stroke-opacity="1" stroke-width="0"></path>
<path clip-path="url(#clip052)" d="M1744.49 616.566 L1716.49 644.566 L1744.49 672.566 L1772.49 644.566 L1744.49 616.566 Z" fill="#4dae49" fill-rule="evenodd" fill-opacity="1" stroke="#000000" stroke-opacity="1" stroke-width="0"></path>
<path clip-path="url(#clip052)" d="M1827.5 606.806 L1799.5 634.806 L1827.5 662.806 L1855.5 634.806 L1827.5 606.806 Z" fill="#4dae49" fill-rule="evenodd" fill-opacity="1" stroke="#000000" stroke-opacity="1" stroke-width="0"></path>
<path clip-path="url(#clip052)" d="M1910.51 598.017 L1882.51 626.017 L1910.51 654.017 L1938.51 626.017 L1910.51 598.017 Z" fill="#4dae49" fill-rule="evenodd" fill-opacity="1" stroke="#000000" stroke-opacity="1" stroke-width="0"></path>
<path clip-path="url(#clip052)" d="M1993.52 590.219 L1965.52 618.219 L1993.52 646.219 L2021.52 618.219 L1993.52 590.219 Z" fill="#4dae49" fill-rule="evenodd" fill-opacity="1" stroke="#000000" stroke-opacity="1" stroke-width="0"></path>
<path clip-path="url(#clip052)" d="M2076.53 583.378 L2048.53 611.378 L2076.53 639.378 L2104.53 611.378 L2076.53 583.378 Z" fill="#4dae49" fill-rule="evenodd" fill-opacity="1" stroke="#000000" stroke-opacity="1" stroke-width="0"></path>
<path clip-path="url(#clip052)" d="M2159.54 577.338 L2131.54 605.338 L2159.54 633.338 L2187.54 605.338 L2159.54 577.338 Z" fill="#4dae49" fill-rule="evenodd" fill-opacity="1" stroke="#000000" stroke-opacity="1" stroke-width="0"></path>
<path clip-path="url(#clip052)" d="M416.312 1264.16 L388.312 1292.16 L416.312 1320.16 L444.312 1292.16 L416.312 1264.16 Z" fill="#974ea2" fill-rule="evenodd" fill-opacity="1" stroke="#000000" stroke-opacity="1" stroke-width="0"></path>
<path clip-path="url(#clip052)" d="M499.323 1225.21 L471.323 1253.21 L499.323 1281.21 L527.323 1253.21 L499.323 1225.21 Z" fill="#974ea2" fill-rule="evenodd" fill-opacity="1" stroke="#000000" stroke-opacity="1" stroke-width="0"></path>
<path clip-path="url(#clip052)" d="M582.334 1154.72 L554.334 1182.72 L582.334 1210.72 L610.334 1182.72 L582.334 1154.72 Z" fill="#974ea2" fill-rule="evenodd" fill-opacity="1" stroke="#000000" stroke-opacity="1" stroke-width="0"></path>
<path clip-path="url(#clip052)" d="M665.345 1099.25 L637.345 1127.25 L665.345 1155.25 L693.345 1127.25 L665.345 1099.25 Z" fill="#974ea2" fill-rule="evenodd" fill-opacity="1" stroke="#000000" stroke-opacity="1" stroke-width="0"></path>
<path clip-path="url(#clip052)" d="M748.356 1062.7 L720.356 1090.7 L748.356 1118.7 L776.356 1090.7 L748.356 1062.7 Z" fill="#974ea2" fill-rule="evenodd" fill-opacity="1" stroke="#000000" stroke-opacity="1" stroke-width="0"></path>
<path clip-path="url(#clip052)" d="M831.367 1030.53 L803.367 1058.53 L831.367 1086.53 L859.367 1058.53 L831.367 1030.53 Z" fill="#974ea2" fill-rule="evenodd" fill-opacity="1" stroke="#000000" stroke-opacity="1" stroke-width="0"></path>
<path clip-path="url(#clip052)" d="M914.378 1000.07 L886.378 1028.07 L914.378 1056.07 L942.378 1028.07 L914.378 1000.07 Z" fill="#974ea2" fill-rule="evenodd" fill-opacity="1" stroke="#000000" stroke-opacity="1" stroke-width="0"></path>
<path clip-path="url(#clip052)" d="M997.389 972.416 L969.389 1000.42 L997.389 1028.42 L1025.39 1000.42 L997.389 972.416 Z" fill="#974ea2" fill-rule="evenodd" fill-opacity="1" stroke="#000000" stroke-opacity="1" stroke-width="0"></path>
<path clip-path="url(#clip052)" d="M1080.4 948.181 L1052.4 976.181 L1080.4 1004.18 L1108.4 976.181 L1080.4 948.181 Z" fill="#974ea2" fill-rule="evenodd" fill-opacity="1" stroke="#000000" stroke-opacity="1" stroke-width="0"></path>
<path clip-path="url(#clip052)" d="M1163.41 927.282 L1135.41 955.282 L1163.41 983.282 L1191.41 955.282 L1163.41 927.282 Z" fill="#974ea2" fill-rule="evenodd" fill-opacity="1" stroke="#000000" stroke-opacity="1" stroke-width="0"></path>
<path clip-path="url(#clip052)" d="M1246.42 909.343 L1218.42 937.343 L1246.42 965.343 L1274.42 937.343 L1246.42 909.343 Z" fill="#974ea2" fill-rule="evenodd" fill-opacity="1" stroke="#000000" stroke-opacity="1" stroke-width="0"></path>
<path clip-path="url(#clip052)" d="M1329.43 893.922 L1301.43 921.922 L1329.43 949.922 L1357.43 921.922 L1329.43 893.922 Z" fill="#974ea2" fill-rule="evenodd" fill-opacity="1" stroke="#000000" stroke-opacity="1" stroke-width="0"></path>
<path clip-path="url(#clip052)" d="M1412.44 880.611 L1384.44 908.611 L1412.44 936.611 L1440.44 908.611 L1412.44 880.611 Z" fill="#974ea2" fill-rule="evenodd" fill-opacity="1" stroke="#000000" stroke-opacity="1" stroke-width="0"></path>
<path clip-path="url(#clip052)" d="M1495.46 869.084 L1467.46 897.084 L1495.46 925.084 L1523.46 897.084 L1495.46 869.084 Z" fill="#974ea2" fill-rule="evenodd" fill-opacity="1" stroke="#000000" stroke-opacity="1" stroke-width="0"></path>
<path clip-path="url(#clip052)" d="M1578.47 859.114 L1550.47 887.114 L1578.47 915.114 L1606.47 887.114 L1578.47 859.114 Z" fill="#974ea2" fill-rule="evenodd" fill-opacity="1" stroke="#000000" stroke-opacity="1" stroke-width="0"></path>
<path clip-path="url(#clip052)" d="M1661.48 850.495 L1633.48 878.495 L1661.48 906.495 L1689.48 878.495 L1661.48 850.495 Z" fill="#974ea2" fill-rule="evenodd" fill-opacity="1" stroke="#000000" stroke-opacity="1" stroke-width="0"></path>
<path clip-path="url(#clip052)" d="M1744.49 842.958 L1716.49 870.958 L1744.49 898.958 L1772.49 870.958 L1744.49 842.958 Z" fill="#974ea2" fill-rule="evenodd" fill-opacity="1" stroke="#000000" stroke-opacity="1" stroke-width="0"></path>
<path clip-path="url(#clip052)" d="M1827.5 836.194 L1799.5 864.194 L1827.5 892.194 L1855.5 864.194 L1827.5 836.194 Z" fill="#974ea2" fill-rule="evenodd" fill-opacity="1" stroke="#000000" stroke-opacity="1" stroke-width="0"></path>
<path clip-path="url(#clip052)" d="M1910.51 830.002 L1882.51 858.002 L1910.51 886.002 L1938.51 858.002 L1910.51 830.002 Z" fill="#974ea2" fill-rule="evenodd" fill-opacity="1" stroke="#000000" stroke-opacity="1" stroke-width="0"></path>
<path clip-path="url(#clip052)" d="M1993.52 824.379 L1965.52 852.379 L1993.52 880.379 L2021.52 852.379 L1993.52 824.379 Z" fill="#974ea2" fill-rule="evenodd" fill-opacity="1" stroke="#000000" stroke-opacity="1" stroke-width="0"></path>
<path clip-path="url(#clip052)" d="M2076.53 819.474 L2048.53 847.474 L2076.53 875.474 L2104.53 847.474 L2076.53 819.474 Z" fill="#974ea2" fill-rule="evenodd" fill-opacity="1" stroke="#000000" stroke-opacity="1" stroke-width="0"></path>
<path clip-path="url(#clip052)" d="M2159.54 815.445 L2131.54 843.445 L2159.54 871.445 L2187.54 843.445 L2159.54 815.445 Z" fill="#974ea2" fill-rule="evenodd" fill-opacity="1" stroke="#000000" stroke-opacity="1" stroke-width="0"></path>
<path clip-path="url(#clip052)" d="M416.312 1264.16 L388.312 1292.16 L416.312 1320.16 L444.312 1292.16 L416.312 1264.16 Z" fill="#ff7e00" fill-rule="evenodd" fill-opacity="1" stroke="#000000" stroke-opacity="1" stroke-width="0"></path>
<path clip-path="url(#clip052)" d="M499.323 1247.93 L471.323 1275.93 L499.323 1303.93 L527.323 1275.93 L499.323 1247.93 Z" fill="#ff7e00" fill-rule="evenodd" fill-opacity="1" stroke="#000000" stroke-opacity="1" stroke-width="0"></path>
<path clip-path="url(#clip052)" d="M582.334 1203.72 L554.334 1231.72 L582.334 1259.72 L610.334 1231.72 L582.334 1203.72 Z" fill="#ff7e00" fill-rule="evenodd" fill-opacity="1" stroke="#000000" stroke-opacity="1" stroke-width="0"></path>
<path clip-path="url(#clip052)" d="M665.345 1158.77 L637.345 1186.77 L665.345 1214.77 L693.345 1186.77 L665.345 1158.77 Z" fill="#ff7e00" fill-rule="evenodd" fill-opacity="1" stroke="#000000" stroke-opacity="1" stroke-width="0"></path>
<path clip-path="url(#clip052)" d="M748.356 1130.56 L720.356 1158.56 L748.356 1186.56 L776.356 1158.56 L748.356 1130.56 Z" fill="#ff7e00" fill-rule="evenodd" fill-opacity="1" stroke="#000000" stroke-opacity="1" stroke-width="0"></path>
<path clip-path="url(#clip052)" d="M831.367 1111.07 L803.367 1139.07 L831.367 1167.07 L859.367 1139.07 L831.367 1111.07 Z" fill="#ff7e00" fill-rule="evenodd" fill-opacity="1" stroke="#000000" stroke-opacity="1" stroke-width="0"></path>
<path clip-path="url(#clip052)" d="M914.378 1093.96 L886.378 1121.96 L914.378 1149.96 L942.378 1121.96 L914.378 1093.96 Z" fill="#ff7e00" fill-rule="evenodd" fill-opacity="1" stroke="#000000" stroke-opacity="1" stroke-width="0"></path>
<path clip-path="url(#clip052)" d="M997.389 1078.01 L969.389 1106.01 L997.389 1134.01 L1025.39 1106.01 L997.389 1078.01 Z" fill="#ff7e00" fill-rule="evenodd" fill-opacity="1" stroke="#000000" stroke-opacity="1" stroke-width="0"></path>
<path clip-path="url(#clip052)" d="M1080.4 1063.42 L1052.4 1091.42 L1080.4 1119.42 L1108.4 1091.42 L1080.4 1063.42 Z" fill="#ff7e00" fill-rule="evenodd" fill-opacity="1" stroke="#000000" stroke-opacity="1" stroke-width="0"></path>
<path clip-path="url(#clip052)" d="M1163.41 1050.38 L1135.41 1078.38 L1163.41 1106.38 L1191.41 1078.38 L1163.41 1050.38 Z" fill="#ff7e00" fill-rule="evenodd" fill-opacity="1" stroke="#000000" stroke-opacity="1" stroke-width="0"></path>
<path clip-path="url(#clip052)" d="M1246.42 1038.88 L1218.42 1066.88 L1246.42 1094.88 L1274.42 1066.88 L1246.42 1038.88 Z" fill="#ff7e00" fill-rule="evenodd" fill-opacity="1" stroke="#000000" stroke-opacity="1" stroke-width="0"></path>
<path clip-path="url(#clip052)" d="M1329.43 1028.79 L1301.43 1056.79 L1329.43 1084.79 L1357.43 1056.79 L1329.43 1028.79 Z" fill="#ff7e00" fill-rule="evenodd" fill-opacity="1" stroke="#000000" stroke-opacity="1" stroke-width="0"></path>
<path clip-path="url(#clip052)" d="M1412.44 1019.96 L1384.44 1047.96 L1412.44 1075.96 L1440.44 1047.96 L1412.44 1019.96 Z" fill="#ff7e00" fill-rule="evenodd" fill-opacity="1" stroke="#000000" stroke-opacity="1" stroke-width="0"></path>
<path clip-path="url(#clip052)" d="M1495.46 1012.16 L1467.46 1040.16 L1495.46 1068.16 L1523.46 1040.16 L1495.46 1012.16 Z" fill="#ff7e00" fill-rule="evenodd" fill-opacity="1" stroke="#000000" stroke-opacity="1" stroke-width="0"></path>
<path clip-path="url(#clip052)" d="M1578.47 1005.23 L1550.47 1033.23 L1578.47 1061.23 L1606.47 1033.23 L1578.47 1005.23 Z" fill="#ff7e00" fill-rule="evenodd" fill-opacity="1" stroke="#000000" stroke-opacity="1" stroke-width="0"></path>
<path clip-path="url(#clip052)" d="M1661.48 999.119 L1633.48 1027.12 L1661.48 1055.12 L1689.48 1027.12 L1661.48 999.119 Z" fill="#ff7e00" fill-rule="evenodd" fill-opacity="1" stroke="#000000" stroke-opacity="1" stroke-width="0"></path>
<path clip-path="url(#clip052)" d="M1744.49 993.848 L1716.49 1021.85 L1744.49 1049.85 L1772.49 1021.85 L1744.49 993.848 Z" fill="#ff7e00" fill-rule="evenodd" fill-opacity="1" stroke="#000000" stroke-opacity="1" stroke-width="0"></path>
<path clip-path="url(#clip052)" d="M1827.5 989.313 L1799.5 1017.31 L1827.5 1045.31 L1855.5 1017.31 L1827.5 989.313 Z" fill="#ff7e00" fill-rule="evenodd" fill-opacity="1" stroke="#000000" stroke-opacity="1" stroke-width="0"></path>
<path clip-path="url(#clip052)" d="M1910.51 985.255 L1882.51 1013.25 L1910.51 1041.25 L1938.51 1013.25 L1910.51 985.255 Z" fill="#ff7e00" fill-rule="evenodd" fill-opacity="1" stroke="#000000" stroke-opacity="1" stroke-width="0"></path>
<path clip-path="url(#clip052)" d="M1993.52 981.441 L1965.52 1009.44 L1993.52 1037.44 L2021.52 1009.44 L1993.52 981.441 Z" fill="#ff7e00" fill-rule="evenodd" fill-opacity="1" stroke="#000000" stroke-opacity="1" stroke-width="0"></path>
<path clip-path="url(#clip052)" d="M2076.53 977.868 L2048.53 1005.87 L2076.53 1033.87 L2104.53 1005.87 L2076.53 977.868 Z" fill="#ff7e00" fill-rule="evenodd" fill-opacity="1" stroke="#000000" stroke-opacity="1" stroke-width="0"></path>
<path clip-path="url(#clip052)" d="M2159.54 974.775 L2131.54 1002.78 L2159.54 1030.78 L2187.54 1002.78 L2159.54 974.775 Z" fill="#ff7e00" fill-rule="evenodd" fill-opacity="1" stroke="#000000" stroke-opacity="1" stroke-width="0"></path>
<path clip-path="url(#clip050)" d="M2291.47 989.736 L2752.76 989.736 L2752.76 367.656 L2291.47 367.656  Z" fill="#ffffff" fill-rule="evenodd" fill-opacity="1"></path>
<polyline clip-path="url(#clip050)" style="stroke:#000000; stroke-linecap:round; stroke-linejoin:round; stroke-width:4; stroke-opacity:1; fill:none" points="2291.47,989.736 2752.76,989.736 2752.76,367.656 2291.47,367.656 2291.47,989.736 "></polyline>
<polyline clip-path="url(#clip050)" style="stroke:#e31a1c; stroke-linecap:round; stroke-linejoin:round; stroke-width:32; stroke-opacity:1; fill:none" points="2318.01,471.336 2477.26,471.336 "></polyline>
<path clip-path="url(#clip050)" d="M2553.92 466.69 Q2553.92 473.53 2550.46 480.135 Q2547.04 486.74 2541.65 490.815 Q2536.26 494.844 2530.78 494.844 Q2527.5 494.844 2525.3 493.064 Q2523.15 491.237 2521.97 488.661 Q2521.08 491.846 2519.16 499.482 Q2517.24 507.117 2517.24 507.867 Q2517.24 508.289 2517.34 508.476 Q2517.43 508.663 2517.85 508.898 Q2518.27 509.179 2519.3 509.272 Q2520.33 509.413 2522.07 509.413 Q2522.96 509.413 2523.29 509.413 Q2523.66 509.46 2523.99 509.694 Q2524.36 509.928 2524.36 510.443 Q2524.36 512.364 2522.63 512.364 Q2521.08 512.364 2517.9 512.224 Q2514.71 512.083 2513.12 512.083 Q2511.76 512.083 2509.05 512.224 Q2506.33 512.364 2505.06 512.364 Q2503.8 512.364 2503.8 511.24 Q2503.8 510.584 2503.99 510.162 Q2504.13 509.788 2504.5 509.6 Q2504.88 509.46 2505.2 509.413 Q2505.48 509.413 2506.05 509.413 Q2508.2 509.413 2509.14 509.038 Q2510.08 508.71 2510.4 508.007 Q2510.78 507.352 2511.2 505.478 L2521.97 462.755 Q2522.63 459.898 2522.63 457.883 Q2522.63 455.354 2521.83 454.417 Q2521.04 453.48 2519.63 453.48 Q2517.2 453.48 2515.6 456.384 Q2514.01 459.289 2512.65 464.91 Q2512.23 466.456 2511.95 466.784 Q2511.72 467.112 2511.01 467.112 Q2509.84 467.065 2509.84 466.128 Q2509.84 465.894 2510.22 464.395 Q2510.59 462.849 2511.29 460.6 Q2512.04 458.305 2512.84 456.853 Q2513.31 455.869 2513.73 455.213 Q2514.15 454.557 2514.99 453.527 Q2515.88 452.496 2517.15 451.934 Q2518.41 451.372 2519.96 451.372 Q2522.96 451.372 2525.44 453.152 Q2527.92 454.932 2528.58 458.539 Q2531.25 455.401 2534.53 453.386 Q2537.81 451.372 2541.13 451.372 Q2546.66 451.372 2550.27 455.682 Q2553.92 459.945 2553.92 466.69 M2546.99 462.474 Q2546.99 458.211 2545.35 455.869 Q2543.76 453.48 2540.85 453.48 Q2537.25 453.48 2533.08 457.134 Q2528.95 460.6 2528.11 463.833 L2523.38 482.618 L2523.1 484.163 Q2523.1 484.444 2523.24 485.288 Q2523.43 486.084 2523.94 487.396 Q2524.5 488.707 2525.25 489.879 Q2526.05 491.003 2527.46 491.846 Q2528.91 492.689 2530.69 492.689 Q2533.55 492.689 2536.64 490.16 Q2539.78 487.63 2542.12 482.852 Q2543.57 479.76 2545.26 473.108 Q2546.99 466.409 2546.99 462.474 Z" fill="#000000" fill-rule="nonzero" fill-opacity="1"></path><path clip-path="url(#clip050)" d="M2578.19 479.198 Q2578.29 478.027 2580.12 478.027 L2638.91 478.027 Q2641.67 478.027 2641.72 479.104 Q2641.72 480.275 2639.09 480.228 L2580.77 480.228 Q2578.19 480.275 2578.19 479.198 M2578.19 460.46 Q2578.19 459.289 2580.21 459.336 L2638.81 459.336 Q2641.67 459.336 2641.72 460.46 Q2641.72 461.537 2639.28 461.537 L2580.12 461.537 Q2578.19 461.537 2578.19 460.46 Z" fill="#000000" fill-rule="nonzero" fill-opacity="1"></path><path clip-path="url(#clip050)" d="M2678.71 463.083 Q2678.71 448.983 2682.27 441.3 Q2687.23 429.87 2698.95 429.87 Q2701.43 429.87 2704.01 430.573 Q2706.63 431.229 2709.91 433.805 Q2713.23 436.382 2715.25 440.598 Q2719.09 448.749 2719.09 463.083 Q2719.09 477.09 2715.53 484.726 Q2710.33 495.875 2698.85 495.875 Q2694.54 495.875 2690.14 493.673 Q2685.78 491.471 2683.02 486.178 Q2678.71 478.261 2678.71 463.083 M2686.67 461.912 Q2686.67 476.387 2687.7 482.149 Q2688.87 488.379 2692.06 491.096 Q2695.29 493.767 2698.85 493.767 Q2702.69 493.767 2705.88 490.909 Q2709.11 488.005 2710.1 481.774 Q2711.17 475.638 2711.13 461.912 Q2711.13 448.561 2710.19 443.221 Q2708.92 436.991 2705.55 434.508 Q2702.23 431.978 2698.85 431.978 Q2697.59 431.978 2696.23 432.353 Q2694.92 432.728 2693 433.805 Q2691.08 434.883 2689.58 437.553 Q2688.12 440.223 2687.42 444.252 Q2686.67 449.451 2686.67 461.912 Z" fill="#000000" fill-rule="nonzero" fill-opacity="1"></path><polyline clip-path="url(#clip050)" style="stroke:#377db8; stroke-linecap:round; stroke-linejoin:round; stroke-width:32; stroke-opacity:1; fill:none" points="2318.01,575.016 2477.26,575.016 "></polyline>
<path clip-path="url(#clip050)" d="M2553.92 570.37 Q2553.92 577.21 2550.46 583.815 Q2547.04 590.42 2541.65 594.495 Q2536.26 598.524 2530.78 598.524 Q2527.5 598.524 2525.3 596.744 Q2523.15 594.917 2521.97 592.341 Q2521.08 595.526 2519.16 603.162 Q2517.24 610.797 2517.24 611.547 Q2517.24 611.969 2517.34 612.156 Q2517.43 612.343 2517.85 612.578 Q2518.27 612.859 2519.3 612.952 Q2520.33 613.093 2522.07 613.093 Q2522.96 613.093 2523.29 613.093 Q2523.66 613.14 2523.99 613.374 Q2524.36 613.608 2524.36 614.123 Q2524.36 616.044 2522.63 616.044 Q2521.08 616.044 2517.9 615.904 Q2514.71 615.763 2513.12 615.763 Q2511.76 615.763 2509.05 615.904 Q2506.33 616.044 2505.06 616.044 Q2503.8 616.044 2503.8 614.92 Q2503.8 614.264 2503.99 613.842 Q2504.13 613.468 2504.5 613.28 Q2504.88 613.14 2505.2 613.093 Q2505.48 613.093 2506.05 613.093 Q2508.2 613.093 2509.14 612.718 Q2510.08 612.39 2510.4 611.687 Q2510.78 611.032 2511.2 609.158 L2521.97 566.435 Q2522.63 563.578 2522.63 561.563 Q2522.63 559.034 2521.83 558.097 Q2521.04 557.16 2519.63 557.16 Q2517.2 557.16 2515.6 560.064 Q2514.01 562.969 2512.65 568.59 Q2512.23 570.136 2511.95 570.464 Q2511.72 570.792 2511.01 570.792 Q2509.84 570.745 2509.84 569.808 Q2509.84 569.574 2510.22 568.075 Q2510.59 566.529 2511.29 564.28 Q2512.04 561.985 2512.84 560.533 Q2513.31 559.549 2513.73 558.893 Q2514.15 558.237 2514.99 557.207 Q2515.88 556.176 2517.15 555.614 Q2518.41 555.052 2519.96 555.052 Q2522.96 555.052 2525.44 556.832 Q2527.92 558.612 2528.58 562.219 Q2531.25 559.081 2534.53 557.066 Q2537.81 555.052 2541.13 555.052 Q2546.66 555.052 2550.27 559.362 Q2553.92 563.625 2553.92 570.37 M2546.99 566.154 Q2546.99 561.891 2545.35 559.549 Q2543.76 557.16 2540.85 557.16 Q2537.25 557.16 2533.08 560.814 Q2528.95 564.28 2528.11 567.513 L2523.38 586.298 L2523.1 587.843 Q2523.1 588.124 2523.24 588.968 Q2523.43 589.764 2523.94 591.076 Q2524.5 592.387 2525.25 593.559 Q2526.05 594.683 2527.46 595.526 Q2528.91 596.369 2530.69 596.369 Q2533.55 596.369 2536.64 593.84 Q2539.78 591.31 2542.12 586.532 Q2543.57 583.44 2545.26 576.788 Q2546.99 570.089 2546.99 566.154 Z" fill="#000000" fill-rule="nonzero" fill-opacity="1"></path><path clip-path="url(#clip050)" d="M2578.19 582.878 Q2578.29 581.707 2580.12 581.707 L2638.91 581.707 Q2641.67 581.707 2641.72 582.784 Q2641.72 583.955 2639.09 583.908 L2580.77 583.908 Q2578.19 583.955 2578.19 582.878 M2578.19 564.14 Q2578.19 562.969 2580.21 563.016 L2638.81 563.016 Q2641.67 563.016 2641.72 564.14 Q2641.72 565.217 2639.28 565.217 L2580.12 565.217 Q2578.19 565.217 2578.19 564.14 Z" fill="#000000" fill-rule="nonzero" fill-opacity="1"></path><path clip-path="url(#clip050)" d="M2678.71 542.685 L2678.71 539.687 Q2690.23 539.687 2696.18 533.55 Q2697.82 533.55 2698.1 533.925 Q2698.38 534.3 2698.38 536.033 L2698.38 589.858 Q2698.38 592.715 2699.79 593.605 Q2701.19 594.495 2707.33 594.495 L2710.38 594.495 L2710.38 597.447 Q2707 597.166 2694.82 597.166 Q2682.64 597.166 2679.32 597.447 L2679.32 594.495 L2682.36 594.495 Q2688.41 594.495 2689.86 593.652 Q2691.31 592.762 2691.31 589.858 L2691.31 540.155 Q2686.3 542.685 2678.71 542.685 Z" fill="#000000" fill-rule="nonzero" fill-opacity="1"></path><polyline clip-path="url(#clip050)" style="stroke:#4dae49; stroke-linecap:round; stroke-linejoin:round; stroke-width:32; stroke-opacity:1; fill:none" points="2318.01,678.696 2477.26,678.696 "></polyline>
<path clip-path="url(#clip050)" d="M2553.92 674.05 Q2553.92 680.89 2550.46 687.495 Q2547.04 694.1 2541.65 698.175 Q2536.26 702.204 2530.78 702.204 Q2527.5 702.204 2525.3 700.424 Q2523.15 698.597 2521.97 696.021 Q2521.08 699.206 2519.16 706.842 Q2517.24 714.477 2517.24 715.227 Q2517.24 715.649 2517.34 715.836 Q2517.43 716.023 2517.85 716.258 Q2518.27 716.539 2519.3 716.632 Q2520.33 716.773 2522.07 716.773 Q2522.96 716.773 2523.29 716.773 Q2523.66 716.82 2523.99 717.054 Q2524.36 717.288 2524.36 717.803 Q2524.36 719.724 2522.63 719.724 Q2521.08 719.724 2517.9 719.584 Q2514.71 719.443 2513.12 719.443 Q2511.76 719.443 2509.05 719.584 Q2506.33 719.724 2505.06 719.724 Q2503.8 719.724 2503.8 718.6 Q2503.8 717.944 2503.99 717.522 Q2504.13 717.148 2504.5 716.96 Q2504.88 716.82 2505.2 716.773 Q2505.48 716.773 2506.05 716.773 Q2508.2 716.773 2509.14 716.398 Q2510.08 716.07 2510.4 715.367 Q2510.78 714.712 2511.2 712.838 L2521.97 670.115 Q2522.63 667.258 2522.63 665.243 Q2522.63 662.714 2521.83 661.777 Q2521.04 660.84 2519.63 660.84 Q2517.2 660.84 2515.6 663.744 Q2514.01 666.649 2512.65 672.27 Q2512.23 673.816 2511.95 674.144 Q2511.72 674.472 2511.01 674.472 Q2509.84 674.425 2509.84 673.488 Q2509.84 673.254 2510.22 671.755 Q2510.59 670.209 2511.29 667.96 Q2512.04 665.665 2512.84 664.213 Q2513.31 663.229 2513.73 662.573 Q2514.15 661.917 2514.99 660.887 Q2515.88 659.856 2517.15 659.294 Q2518.41 658.732 2519.96 658.732 Q2522.96 658.732 2525.44 660.512 Q2527.92 662.292 2528.58 665.899 Q2531.25 662.761 2534.53 660.746 Q2537.81 658.732 2541.13 658.732 Q2546.66 658.732 2550.27 663.042 Q2553.92 667.305 2553.92 674.05 M2546.99 669.834 Q2546.99 665.571 2545.35 663.229 Q2543.76 660.84 2540.85 660.84 Q2537.25 660.84 2533.08 664.494 Q2528.95 667.96 2528.11 671.193 L2523.38 689.978 L2523.1 691.523 Q2523.1 691.804 2523.24 692.648 Q2523.43 693.444 2523.94 694.756 Q2524.5 696.067 2525.25 697.239 Q2526.05 698.363 2527.46 699.206 Q2528.91 700.049 2530.69 700.049 Q2533.55 700.049 2536.64 697.52 Q2539.78 694.99 2542.12 690.212 Q2543.57 687.12 2545.26 680.468 Q2546.99 673.769 2546.99 669.834 Z" fill="#000000" fill-rule="nonzero" fill-opacity="1"></path><path clip-path="url(#clip050)" d="M2578.19 686.558 Q2578.29 685.387 2580.12 685.387 L2638.91 685.387 Q2641.67 685.387 2641.72 686.464 Q2641.72 687.635 2639.09 687.588 L2580.77 687.588 Q2578.19 687.635 2578.19 686.558 M2578.19 667.82 Q2578.19 666.649 2580.21 666.696 L2638.81 666.696 Q2641.67 666.696 2641.72 667.82 Q2641.72 668.897 2639.28 668.897 L2580.12 668.897 Q2578.19 668.897 2578.19 667.82 Z" fill="#000000" fill-rule="nonzero" fill-opacity="1"></path><path clip-path="url(#clip050)" d="M2678.71 701.127 Q2678.71 699.393 2678.85 698.878 Q2679.04 698.363 2679.79 697.566 L2698.2 677.048 Q2708.27 665.712 2708.27 655.828 Q2708.27 649.41 2704.9 644.819 Q2701.57 640.228 2695.43 640.228 Q2691.22 640.228 2687.66 642.805 Q2684.1 645.381 2682.46 649.972 Q2682.74 649.878 2683.72 649.878 Q2686.11 649.878 2687.42 651.377 Q2688.78 652.876 2688.78 654.891 Q2688.78 657.467 2687.09 658.732 Q2685.45 659.95 2683.82 659.95 Q2683.16 659.95 2682.27 659.809 Q2681.43 659.669 2680.07 658.357 Q2678.71 656.999 2678.71 654.61 Q2678.71 647.911 2683.77 642.571 Q2688.87 637.23 2696.65 637.23 Q2705.46 637.23 2711.22 642.477 Q2717.03 647.677 2717.03 655.828 Q2717.03 658.685 2716.14 661.308 Q2715.29 663.885 2714.12 665.899 Q2713 667.914 2709.91 671.146 Q2706.82 674.378 2704.33 676.674 Q2701.85 678.969 2696.28 683.841 L2686.11 693.725 L2703.4 693.725 Q2711.83 693.725 2712.48 692.976 Q2713.42 691.617 2714.59 684.45 L2717.03 684.45 L2714.31 701.127 L2678.71 701.127 Z" fill="#000000" fill-rule="nonzero" fill-opacity="1"></path><polyline clip-path="url(#clip050)" style="stroke:#974ea2; stroke-linecap:round; stroke-linejoin:round; stroke-width:32; stroke-opacity:1; fill:none" points="2318.01,782.376 2477.26,782.376 "></polyline>
<path clip-path="url(#clip050)" d="M2553.92 777.73 Q2553.92 784.57 2550.46 791.175 Q2547.04 797.78 2541.65 801.855 Q2536.26 805.884 2530.78 805.884 Q2527.5 805.884 2525.3 804.104 Q2523.15 802.277 2521.97 799.701 Q2521.08 802.886 2519.16 810.522 Q2517.24 818.157 2517.24 818.907 Q2517.24 819.329 2517.34 819.516 Q2517.43 819.703 2517.85 819.938 Q2518.27 820.219 2519.3 820.312 Q2520.33 820.453 2522.07 820.453 Q2522.96 820.453 2523.29 820.453 Q2523.66 820.5 2523.99 820.734 Q2524.36 820.968 2524.36 821.483 Q2524.36 823.404 2522.63 823.404 Q2521.08 823.404 2517.9 823.264 Q2514.71 823.123 2513.12 823.123 Q2511.76 823.123 2509.05 823.264 Q2506.33 823.404 2505.06 823.404 Q2503.8 823.404 2503.8 822.28 Q2503.8 821.624 2503.99 821.202 Q2504.13 820.828 2504.5 820.64 Q2504.88 820.5 2505.2 820.453 Q2505.48 820.453 2506.05 820.453 Q2508.2 820.453 2509.14 820.078 Q2510.08 819.75 2510.4 819.047 Q2510.78 818.392 2511.2 816.518 L2521.97 773.795 Q2522.63 770.938 2522.63 768.923 Q2522.63 766.394 2521.83 765.457 Q2521.04 764.52 2519.63 764.52 Q2517.2 764.52 2515.6 767.424 Q2514.01 770.329 2512.65 775.95 Q2512.23 777.496 2511.95 777.824 Q2511.72 778.152 2511.01 778.152 Q2509.84 778.105 2509.84 777.168 Q2509.84 776.934 2510.22 775.435 Q2510.59 773.889 2511.29 771.64 Q2512.04 769.345 2512.84 767.893 Q2513.31 766.909 2513.73 766.253 Q2514.15 765.597 2514.99 764.567 Q2515.88 763.536 2517.15 762.974 Q2518.41 762.412 2519.96 762.412 Q2522.96 762.412 2525.44 764.192 Q2527.92 765.972 2528.58 769.579 Q2531.25 766.441 2534.53 764.426 Q2537.81 762.412 2541.13 762.412 Q2546.66 762.412 2550.27 766.722 Q2553.92 770.985 2553.92 777.73 M2546.99 773.514 Q2546.99 769.251 2545.35 766.909 Q2543.76 764.52 2540.85 764.52 Q2537.25 764.52 2533.08 768.174 Q2528.95 771.64 2528.11 774.873 L2523.38 793.658 L2523.1 795.203 Q2523.1 795.484 2523.24 796.328 Q2523.43 797.124 2523.94 798.436 Q2524.5 799.747 2525.25 800.919 Q2526.05 802.043 2527.46 802.886 Q2528.91 803.729 2530.69 803.729 Q2533.55 803.729 2536.64 801.2 Q2539.78 798.67 2542.12 793.892 Q2543.57 790.8 2545.26 784.148 Q2546.99 777.449 2546.99 773.514 Z" fill="#000000" fill-rule="nonzero" fill-opacity="1"></path><path clip-path="url(#clip050)" d="M2578.19 790.238 Q2578.29 789.067 2580.12 789.067 L2638.91 789.067 Q2641.67 789.067 2641.72 790.144 Q2641.72 791.315 2639.09 791.268 L2580.77 791.268 Q2578.19 791.315 2578.19 790.238 M2578.19 771.5 Q2578.19 770.329 2580.21 770.376 L2638.81 770.376 Q2641.67 770.376 2641.72 771.5 Q2641.72 772.577 2639.28 772.577 L2580.12 772.577 Q2578.19 772.577 2578.19 771.5 Z" fill="#000000" fill-rule="nonzero" fill-opacity="1"></path><path clip-path="url(#clip050)" d="M2678.71 791.877 Q2678.71 789.02 2680.35 787.661 Q2681.99 786.303 2684.1 786.303 Q2686.3 786.303 2687.84 787.755 Q2689.44 789.16 2689.44 791.643 Q2689.44 794.313 2687.56 795.812 Q2685.74 797.311 2683.11 796.937 Q2685.41 800.778 2689.62 802.511 Q2693.89 804.244 2697.82 804.244 Q2701.94 804.244 2705.27 800.684 Q2708.64 797.124 2708.64 788.411 Q2708.64 781.009 2705.74 776.747 Q2702.88 772.484 2697.21 772.484 L2693 772.484 Q2691.54 772.484 2691.12 772.343 Q2690.7 772.203 2690.7 771.406 Q2690.7 770.469 2692.15 770.282 Q2693.61 770.282 2695.9 770.001 Q2701.48 769.814 2704.43 764.988 Q2707.1 760.491 2707.1 754.074 Q2707.1 748.218 2704.29 745.782 Q2701.52 743.299 2697.92 743.299 Q2694.54 743.299 2690.84 744.705 Q2687.14 746.11 2685.13 749.249 Q2691.08 749.249 2691.08 754.074 Q2691.08 756.182 2689.72 757.587 Q2688.41 758.945 2686.2 758.945 Q2684.1 758.945 2682.69 757.634 Q2681.29 756.275 2681.29 753.98 Q2681.29 748.499 2686.16 744.705 Q2691.08 740.91 2698.29 740.91 Q2705.41 740.91 2710.66 744.658 Q2715.95 748.405 2715.95 754.167 Q2715.95 759.836 2712.2 764.473 Q2708.46 769.111 2702.51 771.031 Q2709.81 772.484 2714.17 777.449 Q2718.53 782.368 2718.53 788.411 Q2718.53 795.906 2712.62 801.434 Q2706.72 806.915 2698.1 806.915 Q2690.14 806.915 2684.42 802.605 Q2678.71 798.295 2678.71 791.877 Z" fill="#000000" fill-rule="nonzero" fill-opacity="1"></path><polyline clip-path="url(#clip050)" style="stroke:#ff7e00; stroke-linecap:round; stroke-linejoin:round; stroke-width:32; stroke-opacity:1; fill:none" points="2318.01,886.056 2477.26,886.056 "></polyline>
<path clip-path="url(#clip050)" d="M2553.92 881.948 Q2553.92 888.787 2550.46 895.393 Q2547.04 901.998 2541.65 906.073 Q2536.26 910.102 2530.78 910.102 Q2527.5 910.102 2525.3 908.322 Q2523.15 906.495 2521.97 903.918 Q2521.08 907.104 2519.16 914.739 Q2517.24 922.375 2517.24 923.125 Q2517.24 923.546 2517.34 923.734 Q2517.43 923.921 2517.85 924.155 Q2518.27 924.436 2519.3 924.53 Q2520.33 924.671 2522.07 924.671 Q2522.96 924.671 2523.29 924.671 Q2523.66 924.717 2523.99 924.952 Q2524.36 925.186 2524.36 925.701 Q2524.36 927.622 2522.63 927.622 Q2521.08 927.622 2517.9 927.481 Q2514.71 927.341 2513.12 927.341 Q2511.76 927.341 2509.05 927.481 Q2506.33 927.622 2505.06 927.622 Q2503.8 927.622 2503.8 926.498 Q2503.8 925.842 2503.99 925.42 Q2504.13 925.045 2504.5 924.858 Q2504.88 924.717 2505.2 924.671 Q2505.48 924.671 2506.05 924.671 Q2508.2 924.671 2509.14 924.296 Q2510.08 923.968 2510.4 923.265 Q2510.78 922.609 2511.2 920.736 L2521.97 878.013 Q2522.63 875.156 2522.63 873.141 Q2522.63 870.612 2521.83 869.675 Q2521.04 868.738 2519.63 868.738 Q2517.2 868.738 2515.6 871.642 Q2514.01 874.547 2512.65 880.168 Q2512.23 881.714 2511.95 882.042 Q2511.72 882.37 2511.01 882.37 Q2509.84 882.323 2509.84 881.386 Q2509.84 881.152 2510.22 879.653 Q2510.59 878.107 2511.29 875.858 Q2512.04 873.563 2512.84 872.111 Q2513.31 871.127 2513.73 870.471 Q2514.15 869.815 2514.99 868.785 Q2515.88 867.754 2517.15 867.192 Q2518.41 866.63 2519.96 866.63 Q2522.96 866.63 2525.44 868.41 Q2527.92 870.19 2528.58 873.797 Q2531.25 870.658 2534.53 868.644 Q2537.81 866.63 2541.13 866.63 Q2546.66 866.63 2550.27 870.939 Q2553.92 875.202 2553.92 881.948 M2546.99 877.732 Q2546.99 873.469 2545.35 871.127 Q2543.76 868.738 2540.85 868.738 Q2537.25 868.738 2533.08 872.392 Q2528.95 875.858 2528.11 879.091 L2523.38 897.875 L2523.1 899.421 Q2523.1 899.702 2523.24 900.545 Q2523.43 901.342 2523.94 902.653 Q2524.5 903.965 2525.25 905.136 Q2526.05 906.261 2527.46 907.104 Q2528.91 907.947 2530.69 907.947 Q2533.55 907.947 2536.64 905.417 Q2539.78 902.888 2542.12 898.11 Q2543.57 895.018 2545.26 888.366 Q2546.99 881.667 2546.99 877.732 Z" fill="#000000" fill-rule="nonzero" fill-opacity="1"></path><path clip-path="url(#clip050)" d="M2578.19 894.456 Q2578.29 893.285 2580.12 893.285 L2638.91 893.285 Q2641.67 893.285 2641.72 894.362 Q2641.72 895.533 2639.09 895.486 L2580.77 895.486 Q2578.19 895.533 2578.19 894.456 M2578.19 875.718 Q2578.19 874.547 2580.21 874.593 L2638.81 874.593 Q2641.67 874.593 2641.72 875.718 Q2641.72 876.795 2639.28 876.795 L2580.12 876.795 Q2578.19 876.795 2578.19 875.718 Z" fill="#000000" fill-rule="nonzero" fill-opacity="1"></path><path clip-path="url(#clip050)" d="M2678.71 893.191 L2678.71 890.24 L2708.17 845.222 Q2708.92 844.051 2710.1 844.097 Q2711.17 844.097 2711.41 844.519 Q2711.64 844.941 2711.64 846.58 L2711.64 890.24 L2721.24 890.24 L2721.24 893.191 L2711.64 893.191 L2711.64 901.529 Q2711.64 904.293 2712.77 905.183 Q2713.94 906.073 2718.9 906.073 L2720.92 906.073 L2720.92 909.024 Q2716.98 908.743 2707.89 908.743 Q2698.85 908.743 2694.92 909.024 L2694.92 906.073 L2696.93 906.073 Q2701.9 906.073 2703.07 905.23 Q2704.24 904.34 2704.24 901.529 L2704.24 893.191 L2678.71 893.191 M2681.43 890.24 L2704.8 890.24 L2704.8 854.45 L2681.43 890.24 Z" fill="#000000" fill-rule="nonzero" fill-opacity="1"></path><path clip-path="url(#clip050)" d="M578.992 239.161 Q578.992 220.927 585.79 206.223 Q588.689 200.057 592.747 194.893 Q596.805 189.728 599.492 187.462 Q602.18 185.196 602.918 185.196 Q603.972 185.196 604.025 186.25 Q604.025 186.777 602.602 188.094 Q585.211 205.802 585.263 239.161 Q585.263 272.626 602.18 289.648 Q604.025 291.493 604.025 292.072 Q604.025 293.126 602.918 293.126 Q602.18 293.126 599.598 290.966 Q597.015 288.805 593.01 283.851 Q589.005 278.897 586.106 272.837 Q578.992 258.133 578.992 239.161 Z" fill="#000000" fill-rule="nonzero" fill-opacity="1"></path><path clip-path="url(#clip050)" d="M654.123 235.683 Q654.123 243.272 650.276 250.703 Q646.482 258.081 640.368 262.718 Q634.308 267.356 628.089 267.356 Q622.028 267.356 618.181 262.718 Q614.387 258.028 614.387 250.386 Q614.387 247.699 614.703 245.801 Q615.019 243.904 616.126 239.477 L624.98 204.273 Q626.508 197.686 626.508 197.633 Q626.508 197.001 626.245 196.685 Q626.034 196.316 624.769 196.052 Q623.504 195.789 621.08 195.789 Q620.079 195.789 619.604 195.736 Q619.183 195.683 618.814 195.42 Q618.498 195.104 618.498 194.471 Q618.498 193.575 618.866 193.101 Q619.288 192.574 619.604 192.469 Q619.92 192.363 620.553 192.31 Q621.449 192.258 624.453 191.994 Q627.457 191.678 630.039 191.467 Q632.621 191.256 633.728 191.256 Q634.36 191.256 634.677 191.573 Q635.046 191.836 635.046 192.152 L635.098 192.416 L627.14 224.932 Q633.412 218.45 639.789 218.45 Q646.165 218.45 650.118 223.351 Q654.123 228.252 654.123 235.683 M646.323 230.94 Q646.323 225.933 644.426 223.404 Q642.582 220.821 639.525 220.821 Q636.943 220.821 633.57 222.771 Q630.197 224.721 626.613 229.464 Q625.928 230.36 625.665 230.887 Q625.454 231.414 624.98 233.206 L622.608 243.166 Q620.869 249.965 620.869 254.075 Q620.869 259.662 622.924 262.297 Q624.98 264.932 628.089 264.932 Q631.356 264.932 634.782 262.033 Q638.208 259.135 640.843 253.865 Q642.476 250.386 644.373 242.903 Q646.323 235.367 646.323 230.94 Z" fill="#000000" fill-rule="nonzero" fill-opacity="1"></path><path clip-path="url(#clip050)" d="M661.942 292.072 Q661.942 291.545 663.313 290.228 Q680.704 272.521 680.704 239.161 Q680.704 205.696 663.998 188.779 Q661.942 186.83 661.942 186.25 Q661.942 185.196 662.996 185.196 Q663.734 185.196 666.316 187.357 Q668.951 189.517 672.904 194.471 Q676.909 199.425 679.86 205.486 Q686.975 220.189 686.975 239.161 Q686.975 257.396 680.177 272.099 Q677.278 278.265 673.22 283.43 Q669.162 288.594 666.475 290.86 Q663.787 293.126 662.996 293.126 Q661.942 293.126 661.942 292.072 Z" fill="#000000" fill-rule="nonzero" fill-opacity="1"></path></svg>