<svg xmlns="http://www.w3.org/2000/svg" xmlns:xlink="http://www.w3.org/1999/xlink" width="700" height="400" viewBox="0 0 2800 1600">
<defs>
  <clipPath id="clip000">
    <rect x="0" y="0" width="2800" height="1600"></rect>
  </clipPath>
</defs>
<path clip-path="url(#clip000)" d="M0 1600 L2800 1600 L2800 0 L0 0  Z" fill="#ffffff" fill-rule="evenodd" fill-opacity="1"></path>
<defs>
  <clipPath id="clip001">
    <rect x="560" y="0" width="1961" height="1600"></rect>
  </clipPath>
</defs>
<defs>
  <clipPath id="clip002">
    <rect x="364" y="47" width="1849" height="1282"></rect>
  </clipPath>
</defs>
<path clip-path="url(#clip000)" d="M364.015 1328.42 L2211.84 1328.42 L2211.84 47.2441 L364.015 47.2441  Z" fill="#ffffff" fill-rule="evenodd" fill-opacity="1"></path>
<polyline clip-path="url(#clip000)" style="stroke:#000000; stroke-linecap:round; stroke-linejoin:round; stroke-width:4; stroke-opacity:1; fill:none" points="364.015,1328.42 2211.84,1328.42 "></polyline>
<polyline clip-path="url(#clip000)" style="stroke:#000000; stroke-linecap:round; stroke-linejoin:round; stroke-width:4; stroke-opacity:1; fill:none" points="364.015,47.2441 2211.84,47.2441 "></polyline>
<polyline clip-path="url(#clip000)" style="stroke:#000000; stroke-linecap:round; stroke-linejoin:round; stroke-width:4; stroke-opacity:1; fill:none" points="416.312,1328.42 416.312,1309.52 "></polyline>
<polyline clip-path="url(#clip000)" style="stroke:#000000; stroke-linecap:round; stroke-linejoin:round; stroke-width:4; stroke-opacity:1; fill:none" points="764.958,1328.42 764.958,1309.52 "></polyline>
<polyline clip-path="url(#clip000)" style="stroke:#000000; stroke-linecap:round; stroke-linejoin:round; stroke-width:4; stroke-opacity:1; fill:none" points="1113.6,1328.42 1113.6,1309.52 "></polyline>
<polyline clip-path="url(#clip000)" style="stroke:#000000; stroke-linecap:round; stroke-linejoin:round; stroke-width:4; stroke-opacity:1; fill:none" points="1462.25,1328.42 1462.25,1309.52 "></polyline>
<polyline clip-path="url(#clip000)" style="stroke:#000000; stroke-linecap:round; stroke-linejoin:round; stroke-width:4; stroke-opacity:1; fill:none" points="1810.9,1328.42 1810.9,1309.52 "></polyline>
<polyline clip-path="url(#clip000)" style="stroke:#000000; stroke-linecap:round; stroke-linejoin:round; stroke-width:4; stroke-opacity:1; fill:none" points="2159.54,1328.42 2159.54,1309.52 "></polyline>
<path clip-path="url(#clip000)" d="M396.348 1401.48 Q396.348 1387.53 399.868 1379.94 Q404.778 1368.64 416.358 1368.64 Q418.813 1368.64 421.36 1369.33 Q423.954 1369.98 427.197 1372.53 Q430.485 1375.08 432.477 1379.24 Q436.275 1387.3 436.275 1401.48 Q436.275 1415.33 432.755 1422.88 Q427.613 1433.9 416.265 1433.9 Q412.004 1433.9 407.65 1431.72 Q403.342 1429.55 400.61 1424.31 Q396.348 1416.48 396.348 1401.48 M404.222 1400.32 Q404.222 1414.63 405.241 1420.33 Q406.399 1426.49 409.549 1429.18 Q412.745 1431.82 416.265 1431.82 Q420.063 1431.82 423.213 1428.99 Q426.409 1426.12 427.382 1419.96 Q428.447 1413.89 428.401 1400.32 Q428.401 1387.12 427.474 1381.84 Q426.224 1375.68 422.889 1373.22 Q419.6 1370.72 416.265 1370.72 Q415.015 1370.72 413.671 1371.09 Q412.374 1371.46 410.475 1372.53 Q408.576 1373.59 407.094 1376.23 Q405.658 1378.87 404.963 1382.86 Q404.222 1388 404.222 1400.32 Z" fill="#000000" fill-rule="nonzero" fill-opacity="1"></path><path clip-path="url(#clip000)" d="M749.302 1377.67 L749.302 1374.7 Q760.697 1374.7 766.579 1368.64 Q768.2 1368.64 768.478 1369.01 Q768.756 1369.38 768.756 1371.09 L768.756 1424.31 Q768.756 1427.14 770.146 1428.02 Q771.535 1428.9 777.603 1428.9 L780.614 1428.9 L780.614 1431.82 Q777.279 1431.54 765.236 1431.54 Q753.193 1431.54 749.905 1431.82 L749.905 1428.9 L752.915 1428.9 Q758.89 1428.9 760.326 1428.06 Q761.762 1427.18 761.762 1424.31 L761.762 1375.17 Q756.806 1377.67 749.302 1377.67 Z" fill="#000000" fill-rule="nonzero" fill-opacity="1"></path><path clip-path="url(#clip000)" d="M1094.66 1431.82 Q1094.66 1430.1 1094.8 1429.59 Q1094.98 1429.08 1095.73 1428.3 L1113.93 1408.01 Q1123.89 1396.8 1123.89 1387.03 Q1123.89 1380.68 1120.55 1376.14 Q1117.26 1371.6 1111.2 1371.6 Q1107.03 1371.6 1103.51 1374.15 Q1099.99 1376.7 1098.37 1381.24 Q1098.64 1381.14 1099.62 1381.14 Q1101.98 1381.14 1103.28 1382.63 Q1104.62 1384.11 1104.62 1386.1 Q1104.62 1388.65 1102.95 1389.9 Q1101.33 1391.1 1099.71 1391.1 Q1099.06 1391.1 1098.18 1390.96 Q1097.35 1390.82 1096 1389.53 Q1094.66 1388.18 1094.66 1385.82 Q1094.66 1379.2 1099.66 1373.92 Q1104.71 1368.64 1112.4 1368.64 Q1121.11 1368.64 1126.81 1373.82 Q1132.55 1378.97 1132.55 1387.03 Q1132.55 1389.85 1131.67 1392.44 Q1130.84 1394.99 1129.68 1396.98 Q1128.57 1398.98 1125.51 1402.17 Q1122.45 1405.37 1120 1407.64 Q1117.54 1409.91 1112.03 1414.72 L1101.98 1424.5 L1119.07 1424.5 Q1127.41 1424.5 1128.06 1423.76 Q1128.98 1422.41 1130.14 1415.33 L1132.55 1415.33 L1129.86 1431.82 L1094.66 1431.82 Z" fill="#000000" fill-rule="nonzero" fill-opacity="1"></path><path clip-path="url(#clip000)" d="M1442.57 1419.03 Q1442.57 1416.21 1444.19 1414.86 Q1445.81 1413.52 1447.89 1413.52 Q1450.07 1413.52 1451.6 1414.96 Q1453.17 1416.35 1453.17 1418.8 Q1453.17 1421.44 1451.32 1422.92 Q1449.51 1424.4 1446.92 1424.03 Q1449.19 1427.83 1453.36 1429.55 Q1457.57 1431.26 1461.46 1431.26 Q1465.54 1431.26 1468.83 1427.74 Q1472.16 1424.22 1472.16 1415.6 Q1472.16 1408.29 1469.29 1404.07 Q1466.47 1399.86 1460.86 1399.86 L1456.69 1399.86 Q1455.26 1399.86 1454.84 1399.72 Q1454.42 1399.58 1454.42 1398.79 Q1454.42 1397.86 1455.86 1397.68 Q1457.3 1397.68 1459.56 1397.4 Q1465.08 1397.22 1467.99 1392.44 Q1470.63 1388 1470.63 1381.65 Q1470.63 1375.86 1467.86 1373.45 Q1465.12 1371 1461.56 1371 Q1458.22 1371 1454.56 1372.39 Q1450.9 1373.78 1448.91 1376.88 Q1454.79 1376.88 1454.79 1381.65 Q1454.79 1383.74 1453.45 1385.13 Q1452.15 1386.47 1449.98 1386.47 Q1447.89 1386.47 1446.5 1385.17 Q1445.11 1383.83 1445.11 1381.56 Q1445.11 1376.14 1449.93 1372.39 Q1454.79 1368.64 1461.93 1368.64 Q1468.97 1368.64 1474.16 1372.34 Q1479.39 1376.05 1479.39 1381.75 Q1479.39 1387.35 1475.68 1391.94 Q1471.98 1396.52 1466.1 1398.42 Q1473.32 1399.86 1477.63 1404.77 Q1481.94 1409.63 1481.94 1415.6 Q1481.94 1423.02 1476.1 1428.48 Q1470.26 1433.9 1461.74 1433.9 Q1453.87 1433.9 1448.22 1429.64 Q1442.57 1425.38 1442.57 1419.03 Z" fill="#000000" fill-rule="nonzero" fill-opacity="1"></path><path clip-path="url(#clip000)" d="M1789.87 1416.16 L1789.87 1413.24 L1819 1368.73 Q1819.74 1367.57 1820.9 1367.62 Q1821.97 1367.62 1822.2 1368.03 Q1822.43 1368.45 1822.43 1370.07 L1822.43 1413.24 L1831.93 1413.24 L1831.93 1416.16 L1822.43 1416.16 L1822.43 1424.4 Q1822.43 1427.14 1823.54 1428.02 Q1824.7 1428.9 1829.61 1428.9 L1831.6 1428.9 L1831.6 1431.82 Q1827.71 1431.54 1818.73 1431.54 Q1809.79 1431.54 1805.9 1431.82 L1805.9 1428.9 L1807.89 1428.9 Q1812.8 1428.9 1813.95 1428.06 Q1815.11 1427.18 1815.11 1424.4 L1815.11 1416.16 L1789.87 1416.16 M1792.56 1413.24 L1815.67 1413.24 L1815.67 1377.85 L1792.56 1413.24 Z" fill="#000000" fill-rule="nonzero" fill-opacity="1"></path><path clip-path="url(#clip000)" d="M2140.6 1416.53 Q2140.6 1413.71 2142.13 1412.64 Q2143.66 1411.53 2145.28 1411.53 Q2147.46 1411.53 2148.71 1412.92 Q2150 1414.26 2150 1416.16 Q2150 1418.06 2148.71 1419.45 Q2147.46 1420.79 2145.28 1420.79 Q2144.21 1420.79 2143.66 1420.61 Q2144.91 1424.96 2148.71 1428.11 Q2152.55 1431.26 2157.6 1431.26 Q2163.94 1431.26 2167.74 1425.1 Q2170.01 1421.12 2170.01 1412.08 Q2170.01 1404.12 2168.3 1400.13 Q2165.66 1394.07 2160.24 1394.07 Q2152.55 1394.07 2148.01 1400.69 Q2147.46 1401.52 2146.81 1401.57 Q2145.88 1401.57 2145.65 1401.06 Q2145.46 1400.5 2145.46 1399.07 L2145.46 1371 Q2145.46 1368.73 2146.39 1368.73 Q2146.76 1368.73 2147.55 1369.01 Q2153.52 1371.65 2160.15 1371.69 Q2166.96 1371.69 2173.07 1368.91 Q2173.53 1368.64 2173.81 1368.64 Q2174.74 1368.64 2174.78 1369.7 Q2174.78 1370.07 2174 1371.18 Q2173.25 1372.25 2171.63 1373.69 Q2170.01 1375.08 2167.93 1376.42 Q2165.84 1377.76 2162.79 1378.69 Q2159.78 1379.57 2156.44 1379.57 Q2152.46 1379.57 2148.38 1378.32 L2148.38 1396.8 Q2153.29 1391.98 2160.42 1391.98 Q2168.02 1391.98 2173.25 1398.1 Q2178.49 1404.21 2178.49 1412.73 Q2178.49 1421.67 2172.28 1427.79 Q2166.12 1433.9 2157.78 1433.9 Q2150.19 1433.9 2145.37 1428.48 Q2140.6 1423.06 2140.6 1416.53 Z" fill="#000000" fill-rule="nonzero" fill-opacity="1"></path><path clip-path="url(#clip000)" d="M1312.42 1478.6 Q1312.42 1478.68 1312.34 1478.77 Q1311.81 1483.11 1310.78 1485.53 Q1309.76 1487.91 1307.46 1489.01 Q1305.78 1489.83 1303.69 1489.83 Q1300.54 1489.83 1295.99 1487.74 Q1295.82 1487.66 1294.92 1487.25 Q1294.02 1486.84 1293.69 1486.72 Q1293.36 1486.6 1292.67 1486.35 Q1291.97 1486.06 1291.44 1485.98 Q1290.9 1485.9 1290.37 1485.9 Q1289.22 1485.9 1288.24 1486.39 Q1286.23 1487.37 1285 1488.85 Q1283.73 1490.28 1283.4 1492.87 Q1283.32 1493.19 1283.03 1493.44 Q1282.75 1493.69 1282.38 1493.69 Q1282.01 1493.69 1281.68 1493.4 Q1281.35 1493.11 1281.35 1492.7 Q1281.35 1492.62 1281.44 1492.54 Q1281.97 1488.19 1282.99 1485.82 Q1284.02 1483.4 1286.31 1482.29 Q1288.12 1481.43 1290.08 1481.43 Q1293.16 1481.43 1297.83 1483.56 Q1297.99 1483.64 1298.9 1484.05 Q1299.8 1484.46 1300.13 1484.59 Q1300.45 1484.71 1301.15 1485 Q1301.85 1485.24 1302.38 1485.32 Q1302.91 1485.41 1303.45 1485.41 Q1304.47 1485.41 1305.54 1484.87 Q1307.55 1483.89 1308.82 1482.46 Q1310.09 1481.02 1310.41 1478.44 Q1310.5 1478.11 1310.78 1477.86 Q1311.07 1477.58 1311.44 1477.58 Q1311.81 1477.58 1312.14 1477.91 Q1312.42 1478.19 1312.42 1478.6 Z" fill="#000000" fill-rule="nonzero" fill-opacity="1"></path><path clip-path="url(#clip000)" d="M1313.81 1507.59 Q1313.81 1508 1312.82 1509.76 Q1311.88 1511.46 1308.43 1515.73 Q1304.97 1520 1299.82 1524.98 Q1297.89 1526.91 1294.96 1529.61 Q1292.03 1532.3 1290.04 1534.06 L1288.05 1535.81 Q1280.44 1542.26 1273.76 1549.46 Q1274.23 1549.28 1275.05 1549.22 Q1275.87 1549.11 1276.45 1549.11 L1277.04 1549.11 Q1280.08 1549.11 1285.41 1551.16 Q1290.1 1552.68 1292.5 1552.68 Q1294.84 1552.68 1297.42 1551.86 Q1299.99 1551.04 1302.8 1548.64 Q1305.62 1546.24 1306.9 1542.61 Q1307.14 1542.02 1307.25 1541.85 Q1307.37 1541.61 1307.72 1541.38 Q1308.07 1541.08 1308.54 1541.08 Q1309.19 1541.08 1309.6 1541.44 Q1310.01 1541.79 1310.01 1542.26 Q1310.01 1543.31 1309.19 1545.42 Q1308.43 1547.53 1306.73 1550.16 Q1305.09 1552.8 1302.92 1555.2 Q1300.81 1557.54 1297.65 1559.18 Q1294.49 1560.76 1291.15 1560.76 Q1288.75 1560.76 1286.99 1559.59 Q1285.24 1558.48 1283.48 1556.31 Q1281.08 1553.56 1279.79 1552.68 Q1278.5 1551.74 1276.51 1551.74 Q1271.18 1551.74 1266.32 1559.18 Q1265.8 1560.23 1265.45 1560.47 Q1265.15 1560.76 1264.45 1560.76 Q1262.99 1560.7 1262.99 1559.53 Q1262.99 1559.06 1264.27 1557.01 Q1265.62 1554.9 1268.61 1551.22 Q1271.65 1547.53 1275.34 1543.84 L1286.12 1533.77 Q1298.06 1523.69 1302.8 1518.01 Q1300.81 1518.01 1299.94 1517.96 Q1299.12 1517.9 1297.48 1517.55 Q1295.84 1517.14 1293.55 1516.26 Q1288.22 1514.44 1286 1514.44 Q1285.41 1514.44 1284.77 1514.5 Q1284.13 1514.56 1282.66 1514.85 Q1281.26 1515.14 1280.08 1515.73 Q1278.91 1516.26 1277.68 1517.43 Q1276.45 1518.54 1275.81 1520.06 Q1275.63 1520.53 1275.52 1520.77 Q1275.4 1521 1275.05 1521.23 Q1274.76 1521.41 1274.29 1521.41 Q1273.59 1521.41 1273.18 1521 Q1272.82 1520.59 1272.82 1520.06 Q1272.82 1519.01 1273.88 1516.84 Q1274.93 1514.68 1276.69 1512.33 Q1278.45 1509.93 1281.31 1508.18 Q1284.18 1506.42 1287.35 1506.42 Q1289.22 1506.42 1290.8 1507.24 Q1292.44 1508.06 1293.26 1508.94 Q1294.14 1509.76 1295.6 1511.57 Q1296.83 1512.98 1297.42 1513.56 Q1298 1514.15 1299.17 1514.79 Q1300.4 1515.38 1301.75 1515.38 Q1303.98 1515.38 1306.03 1513.68 Q1308.07 1511.92 1310.71 1507.71 Q1311.41 1506.42 1312.52 1506.42 Q1313.81 1506.42 1313.81 1507.59 Z" fill="#000000" fill-rule="nonzero" fill-opacity="1"></path><polyline clip-path="url(#clip000)" style="stroke:#000000; stroke-linecap:round; stroke-linejoin:round; stroke-width:4; stroke-opacity:1; fill:none" points="364.015,1328.42 364.015,47.2441 "></polyline>
<polyline clip-path="url(#clip000)" style="stroke:#000000; stroke-linecap:round; stroke-linejoin:round; stroke-width:4; stroke-opacity:1; fill:none" points="2211.84,1328.42 2211.84,47.2441 "></polyline>
<polyline clip-path="url(#clip000)" style="stroke:#000000; stroke-linecap:round; stroke-linejoin:round; stroke-width:4; stroke-opacity:1; fill:none" points="364.015,1292.16 378.633,1292.16 "></polyline>
<polyline clip-path="url(#clip000)" style="stroke:#000000; stroke-linecap:round; stroke-linejoin:round; stroke-width:4; stroke-opacity:1; fill:none" points="364.015,1075.63 378.633,1075.63 "></polyline>
<polyline clip-path="url(#clip000)" style="stroke:#000000; stroke-linecap:round; stroke-linejoin:round; stroke-width:4; stroke-opacity:1; fill:none" points="364.015,859.107 378.633,859.107 "></polyline>
<polyline clip-path="url(#clip000)" style="stroke:#000000; stroke-linecap:round; stroke-linejoin:round; stroke-width:4; stroke-opacity:1; fill:none" points="364.015,642.582 378.633,642.582 "></polyline>
<polyline clip-path="url(#clip000)" style="stroke:#000000; stroke-linecap:round; stroke-linejoin:round; stroke-width:4; stroke-opacity:1; fill:none" points="364.015,426.057 378.633,426.057 "></polyline>
<polyline clip-path="url(#clip000)" style="stroke:#000000; stroke-linecap:round; stroke-linejoin:round; stroke-width:4; stroke-opacity:1; fill:none" points="364.015,209.532 378.633,209.532 "></polyline>
<path clip-path="url(#clip000)" d="M208.302 1294.22 Q208.302 1280.28 211.822 1272.68 Q216.732 1261.38 228.312 1261.38 Q230.767 1261.38 233.314 1262.07 Q235.908 1262.72 239.15 1265.27 Q242.439 1267.82 244.431 1271.98 Q248.229 1280.04 248.229 1294.22 Q248.229 1308.07 244.709 1315.62 Q239.567 1326.64 228.219 1326.64 Q223.958 1326.64 219.604 1324.46 Q215.296 1322.29 212.563 1317.05 Q208.302 1309.22 208.302 1294.22 M216.176 1293.06 Q216.176 1307.37 217.195 1313.07 Q218.353 1319.23 221.503 1321.92 Q224.699 1324.56 228.219 1324.56 Q232.017 1324.56 235.167 1321.73 Q238.363 1318.86 239.336 1312.7 Q240.401 1306.63 240.355 1293.06 Q240.355 1279.86 239.428 1274.58 Q238.178 1268.42 234.843 1265.96 Q231.554 1263.46 228.219 1263.46 Q226.968 1263.46 225.625 1263.83 Q224.328 1264.2 222.429 1265.27 Q220.53 1266.33 219.048 1268.97 Q217.612 1271.61 216.917 1275.6 Q216.176 1280.74 216.176 1293.06 Z" fill="#000000" fill-rule="nonzero" fill-opacity="1"></path><path clip-path="url(#clip000)" d="M261.522 1323.03 Q260.086 1321.5 260.086 1319.51 Q260.086 1317.52 261.522 1316.08 Q262.958 1314.6 265.135 1314.6 Q267.219 1314.6 268.609 1315.99 Q270.045 1317.33 270.045 1319.55 Q270.045 1321.73 268.516 1323.17 Q267.034 1324.56 265.135 1324.56 Q262.958 1324.56 261.522 1323.03 Z" fill="#000000" fill-rule="nonzero" fill-opacity="1"></path><path clip-path="url(#clip000)" d="M282.088 1294.22 Q282.088 1280.28 285.608 1272.68 Q290.518 1261.38 302.098 1261.38 Q304.552 1261.38 307.1 1262.07 Q309.694 1262.72 312.936 1265.27 Q316.225 1267.82 318.216 1271.98 Q322.015 1280.04 322.015 1294.22 Q322.015 1308.07 318.494 1315.62 Q313.353 1326.64 302.005 1326.64 Q297.744 1326.64 293.39 1324.46 Q289.082 1322.29 286.349 1317.05 Q282.088 1309.22 282.088 1294.22 M289.962 1293.06 Q289.962 1307.37 290.981 1313.07 Q292.139 1319.23 295.289 1321.92 Q298.485 1324.56 302.005 1324.56 Q305.803 1324.56 308.953 1321.73 Q312.149 1318.86 313.121 1312.7 Q314.187 1306.63 314.14 1293.06 Q314.14 1279.86 313.214 1274.58 Q311.963 1268.42 308.628 1265.96 Q305.34 1263.46 302.005 1263.46 Q300.754 1263.46 299.411 1263.83 Q298.114 1264.2 296.215 1265.27 Q294.316 1266.33 292.834 1268.97 Q291.398 1271.61 290.703 1275.6 Q289.962 1280.74 289.962 1293.06 Z" fill="#000000" fill-rule="nonzero" fill-opacity="1"></path><path clip-path="url(#clip000)" d="M209.321 1077.69 Q209.321 1063.75 212.841 1056.15 Q217.751 1044.85 229.331 1044.85 Q231.786 1044.85 234.333 1045.55 Q236.927 1046.2 240.169 1048.74 Q243.458 1051.29 245.45 1055.46 Q249.248 1063.52 249.248 1077.69 Q249.248 1091.54 245.728 1099.09 Q240.586 1110.12 229.238 1110.12 Q224.977 1110.12 220.623 1107.94 Q216.315 1105.76 213.582 1100.53 Q209.321 1092.7 209.321 1077.69 M217.195 1076.53 Q217.195 1090.85 218.214 1096.54 Q219.372 1102.7 222.522 1105.39 Q225.718 1108.03 229.238 1108.03 Q233.036 1108.03 236.186 1105.21 Q239.382 1102.33 240.355 1096.17 Q241.42 1090.11 241.374 1076.53 Q241.374 1063.33 240.447 1058.05 Q239.197 1051.89 235.862 1049.44 Q232.573 1046.94 229.238 1046.94 Q227.987 1046.94 226.644 1047.31 Q225.347 1047.68 223.448 1048.74 Q221.549 1049.81 220.067 1052.45 Q218.631 1055.09 217.936 1059.07 Q217.195 1064.21 217.195 1076.53 Z" fill="#000000" fill-rule="nonzero" fill-opacity="1"></path><path clip-path="url(#clip000)" d="M262.541 1106.5 Q261.105 1104.97 261.105 1102.98 Q261.105 1100.99 262.541 1099.56 Q263.977 1098.07 266.154 1098.07 Q268.238 1098.07 269.628 1099.46 Q271.064 1100.81 271.064 1103.03 Q271.064 1105.21 269.535 1106.64 Q268.053 1108.03 266.154 1108.03 Q263.977 1108.03 262.541 1106.5 Z" fill="#000000" fill-rule="nonzero" fill-opacity="1"></path><path clip-path="url(#clip000)" d="M284.126 1092.75 Q284.126 1089.92 285.654 1088.86 Q287.183 1087.74 288.804 1087.74 Q290.981 1087.74 292.232 1089.13 Q293.529 1090.48 293.529 1092.38 Q293.529 1094.27 292.232 1095.66 Q290.981 1097.01 288.804 1097.01 Q287.739 1097.01 287.183 1096.82 Q288.433 1101.18 292.232 1104.33 Q296.076 1107.48 301.125 1107.48 Q307.471 1107.48 311.269 1101.32 Q313.538 1097.33 313.538 1088.3 Q313.538 1080.33 311.824 1076.35 Q309.184 1070.28 303.765 1070.28 Q296.076 1070.28 291.537 1076.91 Q290.981 1077.74 290.333 1077.79 Q289.406 1077.79 289.175 1077.28 Q288.989 1076.72 288.989 1075.28 L288.989 1047.21 Q288.989 1044.95 289.916 1044.95 Q290.286 1044.95 291.074 1045.22 Q297.049 1047.86 303.672 1047.91 Q310.481 1047.91 316.595 1045.13 Q317.059 1044.85 317.336 1044.85 Q318.263 1044.85 318.309 1045.92 Q318.309 1046.29 317.522 1047.4 Q316.781 1048.47 315.159 1049.9 Q313.538 1051.29 311.454 1052.63 Q309.37 1053.98 306.313 1054.9 Q303.302 1055.78 299.967 1055.78 Q295.983 1055.78 291.907 1054.53 L291.907 1073.01 Q296.817 1068.2 303.95 1068.2 Q311.547 1068.2 316.781 1074.31 Q322.015 1080.43 322.015 1088.95 Q322.015 1097.89 315.808 1104 Q309.647 1110.12 301.31 1110.12 Q293.714 1110.12 288.897 1104.7 Q284.126 1099.28 284.126 1092.75 Z" fill="#000000" fill-rule="nonzero" fill-opacity="1"></path><path clip-path="url(#clip000)" d="M213.026 837.36 L213.026 834.396 Q224.421 834.396 230.303 828.328 Q231.925 828.328 232.202 828.698 Q232.48 829.069 232.48 830.783 L232.48 884.003 Q232.48 886.828 233.87 887.709 Q235.26 888.589 241.327 888.589 L244.338 888.589 L244.338 891.507 Q241.003 891.229 228.96 891.229 Q216.917 891.229 213.629 891.507 L213.629 888.589 L216.639 888.589 Q222.614 888.589 224.05 887.755 Q225.486 886.875 225.486 884.003 L225.486 834.859 Q220.53 837.36 213.026 837.36 Z" fill="#000000" fill-rule="nonzero" fill-opacity="1"></path><path clip-path="url(#clip000)" d="M261.522 889.978 Q260.086 888.45 260.086 886.458 Q260.086 884.466 261.522 883.03 Q262.958 881.548 265.135 881.548 Q267.219 881.548 268.609 882.938 Q270.045 884.281 270.045 886.504 Q270.045 888.681 268.516 890.117 Q267.034 891.507 265.135 891.507 Q262.958 891.507 261.522 889.978 Z" fill="#000000" fill-rule="nonzero" fill-opacity="1"></path><path clip-path="url(#clip000)" d="M282.088 861.168 Q282.088 847.226 285.608 839.63 Q290.518 828.328 302.098 828.328 Q304.552 828.328 307.1 829.023 Q309.694 829.671 312.936 832.219 Q316.225 834.766 318.216 838.935 Q322.015 846.994 322.015 861.168 Q322.015 875.017 318.494 882.567 Q313.353 893.591 302.005 893.591 Q297.744 893.591 293.39 891.414 Q289.082 889.237 286.349 884.003 Q282.088 876.175 282.088 861.168 M289.962 860.01 Q289.962 874.322 290.981 880.02 Q292.139 886.18 295.289 888.867 Q298.485 891.507 302.005 891.507 Q305.803 891.507 308.953 888.681 Q312.149 885.809 313.121 879.649 Q314.187 873.581 314.14 860.01 Q314.14 846.809 313.214 841.529 Q311.963 835.368 308.628 832.913 Q305.34 830.412 302.005 830.412 Q300.754 830.412 299.411 830.783 Q298.114 831.153 296.215 832.219 Q294.316 833.284 292.834 835.924 Q291.398 838.564 290.703 842.548 Q289.962 847.689 289.962 860.01 Z" fill="#000000" fill-rule="nonzero" fill-opacity="1"></path><path clip-path="url(#clip000)" d="M214.045 620.835 L214.045 617.871 Q225.44 617.871 231.322 611.803 Q232.944 611.803 233.221 612.174 Q233.499 612.544 233.499 614.258 L233.499 667.478 Q233.499 670.304 234.889 671.184 Q236.279 672.064 242.346 672.064 L245.357 672.064 L245.357 674.982 Q242.022 674.704 229.979 674.704 Q217.936 674.704 214.648 674.982 L214.648 672.064 L217.658 672.064 Q223.633 672.064 225.069 671.23 Q226.505 670.35 226.505 667.478 L226.505 618.334 Q221.549 620.835 214.045 620.835 Z" fill="#000000" fill-rule="nonzero" fill-opacity="1"></path><path clip-path="url(#clip000)" d="M262.541 673.453 Q261.105 671.925 261.105 669.933 Q261.105 667.942 262.541 666.506 Q263.977 665.023 266.154 665.023 Q268.238 665.023 269.628 666.413 Q271.064 667.756 271.064 669.98 Q271.064 672.157 269.535 673.592 Q268.053 674.982 266.154 674.982 Q263.977 674.982 262.541 673.453 Z" fill="#000000" fill-rule="nonzero" fill-opacity="1"></path><path clip-path="url(#clip000)" d="M284.126 659.697 Q284.126 656.871 285.654 655.806 Q287.183 654.694 288.804 654.694 Q290.981 654.694 292.232 656.084 Q293.529 657.427 293.529 659.326 Q293.529 661.225 292.232 662.615 Q290.981 663.958 288.804 663.958 Q287.739 663.958 287.183 663.773 Q288.433 668.127 292.232 671.276 Q296.076 674.426 301.125 674.426 Q307.471 674.426 311.269 668.266 Q313.538 664.282 313.538 655.25 Q313.538 647.283 311.824 643.3 Q309.184 637.232 303.765 637.232 Q296.076 637.232 291.537 643.856 Q290.981 644.689 290.333 644.736 Q289.406 644.736 289.175 644.226 Q288.989 643.67 288.989 642.235 L288.989 614.165 Q288.989 611.896 289.916 611.896 Q290.286 611.896 291.074 612.174 Q297.049 614.814 303.672 614.86 Q310.481 614.86 316.595 612.081 Q317.059 611.803 317.336 611.803 Q318.263 611.803 318.309 612.868 Q318.309 613.239 317.522 614.351 Q316.781 615.416 315.159 616.852 Q313.538 618.241 311.454 619.585 Q309.37 620.928 306.313 621.854 Q303.302 622.734 299.967 622.734 Q295.983 622.734 291.907 621.484 L291.907 639.965 Q296.817 635.148 303.95 635.148 Q311.547 635.148 316.781 641.262 Q322.015 647.376 322.015 655.899 Q322.015 664.838 315.808 670.952 Q309.647 677.066 301.31 677.066 Q293.714 677.066 288.897 671.647 Q284.126 666.228 284.126 659.697 Z" fill="#000000" fill-rule="nonzero" fill-opacity="1"></path><path clip-path="url(#clip000)" d="M209.321 458.457 Q209.321 456.743 209.46 456.234 Q209.645 455.724 210.386 454.937 L228.59 434.649 Q238.548 423.44 238.548 413.667 Q238.548 407.321 235.213 402.782 Q231.925 398.243 225.857 398.243 Q221.688 398.243 218.168 400.79 Q214.648 403.338 213.026 407.877 Q213.304 407.784 214.277 407.784 Q216.639 407.784 217.936 409.267 Q219.28 410.749 219.28 412.741 Q219.28 415.288 217.612 416.539 Q215.991 417.743 214.37 417.743 Q213.721 417.743 212.841 417.604 Q212.007 417.465 210.664 416.168 Q209.321 414.825 209.321 412.463 Q209.321 405.839 214.323 400.559 Q219.372 395.278 227.061 395.278 Q235.769 395.278 241.466 400.466 Q247.21 405.607 247.21 413.667 Q247.21 416.492 246.33 419.086 Q245.496 421.634 244.338 423.625 Q243.226 425.617 240.169 428.813 Q237.112 432.009 234.657 434.279 Q232.202 436.548 226.691 441.366 L216.639 451.139 L233.731 451.139 Q242.068 451.139 242.717 450.398 Q243.643 449.055 244.801 441.968 L247.21 441.968 L244.523 458.457 L209.321 458.457 Z" fill="#000000" fill-rule="nonzero" fill-opacity="1"></path><path clip-path="url(#clip000)" d="M261.522 456.929 Q260.086 455.4 260.086 453.408 Q260.086 451.417 261.522 449.981 Q262.958 448.499 265.135 448.499 Q267.219 448.499 268.609 449.888 Q270.045 451.231 270.045 453.455 Q270.045 455.632 268.516 457.068 Q267.034 458.457 265.135 458.457 Q262.958 458.457 261.522 456.929 Z" fill="#000000" fill-rule="nonzero" fill-opacity="1"></path><path clip-path="url(#clip000)" d="M282.088 428.118 Q282.088 414.176 285.608 406.58 Q290.518 395.278 302.098 395.278 Q304.552 395.278 307.1 395.973 Q309.694 396.622 312.936 399.169 Q316.225 401.717 318.216 405.885 Q322.015 413.945 322.015 428.118 Q322.015 441.968 318.494 449.518 Q313.353 460.542 302.005 460.542 Q297.744 460.542 293.39 458.365 Q289.082 456.188 286.349 450.954 Q282.088 443.126 282.088 428.118 M289.962 426.96 Q289.962 441.273 290.981 446.97 Q292.139 453.131 295.289 455.817 Q298.485 458.457 302.005 458.457 Q305.803 458.457 308.953 455.632 Q312.149 452.76 313.121 446.6 Q314.187 440.532 314.14 426.96 Q314.14 413.76 313.214 408.479 Q311.963 402.319 308.628 399.864 Q305.34 397.363 302.005 397.363 Q300.754 397.363 299.411 397.733 Q298.114 398.104 296.215 399.169 Q294.316 400.234 292.834 402.875 Q291.398 405.515 290.703 409.498 Q289.962 414.64 289.962 426.96 Z" fill="#000000" fill-rule="nonzero" fill-opacity="1"></path><path clip-path="url(#clip000)" d="M210.34 241.932 Q210.34 240.219 210.479 239.709 Q210.664 239.2 211.405 238.412 L229.609 218.125 Q239.567 206.915 239.567 197.142 Q239.567 190.797 236.232 186.257 Q232.944 181.718 226.876 181.718 Q222.707 181.718 219.187 184.266 Q215.667 186.813 214.045 191.352 Q214.323 191.26 215.296 191.26 Q217.658 191.26 218.955 192.742 Q220.299 194.224 220.299 196.216 Q220.299 198.763 218.631 200.014 Q217.01 201.218 215.389 201.218 Q214.74 201.218 213.86 201.079 Q213.026 200.94 211.683 199.643 Q210.34 198.3 210.34 195.938 Q210.34 189.314 215.342 184.034 Q220.391 178.754 228.08 178.754 Q236.788 178.754 242.485 183.941 Q248.229 189.083 248.229 197.142 Q248.229 199.968 247.349 202.562 Q246.515 205.109 245.357 207.101 Q244.245 209.092 241.188 212.288 Q238.131 215.484 235.676 217.754 Q233.221 220.024 227.71 224.841 L217.658 234.614 L234.75 234.614 Q243.087 234.614 243.736 233.873 Q244.662 232.53 245.82 225.443 L248.229 225.443 L245.542 241.932 L210.34 241.932 Z" fill="#000000" fill-rule="nonzero" fill-opacity="1"></path><path clip-path="url(#clip000)" d="M262.541 240.404 Q261.105 238.875 261.105 236.884 Q261.105 234.892 262.541 233.456 Q263.977 231.974 266.154 231.974 Q268.238 231.974 269.628 233.364 Q271.064 234.707 271.064 236.93 Q271.064 239.107 269.535 240.543 Q268.053 241.932 266.154 241.932 Q263.977 241.932 262.541 240.404 Z" fill="#000000" fill-rule="nonzero" fill-opacity="1"></path><path clip-path="url(#clip000)" d="M284.126 226.647 Q284.126 223.822 285.654 222.757 Q287.183 221.645 288.804 221.645 Q290.981 221.645 292.232 223.034 Q293.529 224.378 293.529 226.277 Q293.529 228.176 292.232 229.565 Q290.981 230.909 288.804 230.909 Q287.739 230.909 287.183 230.723 Q288.433 235.077 292.232 238.227 Q296.076 241.377 301.125 241.377 Q307.471 241.377 311.269 235.216 Q313.538 231.233 313.538 222.201 Q313.538 214.234 311.824 210.25 Q309.184 204.183 303.765 204.183 Q296.076 204.183 291.537 210.806 Q290.981 211.64 290.333 211.686 Q289.406 211.686 289.175 211.177 Q288.989 210.621 288.989 209.185 L288.989 181.116 Q288.989 178.846 289.916 178.846 Q290.286 178.846 291.074 179.124 Q297.049 181.764 303.672 181.811 Q310.481 181.811 316.595 179.032 Q317.059 178.754 317.336 178.754 Q318.263 178.754 318.309 179.819 Q318.309 180.19 317.522 181.301 Q316.781 182.367 315.159 183.802 Q313.538 185.192 311.454 186.535 Q309.37 187.878 306.313 188.805 Q303.302 189.685 299.967 189.685 Q295.983 189.685 291.907 188.434 L291.907 206.915 Q296.817 202.098 303.95 202.098 Q311.547 202.098 316.781 208.212 Q322.015 214.326 322.015 222.849 Q322.015 231.789 315.808 237.903 Q309.647 244.017 301.31 244.017 Q293.714 244.017 288.897 238.598 Q284.126 233.178 284.126 226.647 Z" fill="#000000" fill-rule="nonzero" fill-opacity="1"></path><path clip-path="url(#clip000)" d="M180.293 1104.09 L83.1364 1104.09 Q79.2644 1104.09 79.2644 1102 Q79.2644 1099.91 82.3722 1099.91 L179.529 1099.91 Q183.401 1099.91 183.401 1102 Q183.401 1104.09 180.293 1104.09 Z" fill="#000000" fill-rule="nonzero" fill-opacity="1"></path><path clip-path="url(#clip000)" d="M118.605 1002.02 Q119.132 1001.56 119.659 1001.56 Q120.186 1001.56 121.708 1002.73 Q123.23 1003.84 125.28 1006.24 Q127.329 1008.64 129.262 1011.74 Q131.194 1014.85 132.482 1019.42 Q133.829 1023.98 133.829 1028.78 Q133.829 1037.74 127.915 1043.01 Q122.001 1048.23 113.51 1048.23 Q105.254 1048.23 97.3486 1043.6 Q89.385 1038.97 84.4663 1031.48 Q79.489 1023.98 79.489 1016.08 Q79.489 1009.81 82.4168 1005.89 Q85.3446 1001.97 89.7949 1001.97 Q93.2497 1001.97 95.3577 1003.96 Q97.4657 1005.95 97.4657 1008.64 Q97.4657 1010.52 96.4117 1011.8 Q95.2992 1013.09 93.2497 1013.09 Q90.6147 1013.09 88.5652 1010.93 Q87.7454 1010.11 87.3941 1009.17 Q86.9842 1008.17 86.9842 1007.59 Q86.9256 1007 86.9256 1005.66 Q84.642 1006.88 83.4123 1009.81 Q82.124 1012.68 82.124 1015.96 Q82.124 1020.82 85.5203 1025.45 Q88.858 1030.07 94.128 1032.88 Q99.281 1035.69 106.6 1037.51 Q113.861 1039.32 118.077 1039.32 Q123.875 1039.32 127.505 1036.63 Q131.136 1033.94 131.136 1028.55 Q131.136 1027.5 131.077 1026.38 Q131.018 1025.21 130.374 1022.28 Q129.73 1019.3 128.618 1016.66 Q127.505 1014.03 125.104 1010.69 Q122.645 1007.29 119.307 1004.6 Q118.077 1003.66 118.077 1003.02 Q118.077 1002.49 118.605 1002.02 Z" fill="#000000" fill-rule="nonzero" fill-opacity="1"></path><path clip-path="url(#clip000)" d="M143.349 945.356 Q149.334 945.356 155.113 948.389 Q160.893 951.381 164.459 956.095 Q167.984 960.809 167.984 965.605 Q167.984 968.474 166.426 970.4 Q164.828 972.286 162.573 973.311 Q165.361 974.089 172.042 975.77 Q178.723 977.45 179.379 977.45 Q179.748 977.45 179.912 977.369 Q180.076 977.287 180.281 976.918 Q180.527 976.549 180.609 975.647 Q180.732 974.745 180.732 973.229 Q180.732 972.45 180.732 972.163 Q180.773 971.835 180.978 971.548 Q181.182 971.22 181.633 971.22 Q183.314 971.22 183.314 972.737 Q183.314 974.089 183.191 976.877 Q183.068 979.664 183.068 981.058 Q183.068 982.246 183.191 984.624 Q183.314 987.001 183.314 988.108 Q183.314 989.214 182.33 989.214 Q181.756 989.214 181.387 989.05 Q181.059 988.927 180.896 988.6 Q180.773 988.272 180.732 987.985 Q180.732 987.739 180.732 987.247 Q180.732 985.361 180.404 984.542 Q180.117 983.722 179.502 983.435 Q178.928 983.107 177.288 982.738 L139.906 973.311 Q137.406 972.737 135.643 972.737 Q133.43 972.737 132.61 973.434 Q131.79 974.13 131.79 975.36 Q131.79 977.491 134.332 978.885 Q136.873 980.279 141.792 981.467 Q143.144 981.836 143.431 982.082 Q143.718 982.287 143.718 982.902 Q143.677 983.927 142.857 983.927 Q142.653 983.927 141.341 983.599 Q139.988 983.271 138.021 982.656 Q136.012 982 134.742 981.303 Q133.881 980.894 133.307 980.525 Q132.733 980.156 131.831 979.418 Q130.93 978.639 130.438 977.532 Q129.946 976.426 129.946 975.073 Q129.946 972.45 131.503 970.277 Q133.061 968.105 136.217 967.531 Q133.471 965.195 131.708 962.325 Q129.946 959.456 129.946 956.546 Q129.946 951.709 133.717 948.553 Q137.447 945.356 143.349 945.356 M139.66 951.422 Q135.93 951.422 133.881 952.857 Q131.79 954.251 131.79 956.792 Q131.79 959.948 134.988 963.596 Q138.021 967.203 140.849 967.941 L157.286 972.081 L158.638 972.327 Q158.884 972.327 159.622 972.204 Q160.319 972.04 161.467 971.589 Q162.614 971.097 163.639 970.441 Q164.623 969.745 165.361 968.515 Q166.098 967.244 166.098 965.687 Q166.098 963.186 163.885 960.481 Q161.672 957.735 157.491 955.685 Q154.785 954.415 148.965 952.939 Q143.103 951.422 139.66 951.422 Z" fill="#000000" fill-rule="nonzero" fill-opacity="1"></path><path clip-path="url(#clip000)" d="M167.041 940.341 Q165.525 940.341 165.074 940.218 Q164.623 940.054 163.926 939.399 L145.973 923.29 Q136.053 914.477 127.405 914.477 Q121.789 914.477 117.772 917.428 Q113.755 920.339 113.755 925.708 Q113.755 929.397 116.01 932.512 Q118.264 935.628 122.281 937.062 Q122.199 936.816 122.199 935.956 Q122.199 933.865 123.511 932.717 Q124.822 931.529 126.585 931.529 Q128.839 931.529 129.946 933.004 Q131.012 934.439 131.012 935.874 Q131.012 936.447 130.889 937.226 Q130.766 937.964 129.618 939.153 Q128.429 940.341 126.339 940.341 Q120.477 940.341 115.805 935.915 Q111.132 931.447 111.132 924.642 Q111.132 916.937 115.723 911.895 Q120.272 906.812 127.405 906.812 Q129.905 906.812 132.2 907.591 Q134.455 908.329 136.217 909.353 Q137.98 910.337 140.808 913.043 Q143.636 915.748 145.645 917.92 Q147.653 920.093 151.916 924.97 L160.565 933.865 L160.565 918.74 Q160.565 911.362 159.909 910.788 Q158.72 909.968 152.449 908.944 L152.449 906.812 L167.041 909.19 L167.041 940.341 Z" fill="#000000" fill-rule="nonzero" fill-opacity="1"></path><path clip-path="url(#clip000)" d="M180.293 873.168 L83.1364 873.168 Q79.2644 873.168 79.2644 871.079 Q79.2644 868.99 82.3722 868.99 L179.529 868.99 Q183.401 868.99 183.401 871.079 Q183.401 873.168 180.293 873.168 Z" fill="#000000" fill-rule="nonzero" fill-opacity="1"></path><path clip-path="url(#clip000)" d="M74.5631 735.042 Q54.0116 735.042 37.4398 727.38 Q30.4903 724.113 24.6694 719.539 Q18.8485 714.966 16.2944 711.937 Q13.7403 708.907 13.7403 708.076 Q13.7403 706.888 14.9283 706.828 Q15.5222 706.828 17.0072 708.432 Q36.9646 728.033 74.5631 727.974 Q112.28 727.974 131.466 708.907 Q133.545 706.828 134.198 706.828 Q135.386 706.828 135.386 708.076 Q135.386 708.907 132.951 711.818 Q130.515 714.728 124.932 719.242 Q119.349 723.757 112.518 727.023 Q95.9461 735.042 74.5631 735.042 Z" fill="#000000" fill-rule="nonzero" fill-opacity="1"></path><path clip-path="url(#clip000)" d="M130.667 618.442 Q131.37 619.027 131.37 620.081 Q131.37 621.077 130.667 621.779 L105.839 646.607 L130.667 671.435 Q131.37 672.138 131.37 673.192 Q131.37 674.187 130.667 674.831 Q130.023 675.534 129.027 675.534 Q128.032 675.534 127.329 674.831 L102.502 650.003 L77.6738 674.831 Q76.9711 675.534 75.9757 675.534 Q74.9216 675.534 74.3361 674.831 Q73.6334 674.187 73.6334 673.192 Q73.6334 672.138 74.3361 671.435 L99.1639 646.607 L74.3361 621.779 Q73.6334 621.077 73.6334 620.081 Q73.6334 619.027 74.3361 618.442 Q74.9216 617.739 75.9757 617.739 Q76.9711 617.739 77.6738 618.442 L102.502 643.269 L127.329 618.442 Q128.032 617.739 129.086 617.739 Q130.081 617.739 130.667 618.442 Z" fill="#000000" fill-rule="nonzero" fill-opacity="1"></path><path clip-path="url(#clip000)" d="M64.0302 572.298 L60.2826 572.298 Q60.2826 557.893 52.6118 550.457 Q52.6118 548.407 53.0802 548.056 Q53.5487 547.705 55.7152 547.705 L122.996 547.705 Q126.568 547.705 127.681 545.948 Q128.793 544.191 128.793 536.52 L128.793 532.714 L132.482 532.714 Q132.131 536.93 132.131 552.155 Q132.131 567.38 132.482 571.537 L128.793 571.537 L128.793 567.731 Q128.793 560.177 127.739 558.362 Q126.627 556.547 122.996 556.547 L60.8682 556.547 Q64.0302 562.812 64.0302 572.298 Z" fill="#000000" fill-rule="nonzero" fill-opacity="1"></path><path clip-path="url(#clip000)" d="M94.128 512.908 Q76.5027 512.908 66.8995 508.457 Q52.6118 502.25 52.6118 487.611 Q52.6118 484.508 53.4901 481.287 Q54.3099 478.008 57.5305 473.909 Q60.7511 469.752 66.0211 467.234 Q76.2099 462.432 94.128 462.432 Q111.636 462.432 121.181 466.882 Q135.117 473.382 135.117 487.728 Q135.117 493.116 132.365 498.62 Q129.613 504.066 122.996 507.52 Q113.1 512.908 94.128 512.908 M92.6641 502.953 Q110.758 502.953 117.96 501.665 Q125.748 500.201 129.145 496.219 Q132.482 492.179 132.482 487.728 Q132.482 482.927 128.91 478.945 Q125.28 474.905 117.492 473.675 Q109.821 472.328 92.6641 472.387 Q75.9757 472.387 69.3003 473.558 Q61.5123 475.139 58.4088 479.355 Q55.2468 483.512 55.2468 487.728 Q55.2468 489.309 55.7152 491.008 Q56.1837 492.647 57.5305 495.048 Q58.8773 497.449 62.215 499.323 Q65.5527 501.138 70.5885 502.016 Q77.0882 502.953 92.6641 502.953 Z" fill="#000000" fill-rule="nonzero" fill-opacity="1"></path><path clip-path="url(#clip000)" d="M47.8066 394.706 Q48.2984 394.214 48.9953 394.214 Q49.6921 394.214 50.184 394.706 Q50.6758 395.198 50.6758 395.894 L50.6758 448.443 Q50.6758 449.139 50.184 449.631 Q49.6921 450.123 48.9953 450.123 Q48.2984 450.123 47.8066 449.631 Q47.3147 449.139 47.3147 448.443 L47.3147 395.894 Q47.3147 395.198 47.8066 394.706 Z" fill="#000000" fill-rule="nonzero" fill-opacity="1"></path><path clip-path="url(#clip000)" d="M69.9818 385.449 Q68.4652 385.449 68.0143 385.326 Q67.5634 385.162 66.8666 384.506 L48.9133 368.397 Q38.9939 359.585 30.3451 359.585 Q24.7296 359.585 20.7127 362.536 Q16.6957 365.446 16.6957 370.816 Q16.6957 374.505 18.9501 377.62 Q21.2045 380.735 25.2215 382.17 Q25.1395 381.924 25.1395 381.063 Q25.1395 378.973 26.4512 377.825 Q27.7628 376.636 29.5254 376.636 Q31.7798 376.636 32.8865 378.112 Q33.9522 379.546 33.9522 380.981 Q33.9522 381.555 33.8292 382.334 Q33.7063 383.072 32.5586 384.26 Q31.3699 385.449 29.2794 385.449 Q23.418 385.449 18.7452 381.022 Q14.0724 376.554 14.0724 369.75 Q14.0724 362.044 18.6632 357.002 Q23.213 351.92 30.3451 351.92 Q32.8455 351.92 35.1409 352.698 Q37.3953 353.436 39.1578 354.461 Q40.9204 355.445 43.7486 358.15 Q46.5769 360.855 48.5854 363.028 Q50.5938 365.2 54.8567 370.078 L63.5055 378.973 L63.5055 363.848 Q63.5055 356.469 62.8496 355.896 Q61.661 355.076 55.3896 354.051 L55.3896 351.92 L69.9818 354.297 L69.9818 385.449 Z" fill="#000000" fill-rule="nonzero" fill-opacity="1"></path><path clip-path="url(#clip000)" d="M134.198 318.275 Q133.604 318.275 132.119 316.731 Q112.162 297.13 74.5631 297.13 Q36.8458 297.13 17.7793 315.959 Q15.5816 318.275 14.9283 318.275 Q13.7403 318.275 13.7403 317.088 Q13.7403 316.256 16.1756 313.346 Q18.6109 310.376 24.1942 305.921 Q29.7776 301.407 36.6083 298.08 Q53.1801 290.062 74.5631 290.062 Q95.1145 290.062 111.686 297.724 Q118.636 300.991 124.457 305.564 Q130.278 310.138 132.832 313.167 Q135.386 316.197 135.386 317.088 Q135.386 318.275 134.198 318.275 Z" fill="#000000" fill-rule="nonzero" fill-opacity="1"></path><polyline clip-path="url(#clip002)" style="stroke:#e31a1c; stroke-linecap:round; stroke-linejoin:round; stroke-width:16; stroke-opacity:1; fill:none" points="416.312,1292.16 443.982,1221.62 471.652,1149.27 499.323,1074.57 526.993,998.729 554.663,923.952 582.334,852.481 610.004,785.912 637.674,725.051 665.345,670.067 693.015,620.719 720.686,576.56 748.356,537.058 776.026,501.677 803.697,469.916 831.367,441.323 859.037,415.501 886.708,392.104 914.378,370.835 942.048,351.436 969.719,333.688 997.389,317.399 1025.06,302.407 1052.73,288.57 1080.4,275.765 1108.07,263.885 1135.74,252.838 1163.41,242.541 1191.08,232.924 1218.75,223.922 1246.42,215.481 1274.09,207.55 1301.76,200.087 1329.43,193.052 1357.1,186.409 1384.77,180.128 1412.44,174.181 1440.11,168.542 1467.79,163.187 1495.46,158.098 1523.13,153.253 1550.8,148.638 1578.47,144.235 1606.14,140.031 1633.81,136.012 1661.48,132.168 1689.15,128.487 1716.82,124.958 1744.49,121.573 1772.16,118.324 1799.83,115.201 1827.5,112.199 1855.17,109.31 1882.84,106.529 1910.51,103.848 1938.18,101.264 1965.85,98.7701 1993.52,96.3627 2021.19,94.0372 2048.86,91.7894 2076.53,89.6157 2104.2,87.5123 2131.87,85.476 2159.54,83.5037 "></polyline>
<polyline clip-path="url(#clip002)" style="stroke:#377db8; stroke-linecap:round; stroke-linejoin:round; stroke-width:16; stroke-opacity:1; fill:none" points="416.312,1292.16 443.982,1212.27 471.652,1138.9 499.323,1076.62 526.993,1026.37 554.663,985.549 582.334,950.072 610.004,916.528 637.674,883.158 665.345,849.605 693.015,816.249 720.686,783.666 748.356,752.356 776.026,722.649 803.697,694.724 831.367,668.633 859.037,644.352 886.708,621.804 914.378,600.885 942.048,581.482 969.719,563.474 997.389,546.747 1025.06,531.191 1052.73,516.704 1080.4,503.193 1108.07,490.573 1135.74,478.766 1163.41,467.702 1191.08,457.319 1218.75,447.56 1246.42,438.372 1274.09,429.711 1301.76,421.534 1329.43,413.804 1357.1,406.485 1384.77,399.549 1412.44,392.966 1440.11,386.711 1467.79,380.761 1495.46,375.094 1523.13,369.693 1550.8,364.537 1578.47,359.613 1606.14,354.905 1633.81,350.398 1661.48,346.082 1689.15,341.944 1716.82,337.974 1744.49,334.161 1772.16,330.497 1799.83,326.974 1827.5,323.583 1855.17,320.318 1882.84,317.171 1910.51,314.137 1938.18,311.209 1965.85,308.382 1993.52,305.651 2021.19,303.011 2048.86,300.459 2076.53,297.988 2104.2,295.597 2131.87,293.28 2159.54,291.036 "></polyline>
<polyline clip-path="url(#clip002)" style="stroke:#4dae49; stroke-linecap:round; stroke-linejoin:round; stroke-width:16; stroke-opacity:1; fill:none" points="416.312,1292.16 443.982,1263.09 471.652,1231.42 499.323,1195.58 526.993,1157.76 554.663,1122.22 582.334,1091.66 610.004,1066.17 637.674,1044.36 665.345,1024.56 693.015,1005.58 720.686,986.822 748.356,968.122 776.026,949.565 803.697,931.324 831.367,913.575 859.037,896.458 886.708,880.069 914.378,864.462 942.048,849.658 969.719,835.656 997.389,822.436 1025.06,809.967 1052.73,798.214 1080.4,787.136 1108.07,776.692 1135.74,766.842 1163.41,757.546 1191.08,748.766 1218.75,740.467 1246.42,732.615 1274.09,725.179 1301.76,718.13 1329.43,711.442 1357.1,705.09 1384.77,699.05 1412.44,693.303 1440.11,687.828 1467.79,682.608 1495.46,677.626 1523.13,672.868 1550.8,668.319 1578.47,663.967 1606.14,659.799 1633.81,655.804 1661.48,651.973 1689.15,648.295 1716.82,644.762 1744.49,641.367 1772.16,638.1 1799.83,634.956 1827.5,631.927 1855.17,629.008 1882.84,626.193 1910.51,623.477 1938.18,620.854 1965.85,618.32 1993.52,615.87 2021.19,613.501 2048.86,611.209 2076.53,608.99 2104.2,606.84 2131.87,604.757 2159.54,602.738 "></polyline>
<polyline clip-path="url(#clip002)" style="stroke:#974ea2; stroke-linecap:round; stroke-linejoin:round; stroke-width:16; stroke-opacity:1; fill:none" points="416.312,1292.16 443.982,1286.55 471.652,1272.22 499.323,1253.08 526.993,1230.77 554.663,1206.42 582.334,1182.33 610.004,1160.62 637.674,1142.16 665.345,1126.63 693.015,1113.26 720.686,1101.21 748.356,1089.87 776.026,1078.87 803.697,1068.06 831.367,1057.38 859.037,1046.86 886.708,1036.56 914.378,1026.53 942.048,1016.82 969.719,1007.47 997.389,998.483 1025.06,989.887 1052.73,981.678 1080.4,973.854 1108.07,966.404 1135.74,959.316 1163.41,952.575 1191.08,946.164 1218.75,940.068 1246.42,934.27 1274.09,928.753 1301.76,923.5 1329.43,918.497 1357.1,913.73 1384.77,909.183 1412.44,904.844 1440.11,900.7 1467.79,896.741 1495.46,892.954 1523.13,889.331 1550.8,885.861 1578.47,882.536 1606.14,879.347 1633.81,876.287 1661.48,873.349 1689.15,870.525 1716.82,867.811 1744.49,865.199 1772.16,862.684 1799.83,860.262 1827.5,857.927 1855.17,855.675 1882.84,853.502 1910.51,851.404 1938.18,849.377 1965.85,847.418 1993.52,845.524 2021.19,843.691 2048.86,841.916 2076.53,840.198 2104.2,838.533 2131.87,836.92 2159.54,835.355 "></polyline>
<polyline clip-path="url(#clip002)" style="stroke:#ff7e00; stroke-linecap:round; stroke-linejoin:round; stroke-width:16; stroke-opacity:1; fill:none" points="416.312,1292.16 443.982,1291.21 471.652,1285.88 499.323,1275.87 526.993,1262.96 554.663,1247.96 582.334,1231.49 610.004,1214.88 637.674,1199.58 665.345,1186.34 693.015,1175.25 720.686,1165.96 748.356,1158.01 776.026,1150.97 803.697,1144.5 831.367,1138.37 859.037,1132.46 886.708,1126.69 914.378,1121.04 942.048,1115.51 969.719,1110.11 997.389,1104.84 1025.06,1099.72 1052.73,1094.77 1080.4,1089.98 1108.07,1085.37 1135.74,1080.93 1163.41,1076.67 1191.08,1072.58 1218.75,1068.66 1246.42,1064.91 1274.09,1061.31 1301.76,1057.87 1329.43,1054.57 1357.1,1051.42 1384.77,1048.39 1412.44,1045.5 1440.11,1042.72 1467.79,1040.06 1495.46,1037.51 1523.13,1035.06 1550.8,1032.71 1578.47,1030.45 1606.14,1028.28 1633.81,1026.2 1661.48,1024.19 1689.15,1022.26 1716.82,1020.4 1744.49,1018.61 1772.16,1016.88 1799.83,1015.22 1827.5,1013.61 1855.17,1012.06 1882.84,1010.57 1910.51,1009.12 1938.18,1007.72 1965.85,1006.37 1993.52,1005.06 2021.19,1003.79 2048.86,1002.57 2076.53,1001.38 2104.2,1000.23 2131.87,999.108 2159.54,998.024 "></polyline>
<path clip-path="url(#clip002)" d="M416.312 1264.16 L388.312 1292.16 L416.312 1320.16 L444.312 1292.16 L416.312 1264.16 Z" fill="#e31a1c" fill-rule="evenodd" fill-opacity="1" stroke="#000000" stroke-opacity="1" stroke-width="0"></path>
<path clip-path="url(#clip002)" d="M499.323 1042.3 L471.323 1070.3 L499.323 1098.3 L527.323 1070.3 L499.323 1042.3 Z" fill="#e31a1c" fill-rule="evenodd" fill-opacity="1" stroke="#000000" stroke-opacity="1" stroke-width="0"></path>
<path clip-path="url(#clip002)" d="M582.334 800.392 L554.334 828.392 L582.334 856.392 L610.334 828.392 L582.334 800.392 Z" fill="#e31a1c" fill-rule="evenodd" fill-opacity="1" stroke="#000000" stroke-opacity="1" stroke-width="0"></path>
<path clip-path="url(#clip002)" d="M665.345 607.489 L637.345 635.489 L665.345 663.489 L693.345 635.489 L665.345 607.489 Z" fill="#e31a1c" fill-rule="evenodd" fill-opacity="1" stroke="#000000" stroke-opacity="1" stroke-width="0"></path>
<path clip-path="url(#clip002)" d="M748.356 481.221 L720.356 509.221 L748.356 537.221 L776.356 509.221 L748.356 481.221 Z" fill="#e31a1c" fill-rule="evenodd" fill-opacity="1" stroke="#000000" stroke-opacity="1" stroke-width="0"></path>
<path clip-path="url(#clip002)" d="M831.367 399.42 L803.367 427.42 L831.367 455.42 L859.367 427.42 L831.367 399.42 Z" fill="#e31a1c" fill-rule="evenodd" fill-opacity="1" stroke="#000000" stroke-opacity="1" stroke-width="0"></path>
<path clip-path="url(#clip002)" d="M914.378 343.555 L886.378 371.555 L914.378 399.555 L942.378 371.555 L914.378 343.555 Z" fill="#e31a1c" fill-rule="evenodd" fill-opacity="1" stroke="#000000" stroke-opacity="1" stroke-width="0"></path>
<path clip-path="url(#clip002)" d="M997.389 303.177 L969.389 331.177 L997.389 359.177 L1025.39 331.177 L997.389 303.177 Z" fill="#e31a1c" fill-rule="evenodd" fill-opacity="1" stroke="#000000" stroke-opacity="1" stroke-width="0"></path>
<path clip-path="url(#clip002)" d="M1080.4 272.605 L1052.4 300.605 L1080.4 328.605 L1108.4 300.605 L1080.4 272.605 Z" fill="#e31a1c" fill-rule="evenodd" fill-opacity="1" stroke="#000000" stroke-opacity="1" stroke-width="0"></path>
<path clip-path="url(#clip002)" d="M1163.41 248.61 L1135.41 276.61 L1163.41 304.61 L1191.41 276.61 L1163.41 248.61 Z" fill="#e31a1c" fill-rule="evenodd" fill-opacity="1" stroke="#000000" stroke-opacity="1" stroke-width="0"></path>
<path clip-path="url(#clip002)" d="M1246.42 229.246 L1218.42 257.246 L1246.42 285.246 L1274.42 257.246 L1246.42 229.246 Z" fill="#e31a1c" fill-rule="evenodd" fill-opacity="1" stroke="#000000" stroke-opacity="1" stroke-width="0"></path>
<path clip-path="url(#clip002)" d="M1329.43 213.271 L1301.43 241.271 L1329.43 269.271 L1357.43 241.271 L1329.43 213.271 Z" fill="#e31a1c" fill-rule="evenodd" fill-opacity="1" stroke="#000000" stroke-opacity="1" stroke-width="0"></path>
<path clip-path="url(#clip002)" d="M1412.44 199.856 L1384.44 227.856 L1412.44 255.856 L1440.44 227.856 L1412.44 199.856 Z" fill="#e31a1c" fill-rule="evenodd" fill-opacity="1" stroke="#000000" stroke-opacity="1" stroke-width="0"></path>
<path clip-path="url(#clip002)" d="M1495.46 188.424 L1467.46 216.424 L1495.46 244.424 L1523.46 216.424 L1495.46 188.424 Z" fill="#e31a1c" fill-rule="evenodd" fill-opacity="1" stroke="#000000" stroke-opacity="1" stroke-width="0"></path>
<path clip-path="url(#clip002)" d="M1578.47 178.561 L1550.47 206.561 L1578.47 234.561 L1606.47 206.561 L1578.47 178.561 Z" fill="#e31a1c" fill-rule="evenodd" fill-opacity="1" stroke="#000000" stroke-opacity="1" stroke-width="0"></path>
<path clip-path="url(#clip002)" d="M1661.48 169.958 L1633.48 197.958 L1661.48 225.958 L1689.48 197.958 L1661.48 169.958 Z" fill="#e31a1c" fill-rule="evenodd" fill-opacity="1" stroke="#000000" stroke-opacity="1" stroke-width="0"></path>
<path clip-path="url(#clip002)" d="M1744.49 162.373 L1716.49 190.373 L1744.49 218.373 L1772.49 190.373 L1744.49 162.373 Z" fill="#e31a1c" fill-rule="evenodd" fill-opacity="1" stroke="#000000" stroke-opacity="1" stroke-width="0"></path>
<path clip-path="url(#clip002)" d="M1827.5 155.604 L1799.5 183.604 L1827.5 211.604 L1855.5 183.604 L1827.5 155.604 Z" fill="#e31a1c" fill-rule="evenodd" fill-opacity="1" stroke="#000000" stroke-opacity="1" stroke-width="0"></path>
<path clip-path="url(#clip002)" d="M1910.51 149.489 L1882.51 177.489 L1910.51 205.489 L1938.51 177.489 L1910.51 149.489 Z" fill="#e31a1c" fill-rule="evenodd" fill-opacity="1" stroke="#000000" stroke-opacity="1" stroke-width="0"></path>
<path clip-path="url(#clip002)" d="M1993.52 143.901 L1965.52 171.901 L1993.52 199.901 L2021.52 171.901 L1993.52 143.901 Z" fill="#e31a1c" fill-rule="evenodd" fill-opacity="1" stroke="#000000" stroke-opacity="1" stroke-width="0"></path>
<path clip-path="url(#clip002)" d="M2076.53 138.773 L2048.53 166.773 L2076.53 194.773 L2104.53 166.773 L2076.53 138.773 Z" fill="#e31a1c" fill-rule="evenodd" fill-opacity="1" stroke="#000000" stroke-opacity="1" stroke-width="0"></path>
<path clip-path="url(#clip002)" d="M2159.54 134.103 L2131.54 162.103 L2159.54 190.103 L2187.54 162.103 L2159.54 134.103 Z" fill="#e31a1c" fill-rule="evenodd" fill-opacity="1" stroke="#000000" stroke-opacity="1" stroke-width="0"></path>
<path clip-path="url(#clip002)" d="M416.312 1264.16 L388.312 1292.16 L416.312 1320.16 L444.312 1292.16 L416.312 1264.16 Z" fill="#377db8" fill-rule="evenodd" fill-opacity="1" stroke="#000000" stroke-opacity="1" stroke-width="0"></path>
<path clip-path="url(#clip002)" d="M499.323 1047.09 L471.323 1075.09 L499.323 1103.09 L527.323 1075.09 L499.323 1047.09 Z" fill="#377db8" fill-rule="evenodd" fill-opacity="1" stroke="#000000" stroke-opacity="1" stroke-width="0"></path>
<path clip-path="url(#clip002)" d="M582.334 927.315 L554.334 955.315 L582.334 983.315 L610.334 955.315 L582.334 927.315 Z" fill="#377db8" fill-rule="evenodd" fill-opacity="1" stroke="#000000" stroke-opacity="1" stroke-width="0"></path>
<path clip-path="url(#clip002)" d="M665.345 813.201 L637.345 841.201 L665.345 869.201 L693.345 841.201 L665.345 813.201 Z" fill="#377db8" fill-rule="evenodd" fill-opacity="1" stroke="#000000" stroke-opacity="1" stroke-width="0"></path>
<path clip-path="url(#clip002)" d="M748.356 692.821 L720.356 720.821 L748.356 748.821 L776.356 720.821 L748.356 692.821 Z" fill="#377db8" fill-rule="evenodd" fill-opacity="1" stroke="#000000" stroke-opacity="1" stroke-width="0"></path>
<path clip-path="url(#clip002)" d="M831.367 594.78 L803.367 622.78 L831.367 650.78 L859.367 622.78 L831.367 594.78 Z" fill="#377db8" fill-rule="evenodd" fill-opacity="1" stroke="#000000" stroke-opacity="1" stroke-width="0"></path>
<path clip-path="url(#clip002)" d="M914.378 520.534 L886.378 548.534 L914.378 576.534 L942.378 548.534 L914.378 520.534 Z" fill="#377db8" fill-rule="evenodd" fill-opacity="1" stroke="#000000" stroke-opacity="1" stroke-width="0"></path>
<path clip-path="url(#clip002)" d="M997.389 464.222 L969.389 492.222 L997.389 520.222 L1025.39 492.222 L997.389 464.222 Z" fill="#377db8" fill-rule="evenodd" fill-opacity="1" stroke="#000000" stroke-opacity="1" stroke-width="0"></path>
<path clip-path="url(#clip002)" d="M1080.4 420.614 L1052.4 448.614 L1080.4 476.614 L1108.4 448.614 L1080.4 420.614 Z" fill="#377db8" fill-rule="evenodd" fill-opacity="1" stroke="#000000" stroke-opacity="1" stroke-width="0"></path>
<path clip-path="url(#clip002)" d="M1163.41 386.041 L1135.41 414.041 L1163.41 442.041 L1191.41 414.041 L1163.41 386.041 Z" fill="#377db8" fill-rule="evenodd" fill-opacity="1" stroke="#000000" stroke-opacity="1" stroke-width="0"></path>
<path clip-path="url(#clip002)" d="M1246.42 358.03 L1218.42 386.03 L1246.42 414.03 L1274.42 386.03 L1246.42 358.03 Z" fill="#377db8" fill-rule="evenodd" fill-opacity="1" stroke="#000000" stroke-opacity="1" stroke-width="0"></path>
<path clip-path="url(#clip002)" d="M1329.43 334.899 L1301.43 362.899 L1329.43 390.899 L1357.43 362.899 L1329.43 334.899 Z" fill="#377db8" fill-rule="evenodd" fill-opacity="1" stroke="#000000" stroke-opacity="1" stroke-width="0"></path>
<path clip-path="url(#clip002)" d="M1412.44 315.483 L1384.44 343.483 L1412.44 371.483 L1440.44 343.483 L1412.44 315.483 Z" fill="#377db8" fill-rule="evenodd" fill-opacity="1" stroke="#000000" stroke-opacity="1" stroke-width="0"></path>
<path clip-path="url(#clip002)" d="M1495.46 298.952 L1467.46 326.952 L1495.46 354.952 L1523.46 326.952 L1495.46 298.952 Z" fill="#377db8" fill-rule="evenodd" fill-opacity="1" stroke="#000000" stroke-opacity="1" stroke-width="0"></path>
<path clip-path="url(#clip002)" d="M1578.47 284.708 L1550.47 312.708 L1578.47 340.708 L1606.47 312.708 L1578.47 284.708 Z" fill="#377db8" fill-rule="evenodd" fill-opacity="1" stroke="#000000" stroke-opacity="1" stroke-width="0"></path>
<path clip-path="url(#clip002)" d="M1661.48 272.323 L1633.48 300.323 L1661.48 328.323 L1689.48 300.323 L1661.48 272.323 Z" fill="#377db8" fill-rule="evenodd" fill-opacity="1" stroke="#000000" stroke-opacity="1" stroke-width="0"></path>
<path clip-path="url(#clip002)" d="M1744.49 261.518 L1716.49 289.518 L1744.49 317.518 L1772.49 289.518 L1744.49 261.518 Z" fill="#377db8" fill-rule="evenodd" fill-opacity="1" stroke="#000000" stroke-opacity="1" stroke-width="0"></path>
<path clip-path="url(#clip002)" d="M1827.5 252.116 L1799.5 280.116 L1827.5 308.116 L1855.5 280.116 L1827.5 252.116 Z" fill="#377db8" fill-rule="evenodd" fill-opacity="1" stroke="#000000" stroke-opacity="1" stroke-width="0"></path>
<path clip-path="url(#clip002)" d="M1910.51 243.982 L1882.51 271.982 L1910.51 299.982 L1938.51 271.982 L1910.51 243.982 Z" fill="#377db8" fill-rule="evenodd" fill-opacity="1" stroke="#000000" stroke-opacity="1" stroke-width="0"></path>
<path clip-path="url(#clip002)" d="M1993.52 236.953 L1965.52 264.953 L1993.52 292.953 L2021.52 264.953 L1993.52 236.953 Z" fill="#377db8" fill-rule="evenodd" fill-opacity="1" stroke="#000000" stroke-opacity="1" stroke-width="0"></path>
<path clip-path="url(#clip002)" d="M2076.53 230.803 L2048.53 258.803 L2076.53 286.803 L2104.53 258.803 L2076.53 230.803 Z" fill="#377db8" fill-rule="evenodd" fill-opacity="1" stroke="#000000" stroke-opacity="1" stroke-width="0"></path>
<path clip-path="url(#clip002)" d="M2159.54 225.242 L2131.54 253.242 L2159.54 281.242 L2187.54 253.242 L2159.54 225.242 Z" fill="#377db8" fill-rule="evenodd" fill-opacity="1" stroke="#000000" stroke-opacity="1" stroke-width="0"></path>
<path clip-path="url(#clip002)" d="M416.312 1264.16 L388.312 1292.16 L416.312 1320.16 L444.312 1292.16 L416.312 1264.16 Z" fill="#4dae49" fill-rule="evenodd" fill-opacity="1" stroke="#000000" stroke-opacity="1" stroke-width="0"></path>
<path clip-path="url(#clip002)" d="M499.323 1164.33 L471.323 1192.33 L499.323 1220.33 L527.323 1192.33 L499.323 1164.33 Z" fill="#4dae49" fill-rule="evenodd" fill-opacity="1" stroke="#000000" stroke-opacity="1" stroke-width="0"></path>
<path clip-path="url(#clip002)" d="M582.334 1046.52 L554.334 1074.52 L582.334 1102.52 L610.334 1074.52 L582.334 1046.52 Z" fill="#4dae49" fill-rule="evenodd" fill-opacity="1" stroke="#000000" stroke-opacity="1" stroke-width="0"></path>
<path clip-path="url(#clip002)" d="M665.345 978.505 L637.345 1006.51 L665.345 1034.51 L693.345 1006.51 L665.345 978.505 Z" fill="#4dae49" fill-rule="evenodd" fill-opacity="1" stroke="#000000" stroke-opacity="1" stroke-width="0"></path>
<path clip-path="url(#clip002)" d="M748.356 906.643 L720.356 934.643 L748.356 962.643 L776.356 934.643 L748.356 906.643 Z" fill="#4dae49" fill-rule="evenodd" fill-opacity="1" stroke="#000000" stroke-opacity="1" stroke-width="0"></path>
<path clip-path="url(#clip002)" d="M831.367 831.268 L803.367 859.268 L831.367 887.268 L859.367 859.268 L831.367 831.268 Z" fill="#4dae49" fill-rule="evenodd" fill-opacity="1" stroke="#000000" stroke-opacity="1" stroke-width="0"></path>
<path clip-path="url(#clip002)" d="M914.378 765.891 L886.378 793.891 L914.378 821.891 L942.378 793.891 L914.378 765.891 Z" fill="#4dae49" fill-rule="evenodd" fill-opacity="1" stroke="#000000" stroke-opacity="1" stroke-width="0"></path>
<path clip-path="url(#clip002)" d="M997.389 712.895 L969.389 740.895 L997.389 768.895 L1025.39 740.895 L997.389 712.895 Z" fill="#4dae49" fill-rule="evenodd" fill-opacity="1" stroke="#000000" stroke-opacity="1" stroke-width="0"></path>
<path clip-path="url(#clip002)" d="M1080.4 670.461 L1052.4 698.461 L1080.4 726.461 L1108.4 698.461 L1080.4 670.461 Z" fill="#4dae49" fill-rule="evenodd" fill-opacity="1" stroke="#000000" stroke-opacity="1" stroke-width="0"></path>
<path clip-path="url(#clip002)" d="M1163.41 636.253 L1135.41 664.253 L1163.41 692.253 L1191.41 664.253 L1163.41 636.253 Z" fill="#4dae49" fill-rule="evenodd" fill-opacity="1" stroke="#000000" stroke-opacity="1" stroke-width="0"></path>
<path clip-path="url(#clip002)" d="M1246.42 608.325 L1218.42 636.325 L1246.42 664.325 L1274.42 636.325 L1246.42 608.325 Z" fill="#4dae49" fill-rule="evenodd" fill-opacity="1" stroke="#000000" stroke-opacity="1" stroke-width="0"></path>
<path clip-path="url(#clip002)" d="M1329.43 585.208 L1301.43 613.208 L1329.43 641.208 L1357.43 613.208 L1329.43 585.208 Z" fill="#4dae49" fill-rule="evenodd" fill-opacity="1" stroke="#000000" stroke-opacity="1" stroke-width="0"></path>
<path clip-path="url(#clip002)" d="M1412.44 565.819 L1384.44 593.819 L1412.44 621.819 L1440.44 593.819 L1412.44 565.819 Z" fill="#4dae49" fill-rule="evenodd" fill-opacity="1" stroke="#000000" stroke-opacity="1" stroke-width="0"></path>
<path clip-path="url(#clip002)" d="M1495.46 549.363 L1467.46 577.363 L1495.46 605.363 L1523.46 577.363 L1495.46 549.363 Z" fill="#4dae49" fill-rule="evenodd" fill-opacity="1" stroke="#000000" stroke-opacity="1" stroke-width="0"></path>
<path clip-path="url(#clip002)" d="M1578.47 535.235 L1550.47 563.235 L1578.47 591.235 L1606.47 563.235 L1578.47 535.235 Z" fill="#4dae49" fill-rule="evenodd" fill-opacity="1" stroke="#000000" stroke-opacity="1" stroke-width="0"></path>
<path clip-path="url(#clip002)" d="M1661.48 522.93 L1633.48 550.93 L1661.48 578.93 L1689.48 550.93 L1661.48 522.93 Z" fill="#4dae49" fill-rule="evenodd" fill-opacity="1" stroke="#000000" stroke-opacity="1" stroke-width="0"></path>
<path clip-path="url(#clip002)" d="M1744.49 512.009 L1716.49 540.009 L1744.49 568.009 L1772.49 540.009 L1744.49 512.009 Z" fill="#4dae49" fill-rule="evenodd" fill-opacity="1" stroke="#000000" stroke-opacity="1" stroke-width="0"></path>
<path clip-path="url(#clip002)" d="M1827.5 502.14 L1799.5 530.14 L1827.5 558.14 L1855.5 530.14 L1827.5 502.14 Z" fill="#4dae49" fill-rule="evenodd" fill-opacity="1" stroke="#000000" stroke-opacity="1" stroke-width="0"></path>
<path clip-path="url(#clip002)" d="M1910.51 493.148 L1882.51 521.148 L1910.51 549.148 L1938.51 521.148 L1910.51 493.148 Z" fill="#4dae49" fill-rule="evenodd" fill-opacity="1" stroke="#000000" stroke-opacity="1" stroke-width="0"></path>
<path clip-path="url(#clip002)" d="M1993.52 484.999 L1965.52 512.999 L1993.52 540.999 L2021.52 512.999 L1993.52 484.999 Z" fill="#4dae49" fill-rule="evenodd" fill-opacity="1" stroke="#000000" stroke-opacity="1" stroke-width="0"></path>
<path clip-path="url(#clip002)" d="M2076.53 477.716 L2048.53 505.716 L2076.53 533.716 L2104.53 505.716 L2076.53 477.716 Z" fill="#4dae49" fill-rule="evenodd" fill-opacity="1" stroke="#000000" stroke-opacity="1" stroke-width="0"></path>
<path clip-path="url(#clip002)" d="M2159.54 471.273 L2131.54 499.273 L2159.54 527.273 L2187.54 499.273 L2159.54 471.273 Z" fill="#4dae49" fill-rule="evenodd" fill-opacity="1" stroke="#000000" stroke-opacity="1" stroke-width="0"></path>
<path clip-path="url(#clip002)" d="M416.312 1264.16 L388.312 1292.16 L416.312 1320.16 L444.312 1292.16 L416.312 1264.16 Z" fill="#974ea2" fill-rule="evenodd" fill-opacity="1" stroke="#000000" stroke-opacity="1" stroke-width="0"></path>
<path clip-path="url(#clip002)" d="M499.323 1219.79 L471.323 1247.79 L499.323 1275.79 L527.323 1247.79 L499.323 1219.79 Z" fill="#974ea2" fill-rule="evenodd" fill-opacity="1" stroke="#000000" stroke-opacity="1" stroke-width="0"></path>
<path clip-path="url(#clip002)" d="M582.334 1136.38 L554.334 1164.38 L582.334 1192.38 L610.334 1164.38 L582.334 1136.38 Z" fill="#974ea2" fill-rule="evenodd" fill-opacity="1" stroke="#000000" stroke-opacity="1" stroke-width="0"></path>
<path clip-path="url(#clip002)" d="M665.345 1074.93 L637.345 1102.93 L665.345 1130.93 L693.345 1102.93 L665.345 1074.93 Z" fill="#974ea2" fill-rule="evenodd" fill-opacity="1" stroke="#000000" stroke-opacity="1" stroke-width="0"></path>
<path clip-path="url(#clip002)" d="M748.356 1033.82 L720.356 1061.82 L748.356 1089.82 L776.356 1061.82 L748.356 1033.82 Z" fill="#974ea2" fill-rule="evenodd" fill-opacity="1" stroke="#000000" stroke-opacity="1" stroke-width="0"></path>
<path clip-path="url(#clip002)" d="M831.367 986.44 L803.367 1014.44 L831.367 1042.44 L859.367 1014.44 L831.367 986.44 Z" fill="#974ea2" fill-rule="evenodd" fill-opacity="1" stroke="#000000" stroke-opacity="1" stroke-width="0"></path>
<path clip-path="url(#clip002)" d="M914.378 938.727 L886.378 966.727 L914.378 994.727 L942.378 966.727 L914.378 938.727 Z" fill="#974ea2" fill-rule="evenodd" fill-opacity="1" stroke="#000000" stroke-opacity="1" stroke-width="0"></path>
<path clip-path="url(#clip002)" d="M997.389 896.696 L969.389 924.696 L997.389 952.696 L1025.39 924.696 L997.389 896.696 Z" fill="#974ea2" fill-rule="evenodd" fill-opacity="1" stroke="#000000" stroke-opacity="1" stroke-width="0"></path>
<path clip-path="url(#clip002)" d="M1080.4 861.538 L1052.4 889.538 L1080.4 917.538 L1108.4 889.538 L1080.4 861.538 Z" fill="#974ea2" fill-rule="evenodd" fill-opacity="1" stroke="#000000" stroke-opacity="1" stroke-width="0"></path>
<path clip-path="url(#clip002)" d="M1163.41 832.531 L1135.41 860.531 L1163.41 888.531 L1191.41 860.531 L1163.41 832.531 Z" fill="#974ea2" fill-rule="evenodd" fill-opacity="1" stroke="#000000" stroke-opacity="1" stroke-width="0"></path>
<path clip-path="url(#clip002)" d="M1246.42 808.563 L1218.42 836.563 L1246.42 864.563 L1274.42 836.563 L1246.42 808.563 Z" fill="#974ea2" fill-rule="evenodd" fill-opacity="1" stroke="#000000" stroke-opacity="1" stroke-width="0"></path>
<path clip-path="url(#clip002)" d="M1329.43 788.611 L1301.43 816.611 L1329.43 844.611 L1357.43 816.611 L1329.43 788.611 Z" fill="#974ea2" fill-rule="evenodd" fill-opacity="1" stroke="#000000" stroke-opacity="1" stroke-width="0"></path>
<path clip-path="url(#clip002)" d="M1412.44 771.84 L1384.44 799.84 L1412.44 827.84 L1440.44 799.84 L1412.44 771.84 Z" fill="#974ea2" fill-rule="evenodd" fill-opacity="1" stroke="#000000" stroke-opacity="1" stroke-width="0"></path>
<path clip-path="url(#clip002)" d="M1495.46 757.597 L1467.46 785.597 L1495.46 813.597 L1523.46 785.597 L1495.46 757.597 Z" fill="#974ea2" fill-rule="evenodd" fill-opacity="1" stroke="#000000" stroke-opacity="1" stroke-width="0"></path>
<path clip-path="url(#clip002)" d="M1578.47 745.409 L1550.47 773.409 L1578.47 801.409 L1606.47 773.409 L1578.47 745.409 Z" fill="#974ea2" fill-rule="evenodd" fill-opacity="1" stroke="#000000" stroke-opacity="1" stroke-width="0"></path>
<path clip-path="url(#clip002)" d="M1661.48 734.951 L1633.48 762.951 L1661.48 790.951 L1689.48 762.951 L1661.48 734.951 Z" fill="#974ea2" fill-rule="evenodd" fill-opacity="1" stroke="#000000" stroke-opacity="1" stroke-width="0"></path>
<path clip-path="url(#clip002)" d="M1744.49 725.94 L1716.49 753.94 L1744.49 781.94 L1772.49 753.94 L1744.49 725.94 Z" fill="#974ea2" fill-rule="evenodd" fill-opacity="1" stroke="#000000" stroke-opacity="1" stroke-width="0"></path>
<path clip-path="url(#clip002)" d="M1827.5 718.044 L1799.5 746.044 L1827.5 774.044 L1855.5 746.044 L1827.5 718.044 Z" fill="#974ea2" fill-rule="evenodd" fill-opacity="1" stroke="#000000" stroke-opacity="1" stroke-width="0"></path>
<path clip-path="url(#clip002)" d="M1910.51 710.929 L1882.51 738.929 L1910.51 766.929 L1938.51 738.929 L1910.51 710.929 Z" fill="#974ea2" fill-rule="evenodd" fill-opacity="1" stroke="#000000" stroke-opacity="1" stroke-width="0"></path>
<path clip-path="url(#clip002)" d="M1993.52 704.379 L1965.52 732.379 L1993.52 760.379 L2021.52 732.379 L1993.52 704.379 Z" fill="#974ea2" fill-rule="evenodd" fill-opacity="1" stroke="#000000" stroke-opacity="1" stroke-width="0"></path>
<path clip-path="url(#clip002)" d="M2076.53 698.357 L2048.53 726.357 L2076.53 754.357 L2104.53 726.357 L2076.53 698.357 Z" fill="#974ea2" fill-rule="evenodd" fill-opacity="1" stroke="#000000" stroke-opacity="1" stroke-width="0"></path>
<path clip-path="url(#clip002)" d="M2159.54 692.958 L2131.54 720.958 L2159.54 748.958 L2187.54 720.958 L2159.54 692.958 Z" fill="#974ea2" fill-rule="evenodd" fill-opacity="1" stroke="#000000" stroke-opacity="1" stroke-width="0"></path>
<path clip-path="url(#clip002)" d="M416.312 1264.16 L388.312 1292.16 L416.312 1320.16 L444.312 1292.16 L416.312 1264.16 Z" fill="#ff7e00" fill-rule="evenodd" fill-opacity="1" stroke="#000000" stroke-opacity="1" stroke-width="0"></path>
<path clip-path="url(#clip002)" d="M499.323 1243.19 L471.323 1271.19 L499.323 1299.19 L527.323 1271.19 L499.323 1243.19 Z" fill="#ff7e00" fill-rule="evenodd" fill-opacity="1" stroke="#000000" stroke-opacity="1" stroke-width="0"></path>
<path clip-path="url(#clip002)" d="M582.334 1189.91 L554.334 1217.91 L582.334 1245.91 L610.334 1217.91 L582.334 1189.91 Z" fill="#ff7e00" fill-rule="evenodd" fill-opacity="1" stroke="#000000" stroke-opacity="1" stroke-width="0"></path>
<path clip-path="url(#clip002)" d="M665.345 1134.71 L637.345 1162.71 L665.345 1190.71 L693.345 1162.71 L665.345 1134.71 Z" fill="#ff7e00" fill-rule="evenodd" fill-opacity="1" stroke="#000000" stroke-opacity="1" stroke-width="0"></path>
<path clip-path="url(#clip002)" d="M748.356 1105.62 L720.356 1133.62 L748.356 1161.62 L776.356 1133.62 L748.356 1105.62 Z" fill="#ff7e00" fill-rule="evenodd" fill-opacity="1" stroke="#000000" stroke-opacity="1" stroke-width="0"></path>
<path clip-path="url(#clip002)" d="M831.367 1079.02 L803.367 1107.02 L831.367 1135.02 L859.367 1107.02 L831.367 1079.02 Z" fill="#ff7e00" fill-rule="evenodd" fill-opacity="1" stroke="#000000" stroke-opacity="1" stroke-width="0"></path>
<path clip-path="url(#clip002)" d="M914.378 1048.6 L886.378 1076.6 L914.378 1104.6 L942.378 1076.6 L914.378 1048.6 Z" fill="#ff7e00" fill-rule="evenodd" fill-opacity="1" stroke="#000000" stroke-opacity="1" stroke-width="0"></path>
<path clip-path="url(#clip002)" d="M997.389 1018.72 L969.389 1046.72 L997.389 1074.72 L1025.39 1046.72 L997.389 1018.72 Z" fill="#ff7e00" fill-rule="evenodd" fill-opacity="1" stroke="#000000" stroke-opacity="1" stroke-width="0"></path>
<path clip-path="url(#clip002)" d="M1080.4 992.093 L1052.4 1020.09 L1080.4 1048.09 L1108.4 1020.09 L1080.4 992.093 Z" fill="#ff7e00" fill-rule="evenodd" fill-opacity="1" stroke="#000000" stroke-opacity="1" stroke-width="0"></path>
<path clip-path="url(#clip002)" d="M1163.41 969.324 L1135.41 997.324 L1163.41 1025.32 L1191.41 997.324 L1163.41 969.324 Z" fill="#ff7e00" fill-rule="evenodd" fill-opacity="1" stroke="#000000" stroke-opacity="1" stroke-width="0"></path>
<path clip-path="url(#clip002)" d="M1246.42 950.12 L1218.42 978.12 L1246.42 1006.12 L1274.42 978.12 L1246.42 950.12 Z" fill="#ff7e00" fill-rule="evenodd" fill-opacity="1" stroke="#000000" stroke-opacity="1" stroke-width="0"></path>
<path clip-path="url(#clip002)" d="M1329.43 933.945 L1301.43 961.945 L1329.43 989.945 L1357.43 961.945 L1329.43 933.945 Z" fill="#ff7e00" fill-rule="evenodd" fill-opacity="1" stroke="#000000" stroke-opacity="1" stroke-width="0"></path>
<path clip-path="url(#clip002)" d="M1412.44 920.278 L1384.44 948.278 L1412.44 976.278 L1440.44 948.278 L1412.44 920.278 Z" fill="#ff7e00" fill-rule="evenodd" fill-opacity="1" stroke="#000000" stroke-opacity="1" stroke-width="0"></path>
<path clip-path="url(#clip002)" d="M1495.46 908.661 L1467.46 936.661 L1495.46 964.661 L1523.46 936.661 L1495.46 908.661 Z" fill="#ff7e00" fill-rule="evenodd" fill-opacity="1" stroke="#000000" stroke-opacity="1" stroke-width="0"></path>
<path clip-path="url(#clip002)" d="M1578.47 898.692 L1550.47 926.692 L1578.47 954.692 L1606.47 926.692 L1578.47 898.692 Z" fill="#ff7e00" fill-rule="evenodd" fill-opacity="1" stroke="#000000" stroke-opacity="1" stroke-width="0"></path>
<path clip-path="url(#clip002)" d="M1661.48 890.081 L1633.48 918.081 L1661.48 946.081 L1689.48 918.081 L1661.48 890.081 Z" fill="#ff7e00" fill-rule="evenodd" fill-opacity="1" stroke="#000000" stroke-opacity="1" stroke-width="0"></path>
<path clip-path="url(#clip002)" d="M1744.49 882.691 L1716.49 910.691 L1744.49 938.691 L1772.49 910.691 L1744.49 882.691 Z" fill="#ff7e00" fill-rule="evenodd" fill-opacity="1" stroke="#000000" stroke-opacity="1" stroke-width="0"></path>
<path clip-path="url(#clip002)" d="M1827.5 876.426 L1799.5 904.426 L1827.5 932.426 L1855.5 904.426 L1827.5 876.426 Z" fill="#ff7e00" fill-rule="evenodd" fill-opacity="1" stroke="#000000" stroke-opacity="1" stroke-width="0"></path>
<path clip-path="url(#clip002)" d="M1910.51 871.077 L1882.51 899.077 L1910.51 927.077 L1938.51 899.077 L1910.51 871.077 Z" fill="#ff7e00" fill-rule="evenodd" fill-opacity="1" stroke="#000000" stroke-opacity="1" stroke-width="0"></path>
<path clip-path="url(#clip002)" d="M1993.52 866.341 L1965.52 894.341 L1993.52 922.341 L2021.52 894.341 L1993.52 866.341 Z" fill="#ff7e00" fill-rule="evenodd" fill-opacity="1" stroke="#000000" stroke-opacity="1" stroke-width="0"></path>
<path clip-path="url(#clip002)" d="M2076.53 861.991 L2048.53 889.991 L2076.53 917.991 L2104.53 889.991 L2076.53 861.991 Z" fill="#ff7e00" fill-rule="evenodd" fill-opacity="1" stroke="#000000" stroke-opacity="1" stroke-width="0"></path>
<path clip-path="url(#clip002)" d="M2159.54 857.997 L2131.54 885.997 L2159.54 913.997 L2187.54 885.997 L2159.54 857.997 Z" fill="#ff7e00" fill-rule="evenodd" fill-opacity="1" stroke="#000000" stroke-opacity="1" stroke-width="0"></path>
<path clip-path="url(#clip000)" d="M2291.47 989.736 L2752.76 989.736 L2752.76 367.656 L2291.47 367.656  Z" fill="#ffffff" fill-rule="evenodd" fill-opacity="1"></path>
<polyline clip-path="url(#clip000)" style="stroke:#000000; stroke-linecap:round; stroke-linejoin:round; stroke-width:4; stroke-opacity:1; fill:none" points="2291.47,989.736 2752.76,989.736 2752.76,367.656 2291.47,367.656 2291.47,989.736 "></polyline>
<polyline clip-path="url(#clip000)" style="stroke:#e31a1c; stroke-linecap:round; stroke-linejoin:round; stroke-width:32; stroke-opacity:1; fill:none" points="2318.01,471.336 2477.26,471.336 "></polyline>
<path clip-path="url(#clip000)" d="M2553.92 466.69 Q2553.92 473.53 2550.46 480.135 Q2547.04 486.74 2541.65 490.815 Q2536.26 494.844 2530.78 494.844 Q2527.5 494.844 2525.3 493.064 Q2523.15 491.237 2521.97 488.661 Q2521.08 491.846 2519.16 499.482 Q2517.24 507.117 2517.24 507.867 Q2517.24 508.289 2517.34 508.476 Q2517.43 508.663 2517.85 508.898 Q2518.27 509.179 2519.3 509.272 Q2520.33 509.413 2522.07 509.413 Q2522.96 509.413 2523.29 509.413 Q2523.66 509.46 2523.99 509.694 Q2524.36 509.928 2524.36 510.443 Q2524.36 512.364 2522.63 512.364 Q2521.08 512.364 2517.9 512.224 Q2514.71 512.083 2513.12 512.083 Q2511.76 512.083 2509.05 512.224 Q2506.33 512.364 2505.06 512.364 Q2503.8 512.364 2503.8 511.24 Q2503.8 510.584 2503.99 510.162 Q2504.13 509.788 2504.5 509.6 Q2504.88 509.46 2505.2 509.413 Q2505.48 509.413 2506.05 509.413 Q2508.2 509.413 2509.14 509.038 Q2510.08 508.71 2510.4 508.007 Q2510.78 507.352 2511.2 505.478 L2521.97 462.755 Q2522.63 459.898 2522.63 457.883 Q2522.63 455.354 2521.83 454.417 Q2521.04 453.48 2519.63 453.48 Q2517.2 453.48 2515.6 456.384 Q2514.01 459.289 2512.65 464.91 Q2512.23 466.456 2511.95 466.784 Q2511.72 467.112 2511.01 467.112 Q2509.84 467.065 2509.84 466.128 Q2509.84 465.894 2510.22 464.395 Q2510.59 462.849 2511.29 460.6 Q2512.04 458.305 2512.84 456.853 Q2513.31 455.869 2513.73 455.213 Q2514.15 454.557 2514.99 453.527 Q2515.88 452.496 2517.15 451.934 Q2518.41 451.372 2519.96 451.372 Q2522.96 451.372 2525.44 453.152 Q2527.92 454.932 2528.58 458.539 Q2531.25 455.401 2534.53 453.386 Q2537.81 451.372 2541.13 451.372 Q2546.66 451.372 2550.27 455.682 Q2553.92 459.945 2553.92 466.69 M2546.99 462.474 Q2546.99 458.211 2545.35 455.869 Q2543.76 453.48 2540.85 453.48 Q2537.25 453.48 2533.08 457.134 Q2528.95 460.6 2528.11 463.833 L2523.38 482.618 L2523.1 484.163 Q2523.1 484.444 2523.24 485.288 Q2523.43 486.084 2523.94 487.396 Q2524.5 488.707 2525.25 489.879 Q2526.05 491.003 2527.46 491.846 Q2528.91 492.689 2530.69 492.689 Q2533.55 492.689 2536.64 490.16 Q2539.78 487.63 2542.12 482.852 Q2543.57 479.76 2545.26 473.108 Q2546.99 466.409 2546.99 462.474 Z" fill="#000000" fill-rule="nonzero" fill-opacity="1"></path><path clip-path="url(#clip000)" d="M2578.19 479.198 Q2578.29 478.027 2580.12 478.027 L2638.91 478.027 Q2641.67 478.027 2641.72 479.104 Q2641.72 480.275 2639.09 480.228 L2580.77 480.228 Q2578.19 480.275 2578.19 479.198 M2578.19 460.46 Q2578.19 459.289 2580.21 459.336 L2638.81 459.336 Q2641.67 459.336 2641.72 460.46 Q2641.72 461.537 2639.28 461.537 L2580.12 461.537 Q2578.19 461.537 2578.19 460.46 Z" fill="#000000" fill-rule="nonzero" fill-opacity="1"></path><path clip-path="url(#clip000)" d="M2678.71 463.083 Q2678.71 448.983 2682.27 441.3 Q2687.23 429.87 2698.95 429.87 Q2701.43 429.87 2704.01 430.573 Q2706.63 431.229 2709.91 433.805 Q2713.23 436.382 2715.25 440.598 Q2719.09 448.749 2719.09 463.083 Q2719.09 477.09 2715.53 484.726 Q2710.33 495.875 2698.85 495.875 Q2694.54 495.875 2690.14 493.673 Q2685.78 491.471 2683.02 486.178 Q2678.71 478.261 2678.71 463.083 M2686.67 461.912 Q2686.67 476.387 2687.7 482.149 Q2688.87 488.379 2692.06 491.096 Q2695.29 493.767 2698.85 493.767 Q2702.69 493.767 2705.88 490.909 Q2709.11 488.005 2710.1 481.774 Q2711.17 475.638 2711.13 461.912 Q2711.13 448.561 2710.19 443.221 Q2708.92 436.991 2705.55 434.508 Q2702.23 431.978 2698.85 431.978 Q2697.59 431.978 2696.23 432.353 Q2694.92 432.728 2693 433.805 Q2691.08 434.883 2689.58 437.553 Q2688.12 440.223 2687.42 444.252 Q2686.67 449.451 2686.67 461.912 Z" fill="#000000" fill-rule="nonzero" fill-opacity="1"></path><polyline clip-path="url(#clip000)" style="stroke:#377db8; stroke-linecap:round; stroke-linejoin:round; stroke-width:32; stroke-opacity:1; fill:none" points="2318.01,575.016 2477.26,575.016 "></polyline>
<path clip-path="url(#clip000)" d="M2553.92 570.37 Q2553.92 577.21 2550.46 583.815 Q2547.04 590.42 2541.65 594.495 Q2536.26 598.524 2530.78 598.524 Q2527.5 598.524 2525.3 596.744 Q2523.15 594.917 2521.97 592.341 Q2521.08 595.526 2519.16 603.162 Q2517.24 610.797 2517.24 611.547 Q2517.24 611.969 2517.34 612.156 Q2517.43 612.343 2517.85 612.578 Q2518.27 612.859 2519.3 612.952 Q2520.33 613.093 2522.07 613.093 Q2522.96 613.093 2523.29 613.093 Q2523.66 613.14 2523.99 613.374 Q2524.36 613.608 2524.36 614.123 Q2524.36 616.044 2522.63 616.044 Q2521.08 616.044 2517.9 615.904 Q2514.71 615.763 2513.12 615.763 Q2511.76 615.763 2509.05 615.904 Q2506.33 616.044 2505.06 616.044 Q2503.8 616.044 2503.8 614.92 Q2503.8 614.264 2503.99 613.842 Q2504.13 613.468 2504.5 613.28 Q2504.88 613.14 2505.2 613.093 Q2505.48 613.093 2506.05 613.093 Q2508.2 613.093 2509.14 612.718 Q2510.08 612.39 2510.4 611.687 Q2510.78 611.032 2511.2 609.158 L2521.97 566.435 Q2522.63 563.578 2522.63 561.563 Q2522.63 559.034 2521.83 558.097 Q2521.04 557.16 2519.63 557.16 Q2517.2 557.16 2515.6 560.064 Q2514.01 562.969 2512.65 568.59 Q2512.23 570.136 2511.95 570.464 Q2511.72 570.792 2511.01 570.792 Q2509.84 570.745 2509.84 569.808 Q2509.84 569.574 2510.22 568.075 Q2510.59 566.529 2511.29 564.28 Q2512.04 561.985 2512.84 560.533 Q2513.31 559.549 2513.73 558.893 Q2514.15 558.237 2514.99 557.207 Q2515.88 556.176 2517.15 555.614 Q2518.41 555.052 2519.96 555.052 Q2522.96 555.052 2525.44 556.832 Q2527.92 558.612 2528.58 562.219 Q2531.25 559.081 2534.53 557.066 Q2537.81 555.052 2541.13 555.052 Q2546.66 555.052 2550.27 559.362 Q2553.92 563.625 2553.92 570.37 M2546.99 566.154 Q2546.99 561.891 2545.35 559.549 Q2543.76 557.16 2540.85 557.16 Q2537.25 557.16 2533.08 560.814 Q2528.95 564.28 2528.11 567.513 L2523.38 586.298 L2523.1 587.843 Q2523.1 588.124 2523.24 588.968 Q2523.43 589.764 2523.94 591.076 Q2524.5 592.387 2525.25 593.559 Q2526.05 594.683 2527.46 595.526 Q2528.91 596.369 2530.69 596.369 Q2533.55 596.369 2536.64 593.84 Q2539.78 591.31 2542.12 586.532 Q2543.57 583.44 2545.26 576.788 Q2546.99 570.089 2546.99 566.154 Z" fill="#000000" fill-rule="nonzero" fill-opacity="1"></path><path clip-path="url(#clip000)" d="M2578.19 582.878 Q2578.29 581.707 2580.12 581.707 L2638.91 581.707 Q2641.67 581.707 2641.72 582.784 Q2641.72 583.955 2639.09 583.908 L2580.77 583.908 Q2578.19 583.955 2578.19 582.878 M2578.19 564.14 Q2578.19 562.969 2580.21 563.016 L2638.81 563.016 Q2641.67 563.016 2641.72 564.14 Q2641.72 565.217 2639.28 565.217 L2580.12 565.217 Q2578.19 565.217 2578.19 564.14 Z" fill="#000000" fill-rule="nonzero" fill-opacity="1"></path><path clip-path="url(#clip000)" d="M2678.71 542.685 L2678.71 539.687 Q2690.23 539.687 2696.18 533.55 Q2697.82 533.55 2698.1 533.925 Q2698.38 534.3 2698.38 536.033 L2698.38 589.858 Q2698.38 592.715 2699.79 593.605 Q2701.19 594.495 2707.33 594.495 L2710.38 594.495 L2710.38 597.447 Q2707 597.166 2694.82 597.166 Q2682.64 597.166 2679.32 597.447 L2679.32 594.495 L2682.36 594.495 Q2688.41 594.495 2689.86 593.652 Q2691.31 592.762 2691.31 589.858 L2691.31 540.155 Q2686.3 542.685 2678.71 542.685 Z" fill="#000000" fill-rule="nonzero" fill-opacity="1"></path><polyline clip-path="url(#clip000)" style="stroke:#4dae49; stroke-linecap:round; stroke-linejoin:round; stroke-width:32; stroke-opacity:1; fill:none" points="2318.01,678.696 2477.26,678.696 "></polyline>
<path clip-path="url(#clip000)" d="M2553.92 674.05 Q2553.92 680.89 2550.46 687.495 Q2547.04 694.1 2541.65 698.175 Q2536.26 702.204 2530.78 702.204 Q2527.5 702.204 2525.3 700.424 Q2523.15 698.597 2521.97 696.021 Q2521.08 699.206 2519.16 706.842 Q2517.24 714.477 2517.24 715.227 Q2517.24 715.649 2517.34 715.836 Q2517.43 716.023 2517.85 716.258 Q2518.27 716.539 2519.3 716.632 Q2520.33 716.773 2522.07 716.773 Q2522.96 716.773 2523.29 716.773 Q2523.66 716.82 2523.99 717.054 Q2524.36 717.288 2524.36 717.803 Q2524.36 719.724 2522.63 719.724 Q2521.08 719.724 2517.9 719.584 Q2514.71 719.443 2513.12 719.443 Q2511.76 719.443 2509.05 719.584 Q2506.33 719.724 2505.06 719.724 Q2503.8 719.724 2503.8 718.6 Q2503.8 717.944 2503.99 717.522 Q2504.13 717.148 2504.5 716.96 Q2504.88 716.82 2505.2 716.773 Q2505.48 716.773 2506.05 716.773 Q2508.2 716.773 2509.14 716.398 Q2510.08 716.07 2510.4 715.367 Q2510.78 714.712 2511.2 712.838 L2521.97 670.115 Q2522.63 667.258 2522.63 665.243 Q2522.63 662.714 2521.83 661.777 Q2521.04 660.84 2519.63 660.84 Q2517.2 660.84 2515.6 663.744 Q2514.01 666.649 2512.65 672.27 Q2512.23 673.816 2511.95 674.144 Q2511.72 674.472 2511.01 674.472 Q2509.84 674.425 2509.84 673.488 Q2509.84 673.254 2510.22 671.755 Q2510.59 670.209 2511.29 667.96 Q2512.04 665.665 2512.84 664.213 Q2513.31 663.229 2513.73 662.573 Q2514.15 661.917 2514.99 660.887 Q2515.88 659.856 2517.15 659.294 Q2518.41 658.732 2519.96 658.732 Q2522.96 658.732 2525.44 660.512 Q2527.92 662.292 2528.58 665.899 Q2531.25 662.761 2534.53 660.746 Q2537.81 658.732 2541.13 658.732 Q2546.66 658.732 2550.27 663.042 Q2553.92 667.305 2553.92 674.05 M2546.99 669.834 Q2546.99 665.571 2545.35 663.229 Q2543.76 660.84 2540.85 660.84 Q2537.25 660.84 2533.08 664.494 Q2528.95 667.96 2528.11 671.193 L2523.38 689.978 L2523.1 691.523 Q2523.1 691.804 2523.24 692.648 Q2523.43 693.444 2523.94 694.756 Q2524.5 696.067 2525.25 697.239 Q2526.05 698.363 2527.46 699.206 Q2528.91 700.049 2530.69 700.049 Q2533.55 700.049 2536.64 697.52 Q2539.78 694.99 2542.12 690.212 Q2543.57 687.12 2545.26 680.468 Q2546.99 673.769 2546.99 669.834 Z" fill="#000000" fill-rule="nonzero" fill-opacity="1"></path><path clip-path="url(#clip000)" d="M2578.19 686.558 Q2578.29 685.387 2580.12 685.387 L2638.91 685.387 Q2641.67 685.387 2641.72 686.464 Q2641.72 687.635 2639.09 687.588 L2580.77 687.588 Q2578.19 687.635 2578.19 686.558 M2578.19 667.82 Q2578.19 666.649 2580.21 666.696 L2638.81 666.696 Q2641.67 666.696 2641.72 667.82 Q2641.72 668.897 2639.28 668.897 L2580.12 668.897 Q2578.19 668.897 2578.19 667.82 Z" fill="#000000" fill-rule="nonzero" fill-opacity="1"></path><path clip-path="url(#clip000)" d="M2678.71 701.127 Q2678.71 699.393 2678.85 698.878 Q2679.04 698.363 2679.79 697.566 L2698.2 677.048 Q2708.27 665.712 2708.27 655.828 Q2708.27 649.41 2704.9 644.819 Q2701.57 640.228 2695.43 640.228 Q2691.22 640.228 2687.66 642.805 Q2684.1 645.381 2682.46 649.972 Q2682.74 649.878 2683.72 649.878 Q2686.11 649.878 2687.42 651.377 Q2688.78 652.876 2688.78 654.891 Q2688.78 657.467 2687.09 658.732 Q2685.45 659.95 2683.82 659.95 Q2683.16 659.95 2682.27 659.809 Q2681.43 659.669 2680.07 658.357 Q2678.71 656.999 2678.71 654.61 Q2678.71 647.911 2683.77 642.571 Q2688.87 637.23 2696.65 637.23 Q2705.46 637.23 2711.22 642.477 Q2717.03 647.677 2717.03 655.828 Q2717.03 658.685 2716.14 661.308 Q2715.29 663.885 2714.12 665.899 Q2713 667.914 2709.91 671.146 Q2706.82 674.378 2704.33 676.674 Q2701.85 678.969 2696.28 683.841 L2686.11 693.725 L2703.4 693.725 Q2711.83 693.725 2712.48 692.976 Q2713.42 691.617 2714.59 684.45 L2717.03 684.45 L2714.31 701.127 L2678.71 701.127 Z" fill="#000000" fill-rule="nonzero" fill-opacity="1"></path><polyline clip-path="url(#clip000)" style="stroke:#974ea2; stroke-linecap:round; stroke-linejoin:round; stroke-width:32; stroke-opacity:1; fill:none" points="2318.01,782.376 2477.26,782.376 "></polyline>
<path clip-path="url(#clip000)" d="M2553.92 777.73 Q2553.92 784.57 2550.46 791.175 Q2547.04 797.78 2541.65 801.855 Q2536.26 805.884 2530.78 805.884 Q2527.5 805.884 2525.3 804.104 Q2523.15 802.277 2521.97 799.701 Q2521.08 802.886 2519.16 810.522 Q2517.24 818.157 2517.24 818.907 Q2517.24 819.329 2517.34 819.516 Q2517.43 819.703 2517.85 819.938 Q2518.27 820.219 2519.3 820.312 Q2520.33 820.453 2522.07 820.453 Q2522.96 820.453 2523.29 820.453 Q2523.66 820.5 2523.99 820.734 Q2524.36 820.968 2524.36 821.483 Q2524.36 823.404 2522.63 823.404 Q2521.08 823.404 2517.9 823.264 Q2514.71 823.123 2513.12 823.123 Q2511.76 823.123 2509.05 823.264 Q2506.33 823.404 2505.06 823.404 Q2503.8 823.404 2503.8 822.28 Q2503.8 821.624 2503.99 821.202 Q2504.13 820.828 2504.5 820.64 Q2504.88 820.5 2505.2 820.453 Q2505.48 820.453 2506.05 820.453 Q2508.2 820.453 2509.14 820.078 Q2510.08 819.75 2510.4 819.047 Q2510.78 818.392 2511.2 816.518 L2521.97 773.795 Q2522.63 770.938 2522.63 768.923 Q2522.63 766.394 2521.83 765.457 Q2521.04 764.52 2519.63 764.52 Q2517.2 764.52 2515.6 767.424 Q2514.01 770.329 2512.65 775.95 Q2512.23 777.496 2511.95 777.824 Q2511.72 778.152 2511.01 778.152 Q2509.84 778.105 2509.84 777.168 Q2509.84 776.934 2510.22 775.435 Q2510.59 773.889 2511.29 771.64 Q2512.04 769.345 2512.84 767.893 Q2513.31 766.909 2513.73 766.253 Q2514.15 765.597 2514.99 764.567 Q2515.88 763.536 2517.15 762.974 Q2518.41 762.412 2519.96 762.412 Q2522.96 762.412 2525.44 764.192 Q2527.92 765.972 2528.58 769.579 Q2531.25 766.441 2534.53 764.426 Q2537.81 762.412 2541.13 762.412 Q2546.66 762.412 2550.27 766.722 Q2553.92 770.985 2553.92 777.73 M2546.99 773.514 Q2546.99 769.251 2545.35 766.909 Q2543.76 764.52 2540.85 764.52 Q2537.25 764.52 2533.08 768.174 Q2528.95 771.64 2528.11 774.873 L2523.38 793.658 L2523.1 795.203 Q2523.1 795.484 2523.24 796.328 Q2523.43 797.124 2523.94 798.436 Q2524.5 799.747 2525.25 800.919 Q2526.05 802.043 2527.46 802.886 Q2528.91 803.729 2530.69 803.729 Q2533.55 803.729 2536.64 801.2 Q2539.78 798.67 2542.12 793.892 Q2543.57 790.8 2545.26 784.148 Q2546.99 777.449 2546.99 773.514 Z" fill="#000000" fill-rule="nonzero" fill-opacity="1"></path><path clip-path="url(#clip000)" d="M2578.19 790.238 Q2578.29 789.067 2580.12 789.067 L2638.91 789.067 Q2641.67 789.067 2641.72 790.144 Q2641.72 791.315 2639.09 791.268 L2580.77 791.268 Q2578.19 791.315 2578.19 790.238 M2578.19 771.5 Q2578.19 770.329 2580.21 770.376 L2638.81 770.376 Q2641.67 770.376 2641.72 771.5 Q2641.72 772.577 2639.28 772.577 L2580.12 772.577 Q2578.19 772.577 2578.19 771.5 Z" fill="#000000" fill-rule="nonzero" fill-opacity="1"></path><path clip-path="url(#clip000)" d="M2678.71 791.877 Q2678.71 789.02 2680.35 787.661 Q2681.99 786.303 2684.1 786.303 Q2686.3 786.303 2687.84 787.755 Q2689.44 789.16 2689.44 791.643 Q2689.44 794.313 2687.56 795.812 Q2685.74 797.311 2683.11 796.937 Q2685.41 800.778 2689.62 802.511 Q2693.89 804.244 2697.82 804.244 Q2701.94 804.244 2705.27 800.684 Q2708.64 797.124 2708.64 788.411 Q2708.64 781.009 2705.74 776.747 Q2702.88 772.484 2697.21 772.484 L2693 772.484 Q2691.54 772.484 2691.12 772.343 Q2690.7 772.203 2690.7 771.406 Q2690.7 770.469 2692.15 770.282 Q2693.61 770.282 2695.9 770.001 Q2701.48 769.814 2704.43 764.988 Q2707.1 760.491 2707.1 754.074 Q2707.1 748.218 2704.29 745.782 Q2701.52 743.299 2697.92 743.299 Q2694.54 743.299 2690.84 744.705 Q2687.14 746.11 2685.13 749.249 Q2691.08 749.249 2691.08 754.074 Q2691.08 756.182 2689.72 757.587 Q2688.41 758.945 2686.2 758.945 Q2684.1 758.945 2682.69 757.634 Q2681.29 756.275 2681.29 753.98 Q2681.29 748.499 2686.16 744.705 Q2691.08 740.91 2698.29 740.91 Q2705.41 740.91 2710.66 744.658 Q2715.95 748.405 2715.95 754.167 Q2715.95 759.836 2712.2 764.473 Q2708.46 769.111 2702.51 771.031 Q2709.81 772.484 2714.17 777.449 Q2718.53 782.368 2718.53 788.411 Q2718.53 795.906 2712.62 801.434 Q2706.72 806.915 2698.1 806.915 Q2690.14 806.915 2684.42 802.605 Q2678.71 798.295 2678.71 791.877 Z" fill="#000000" fill-rule="nonzero" fill-opacity="1"></path><polyline clip-path="url(#clip000)" style="stroke:#ff7e00; stroke-linecap:round; stroke-linejoin:round; stroke-width:32; stroke-opacity:1; fill:none" points="2318.01,886.056 2477.26,886.056 "></polyline>
<path clip-path="url(#clip000)" d="M2553.92 881.948 Q2553.92 888.787 2550.46 895.393 Q2547.04 901.998 2541.65 906.073 Q2536.26 910.102 2530.78 910.102 Q2527.5 910.102 2525.3 908.322 Q2523.15 906.495 2521.97 903.918 Q2521.08 907.104 2519.16 914.739 Q2517.24 922.375 2517.24 923.125 Q2517.24 923.546 2517.34 923.734 Q2517.43 923.921 2517.85 924.155 Q2518.27 924.436 2519.3 924.53 Q2520.33 924.671 2522.07 924.671 Q2522.96 924.671 2523.29 924.671 Q2523.66 924.717 2523.99 924.952 Q2524.36 925.186 2524.36 925.701 Q2524.36 927.622 2522.63 927.622 Q2521.08 927.622 2517.9 927.481 Q2514.71 927.341 2513.12 927.341 Q2511.76 927.341 2509.05 927.481 Q2506.33 927.622 2505.06 927.622 Q2503.8 927.622 2503.8 926.498 Q2503.8 925.842 2503.99 925.42 Q2504.13 925.045 2504.5 924.858 Q2504.88 924.717 2505.2 924.671 Q2505.48 924.671 2506.05 924.671 Q2508.2 924.671 2509.14 924.296 Q2510.08 923.968 2510.4 923.265 Q2510.78 922.609 2511.2 920.736 L2521.97 878.013 Q2522.63 875.156 2522.63 873.141 Q2522.63 870.612 2521.83 869.675 Q2521.04 868.738 2519.63 868.738 Q2517.2 868.738 2515.6 871.642 Q2514.01 874.547 2512.65 880.168 Q2512.23 881.714 2511.95 882.042 Q2511.72 882.37 2511.01 882.37 Q2509.84 882.323 2509.84 881.386 Q2509.84 881.152 2510.22 879.653 Q2510.59 878.107 2511.29 875.858 Q2512.04 873.563 2512.84 872.111 Q2513.31 871.127 2513.73 870.471 Q2514.15 869.815 2514.99 868.785 Q2515.88 867.754 2517.15 867.192 Q2518.41 866.63 2519.96 866.63 Q2522.96 866.63 2525.44 868.41 Q2527.92 870.19 2528.58 873.797 Q2531.25 870.658 2534.53 868.644 Q2537.81 866.63 2541.13 866.63 Q2546.66 866.63 2550.27 870.939 Q2553.92 875.202 2553.92 881.948 M2546.99 877.732 Q2546.99 873.469 2545.35 871.127 Q2543.76 868.738 2540.85 868.738 Q2537.25 868.738 2533.08 872.392 Q2528.95 875.858 2528.11 879.091 L2523.38 897.875 L2523.1 899.421 Q2523.1 899.702 2523.24 900.545 Q2523.43 901.342 2523.94 902.653 Q2524.5 903.965 2525.25 905.136 Q2526.05 906.261 2527.46 907.104 Q2528.91 907.947 2530.69 907.947 Q2533.55 907.947 2536.64 905.417 Q2539.78 902.888 2542.12 898.11 Q2543.57 895.018 2545.26 888.366 Q2546.99 881.667 2546.99 877.732 Z" fill="#000000" fill-rule="nonzero" fill-opacity="1"></path><path clip-path="url(#clip000)" d="M2578.19 894.456 Q2578.29 893.285 2580.12 893.285 L2638.91 893.285 Q2641.67 893.285 2641.72 894.362 Q2641.72 895.533 2639.09 895.486 L2580.77 895.486 Q2578.19 895.533 2578.19 894.456 M2578.19 875.718 Q2578.19 874.547 2580.21 874.593 L2638.81 874.593 Q2641.67 874.593 2641.72 875.718 Q2641.72 876.795 2639.28 876.795 L2580.12 876.795 Q2578.19 876.795 2578.19 875.718 Z" fill="#000000" fill-rule="nonzero" fill-opacity="1"></path><path clip-path="url(#clip000)" d="M2678.71 893.191 L2678.71 890.24 L2708.17 845.222 Q2708.92 844.051 2710.1 844.097 Q2711.17 844.097 2711.41 844.519 Q2711.64 844.941 2711.64 846.58 L2711.64 890.24 L2721.24 890.24 L2721.24 893.191 L2711.64 893.191 L2711.64 901.529 Q2711.64 904.293 2712.77 905.183 Q2713.94 906.073 2718.9 906.073 L2720.92 906.073 L2720.92 909.024 Q2716.98 908.743 2707.89 908.743 Q2698.85 908.743 2694.92 909.024 L2694.92 906.073 L2696.93 906.073 Q2701.9 906.073 2703.07 905.23 Q2704.24 904.34 2704.24 901.529 L2704.24 893.191 L2678.71 893.191 M2681.43 890.24 L2704.8 890.24 L2704.8 854.45 L2681.43 890.24 Z" fill="#000000" fill-rule="nonzero" fill-opacity="1"></path><path clip-path="url(#clip000)" d="M632.468 221.422 Q632.468 221.475 632.152 223.372 L620.136 271.277 Q619.504 273.806 617.712 276.336 Q615.973 278.918 613.18 281.132 Q610.439 283.398 606.223 284.768 Q602.06 286.191 597.264 286.191 Q589.623 286.191 586.25 284.557 Q582.93 282.976 582.93 279.603 Q582.93 276.652 584.774 274.966 Q586.619 273.332 588.727 273.332 Q590.729 273.332 591.783 274.491 Q592.837 275.651 592.837 277.126 Q592.837 278.76 591.731 280.394 Q590.624 282.08 588.41 282.713 Q591.941 283.819 597.053 283.819 Q607.857 283.819 612.495 272.383 Q612.6 272.225 612.6 272.172 L616.184 257.891 L616.026 257.785 Q615.13 258.839 613.707 260.051 Q612.336 261.211 609.385 262.634 Q606.434 264.057 603.536 264.057 Q597.475 264.057 593.312 259.419 Q589.201 254.729 589.201 246.982 Q589.201 241.343 591.467 235.704 Q593.786 230.012 597.37 225.849 Q601.006 221.633 605.644 218.998 Q610.334 216.363 614.866 216.363 Q618.028 216.363 620.716 218.26 Q623.404 220.104 624.879 223.161 Q625.143 220.631 626.566 219.577 Q628.041 218.523 629.306 218.523 Q630.729 218.523 631.572 219.314 Q632.468 220.052 632.468 221.422 M623.614 228.009 Q623.614 227.693 623.404 226.85 Q623.193 225.954 622.56 224.531 Q621.981 223.108 621.085 221.843 Q620.189 220.579 618.555 219.683 Q616.974 218.734 614.972 218.734 Q611.704 218.734 608.437 221.475 Q605.169 224.162 602.903 228.326 Q600.795 232.331 598.792 240.078 Q596.843 247.825 596.843 251.777 Q596.843 255.677 598.529 258.681 Q600.215 261.685 603.852 261.685 Q608.068 261.685 612.6 257.785 Q617.29 253.727 618.081 250.249 L623.298 229.643 Q623.614 228.378 623.614 228.009 Z" fill="#000000" fill-rule="nonzero" fill-opacity="1"></path><path clip-path="url(#clip000)" d="M663.814 247.667 Q663.919 246.349 665.975 246.349 L732.114 246.349 Q735.223 246.349 735.276 247.561 Q735.276 248.879 732.324 248.826 L666.712 248.826 Q663.814 248.879 663.814 247.667 M663.814 226.587 Q663.814 225.269 666.08 225.322 L732.008 225.322 Q735.223 225.322 735.276 226.587 Q735.276 227.799 732.535 227.799 L665.975 227.799 Q663.814 227.799 663.814 226.587 Z" fill="#000000" fill-rule="nonzero" fill-opacity="1"></path><path clip-path="url(#clip000)" d="M776.902 249.511 Q776.902 246.296 778.747 244.768 Q780.591 243.24 782.963 243.24 Q785.44 243.24 787.179 244.874 Q788.971 246.455 788.971 249.248 Q788.971 252.252 786.863 253.938 Q784.808 255.624 781.856 255.203 Q784.439 259.524 789.182 261.474 Q793.977 263.424 798.404 263.424 Q803.042 263.424 806.784 259.419 Q810.578 255.414 810.578 245.611 Q810.578 237.285 807.311 232.489 Q804.096 227.693 797.719 227.693 L792.976 227.693 Q791.342 227.693 790.868 227.535 Q790.394 227.377 790.394 226.481 Q790.394 225.427 792.027 225.216 Q793.661 225.216 796.244 224.9 Q802.515 224.689 805.835 219.261 Q808.839 214.202 808.839 206.982 Q808.839 200.394 805.677 197.654 Q802.568 194.861 798.51 194.861 Q794.715 194.861 790.552 196.442 Q786.389 198.023 784.122 201.554 Q790.815 201.554 790.815 206.982 Q790.815 209.353 789.287 210.934 Q787.811 212.463 785.335 212.463 Q782.963 212.463 781.382 210.987 Q779.801 209.459 779.801 206.877 Q779.801 200.711 785.282 196.442 Q790.815 192.173 798.931 192.173 Q806.942 192.173 812.844 196.389 Q818.799 200.605 818.799 207.087 Q818.799 213.464 814.583 218.681 Q810.367 223.899 803.674 226.06 Q811.896 227.693 816.797 233.279 Q821.698 238.813 821.698 245.611 Q821.698 254.043 815.058 260.262 Q808.417 266.428 798.72 266.428 Q789.761 266.428 783.332 261.58 Q776.902 256.731 776.902 249.511 Z" fill="#000000" fill-rule="nonzero" fill-opacity="1"></path><path clip-path="url(#clip000)" d="M830.782 229.538 Q830.782 213.675 834.788 205.032 Q840.374 192.173 853.549 192.173 Q856.342 192.173 859.241 192.964 Q862.192 193.701 865.881 196.6 Q869.623 199.498 871.889 204.241 Q876.21 213.411 876.21 229.538 Q876.21 245.295 872.205 253.885 Q866.355 266.428 853.444 266.428 Q848.595 266.428 843.641 263.951 Q838.74 261.474 835.631 255.519 Q830.782 246.613 830.782 229.538 M839.741 228.22 Q839.741 244.505 840.901 250.987 Q842.218 257.996 845.802 261.053 Q849.438 264.057 853.444 264.057 Q857.765 264.057 861.349 260.842 Q864.985 257.574 866.092 250.565 Q867.304 243.661 867.251 228.22 Q867.251 213.201 866.197 207.193 Q864.774 200.184 860.98 197.39 Q857.238 194.545 853.444 194.545 Q852.021 194.545 850.492 194.966 Q849.017 195.388 846.856 196.6 Q844.695 197.812 843.009 200.816 Q841.375 203.82 840.585 208.352 Q839.741 214.202 839.741 228.22 Z" fill="#000000" fill-rule="nonzero" fill-opacity="1"></path></svg>