<?xml version="1.0" encoding="utf-8"?>
<svg xmlns="http://www.w3.org/2000/svg" xmlns:xlink="http://www.w3.org/1999/xlink" width="700" height="400" viewBox="0 0 2800 1600">
<defs>
  <clipPath id="clip750">
    <rect x="0" y="0" width="2800" height="1600"/>
  </clipPath>
</defs>
<path clip-path="url(#clip750)" d="M0 1600 L2800 1600 L2800 0 L0 0  Z" fill="#ffffff" fill-rule="evenodd" fill-opacity="1"/>
<defs>
  <clipPath id="clip751">
    <rect x="560" y="0" width="1961" height="1600"/>
  </clipPath>
</defs>
<defs>
  <clipPath id="clip752">
    <rect x="356" y="47" width="1883" height="1298"/>
  </clipPath>
</defs>
<path clip-path="url(#clip750)" d="M356.141 1344.16 L2238.57 1344.16 L2238.57 47.2441 L356.141 47.2441  Z" fill="#ffffff" fill-rule="evenodd" fill-opacity="1"/>
<polyline clip-path="url(#clip750)" style="stroke:#000000; stroke-linecap:round; stroke-linejoin:round; stroke-width:4; stroke-opacity:1; fill:none" points="356.141,1344.16 2238.57,1344.16 "/>
<polyline clip-path="url(#clip750)" style="stroke:#000000; stroke-linecap:round; stroke-linejoin:round; stroke-width:4; stroke-opacity:1; fill:none" points="356.141,47.2441 2238.57,47.2441 "/>
<polyline clip-path="url(#clip750)" style="stroke:#000000; stroke-linecap:round; stroke-linejoin:round; stroke-width:4; stroke-opacity:1; fill:none" points="409.417,1344.16 409.417,1325.27 "/>
<polyline clip-path="url(#clip750)" style="stroke:#000000; stroke-linecap:round; stroke-linejoin:round; stroke-width:4; stroke-opacity:1; fill:none" points="764.593,1344.16 764.593,1325.27 "/>
<polyline clip-path="url(#clip750)" style="stroke:#000000; stroke-linecap:round; stroke-linejoin:round; stroke-width:4; stroke-opacity:1; fill:none" points="1119.77,1344.16 1119.77,1325.27 "/>
<polyline clip-path="url(#clip750)" style="stroke:#000000; stroke-linecap:round; stroke-linejoin:round; stroke-width:4; stroke-opacity:1; fill:none" points="1474.94,1344.16 1474.94,1325.27 "/>
<polyline clip-path="url(#clip750)" style="stroke:#000000; stroke-linecap:round; stroke-linejoin:round; stroke-width:4; stroke-opacity:1; fill:none" points="1830.12,1344.16 1830.12,1325.27 "/>
<polyline clip-path="url(#clip750)" style="stroke:#000000; stroke-linecap:round; stroke-linejoin:round; stroke-width:4; stroke-opacity:1; fill:none" points="2185.3,1344.16 2185.3,1325.27 "/>
<path clip-path="url(#clip750)" d="M389.454 1417.22 Q389.454 1403.28 392.974 1395.69 Q397.884 1384.38 409.463 1384.38 Q411.918 1384.38 414.466 1385.08 Q417.06 1385.73 420.302 1388.28 Q423.591 1390.82 425.582 1394.99 Q429.38 1403.05 429.38 1417.22 Q429.38 1431.07 425.86 1438.62 Q420.719 1449.65 409.371 1449.65 Q405.109 1449.65 400.755 1447.47 Q396.448 1445.29 393.715 1440.06 Q389.454 1432.23 389.454 1417.22 M397.328 1416.07 Q397.328 1430.38 398.347 1436.08 Q399.505 1442.24 402.654 1444.92 Q405.85 1447.56 409.371 1447.56 Q413.169 1447.56 416.318 1444.74 Q419.514 1441.87 420.487 1435.71 Q421.552 1429.64 421.506 1416.07 Q421.506 1402.87 420.58 1397.59 Q419.329 1391.43 415.994 1388.97 Q412.706 1386.47 409.371 1386.47 Q408.12 1386.47 406.777 1386.84 Q405.48 1387.21 403.581 1388.28 Q401.682 1389.34 400.2 1391.98 Q398.764 1394.62 398.069 1398.6 Q397.328 1403.75 397.328 1416.07 Z" fill="#000000" fill-rule="nonzero" fill-opacity="1" /><path clip-path="url(#clip750)" d="M748.937 1393.42 L748.937 1390.45 Q760.331 1390.45 766.214 1384.38 Q767.835 1384.38 768.113 1384.76 Q768.391 1385.13 768.391 1386.84 L768.391 1440.06 Q768.391 1442.89 769.78 1443.77 Q771.17 1444.65 777.238 1444.65 L780.248 1444.65 L780.248 1447.56 Q776.913 1447.29 764.871 1447.29 Q752.828 1447.29 749.539 1447.56 L749.539 1444.65 L752.55 1444.65 Q758.525 1444.65 759.961 1443.81 Q761.397 1442.93 761.397 1440.06 L761.397 1390.92 Q756.441 1393.42 748.937 1393.42 Z" fill="#000000" fill-rule="nonzero" fill-opacity="1" /><path clip-path="url(#clip750)" d="M1100.82 1447.56 Q1100.82 1445.85 1100.96 1445.34 Q1101.15 1444.83 1101.89 1444.04 L1120.09 1423.76 Q1130.05 1412.55 1130.05 1402.77 Q1130.05 1396.43 1126.72 1391.89 Q1123.43 1387.35 1117.36 1387.35 Q1113.19 1387.35 1109.67 1389.9 Q1106.15 1392.44 1104.53 1396.98 Q1104.81 1396.89 1105.78 1396.89 Q1108.14 1396.89 1109.44 1398.37 Q1110.78 1399.86 1110.78 1401.85 Q1110.78 1404.39 1109.12 1405.65 Q1107.49 1406.85 1105.87 1406.85 Q1105.22 1406.85 1104.34 1406.71 Q1103.51 1406.57 1102.17 1405.27 Q1100.82 1403.93 1100.82 1401.57 Q1100.82 1394.95 1105.83 1389.67 Q1110.88 1384.38 1118.56 1384.38 Q1127.27 1384.38 1132.97 1389.57 Q1138.71 1394.71 1138.71 1402.77 Q1138.71 1405.6 1137.83 1408.19 Q1137 1410.74 1135.84 1412.73 Q1134.73 1414.72 1131.67 1417.92 Q1128.62 1421.12 1126.16 1423.39 Q1123.71 1425.65 1118.19 1430.47 L1108.14 1440.25 L1125.23 1440.25 Q1133.57 1440.25 1134.22 1439.5 Q1135.15 1438.16 1136.3 1431.07 L1138.71 1431.07 L1136.03 1447.56 L1100.82 1447.56 Z" fill="#000000" fill-rule="nonzero" fill-opacity="1" /><path clip-path="url(#clip750)" d="M1455.26 1434.78 Q1455.26 1431.95 1456.88 1430.61 Q1458.5 1429.27 1460.59 1429.27 Q1462.76 1429.27 1464.29 1430.7 Q1465.87 1432.09 1465.87 1434.55 Q1465.87 1437.19 1464.01 1438.67 Q1462.21 1440.15 1459.61 1439.78 Q1461.88 1443.58 1466.05 1445.29 Q1470.27 1447.01 1474.16 1447.01 Q1478.23 1447.01 1481.52 1443.49 Q1484.86 1439.97 1484.86 1431.35 Q1484.86 1424.03 1481.98 1419.82 Q1479.16 1415.6 1473.55 1415.6 L1469.39 1415.6 Q1467.95 1415.6 1467.53 1415.46 Q1467.12 1415.33 1467.12 1414.54 Q1467.12 1413.61 1468.55 1413.43 Q1469.99 1413.43 1472.26 1413.15 Q1477.77 1412.96 1480.69 1408.19 Q1483.33 1403.75 1483.33 1397.4 Q1483.33 1391.61 1480.55 1389.2 Q1477.82 1386.75 1474.25 1386.75 Q1470.91 1386.75 1467.26 1388.14 Q1463.6 1389.53 1461.6 1392.63 Q1467.49 1392.63 1467.49 1397.4 Q1467.49 1399.48 1466.14 1400.87 Q1464.85 1402.22 1462.67 1402.22 Q1460.59 1402.22 1459.2 1400.92 Q1457.81 1399.58 1457.81 1397.31 Q1457.81 1391.89 1462.62 1388.14 Q1467.49 1384.38 1474.62 1384.38 Q1481.66 1384.38 1486.85 1388.09 Q1492.08 1391.8 1492.08 1397.49 Q1492.08 1403.1 1488.38 1407.68 Q1484.67 1412.27 1478.79 1414.17 Q1486.01 1415.6 1490.32 1420.51 Q1494.63 1425.38 1494.63 1431.35 Q1494.63 1438.76 1488.79 1444.23 Q1482.96 1449.65 1474.43 1449.65 Q1466.56 1449.65 1460.91 1445.39 Q1455.26 1441.13 1455.26 1434.78 Z" fill="#000000" fill-rule="nonzero" fill-opacity="1" /><path clip-path="url(#clip750)" d="M1809.09 1431.91 L1809.09 1428.99 L1838.23 1384.48 Q1838.97 1383.32 1840.12 1383.37 Q1841.19 1383.37 1841.42 1383.78 Q1841.65 1384.2 1841.65 1385.82 L1841.65 1428.99 L1851.15 1428.99 L1851.15 1431.91 L1841.65 1431.91 L1841.65 1440.15 Q1841.65 1442.89 1842.76 1443.77 Q1843.92 1444.65 1848.83 1444.65 L1850.82 1444.65 L1850.82 1447.56 Q1846.93 1447.29 1837.95 1447.29 Q1829.01 1447.29 1825.12 1447.56 L1825.12 1444.65 L1827.11 1444.65 Q1832.02 1444.65 1833.18 1443.81 Q1834.33 1442.93 1834.33 1440.15 L1834.33 1431.91 L1809.09 1431.91 M1811.78 1428.99 L1834.89 1428.99 L1834.89 1393.6 L1811.78 1428.99 Z" fill="#000000" fill-rule="nonzero" fill-opacity="1" /><path clip-path="url(#clip750)" d="M2166.35 1432.28 Q2166.35 1429.45 2167.88 1428.39 Q2169.41 1427.28 2171.03 1427.28 Q2173.21 1427.28 2174.46 1428.67 Q2175.75 1430.01 2175.75 1431.91 Q2175.75 1433.81 2174.46 1435.2 Q2173.21 1436.54 2171.03 1436.54 Q2169.96 1436.54 2169.41 1436.35 Q2170.66 1440.71 2174.46 1443.86 Q2178.3 1447.01 2183.35 1447.01 Q2189.7 1447.01 2193.49 1440.85 Q2195.76 1436.86 2195.76 1427.83 Q2195.76 1419.87 2194.05 1415.88 Q2191.41 1409.81 2185.99 1409.81 Q2178.3 1409.81 2173.76 1416.44 Q2173.21 1417.27 2172.56 1417.32 Q2171.63 1417.32 2171.4 1416.81 Q2171.21 1416.25 2171.21 1414.82 L2171.21 1386.75 Q2171.21 1384.48 2172.14 1384.48 Q2172.51 1384.48 2173.3 1384.76 Q2179.27 1387.4 2185.9 1387.44 Q2192.71 1387.44 2198.82 1384.66 Q2199.28 1384.38 2199.56 1384.38 Q2200.49 1384.38 2200.53 1385.45 Q2200.53 1385.82 2199.75 1386.93 Q2199.01 1388 2197.38 1389.43 Q2195.76 1390.82 2193.68 1392.17 Q2191.59 1393.51 2188.54 1394.44 Q2185.53 1395.32 2182.19 1395.32 Q2178.21 1395.32 2174.13 1394.07 L2174.13 1412.55 Q2179.04 1407.73 2186.18 1407.73 Q2193.77 1407.73 2199.01 1413.84 Q2204.24 1419.96 2204.24 1428.48 Q2204.24 1437.42 2198.03 1443.53 Q2191.87 1449.65 2183.54 1449.65 Q2175.94 1449.65 2171.12 1444.23 Q2166.35 1438.81 2166.35 1432.28 Z" fill="#000000" fill-rule="nonzero" fill-opacity="1" /><path clip-path="url(#clip750)" d="M1321.85 1494.35 Q1321.85 1494.43 1321.77 1494.51 Q1321.24 1498.86 1320.21 1501.28 Q1319.19 1503.65 1316.89 1504.76 Q1315.21 1505.58 1313.12 1505.58 Q1309.96 1505.58 1305.41 1503.49 Q1305.25 1503.41 1304.35 1503 Q1303.45 1502.59 1303.12 1502.47 Q1302.79 1502.34 1302.09 1502.1 Q1301.4 1501.81 1300.86 1501.73 Q1300.33 1501.65 1299.8 1501.65 Q1298.65 1501.65 1297.67 1502.14 Q1295.66 1503.12 1294.43 1504.6 Q1293.16 1506.03 1292.83 1508.61 Q1292.75 1508.94 1292.46 1509.19 Q1292.18 1509.43 1291.81 1509.43 Q1291.44 1509.43 1291.11 1509.15 Q1290.78 1508.86 1290.78 1508.45 Q1290.78 1508.37 1290.86 1508.29 Q1291.4 1503.94 1292.42 1501.56 Q1293.45 1499.15 1295.74 1498.04 Q1297.54 1497.18 1299.51 1497.18 Q1302.59 1497.18 1307.26 1499.31 Q1307.42 1499.39 1308.32 1499.8 Q1309.23 1500.21 1309.55 1500.33 Q1309.88 1500.46 1310.58 1500.74 Q1311.28 1500.99 1311.81 1501.07 Q1312.34 1501.15 1312.87 1501.15 Q1313.9 1501.15 1314.97 1500.62 Q1316.97 1499.64 1318.24 1498.2 Q1319.51 1496.77 1319.84 1494.19 Q1319.92 1493.86 1320.21 1493.61 Q1320.5 1493.33 1320.87 1493.33 Q1321.24 1493.33 1321.56 1493.65 Q1321.85 1493.94 1321.85 1494.35 Z" fill="#000000" fill-rule="nonzero" fill-opacity="1" /><path clip-path="url(#clip750)" d="M1323.24 1523.34 Q1323.24 1523.75 1322.25 1525.51 Q1321.31 1527.2 1317.85 1531.48 Q1314.4 1535.75 1309.25 1540.73 Q1307.31 1542.66 1304.39 1545.36 Q1301.46 1548.05 1299.47 1549.81 L1297.48 1551.56 Q1289.86 1558 1283.19 1565.21 Q1283.66 1565.03 1284.48 1564.97 Q1285.3 1564.86 1285.88 1564.86 L1286.47 1564.86 Q1289.51 1564.86 1294.84 1566.9 Q1299.53 1568.43 1301.93 1568.43 Q1304.27 1568.43 1306.85 1567.61 Q1309.42 1566.79 1312.23 1564.39 Q1315.04 1561.99 1316.33 1558.36 Q1316.57 1557.77 1316.68 1557.59 Q1316.8 1557.36 1317.15 1557.13 Q1317.5 1556.83 1317.97 1556.83 Q1318.62 1556.83 1319.03 1557.18 Q1319.44 1557.54 1319.44 1558 Q1319.44 1559.06 1318.62 1561.17 Q1317.85 1563.27 1316.16 1565.91 Q1314.52 1568.54 1312.35 1570.94 Q1310.24 1573.29 1307.08 1574.93 Q1303.92 1576.51 1300.58 1576.51 Q1298.18 1576.51 1296.42 1575.34 Q1294.67 1574.22 1292.91 1572.06 Q1290.51 1569.31 1289.22 1568.43 Q1287.93 1567.49 1285.94 1567.49 Q1280.61 1567.49 1275.75 1574.93 Q1275.23 1575.98 1274.87 1576.21 Q1274.58 1576.51 1273.88 1576.51 Q1272.41 1576.45 1272.41 1575.28 Q1272.41 1574.81 1273.7 1572.76 Q1275.05 1570.65 1278.04 1566.96 Q1281.08 1563.27 1284.77 1559.59 L1295.54 1549.51 Q1307.49 1539.44 1312.23 1533.76 Q1310.24 1533.76 1309.36 1533.7 Q1308.54 1533.64 1306.9 1533.29 Q1305.26 1532.88 1302.98 1532.01 Q1297.65 1530.19 1295.43 1530.19 Q1294.84 1530.19 1294.2 1530.25 Q1293.55 1530.31 1292.09 1530.6 Q1290.68 1530.89 1289.51 1531.48 Q1288.34 1532.01 1287.11 1533.18 Q1285.88 1534.29 1285.24 1535.81 Q1285.06 1536.28 1284.95 1536.51 Q1284.83 1536.75 1284.48 1536.98 Q1284.18 1537.16 1283.72 1537.16 Q1283.01 1537.16 1282.6 1536.75 Q1282.25 1536.34 1282.25 1535.81 Q1282.25 1534.76 1283.31 1532.59 Q1284.36 1530.42 1286.12 1528.08 Q1287.87 1525.68 1290.74 1523.92 Q1293.61 1522.17 1296.77 1522.17 Q1298.65 1522.17 1300.23 1522.99 Q1301.87 1523.81 1302.69 1524.69 Q1303.57 1525.51 1305.03 1527.32 Q1306.26 1528.73 1306.85 1529.31 Q1307.43 1529.9 1308.6 1530.54 Q1309.83 1531.13 1311.18 1531.13 Q1313.4 1531.13 1315.45 1529.43 Q1317.5 1527.67 1320.14 1523.46 Q1320.84 1522.17 1321.95 1522.17 Q1323.24 1522.17 1323.24 1523.34 Z" fill="#000000" fill-rule="nonzero" fill-opacity="1" /><polyline clip-path="url(#clip750)" style="stroke:#000000; stroke-linecap:round; stroke-linejoin:round; stroke-width:4; stroke-opacity:1; fill:none" points="356.141,1344.16 356.141,47.2441 "/>
<polyline clip-path="url(#clip750)" style="stroke:#000000; stroke-linecap:round; stroke-linejoin:round; stroke-width:4; stroke-opacity:1; fill:none" points="2238.57,1344.16 2238.57,47.2441 "/>
<polyline clip-path="url(#clip750)" style="stroke:#000000; stroke-linecap:round; stroke-linejoin:round; stroke-width:4; stroke-opacity:1; fill:none" points="356.141,1307.46 370.984,1307.46 "/>
<polyline clip-path="url(#clip750)" style="stroke:#000000; stroke-linecap:round; stroke-linejoin:round; stroke-width:4; stroke-opacity:1; fill:none" points="356.141,1088.3 370.984,1088.3 "/>
<polyline clip-path="url(#clip750)" style="stroke:#000000; stroke-linecap:round; stroke-linejoin:round; stroke-width:4; stroke-opacity:1; fill:none" points="356.141,869.137 370.984,869.137 "/>
<polyline clip-path="url(#clip750)" style="stroke:#000000; stroke-linecap:round; stroke-linejoin:round; stroke-width:4; stroke-opacity:1; fill:none" points="356.141,649.977 370.984,649.977 "/>
<polyline clip-path="url(#clip750)" style="stroke:#000000; stroke-linecap:round; stroke-linejoin:round; stroke-width:4; stroke-opacity:1; fill:none" points="356.141,430.816 370.984,430.816 "/>
<polyline clip-path="url(#clip750)" style="stroke:#000000; stroke-linecap:round; stroke-linejoin:round; stroke-width:4; stroke-opacity:1; fill:none" points="356.141,211.656 370.984,211.656 "/>
<path clip-path="url(#clip750)" d="M200.428 1309.52 Q200.428 1295.58 203.948 1287.98 Q208.858 1276.68 220.438 1276.68 Q222.893 1276.68 225.44 1277.37 Q228.034 1278.02 231.276 1280.57 Q234.565 1283.12 236.557 1287.29 Q240.355 1295.35 240.355 1309.52 Q240.355 1323.37 236.835 1330.92 Q231.693 1341.94 220.345 1341.94 Q216.084 1341.94 211.73 1339.77 Q207.422 1337.59 204.689 1332.35 Q200.428 1324.53 200.428 1309.52 M208.302 1308.36 Q208.302 1322.67 209.321 1328.37 Q210.479 1334.53 213.629 1337.22 Q216.825 1339.86 220.345 1339.86 Q224.143 1339.86 227.293 1337.03 Q230.489 1334.16 231.462 1328 Q232.527 1321.93 232.481 1308.36 Q232.481 1295.16 231.554 1289.88 Q230.304 1283.72 226.969 1281.27 Q223.68 1278.76 220.345 1278.76 Q219.094 1278.76 217.751 1279.13 Q216.454 1279.51 214.555 1280.57 Q212.656 1281.64 211.174 1284.28 Q209.738 1286.92 209.043 1290.9 Q208.302 1296.04 208.302 1308.36 Z" fill="#000000" fill-rule="nonzero" fill-opacity="1" /><path clip-path="url(#clip750)" d="M253.648 1338.33 Q252.212 1336.8 252.212 1334.81 Q252.212 1332.82 253.648 1331.38 Q255.084 1329.9 257.261 1329.9 Q259.345 1329.9 260.735 1331.29 Q262.171 1332.63 262.171 1334.86 Q262.171 1337.03 260.642 1338.47 Q259.16 1339.86 257.261 1339.86 Q255.084 1339.86 253.648 1338.33 Z" fill="#000000" fill-rule="nonzero" fill-opacity="1" /><path clip-path="url(#clip750)" d="M274.214 1309.52 Q274.214 1295.58 277.734 1287.98 Q282.644 1276.68 294.224 1276.68 Q296.678 1276.68 299.226 1277.37 Q301.82 1278.02 305.062 1280.57 Q308.351 1283.12 310.342 1287.29 Q314.141 1295.35 314.141 1309.52 Q314.141 1323.37 310.62 1330.92 Q305.479 1341.94 294.131 1341.94 Q289.87 1341.94 285.516 1339.77 Q281.208 1337.59 278.475 1332.35 Q274.214 1324.53 274.214 1309.52 M282.088 1308.36 Q282.088 1322.67 283.107 1328.37 Q284.265 1334.53 287.415 1337.22 Q290.611 1339.86 294.131 1339.86 Q297.929 1339.86 301.079 1337.03 Q304.275 1334.16 305.247 1328 Q306.313 1321.93 306.266 1308.36 Q306.266 1295.16 305.34 1289.88 Q304.089 1283.72 300.754 1281.27 Q297.466 1278.76 294.131 1278.76 Q292.88 1278.76 291.537 1279.13 Q290.24 1279.51 288.341 1280.57 Q286.442 1281.64 284.96 1284.28 Q283.524 1286.92 282.829 1290.9 Q282.088 1296.04 282.088 1308.36 Z" fill="#000000" fill-rule="nonzero" fill-opacity="1" /><path clip-path="url(#clip750)" d="M201.447 1090.36 Q201.447 1076.42 204.967 1068.82 Q209.877 1057.52 221.457 1057.52 Q223.912 1057.52 226.459 1058.21 Q229.053 1058.86 232.295 1061.41 Q235.584 1063.96 237.576 1068.13 Q241.374 1076.19 241.374 1090.36 Q241.374 1104.21 237.854 1111.76 Q232.712 1122.78 221.364 1122.78 Q217.103 1122.78 212.749 1120.61 Q208.441 1118.43 205.708 1113.19 Q201.447 1105.37 201.447 1090.36 M209.321 1089.2 Q209.321 1103.51 210.34 1109.21 Q211.498 1115.37 214.648 1118.06 Q217.844 1120.7 221.364 1120.7 Q225.162 1120.7 228.312 1117.87 Q231.508 1115 232.481 1108.84 Q233.546 1102.77 233.5 1089.2 Q233.5 1076 232.573 1070.72 Q231.323 1064.56 227.988 1062.1 Q224.699 1059.6 221.364 1059.6 Q220.113 1059.6 218.77 1059.97 Q217.473 1060.34 215.574 1061.41 Q213.675 1062.48 212.193 1065.12 Q210.757 1067.76 210.062 1071.74 Q209.321 1076.88 209.321 1089.2 Z" fill="#000000" fill-rule="nonzero" fill-opacity="1" /><path clip-path="url(#clip750)" d="M254.667 1119.17 Q253.231 1117.64 253.231 1115.65 Q253.231 1113.66 254.667 1112.22 Q256.103 1110.74 258.28 1110.74 Q260.364 1110.74 261.754 1112.13 Q263.19 1113.47 263.19 1115.7 Q263.19 1117.87 261.661 1119.31 Q260.179 1120.7 258.28 1120.7 Q256.103 1120.7 254.667 1119.17 Z" fill="#000000" fill-rule="nonzero" fill-opacity="1" /><path clip-path="url(#clip750)" d="M276.252 1105.41 Q276.252 1102.59 277.78 1101.52 Q279.309 1100.41 280.93 1100.41 Q283.107 1100.41 284.358 1101.8 Q285.655 1103.14 285.655 1105.04 Q285.655 1106.94 284.358 1108.33 Q283.107 1109.67 280.93 1109.67 Q279.865 1109.67 279.309 1109.49 Q280.559 1113.84 284.358 1116.99 Q288.202 1120.14 293.251 1120.14 Q299.596 1120.14 303.395 1113.98 Q305.664 1110 305.664 1100.97 Q305.664 1093 303.95 1089.02 Q301.31 1082.95 295.891 1082.95 Q288.202 1082.95 283.663 1089.57 Q283.107 1090.41 282.459 1090.45 Q281.532 1090.45 281.301 1089.94 Q281.115 1089.39 281.115 1087.95 L281.115 1059.88 Q281.115 1057.61 282.042 1057.61 Q282.412 1057.61 283.2 1057.89 Q289.175 1060.53 295.798 1060.58 Q302.607 1060.58 308.721 1057.8 Q309.184 1057.52 309.462 1057.52 Q310.389 1057.52 310.435 1058.58 Q310.435 1058.95 309.648 1060.07 Q308.907 1061.13 307.285 1062.57 Q305.664 1063.96 303.58 1065.3 Q301.496 1066.64 298.439 1067.57 Q295.428 1068.45 292.093 1068.45 Q288.109 1068.45 284.033 1067.2 L284.033 1085.68 Q288.943 1080.86 296.076 1080.86 Q303.673 1080.86 308.907 1086.98 Q314.141 1093.09 314.141 1101.61 Q314.141 1110.55 307.934 1116.67 Q301.773 1122.78 293.436 1122.78 Q285.84 1122.78 281.023 1117.36 Q276.252 1111.94 276.252 1105.41 Z" fill="#000000" fill-rule="nonzero" fill-opacity="1" /><path clip-path="url(#clip750)" d="M205.152 847.391 L205.152 844.426 Q216.547 844.426 222.429 838.359 Q224.051 838.359 224.328 838.729 Q224.606 839.1 224.606 840.813 L224.606 894.034 Q224.606 896.859 225.996 897.739 Q227.385 898.619 233.453 898.619 L236.464 898.619 L236.464 901.537 Q233.129 901.259 221.086 901.259 Q209.043 901.259 205.755 901.537 L205.755 898.619 L208.765 898.619 Q214.74 898.619 216.176 897.786 Q217.612 896.905 217.612 894.034 L217.612 844.889 Q212.656 847.391 205.152 847.391 Z" fill="#000000" fill-rule="nonzero" fill-opacity="1" /><path clip-path="url(#clip750)" d="M253.648 900.009 Q252.212 898.48 252.212 896.489 Q252.212 894.497 253.648 893.061 Q255.084 891.579 257.261 891.579 Q259.345 891.579 260.735 892.968 Q262.171 894.312 262.171 896.535 Q262.171 898.712 260.642 900.148 Q259.16 901.537 257.261 901.537 Q255.084 901.537 253.648 900.009 Z" fill="#000000" fill-rule="nonzero" fill-opacity="1" /><path clip-path="url(#clip750)" d="M274.214 871.199 Q274.214 857.257 277.734 849.66 Q282.644 838.359 294.224 838.359 Q296.678 838.359 299.226 839.053 Q301.82 839.702 305.062 842.249 Q308.351 844.797 310.342 848.966 Q314.141 857.025 314.141 871.199 Q314.141 885.048 310.62 892.598 Q305.479 903.622 294.131 903.622 Q289.87 903.622 285.516 901.445 Q281.208 899.268 278.475 894.034 Q274.214 886.206 274.214 871.199 M282.088 870.041 Q282.088 884.353 283.107 890.05 Q284.265 896.211 287.415 898.897 Q290.611 901.537 294.131 901.537 Q297.929 901.537 301.079 898.712 Q304.275 895.84 305.247 889.68 Q306.313 883.612 306.266 870.041 Q306.266 856.84 305.34 851.559 Q304.089 845.399 300.754 842.944 Q297.466 840.443 294.131 840.443 Q292.88 840.443 291.537 840.813 Q290.24 841.184 288.341 842.249 Q286.442 843.315 284.96 845.955 Q283.524 848.595 282.829 852.578 Q282.088 857.72 282.088 870.041 Z" fill="#000000" fill-rule="nonzero" fill-opacity="1" /><path clip-path="url(#clip750)" d="M206.171 628.23 L206.171 625.266 Q217.566 625.266 223.448 619.198 Q225.07 619.198 225.347 619.568 Q225.625 619.939 225.625 621.653 L225.625 674.873 Q225.625 677.699 227.015 678.579 Q228.404 679.459 234.472 679.459 L237.483 679.459 L237.483 682.377 Q234.148 682.099 222.105 682.099 Q210.062 682.099 206.774 682.377 L206.774 679.459 L209.784 679.459 Q215.759 679.459 217.195 678.625 Q218.631 677.745 218.631 674.873 L218.631 625.729 Q213.675 628.23 206.171 628.23 Z" fill="#000000" fill-rule="nonzero" fill-opacity="1" /><path clip-path="url(#clip750)" d="M254.667 680.848 Q253.231 679.32 253.231 677.328 Q253.231 675.336 254.667 673.9 Q256.103 672.418 258.28 672.418 Q260.364 672.418 261.754 673.808 Q263.19 675.151 263.19 677.374 Q263.19 679.551 261.661 680.987 Q260.179 682.377 258.28 682.377 Q256.103 682.377 254.667 680.848 Z" fill="#000000" fill-rule="nonzero" fill-opacity="1" /><path clip-path="url(#clip750)" d="M276.252 667.092 Q276.252 664.266 277.78 663.201 Q279.309 662.089 280.93 662.089 Q283.107 662.089 284.358 663.479 Q285.655 664.822 285.655 666.721 Q285.655 668.62 284.358 670.01 Q283.107 671.353 280.93 671.353 Q279.865 671.353 279.309 671.168 Q280.559 675.522 284.358 678.671 Q288.202 681.821 293.251 681.821 Q299.596 681.821 303.395 675.661 Q305.664 671.677 305.664 662.645 Q305.664 654.678 303.95 650.695 Q301.31 644.627 295.891 644.627 Q288.202 644.627 283.663 651.251 Q283.107 652.084 282.459 652.131 Q281.532 652.131 281.301 651.621 Q281.115 651.065 281.115 649.629 L281.115 621.56 Q281.115 619.291 282.042 619.291 Q282.412 619.291 283.2 619.568 Q289.175 622.209 295.798 622.255 Q302.607 622.255 308.721 619.476 Q309.184 619.198 309.462 619.198 Q310.389 619.198 310.435 620.263 Q310.435 620.634 309.648 621.745 Q308.907 622.811 307.285 624.247 Q305.664 625.636 303.58 626.979 Q301.496 628.323 298.439 629.249 Q295.428 630.129 292.093 630.129 Q288.109 630.129 284.033 628.879 L284.033 647.36 Q288.943 642.543 296.076 642.543 Q303.673 642.543 308.907 648.657 Q314.141 654.771 314.141 663.293 Q314.141 672.233 307.934 678.347 Q301.773 684.461 293.436 684.461 Q285.84 684.461 281.023 679.042 Q276.252 673.623 276.252 667.092 Z" fill="#000000" fill-rule="nonzero" fill-opacity="1" /><path clip-path="url(#clip750)" d="M201.447 463.216 Q201.447 461.502 201.586 460.993 Q201.771 460.483 202.512 459.696 L220.716 439.408 Q230.674 428.199 230.674 418.426 Q230.674 412.08 227.339 407.541 Q224.051 403.002 217.983 403.002 Q213.814 403.002 210.294 405.549 Q206.774 408.097 205.152 412.636 Q205.43 412.543 206.403 412.543 Q208.765 412.543 210.062 414.026 Q211.405 415.508 211.405 417.5 Q211.405 420.047 209.738 421.298 Q208.117 422.502 206.496 422.502 Q205.847 422.502 204.967 422.363 Q204.133 422.224 202.79 420.927 Q201.447 419.584 201.447 417.222 Q201.447 410.598 206.449 405.318 Q211.498 400.037 219.187 400.037 Q227.895 400.037 233.592 405.225 Q239.336 410.366 239.336 418.426 Q239.336 421.251 238.456 423.845 Q237.622 426.393 236.464 428.384 Q235.352 430.376 232.295 433.572 Q229.238 436.768 226.783 439.038 Q224.328 441.307 218.817 446.125 L208.765 455.898 L225.857 455.898 Q234.194 455.898 234.843 455.157 Q235.769 453.813 236.927 446.727 L239.336 446.727 L236.649 463.216 L201.447 463.216 Z" fill="#000000" fill-rule="nonzero" fill-opacity="1" /><path clip-path="url(#clip750)" d="M253.648 461.688 Q252.212 460.159 252.212 458.167 Q252.212 456.176 253.648 454.74 Q255.084 453.258 257.261 453.258 Q259.345 453.258 260.735 454.647 Q262.171 455.99 262.171 458.214 Q262.171 460.391 260.642 461.827 Q259.16 463.216 257.261 463.216 Q255.084 463.216 253.648 461.688 Z" fill="#000000" fill-rule="nonzero" fill-opacity="1" /><path clip-path="url(#clip750)" d="M274.214 432.877 Q274.214 418.935 277.734 411.339 Q282.644 400.037 294.224 400.037 Q296.678 400.037 299.226 400.732 Q301.82 401.381 305.062 403.928 Q308.351 406.476 310.342 410.644 Q314.141 418.704 314.141 432.877 Q314.141 446.727 310.62 454.277 Q305.479 465.301 294.131 465.301 Q289.87 465.301 285.516 463.124 Q281.208 460.947 278.475 455.713 Q274.214 447.885 274.214 432.877 M282.088 431.719 Q282.088 446.032 283.107 451.729 Q284.265 457.89 287.415 460.576 Q290.611 463.216 294.131 463.216 Q297.929 463.216 301.079 460.391 Q304.275 457.519 305.247 451.359 Q306.313 445.291 306.266 431.719 Q306.266 418.519 305.34 413.238 Q304.089 407.078 300.754 404.623 Q297.466 402.122 294.131 402.122 Q292.88 402.122 291.537 402.492 Q290.24 402.863 288.341 403.928 Q286.442 404.993 284.96 407.634 Q283.524 410.274 282.829 414.257 Q282.088 419.399 282.088 431.719 Z" fill="#000000" fill-rule="nonzero" fill-opacity="1" /><path clip-path="url(#clip750)" d="M202.466 244.056 Q202.466 242.342 202.605 241.832 Q202.79 241.323 203.531 240.535 L221.735 220.248 Q231.693 209.039 231.693 199.265 Q231.693 192.92 228.358 188.38 Q225.07 183.841 219.002 183.841 Q214.833 183.841 211.313 186.389 Q207.793 188.936 206.171 193.475 Q206.449 193.383 207.422 193.383 Q209.784 193.383 211.081 194.865 Q212.425 196.347 212.425 198.339 Q212.425 200.887 210.757 202.137 Q209.136 203.341 207.515 203.341 Q206.866 203.341 205.986 203.202 Q205.152 203.063 203.809 201.767 Q202.466 200.423 202.466 198.061 Q202.466 191.437 207.468 186.157 Q212.517 180.877 220.206 180.877 Q228.914 180.877 234.611 186.064 Q240.355 191.206 240.355 199.265 Q240.355 202.091 239.475 204.685 Q238.641 207.232 237.483 209.224 Q236.371 211.216 233.314 214.412 Q230.257 217.608 227.802 219.877 Q225.347 222.147 219.836 226.964 L209.784 236.737 L226.876 236.737 Q235.213 236.737 235.862 235.996 Q236.788 234.653 237.946 227.566 L240.355 227.566 L237.668 244.056 L202.466 244.056 Z" fill="#000000" fill-rule="nonzero" fill-opacity="1" /><path clip-path="url(#clip750)" d="M254.667 242.527 Q253.231 240.999 253.231 239.007 Q253.231 237.015 254.667 235.579 Q256.103 234.097 258.28 234.097 Q260.364 234.097 261.754 235.487 Q263.19 236.83 263.19 239.053 Q263.19 241.23 261.661 242.666 Q260.179 244.056 258.28 244.056 Q256.103 244.056 254.667 242.527 Z" fill="#000000" fill-rule="nonzero" fill-opacity="1" /><path clip-path="url(#clip750)" d="M276.252 228.77 Q276.252 225.945 277.78 224.88 Q279.309 223.768 280.93 223.768 Q283.107 223.768 284.358 225.158 Q285.655 226.501 285.655 228.4 Q285.655 230.299 284.358 231.689 Q283.107 233.032 280.93 233.032 Q279.865 233.032 279.309 232.846 Q280.559 237.2 284.358 240.35 Q288.202 243.5 293.251 243.5 Q299.596 243.5 303.395 237.339 Q305.664 233.356 305.664 224.324 Q305.664 216.357 303.95 212.374 Q301.31 206.306 295.891 206.306 Q288.202 206.306 283.663 212.929 Q283.107 213.763 282.459 213.809 Q281.532 213.809 281.301 213.3 Q281.115 212.744 281.115 211.308 L281.115 183.239 Q281.115 180.969 282.042 180.969 Q282.412 180.969 283.2 181.247 Q289.175 183.888 295.798 183.934 Q302.607 183.934 308.721 181.155 Q309.184 180.877 309.462 180.877 Q310.389 180.877 310.435 181.942 Q310.435 182.313 309.648 183.424 Q308.907 184.49 307.285 185.926 Q305.664 187.315 303.58 188.658 Q301.496 190.002 298.439 190.928 Q295.428 191.808 292.093 191.808 Q288.109 191.808 284.033 190.557 L284.033 209.039 Q288.943 204.221 296.076 204.221 Q303.673 204.221 308.907 210.336 Q314.141 216.45 314.141 224.972 Q314.141 233.912 307.934 240.026 Q301.773 246.14 293.436 246.14 Q285.84 246.14 281.023 240.721 Q276.252 235.301 276.252 228.77 Z" fill="#000000" fill-rule="nonzero" fill-opacity="1" /><path clip-path="url(#clip750)" d="M56.1562 920.974 L52.4086 920.974 Q52.4086 906.569 44.7377 899.133 Q44.7377 897.083 45.2062 896.732 Q45.6746 896.381 47.8412 896.381 L115.122 896.381 Q118.694 896.381 119.807 894.624 Q120.919 892.867 120.919 885.196 L120.919 881.39 L124.608 881.39 Q124.257 885.606 124.257 900.831 Q124.257 916.055 124.608 920.213 L120.919 920.213 L120.919 916.407 Q120.919 908.853 119.865 907.038 Q118.753 905.222 115.122 905.222 L52.9942 905.222 Q56.1562 911.488 56.1562 920.974 Z" fill="#000000" fill-rule="nonzero" fill-opacity="1" /><path clip-path="url(#clip750)" d="M86.254 861.583 Q68.6286 861.583 59.0254 857.133 Q44.7377 850.926 44.7377 836.287 Q44.7377 833.184 45.6161 829.963 Q46.4359 826.684 49.6565 822.585 Q52.877 818.428 58.1471 815.91 Q68.3359 811.108 86.254 811.108 Q103.762 811.108 113.307 815.558 Q127.243 822.058 127.243 836.404 Q127.243 841.791 124.491 847.296 Q121.739 852.741 115.122 856.196 Q105.226 861.583 86.254 861.583 M84.7901 851.629 Q102.884 851.629 110.086 850.341 Q117.874 848.877 121.271 844.895 Q124.608 840.855 124.608 836.404 Q124.608 831.603 121.036 827.621 Q117.406 823.581 109.618 822.351 Q101.947 821.004 84.7901 821.063 Q68.1016 821.063 61.4262 822.234 Q53.6383 823.815 50.5348 828.031 Q47.3728 832.188 47.3728 836.404 Q47.3728 837.985 47.8412 839.683 Q48.3097 841.323 49.6565 843.724 Q51.0033 846.125 54.3409 847.998 Q57.6786 849.814 62.7145 850.692 Q69.2142 851.629 84.7901 851.629 Z" fill="#000000" fill-rule="nonzero" fill-opacity="1" /><path clip-path="url(#clip750)" d="M62.1078 798.799 Q60.5912 798.799 60.1403 798.676 Q59.6894 798.512 58.9926 797.856 L41.0393 781.748 Q31.1199 772.935 22.4711 772.935 Q16.8556 772.935 12.8387 775.886 Q8.8217 778.796 8.8217 784.166 Q8.8217 787.855 11.0761 790.97 Q13.3305 794.085 17.3475 795.52 Q17.2655 795.274 17.2655 794.413 Q17.2655 792.323 18.5771 791.175 Q19.8888 789.986 21.6513 789.986 Q23.9058 789.986 25.0125 791.462 Q26.0782 792.897 26.0782 794.331 Q26.0782 794.905 25.9552 795.684 Q25.8323 796.422 24.6846 797.61 Q23.4959 798.799 21.4054 798.799 Q15.5439 798.799 10.8712 794.372 Q6.19839 789.904 6.19839 783.1 Q6.19839 775.394 10.7892 770.353 Q15.339 765.27 22.4711 765.27 Q24.9715 765.27 27.2669 766.049 Q29.5213 766.786 31.2838 767.811 Q33.0464 768.795 35.8746 771.5 Q38.7029 774.206 40.7114 776.378 Q42.7198 778.55 46.9827 783.428 L55.6315 792.323 L55.6315 777.198 Q55.6315 769.82 54.9756 769.246 Q53.7869 768.426 47.5156 767.401 L47.5156 765.27 L62.1078 767.647 L62.1078 798.799 Z" fill="#000000" fill-rule="nonzero" fill-opacity="1" /><path clip-path="url(#clip750)" d="M172.419 744.426 L75.2624 744.426 Q71.3903 744.426 71.3903 742.337 Q71.3903 740.248 74.4981 740.248 L171.655 740.248 Q175.527 740.248 175.527 742.337 Q175.527 744.426 172.419 744.426 Z" fill="#000000" fill-rule="nonzero" fill-opacity="1" /><path clip-path="url(#clip750)" d="M110.73 642.358 Q111.257 641.889 111.784 641.889 Q112.311 641.889 113.834 643.06 Q115.356 644.173 117.406 646.574 Q119.455 648.974 121.388 652.078 Q123.32 655.181 124.608 659.749 Q125.955 664.316 125.955 669.118 Q125.955 678.077 120.041 683.347 Q114.127 688.558 105.636 688.558 Q97.3797 688.558 89.4746 683.932 Q81.511 679.307 76.5923 671.811 Q71.615 664.316 71.615 656.411 Q71.615 650.146 74.5428 646.222 Q77.4706 642.299 81.9209 642.299 Q85.3757 642.299 87.4837 644.29 Q89.5917 646.281 89.5917 648.974 Q89.5917 650.848 88.5377 652.137 Q87.4252 653.425 85.3757 653.425 Q82.7407 653.425 80.6912 651.258 Q79.8714 650.438 79.5201 649.501 Q79.1102 648.506 79.1102 647.92 Q79.0516 647.335 79.0516 645.988 Q76.7679 647.218 75.5383 650.146 Q74.25 653.015 74.25 656.294 Q74.25 661.154 77.6463 665.78 Q80.984 670.406 86.254 673.217 Q91.407 676.027 98.7265 677.843 Q105.987 679.658 110.203 679.658 Q116.001 679.658 119.631 676.964 Q123.261 674.271 123.261 668.884 Q123.261 667.83 123.203 666.717 Q123.144 665.546 122.5 662.618 Q121.856 659.632 120.744 656.997 Q119.631 654.362 117.23 651.024 Q114.771 647.628 111.433 644.934 Q110.203 643.997 110.203 643.353 Q110.203 642.826 110.73 642.358 Z" fill="#000000" fill-rule="nonzero" fill-opacity="1" /><path clip-path="url(#clip750)" d="M135.475 585.689 Q141.46 585.689 147.239 588.722 Q153.019 591.714 156.585 596.428 Q160.11 601.142 160.11 605.938 Q160.11 608.807 158.552 610.733 Q156.954 612.619 154.699 613.644 Q157.487 614.422 164.168 616.103 Q170.849 617.784 171.505 617.784 Q171.874 617.784 172.038 617.702 Q172.202 617.62 172.407 617.251 Q172.653 616.882 172.735 615.98 Q172.858 615.078 172.858 613.562 Q172.858 612.783 172.858 612.496 Q172.899 612.168 173.103 611.881 Q173.308 611.553 173.759 611.553 Q175.44 611.553 175.44 613.07 Q175.44 614.422 175.317 617.21 Q175.194 619.997 175.194 621.391 Q175.194 622.579 175.317 624.957 Q175.44 627.334 175.44 628.441 Q175.44 629.547 174.456 629.547 Q173.882 629.547 173.513 629.384 Q173.185 629.261 173.022 628.933 Q172.899 628.605 172.858 628.318 Q172.858 628.072 172.858 627.58 Q172.858 625.694 172.53 624.875 Q172.243 624.055 171.628 623.768 Q171.054 623.44 169.414 623.071 L132.032 613.644 Q129.532 613.07 127.769 613.07 Q125.556 613.07 124.736 613.767 Q123.916 614.463 123.916 615.693 Q123.916 617.825 126.458 619.218 Q128.999 620.612 133.918 621.801 Q135.27 622.169 135.557 622.415 Q135.844 622.62 135.844 623.235 Q135.803 624.26 134.983 624.26 Q134.779 624.26 133.467 623.932 Q132.114 623.604 130.147 622.989 Q128.138 622.333 126.868 621.637 Q126.007 621.227 125.433 620.858 Q124.859 620.489 123.957 619.751 Q123.056 618.972 122.564 617.866 Q122.072 616.759 122.072 615.406 Q122.072 612.783 123.629 610.61 Q125.187 608.438 128.343 607.864 Q125.597 605.528 123.834 602.659 Q122.072 599.789 122.072 596.879 Q122.072 592.042 125.843 588.886 Q129.573 585.689 135.475 585.689 M131.786 591.755 Q128.056 591.755 126.007 593.19 Q123.916 594.584 123.916 597.125 Q123.916 600.281 127.114 603.929 Q130.147 607.536 132.975 608.274 L149.412 612.414 L150.764 612.66 Q151.01 612.66 151.748 612.537 Q152.445 612.373 153.593 611.922 Q154.74 611.43 155.765 610.774 Q156.749 610.078 157.487 608.848 Q158.224 607.577 158.224 606.02 Q158.224 603.519 156.011 600.814 Q153.798 598.068 149.617 596.018 Q146.911 594.748 141.091 593.272 Q135.229 591.755 131.786 591.755 Z" fill="#000000" fill-rule="nonzero" fill-opacity="1" /><path clip-path="url(#clip750)" d="M159.167 580.674 Q157.651 580.674 157.2 580.551 Q156.749 580.388 156.052 579.732 L138.099 563.623 Q128.179 554.81 119.531 554.81 Q113.915 554.81 109.898 557.761 Q105.881 560.672 105.881 566.041 Q105.881 569.73 108.135 572.845 Q110.39 575.961 114.407 577.395 Q114.325 577.149 114.325 576.289 Q114.325 574.198 115.637 573.05 Q116.948 571.862 118.711 571.862 Q120.965 571.862 122.072 573.337 Q123.138 574.772 123.138 576.207 Q123.138 576.78 123.015 577.559 Q122.892 578.297 121.744 579.486 Q120.555 580.674 118.465 580.674 Q112.603 580.674 107.931 576.248 Q103.258 571.78 103.258 564.976 Q103.258 557.27 107.849 552.228 Q112.398 547.145 119.531 547.145 Q122.031 547.145 124.326 547.924 Q126.581 548.662 128.343 549.687 Q130.106 550.67 132.934 553.376 Q135.762 556.081 137.771 558.253 Q139.779 560.426 144.042 565.303 L152.691 574.198 L152.691 559.073 Q152.691 551.695 152.035 551.121 Q150.846 550.301 144.575 549.277 L144.575 547.145 L159.167 549.523 L159.167 580.674 Z" fill="#000000" fill-rule="nonzero" fill-opacity="1" /><path clip-path="url(#clip750)" d="M172.419 513.501 L75.2624 513.501 Q71.3903 513.501 71.3903 511.412 Q71.3903 509.323 74.4981 509.323 L171.655 509.323 Q175.527 509.323 175.527 511.412 Q175.527 513.501 172.419 513.501 Z" fill="#000000" fill-rule="nonzero" fill-opacity="1" /><polyline clip-path="url(#clip752)" style="stroke:#e31a1c; stroke-linecap:round; stroke-linejoin:round; stroke-width:16; stroke-opacity:1; fill:none" points="409.417,1307.46 437.606,1236.07 465.794,1162.83 493.983,1087.23 522.171,1010.46 550.36,934.772 578.548,862.431 606.737,795.052 634.925,733.45 663.114,677.796 691.302,627.848 719.491,583.151 747.68,543.168 775.868,507.356 804.057,475.209 832.245,446.268 860.434,420.132 888.622,396.45 916.811,374.922 944.999,355.287 973.188,337.322 1001.38,320.835 1029.57,305.661 1057.75,291.655 1085.94,278.694 1114.13,266.67 1142.32,255.488 1170.51,245.066 1198.7,235.332 1226.88,226.22 1255.07,217.676 1283.26,209.649 1311.45,202.095 1339.64,194.974 1367.83,188.251 1396.02,181.894 1424.2,175.874 1452.39,170.166 1480.58,164.746 1508.77,159.595 1536.96,154.691 1565.15,150.019 1593.34,145.563 1621.52,141.308 1649.71,137.241 1677.9,133.349 1706.09,129.623 1734.28,126.052 1762.47,122.626 1790.66,119.337 1818.84,116.176 1847.03,113.138 1875.22,110.214 1903.41,107.398 1931.6,104.685 1959.79,102.069 1987.98,99.5449 2016.16,97.1082 2044.35,94.7543 2072.54,92.4792 2100.73,90.279 2128.92,88.15 2157.11,86.089 2185.3,84.0926 "/>
<polyline clip-path="url(#clip752)" style="stroke:#377db8; stroke-linecap:round; stroke-linejoin:round; stroke-width:16; stroke-opacity:1; fill:none" stroke-dasharray="64, 40" points="409.417,1307.46 437.606,1226.6 465.794,1152.34 493.983,1089.3 522.171,1038.43 550.36,997.119 578.548,961.21 606.737,927.258 634.925,893.482 663.114,859.52 691.302,825.758 719.491,792.779 747.68,761.087 775.868,731.019 804.057,702.753 832.245,676.345 860.434,651.768 888.622,628.945 916.811,607.773 944.999,588.133 973.188,569.906 1001.38,552.975 1029.57,537.229 1057.75,522.566 1085.94,508.891 1114.13,496.117 1142.32,484.166 1170.51,472.968 1198.7,462.459 1226.88,452.58 1255.07,443.281 1283.26,434.515 1311.45,426.238 1339.64,418.413 1367.83,411.006 1396.02,403.985 1424.2,397.322 1452.39,390.991 1480.58,384.968 1508.77,379.233 1536.96,373.765 1565.15,368.548 1593.34,363.563 1621.52,358.797 1649.71,354.236 1677.9,349.868 1706.09,345.679 1734.28,341.66 1762.47,337.801 1790.66,334.093 1818.84,330.527 1847.03,327.095 1875.22,323.79 1903.41,320.605 1931.6,317.533 1959.79,314.57 1987.98,311.708 2016.16,308.944 2044.35,306.272 2072.54,303.689 2100.73,301.188 2128.92,298.768 2157.11,296.423 2185.3,294.151 "/>
<polyline clip-path="url(#clip752)" style="stroke:#4dae49; stroke-linecap:round; stroke-linejoin:round; stroke-width:16; stroke-opacity:1; fill:none" stroke-dasharray="8, 16" points="409.417,1307.46 437.606,1278.04 465.794,1245.98 493.983,1209.71 522.171,1171.43 550.36,1135.46 578.548,1104.52 606.737,1078.73 634.925,1056.65 663.114,1036.61 691.302,1017.4 719.491,998.407 747.68,979.479 775.868,960.697 804.057,942.234 832.245,924.269 860.434,906.944 888.622,890.355 916.811,874.558 944.999,859.574 973.188,845.401 1001.38,832.02 1029.57,819.399 1057.75,807.503 1085.94,796.29 1114.13,785.719 1142.32,775.749 1170.51,766.34 1198.7,757.453 1226.88,749.053 1255.07,741.106 1283.26,733.579 1311.45,726.445 1339.64,719.675 1367.83,713.245 1396.02,707.132 1424.2,701.315 1452.39,695.773 1480.58,690.49 1508.77,685.448 1536.96,680.632 1565.15,676.027 1593.34,671.622 1621.52,667.403 1649.71,663.36 1677.9,659.482 1706.09,655.759 1734.28,652.184 1762.47,648.747 1790.66,645.44 1818.84,642.258 1847.03,639.192 1875.22,636.238 1903.41,633.389 1931.6,630.639 1959.79,627.984 1987.98,625.419 2016.16,622.94 2044.35,620.542 2072.54,618.222 2100.73,615.976 2128.92,613.8 2157.11,611.692 2185.3,609.647 "/>
<polyline clip-path="url(#clip752)" style="stroke:#974ea2; stroke-linecap:round; stroke-linejoin:round; stroke-width:16; stroke-opacity:1; fill:none" stroke-dasharray="64, 32, 8, 32" points="409.417,1307.46 437.606,1301.79 465.794,1287.28 493.983,1267.91 522.171,1245.33 550.36,1220.68 578.548,1196.29 606.737,1174.33 634.925,1155.63 663.114,1139.92 691.302,1126.38 719.491,1114.18 747.68,1102.71 775.868,1091.58 804.057,1080.63 832.245,1069.82 860.434,1059.18 888.622,1048.75 916.811,1038.6 944.999,1028.77 973.188,1019.3 1001.38,1010.21 1029.57,1001.51 1057.75,993.201 1085.94,985.281 1114.13,977.741 1142.32,970.566 1170.51,963.743 1198.7,957.255 1226.88,951.085 1255.07,945.216 1283.26,939.631 1311.45,934.315 1339.64,929.251 1367.83,924.425 1396.02,919.823 1424.2,915.431 1452.39,911.237 1480.58,907.23 1508.77,903.397 1536.96,899.73 1565.15,896.217 1593.34,892.852 1621.52,889.624 1649.71,886.527 1677.9,883.553 1706.09,880.695 1734.28,877.947 1762.47,875.303 1790.66,872.758 1818.84,870.306 1847.03,867.943 1875.22,865.664 1903.41,863.464 1931.6,861.341 1959.79,859.289 1987.98,857.306 2016.16,855.389 2044.35,853.534 2072.54,851.738 2100.73,849.999 2128.92,848.314 2157.11,846.68 2185.3,845.096 "/>
<polyline clip-path="url(#clip752)" style="stroke:#ff7e00; stroke-linecap:round; stroke-linejoin:round; stroke-width:16; stroke-opacity:1; fill:none" stroke-dasharray="64, 32, 8, 32, 8, 32" points="409.417,1307.46 437.606,1306.5 465.794,1301.1 493.983,1290.98 522.171,1277.9 550.36,1262.72 578.548,1246.05 606.737,1229.25 634.925,1213.75 663.114,1200.36 691.302,1189.13 719.491,1179.73 747.68,1171.68 775.868,1164.55 804.057,1158 832.245,1151.8 860.434,1145.81 888.622,1139.98 916.811,1134.26 944.999,1128.66 973.188,1123.19 1001.38,1117.86 1029.57,1112.68 1057.75,1107.67 1085.94,1102.82 1114.13,1098.15 1142.32,1093.66 1170.51,1089.35 1198.7,1085.21 1226.88,1081.25 1255.07,1077.45 1283.26,1073.81 1311.45,1070.32 1339.64,1066.98 1367.83,1063.79 1396.02,1060.73 1424.2,1057.8 1452.39,1054.99 1480.58,1052.29 1508.77,1049.71 1536.96,1047.23 1565.15,1044.85 1593.34,1042.57 1621.52,1040.37 1649.71,1038.26 1677.9,1036.23 1706.09,1034.28 1734.28,1032.39 1762.47,1030.58 1790.66,1028.84 1818.84,1027.15 1847.03,1025.53 1875.22,1023.96 1903.41,1022.44 1931.6,1020.98 1959.79,1019.56 1987.98,1018.19 2016.16,1016.87 2044.35,1015.59 2072.54,1014.34 2100.73,1013.14 2128.92,1011.97 2157.11,1010.84 2185.3,1009.75 "/>
<circle clip-path="url(#clip752)" cx="409.417" cy="1307.46" r="18" fill="#e31a1c" fill-rule="evenodd" fill-opacity="1" stroke="#000000" stroke-opacity="1" stroke-width="3.2"/>
<circle clip-path="url(#clip752)" cx="493.983" cy="1087.23" r="18" fill="#e31a1c" fill-rule="evenodd" fill-opacity="1" stroke="#000000" stroke-opacity="1" stroke-width="3.2"/>
<circle clip-path="url(#clip752)" cx="578.548" cy="862.422" r="18" fill="#e31a1c" fill-rule="evenodd" fill-opacity="1" stroke="#000000" stroke-opacity="1" stroke-width="3.2"/>
<circle clip-path="url(#clip752)" cx="663.114" cy="677.782" r="18" fill="#e31a1c" fill-rule="evenodd" fill-opacity="1" stroke="#000000" stroke-opacity="1" stroke-width="3.2"/>
<circle clip-path="url(#clip752)" cx="747.68" cy="543.152" r="18" fill="#e31a1c" fill-rule="evenodd" fill-opacity="1" stroke="#000000" stroke-opacity="1" stroke-width="3.2"/>
<circle clip-path="url(#clip752)" cx="832.245" cy="446.252" r="18" fill="#e31a1c" fill-rule="evenodd" fill-opacity="1" stroke="#000000" stroke-opacity="1" stroke-width="3.2"/>
<circle clip-path="url(#clip752)" cx="916.811" cy="374.906" r="18" fill="#e31a1c" fill-rule="evenodd" fill-opacity="1" stroke="#000000" stroke-opacity="1" stroke-width="3.2"/>
<circle clip-path="url(#clip752)" cx="1001.38" cy="320.821" r="18" fill="#e31a1c" fill-rule="evenodd" fill-opacity="1" stroke="#000000" stroke-opacity="1" stroke-width="3.2"/>
<circle clip-path="url(#clip752)" cx="1085.94" cy="278.68" r="18" fill="#e31a1c" fill-rule="evenodd" fill-opacity="1" stroke="#000000" stroke-opacity="1" stroke-width="3.2"/>
<circle clip-path="url(#clip752)" cx="1170.51" cy="245.052" r="18" fill="#e31a1c" fill-rule="evenodd" fill-opacity="1" stroke="#000000" stroke-opacity="1" stroke-width="3.2"/>
<circle clip-path="url(#clip752)" cx="1255.07" cy="217.662" r="18" fill="#e31a1c" fill-rule="evenodd" fill-opacity="1" stroke="#000000" stroke-opacity="1" stroke-width="3.2"/>
<circle clip-path="url(#clip752)" cx="1339.64" cy="194.96" r="18" fill="#e31a1c" fill-rule="evenodd" fill-opacity="1" stroke="#000000" stroke-opacity="1" stroke-width="3.2"/>
<circle clip-path="url(#clip752)" cx="1424.2" cy="175.86" r="18" fill="#e31a1c" fill-rule="evenodd" fill-opacity="1" stroke="#000000" stroke-opacity="1" stroke-width="3.2"/>
<circle clip-path="url(#clip752)" cx="1508.77" cy="159.58" r="18" fill="#e31a1c" fill-rule="evenodd" fill-opacity="1" stroke="#000000" stroke-opacity="1" stroke-width="3.2"/>
<circle clip-path="url(#clip752)" cx="1593.34" cy="145.545" r="18" fill="#e31a1c" fill-rule="evenodd" fill-opacity="1" stroke="#000000" stroke-opacity="1" stroke-width="3.2"/>
<circle clip-path="url(#clip752)" cx="1677.9" cy="133.318" r="18" fill="#e31a1c" fill-rule="evenodd" fill-opacity="1" stroke="#000000" stroke-opacity="1" stroke-width="3.2"/>
<circle clip-path="url(#clip752)" cx="1762.47" cy="122.561" r="18" fill="#e31a1c" fill-rule="evenodd" fill-opacity="1" stroke="#000000" stroke-opacity="1" stroke-width="3.2"/>
<circle clip-path="url(#clip752)" cx="1847.03" cy="113.008" r="18" fill="#e31a1c" fill-rule="evenodd" fill-opacity="1" stroke="#000000" stroke-opacity="1" stroke-width="3.2"/>
<circle clip-path="url(#clip752)" cx="1931.6" cy="104.462" r="18" fill="#e31a1c" fill-rule="evenodd" fill-opacity="1" stroke="#000000" stroke-opacity="1" stroke-width="3.2"/>
<circle clip-path="url(#clip752)" cx="2016.16" cy="96.7932" r="18" fill="#e31a1c" fill-rule="evenodd" fill-opacity="1" stroke="#000000" stroke-opacity="1" stroke-width="3.2"/>
<circle clip-path="url(#clip752)" cx="2100.73" cy="89.9475" r="18" fill="#e31a1c" fill-rule="evenodd" fill-opacity="1" stroke="#000000" stroke-opacity="1" stroke-width="3.2"/>
<circle clip-path="url(#clip752)" cx="2185.3" cy="83.9494" r="18" fill="#e31a1c" fill-rule="evenodd" fill-opacity="1" stroke="#000000" stroke-opacity="1" stroke-width="3.2"/>
<path clip-path="url(#clip752)" d="M409.417 1287.46 L389.417 1327.46 L429.417 1327.46 L409.417 1287.46 Z" fill="#377db8" fill-rule="evenodd" fill-opacity="1" stroke="#000000" stroke-opacity="1" stroke-width="3.2"/>
<path clip-path="url(#clip752)" d="M493.983 1069.3 L473.983 1109.3 L513.983 1109.3 L493.983 1069.3 Z" fill="#377db8" fill-rule="evenodd" fill-opacity="1" stroke="#000000" stroke-opacity="1" stroke-width="3.2"/>
<path clip-path="url(#clip752)" d="M578.548 941.211 L558.548 981.211 L598.548 981.211 L578.548 941.211 Z" fill="#377db8" fill-rule="evenodd" fill-opacity="1" stroke="#000000" stroke-opacity="1" stroke-width="3.2"/>
<path clip-path="url(#clip752)" d="M663.114 839.517 L643.114 879.517 L683.114 879.517 L663.114 839.517 Z" fill="#377db8" fill-rule="evenodd" fill-opacity="1" stroke="#000000" stroke-opacity="1" stroke-width="3.2"/>
<path clip-path="url(#clip752)" d="M747.68 741.075 L727.68 781.075 L767.68 781.075 L747.68 741.075 Z" fill="#377db8" fill-rule="evenodd" fill-opacity="1" stroke="#000000" stroke-opacity="1" stroke-width="3.2"/>
<path clip-path="url(#clip752)" d="M832.245 656.326 L812.245 696.326 L852.245 696.326 L832.245 656.326 Z" fill="#377db8" fill-rule="evenodd" fill-opacity="1" stroke="#000000" stroke-opacity="1" stroke-width="3.2"/>
<path clip-path="url(#clip752)" d="M916.811 587.748 L896.811 627.748 L936.811 627.748 L916.811 587.748 Z" fill="#377db8" fill-rule="evenodd" fill-opacity="1" stroke="#000000" stroke-opacity="1" stroke-width="3.2"/>
<path clip-path="url(#clip752)" d="M1001.38 532.946 L981.376 572.946 L1021.38 572.946 L1001.38 532.946 Z" fill="#377db8" fill-rule="evenodd" fill-opacity="1" stroke="#000000" stroke-opacity="1" stroke-width="3.2"/>
<path clip-path="url(#clip752)" d="M1085.94 488.859 L1065.94 528.859 L1105.94 528.859 L1085.94 488.859 Z" fill="#377db8" fill-rule="evenodd" fill-opacity="1" stroke="#000000" stroke-opacity="1" stroke-width="3.2"/>
<path clip-path="url(#clip752)" d="M1170.51 452.934 L1150.51 492.934 L1190.51 492.934 L1170.51 452.934 Z" fill="#377db8" fill-rule="evenodd" fill-opacity="1" stroke="#000000" stroke-opacity="1" stroke-width="3.2"/>
<path clip-path="url(#clip752)" d="M1255.07 423.245 L1235.07 463.245 L1275.07 463.245 L1255.07 423.245 Z" fill="#377db8" fill-rule="evenodd" fill-opacity="1" stroke="#000000" stroke-opacity="1" stroke-width="3.2"/>
<path clip-path="url(#clip752)" d="M1339.64 398.376 L1319.64 438.376 L1359.64 438.376 L1339.64 398.376 Z" fill="#377db8" fill-rule="evenodd" fill-opacity="1" stroke="#000000" stroke-opacity="1" stroke-width="3.2"/>
<path clip-path="url(#clip752)" d="M1424.2 377.283 L1404.2 417.283 L1444.2 417.283 L1424.2 377.283 Z" fill="#377db8" fill-rule="evenodd" fill-opacity="1" stroke="#000000" stroke-opacity="1" stroke-width="3.2"/>
<path clip-path="url(#clip752)" d="M1508.77 359.197 L1488.77 399.197 L1528.77 399.197 L1508.77 359.197 Z" fill="#377db8" fill-rule="evenodd" fill-opacity="1" stroke="#000000" stroke-opacity="1" stroke-width="3.2"/>
<path clip-path="url(#clip752)" d="M1593.34 343.549 L1573.34 383.549 L1613.34 383.549 L1593.34 343.549 Z" fill="#377db8" fill-rule="evenodd" fill-opacity="1" stroke="#000000" stroke-opacity="1" stroke-width="3.2"/>
<path clip-path="url(#clip752)" d="M1677.9 329.925 L1657.9 369.925 L1697.9 369.925 L1677.9 329.925 Z" fill="#377db8" fill-rule="evenodd" fill-opacity="1" stroke="#000000" stroke-opacity="1" stroke-width="3.2"/>
<path clip-path="url(#clip752)" d="M1762.47 318.028 L1742.47 358.028 L1782.47 358.028 L1762.47 318.028 Z" fill="#377db8" fill-rule="evenodd" fill-opacity="1" stroke="#000000" stroke-opacity="1" stroke-width="3.2"/>
<path clip-path="url(#clip752)" d="M1847.03 307.611 L1827.03 347.611 L1867.03 347.611 L1847.03 307.611 Z" fill="#377db8" fill-rule="evenodd" fill-opacity="1" stroke="#000000" stroke-opacity="1" stroke-width="3.2"/>
<path clip-path="url(#clip752)" d="M1931.6 298.427 L1911.6 338.427 L1951.6 338.427 L1931.6 298.427 Z" fill="#377db8" fill-rule="evenodd" fill-opacity="1" stroke="#000000" stroke-opacity="1" stroke-width="3.2"/>
<path clip-path="url(#clip752)" d="M2016.16 290.182 L1996.16 330.182 L2036.16 330.182 L2016.16 290.182 Z" fill="#377db8" fill-rule="evenodd" fill-opacity="1" stroke="#000000" stroke-opacity="1" stroke-width="3.2"/>
<path clip-path="url(#clip752)" d="M2100.73 282.539 L2080.73 322.539 L2120.73 322.539 L2100.73 282.539 Z" fill="#377db8" fill-rule="evenodd" fill-opacity="1" stroke="#000000" stroke-opacity="1" stroke-width="3.2"/>
<path clip-path="url(#clip752)" d="M2185.3 275.146 L2165.3 315.146 L2205.3 315.146 L2185.3 275.146 Z" fill="#377db8" fill-rule="evenodd" fill-opacity="1" stroke="#000000" stroke-opacity="1" stroke-width="3.2"/>
<path clip-path="url(#clip752)" d="M409.417 1287.46 L389.417 1307.46 L409.417 1327.46 L429.417 1307.46 L409.417 1287.46 Z" fill="#4dae49" fill-rule="evenodd" fill-opacity="1" stroke="#000000" stroke-opacity="1" stroke-width="3.2"/>
<path clip-path="url(#clip752)" d="M493.983 1189.71 L473.983 1209.71 L493.983 1229.71 L513.983 1209.71 L493.983 1189.71 Z" fill="#4dae49" fill-rule="evenodd" fill-opacity="1" stroke="#000000" stroke-opacity="1" stroke-width="3.2"/>
<path clip-path="url(#clip752)" d="M578.548 1084.51 L558.548 1104.51 L578.548 1124.51 L598.548 1104.51 L578.548 1084.51 Z" fill="#4dae49" fill-rule="evenodd" fill-opacity="1" stroke="#000000" stroke-opacity="1" stroke-width="3.2"/>
<path clip-path="url(#clip752)" d="M663.114 1016.6 L643.114 1036.6 L663.114 1056.6 L683.114 1036.6 L663.114 1016.6 Z" fill="#4dae49" fill-rule="evenodd" fill-opacity="1" stroke="#000000" stroke-opacity="1" stroke-width="3.2"/>
<path clip-path="url(#clip752)" d="M747.68 959.467 L727.68 979.467 L747.68 999.467 L767.68 979.467 L747.68 959.467 Z" fill="#4dae49" fill-rule="evenodd" fill-opacity="1" stroke="#000000" stroke-opacity="1" stroke-width="3.2"/>
<path clip-path="url(#clip752)" d="M832.245 904.249 L812.245 924.249 L832.245 944.249 L852.245 924.249 L832.245 904.249 Z" fill="#4dae49" fill-rule="evenodd" fill-opacity="1" stroke="#000000" stroke-opacity="1" stroke-width="3.2"/>
<path clip-path="url(#clip752)" d="M916.811 854.531 L896.811 874.531 L916.811 894.531 L936.811 874.531 L916.811 854.531 Z" fill="#4dae49" fill-rule="evenodd" fill-opacity="1" stroke="#000000" stroke-opacity="1" stroke-width="3.2"/>
<path clip-path="url(#clip752)" d="M1001.38 811.988 L981.376 831.988 L1001.38 851.988 L1021.38 831.988 L1001.38 811.988 Z" fill="#4dae49" fill-rule="evenodd" fill-opacity="1" stroke="#000000" stroke-opacity="1" stroke-width="3.2"/>
<path clip-path="url(#clip752)" d="M1085.94 776.254 L1065.94 796.254 L1085.94 816.254 L1105.94 796.254 L1085.94 776.254 Z" fill="#4dae49" fill-rule="evenodd" fill-opacity="1" stroke="#000000" stroke-opacity="1" stroke-width="3.2"/>
<path clip-path="url(#clip752)" d="M1170.51 746.3 L1150.51 766.3 L1170.51 786.3 L1190.51 766.3 L1170.51 746.3 Z" fill="#4dae49" fill-rule="evenodd" fill-opacity="1" stroke="#000000" stroke-opacity="1" stroke-width="3.2"/>
<path clip-path="url(#clip752)" d="M1255.07 721.063 L1235.07 741.063 L1255.07 761.063 L1275.07 741.063 L1255.07 721.063 Z" fill="#4dae49" fill-rule="evenodd" fill-opacity="1" stroke="#000000" stroke-opacity="1" stroke-width="3.2"/>
<path clip-path="url(#clip752)" d="M1339.64 699.63 L1319.64 719.63 L1339.64 739.63 L1359.64 719.63 L1339.64 699.63 Z" fill="#4dae49" fill-rule="evenodd" fill-opacity="1" stroke="#000000" stroke-opacity="1" stroke-width="3.2"/>
<path clip-path="url(#clip752)" d="M1424.2 681.265 L1404.2 701.265 L1424.2 721.265 L1444.2 701.265 L1424.2 681.265 Z" fill="#4dae49" fill-rule="evenodd" fill-opacity="1" stroke="#000000" stroke-opacity="1" stroke-width="3.2"/>
<path clip-path="url(#clip752)" d="M1508.77 665.377 L1488.77 685.377 L1508.77 705.377 L1528.77 685.377 L1508.77 665.377 Z" fill="#4dae49" fill-rule="evenodd" fill-opacity="1" stroke="#000000" stroke-opacity="1" stroke-width="3.2"/>
<path clip-path="url(#clip752)" d="M1593.34 651.469 L1573.34 671.469 L1593.34 691.469 L1613.34 671.469 L1593.34 651.469 Z" fill="#4dae49" fill-rule="evenodd" fill-opacity="1" stroke="#000000" stroke-opacity="1" stroke-width="3.2"/>
<path clip-path="url(#clip752)" d="M1677.9 639.123 L1657.9 659.123 L1677.9 679.123 L1697.9 659.123 L1677.9 639.123 Z" fill="#4dae49" fill-rule="evenodd" fill-opacity="1" stroke="#000000" stroke-opacity="1" stroke-width="3.2"/>
<path clip-path="url(#clip752)" d="M1762.47 628.03 L1742.47 648.03 L1762.47 668.03 L1782.47 648.03 L1762.47 628.03 Z" fill="#4dae49" fill-rule="evenodd" fill-opacity="1" stroke="#000000" stroke-opacity="1" stroke-width="3.2"/>
<path clip-path="url(#clip752)" d="M1847.03 618.033 L1827.03 638.033 L1847.03 658.033 L1867.03 638.033 L1847.03 618.033 Z" fill="#4dae49" fill-rule="evenodd" fill-opacity="1" stroke="#000000" stroke-opacity="1" stroke-width="3.2"/>
<path clip-path="url(#clip752)" d="M1931.6 609.101 L1911.6 629.101 L1931.6 649.101 L1951.6 629.101 L1931.6 609.101 Z" fill="#4dae49" fill-rule="evenodd" fill-opacity="1" stroke="#000000" stroke-opacity="1" stroke-width="3.2"/>
<path clip-path="url(#clip752)" d="M2016.16 601.232 L1996.16 621.232 L2016.16 641.232 L2036.16 621.232 L2016.16 601.232 Z" fill="#4dae49" fill-rule="evenodd" fill-opacity="1" stroke="#000000" stroke-opacity="1" stroke-width="3.2"/>
<path clip-path="url(#clip752)" d="M2100.73 594.354 L2080.73 614.354 L2100.73 634.354 L2120.73 614.354 L2100.73 594.354 Z" fill="#4dae49" fill-rule="evenodd" fill-opacity="1" stroke="#000000" stroke-opacity="1" stroke-width="3.2"/>
<path clip-path="url(#clip752)" d="M2185.3 588.265 L2165.3 608.265 L2185.3 628.265 L2205.3 608.265 L2185.3 588.265 Z" fill="#4dae49" fill-rule="evenodd" fill-opacity="1" stroke="#000000" stroke-opacity="1" stroke-width="3.2"/>
<path clip-path="url(#clip752)" d="M429.417 1287.46 L389.417 1287.46 L409.417 1327.46 L429.417 1287.46 Z" fill="#974ea2" fill-rule="evenodd" fill-opacity="1" stroke="#000000" stroke-opacity="1" stroke-width="3.2"/>
<path clip-path="url(#clip752)" d="M513.983 1247.91 L473.983 1247.91 L493.983 1287.91 L513.983 1247.91 Z" fill="#974ea2" fill-rule="evenodd" fill-opacity="1" stroke="#000000" stroke-opacity="1" stroke-width="3.2"/>
<path clip-path="url(#clip752)" d="M598.548 1176.29 L558.548 1176.29 L578.548 1216.29 L598.548 1176.29 Z" fill="#974ea2" fill-rule="evenodd" fill-opacity="1" stroke="#000000" stroke-opacity="1" stroke-width="3.2"/>
<path clip-path="url(#clip752)" d="M683.114 1119.91 L643.114 1119.91 L663.114 1159.91 L683.114 1119.91 Z" fill="#974ea2" fill-rule="evenodd" fill-opacity="1" stroke="#000000" stroke-opacity="1" stroke-width="3.2"/>
<path clip-path="url(#clip752)" d="M767.68 1082.7 L727.68 1082.7 L747.68 1122.7 L767.68 1082.7 Z" fill="#974ea2" fill-rule="evenodd" fill-opacity="1" stroke="#000000" stroke-opacity="1" stroke-width="3.2"/>
<path clip-path="url(#clip752)" d="M852.245 1049.81 L812.245 1049.81 L832.245 1089.81 L852.245 1049.81 Z" fill="#974ea2" fill-rule="evenodd" fill-opacity="1" stroke="#000000" stroke-opacity="1" stroke-width="3.2"/>
<path clip-path="url(#clip752)" d="M936.811 1018.58 L896.811 1018.58 L916.811 1058.58 L936.811 1018.58 Z" fill="#974ea2" fill-rule="evenodd" fill-opacity="1" stroke="#000000" stroke-opacity="1" stroke-width="3.2"/>
<path clip-path="url(#clip752)" d="M1021.38 990.185 L981.376 990.185 L1001.38 1030.19 L1021.38 990.185 Z" fill="#974ea2" fill-rule="evenodd" fill-opacity="1" stroke="#000000" stroke-opacity="1" stroke-width="3.2"/>
<path clip-path="url(#clip752)" d="M1105.94 965.252 L1065.94 965.252 L1085.94 1005.25 L1105.94 965.252 Z" fill="#974ea2" fill-rule="evenodd" fill-opacity="1" stroke="#000000" stroke-opacity="1" stroke-width="3.2"/>
<path clip-path="url(#clip752)" d="M1190.51 943.71 L1150.51 943.71 L1170.51 983.71 L1190.51 943.71 Z" fill="#974ea2" fill-rule="evenodd" fill-opacity="1" stroke="#000000" stroke-opacity="1" stroke-width="3.2"/>
<path clip-path="url(#clip752)" d="M1275.07 925.179 L1235.07 925.179 L1255.07 965.179 L1275.07 925.179 Z" fill="#974ea2" fill-rule="evenodd" fill-opacity="1" stroke="#000000" stroke-opacity="1" stroke-width="3.2"/>
<path clip-path="url(#clip752)" d="M1359.64 909.213 L1319.64 909.213 L1339.64 949.213 L1359.64 909.213 Z" fill="#974ea2" fill-rule="evenodd" fill-opacity="1" stroke="#000000" stroke-opacity="1" stroke-width="3.2"/>
<path clip-path="url(#clip752)" d="M1444.2 895.4 L1404.2 895.4 L1424.2 935.4 L1444.2 895.4 Z" fill="#974ea2" fill-rule="evenodd" fill-opacity="1" stroke="#000000" stroke-opacity="1" stroke-width="3.2"/>
<path clip-path="url(#clip752)" d="M1528.77 883.418 L1488.77 883.418 L1508.77 923.418 L1528.77 883.418 Z" fill="#974ea2" fill-rule="evenodd" fill-opacity="1" stroke="#000000" stroke-opacity="1" stroke-width="3.2"/>
<path clip-path="url(#clip752)" d="M1613.34 873.034 L1573.34 873.034 L1593.34 913.034 L1613.34 873.034 Z" fill="#974ea2" fill-rule="evenodd" fill-opacity="1" stroke="#000000" stroke-opacity="1" stroke-width="3.2"/>
<path clip-path="url(#clip752)" d="M1697.9 864.02 L1657.9 864.02 L1677.9 904.02 L1697.9 864.02 Z" fill="#974ea2" fill-rule="evenodd" fill-opacity="1" stroke="#000000" stroke-opacity="1" stroke-width="3.2"/>
<path clip-path="url(#clip752)" d="M1782.47 856.081 L1742.47 856.081 L1762.47 896.081 L1782.47 856.081 Z" fill="#974ea2" fill-rule="evenodd" fill-opacity="1" stroke="#000000" stroke-opacity="1" stroke-width="3.2"/>
<path clip-path="url(#clip752)" d="M1867.03 848.914 L1827.03 848.914 L1847.03 888.914 L1867.03 848.914 Z" fill="#974ea2" fill-rule="evenodd" fill-opacity="1" stroke="#000000" stroke-opacity="1" stroke-width="3.2"/>
<path clip-path="url(#clip752)" d="M1951.6 842.358 L1911.6 842.358 L1931.6 882.358 L1951.6 842.358 Z" fill="#974ea2" fill-rule="evenodd" fill-opacity="1" stroke="#000000" stroke-opacity="1" stroke-width="3.2"/>
<path clip-path="url(#clip752)" d="M2036.16 836.455 L1996.16 836.455 L2016.16 876.455 L2036.16 836.455 Z" fill="#974ea2" fill-rule="evenodd" fill-opacity="1" stroke="#000000" stroke-opacity="1" stroke-width="3.2"/>
<path clip-path="url(#clip752)" d="M2120.73 831.371 L2080.73 831.371 L2100.73 871.371 L2120.73 831.371 Z" fill="#974ea2" fill-rule="evenodd" fill-opacity="1" stroke="#000000" stroke-opacity="1" stroke-width="3.2"/>
<path clip-path="url(#clip752)" d="M2205.3 827.245 L2165.3 827.245 L2185.3 867.245 L2205.3 827.245 Z" fill="#974ea2" fill-rule="evenodd" fill-opacity="1" stroke="#000000" stroke-opacity="1" stroke-width="3.2"/>
<path clip-path="url(#clip752)" d="M409.417 1327.46 L392.097 1317.46 L392.097 1297.46 L409.417 1287.46 L426.737 1297.46 L426.737 1317.46 Z" fill="#ff7e00" fill-rule="evenodd" fill-opacity="1" stroke="#000000" stroke-opacity="1" stroke-width="3.2"/>
<path clip-path="url(#clip752)" d="M493.983 1310.97 L476.663 1300.97 L476.663 1280.97 L493.983 1270.97 L511.303 1280.97 L511.303 1300.97 Z" fill="#ff7e00" fill-rule="evenodd" fill-opacity="1" stroke="#000000" stroke-opacity="1" stroke-width="3.2"/>
<path clip-path="url(#clip752)" d="M578.548 1266.04 L561.228 1256.04 L561.228 1236.04 L578.548 1226.04 L595.868 1236.04 L595.868 1256.04 Z" fill="#ff7e00" fill-rule="evenodd" fill-opacity="1" stroke="#000000" stroke-opacity="1" stroke-width="3.2"/>
<path clip-path="url(#clip752)" d="M663.114 1220.35 L645.794 1210.35 L645.794 1190.35 L663.114 1180.35 L680.434 1190.35 L680.434 1210.35 Z" fill="#ff7e00" fill-rule="evenodd" fill-opacity="1" stroke="#000000" stroke-opacity="1" stroke-width="3.2"/>
<path clip-path="url(#clip752)" d="M747.68 1191.67 L730.36 1181.67 L730.36 1161.67 L747.68 1151.67 L765 1161.67 L765 1181.67 Z" fill="#ff7e00" fill-rule="evenodd" fill-opacity="1" stroke="#000000" stroke-opacity="1" stroke-width="3.2"/>
<path clip-path="url(#clip752)" d="M832.245 1171.79 L814.925 1161.79 L814.925 1141.79 L832.245 1131.79 L849.565 1141.79 L849.565 1161.79 Z" fill="#ff7e00" fill-rule="evenodd" fill-opacity="1" stroke="#000000" stroke-opacity="1" stroke-width="3.2"/>
<path clip-path="url(#clip752)" d="M916.811 1154.25 L899.491 1144.25 L899.491 1124.25 L916.811 1114.25 L934.131 1124.25 L934.131 1144.25 Z" fill="#ff7e00" fill-rule="evenodd" fill-opacity="1" stroke="#000000" stroke-opacity="1" stroke-width="3.2"/>
<path clip-path="url(#clip752)" d="M1001.38 1137.84 L984.056 1127.84 L984.056 1107.84 L1001.38 1097.84 L1018.7 1107.84 L1018.7 1127.84 Z" fill="#ff7e00" fill-rule="evenodd" fill-opacity="1" stroke="#000000" stroke-opacity="1" stroke-width="3.2"/>
<path clip-path="url(#clip752)" d="M1085.94 1122.8 L1068.62 1112.8 L1068.62 1092.8 L1085.94 1082.8 L1103.26 1092.8 L1103.26 1112.8 Z" fill="#ff7e00" fill-rule="evenodd" fill-opacity="1" stroke="#000000" stroke-opacity="1" stroke-width="3.2"/>
<path clip-path="url(#clip752)" d="M1170.51 1109.33 L1153.19 1099.33 L1153.19 1079.33 L1170.51 1069.33 L1187.83 1079.33 L1187.83 1099.33 Z" fill="#ff7e00" fill-rule="evenodd" fill-opacity="1" stroke="#000000" stroke-opacity="1" stroke-width="3.2"/>
<path clip-path="url(#clip752)" d="M1255.07 1097.42 L1237.75 1087.42 L1237.75 1067.42 L1255.07 1057.42 L1272.39 1067.42 L1272.39 1087.42 Z" fill="#ff7e00" fill-rule="evenodd" fill-opacity="1" stroke="#000000" stroke-opacity="1" stroke-width="3.2"/>
<path clip-path="url(#clip752)" d="M1339.64 1086.95 L1322.32 1076.95 L1322.32 1056.95 L1339.64 1046.95 L1356.96 1056.95 L1356.96 1076.95 Z" fill="#ff7e00" fill-rule="evenodd" fill-opacity="1" stroke="#000000" stroke-opacity="1" stroke-width="3.2"/>
<path clip-path="url(#clip752)" d="M1424.2 1077.75 L1406.88 1067.75 L1406.88 1047.75 L1424.2 1037.75 L1441.52 1047.75 L1441.52 1067.75 Z" fill="#ff7e00" fill-rule="evenodd" fill-opacity="1" stroke="#000000" stroke-opacity="1" stroke-width="3.2"/>
<path clip-path="url(#clip752)" d="M1508.77 1069.58 L1491.45 1059.58 L1491.45 1039.58 L1508.77 1029.58 L1526.09 1039.58 L1526.09 1059.58 Z" fill="#ff7e00" fill-rule="evenodd" fill-opacity="1" stroke="#000000" stroke-opacity="1" stroke-width="3.2"/>
<path clip-path="url(#clip752)" d="M1593.34 1062.3 L1576.02 1052.3 L1576.02 1032.3 L1593.34 1022.3 L1610.66 1032.3 L1610.66 1052.3 Z" fill="#ff7e00" fill-rule="evenodd" fill-opacity="1" stroke="#000000" stroke-opacity="1" stroke-width="3.2"/>
<path clip-path="url(#clip752)" d="M1677.9 1055.86 L1660.58 1045.86 L1660.58 1025.86 L1677.9 1015.86 L1695.22 1025.86 L1695.22 1045.86 Z" fill="#ff7e00" fill-rule="evenodd" fill-opacity="1" stroke="#000000" stroke-opacity="1" stroke-width="3.2"/>
<path clip-path="url(#clip752)" d="M1762.47 1050.26 L1745.15 1040.26 L1745.15 1020.26 L1762.47 1010.26 L1779.79 1020.26 L1779.79 1040.26 Z" fill="#ff7e00" fill-rule="evenodd" fill-opacity="1" stroke="#000000" stroke-opacity="1" stroke-width="3.2"/>
<path clip-path="url(#clip752)" d="M1847.03 1045.37 L1829.71 1035.37 L1829.71 1015.37 L1847.03 1005.37 L1864.35 1015.37 L1864.35 1035.37 Z" fill="#ff7e00" fill-rule="evenodd" fill-opacity="1" stroke="#000000" stroke-opacity="1" stroke-width="3.2"/>
<path clip-path="url(#clip752)" d="M1931.6 1040.9 L1914.28 1030.9 L1914.28 1010.9 L1931.6 1000.9 L1948.92 1010.9 L1948.92 1030.9 Z" fill="#ff7e00" fill-rule="evenodd" fill-opacity="1" stroke="#000000" stroke-opacity="1" stroke-width="3.2"/>
<path clip-path="url(#clip752)" d="M2016.16 1036.66 L1998.84 1026.66 L1998.84 1006.66 L2016.16 996.658 L2033.48 1006.66 L2033.48 1026.66 Z" fill="#ff7e00" fill-rule="evenodd" fill-opacity="1" stroke="#000000" stroke-opacity="1" stroke-width="3.2"/>
<path clip-path="url(#clip752)" d="M2100.73 1032.7 L2083.41 1022.7 L2083.41 1002.7 L2100.73 992.697 L2118.05 1002.7 L2118.05 1022.7 Z" fill="#ff7e00" fill-rule="evenodd" fill-opacity="1" stroke="#000000" stroke-opacity="1" stroke-width="3.2"/>
<path clip-path="url(#clip752)" d="M2185.3 1029.3 L2167.98 1019.3 L2167.98 999.295 L2185.3 989.295 L2202.62 999.295 L2202.62 1019.3 Z" fill="#ff7e00" fill-rule="evenodd" fill-opacity="1" stroke="#000000" stroke-opacity="1" stroke-width="3.2"/>
<path clip-path="url(#clip750)" d="M2318.46 965.735 L2752.76 965.735 L2752.76 421.415 L2318.46 421.415  Z" fill="#ffffff" fill-rule="evenodd" fill-opacity="1"/>
<polyline clip-path="url(#clip750)" style="stroke:#000000; stroke-linecap:round; stroke-linejoin:round; stroke-width:4; stroke-opacity:1; fill:none" points="2318.46,965.735 2752.76,965.735 2752.76,421.415 2318.46,421.415 2318.46,965.735 "/>
<circle clip-path="url(#clip750)" cx="2424.98" cy="512.135" r="36.6545" fill="#e31a1c" fill-rule="evenodd" fill-opacity="1" stroke="#000000" stroke-opacity="1" stroke-width="6.51636"/>
<path clip-path="url(#clip750)" d="M2575.35 508.076 Q2575.35 514.06 2572.32 519.84 Q2569.32 525.619 2564.61 529.185 Q2559.9 532.71 2555.1 532.71 Q2552.23 532.71 2550.31 531.153 Q2548.42 529.554 2547.4 527.3 Q2546.62 530.087 2544.94 536.768 Q2543.26 543.449 2543.26 544.105 Q2543.26 544.474 2543.34 544.638 Q2543.42 544.802 2543.79 545.007 Q2544.16 545.253 2545.06 545.335 Q2545.96 545.458 2547.48 545.458 Q2548.26 545.458 2548.54 545.458 Q2548.87 545.499 2549.16 545.704 Q2549.49 545.909 2549.49 546.36 Q2549.49 548.04 2547.97 548.04 Q2546.62 548.04 2543.83 547.917 Q2541.04 547.794 2539.65 547.794 Q2538.46 547.794 2536.08 547.917 Q2533.7 548.04 2532.6 548.04 Q2531.49 548.04 2531.49 547.056 Q2531.49 546.483 2531.66 546.114 Q2531.78 545.786 2532.11 545.622 Q2532.43 545.499 2532.72 545.458 Q2532.97 545.458 2533.46 545.458 Q2535.34 545.458 2536.16 545.13 Q2536.98 544.843 2537.27 544.228 Q2537.6 543.654 2537.97 542.015 L2547.4 504.633 Q2547.97 502.132 2547.97 500.37 Q2547.97 498.156 2547.27 497.336 Q2546.58 496.517 2545.35 496.517 Q2543.21 496.517 2541.82 499.058 Q2540.43 501.599 2539.24 506.518 Q2538.87 507.871 2538.62 508.158 Q2538.42 508.445 2537.8 508.445 Q2536.78 508.404 2536.78 507.584 Q2536.78 507.379 2537.11 506.067 Q2537.43 504.714 2538.05 502.747 Q2538.71 500.739 2539.4 499.468 Q2539.81 498.607 2540.18 498.033 Q2540.55 497.459 2541.29 496.558 Q2542.07 495.656 2543.17 495.164 Q2544.28 494.672 2545.63 494.672 Q2548.26 494.672 2550.43 496.23 Q2552.6 497.787 2553.17 500.943 Q2555.51 498.197 2558.38 496.435 Q2561.25 494.672 2564.16 494.672 Q2569 494.672 2572.15 498.443 Q2575.35 502.173 2575.35 508.076 M2569.28 504.387 Q2569.28 500.657 2567.85 498.607 Q2566.46 496.517 2563.91 496.517 Q2560.76 496.517 2557.11 499.714 Q2553.5 502.747 2552.76 505.575 L2548.63 522.012 L2548.38 523.365 Q2548.38 523.611 2548.5 524.348 Q2548.67 525.045 2549.12 526.193 Q2549.61 527.341 2550.26 528.365 Q2550.96 529.349 2552.19 530.087 Q2553.46 530.825 2555.02 530.825 Q2557.52 530.825 2560.22 528.611 Q2562.97 526.398 2565.02 522.217 Q2566.29 519.512 2567.77 513.691 Q2569.28 507.83 2569.28 504.387 Z" fill="#000000" fill-rule="nonzero" fill-opacity="1" /><path clip-path="url(#clip750)" d="M2596.6 519.02 Q2596.68 517.995 2598.28 517.995 L2649.72 517.995 Q2652.14 517.995 2652.18 518.938 Q2652.18 519.962 2649.88 519.922 L2598.85 519.922 Q2596.6 519.962 2596.6 519.02 M2596.6 502.624 Q2596.6 501.599 2598.36 501.64 L2649.64 501.64 Q2652.14 501.64 2652.18 502.624 Q2652.18 503.567 2650.05 503.567 L2598.28 503.567 Q2596.6 503.567 2596.6 502.624 Z" fill="#000000" fill-rule="nonzero" fill-opacity="1" /><path clip-path="url(#clip750)" d="M2684.56 504.919 Q2684.56 492.582 2687.67 485.859 Q2692.02 475.858 2702.26 475.858 Q2704.44 475.858 2706.69 476.473 Q2708.98 477.047 2711.85 479.301 Q2714.76 481.556 2716.53 485.245 Q2719.89 492.377 2719.89 504.919 Q2719.89 517.175 2716.77 523.856 Q2712.22 533.612 2702.18 533.612 Q2698.41 533.612 2694.56 531.685 Q2690.74 529.759 2688.33 525.127 Q2684.56 518.2 2684.56 504.919 M2691.52 503.895 Q2691.52 516.56 2692.43 521.602 Q2693.45 527.054 2696.24 529.431 Q2699.07 531.767 2702.18 531.767 Q2705.54 531.767 2708.33 529.267 Q2711.16 526.726 2712.02 521.274 Q2712.96 515.905 2712.92 503.895 Q2712.92 492.213 2712.1 487.54 Q2710.99 482.088 2708.04 479.916 Q2705.13 477.703 2702.18 477.703 Q2701.07 477.703 2699.89 478.03 Q2698.74 478.358 2697.06 479.301 Q2695.38 480.244 2694.06 482.58 Q2692.79 484.917 2692.18 488.442 Q2691.52 492.992 2691.52 503.895 Z" fill="#000000" fill-rule="nonzero" fill-opacity="1" /><path clip-path="url(#clip750)" d="M2424.98 562.127 L2384.25 643.582 L2465.7 643.582 L2424.98 562.127 Z" fill="#377db8" fill-rule="evenodd" fill-opacity="1" stroke="#000000" stroke-opacity="1" stroke-width="6.51636"/>
<path clip-path="url(#clip750)" d="M2575.35 598.796 Q2575.35 604.78 2572.32 610.56 Q2569.32 616.339 2564.61 619.905 Q2559.9 623.43 2555.1 623.43 Q2552.23 623.43 2550.31 621.873 Q2548.42 620.274 2547.4 618.02 Q2546.62 620.807 2544.94 627.488 Q2543.26 634.169 2543.26 634.825 Q2543.26 635.194 2543.34 635.358 Q2543.42 635.522 2543.79 635.727 Q2544.16 635.973 2545.06 636.055 Q2545.96 636.178 2547.48 636.178 Q2548.26 636.178 2548.54 636.178 Q2548.87 636.219 2549.16 636.424 Q2549.49 636.629 2549.49 637.08 Q2549.49 638.76 2547.97 638.76 Q2546.62 638.76 2543.83 638.637 Q2541.04 638.514 2539.65 638.514 Q2538.46 638.514 2536.08 638.637 Q2533.7 638.76 2532.6 638.76 Q2531.49 638.76 2531.49 637.776 Q2531.49 637.203 2531.66 636.834 Q2531.78 636.506 2532.11 636.342 Q2532.43 636.219 2532.72 636.178 Q2532.97 636.178 2533.46 636.178 Q2535.34 636.178 2536.16 635.85 Q2536.98 635.563 2537.27 634.948 Q2537.6 634.374 2537.97 632.735 L2547.4 595.353 Q2547.97 592.852 2547.97 591.09 Q2547.97 588.876 2547.27 588.056 Q2546.58 587.237 2545.35 587.237 Q2543.21 587.237 2541.82 589.778 Q2540.43 592.319 2539.24 597.238 Q2538.87 598.591 2538.62 598.878 Q2538.42 599.165 2537.8 599.165 Q2536.78 599.124 2536.78 598.304 Q2536.78 598.099 2537.11 596.787 Q2537.43 595.434 2538.05 593.467 Q2538.71 591.459 2539.4 590.188 Q2539.81 589.327 2540.18 588.753 Q2540.55 588.179 2541.29 587.278 Q2542.07 586.376 2543.17 585.884 Q2544.28 585.392 2545.63 585.392 Q2548.26 585.392 2550.43 586.95 Q2552.6 588.507 2553.17 591.663 Q2555.51 588.917 2558.38 587.155 Q2561.25 585.392 2564.16 585.392 Q2569 585.392 2572.15 589.163 Q2575.35 592.893 2575.35 598.796 M2569.28 595.107 Q2569.28 591.377 2567.85 589.327 Q2566.46 587.237 2563.91 587.237 Q2560.76 587.237 2557.11 590.434 Q2553.5 593.467 2552.76 596.295 L2548.63 612.732 L2548.38 614.085 Q2548.38 614.331 2548.5 615.068 Q2548.67 615.765 2549.12 616.913 Q2549.61 618.061 2550.26 619.085 Q2550.96 620.069 2552.19 620.807 Q2553.46 621.545 2555.02 621.545 Q2557.52 621.545 2560.22 619.331 Q2562.97 617.118 2565.02 612.937 Q2566.29 610.232 2567.77 604.411 Q2569.28 598.55 2569.28 595.107 Z" fill="#000000" fill-rule="nonzero" fill-opacity="1" /><path clip-path="url(#clip750)" d="M2596.6 609.74 Q2596.68 608.715 2598.28 608.715 L2649.72 608.715 Q2652.14 608.715 2652.18 609.658 Q2652.18 610.682 2649.88 610.642 L2598.85 610.642 Q2596.6 610.682 2596.6 609.74 M2596.6 593.344 Q2596.6 592.319 2598.36 592.36 L2649.64 592.36 Q2652.14 592.36 2652.18 593.344 Q2652.18 594.287 2650.05 594.287 L2598.28 594.287 Q2596.6 594.287 2596.6 593.344 Z" fill="#000000" fill-rule="nonzero" fill-opacity="1" /><path clip-path="url(#clip750)" d="M2684.56 574.571 L2684.56 571.948 Q2694.64 571.948 2699.84 566.578 Q2701.28 566.578 2701.52 566.906 Q2701.77 567.234 2701.77 568.75 L2701.77 615.847 Q2701.77 618.347 2703 619.126 Q2704.23 619.905 2709.6 619.905 L2712.26 619.905 L2712.26 622.487 Q2709.31 622.241 2698.66 622.241 Q2688 622.241 2685.09 622.487 L2685.09 619.905 L2687.75 619.905 Q2693.04 619.905 2694.31 619.167 Q2695.58 618.388 2695.58 615.847 L2695.58 572.358 Q2691.2 574.571 2684.56 574.571 Z" fill="#000000" fill-rule="nonzero" fill-opacity="1" /><path clip-path="url(#clip750)" d="M2424.98 652.847 L2384.25 693.575 L2424.98 734.302 L2465.7 693.575 L2424.98 652.847 Z" fill="#4dae49" fill-rule="evenodd" fill-opacity="1" stroke="#000000" stroke-opacity="1" stroke-width="6.51636"/>
<path clip-path="url(#clip750)" d="M2575.35 689.516 Q2575.35 695.5 2572.32 701.28 Q2569.32 707.059 2564.61 710.625 Q2559.9 714.15 2555.1 714.15 Q2552.23 714.15 2550.31 712.593 Q2548.42 710.994 2547.4 708.74 Q2546.62 711.527 2544.94 718.208 Q2543.26 724.889 2543.26 725.545 Q2543.26 725.914 2543.34 726.078 Q2543.42 726.242 2543.79 726.447 Q2544.16 726.693 2545.06 726.775 Q2545.96 726.898 2547.48 726.898 Q2548.26 726.898 2548.54 726.898 Q2548.87 726.939 2549.16 727.144 Q2549.49 727.349 2549.49 727.8 Q2549.49 729.48 2547.97 729.48 Q2546.62 729.48 2543.83 729.357 Q2541.04 729.234 2539.65 729.234 Q2538.46 729.234 2536.08 729.357 Q2533.7 729.48 2532.6 729.48 Q2531.49 729.48 2531.49 728.496 Q2531.49 727.923 2531.66 727.554 Q2531.78 727.226 2532.11 727.062 Q2532.43 726.939 2532.72 726.898 Q2532.97 726.898 2533.46 726.898 Q2535.34 726.898 2536.16 726.57 Q2536.98 726.283 2537.27 725.668 Q2537.6 725.094 2537.97 723.455 L2547.4 686.073 Q2547.97 683.572 2547.97 681.81 Q2547.97 679.596 2547.27 678.776 Q2546.58 677.957 2545.35 677.957 Q2543.21 677.957 2541.82 680.498 Q2540.43 683.039 2539.24 687.958 Q2538.87 689.311 2538.62 689.598 Q2538.42 689.885 2537.8 689.885 Q2536.78 689.844 2536.78 689.024 Q2536.78 688.819 2537.11 687.507 Q2537.43 686.154 2538.05 684.187 Q2538.71 682.179 2539.4 680.908 Q2539.81 680.047 2540.18 679.473 Q2540.55 678.899 2541.29 677.998 Q2542.07 677.096 2543.17 676.604 Q2544.28 676.112 2545.63 676.112 Q2548.26 676.112 2550.43 677.67 Q2552.6 679.227 2553.17 682.383 Q2555.51 679.637 2558.38 677.875 Q2561.25 676.112 2564.16 676.112 Q2569 676.112 2572.15 679.883 Q2575.35 683.613 2575.35 689.516 M2569.28 685.827 Q2569.28 682.097 2567.85 680.047 Q2566.46 677.957 2563.91 677.957 Q2560.76 677.957 2557.11 681.154 Q2553.5 684.187 2552.76 687.015 L2548.63 703.452 L2548.38 704.805 Q2548.38 705.051 2548.5 705.788 Q2548.67 706.485 2549.12 707.633 Q2549.61 708.781 2550.26 709.805 Q2550.96 710.789 2552.19 711.527 Q2553.46 712.265 2555.02 712.265 Q2557.52 712.265 2560.22 710.051 Q2562.97 707.838 2565.02 703.657 Q2566.29 700.952 2567.77 695.131 Q2569.28 689.27 2569.28 685.827 Z" fill="#000000" fill-rule="nonzero" fill-opacity="1" /><path clip-path="url(#clip750)" d="M2596.6 700.46 Q2596.68 699.435 2598.28 699.435 L2649.72 699.435 Q2652.14 699.435 2652.18 700.378 Q2652.18 701.402 2649.88 701.362 L2598.85 701.362 Q2596.6 701.402 2596.6 700.46 M2596.6 684.064 Q2596.6 683.039 2598.36 683.08 L2649.64 683.08 Q2652.14 683.08 2652.18 684.064 Q2652.18 685.007 2650.05 685.007 L2598.28 685.007 Q2596.6 685.007 2596.6 684.064 Z" fill="#000000" fill-rule="nonzero" fill-opacity="1" /><path clip-path="url(#clip750)" d="M2684.56 713.207 Q2684.56 711.691 2684.68 711.24 Q2684.84 710.789 2685.5 710.092 L2701.61 692.139 Q2710.42 682.22 2710.42 673.571 Q2710.42 667.955 2707.47 663.938 Q2704.56 659.921 2699.19 659.921 Q2695.5 659.921 2692.38 662.176 Q2689.27 664.43 2687.83 668.447 Q2688.08 668.365 2688.94 668.365 Q2691.03 668.365 2692.18 669.677 Q2693.37 670.988 2693.37 672.751 Q2693.37 675.005 2691.89 676.112 Q2690.46 677.178 2689.02 677.178 Q2688.45 677.178 2687.67 677.055 Q2686.93 676.932 2685.74 675.784 Q2684.56 674.596 2684.56 672.505 Q2684.56 666.644 2688.98 661.971 Q2693.45 657.298 2700.25 657.298 Q2707.96 657.298 2713 661.889 Q2718.08 666.439 2718.08 673.571 Q2718.08 676.071 2717.31 678.367 Q2716.57 680.621 2715.54 682.383 Q2714.56 684.146 2711.85 686.974 Q2709.15 689.803 2706.98 691.811 Q2704.8 693.819 2699.93 698.082 L2691.03 706.731 L2706.16 706.731 Q2713.53 706.731 2714.11 706.075 Q2714.93 704.887 2715.95 698.615 L2718.08 698.615 L2715.71 713.207 L2684.56 713.207 Z" fill="#000000" fill-rule="nonzero" fill-opacity="1" /><path clip-path="url(#clip750)" d="M2465.7 743.567 L2384.25 743.567 L2424.98 825.022 L2465.7 743.567 Z" fill="#974ea2" fill-rule="evenodd" fill-opacity="1" stroke="#000000" stroke-opacity="1" stroke-width="6.51636"/>
<path clip-path="url(#clip750)" d="M2575.35 780.236 Q2575.35 786.22 2572.32 792 Q2569.32 797.779 2564.61 801.345 Q2559.9 804.87 2555.1 804.87 Q2552.23 804.87 2550.31 803.313 Q2548.42 801.714 2547.4 799.46 Q2546.62 802.247 2544.94 808.928 Q2543.26 815.609 2543.26 816.265 Q2543.26 816.634 2543.34 816.798 Q2543.42 816.962 2543.79 817.167 Q2544.16 817.413 2545.06 817.495 Q2545.96 817.618 2547.48 817.618 Q2548.26 817.618 2548.54 817.618 Q2548.87 817.659 2549.16 817.864 Q2549.49 818.069 2549.49 818.52 Q2549.49 820.2 2547.97 820.2 Q2546.62 820.2 2543.83 820.077 Q2541.04 819.954 2539.65 819.954 Q2538.46 819.954 2536.08 820.077 Q2533.7 820.2 2532.6 820.2 Q2531.49 820.2 2531.49 819.216 Q2531.49 818.643 2531.66 818.274 Q2531.78 817.946 2532.11 817.782 Q2532.43 817.659 2532.72 817.618 Q2532.97 817.618 2533.46 817.618 Q2535.34 817.618 2536.16 817.29 Q2536.98 817.003 2537.27 816.388 Q2537.6 815.814 2537.97 814.175 L2547.4 776.793 Q2547.97 774.292 2547.97 772.53 Q2547.97 770.316 2547.27 769.496 Q2546.58 768.677 2545.35 768.677 Q2543.21 768.677 2541.82 771.218 Q2540.43 773.759 2539.24 778.678 Q2538.87 780.031 2538.62 780.318 Q2538.42 780.605 2537.8 780.605 Q2536.78 780.564 2536.78 779.744 Q2536.78 779.539 2537.11 778.227 Q2537.43 776.874 2538.05 774.907 Q2538.71 772.899 2539.4 771.628 Q2539.81 770.767 2540.18 770.193 Q2540.55 769.619 2541.29 768.718 Q2542.07 767.816 2543.17 767.324 Q2544.28 766.832 2545.63 766.832 Q2548.26 766.832 2550.43 768.39 Q2552.6 769.947 2553.17 773.103 Q2555.51 770.357 2558.38 768.595 Q2561.25 766.832 2564.16 766.832 Q2569 766.832 2572.15 770.603 Q2575.35 774.333 2575.35 780.236 M2569.28 776.547 Q2569.28 772.817 2567.85 770.767 Q2566.46 768.677 2563.91 768.677 Q2560.76 768.677 2557.11 771.874 Q2553.5 774.907 2552.76 777.735 L2548.63 794.172 L2548.38 795.525 Q2548.38 795.771 2548.5 796.508 Q2548.67 797.205 2549.12 798.353 Q2549.61 799.501 2550.26 800.525 Q2550.96 801.509 2552.19 802.247 Q2553.46 802.985 2555.02 802.985 Q2557.52 802.985 2560.22 800.771 Q2562.97 798.558 2565.02 794.377 Q2566.29 791.672 2567.77 785.851 Q2569.28 779.99 2569.28 776.547 Z" fill="#000000" fill-rule="nonzero" fill-opacity="1" /><path clip-path="url(#clip750)" d="M2596.6 791.18 Q2596.68 790.155 2598.28 790.155 L2649.72 790.155 Q2652.14 790.155 2652.18 791.098 Q2652.18 792.122 2649.88 792.082 L2598.85 792.082 Q2596.6 792.122 2596.6 791.18 M2596.6 774.784 Q2596.6 773.759 2598.36 773.8 L2649.64 773.8 Q2652.14 773.8 2652.18 774.784 Q2652.18 775.727 2650.05 775.727 L2598.28 775.727 Q2596.6 775.727 2596.6 774.784 Z" fill="#000000" fill-rule="nonzero" fill-opacity="1" /><path clip-path="url(#clip750)" d="M2684.56 792.614 Q2684.56 790.114 2685.99 788.925 Q2687.42 787.737 2689.27 787.737 Q2691.2 787.737 2692.55 789.007 Q2693.94 790.237 2693.94 792.409 Q2693.94 794.746 2692.3 796.057 Q2690.7 797.369 2688.41 797.041 Q2690.42 800.402 2694.11 801.919 Q2697.84 803.436 2701.28 803.436 Q2704.89 803.436 2707.8 800.32 Q2710.75 797.205 2710.75 789.581 Q2710.75 783.105 2708.21 779.375 Q2705.71 775.645 2700.75 775.645 L2697.06 775.645 Q2695.79 775.645 2695.42 775.522 Q2695.05 775.399 2695.05 774.702 Q2695.05 773.882 2696.32 773.718 Q2697.59 773.718 2699.6 773.472 Q2704.48 773.308 2707.06 769.087 Q2709.39 765.152 2709.39 759.536 Q2709.39 754.412 2706.94 752.281 Q2704.52 750.108 2701.36 750.108 Q2698.41 750.108 2695.17 751.338 Q2691.93 752.568 2690.17 755.314 Q2695.38 755.314 2695.38 759.536 Q2695.38 761.381 2694.19 762.61 Q2693.04 763.799 2691.11 763.799 Q2689.27 763.799 2688.04 762.651 Q2686.81 761.463 2686.81 759.454 Q2686.81 754.658 2691.07 751.338 Q2695.38 748.018 2701.69 748.018 Q2707.92 748.018 2712.51 751.297 Q2717.14 754.576 2717.14 759.618 Q2717.14 764.578 2713.86 768.636 Q2710.58 772.694 2705.38 774.374 Q2711.77 775.645 2715.58 779.99 Q2719.4 784.294 2719.4 789.581 Q2719.4 796.139 2714.23 800.976 Q2709.07 805.772 2701.52 805.772 Q2694.56 805.772 2689.56 802.001 Q2684.56 798.23 2684.56 792.614 Z" fill="#000000" fill-rule="nonzero" fill-opacity="1" /><path clip-path="url(#clip750)" d="M2424.98 915.742 L2389.71 895.378 L2389.71 854.651 L2424.98 834.287 L2460.25 854.651 L2460.25 895.378 Z" fill="#ff7e00" fill-rule="evenodd" fill-opacity="1" stroke="#000000" stroke-opacity="1" stroke-width="6.51636"/>
<path clip-path="url(#clip750)" d="M2575.35 871.42 Q2575.35 877.405 2572.32 883.184 Q2569.32 888.964 2564.61 892.53 Q2559.9 896.055 2555.1 896.055 Q2552.23 896.055 2550.31 894.497 Q2548.42 892.899 2547.4 890.644 Q2546.62 893.432 2544.94 900.113 Q2543.26 906.794 2543.26 907.45 Q2543.26 907.819 2543.34 907.983 Q2543.42 908.147 2543.79 908.352 Q2544.16 908.598 2545.06 908.68 Q2545.96 908.803 2547.48 908.803 Q2548.26 908.803 2548.54 908.803 Q2548.87 908.844 2549.16 909.049 Q2549.49 909.254 2549.49 909.704 Q2549.49 911.385 2547.97 911.385 Q2546.62 911.385 2543.83 911.262 Q2541.04 911.139 2539.65 911.139 Q2538.46 911.139 2536.08 911.262 Q2533.7 911.385 2532.6 911.385 Q2531.49 911.385 2531.49 910.401 Q2531.49 909.827 2531.66 909.458 Q2531.78 909.131 2532.11 908.967 Q2532.43 908.844 2532.72 908.803 Q2532.97 908.803 2533.46 908.803 Q2535.34 908.803 2536.16 908.475 Q2536.98 908.188 2537.27 907.573 Q2537.6 906.999 2537.97 905.36 L2547.4 867.977 Q2547.97 865.477 2547.97 863.714 Q2547.97 861.501 2547.27 860.681 Q2546.58 859.861 2545.35 859.861 Q2543.21 859.861 2541.82 862.403 Q2540.43 864.944 2539.24 869.863 Q2538.87 871.216 2538.62 871.502 Q2538.42 871.789 2537.8 871.789 Q2536.78 871.748 2536.78 870.929 Q2536.78 870.724 2537.11 869.412 Q2537.43 868.059 2538.05 866.092 Q2538.71 864.083 2539.4 862.813 Q2539.81 861.952 2540.18 861.378 Q2540.55 860.804 2541.29 859.902 Q2542.07 859.001 2543.17 858.509 Q2544.28 858.017 2545.63 858.017 Q2548.26 858.017 2550.43 859.575 Q2552.6 861.132 2553.17 864.288 Q2555.51 861.542 2558.38 859.779 Q2561.25 858.017 2564.16 858.017 Q2569 858.017 2572.15 861.788 Q2575.35 865.518 2575.35 871.42 M2569.28 867.731 Q2569.28 864.001 2567.85 861.952 Q2566.46 859.861 2563.91 859.861 Q2560.76 859.861 2557.11 863.059 Q2553.5 866.092 2552.76 868.92 L2548.63 885.357 L2548.38 886.709 Q2548.38 886.955 2548.5 887.693 Q2548.67 888.39 2549.12 889.538 Q2549.61 890.685 2550.26 891.71 Q2550.96 892.694 2552.19 893.432 Q2553.46 894.169 2555.02 894.169 Q2557.52 894.169 2560.22 891.956 Q2562.97 889.743 2565.02 885.562 Q2566.29 882.856 2567.77 877.036 Q2569.28 871.175 2569.28 867.731 Z" fill="#000000" fill-rule="nonzero" fill-opacity="1" /><path clip-path="url(#clip750)" d="M2596.6 882.365 Q2596.68 881.34 2598.28 881.34 L2649.72 881.34 Q2652.14 881.34 2652.18 882.283 Q2652.18 883.307 2649.88 883.266 L2598.85 883.266 Q2596.6 883.307 2596.6 882.365 M2596.6 865.969 Q2596.6 864.944 2598.36 864.985 L2649.64 864.985 Q2652.14 864.985 2652.18 865.969 Q2652.18 866.912 2650.05 866.912 L2598.28 866.912 Q2596.6 866.912 2596.6 865.969 Z" fill="#000000" fill-rule="nonzero" fill-opacity="1" /><path clip-path="url(#clip750)" d="M2684.56 881.258 L2684.56 878.676 L2710.34 839.285 Q2710.99 838.26 2712.02 838.301 Q2712.96 838.301 2713.17 838.67 Q2713.37 839.039 2713.37 840.474 L2713.37 878.676 L2721.77 878.676 L2721.77 881.258 L2713.37 881.258 L2713.37 888.554 Q2713.37 890.972 2714.35 891.751 Q2715.38 892.53 2719.72 892.53 L2721.49 892.53 L2721.49 895.112 Q2718.04 894.866 2710.09 894.866 Q2702.18 894.866 2698.74 895.112 L2698.74 892.53 L2700.5 892.53 Q2704.84 892.53 2705.87 891.792 Q2706.89 891.013 2706.89 888.554 L2706.89 881.258 L2684.56 881.258 M2686.93 878.676 L2707.39 878.676 L2707.39 847.36 L2686.93 878.676 Z" fill="#000000" fill-rule="nonzero" fill-opacity="1" /><path clip-path="url(#clip750)" d="M576.309 241.523 Q576.309 223.289 583.107 208.586 Q586.005 202.42 590.063 197.255 Q594.121 192.09 596.809 189.824 Q599.497 187.558 600.235 187.558 Q601.289 187.558 601.341 188.612 Q601.341 189.139 599.918 190.457 Q582.527 208.164 582.58 241.523 Q582.58 274.988 599.497 292.01 Q601.341 293.855 601.341 294.435 Q601.341 295.489 600.235 295.489 Q599.497 295.489 596.914 293.328 Q594.332 291.167 590.327 286.213 Q586.322 281.26 583.423 275.199 Q576.309 260.496 576.309 241.523 Z" fill="#000000" fill-rule="nonzero" fill-opacity="1" /><path clip-path="url(#clip750)" d="M651.44 238.045 Q651.44 245.634 647.593 253.065 Q643.798 260.443 637.685 265.08 Q631.624 269.718 625.406 269.718 Q619.345 269.718 615.498 265.08 Q611.704 260.39 611.704 252.749 Q611.704 250.061 612.02 248.164 Q612.336 246.266 613.443 241.84 L622.296 206.636 Q623.825 200.048 623.825 199.995 Q623.825 199.363 623.561 199.047 Q623.35 198.678 622.086 198.414 Q620.821 198.151 618.397 198.151 Q617.395 198.151 616.921 198.098 Q616.499 198.045 616.13 197.782 Q615.814 197.466 615.814 196.833 Q615.814 195.937 616.183 195.463 Q616.605 194.936 616.921 194.831 Q617.237 194.725 617.87 194.673 Q618.765 194.62 621.769 194.356 Q624.773 194.04 627.356 193.829 Q629.938 193.619 631.045 193.619 Q631.677 193.619 631.993 193.935 Q632.362 194.198 632.362 194.515 L632.415 194.778 L624.457 227.294 Q630.728 220.812 637.105 220.812 Q643.482 220.812 647.435 225.713 Q651.44 230.614 651.44 238.045 M643.64 233.302 Q643.64 228.296 641.743 225.766 Q639.898 223.184 636.842 223.184 Q634.259 223.184 630.887 225.133 Q627.514 227.083 623.93 231.826 Q623.245 232.722 622.981 233.249 Q622.771 233.776 622.296 235.568 L619.925 245.529 Q618.186 252.327 618.186 256.438 Q618.186 262.024 620.241 264.659 Q622.296 267.294 625.406 267.294 Q628.673 267.294 632.099 264.395 Q635.524 261.497 638.159 256.227 Q639.793 252.749 641.69 245.265 Q643.64 237.729 643.64 233.302 Z" fill="#000000" fill-rule="nonzero" fill-opacity="1" /><path clip-path="url(#clip750)" d="M659.259 294.435 Q659.259 293.908 660.629 292.59 Q678.02 274.883 678.02 241.523 Q678.02 208.059 661.314 191.142 Q659.259 189.192 659.259 188.612 Q659.259 187.558 660.313 187.558 Q661.051 187.558 663.633 189.719 Q666.268 191.879 670.221 196.833 Q674.226 201.787 677.177 207.848 Q684.292 222.551 684.292 241.523 Q684.292 259.758 677.493 274.461 Q674.595 280.627 670.537 285.792 Q666.479 290.956 663.791 293.223 Q661.104 295.489 660.313 295.489 Q659.259 295.489 659.259 294.435 Z" fill="#000000" fill-rule="nonzero" fill-opacity="1" /></svg>
