<?xml version="1.0" encoding="utf-8"?>
<svg xmlns="http://www.w3.org/2000/svg" xmlns:xlink="http://www.w3.org/1999/xlink" width="700" height="400" viewBox="0 0 2800 1600">
<defs>
  <clipPath id="clip700">
    <rect x="0" y="0" width="2800" height="1600"/>
  </clipPath>
</defs>
<path clip-path="url(#clip700)" d="M0 1600 L2800 1600 L2800 0 L0 0  Z" fill="#ffffff" fill-rule="evenodd" fill-opacity="1"/>
<defs>
  <clipPath id="clip701">
    <rect x="560" y="0" width="1961" height="1600"/>
  </clipPath>
</defs>
<defs>
  <clipPath id="clip702">
    <rect x="357" y="47" width="1883" height="1298"/>
  </clipPath>
</defs>
<path clip-path="url(#clip700)" d="M357.183 1344.16 L2238.71 1344.16 L2238.71 47.2441 L357.183 47.2441  Z" fill="#ffffff" fill-rule="evenodd" fill-opacity="1"/>
<polyline clip-path="url(#clip700)" style="stroke:#000000; stroke-linecap:round; stroke-linejoin:round; stroke-width:4; stroke-opacity:1; fill:none" points="357.183,1344.16 2238.71,1344.16 "/>
<polyline clip-path="url(#clip700)" style="stroke:#000000; stroke-linecap:round; stroke-linejoin:round; stroke-width:4; stroke-opacity:1; fill:none" points="357.183,47.2441 2238.71,47.2441 "/>
<polyline clip-path="url(#clip700)" style="stroke:#000000; stroke-linecap:round; stroke-linejoin:round; stroke-width:4; stroke-opacity:1; fill:none" points="410.434,1344.16 410.434,1325.27 "/>
<polyline clip-path="url(#clip700)" style="stroke:#000000; stroke-linecap:round; stroke-linejoin:round; stroke-width:4; stroke-opacity:1; fill:none" points="765.439,1344.16 765.439,1325.27 "/>
<polyline clip-path="url(#clip700)" style="stroke:#000000; stroke-linecap:round; stroke-linejoin:round; stroke-width:4; stroke-opacity:1; fill:none" points="1120.44,1344.16 1120.44,1325.27 "/>
<polyline clip-path="url(#clip700)" style="stroke:#000000; stroke-linecap:round; stroke-linejoin:round; stroke-width:4; stroke-opacity:1; fill:none" points="1475.45,1344.16 1475.45,1325.27 "/>
<polyline clip-path="url(#clip700)" style="stroke:#000000; stroke-linecap:round; stroke-linejoin:round; stroke-width:4; stroke-opacity:1; fill:none" points="1830.45,1344.16 1830.45,1325.27 "/>
<polyline clip-path="url(#clip700)" style="stroke:#000000; stroke-linecap:round; stroke-linejoin:round; stroke-width:4; stroke-opacity:1; fill:none" points="2185.46,1344.16 2185.46,1325.27 "/>
<path clip-path="url(#clip700)" d="M353.578 1417.22 Q353.578 1403.28 357.098 1395.69 Q362.008 1384.38 373.587 1384.38 Q376.042 1384.38 378.59 1385.08 Q381.184 1385.73 384.426 1388.28 Q387.715 1390.82 389.706 1394.99 Q393.505 1403.05 393.505 1417.22 Q393.505 1431.07 389.984 1438.62 Q384.843 1449.65 373.495 1449.65 Q369.234 1449.65 364.88 1447.47 Q360.572 1445.29 357.839 1440.06 Q353.578 1432.23 353.578 1417.22 M361.452 1416.07 Q361.452 1430.38 362.471 1436.08 Q363.629 1442.24 366.779 1444.92 Q369.975 1447.56 373.495 1447.56 Q377.293 1447.56 380.443 1444.74 Q383.639 1441.87 384.611 1435.71 Q385.677 1429.64 385.63 1416.07 Q385.63 1402.87 384.704 1397.59 Q383.453 1391.43 380.118 1388.97 Q376.83 1386.47 373.495 1386.47 Q372.244 1386.47 370.901 1386.84 Q369.604 1387.21 367.705 1388.28 Q365.806 1389.34 364.324 1391.98 Q362.888 1394.62 362.193 1398.6 Q361.452 1403.75 361.452 1416.07 Z" fill="#000000" fill-rule="nonzero" fill-opacity="1" /><path clip-path="url(#clip700)" d="M406.798 1446.04 Q405.362 1444.51 405.362 1442.52 Q405.362 1440.52 406.798 1439.09 Q408.234 1437.61 410.411 1437.61 Q412.495 1437.61 413.885 1438.99 Q415.321 1440.34 415.321 1442.56 Q415.321 1444.74 413.792 1446.17 Q412.31 1447.56 410.411 1447.56 Q408.234 1447.56 406.798 1446.04 Z" fill="#000000" fill-rule="nonzero" fill-opacity="1" /><path clip-path="url(#clip700)" d="M427.364 1417.22 Q427.364 1403.28 430.884 1395.69 Q435.794 1384.38 447.373 1384.38 Q449.828 1384.38 452.376 1385.08 Q454.97 1385.73 458.212 1388.28 Q461.501 1390.82 463.492 1394.99 Q467.29 1403.05 467.29 1417.22 Q467.29 1431.07 463.77 1438.62 Q458.629 1449.65 447.281 1449.65 Q443.019 1449.65 438.665 1447.47 Q434.358 1445.29 431.625 1440.06 Q427.364 1432.23 427.364 1417.22 M435.238 1416.07 Q435.238 1430.38 436.257 1436.08 Q437.415 1442.24 440.564 1444.92 Q443.76 1447.56 447.281 1447.56 Q451.079 1447.56 454.229 1444.74 Q457.425 1441.87 458.397 1435.71 Q459.463 1429.64 459.416 1416.07 Q459.416 1402.87 458.49 1397.59 Q457.239 1391.43 453.904 1388.97 Q450.616 1386.47 447.281 1386.47 Q446.03 1386.47 444.687 1386.84 Q443.39 1387.21 441.491 1388.28 Q439.592 1389.34 438.11 1391.98 Q436.674 1394.62 435.979 1398.6 Q435.238 1403.75 435.238 1416.07 Z" fill="#000000" fill-rule="nonzero" fill-opacity="1" /><path clip-path="url(#clip700)" d="M709.092 1417.22 Q709.092 1403.28 712.613 1395.69 Q717.522 1384.38 729.102 1384.38 Q731.557 1384.38 734.105 1385.08 Q736.698 1385.73 739.941 1388.28 Q743.229 1390.82 745.221 1394.99 Q749.019 1403.05 749.019 1417.22 Q749.019 1431.07 745.499 1438.62 Q740.358 1449.65 729.01 1449.65 Q724.748 1449.65 720.394 1447.47 Q716.087 1445.29 713.354 1440.06 Q709.092 1432.23 709.092 1417.22 M716.967 1416.07 Q716.967 1430.38 717.986 1436.08 Q719.144 1442.24 722.293 1444.92 Q725.489 1447.56 729.01 1447.56 Q732.808 1447.56 735.957 1444.74 Q739.153 1441.87 740.126 1435.71 Q741.191 1429.64 741.145 1416.07 Q741.145 1402.87 740.219 1397.59 Q738.968 1391.43 735.633 1388.97 Q732.345 1386.47 729.01 1386.47 Q727.759 1386.47 726.416 1386.84 Q725.119 1387.21 723.22 1388.28 Q721.321 1389.34 719.838 1391.98 Q718.403 1394.62 717.708 1398.6 Q716.967 1403.75 716.967 1416.07 Z" fill="#000000" fill-rule="nonzero" fill-opacity="1" /><path clip-path="url(#clip700)" d="M762.313 1446.04 Q760.877 1444.51 760.877 1442.52 Q760.877 1440.52 762.313 1439.09 Q763.749 1437.61 765.926 1437.61 Q768.01 1437.61 769.4 1438.99 Q770.835 1440.34 770.835 1442.56 Q770.835 1444.74 769.307 1446.17 Q767.825 1447.56 765.926 1447.56 Q763.749 1447.56 762.313 1446.04 Z" fill="#000000" fill-rule="nonzero" fill-opacity="1" /><path clip-path="url(#clip700)" d="M783.897 1447.56 Q783.897 1445.85 784.036 1445.34 Q784.222 1444.83 784.963 1444.04 L803.166 1423.76 Q813.124 1412.55 813.124 1402.77 Q813.124 1396.43 809.79 1391.89 Q806.501 1387.35 800.433 1387.35 Q796.264 1387.35 792.744 1389.9 Q789.224 1392.44 787.603 1396.98 Q787.881 1396.89 788.853 1396.89 Q791.216 1396.89 792.513 1398.37 Q793.856 1399.86 793.856 1401.85 Q793.856 1404.39 792.188 1405.65 Q790.567 1406.85 788.946 1406.85 Q788.298 1406.85 787.418 1406.71 Q786.584 1406.57 785.241 1405.27 Q783.897 1403.93 783.897 1401.57 Q783.897 1394.95 788.9 1389.67 Q793.949 1384.38 801.637 1384.38 Q810.345 1384.38 816.043 1389.57 Q821.786 1394.71 821.786 1402.77 Q821.786 1405.6 820.906 1408.19 Q820.072 1410.74 818.914 1412.73 Q817.803 1414.72 814.746 1417.92 Q811.689 1421.12 809.234 1423.39 Q806.779 1425.65 801.267 1430.47 L791.216 1440.25 L808.307 1440.25 Q816.645 1440.25 817.293 1439.5 Q818.22 1438.16 819.378 1431.07 L821.786 1431.07 L819.1 1447.56 L783.897 1447.56 Z" fill="#000000" fill-rule="nonzero" fill-opacity="1" /><path clip-path="url(#clip700)" d="M1063.06 1417.22 Q1063.06 1403.28 1066.58 1395.69 Q1071.49 1384.38 1083.07 1384.38 Q1085.52 1384.38 1088.07 1385.08 Q1090.66 1385.73 1093.9 1388.28 Q1097.19 1390.82 1099.18 1394.99 Q1102.98 1403.05 1102.98 1417.22 Q1102.98 1431.07 1099.46 1438.62 Q1094.32 1449.65 1082.97 1449.65 Q1078.71 1449.65 1074.36 1447.47 Q1070.05 1445.29 1067.32 1440.06 Q1063.06 1432.23 1063.06 1417.22 M1070.93 1416.07 Q1070.93 1430.38 1071.95 1436.08 Q1073.11 1442.24 1076.26 1444.92 Q1079.45 1447.56 1082.97 1447.56 Q1086.77 1447.56 1089.92 1444.74 Q1093.12 1441.87 1094.09 1435.71 Q1095.15 1429.64 1095.11 1416.07 Q1095.11 1402.87 1094.18 1397.59 Q1092.93 1391.43 1089.6 1388.97 Q1086.31 1386.47 1082.97 1386.47 Q1081.72 1386.47 1080.38 1386.84 Q1079.08 1387.21 1077.18 1388.28 Q1075.28 1389.34 1073.8 1391.98 Q1072.37 1394.62 1071.67 1398.6 Q1070.93 1403.75 1070.93 1416.07 Z" fill="#000000" fill-rule="nonzero" fill-opacity="1" /><path clip-path="url(#clip700)" d="M1116.28 1446.04 Q1114.84 1444.51 1114.84 1442.52 Q1114.84 1440.52 1116.28 1439.09 Q1117.71 1437.61 1119.89 1437.61 Q1121.97 1437.61 1123.36 1438.99 Q1124.8 1440.34 1124.8 1442.56 Q1124.8 1444.74 1123.27 1446.17 Q1121.79 1447.56 1119.89 1447.56 Q1117.71 1447.56 1116.28 1446.04 Z" fill="#000000" fill-rule="nonzero" fill-opacity="1" /><path clip-path="url(#clip700)" d="M1135.78 1431.91 L1135.78 1428.99 L1164.91 1384.48 Q1165.65 1383.32 1166.81 1383.37 Q1167.87 1383.37 1168.11 1383.78 Q1168.34 1384.2 1168.34 1385.82 L1168.34 1428.99 L1177.83 1428.99 L1177.83 1431.91 L1168.34 1431.91 L1168.34 1440.15 Q1168.34 1442.89 1169.45 1443.77 Q1170.61 1444.65 1175.52 1444.65 L1177.51 1444.65 L1177.51 1447.56 Q1173.62 1447.29 1164.63 1447.29 Q1155.69 1447.29 1151.8 1447.56 L1151.8 1444.65 L1153.79 1444.65 Q1158.7 1444.65 1159.86 1443.81 Q1161.02 1442.93 1161.02 1440.15 L1161.02 1431.91 L1135.78 1431.91 M1138.46 1428.99 L1161.58 1428.99 L1161.58 1393.6 L1138.46 1428.99 Z" fill="#000000" fill-rule="nonzero" fill-opacity="1" /><path clip-path="url(#clip700)" d="M1418.73 1417.22 Q1418.73 1403.28 1422.25 1395.69 Q1427.16 1384.38 1438.74 1384.38 Q1441.2 1384.38 1443.74 1385.08 Q1446.34 1385.73 1449.58 1388.28 Q1452.87 1390.82 1454.86 1394.99 Q1458.66 1403.05 1458.66 1417.22 Q1458.66 1431.07 1455.14 1438.62 Q1450 1449.65 1438.65 1449.65 Q1434.39 1449.65 1430.03 1447.47 Q1425.73 1445.29 1422.99 1440.06 Q1418.73 1432.23 1418.73 1417.22 M1426.61 1416.07 Q1426.61 1430.38 1427.63 1436.08 Q1428.78 1442.24 1431.93 1444.92 Q1435.13 1447.56 1438.65 1447.56 Q1442.45 1447.56 1445.6 1444.74 Q1448.79 1441.87 1449.77 1435.71 Q1450.83 1429.64 1450.78 1416.07 Q1450.78 1402.87 1449.86 1397.59 Q1448.61 1391.43 1445.27 1388.97 Q1441.98 1386.47 1438.65 1386.47 Q1437.4 1386.47 1436.06 1386.84 Q1434.76 1387.21 1432.86 1388.28 Q1430.96 1389.34 1429.48 1391.98 Q1428.04 1394.62 1427.35 1398.6 Q1426.61 1403.75 1426.61 1416.07 Z" fill="#000000" fill-rule="nonzero" fill-opacity="1" /><path clip-path="url(#clip700)" d="M1471.95 1446.04 Q1470.52 1444.51 1470.52 1442.52 Q1470.52 1440.52 1471.95 1439.09 Q1473.39 1437.61 1475.57 1437.61 Q1477.65 1437.61 1479.04 1438.99 Q1480.48 1440.34 1480.48 1442.56 Q1480.48 1444.74 1478.95 1446.17 Q1477.46 1447.56 1475.57 1447.56 Q1473.39 1447.56 1471.95 1446.04 Z" fill="#000000" fill-rule="nonzero" fill-opacity="1" /><path clip-path="url(#clip700)" d="M1492.8 1417.6 Q1492.8 1402.68 1500.39 1393.56 Q1507.99 1384.38 1517.76 1384.38 Q1523.46 1384.38 1526.61 1387.3 Q1529.8 1390.17 1529.8 1394.62 Q1529.8 1397.08 1528.37 1398.14 Q1526.93 1399.21 1525.45 1399.21 Q1523.74 1399.21 1522.39 1398.05 Q1521.05 1396.89 1521.05 1394.81 Q1521.05 1390.55 1526.28 1390.55 Q1523.83 1386.75 1517.95 1386.75 Q1516.14 1386.75 1514.29 1387.3 Q1512.44 1387.81 1510.03 1389.57 Q1507.62 1391.33 1505.77 1394.11 Q1503.91 1396.89 1502.62 1402.13 Q1501.32 1407.36 1501.32 1414.17 L1501.32 1416.44 Q1505.21 1407.03 1513.18 1407.08 Q1521.14 1407.08 1526.66 1413.15 Q1532.17 1419.22 1532.17 1428.2 Q1532.17 1437.42 1526.42 1443.53 Q1520.68 1449.65 1512.62 1449.65 Q1509.01 1449.65 1505.72 1448.12 Q1502.48 1446.64 1499.42 1443.21 Q1496.41 1439.78 1494.6 1433.2 Q1492.8 1426.63 1492.8 1417.6 M1501.5 1426.12 Q1501.5 1435.43 1503.22 1439.87 Q1503.5 1440.62 1504.1 1441.63 Q1504.75 1442.65 1505.81 1444 Q1506.92 1445.29 1508.73 1446.17 Q1510.54 1447.01 1512.62 1447.01 Q1518.97 1447.01 1522.02 1440.85 Q1523.64 1437.42 1523.64 1428.11 Q1523.64 1418.61 1521.93 1415.14 Q1519.01 1409.26 1513.08 1409.26 Q1509.1 1409.26 1506.32 1411.99 Q1503.59 1414.72 1502.52 1418.38 Q1501.5 1422.04 1501.5 1426.12 Z" fill="#000000" fill-rule="nonzero" fill-opacity="1" /><path clip-path="url(#clip700)" d="M1773.74 1417.22 Q1773.74 1403.28 1777.26 1395.69 Q1782.17 1384.38 1793.75 1384.38 Q1796.2 1384.38 1798.75 1385.08 Q1801.34 1385.73 1804.59 1388.28 Q1807.87 1390.82 1809.87 1394.99 Q1813.66 1403.05 1813.66 1417.22 Q1813.66 1431.07 1810.14 1438.62 Q1805 1449.65 1793.65 1449.65 Q1789.39 1449.65 1785.04 1447.47 Q1780.73 1445.29 1778 1440.06 Q1773.74 1432.23 1773.74 1417.22 M1781.61 1416.07 Q1781.61 1430.38 1782.63 1436.08 Q1783.79 1442.24 1786.94 1444.92 Q1790.13 1447.56 1793.65 1447.56 Q1797.45 1447.56 1800.6 1444.74 Q1803.8 1441.87 1804.77 1435.71 Q1805.84 1429.64 1805.79 1416.07 Q1805.79 1402.87 1804.86 1397.59 Q1803.61 1391.43 1800.28 1388.97 Q1796.99 1386.47 1793.65 1386.47 Q1792.4 1386.47 1791.06 1386.84 Q1789.76 1387.21 1787.86 1388.28 Q1785.97 1389.34 1784.48 1391.98 Q1783.05 1394.62 1782.35 1398.6 Q1781.61 1403.75 1781.61 1416.07 Z" fill="#000000" fill-rule="nonzero" fill-opacity="1" /><path clip-path="url(#clip700)" d="M1826.96 1446.04 Q1825.52 1444.51 1825.52 1442.52 Q1825.52 1440.52 1826.96 1439.09 Q1828.39 1437.61 1830.57 1437.61 Q1832.66 1437.61 1834.04 1438.99 Q1835.48 1440.34 1835.48 1442.56 Q1835.48 1444.74 1833.95 1446.17 Q1832.47 1447.56 1830.57 1447.56 Q1828.39 1447.56 1826.96 1446.04 Z" fill="#000000" fill-rule="nonzero" fill-opacity="1" /><path clip-path="url(#clip700)" d="M1847.8 1433.25 Q1847.8 1422.64 1861.47 1415.79 Q1855.58 1411.81 1854.52 1410.65 Q1850.35 1406.02 1850.35 1400.23 Q1850.35 1393.6 1855.35 1389.02 Q1860.4 1384.38 1867.53 1384.38 Q1874.34 1384.38 1879.48 1388.32 Q1884.62 1392.26 1884.62 1398.51 Q1884.62 1407.31 1873.14 1413.24 Q1880.73 1417.97 1882.54 1419.96 Q1887.17 1425.1 1887.17 1431.63 Q1887.17 1439.23 1881.34 1444.46 Q1875.5 1449.65 1867.44 1449.65 Q1859.57 1449.65 1853.68 1445.06 Q1847.8 1440.48 1847.8 1433.25 M1852.53 1433.25 Q1852.53 1439.13 1856.93 1443.07 Q1861.37 1447.01 1867.53 1447.01 Q1873.51 1447.01 1877.95 1443.58 Q1882.45 1440.15 1882.45 1435.06 Q1882.45 1433.07 1881.75 1431.35 Q1881.1 1429.64 1879.76 1428.3 Q1878.46 1426.91 1877.63 1426.3 Q1876.84 1425.65 1875.31 1424.59 L1863.64 1417.22 Q1852.53 1423.39 1852.53 1433.25 M1854.52 1396.52 Q1854.52 1401.06 1859.29 1404.21 L1871.05 1411.81 Q1880.46 1406.29 1880.46 1398.51 Q1880.46 1393.46 1876.61 1390.13 Q1872.77 1386.75 1867.44 1386.75 Q1862.21 1386.75 1858.36 1389.53 Q1854.52 1392.26 1854.52 1396.52 Z" fill="#000000" fill-rule="nonzero" fill-opacity="1" /><path clip-path="url(#clip700)" d="M2130.97 1393.42 L2130.97 1390.45 Q2142.36 1390.45 2148.24 1384.38 Q2149.86 1384.38 2150.14 1384.76 Q2150.42 1385.13 2150.42 1386.84 L2150.42 1440.06 Q2150.42 1442.89 2151.81 1443.77 Q2153.2 1444.65 2159.27 1444.65 L2162.28 1444.65 L2162.28 1447.56 Q2158.94 1447.29 2146.9 1447.29 Q2134.86 1447.29 2131.57 1447.56 L2131.57 1444.65 L2134.58 1444.65 Q2140.55 1444.65 2141.99 1443.81 Q2143.43 1442.93 2143.43 1440.06 L2143.43 1390.92 Q2138.47 1393.42 2130.97 1393.42 Z" fill="#000000" fill-rule="nonzero" fill-opacity="1" /><path clip-path="url(#clip700)" d="M2179.46 1446.04 Q2178.03 1444.51 2178.03 1442.52 Q2178.03 1440.52 2179.46 1439.09 Q2180.9 1437.61 2183.07 1437.61 Q2185.16 1437.61 2186.55 1438.99 Q2187.98 1440.34 2187.98 1442.56 Q2187.98 1444.74 2186.46 1446.17 Q2184.97 1447.56 2183.07 1447.56 Q2180.9 1447.56 2179.46 1446.04 Z" fill="#000000" fill-rule="nonzero" fill-opacity="1" /><path clip-path="url(#clip700)" d="M2200.03 1417.22 Q2200.03 1403.28 2203.55 1395.69 Q2208.46 1384.38 2220.04 1384.38 Q2222.49 1384.38 2225.04 1385.08 Q2227.63 1385.73 2230.88 1388.28 Q2234.16 1390.82 2236.16 1394.99 Q2239.95 1403.05 2239.95 1417.22 Q2239.95 1431.07 2236.43 1438.62 Q2231.29 1449.65 2219.94 1449.65 Q2215.68 1449.65 2211.33 1447.47 Q2207.02 1445.29 2204.29 1440.06 Q2200.03 1432.23 2200.03 1417.22 M2207.9 1416.07 Q2207.9 1430.38 2208.92 1436.08 Q2210.08 1442.24 2213.23 1444.92 Q2216.42 1447.56 2219.94 1447.56 Q2223.74 1447.56 2226.89 1444.74 Q2230.09 1441.87 2231.06 1435.71 Q2232.13 1429.64 2232.08 1416.07 Q2232.08 1402.87 2231.15 1397.59 Q2229.9 1391.43 2226.57 1388.97 Q2223.28 1386.47 2219.94 1386.47 Q2218.69 1386.47 2217.35 1386.84 Q2216.05 1387.21 2214.15 1388.28 Q2212.26 1389.34 2210.77 1391.98 Q2209.34 1394.62 2208.64 1398.6 Q2207.9 1403.75 2207.9 1416.07 Z" fill="#000000" fill-rule="nonzero" fill-opacity="1" /><path clip-path="url(#clip700)" d="M1214.75 1506.07 L1214.75 1502.32 Q1229.16 1502.32 1236.6 1494.65 Q1238.64 1494.65 1239 1495.12 Q1239.35 1495.59 1239.35 1497.76 L1239.35 1565.04 Q1239.35 1568.61 1241.1 1569.72 Q1242.86 1570.83 1250.53 1570.83 L1254.34 1570.83 L1254.34 1574.52 Q1250.12 1574.17 1234.9 1574.17 Q1219.67 1574.17 1215.52 1574.52 L1215.52 1570.83 L1219.32 1570.83 Q1226.88 1570.83 1228.69 1569.78 Q1230.51 1568.67 1230.51 1565.04 L1230.51 1502.91 Q1224.24 1506.07 1214.75 1506.07 Z" fill="#000000" fill-rule="nonzero" fill-opacity="1" /><path clip-path="url(#clip700)" d="M1260.2 1536.17 Q1260.2 1518.54 1264.65 1508.94 Q1270.86 1494.65 1285.5 1494.65 Q1288.6 1494.65 1291.82 1495.53 Q1295.1 1496.35 1299.2 1499.57 Q1303.36 1502.79 1305.87 1508.06 Q1310.68 1518.25 1310.68 1536.17 Q1310.68 1553.68 1306.22 1563.22 Q1299.73 1577.16 1285.38 1577.16 Q1279.99 1577.16 1274.49 1574.41 Q1269.04 1571.65 1265.59 1565.04 Q1260.2 1555.14 1260.2 1536.17 M1270.15 1534.7 Q1270.15 1552.8 1271.44 1560 Q1272.91 1567.79 1276.89 1571.19 Q1280.93 1574.52 1285.38 1574.52 Q1290.18 1574.52 1294.16 1570.95 Q1298.2 1567.32 1299.43 1559.53 Q1300.78 1551.86 1300.72 1534.7 Q1300.72 1518.02 1299.55 1511.34 Q1297.97 1503.55 1293.75 1500.45 Q1289.59 1497.29 1285.38 1497.29 Q1283.8 1497.29 1282.1 1497.76 Q1280.46 1498.22 1278.06 1499.57 Q1275.66 1500.92 1273.78 1504.26 Q1271.97 1507.59 1271.09 1512.63 Q1270.15 1519.13 1270.15 1534.7 Z" fill="#000000" fill-rule="nonzero" fill-opacity="1" /><path clip-path="url(#clip700)" d="M1374.86 1493.71 Q1374.86 1493.79 1374.78 1493.88 Q1374.25 1498.22 1373.22 1500.64 Q1372.2 1503.02 1369.9 1504.12 Q1368.22 1504.94 1366.13 1504.94 Q1362.97 1504.94 1358.42 1502.85 Q1358.26 1502.77 1357.36 1502.36 Q1356.46 1501.95 1356.13 1501.83 Q1355.8 1501.71 1355.1 1501.46 Q1354.41 1501.17 1353.87 1501.09 Q1353.34 1501.01 1352.81 1501.01 Q1351.66 1501.01 1350.68 1501.5 Q1348.67 1502.48 1347.44 1503.96 Q1346.17 1505.39 1345.84 1507.98 Q1345.76 1508.3 1345.47 1508.55 Q1345.18 1508.8 1344.82 1508.8 Q1344.45 1508.8 1344.12 1508.51 Q1343.79 1508.22 1343.79 1507.81 Q1343.79 1507.73 1343.87 1507.65 Q1344.41 1503.3 1345.43 1500.93 Q1346.45 1498.51 1348.75 1497.4 Q1350.55 1496.54 1352.52 1496.54 Q1355.6 1496.54 1360.27 1498.67 Q1360.43 1498.75 1361.33 1499.16 Q1362.24 1499.57 1362.56 1499.7 Q1362.89 1499.82 1363.59 1500.11 Q1364.29 1500.35 1364.82 1500.43 Q1365.35 1500.52 1365.88 1500.52 Q1366.91 1500.52 1367.97 1499.98 Q1369.98 1499 1371.25 1497.57 Q1372.52 1496.13 1372.85 1493.55 Q1372.93 1493.22 1373.22 1492.97 Q1373.51 1492.69 1373.88 1492.69 Q1374.25 1492.69 1374.57 1493.02 Q1374.86 1493.3 1374.86 1493.71 Z" fill="#000000" fill-rule="nonzero" fill-opacity="1" /><path clip-path="url(#clip700)" d="M1376.25 1522.7 Q1376.25 1523.11 1375.25 1524.87 Q1374.32 1526.57 1370.86 1530.84 Q1367.41 1535.11 1362.26 1540.09 Q1360.32 1542.02 1357.4 1544.72 Q1354.47 1547.41 1352.48 1549.17 L1350.49 1550.92 Q1342.87 1557.37 1336.2 1564.57 Q1336.67 1564.39 1337.49 1564.33 Q1338.31 1564.22 1338.89 1564.22 L1339.48 1564.22 Q1342.52 1564.22 1347.85 1566.27 Q1352.54 1567.79 1354.94 1567.79 Q1357.28 1567.79 1359.85 1566.97 Q1362.43 1566.15 1365.24 1563.75 Q1368.05 1561.35 1369.34 1557.72 Q1369.57 1557.13 1369.69 1556.96 Q1369.81 1556.72 1370.16 1556.49 Q1370.51 1556.19 1370.98 1556.19 Q1371.62 1556.19 1372.03 1556.55 Q1372.44 1556.9 1372.44 1557.37 Q1372.44 1558.42 1371.62 1560.53 Q1370.86 1562.64 1369.17 1565.27 Q1367.53 1567.91 1365.36 1570.31 Q1363.25 1572.65 1360.09 1574.29 Q1356.93 1575.87 1353.59 1575.87 Q1351.19 1575.87 1349.43 1574.7 Q1347.67 1573.59 1345.92 1571.42 Q1343.52 1568.67 1342.23 1567.79 Q1340.94 1566.85 1338.95 1566.85 Q1333.62 1566.85 1328.76 1574.29 Q1328.23 1575.34 1327.88 1575.58 Q1327.59 1575.87 1326.89 1575.87 Q1325.42 1575.81 1325.42 1574.64 Q1325.42 1574.17 1326.71 1572.12 Q1328.06 1570.01 1331.05 1566.33 Q1334.09 1562.64 1337.78 1558.95 L1348.55 1548.88 Q1360.5 1538.8 1365.24 1533.12 Q1363.25 1533.12 1362.37 1533.07 Q1361.55 1533.01 1359.91 1532.66 Q1358.27 1532.25 1355.99 1531.37 Q1350.66 1529.55 1348.44 1529.55 Q1347.85 1529.55 1347.21 1529.61 Q1346.56 1529.67 1345.1 1529.96 Q1343.69 1530.25 1342.52 1530.84 Q1341.35 1531.37 1340.12 1532.54 Q1338.89 1533.65 1338.25 1535.17 Q1338.07 1535.64 1337.95 1535.88 Q1337.84 1536.11 1337.49 1536.34 Q1337.19 1536.52 1336.72 1536.52 Q1336.02 1536.52 1335.61 1536.11 Q1335.26 1535.7 1335.26 1535.17 Q1335.26 1534.12 1336.32 1531.95 Q1337.37 1529.79 1339.13 1527.44 Q1340.88 1525.04 1343.75 1523.29 Q1346.62 1521.53 1349.78 1521.53 Q1351.66 1521.53 1353.24 1522.35 Q1354.88 1523.17 1355.7 1524.05 Q1356.58 1524.87 1358.04 1526.68 Q1359.27 1528.09 1359.85 1528.67 Q1360.44 1529.26 1361.61 1529.9 Q1362.84 1530.49 1364.19 1530.49 Q1366.41 1530.49 1368.46 1528.79 Q1370.51 1527.03 1373.15 1522.82 Q1373.85 1521.53 1374.96 1521.53 Q1376.25 1521.53 1376.25 1522.7 Z" fill="#000000" fill-rule="nonzero" fill-opacity="1" /><polyline clip-path="url(#clip700)" style="stroke:#000000; stroke-linecap:round; stroke-linejoin:round; stroke-width:4; stroke-opacity:1; fill:none" points="357.183,1344.16 357.183,47.2441 "/>
<polyline clip-path="url(#clip700)" style="stroke:#000000; stroke-linecap:round; stroke-linejoin:round; stroke-width:4; stroke-opacity:1; fill:none" points="2238.71,1344.16 2238.71,47.2441 "/>
<polyline clip-path="url(#clip700)" style="stroke:#000000; stroke-linecap:round; stroke-linejoin:round; stroke-width:4; stroke-opacity:1; fill:none" points="357.183,1307.46 372.026,1307.46 "/>
<polyline clip-path="url(#clip700)" style="stroke:#000000; stroke-linecap:round; stroke-linejoin:round; stroke-width:4; stroke-opacity:1; fill:none" points="357.183,1048 372.026,1048 "/>
<polyline clip-path="url(#clip700)" style="stroke:#000000; stroke-linecap:round; stroke-linejoin:round; stroke-width:4; stroke-opacity:1; fill:none" points="357.183,788.55 372.026,788.55 "/>
<polyline clip-path="url(#clip700)" style="stroke:#000000; stroke-linecap:round; stroke-linejoin:round; stroke-width:4; stroke-opacity:1; fill:none" points="357.183,529.096 372.026,529.096 "/>
<polyline clip-path="url(#clip700)" style="stroke:#000000; stroke-linecap:round; stroke-linejoin:round; stroke-width:4; stroke-opacity:1; fill:none" points="357.183,269.641 372.026,269.641 "/>
<path clip-path="url(#clip700)" d="M201.471 1309.52 Q201.471 1295.58 204.991 1287.98 Q209.901 1276.68 221.48 1276.68 Q223.935 1276.68 226.483 1277.37 Q229.077 1278.02 232.319 1280.57 Q235.608 1283.12 237.599 1287.29 Q241.397 1295.35 241.397 1309.52 Q241.397 1323.37 237.877 1330.92 Q232.736 1341.94 221.388 1341.94 Q217.126 1341.94 212.772 1339.77 Q208.465 1337.59 205.732 1332.35 Q201.471 1324.53 201.471 1309.52 M209.345 1308.36 Q209.345 1322.67 210.364 1328.37 Q211.522 1334.53 214.672 1337.22 Q217.868 1339.86 221.388 1339.86 Q225.186 1339.86 228.336 1337.03 Q231.532 1334.16 232.504 1328 Q233.57 1321.93 233.523 1308.36 Q233.523 1295.16 232.597 1289.88 Q231.346 1283.72 228.011 1281.27 Q224.723 1278.76 221.388 1278.76 Q220.137 1278.76 218.794 1279.13 Q217.497 1279.51 215.598 1280.57 Q213.699 1281.64 212.217 1284.28 Q210.781 1286.92 210.086 1290.9 Q209.345 1296.04 209.345 1308.36 Z" fill="#000000" fill-rule="nonzero" fill-opacity="1" /><path clip-path="url(#clip700)" d="M254.691 1338.33 Q253.255 1336.8 253.255 1334.81 Q253.255 1332.82 254.691 1331.38 Q256.127 1329.9 258.304 1329.9 Q260.388 1329.9 261.778 1331.29 Q263.214 1332.63 263.214 1334.86 Q263.214 1337.03 261.685 1338.47 Q260.203 1339.86 258.304 1339.86 Q256.127 1339.86 254.691 1338.33 Z" fill="#000000" fill-rule="nonzero" fill-opacity="1" /><path clip-path="url(#clip700)" d="M275.256 1309.52 Q275.256 1295.58 278.777 1287.98 Q283.687 1276.68 295.266 1276.68 Q297.721 1276.68 300.269 1277.37 Q302.863 1278.02 306.105 1280.57 Q309.393 1283.12 311.385 1287.29 Q315.183 1295.35 315.183 1309.52 Q315.183 1323.37 311.663 1330.92 Q306.522 1341.94 295.174 1341.94 Q290.912 1341.94 286.558 1339.77 Q282.251 1337.59 279.518 1332.35 Q275.256 1324.53 275.256 1309.52 M283.131 1308.36 Q283.131 1322.67 284.15 1328.37 Q285.308 1334.53 288.457 1337.22 Q291.653 1339.86 295.174 1339.86 Q298.972 1339.86 302.121 1337.03 Q305.317 1334.16 306.29 1328 Q307.355 1321.93 307.309 1308.36 Q307.309 1295.16 306.383 1289.88 Q305.132 1283.72 301.797 1281.27 Q298.509 1278.76 295.174 1278.76 Q293.923 1278.76 292.58 1279.13 Q291.283 1279.51 289.384 1280.57 Q287.485 1281.64 286.002 1284.28 Q284.567 1286.92 283.872 1290.9 Q283.131 1296.04 283.131 1308.36 Z" fill="#000000" fill-rule="nonzero" fill-opacity="1" /><path clip-path="url(#clip700)" d="M202.49 1050.07 Q202.49 1036.12 206.01 1028.53 Q210.92 1017.23 222.499 1017.23 Q224.954 1017.23 227.502 1017.92 Q230.096 1018.57 233.338 1021.12 Q236.627 1023.66 238.618 1027.83 Q242.416 1035.89 242.416 1050.07 Q242.416 1063.91 238.896 1071.46 Q233.755 1082.49 222.407 1082.49 Q218.145 1082.49 213.791 1080.31 Q209.484 1078.13 206.751 1072.9 Q202.49 1065.07 202.49 1050.07 M210.364 1048.91 Q210.364 1063.22 211.383 1068.92 Q212.541 1075.08 215.691 1077.76 Q218.887 1080.4 222.407 1080.4 Q226.205 1080.4 229.355 1077.58 Q232.551 1074.71 233.523 1068.55 Q234.589 1062.48 234.542 1048.91 Q234.542 1035.71 233.616 1030.43 Q232.365 1024.27 229.03 1021.81 Q225.742 1019.31 222.407 1019.31 Q221.156 1019.31 219.813 1019.68 Q218.516 1020.05 216.617 1021.12 Q214.718 1022.18 213.236 1024.82 Q211.8 1027.46 211.105 1031.45 Q210.364 1036.59 210.364 1048.91 Z" fill="#000000" fill-rule="nonzero" fill-opacity="1" /><path clip-path="url(#clip700)" d="M255.71 1078.88 Q254.274 1077.35 254.274 1075.36 Q254.274 1073.36 255.71 1071.93 Q257.146 1070.45 259.323 1070.45 Q261.407 1070.45 262.797 1071.84 Q264.233 1073.18 264.233 1075.4 Q264.233 1077.58 262.704 1079.01 Q261.222 1080.4 259.323 1080.4 Q257.146 1080.4 255.71 1078.88 Z" fill="#000000" fill-rule="nonzero" fill-opacity="1" /><path clip-path="url(#clip700)" d="M277.295 1065.12 Q277.295 1062.29 278.823 1061.23 Q280.352 1060.12 281.973 1060.12 Q284.15 1060.12 285.4 1061.51 Q286.697 1062.85 286.697 1064.75 Q286.697 1066.65 285.4 1068.04 Q284.15 1069.38 281.973 1069.38 Q280.907 1069.38 280.352 1069.2 Q281.602 1073.55 285.4 1076.7 Q289.245 1079.85 294.294 1079.85 Q300.639 1079.85 304.437 1073.69 Q306.707 1069.7 306.707 1060.67 Q306.707 1052.71 304.993 1048.72 Q302.353 1042.65 296.934 1042.65 Q289.245 1042.65 284.706 1049.28 Q284.15 1050.11 283.501 1050.16 Q282.575 1050.16 282.343 1049.65 Q282.158 1049.09 282.158 1047.66 L282.158 1019.59 Q282.158 1017.32 283.084 1017.32 Q283.455 1017.32 284.242 1017.6 Q290.217 1020.24 296.841 1020.28 Q303.65 1020.28 309.764 1017.5 Q310.227 1017.23 310.505 1017.23 Q311.431 1017.23 311.478 1018.29 Q311.478 1018.66 310.69 1019.77 Q309.949 1020.84 308.328 1022.27 Q306.707 1023.66 304.623 1025.01 Q302.538 1026.35 299.481 1027.28 Q296.471 1028.16 293.136 1028.16 Q289.152 1028.16 285.076 1026.91 L285.076 1045.39 Q289.986 1040.57 297.119 1040.57 Q304.715 1040.57 309.949 1046.68 Q315.183 1052.8 315.183 1061.32 Q315.183 1070.26 308.977 1076.37 Q302.816 1082.49 294.479 1082.49 Q286.883 1082.49 282.065 1077.07 Q277.295 1071.65 277.295 1065.12 Z" fill="#000000" fill-rule="nonzero" fill-opacity="1" /><path clip-path="url(#clip700)" d="M206.195 766.803 L206.195 763.839 Q217.59 763.839 223.472 757.771 Q225.093 757.771 225.371 758.142 Q225.649 758.512 225.649 760.226 L225.649 813.446 Q225.649 816.272 227.039 817.152 Q228.428 818.032 234.496 818.032 L237.507 818.032 L237.507 820.95 Q234.172 820.672 222.129 820.672 Q210.086 820.672 206.797 820.95 L206.797 818.032 L209.808 818.032 Q215.783 818.032 217.219 817.198 Q218.655 816.318 218.655 813.446 L218.655 764.302 Q213.699 766.803 206.195 766.803 Z" fill="#000000" fill-rule="nonzero" fill-opacity="1" /><path clip-path="url(#clip700)" d="M254.691 819.421 Q253.255 817.893 253.255 815.901 Q253.255 813.909 254.691 812.474 Q256.127 810.991 258.304 810.991 Q260.388 810.991 261.778 812.381 Q263.214 813.724 263.214 815.947 Q263.214 818.124 261.685 819.56 Q260.203 820.95 258.304 820.95 Q256.127 820.95 254.691 819.421 Z" fill="#000000" fill-rule="nonzero" fill-opacity="1" /><path clip-path="url(#clip700)" d="M275.256 790.611 Q275.256 776.669 278.777 769.073 Q283.687 757.771 295.266 757.771 Q297.721 757.771 300.269 758.466 Q302.863 759.114 306.105 761.662 Q309.393 764.209 311.385 768.378 Q315.183 776.438 315.183 790.611 Q315.183 804.46 311.663 812.01 Q306.522 823.034 295.174 823.034 Q290.912 823.034 286.558 820.857 Q282.251 818.68 279.518 813.446 Q275.256 805.618 275.256 790.611 M283.131 789.453 Q283.131 803.766 284.15 809.463 Q285.308 815.623 288.457 818.31 Q291.653 820.95 295.174 820.95 Q298.972 820.95 302.121 818.124 Q305.317 815.253 306.29 809.092 Q307.355 803.025 307.309 789.453 Q307.309 776.252 306.383 770.972 Q305.132 764.812 301.797 762.357 Q298.509 759.855 295.174 759.855 Q293.923 759.855 292.58 760.226 Q291.283 760.597 289.384 761.662 Q287.485 762.727 286.002 765.367 Q284.567 768.008 283.872 771.991 Q283.131 777.132 283.131 789.453 Z" fill="#000000" fill-rule="nonzero" fill-opacity="1" /><path clip-path="url(#clip700)" d="M207.214 507.349 L207.214 504.385 Q218.609 504.385 224.491 498.317 Q226.112 498.317 226.39 498.687 Q226.668 499.058 226.668 500.772 L226.668 553.992 Q226.668 556.817 228.058 557.697 Q229.447 558.578 235.515 558.578 L238.526 558.578 L238.526 561.496 Q235.191 561.218 223.148 561.218 Q211.105 561.218 207.816 561.496 L207.816 558.578 L210.827 558.578 Q216.802 558.578 218.238 557.744 Q219.674 556.864 219.674 553.992 L219.674 504.848 Q214.718 507.349 207.214 507.349 Z" fill="#000000" fill-rule="nonzero" fill-opacity="1" /><path clip-path="url(#clip700)" d="M255.71 559.967 Q254.274 558.439 254.274 556.447 Q254.274 554.455 255.71 553.019 Q257.146 551.537 259.323 551.537 Q261.407 551.537 262.797 552.927 Q264.233 554.27 264.233 556.493 Q264.233 558.67 262.704 560.106 Q261.222 561.496 259.323 561.496 Q257.146 561.496 255.71 559.967 Z" fill="#000000" fill-rule="nonzero" fill-opacity="1" /><path clip-path="url(#clip700)" d="M277.295 546.21 Q277.295 543.385 278.823 542.32 Q280.352 541.208 281.973 541.208 Q284.15 541.208 285.4 542.598 Q286.697 543.941 286.697 545.84 Q286.697 547.739 285.4 549.129 Q284.15 550.472 281.973 550.472 Q280.907 550.472 280.352 550.286 Q281.602 554.64 285.4 557.79 Q289.245 560.94 294.294 560.94 Q300.639 560.94 304.437 554.779 Q306.707 550.796 306.707 541.764 Q306.707 533.797 304.993 529.814 Q302.353 523.746 296.934 523.746 Q289.245 523.746 284.706 530.369 Q284.15 531.203 283.501 531.249 Q282.575 531.249 282.343 530.74 Q282.158 530.184 282.158 528.748 L282.158 500.679 Q282.158 498.409 283.084 498.409 Q283.455 498.409 284.242 498.687 Q290.217 501.328 296.841 501.374 Q303.65 501.374 309.764 498.595 Q310.227 498.317 310.505 498.317 Q311.431 498.317 311.478 499.382 Q311.478 499.753 310.69 500.864 Q309.949 501.93 308.328 503.366 Q306.707 504.755 304.623 506.098 Q302.538 507.442 299.481 508.368 Q296.471 509.248 293.136 509.248 Q289.152 509.248 285.076 507.997 L285.076 526.479 Q289.986 521.661 297.119 521.661 Q304.715 521.661 309.949 527.776 Q315.183 533.89 315.183 542.412 Q315.183 551.352 308.977 557.466 Q302.816 563.58 294.479 563.58 Q286.883 563.58 282.065 558.161 Q277.295 552.741 277.295 546.21 Z" fill="#000000" fill-rule="nonzero" fill-opacity="1" /><path clip-path="url(#clip700)" d="M202.49 302.041 Q202.49 300.328 202.629 299.818 Q202.814 299.309 203.555 298.521 L221.758 278.233 Q231.717 267.024 231.717 257.251 Q231.717 250.905 228.382 246.366 Q225.093 241.827 219.025 241.827 Q214.857 241.827 211.337 244.374 Q207.816 246.922 206.195 251.461 Q206.473 251.369 207.446 251.369 Q209.808 251.369 211.105 252.851 Q212.448 254.333 212.448 256.325 Q212.448 258.872 210.781 260.123 Q209.16 261.327 207.538 261.327 Q206.89 261.327 206.01 261.188 Q205.176 261.049 203.833 259.752 Q202.49 258.409 202.49 256.047 Q202.49 249.423 207.492 244.143 Q212.541 238.862 220.23 238.862 Q228.938 238.862 234.635 244.05 Q240.378 249.192 240.378 257.251 Q240.378 260.076 239.498 262.67 Q238.665 265.218 237.507 267.21 Q236.395 269.201 233.338 272.397 Q230.281 275.593 227.826 277.863 Q225.371 280.133 219.859 284.95 L209.808 294.723 L226.9 294.723 Q235.237 294.723 235.886 293.982 Q236.812 292.639 237.97 285.552 L240.378 285.552 L237.692 302.041 L202.49 302.041 Z" fill="#000000" fill-rule="nonzero" fill-opacity="1" /><path clip-path="url(#clip700)" d="M254.691 300.513 Q253.255 298.984 253.255 296.993 Q253.255 295.001 254.691 293.565 Q256.127 292.083 258.304 292.083 Q260.388 292.083 261.778 293.472 Q263.214 294.816 263.214 297.039 Q263.214 299.216 261.685 300.652 Q260.203 302.041 258.304 302.041 Q256.127 302.041 254.691 300.513 Z" fill="#000000" fill-rule="nonzero" fill-opacity="1" /><path clip-path="url(#clip700)" d="M275.256 271.703 Q275.256 257.761 278.777 250.164 Q283.687 238.862 295.266 238.862 Q297.721 238.862 300.269 239.557 Q302.863 240.206 306.105 242.753 Q309.393 245.301 311.385 249.469 Q315.183 257.529 315.183 271.703 Q315.183 285.552 311.663 293.102 Q306.522 304.126 295.174 304.126 Q290.912 304.126 286.558 301.949 Q282.251 299.772 279.518 294.538 Q275.256 286.71 275.256 271.703 M283.131 270.545 Q283.131 284.857 284.15 290.554 Q285.308 296.715 288.457 299.401 Q291.653 302.041 295.174 302.041 Q298.972 302.041 302.121 299.216 Q305.317 296.344 306.29 290.184 Q307.355 284.116 307.309 270.545 Q307.309 257.344 306.383 252.063 Q305.132 245.903 301.797 243.448 Q298.509 240.947 295.174 240.947 Q293.923 240.947 292.58 241.317 Q291.283 241.688 289.384 242.753 Q287.485 243.819 286.002 246.459 Q284.567 249.099 283.872 253.082 Q283.131 258.224 283.131 270.545 Z" fill="#000000" fill-rule="nonzero" fill-opacity="1" /><path clip-path="url(#clip700)" d="M57.3814 920.974 L53.6338 920.974 Q53.6338 906.569 45.9629 899.133 Q45.9629 897.083 46.4314 896.732 Q46.8998 896.381 49.0664 896.381 L116.347 896.381 Q119.919 896.381 121.032 894.624 Q122.144 892.867 122.144 885.196 L122.144 881.39 L125.833 881.39 Q125.482 885.606 125.482 900.831 Q125.482 916.055 125.833 920.213 L122.144 920.213 L122.144 916.407 Q122.144 908.853 121.09 907.038 Q119.978 905.222 116.347 905.222 L54.2193 905.222 Q57.3814 911.488 57.3814 920.974 Z" fill="#000000" fill-rule="nonzero" fill-opacity="1" /><path clip-path="url(#clip700)" d="M87.4792 861.583 Q69.8538 861.583 60.2506 857.133 Q45.9629 850.926 45.9629 836.287 Q45.9629 833.184 46.8413 829.963 Q47.6611 826.684 50.8816 822.585 Q54.1022 818.428 59.3723 815.91 Q69.561 811.108 87.4792 811.108 Q104.987 811.108 114.532 815.558 Q128.468 822.058 128.468 836.404 Q128.468 841.791 125.716 847.296 Q122.964 852.741 116.347 856.196 Q106.451 861.583 87.4792 861.583 M86.0153 851.629 Q104.109 851.629 111.312 850.341 Q119.1 848.877 122.496 844.895 Q125.833 840.855 125.833 836.404 Q125.833 831.603 122.262 827.621 Q118.631 823.581 110.843 822.351 Q103.172 821.004 86.0153 821.063 Q69.3268 821.063 62.6514 822.234 Q54.8635 823.815 51.76 828.031 Q48.598 832.188 48.598 836.404 Q48.598 837.985 49.0664 839.683 Q49.5349 841.323 50.8816 843.724 Q52.2284 846.125 55.5661 847.998 Q58.9038 849.814 63.9397 850.692 Q70.4394 851.629 86.0153 851.629 Z" fill="#000000" fill-rule="nonzero" fill-opacity="1" /><path clip-path="url(#clip700)" d="M50.1952 798.799 Q47.6948 798.799 46.5061 797.364 Q45.3174 795.93 45.3174 794.085 Q45.3174 792.159 46.5881 790.806 Q47.8178 789.413 49.9902 789.413 Q52.3266 789.413 53.6383 791.052 Q54.9499 792.651 54.622 794.946 Q57.9831 792.938 59.4997 789.249 Q61.0163 785.519 61.0163 782.075 Q61.0163 778.468 57.9011 775.558 Q54.786 772.607 47.162 772.607 Q40.6857 772.607 36.9556 775.148 Q33.2256 777.649 33.2256 782.608 L33.2256 786.297 Q33.2256 787.568 33.1026 787.937 Q32.9797 788.306 32.2828 788.306 Q31.4631 788.306 31.2991 787.035 Q31.2991 785.764 31.0532 783.756 Q30.8892 778.878 26.6673 776.296 Q22.7323 773.96 17.1168 773.96 Q11.9932 773.96 9.86171 776.419 Q7.68928 778.837 7.68928 781.993 Q7.68928 784.945 8.91896 788.183 Q10.1486 791.421 12.8949 793.184 Q12.8949 787.978 17.1168 787.978 Q18.9613 787.978 20.191 789.167 Q21.3797 790.314 21.3797 792.241 Q21.3797 794.085 20.232 795.315 Q19.0433 796.545 17.0348 796.545 Q12.2391 796.545 8.91896 792.282 Q5.59883 787.978 5.59883 781.666 Q5.59883 775.435 8.87797 770.844 Q12.1571 766.213 17.1988 766.213 Q22.1585 766.213 26.2164 769.492 Q30.2744 772.771 31.9549 777.977 Q33.2256 771.582 37.5705 767.77 Q41.8743 763.958 47.162 763.958 Q53.7202 763.958 58.557 769.123 Q63.3527 774.287 63.3527 781.83 Q63.3527 788.798 59.5817 793.798 Q55.8107 798.799 50.1952 798.799 Z" fill="#000000" fill-rule="nonzero" fill-opacity="1" /><path clip-path="url(#clip700)" d="M173.645 744.426 L76.4875 744.426 Q72.6155 744.426 72.6155 742.337 Q72.6155 740.248 75.7233 740.248 L172.88 740.248 Q176.752 740.248 176.752 742.337 Q176.752 744.426 173.645 744.426 Z" fill="#000000" fill-rule="nonzero" fill-opacity="1" /><path clip-path="url(#clip700)" d="M111.956 642.358 Q112.483 641.889 113.01 641.889 Q113.537 641.889 115.059 643.06 Q116.582 644.173 118.631 646.574 Q120.681 648.974 122.613 652.078 Q124.545 655.181 125.833 659.749 Q127.18 664.316 127.18 669.118 Q127.18 678.077 121.266 683.347 Q115.352 688.558 106.861 688.558 Q98.6049 688.558 90.6998 683.932 Q82.7362 679.307 77.8175 671.811 Q72.8402 664.316 72.8402 656.411 Q72.8402 650.146 75.768 646.222 Q78.6958 642.299 83.1461 642.299 Q86.6009 642.299 88.7089 644.29 Q90.8169 646.281 90.8169 648.974 Q90.8169 650.848 89.7629 652.137 Q88.6503 653.425 86.6009 653.425 Q83.9658 653.425 81.9164 651.258 Q81.0966 650.438 80.7453 649.501 Q80.3354 648.506 80.3354 647.92 Q80.2768 647.335 80.2768 645.988 Q77.9931 647.218 76.7634 650.146 Q75.4752 653.015 75.4752 656.294 Q75.4752 661.154 78.8715 665.78 Q82.2092 670.406 87.4792 673.217 Q92.6322 676.027 99.9517 677.843 Q107.213 679.658 111.429 679.658 Q117.226 679.658 120.856 676.964 Q124.487 674.271 124.487 668.884 Q124.487 667.83 124.428 666.717 Q124.37 665.546 123.725 662.618 Q123.081 659.632 121.969 656.997 Q120.856 654.362 118.455 651.024 Q115.996 647.628 112.658 644.934 Q111.429 643.997 111.429 643.353 Q111.429 642.826 111.956 642.358 Z" fill="#000000" fill-rule="nonzero" fill-opacity="1" /><path clip-path="url(#clip700)" d="M136.701 585.689 Q142.685 585.689 148.464 588.722 Q154.244 591.714 157.81 596.428 Q161.335 601.142 161.335 605.938 Q161.335 608.807 159.777 610.733 Q158.179 612.619 155.924 613.644 Q158.712 614.422 165.393 616.103 Q172.074 617.784 172.73 617.784 Q173.099 617.784 173.263 617.702 Q173.427 617.62 173.632 617.251 Q173.878 616.882 173.96 615.98 Q174.083 615.078 174.083 613.562 Q174.083 612.783 174.083 612.496 Q174.124 612.168 174.329 611.881 Q174.534 611.553 174.985 611.553 Q176.665 611.553 176.665 613.07 Q176.665 614.422 176.542 617.21 Q176.419 619.997 176.419 621.391 Q176.419 622.579 176.542 624.957 Q176.665 627.334 176.665 628.441 Q176.665 629.547 175.681 629.547 Q175.107 629.547 174.739 629.384 Q174.411 629.261 174.247 628.933 Q174.124 628.605 174.083 628.318 Q174.083 628.072 174.083 627.58 Q174.083 625.694 173.755 624.875 Q173.468 624.055 172.853 623.768 Q172.279 623.44 170.64 623.071 L133.257 613.644 Q130.757 613.07 128.995 613.07 Q126.781 613.07 125.961 613.767 Q125.142 614.463 125.142 615.693 Q125.142 617.825 127.683 619.218 Q130.224 620.612 135.143 621.801 Q136.496 622.169 136.782 622.415 Q137.069 622.62 137.069 623.235 Q137.028 624.26 136.209 624.26 Q136.004 624.26 134.692 623.932 Q133.339 623.604 131.372 622.989 Q129.363 622.333 128.093 621.637 Q127.232 621.227 126.658 620.858 Q126.084 620.489 125.183 619.751 Q124.281 618.972 123.789 617.866 Q123.297 616.759 123.297 615.406 Q123.297 612.783 124.855 610.61 Q126.412 608.438 129.568 607.864 Q126.822 605.528 125.06 602.659 Q123.297 599.789 123.297 596.879 Q123.297 592.042 127.068 588.886 Q130.798 585.689 136.701 585.689 M133.011 591.755 Q129.281 591.755 127.232 593.19 Q125.142 594.584 125.142 597.125 Q125.142 600.281 128.339 603.929 Q131.372 607.536 134.2 608.274 L150.637 612.414 L151.99 612.66 Q152.235 612.66 152.973 612.537 Q153.67 612.373 154.818 611.922 Q155.965 611.43 156.99 610.774 Q157.974 610.078 158.712 608.848 Q159.45 607.577 159.45 606.02 Q159.45 603.519 157.236 600.814 Q155.023 598.068 150.842 596.018 Q148.137 594.748 142.316 593.272 Q136.455 591.755 133.011 591.755 Z" fill="#000000" fill-rule="nonzero" fill-opacity="1" /><path clip-path="url(#clip700)" d="M160.392 580.674 Q158.876 580.674 158.425 580.551 Q157.974 580.388 157.277 579.732 L139.324 563.623 Q129.404 554.81 120.756 554.81 Q115.14 554.81 111.123 557.761 Q107.106 560.672 107.106 566.041 Q107.106 569.73 109.361 572.845 Q111.615 575.961 115.632 577.395 Q115.55 577.149 115.55 576.289 Q115.55 574.198 116.862 573.05 Q118.173 571.862 119.936 571.862 Q122.19 571.862 123.297 573.337 Q124.363 574.772 124.363 576.207 Q124.363 576.78 124.24 577.559 Q124.117 578.297 122.969 579.486 Q121.78 580.674 119.69 580.674 Q113.828 580.674 109.156 576.248 Q104.483 571.78 104.483 564.976 Q104.483 557.27 109.074 552.228 Q113.624 547.145 120.756 547.145 Q123.256 547.145 125.551 547.924 Q127.806 548.662 129.568 549.687 Q131.331 550.67 134.159 553.376 Q136.987 556.081 138.996 558.253 Q141.004 560.426 145.267 565.303 L153.916 574.198 L153.916 559.073 Q153.916 551.695 153.26 551.121 Q152.071 550.301 145.8 549.277 L145.8 547.145 L160.392 549.523 L160.392 580.674 Z" fill="#000000" fill-rule="nonzero" fill-opacity="1" /><path clip-path="url(#clip700)" d="M173.645 513.501 L76.4875 513.501 Q72.6155 513.501 72.6155 511.412 Q72.6155 509.323 75.7233 509.323 L172.88 509.323 Q176.752 509.323 176.752 511.412 Q176.752 513.501 173.645 513.501 Z" fill="#000000" fill-rule="nonzero" fill-opacity="1" /><polyline clip-path="url(#clip702)" style="stroke:#e31a1c; stroke-linecap:round; stroke-linejoin:round; stroke-width:16; stroke-opacity:1; fill:none" points="410.434,1307.46 438.609,1290.64 466.784,1273.82 494.959,1257 523.134,1240.18 551.309,1223.36 579.484,1206.55 607.659,1189.73 635.834,1172.91 664.009,1156.09 692.184,1139.27 720.359,1122.45 748.534,1105.63 776.709,1088.81 804.884,1071.99 833.059,1055.18 861.234,1038.36 889.409,1021.54 917.584,1004.72 945.759,987.9 973.934,971.081 1002.11,954.262 1030.28,937.443 1058.46,920.624 1086.63,903.805 1114.81,886.986 1142.98,870.167 1171.16,853.349 1199.33,836.53 1227.51,819.711 1255.68,802.892 1283.86,786.073 1312.03,769.254 1340.21,752.435 1368.38,735.616 1396.56,718.797 1424.73,701.979 1452.91,685.16 1481.08,668.341 1509.26,651.522 1537.43,634.703 1565.61,617.884 1593.78,601.065 1621.96,584.246 1650.13,567.427 1678.31,550.609 1706.48,533.79 1734.66,516.971 1762.83,500.152 1791.01,483.333 1819.18,466.514 1847.36,449.695 1875.53,432.876 1903.71,416.057 1931.88,399.239 1960.06,382.42 1988.23,365.601 2016.41,348.782 2044.59,331.963 2072.76,315.144 2100.94,298.325 2129.11,281.506 2157.29,264.687 2185.46,247.869 "/>
<polyline clip-path="url(#clip702)" style="stroke:#377db8; stroke-linecap:round; stroke-linejoin:round; stroke-width:16; stroke-opacity:1; fill:none" stroke-dasharray="64, 40" points="410.434,1307.46 438.609,1288.04 466.784,1268.62 494.959,1249.2 523.134,1229.78 551.309,1210.35 579.484,1190.93 607.659,1171.51 635.834,1152.09 664.009,1132.67 692.184,1113.25 720.359,1093.83 748.534,1074.41 776.709,1054.99 804.884,1035.57 833.059,1016.15 861.234,996.726 889.409,977.305 917.584,957.884 945.759,938.464 973.934,919.043 1002.11,899.622 1030.28,880.201 1058.46,860.781 1086.63,841.36 1114.81,821.939 1142.98,802.518 1171.16,783.097 1199.33,763.677 1227.51,744.256 1255.68,724.835 1283.86,705.414 1312.03,685.994 1340.21,666.573 1368.38,647.152 1396.56,627.731 1424.73,608.31 1452.91,588.89 1481.08,569.469 1509.26,550.048 1537.43,530.627 1565.61,511.207 1593.78,491.786 1621.96,472.365 1650.13,452.944 1678.31,433.523 1706.48,414.103 1734.66,394.682 1762.83,375.261 1791.01,355.84 1819.18,336.42 1847.36,316.999 1875.53,297.578 1903.71,278.157 1931.88,258.736 1960.06,239.316 1988.23,219.895 2016.41,200.474 2044.59,181.053 2072.76,161.632 2100.94,142.212 2129.11,122.791 2157.29,103.37 2185.46,83.9494 "/>
<polyline clip-path="url(#clip702)" style="stroke:#4dae49; stroke-linecap:round; stroke-linejoin:round; stroke-width:16; stroke-opacity:1; fill:none" stroke-dasharray="8, 16" points="410.434,1307.46 438.609,1300.59 466.784,1293.73 494.959,1286.86 523.134,1279.99 551.309,1273.13 579.484,1266.26 607.659,1259.39 635.834,1252.53 664.009,1245.66 692.184,1238.8 720.359,1231.93 748.534,1225.06 776.709,1218.2 804.884,1211.33 833.059,1204.46 861.234,1197.6 889.409,1190.73 917.584,1183.87 945.759,1177 973.934,1170.13 1002.11,1163.27 1030.28,1156.4 1058.46,1149.53 1086.63,1142.67 1114.81,1135.8 1142.98,1128.94 1171.16,1122.07 1199.33,1115.2 1227.51,1108.34 1255.68,1101.47 1283.86,1094.6 1312.03,1087.74 1340.21,1080.87 1368.38,1074 1396.56,1067.14 1424.73,1060.27 1452.91,1053.41 1481.08,1046.54 1509.26,1039.67 1537.43,1032.81 1565.61,1025.94 1593.78,1019.07 1621.96,1012.21 1650.13,1005.34 1678.31,998.476 1706.48,991.61 1734.66,984.743 1762.83,977.877 1791.01,971.011 1819.18,964.144 1847.36,957.278 1875.53,950.412 1903.71,943.546 1931.88,936.679 1960.06,929.813 1988.23,922.947 2016.41,916.08 2044.59,909.214 2072.76,902.348 2100.94,895.482 2129.11,888.615 2157.29,881.749 2185.46,874.883 "/>
<polyline clip-path="url(#clip702)" style="stroke:#974ea2; stroke-linecap:round; stroke-linejoin:round; stroke-width:16; stroke-opacity:1; fill:none" stroke-dasharray="64, 32, 8, 32" points="410.434,1307.46 438.609,1307.46 466.784,1307.46 494.959,1307.46 523.134,1307.46 551.309,1307.46 579.484,1307.46 607.659,1307.46 635.834,1307.46 664.009,1307.46 692.184,1307.46 720.359,1307.46 748.534,1307.46 776.709,1307.46 804.884,1307.46 833.059,1307.46 861.234,1307.46 889.409,1307.46 917.584,1307.46 945.759,1307.46 973.934,1307.46 1002.11,1307.46 1030.28,1307.46 1058.46,1307.46 1086.63,1307.46 1114.81,1307.46 1142.98,1307.46 1171.16,1307.46 1199.33,1307.46 1227.51,1307.46 1255.68,1307.46 1283.86,1307.46 1312.03,1307.46 1340.21,1307.46 1368.38,1307.46 1396.56,1307.46 1424.73,1307.46 1452.91,1307.46 1481.08,1307.46 1509.26,1307.46 1537.43,1307.46 1565.61,1307.46 1593.78,1307.46 1621.96,1307.46 1650.13,1307.46 1678.31,1307.46 1706.48,1307.46 1734.66,1307.46 1762.83,1307.46 1791.01,1307.46 1819.18,1307.46 1847.36,1307.46 1875.53,1307.46 1903.71,1307.46 1931.88,1307.46 1960.06,1307.46 1988.23,1307.46 2016.41,1307.46 2044.59,1307.46 2072.76,1307.46 2100.94,1307.46 2129.11,1307.46 2157.29,1307.46 2185.46,1307.46 "/>
<polyline clip-path="url(#clip702)" style="stroke:#ff7e00; stroke-linecap:round; stroke-linejoin:round; stroke-width:16; stroke-opacity:1; fill:none" stroke-dasharray="64, 32, 8, 32, 8, 32" points="410.434,1307.46 438.609,1307.46 466.784,1307.46 494.959,1307.46 523.134,1307.46 551.309,1307.46 579.484,1307.46 607.659,1307.46 635.834,1307.46 664.009,1307.46 692.184,1307.46 720.359,1307.46 748.534,1307.46 776.709,1307.46 804.884,1307.46 833.059,1307.46 861.234,1307.46 889.409,1307.46 917.584,1307.46 945.759,1307.46 973.934,1307.46 1002.11,1307.46 1030.28,1307.46 1058.46,1307.46 1086.63,1307.46 1114.81,1307.46 1142.98,1307.46 1171.16,1307.46 1199.33,1307.46 1227.51,1307.46 1255.68,1307.46 1283.86,1307.46 1312.03,1307.46 1340.21,1307.46 1368.38,1307.46 1396.56,1307.46 1424.73,1307.46 1452.91,1307.46 1481.08,1307.46 1509.26,1307.46 1537.43,1307.46 1565.61,1307.46 1593.78,1307.46 1621.96,1307.46 1650.13,1307.46 1678.31,1307.46 1706.48,1307.46 1734.66,1307.46 1762.83,1307.46 1791.01,1307.46 1819.18,1307.46 1847.36,1307.46 1875.53,1307.46 1903.71,1307.46 1931.88,1307.46 1960.06,1307.46 1988.23,1307.46 2016.41,1307.46 2044.59,1307.46 2072.76,1307.46 2100.94,1307.46 2129.11,1307.46 2157.29,1307.46 2185.46,1307.46 "/>
<circle clip-path="url(#clip702)" cx="410.434" cy="1307.46" r="18" fill="#e31a1c" fill-rule="evenodd" fill-opacity="1" stroke="#000000" stroke-opacity="1" stroke-width="3.2"/>
<circle clip-path="url(#clip702)" cx="494.959" cy="1257" r="18" fill="#e31a1c" fill-rule="evenodd" fill-opacity="1" stroke="#000000" stroke-opacity="1" stroke-width="3.2"/>
<circle clip-path="url(#clip702)" cx="579.484" cy="1206.54" r="18" fill="#e31a1c" fill-rule="evenodd" fill-opacity="1" stroke="#000000" stroke-opacity="1" stroke-width="3.2"/>
<circle clip-path="url(#clip702)" cx="664.009" cy="1156.06" r="18" fill="#e31a1c" fill-rule="evenodd" fill-opacity="1" stroke="#000000" stroke-opacity="1" stroke-width="3.2"/>
<circle clip-path="url(#clip702)" cx="748.534" cy="1105.57" r="18" fill="#e31a1c" fill-rule="evenodd" fill-opacity="1" stroke="#000000" stroke-opacity="1" stroke-width="3.2"/>
<circle clip-path="url(#clip702)" cx="833.059" cy="1055.06" r="18" fill="#e31a1c" fill-rule="evenodd" fill-opacity="1" stroke="#000000" stroke-opacity="1" stroke-width="3.2"/>
<circle clip-path="url(#clip702)" cx="917.584" cy="1004.51" r="18" fill="#e31a1c" fill-rule="evenodd" fill-opacity="1" stroke="#000000" stroke-opacity="1" stroke-width="3.2"/>
<circle clip-path="url(#clip702)" cx="1002.11" cy="953.937" r="18" fill="#e31a1c" fill-rule="evenodd" fill-opacity="1" stroke="#000000" stroke-opacity="1" stroke-width="3.2"/>
<circle clip-path="url(#clip702)" cx="1086.63" cy="903.321" r="18" fill="#e31a1c" fill-rule="evenodd" fill-opacity="1" stroke="#000000" stroke-opacity="1" stroke-width="3.2"/>
<circle clip-path="url(#clip702)" cx="1171.16" cy="852.661" r="18" fill="#e31a1c" fill-rule="evenodd" fill-opacity="1" stroke="#000000" stroke-opacity="1" stroke-width="3.2"/>
<circle clip-path="url(#clip702)" cx="1255.68" cy="801.951" r="18" fill="#e31a1c" fill-rule="evenodd" fill-opacity="1" stroke="#000000" stroke-opacity="1" stroke-width="3.2"/>
<circle clip-path="url(#clip702)" cx="1340.21" cy="751.187" r="18" fill="#e31a1c" fill-rule="evenodd" fill-opacity="1" stroke="#000000" stroke-opacity="1" stroke-width="3.2"/>
<circle clip-path="url(#clip702)" cx="1424.73" cy="700.363" r="18" fill="#e31a1c" fill-rule="evenodd" fill-opacity="1" stroke="#000000" stroke-opacity="1" stroke-width="3.2"/>
<circle clip-path="url(#clip702)" cx="1509.26" cy="649.475" r="18" fill="#e31a1c" fill-rule="evenodd" fill-opacity="1" stroke="#000000" stroke-opacity="1" stroke-width="3.2"/>
<circle clip-path="url(#clip702)" cx="1593.78" cy="598.518" r="18" fill="#e31a1c" fill-rule="evenodd" fill-opacity="1" stroke="#000000" stroke-opacity="1" stroke-width="3.2"/>
<circle clip-path="url(#clip702)" cx="1678.31" cy="547.488" r="18" fill="#e31a1c" fill-rule="evenodd" fill-opacity="1" stroke="#000000" stroke-opacity="1" stroke-width="3.2"/>
<circle clip-path="url(#clip702)" cx="1762.83" cy="496.38" r="18" fill="#e31a1c" fill-rule="evenodd" fill-opacity="1" stroke="#000000" stroke-opacity="1" stroke-width="3.2"/>
<circle clip-path="url(#clip702)" cx="1847.36" cy="445.192" r="18" fill="#e31a1c" fill-rule="evenodd" fill-opacity="1" stroke="#000000" stroke-opacity="1" stroke-width="3.2"/>
<circle clip-path="url(#clip702)" cx="1931.88" cy="393.918" r="18" fill="#e31a1c" fill-rule="evenodd" fill-opacity="1" stroke="#000000" stroke-opacity="1" stroke-width="3.2"/>
<circle clip-path="url(#clip702)" cx="2016.41" cy="342.557" r="18" fill="#e31a1c" fill-rule="evenodd" fill-opacity="1" stroke="#000000" stroke-opacity="1" stroke-width="3.2"/>
<circle clip-path="url(#clip702)" cx="2100.94" cy="291.103" r="18" fill="#e31a1c" fill-rule="evenodd" fill-opacity="1" stroke="#000000" stroke-opacity="1" stroke-width="3.2"/>
<circle clip-path="url(#clip702)" cx="2185.46" cy="239.555" r="18" fill="#e31a1c" fill-rule="evenodd" fill-opacity="1" stroke="#000000" stroke-opacity="1" stroke-width="3.2"/>
<path clip-path="url(#clip702)" d="M410.434 1287.46 L390.434 1327.46 L430.434 1327.46 L410.434 1287.46 Z" fill="#377db8" fill-rule="evenodd" fill-opacity="1" stroke="#000000" stroke-opacity="1" stroke-width="3.2"/>
<path clip-path="url(#clip702)" d="M494.959 1229.2 L474.959 1269.2 L514.959 1269.2 L494.959 1229.2 Z" fill="#377db8" fill-rule="evenodd" fill-opacity="1" stroke="#000000" stroke-opacity="1" stroke-width="3.2"/>
<path clip-path="url(#clip702)" d="M579.484 1170.96 L559.484 1210.96 L599.484 1210.96 L579.484 1170.96 Z" fill="#377db8" fill-rule="evenodd" fill-opacity="1" stroke="#000000" stroke-opacity="1" stroke-width="3.2"/>
<path clip-path="url(#clip702)" d="M664.009 1112.75 L644.009 1152.75 L684.009 1152.75 L664.009 1112.75 Z" fill="#377db8" fill-rule="evenodd" fill-opacity="1" stroke="#000000" stroke-opacity="1" stroke-width="3.2"/>
<path clip-path="url(#clip702)" d="M748.534 1054.6 L728.534 1094.6 L768.534 1094.6 L748.534 1054.6 Z" fill="#377db8" fill-rule="evenodd" fill-opacity="1" stroke="#000000" stroke-opacity="1" stroke-width="3.2"/>
<path clip-path="url(#clip702)" d="M833.059 996.523 L813.059 1036.52 L853.059 1036.52 L833.059 996.523 Z" fill="#377db8" fill-rule="evenodd" fill-opacity="1" stroke="#000000" stroke-opacity="1" stroke-width="3.2"/>
<path clip-path="url(#clip702)" d="M917.584 938.533 L897.584 978.533 L937.584 978.533 L917.584 938.533 Z" fill="#377db8" fill-rule="evenodd" fill-opacity="1" stroke="#000000" stroke-opacity="1" stroke-width="3.2"/>
<path clip-path="url(#clip702)" d="M1002.11 880.652 L982.109 920.652 L1022.11 920.652 L1002.11 880.652 Z" fill="#377db8" fill-rule="evenodd" fill-opacity="1" stroke="#000000" stroke-opacity="1" stroke-width="3.2"/>
<path clip-path="url(#clip702)" d="M1086.63 822.896 L1066.63 862.896 L1106.63 862.896 L1086.63 822.896 Z" fill="#377db8" fill-rule="evenodd" fill-opacity="1" stroke="#000000" stroke-opacity="1" stroke-width="3.2"/>
<path clip-path="url(#clip702)" d="M1171.16 765.283 L1151.16 805.283 L1191.16 805.283 L1171.16 765.283 Z" fill="#377db8" fill-rule="evenodd" fill-opacity="1" stroke="#000000" stroke-opacity="1" stroke-width="3.2"/>
<path clip-path="url(#clip702)" d="M1255.68 707.831 L1235.68 747.831 L1275.68 747.831 L1255.68 707.831 Z" fill="#377db8" fill-rule="evenodd" fill-opacity="1" stroke="#000000" stroke-opacity="1" stroke-width="3.2"/>
<path clip-path="url(#clip702)" d="M1340.21 650.557 L1320.21 690.557 L1360.21 690.557 L1340.21 650.557 Z" fill="#377db8" fill-rule="evenodd" fill-opacity="1" stroke="#000000" stroke-opacity="1" stroke-width="3.2"/>
<path clip-path="url(#clip702)" d="M1424.73 593.477 L1404.73 633.477 L1444.73 633.477 L1424.73 593.477 Z" fill="#377db8" fill-rule="evenodd" fill-opacity="1" stroke="#000000" stroke-opacity="1" stroke-width="3.2"/>
<path clip-path="url(#clip702)" d="M1509.26 536.61 L1489.26 576.61 L1529.26 576.61 L1509.26 536.61 Z" fill="#377db8" fill-rule="evenodd" fill-opacity="1" stroke="#000000" stroke-opacity="1" stroke-width="3.2"/>
<path clip-path="url(#clip702)" d="M1593.78 479.971 L1573.78 519.971 L1613.78 519.971 L1593.78 479.971 Z" fill="#377db8" fill-rule="evenodd" fill-opacity="1" stroke="#000000" stroke-opacity="1" stroke-width="3.2"/>
<path clip-path="url(#clip702)" d="M1678.31 423.578 L1658.31 463.578 L1698.31 463.578 L1678.31 423.578 Z" fill="#377db8" fill-rule="evenodd" fill-opacity="1" stroke="#000000" stroke-opacity="1" stroke-width="3.2"/>
<path clip-path="url(#clip702)" d="M1762.83 367.446 L1742.83 407.446 L1782.83 407.446 L1762.83 367.446 Z" fill="#377db8" fill-rule="evenodd" fill-opacity="1" stroke="#000000" stroke-opacity="1" stroke-width="3.2"/>
<path clip-path="url(#clip702)" d="M1847.36 311.593 L1827.36 351.593 L1867.36 351.593 L1847.36 311.593 Z" fill="#377db8" fill-rule="evenodd" fill-opacity="1" stroke="#000000" stroke-opacity="1" stroke-width="3.2"/>
<path clip-path="url(#clip702)" d="M1931.88 256.032 L1911.88 296.032 L1951.88 296.032 L1931.88 256.032 Z" fill="#377db8" fill-rule="evenodd" fill-opacity="1" stroke="#000000" stroke-opacity="1" stroke-width="3.2"/>
<path clip-path="url(#clip702)" d="M2016.41 200.78 L1996.41 240.78 L2036.41 240.78 L2016.41 200.78 Z" fill="#377db8" fill-rule="evenodd" fill-opacity="1" stroke="#000000" stroke-opacity="1" stroke-width="3.2"/>
<path clip-path="url(#clip702)" d="M2100.94 145.853 L2080.94 185.853 L2120.94 185.853 L2100.94 145.853 Z" fill="#377db8" fill-rule="evenodd" fill-opacity="1" stroke="#000000" stroke-opacity="1" stroke-width="3.2"/>
<path clip-path="url(#clip702)" d="M2185.46 91.264 L2165.46 131.264 L2205.46 131.264 L2185.46 91.264 Z" fill="#377db8" fill-rule="evenodd" fill-opacity="1" stroke="#000000" stroke-opacity="1" stroke-width="3.2"/>
<path clip-path="url(#clip702)" d="M410.434 1287.46 L390.434 1307.46 L410.434 1327.46 L430.434 1307.46 L410.434 1287.46 Z" fill="#4dae49" fill-rule="evenodd" fill-opacity="1" stroke="#000000" stroke-opacity="1" stroke-width="3.2"/>
<path clip-path="url(#clip702)" d="M494.959 1266.86 L474.959 1286.86 L494.959 1306.86 L514.959 1286.86 L494.959 1266.86 Z" fill="#4dae49" fill-rule="evenodd" fill-opacity="1" stroke="#000000" stroke-opacity="1" stroke-width="3.2"/>
<path clip-path="url(#clip702)" d="M579.484 1246.25 L559.484 1266.25 L579.484 1286.25 L599.484 1266.25 L579.484 1246.25 Z" fill="#4dae49" fill-rule="evenodd" fill-opacity="1" stroke="#000000" stroke-opacity="1" stroke-width="3.2"/>
<path clip-path="url(#clip702)" d="M664.009 1225.63 L644.009 1245.63 L664.009 1265.63 L684.009 1245.63 L664.009 1225.63 Z" fill="#4dae49" fill-rule="evenodd" fill-opacity="1" stroke="#000000" stroke-opacity="1" stroke-width="3.2"/>
<path clip-path="url(#clip702)" d="M748.534 1205 L728.534 1225 L748.534 1245 L768.534 1225 L748.534 1205 Z" fill="#4dae49" fill-rule="evenodd" fill-opacity="1" stroke="#000000" stroke-opacity="1" stroke-width="3.2"/>
<path clip-path="url(#clip702)" d="M833.059 1184.34 L813.059 1204.34 L833.059 1224.34 L853.059 1204.34 L833.059 1184.34 Z" fill="#4dae49" fill-rule="evenodd" fill-opacity="1" stroke="#000000" stroke-opacity="1" stroke-width="3.2"/>
<path clip-path="url(#clip702)" d="M917.584 1163.65 L897.584 1183.65 L917.584 1203.65 L937.584 1183.65 L917.584 1163.65 Z" fill="#4dae49" fill-rule="evenodd" fill-opacity="1" stroke="#000000" stroke-opacity="1" stroke-width="3.2"/>
<path clip-path="url(#clip702)" d="M1002.11 1142.92 L982.109 1162.92 L1002.11 1182.92 L1022.11 1162.92 L1002.11 1142.92 Z" fill="#4dae49" fill-rule="evenodd" fill-opacity="1" stroke="#000000" stroke-opacity="1" stroke-width="3.2"/>
<path clip-path="url(#clip702)" d="M1086.63 1122.14 L1066.63 1142.14 L1086.63 1162.14 L1106.63 1142.14 L1086.63 1122.14 Z" fill="#4dae49" fill-rule="evenodd" fill-opacity="1" stroke="#000000" stroke-opacity="1" stroke-width="3.2"/>
<path clip-path="url(#clip702)" d="M1171.16 1101.32 L1151.16 1121.32 L1171.16 1141.32 L1191.16 1121.32 L1171.16 1101.32 Z" fill="#4dae49" fill-rule="evenodd" fill-opacity="1" stroke="#000000" stroke-opacity="1" stroke-width="3.2"/>
<path clip-path="url(#clip702)" d="M1255.68 1080.44 L1235.68 1100.44 L1255.68 1120.44 L1275.68 1100.44 L1255.68 1080.44 Z" fill="#4dae49" fill-rule="evenodd" fill-opacity="1" stroke="#000000" stroke-opacity="1" stroke-width="3.2"/>
<path clip-path="url(#clip702)" d="M1340.21 1059.49 L1320.21 1079.49 L1340.21 1099.49 L1360.21 1079.49 L1340.21 1059.49 Z" fill="#4dae49" fill-rule="evenodd" fill-opacity="1" stroke="#000000" stroke-opacity="1" stroke-width="3.2"/>
<path clip-path="url(#clip702)" d="M1424.73 1038.47 L1404.73 1058.47 L1424.73 1078.47 L1444.73 1058.47 L1424.73 1038.47 Z" fill="#4dae49" fill-rule="evenodd" fill-opacity="1" stroke="#000000" stroke-opacity="1" stroke-width="3.2"/>
<path clip-path="url(#clip702)" d="M1509.26 1017.38 L1489.26 1037.38 L1509.26 1057.38 L1529.26 1037.38 L1509.26 1017.38 Z" fill="#4dae49" fill-rule="evenodd" fill-opacity="1" stroke="#000000" stroke-opacity="1" stroke-width="3.2"/>
<path clip-path="url(#clip702)" d="M1593.78 996.193 L1573.78 1016.19 L1593.78 1036.19 L1613.78 1016.19 L1593.78 996.193 Z" fill="#4dae49" fill-rule="evenodd" fill-opacity="1" stroke="#000000" stroke-opacity="1" stroke-width="3.2"/>
<path clip-path="url(#clip702)" d="M1678.31 974.916 L1658.31 994.916 L1678.31 1014.92 L1698.31 994.916 L1678.31 974.916 Z" fill="#4dae49" fill-rule="evenodd" fill-opacity="1" stroke="#000000" stroke-opacity="1" stroke-width="3.2"/>
<path clip-path="url(#clip702)" d="M1762.83 953.537 L1742.83 973.537 L1762.83 993.537 L1782.83 973.537 L1762.83 953.537 Z" fill="#4dae49" fill-rule="evenodd" fill-opacity="1" stroke="#000000" stroke-opacity="1" stroke-width="3.2"/>
<path clip-path="url(#clip702)" d="M1847.36 932.049 L1827.36 952.049 L1847.36 972.049 L1867.36 952.049 L1847.36 932.049 Z" fill="#4dae49" fill-rule="evenodd" fill-opacity="1" stroke="#000000" stroke-opacity="1" stroke-width="3.2"/>
<path clip-path="url(#clip702)" d="M1931.88 910.444 L1911.88 930.444 L1931.88 950.444 L1951.88 930.444 L1931.88 910.444 Z" fill="#4dae49" fill-rule="evenodd" fill-opacity="1" stroke="#000000" stroke-opacity="1" stroke-width="3.2"/>
<path clip-path="url(#clip702)" d="M2016.41 888.715 L1996.41 908.715 L2016.41 928.715 L2036.41 908.715 L2016.41 888.715 Z" fill="#4dae49" fill-rule="evenodd" fill-opacity="1" stroke="#000000" stroke-opacity="1" stroke-width="3.2"/>
<path clip-path="url(#clip702)" d="M2100.94 866.854 L2080.94 886.854 L2100.94 906.854 L2120.94 886.854 L2100.94 866.854 Z" fill="#4dae49" fill-rule="evenodd" fill-opacity="1" stroke="#000000" stroke-opacity="1" stroke-width="3.2"/>
<path clip-path="url(#clip702)" d="M2185.46 844.853 L2165.46 864.853 L2185.46 884.853 L2205.46 864.853 L2185.46 844.853 Z" fill="#4dae49" fill-rule="evenodd" fill-opacity="1" stroke="#000000" stroke-opacity="1" stroke-width="3.2"/>
<path clip-path="url(#clip702)" d="M430.434 1287.46 L390.434 1287.46 L410.434 1327.46 L430.434 1287.46 Z" fill="#974ea2" fill-rule="evenodd" fill-opacity="1" stroke="#000000" stroke-opacity="1" stroke-width="3.2"/>
<path clip-path="url(#clip702)" d="M514.959 1287.21 L474.959 1287.21 L494.959 1327.21 L514.959 1287.21 Z" fill="#974ea2" fill-rule="evenodd" fill-opacity="1" stroke="#000000" stroke-opacity="1" stroke-width="3.2"/>
<path clip-path="url(#clip702)" d="M599.484 1286.45 L559.484 1286.45 L579.484 1326.45 L599.484 1286.45 Z" fill="#974ea2" fill-rule="evenodd" fill-opacity="1" stroke="#000000" stroke-opacity="1" stroke-width="3.2"/>
<path clip-path="url(#clip702)" d="M684.009 1285.18 L644.009 1285.18 L664.009 1325.18 L684.009 1285.18 Z" fill="#974ea2" fill-rule="evenodd" fill-opacity="1" stroke="#000000" stroke-opacity="1" stroke-width="3.2"/>
<path clip-path="url(#clip702)" d="M768.534 1283.42 L728.534 1283.42 L748.534 1323.42 L768.534 1283.42 Z" fill="#974ea2" fill-rule="evenodd" fill-opacity="1" stroke="#000000" stroke-opacity="1" stroke-width="3.2"/>
<path clip-path="url(#clip702)" d="M853.059 1281.15 L813.059 1281.15 L833.059 1321.15 L853.059 1281.15 Z" fill="#974ea2" fill-rule="evenodd" fill-opacity="1" stroke="#000000" stroke-opacity="1" stroke-width="3.2"/>
<path clip-path="url(#clip702)" d="M937.584 1278.4 L897.584 1278.4 L917.584 1318.4 L937.584 1278.4 Z" fill="#974ea2" fill-rule="evenodd" fill-opacity="1" stroke="#000000" stroke-opacity="1" stroke-width="3.2"/>
<path clip-path="url(#clip702)" d="M1022.11 1275.15 L982.109 1275.15 L1002.11 1315.15 L1022.11 1275.15 Z" fill="#974ea2" fill-rule="evenodd" fill-opacity="1" stroke="#000000" stroke-opacity="1" stroke-width="3.2"/>
<path clip-path="url(#clip702)" d="M1106.63 1271.43 L1066.63 1271.43 L1086.63 1311.43 L1106.63 1271.43 Z" fill="#974ea2" fill-rule="evenodd" fill-opacity="1" stroke="#000000" stroke-opacity="1" stroke-width="3.2"/>
<path clip-path="url(#clip702)" d="M1191.16 1267.23 L1151.16 1267.23 L1171.16 1307.23 L1191.16 1267.23 Z" fill="#974ea2" fill-rule="evenodd" fill-opacity="1" stroke="#000000" stroke-opacity="1" stroke-width="3.2"/>
<path clip-path="url(#clip702)" d="M1275.68 1262.56 L1235.68 1262.56 L1255.68 1302.56 L1275.68 1262.56 Z" fill="#974ea2" fill-rule="evenodd" fill-opacity="1" stroke="#000000" stroke-opacity="1" stroke-width="3.2"/>
<path clip-path="url(#clip702)" d="M1360.21 1257.44 L1320.21 1257.44 L1340.21 1297.44 L1360.21 1257.44 Z" fill="#974ea2" fill-rule="evenodd" fill-opacity="1" stroke="#000000" stroke-opacity="1" stroke-width="3.2"/>
<path clip-path="url(#clip702)" d="M1444.73 1251.87 L1404.73 1251.87 L1424.73 1291.87 L1444.73 1251.87 Z" fill="#974ea2" fill-rule="evenodd" fill-opacity="1" stroke="#000000" stroke-opacity="1" stroke-width="3.2"/>
<path clip-path="url(#clip702)" d="M1529.26 1245.86 L1489.26 1245.86 L1509.26 1285.86 L1529.26 1245.86 Z" fill="#974ea2" fill-rule="evenodd" fill-opacity="1" stroke="#000000" stroke-opacity="1" stroke-width="3.2"/>
<path clip-path="url(#clip702)" d="M1613.78 1239.43 L1573.78 1239.43 L1593.78 1279.43 L1613.78 1239.43 Z" fill="#974ea2" fill-rule="evenodd" fill-opacity="1" stroke="#000000" stroke-opacity="1" stroke-width="3.2"/>
<path clip-path="url(#clip702)" d="M1698.31 1232.59 L1658.31 1232.59 L1678.31 1272.59 L1698.31 1232.59 Z" fill="#974ea2" fill-rule="evenodd" fill-opacity="1" stroke="#000000" stroke-opacity="1" stroke-width="3.2"/>
<path clip-path="url(#clip702)" d="M1782.83 1225.34 L1742.83 1225.34 L1762.83 1265.34 L1782.83 1225.34 Z" fill="#974ea2" fill-rule="evenodd" fill-opacity="1" stroke="#000000" stroke-opacity="1" stroke-width="3.2"/>
<path clip-path="url(#clip702)" d="M1867.36 1217.7 L1827.36 1217.7 L1847.36 1257.7 L1867.36 1217.7 Z" fill="#974ea2" fill-rule="evenodd" fill-opacity="1" stroke="#000000" stroke-opacity="1" stroke-width="3.2"/>
<path clip-path="url(#clip702)" d="M1951.88 1209.69 L1911.88 1209.69 L1931.88 1249.69 L1951.88 1209.69 Z" fill="#974ea2" fill-rule="evenodd" fill-opacity="1" stroke="#000000" stroke-opacity="1" stroke-width="3.2"/>
<path clip-path="url(#clip702)" d="M2036.41 1201.3 L1996.41 1201.3 L2016.41 1241.3 L2036.41 1201.3 Z" fill="#974ea2" fill-rule="evenodd" fill-opacity="1" stroke="#000000" stroke-opacity="1" stroke-width="3.2"/>
<path clip-path="url(#clip702)" d="M2120.94 1192.57 L2080.94 1192.57 L2100.94 1232.57 L2120.94 1192.57 Z" fill="#974ea2" fill-rule="evenodd" fill-opacity="1" stroke="#000000" stroke-opacity="1" stroke-width="3.2"/>
<path clip-path="url(#clip702)" d="M2205.46 1183.5 L2165.46 1183.5 L2185.46 1223.5 L2205.46 1183.5 Z" fill="#974ea2" fill-rule="evenodd" fill-opacity="1" stroke="#000000" stroke-opacity="1" stroke-width="3.2"/>
<path clip-path="url(#clip702)" d="M410.434 1327.46 L393.114 1317.46 L393.114 1297.46 L410.434 1287.46 L427.754 1297.46 L427.754 1317.46 Z" fill="#ff7e00" fill-rule="evenodd" fill-opacity="1" stroke="#000000" stroke-opacity="1" stroke-width="3.2"/>
<path clip-path="url(#clip702)" d="M494.959 1327.46 L477.639 1317.46 L477.639 1297.46 L494.959 1287.46 L512.279 1297.46 L512.279 1317.46 Z" fill="#ff7e00" fill-rule="evenodd" fill-opacity="1" stroke="#000000" stroke-opacity="1" stroke-width="3.2"/>
<path clip-path="url(#clip702)" d="M579.484 1327.44 L562.164 1317.44 L562.164 1297.44 L579.484 1287.44 L596.804 1297.44 L596.804 1317.44 Z" fill="#ff7e00" fill-rule="evenodd" fill-opacity="1" stroke="#000000" stroke-opacity="1" stroke-width="3.2"/>
<path clip-path="url(#clip702)" d="M664.009 1327.39 L646.689 1317.39 L646.689 1297.39 L664.009 1287.39 L681.329 1297.39 L681.329 1317.39 Z" fill="#ff7e00" fill-rule="evenodd" fill-opacity="1" stroke="#000000" stroke-opacity="1" stroke-width="3.2"/>
<path clip-path="url(#clip702)" d="M748.534 1327.29 L731.214 1317.29 L731.214 1297.29 L748.534 1287.29 L765.854 1297.29 L765.854 1317.29 Z" fill="#ff7e00" fill-rule="evenodd" fill-opacity="1" stroke="#000000" stroke-opacity="1" stroke-width="3.2"/>
<path clip-path="url(#clip702)" d="M833.059 1327.13 L815.739 1317.13 L815.739 1297.13 L833.059 1287.13 L850.379 1297.13 L850.379 1317.13 Z" fill="#ff7e00" fill-rule="evenodd" fill-opacity="1" stroke="#000000" stroke-opacity="1" stroke-width="3.2"/>
<path clip-path="url(#clip702)" d="M917.584 1326.9 L900.264 1316.9 L900.264 1296.9 L917.584 1286.9 L934.904 1296.9 L934.904 1316.9 Z" fill="#ff7e00" fill-rule="evenodd" fill-opacity="1" stroke="#000000" stroke-opacity="1" stroke-width="3.2"/>
<path clip-path="url(#clip702)" d="M1002.11 1326.57 L984.789 1316.57 L984.789 1296.57 L1002.11 1286.57 L1019.43 1296.57 L1019.43 1316.57 Z" fill="#ff7e00" fill-rule="evenodd" fill-opacity="1" stroke="#000000" stroke-opacity="1" stroke-width="3.2"/>
<path clip-path="url(#clip702)" d="M1086.63 1326.14 L1069.31 1316.14 L1069.31 1296.14 L1086.63 1286.14 L1103.95 1296.14 L1103.95 1316.14 Z" fill="#ff7e00" fill-rule="evenodd" fill-opacity="1" stroke="#000000" stroke-opacity="1" stroke-width="3.2"/>
<path clip-path="url(#clip702)" d="M1171.16 1325.58 L1153.84 1315.58 L1153.84 1295.58 L1171.16 1285.58 L1188.48 1295.58 L1188.48 1315.58 Z" fill="#ff7e00" fill-rule="evenodd" fill-opacity="1" stroke="#000000" stroke-opacity="1" stroke-width="3.2"/>
<path clip-path="url(#clip702)" d="M1255.68 1324.9 L1238.36 1314.9 L1238.36 1294.9 L1255.68 1284.9 L1273 1294.9 L1273 1314.9 Z" fill="#ff7e00" fill-rule="evenodd" fill-opacity="1" stroke="#000000" stroke-opacity="1" stroke-width="3.2"/>
<path clip-path="url(#clip702)" d="M1340.21 1324.07 L1322.89 1314.07 L1322.89 1294.07 L1340.21 1284.07 L1357.53 1294.07 L1357.53 1314.07 Z" fill="#ff7e00" fill-rule="evenodd" fill-opacity="1" stroke="#000000" stroke-opacity="1" stroke-width="3.2"/>
<path clip-path="url(#clip702)" d="M1424.73 1323.08 L1407.41 1313.08 L1407.41 1293.08 L1424.73 1283.08 L1442.05 1293.08 L1442.05 1313.08 Z" fill="#ff7e00" fill-rule="evenodd" fill-opacity="1" stroke="#000000" stroke-opacity="1" stroke-width="3.2"/>
<path clip-path="url(#clip702)" d="M1509.26 1321.92 L1491.94 1311.92 L1491.94 1291.92 L1509.26 1281.92 L1526.58 1291.92 L1526.58 1311.92 Z" fill="#ff7e00" fill-rule="evenodd" fill-opacity="1" stroke="#000000" stroke-opacity="1" stroke-width="3.2"/>
<path clip-path="url(#clip702)" d="M1593.78 1320.59 L1576.46 1310.59 L1576.46 1290.59 L1593.78 1280.59 L1611.1 1290.59 L1611.1 1310.59 Z" fill="#ff7e00" fill-rule="evenodd" fill-opacity="1" stroke="#000000" stroke-opacity="1" stroke-width="3.2"/>
<path clip-path="url(#clip702)" d="M1678.31 1319.07 L1660.99 1309.07 L1660.99 1289.07 L1678.31 1279.07 L1695.63 1289.07 L1695.63 1309.07 Z" fill="#ff7e00" fill-rule="evenodd" fill-opacity="1" stroke="#000000" stroke-opacity="1" stroke-width="3.2"/>
<path clip-path="url(#clip702)" d="M1762.83 1317.36 L1745.51 1307.36 L1745.51 1287.36 L1762.83 1277.36 L1780.15 1287.36 L1780.15 1307.36 Z" fill="#ff7e00" fill-rule="evenodd" fill-opacity="1" stroke="#000000" stroke-opacity="1" stroke-width="3.2"/>
<path clip-path="url(#clip702)" d="M1847.36 1315.44 L1830.04 1305.44 L1830.04 1285.44 L1847.36 1275.44 L1864.68 1285.44 L1864.68 1305.44 Z" fill="#ff7e00" fill-rule="evenodd" fill-opacity="1" stroke="#000000" stroke-opacity="1" stroke-width="3.2"/>
<path clip-path="url(#clip702)" d="M1931.88 1313.31 L1914.56 1303.31 L1914.56 1283.31 L1931.88 1273.31 L1949.2 1283.31 L1949.2 1303.31 Z" fill="#ff7e00" fill-rule="evenodd" fill-opacity="1" stroke="#000000" stroke-opacity="1" stroke-width="3.2"/>
<path clip-path="url(#clip702)" d="M2016.41 1310.96 L1999.09 1300.96 L1999.09 1280.96 L2016.41 1270.96 L2033.73 1280.96 L2033.73 1300.96 Z" fill="#ff7e00" fill-rule="evenodd" fill-opacity="1" stroke="#000000" stroke-opacity="1" stroke-width="3.2"/>
<path clip-path="url(#clip702)" d="M2100.94 1308.39 L2083.62 1298.39 L2083.62 1278.39 L2100.94 1268.39 L2118.26 1278.39 L2118.26 1298.39 Z" fill="#ff7e00" fill-rule="evenodd" fill-opacity="1" stroke="#000000" stroke-opacity="1" stroke-width="3.2"/>
<path clip-path="url(#clip702)" d="M2185.46 1305.6 L2168.14 1295.6 L2168.14 1275.6 L2185.46 1265.6 L2202.78 1275.6 L2202.78 1295.6 Z" fill="#ff7e00" fill-rule="evenodd" fill-opacity="1" stroke="#000000" stroke-opacity="1" stroke-width="3.2"/>
<path clip-path="url(#clip700)" d="M2318.56 965.735 L2752.76 965.735 L2752.76 421.415 L2318.56 421.415  Z" fill="#ffffff" fill-rule="evenodd" fill-opacity="1"/>
<polyline clip-path="url(#clip700)" style="stroke:#000000; stroke-linecap:round; stroke-linejoin:round; stroke-width:4; stroke-opacity:1; fill:none" points="2318.56,965.735 2752.76,965.735 2752.76,421.415 2318.56,421.415 2318.56,965.735 "/>
<circle clip-path="url(#clip700)" cx="2425.03" cy="512.135" r="36.6545" fill="#e31a1c" fill-rule="evenodd" fill-opacity="1" stroke="#000000" stroke-opacity="1" stroke-width="6.51636"/>
<path clip-path="url(#clip700)" d="M2575.36 508.076 Q2575.36 514.06 2572.33 519.84 Q2569.34 525.619 2564.62 529.185 Q2559.91 532.71 2555.11 532.71 Q2552.24 532.71 2550.32 531.153 Q2548.43 529.554 2547.41 527.3 Q2546.63 530.087 2544.95 536.768 Q2543.27 543.449 2543.27 544.105 Q2543.27 544.474 2543.35 544.638 Q2543.43 544.802 2543.8 545.007 Q2544.17 545.253 2545.07 545.335 Q2545.97 545.458 2547.49 545.458 Q2548.27 545.458 2548.55 545.458 Q2548.88 545.499 2549.17 545.704 Q2549.5 545.909 2549.5 546.36 Q2549.5 548.04 2547.98 548.04 Q2546.63 548.04 2543.84 547.917 Q2541.05 547.794 2539.66 547.794 Q2538.47 547.794 2536.09 547.917 Q2533.72 548.04 2532.61 548.04 Q2531.5 548.04 2531.5 547.056 Q2531.5 546.483 2531.67 546.114 Q2531.79 545.786 2532.12 545.622 Q2532.45 545.499 2532.73 545.458 Q2532.98 545.458 2533.47 545.458 Q2535.36 545.458 2536.18 545.13 Q2537 544.843 2537.28 544.228 Q2537.61 543.654 2537.98 542.015 L2547.41 504.633 Q2547.98 502.132 2547.98 500.37 Q2547.98 498.156 2547.28 497.336 Q2546.59 496.517 2545.36 496.517 Q2543.23 496.517 2541.83 499.058 Q2540.44 501.599 2539.25 506.518 Q2538.88 507.871 2538.64 508.158 Q2538.43 508.445 2537.82 508.445 Q2536.79 508.404 2536.79 507.584 Q2536.79 507.379 2537.12 506.067 Q2537.45 504.714 2538.06 502.747 Q2538.72 500.739 2539.41 499.468 Q2539.82 498.607 2540.19 498.033 Q2540.56 497.459 2541.3 496.558 Q2542.08 495.656 2543.19 495.164 Q2544.29 494.672 2545.64 494.672 Q2548.27 494.672 2550.44 496.23 Q2552.61 497.787 2553.19 500.943 Q2555.52 498.197 2558.39 496.435 Q2561.26 494.672 2564.17 494.672 Q2569.01 494.672 2572.16 498.443 Q2575.36 502.173 2575.36 508.076 M2569.3 504.387 Q2569.3 500.657 2567.86 498.607 Q2566.47 496.517 2563.93 496.517 Q2560.77 496.517 2557.12 499.714 Q2553.51 502.747 2552.78 505.575 L2548.64 522.012 L2548.39 523.365 Q2548.39 523.611 2548.51 524.348 Q2548.68 525.045 2549.13 526.193 Q2549.62 527.341 2550.28 528.365 Q2550.97 529.349 2552.2 530.087 Q2553.47 530.825 2555.03 530.825 Q2557.53 530.825 2560.24 528.611 Q2562.98 526.398 2565.03 522.217 Q2566.3 519.512 2567.78 513.691 Q2569.3 507.83 2569.3 504.387 Z" fill="#000000" fill-rule="nonzero" fill-opacity="1" /><path clip-path="url(#clip700)" d="M2596.61 519.02 Q2596.69 517.995 2598.29 517.995 L2649.73 517.995 Q2652.15 517.995 2652.19 518.938 Q2652.19 519.962 2649.89 519.922 L2598.86 519.922 Q2596.61 519.962 2596.61 519.02 M2596.61 502.624 Q2596.61 501.599 2598.37 501.64 L2649.65 501.64 Q2652.15 501.64 2652.19 502.624 Q2652.19 503.567 2650.06 503.567 L2598.29 503.567 Q2596.61 503.567 2596.61 502.624 Z" fill="#000000" fill-rule="nonzero" fill-opacity="1" /><path clip-path="url(#clip700)" d="M2684.57 504.919 Q2684.57 492.582 2687.68 485.859 Q2692.03 475.858 2702.27 475.858 Q2704.45 475.858 2706.7 476.473 Q2709 477.047 2711.87 479.301 Q2714.78 481.556 2716.54 485.245 Q2719.9 492.377 2719.9 504.919 Q2719.9 517.175 2716.78 523.856 Q2712.23 533.612 2702.19 533.612 Q2698.42 533.612 2694.57 531.685 Q2690.76 529.759 2688.34 525.127 Q2684.57 518.2 2684.57 504.919 M2691.53 503.895 Q2691.53 516.56 2692.44 521.602 Q2693.46 527.054 2696.25 529.431 Q2699.08 531.767 2702.19 531.767 Q2705.55 531.767 2708.34 529.267 Q2711.17 526.726 2712.03 521.274 Q2712.97 515.905 2712.93 503.895 Q2712.93 492.213 2712.11 487.54 Q2711 482.088 2708.05 479.916 Q2705.14 477.703 2702.19 477.703 Q2701.09 477.703 2699.9 478.03 Q2698.75 478.358 2697.07 479.301 Q2695.39 480.244 2694.08 482.58 Q2692.81 484.917 2692.19 488.442 Q2691.53 492.992 2691.53 503.895 Z" fill="#000000" fill-rule="nonzero" fill-opacity="1" /><path clip-path="url(#clip700)" d="M2425.03 562.127 L2384.31 643.582 L2465.76 643.582 L2425.03 562.127 Z" fill="#377db8" fill-rule="evenodd" fill-opacity="1" stroke="#000000" stroke-opacity="1" stroke-width="6.51636"/>
<path clip-path="url(#clip700)" d="M2575.36 598.796 Q2575.36 604.78 2572.33 610.56 Q2569.34 616.339 2564.62 619.905 Q2559.91 623.43 2555.11 623.43 Q2552.24 623.43 2550.32 621.873 Q2548.43 620.274 2547.41 618.02 Q2546.63 620.807 2544.95 627.488 Q2543.27 634.169 2543.27 634.825 Q2543.27 635.194 2543.35 635.358 Q2543.43 635.522 2543.8 635.727 Q2544.17 635.973 2545.07 636.055 Q2545.97 636.178 2547.49 636.178 Q2548.27 636.178 2548.55 636.178 Q2548.88 636.219 2549.17 636.424 Q2549.5 636.629 2549.5 637.08 Q2549.5 638.76 2547.98 638.76 Q2546.63 638.76 2543.84 638.637 Q2541.05 638.514 2539.66 638.514 Q2538.47 638.514 2536.09 638.637 Q2533.72 638.76 2532.61 638.76 Q2531.5 638.76 2531.5 637.776 Q2531.5 637.203 2531.67 636.834 Q2531.79 636.506 2532.12 636.342 Q2532.45 636.219 2532.73 636.178 Q2532.98 636.178 2533.47 636.178 Q2535.36 636.178 2536.18 635.85 Q2537 635.563 2537.28 634.948 Q2537.61 634.374 2537.98 632.735 L2547.41 595.353 Q2547.98 592.852 2547.98 591.09 Q2547.98 588.876 2547.28 588.056 Q2546.59 587.237 2545.36 587.237 Q2543.23 587.237 2541.83 589.778 Q2540.44 592.319 2539.25 597.238 Q2538.88 598.591 2538.64 598.878 Q2538.43 599.165 2537.82 599.165 Q2536.79 599.124 2536.79 598.304 Q2536.79 598.099 2537.12 596.787 Q2537.45 595.434 2538.06 593.467 Q2538.72 591.459 2539.41 590.188 Q2539.82 589.327 2540.19 588.753 Q2540.56 588.179 2541.3 587.278 Q2542.08 586.376 2543.19 585.884 Q2544.29 585.392 2545.64 585.392 Q2548.27 585.392 2550.44 586.95 Q2552.61 588.507 2553.19 591.663 Q2555.52 588.917 2558.39 587.155 Q2561.26 585.392 2564.17 585.392 Q2569.01 585.392 2572.16 589.163 Q2575.36 592.893 2575.36 598.796 M2569.3 595.107 Q2569.3 591.377 2567.86 589.327 Q2566.47 587.237 2563.93 587.237 Q2560.77 587.237 2557.12 590.434 Q2553.51 593.467 2552.78 596.295 L2548.64 612.732 L2548.39 614.085 Q2548.39 614.331 2548.51 615.068 Q2548.68 615.765 2549.13 616.913 Q2549.62 618.061 2550.28 619.085 Q2550.97 620.069 2552.2 620.807 Q2553.47 621.545 2555.03 621.545 Q2557.53 621.545 2560.24 619.331 Q2562.98 617.118 2565.03 612.937 Q2566.3 610.232 2567.78 604.411 Q2569.3 598.55 2569.3 595.107 Z" fill="#000000" fill-rule="nonzero" fill-opacity="1" /><path clip-path="url(#clip700)" d="M2596.61 609.74 Q2596.69 608.715 2598.29 608.715 L2649.73 608.715 Q2652.15 608.715 2652.19 609.658 Q2652.19 610.682 2649.89 610.642 L2598.86 610.642 Q2596.61 610.682 2596.61 609.74 M2596.61 593.344 Q2596.61 592.319 2598.37 592.36 L2649.65 592.36 Q2652.15 592.36 2652.19 593.344 Q2652.19 594.287 2650.06 594.287 L2598.29 594.287 Q2596.61 594.287 2596.61 593.344 Z" fill="#000000" fill-rule="nonzero" fill-opacity="1" /><path clip-path="url(#clip700)" d="M2684.57 574.571 L2684.57 571.948 Q2694.65 571.948 2699.86 566.578 Q2701.29 566.578 2701.54 566.906 Q2701.78 567.234 2701.78 568.75 L2701.78 615.847 Q2701.78 618.347 2703.01 619.126 Q2704.24 619.905 2709.61 619.905 L2712.28 619.905 L2712.28 622.487 Q2709.32 622.241 2698.67 622.241 Q2688.01 622.241 2685.1 622.487 L2685.1 619.905 L2687.76 619.905 Q2693.05 619.905 2694.32 619.167 Q2695.59 618.388 2695.59 615.847 L2695.59 572.358 Q2691.21 574.571 2684.57 574.571 Z" fill="#000000" fill-rule="nonzero" fill-opacity="1" /><path clip-path="url(#clip700)" d="M2425.03 652.847 L2384.31 693.575 L2425.03 734.302 L2465.76 693.575 L2425.03 652.847 Z" fill="#4dae49" fill-rule="evenodd" fill-opacity="1" stroke="#000000" stroke-opacity="1" stroke-width="6.51636"/>
<path clip-path="url(#clip700)" d="M2575.36 689.516 Q2575.36 695.5 2572.33 701.28 Q2569.34 707.059 2564.62 710.625 Q2559.91 714.15 2555.11 714.15 Q2552.24 714.15 2550.32 712.593 Q2548.43 710.994 2547.41 708.74 Q2546.63 711.527 2544.95 718.208 Q2543.27 724.889 2543.27 725.545 Q2543.27 725.914 2543.35 726.078 Q2543.43 726.242 2543.8 726.447 Q2544.17 726.693 2545.07 726.775 Q2545.97 726.898 2547.49 726.898 Q2548.27 726.898 2548.55 726.898 Q2548.88 726.939 2549.17 727.144 Q2549.5 727.349 2549.5 727.8 Q2549.5 729.48 2547.98 729.48 Q2546.63 729.48 2543.84 729.357 Q2541.05 729.234 2539.66 729.234 Q2538.47 729.234 2536.09 729.357 Q2533.72 729.48 2532.61 729.48 Q2531.5 729.48 2531.5 728.496 Q2531.5 727.923 2531.67 727.554 Q2531.79 727.226 2532.12 727.062 Q2532.45 726.939 2532.73 726.898 Q2532.98 726.898 2533.47 726.898 Q2535.36 726.898 2536.18 726.57 Q2537 726.283 2537.28 725.668 Q2537.61 725.094 2537.98 723.455 L2547.41 686.073 Q2547.98 683.572 2547.98 681.81 Q2547.98 679.596 2547.28 678.776 Q2546.59 677.957 2545.36 677.957 Q2543.23 677.957 2541.83 680.498 Q2540.44 683.039 2539.25 687.958 Q2538.88 689.311 2538.64 689.598 Q2538.43 689.885 2537.82 689.885 Q2536.79 689.844 2536.79 689.024 Q2536.79 688.819 2537.12 687.507 Q2537.45 686.154 2538.06 684.187 Q2538.72 682.179 2539.41 680.908 Q2539.82 680.047 2540.19 679.473 Q2540.56 678.899 2541.3 677.998 Q2542.08 677.096 2543.19 676.604 Q2544.29 676.112 2545.64 676.112 Q2548.27 676.112 2550.44 677.67 Q2552.61 679.227 2553.19 682.383 Q2555.52 679.637 2558.39 677.875 Q2561.26 676.112 2564.17 676.112 Q2569.01 676.112 2572.16 679.883 Q2575.36 683.613 2575.36 689.516 M2569.3 685.827 Q2569.3 682.097 2567.86 680.047 Q2566.47 677.957 2563.93 677.957 Q2560.77 677.957 2557.12 681.154 Q2553.51 684.187 2552.78 687.015 L2548.64 703.452 L2548.39 704.805 Q2548.39 705.051 2548.51 705.788 Q2548.68 706.485 2549.13 707.633 Q2549.62 708.781 2550.28 709.805 Q2550.97 710.789 2552.2 711.527 Q2553.47 712.265 2555.03 712.265 Q2557.53 712.265 2560.24 710.051 Q2562.98 707.838 2565.03 703.657 Q2566.3 700.952 2567.78 695.131 Q2569.3 689.27 2569.3 685.827 Z" fill="#000000" fill-rule="nonzero" fill-opacity="1" /><path clip-path="url(#clip700)" d="M2596.61 700.46 Q2596.69 699.435 2598.29 699.435 L2649.73 699.435 Q2652.15 699.435 2652.19 700.378 Q2652.19 701.402 2649.89 701.362 L2598.86 701.362 Q2596.61 701.402 2596.61 700.46 M2596.61 684.064 Q2596.61 683.039 2598.37 683.08 L2649.65 683.08 Q2652.15 683.08 2652.19 684.064 Q2652.19 685.007 2650.06 685.007 L2598.29 685.007 Q2596.61 685.007 2596.61 684.064 Z" fill="#000000" fill-rule="nonzero" fill-opacity="1" /><path clip-path="url(#clip700)" d="M2684.57 713.207 Q2684.57 711.691 2684.69 711.24 Q2684.85 710.789 2685.51 710.092 L2701.62 692.139 Q2710.43 682.22 2710.43 673.571 Q2710.43 667.955 2707.48 663.938 Q2704.57 659.921 2699.2 659.921 Q2695.51 659.921 2692.4 662.176 Q2689.28 664.43 2687.85 668.447 Q2688.09 668.365 2688.95 668.365 Q2691.04 668.365 2692.19 669.677 Q2693.38 670.988 2693.38 672.751 Q2693.38 675.005 2691.9 676.112 Q2690.47 677.178 2689.03 677.178 Q2688.46 677.178 2687.68 677.055 Q2686.94 676.932 2685.76 675.784 Q2684.57 674.596 2684.57 672.505 Q2684.57 666.644 2688.99 661.971 Q2693.46 657.298 2700.27 657.298 Q2707.97 657.298 2713.01 661.889 Q2718.1 666.439 2718.1 673.571 Q2718.1 676.071 2717.32 678.367 Q2716.58 680.621 2715.55 682.383 Q2714.57 684.146 2711.87 686.974 Q2709.16 689.803 2706.99 691.811 Q2704.82 693.819 2699.94 698.082 L2691.04 706.731 L2706.17 706.731 Q2713.55 706.731 2714.12 706.075 Q2714.94 704.887 2715.96 698.615 L2718.1 698.615 L2715.72 713.207 L2684.57 713.207 Z" fill="#000000" fill-rule="nonzero" fill-opacity="1" /><path clip-path="url(#clip700)" d="M2465.76 743.567 L2384.31 743.567 L2425.03 825.022 L2465.76 743.567 Z" fill="#974ea2" fill-rule="evenodd" fill-opacity="1" stroke="#000000" stroke-opacity="1" stroke-width="6.51636"/>
<path clip-path="url(#clip700)" d="M2575.36 780.236 Q2575.36 786.22 2572.33 792 Q2569.34 797.779 2564.62 801.345 Q2559.91 804.87 2555.11 804.87 Q2552.24 804.87 2550.32 803.313 Q2548.43 801.714 2547.41 799.46 Q2546.63 802.247 2544.95 808.928 Q2543.27 815.609 2543.27 816.265 Q2543.27 816.634 2543.35 816.798 Q2543.43 816.962 2543.8 817.167 Q2544.17 817.413 2545.07 817.495 Q2545.97 817.618 2547.49 817.618 Q2548.27 817.618 2548.55 817.618 Q2548.88 817.659 2549.17 817.864 Q2549.5 818.069 2549.5 818.52 Q2549.5 820.2 2547.98 820.2 Q2546.63 820.2 2543.84 820.077 Q2541.05 819.954 2539.66 819.954 Q2538.47 819.954 2536.09 820.077 Q2533.72 820.2 2532.61 820.2 Q2531.5 820.2 2531.5 819.216 Q2531.5 818.643 2531.67 818.274 Q2531.79 817.946 2532.12 817.782 Q2532.45 817.659 2532.73 817.618 Q2532.98 817.618 2533.47 817.618 Q2535.36 817.618 2536.18 817.29 Q2537 817.003 2537.28 816.388 Q2537.61 815.814 2537.98 814.175 L2547.41 776.793 Q2547.98 774.292 2547.98 772.53 Q2547.98 770.316 2547.28 769.496 Q2546.59 768.677 2545.36 768.677 Q2543.23 768.677 2541.83 771.218 Q2540.44 773.759 2539.25 778.678 Q2538.88 780.031 2538.64 780.318 Q2538.43 780.605 2537.82 780.605 Q2536.79 780.564 2536.79 779.744 Q2536.79 779.539 2537.12 778.227 Q2537.45 776.874 2538.06 774.907 Q2538.72 772.899 2539.41 771.628 Q2539.82 770.767 2540.19 770.193 Q2540.56 769.619 2541.3 768.718 Q2542.08 767.816 2543.19 767.324 Q2544.29 766.832 2545.64 766.832 Q2548.27 766.832 2550.44 768.39 Q2552.61 769.947 2553.19 773.103 Q2555.52 770.357 2558.39 768.595 Q2561.26 766.832 2564.17 766.832 Q2569.01 766.832 2572.16 770.603 Q2575.36 774.333 2575.36 780.236 M2569.3 776.547 Q2569.3 772.817 2567.86 770.767 Q2566.47 768.677 2563.93 768.677 Q2560.77 768.677 2557.12 771.874 Q2553.51 774.907 2552.78 777.735 L2548.64 794.172 L2548.39 795.525 Q2548.39 795.771 2548.51 796.508 Q2548.68 797.205 2549.13 798.353 Q2549.62 799.501 2550.28 800.525 Q2550.97 801.509 2552.2 802.247 Q2553.47 802.985 2555.03 802.985 Q2557.53 802.985 2560.24 800.771 Q2562.98 798.558 2565.03 794.377 Q2566.3 791.672 2567.78 785.851 Q2569.3 779.99 2569.3 776.547 Z" fill="#000000" fill-rule="nonzero" fill-opacity="1" /><path clip-path="url(#clip700)" d="M2596.61 791.18 Q2596.69 790.155 2598.29 790.155 L2649.73 790.155 Q2652.15 790.155 2652.19 791.098 Q2652.19 792.122 2649.89 792.082 L2598.86 792.082 Q2596.61 792.122 2596.61 791.18 M2596.61 774.784 Q2596.61 773.759 2598.37 773.8 L2649.65 773.8 Q2652.15 773.8 2652.19 774.784 Q2652.19 775.727 2650.06 775.727 L2598.29 775.727 Q2596.61 775.727 2596.61 774.784 Z" fill="#000000" fill-rule="nonzero" fill-opacity="1" /><path clip-path="url(#clip700)" d="M2684.57 792.614 Q2684.57 790.114 2686 788.925 Q2687.44 787.737 2689.28 787.737 Q2691.21 787.737 2692.56 789.007 Q2693.95 790.237 2693.95 792.409 Q2693.95 794.746 2692.31 796.057 Q2690.72 797.369 2688.42 797.041 Q2690.43 800.402 2694.12 801.919 Q2697.85 803.436 2701.29 803.436 Q2704.9 803.436 2707.81 800.32 Q2710.76 797.205 2710.76 789.581 Q2710.76 783.105 2708.22 779.375 Q2705.72 775.645 2700.76 775.645 L2697.07 775.645 Q2695.8 775.645 2695.43 775.522 Q2695.06 775.399 2695.06 774.702 Q2695.06 773.882 2696.33 773.718 Q2697.6 773.718 2699.61 773.472 Q2704.49 773.308 2707.07 769.087 Q2709.41 765.152 2709.41 759.536 Q2709.41 754.412 2706.95 752.281 Q2704.53 750.108 2701.37 750.108 Q2698.42 750.108 2695.18 751.338 Q2691.94 752.568 2690.18 755.314 Q2695.39 755.314 2695.39 759.536 Q2695.39 761.381 2694.2 762.61 Q2693.05 763.799 2691.13 763.799 Q2689.28 763.799 2688.05 762.651 Q2686.82 761.463 2686.82 759.454 Q2686.82 754.658 2691.08 751.338 Q2695.39 748.018 2701.7 748.018 Q2707.93 748.018 2712.52 751.297 Q2717.15 754.576 2717.15 759.618 Q2717.15 764.578 2713.87 768.636 Q2710.6 772.694 2705.39 774.374 Q2711.78 775.645 2715.6 779.99 Q2719.41 784.294 2719.41 789.581 Q2719.41 796.139 2714.24 800.976 Q2709.08 805.772 2701.54 805.772 Q2694.57 805.772 2689.57 802.001 Q2684.57 798.23 2684.57 792.614 Z" fill="#000000" fill-rule="nonzero" fill-opacity="1" /><path clip-path="url(#clip700)" d="M2425.03 915.742 L2389.76 895.378 L2389.76 854.651 L2425.03 834.287 L2460.3 854.651 L2460.3 895.378 Z" fill="#ff7e00" fill-rule="evenodd" fill-opacity="1" stroke="#000000" stroke-opacity="1" stroke-width="6.51636"/>
<path clip-path="url(#clip700)" d="M2575.36 871.42 Q2575.36 877.405 2572.33 883.184 Q2569.34 888.964 2564.62 892.53 Q2559.91 896.055 2555.11 896.055 Q2552.24 896.055 2550.32 894.497 Q2548.43 892.899 2547.41 890.644 Q2546.63 893.432 2544.95 900.113 Q2543.27 906.794 2543.27 907.45 Q2543.27 907.819 2543.35 907.983 Q2543.43 908.147 2543.8 908.352 Q2544.17 908.598 2545.07 908.68 Q2545.97 908.803 2547.49 908.803 Q2548.27 908.803 2548.55 908.803 Q2548.88 908.844 2549.17 909.049 Q2549.5 909.254 2549.5 909.704 Q2549.5 911.385 2547.98 911.385 Q2546.63 911.385 2543.84 911.262 Q2541.05 911.139 2539.66 911.139 Q2538.47 911.139 2536.09 911.262 Q2533.72 911.385 2532.61 911.385 Q2531.5 911.385 2531.5 910.401 Q2531.5 909.827 2531.67 909.458 Q2531.79 909.131 2532.12 908.967 Q2532.45 908.844 2532.73 908.803 Q2532.98 908.803 2533.47 908.803 Q2535.36 908.803 2536.18 908.475 Q2537 908.188 2537.28 907.573 Q2537.61 906.999 2537.98 905.36 L2547.41 867.977 Q2547.98 865.477 2547.98 863.714 Q2547.98 861.501 2547.28 860.681 Q2546.59 859.861 2545.36 859.861 Q2543.23 859.861 2541.83 862.403 Q2540.44 864.944 2539.25 869.863 Q2538.88 871.216 2538.64 871.502 Q2538.43 871.789 2537.82 871.789 Q2536.79 871.748 2536.79 870.929 Q2536.79 870.724 2537.12 869.412 Q2537.45 868.059 2538.06 866.092 Q2538.72 864.083 2539.41 862.813 Q2539.82 861.952 2540.19 861.378 Q2540.56 860.804 2541.3 859.902 Q2542.08 859.001 2543.19 858.509 Q2544.29 858.017 2545.64 858.017 Q2548.27 858.017 2550.44 859.575 Q2552.61 861.132 2553.19 864.288 Q2555.52 861.542 2558.39 859.779 Q2561.26 858.017 2564.17 858.017 Q2569.01 858.017 2572.16 861.788 Q2575.36 865.518 2575.36 871.42 M2569.3 867.731 Q2569.3 864.001 2567.86 861.952 Q2566.47 859.861 2563.93 859.861 Q2560.77 859.861 2557.12 863.059 Q2553.51 866.092 2552.78 868.92 L2548.64 885.357 L2548.39 886.709 Q2548.39 886.955 2548.51 887.693 Q2548.68 888.39 2549.13 889.538 Q2549.62 890.685 2550.28 891.71 Q2550.97 892.694 2552.2 893.432 Q2553.47 894.169 2555.03 894.169 Q2557.53 894.169 2560.24 891.956 Q2562.98 889.743 2565.03 885.562 Q2566.3 882.856 2567.78 877.036 Q2569.3 871.175 2569.3 867.731 Z" fill="#000000" fill-rule="nonzero" fill-opacity="1" /><path clip-path="url(#clip700)" d="M2596.61 882.365 Q2596.69 881.34 2598.29 881.34 L2649.73 881.34 Q2652.15 881.34 2652.19 882.283 Q2652.19 883.307 2649.89 883.266 L2598.86 883.266 Q2596.61 883.307 2596.61 882.365 M2596.61 865.969 Q2596.61 864.944 2598.37 864.985 L2649.65 864.985 Q2652.15 864.985 2652.19 865.969 Q2652.19 866.912 2650.06 866.912 L2598.29 866.912 Q2596.61 866.912 2596.61 865.969 Z" fill="#000000" fill-rule="nonzero" fill-opacity="1" /><path clip-path="url(#clip700)" d="M2684.57 881.258 L2684.57 878.676 L2710.35 839.285 Q2711 838.26 2712.03 838.301 Q2712.97 838.301 2713.18 838.67 Q2713.38 839.039 2713.38 840.474 L2713.38 878.676 L2721.79 878.676 L2721.79 881.258 L2713.38 881.258 L2713.38 888.554 Q2713.38 890.972 2714.37 891.751 Q2715.39 892.53 2719.74 892.53 L2721.5 892.53 L2721.5 895.112 Q2718.06 894.866 2710.1 894.866 Q2702.19 894.866 2698.75 895.112 L2698.75 892.53 L2700.51 892.53 Q2704.86 892.53 2705.88 891.792 Q2706.91 891.013 2706.91 888.554 L2706.91 881.258 L2684.57 881.258 M2686.94 878.676 L2707.4 878.676 L2707.4 847.36 L2686.94 878.676 Z" fill="#000000" fill-rule="nonzero" fill-opacity="1" /><path clip-path="url(#clip700)" d="M572.082 241.523 Q572.082 223.289 578.88 208.586 Q581.779 202.42 585.837 197.255 Q589.894 192.09 592.582 189.824 Q595.27 187.558 596.008 187.558 Q597.062 187.558 597.114 188.612 Q597.114 189.139 595.692 190.457 Q578.3 208.164 578.353 241.523 Q578.353 274.988 595.27 292.01 Q597.114 293.855 597.114 294.435 Q597.114 295.489 596.008 295.489 Q595.27 295.489 592.688 293.328 Q590.105 291.167 586.1 286.213 Q582.095 281.26 579.196 275.199 Q572.082 260.496 572.082 241.523 Z" fill="#000000" fill-rule="nonzero" fill-opacity="1" /><path clip-path="url(#clip700)" d="M656.478 253.065 Q655.055 259.863 653.21 263.763 Q650.259 269.718 645.253 269.718 Q641.458 269.718 638.77 267.399 Q636.083 265.08 635.45 261.602 Q628.547 269.718 621.379 269.718 Q615.055 269.718 611.05 264.922 Q607.045 260.074 607.045 252.432 Q607.045 244.738 610.839 237.36 Q614.686 229.982 620.747 225.397 Q626.807 220.812 633.026 220.812 Q639.614 220.812 642.986 227.716 Q643.25 225.819 644.462 224.396 Q645.674 222.973 647.519 222.973 Q648.942 222.973 649.785 223.763 Q650.628 224.501 650.628 225.871 Q650.628 226.556 649.89 229.56 L645.99 244.633 L643.619 254.382 Q642.723 257.966 642.459 259.283 Q642.249 260.601 642.249 262.34 Q642.249 267.294 645.463 267.294 Q647.044 267.294 648.309 266.293 Q649.574 265.291 650.575 263.183 Q651.577 261.075 652.209 259.125 Q652.841 257.123 653.685 253.961 Q653.948 252.696 654.159 252.38 Q654.422 252.011 655.16 252.011 Q656.478 252.011 656.478 253.065 M641.669 232.67 Q641.669 232.195 641.3 230.878 Q640.931 229.56 640.088 227.716 Q639.245 225.871 637.4 224.554 Q635.608 223.184 633.184 223.184 Q629.917 223.184 626.491 225.977 Q623.118 228.77 620.641 233.513 Q618.744 237.307 616.689 245.265 Q614.686 253.223 614.686 257.175 Q614.686 259.6 615.213 261.76 Q615.793 263.868 617.427 265.607 Q619.06 267.294 621.59 267.294 Q627.756 267.294 633.817 259.652 Q634.976 258.335 635.239 257.808 Q635.556 257.228 635.977 255.647 L641.353 234.514 Q641.669 232.933 641.669 232.67 Z" fill="#000000" fill-rule="nonzero" fill-opacity="1" /><path clip-path="url(#clip700)" d="M665.3 294.435 Q665.3 293.908 666.67 292.59 Q684.062 274.883 684.062 241.523 Q684.062 208.059 667.355 191.142 Q665.3 189.192 665.3 188.612 Q665.3 187.558 666.354 187.558 Q667.092 187.558 669.674 189.719 Q672.309 191.879 676.262 196.833 Q680.267 201.787 683.218 207.848 Q690.333 222.551 690.333 241.523 Q690.333 259.758 683.535 274.461 Q680.636 280.627 676.578 285.792 Q672.52 290.956 669.832 293.223 Q667.145 295.489 666.354 295.489 Q665.3 295.489 665.3 294.435 Z" fill="#000000" fill-rule="nonzero" fill-opacity="1" /></svg>
